  0
SECTION
  2
HEADER
  9
$ANGBASE
  50
0.0
  9
$ANGDIR
  70
1
  9
$MEASUREMENT
  70
1
  0
ENDSEC
  0
SECTION
  2
TABLES
  0
TABLE
  2
LTYPE
  70
4
  0
LTYPE
  5
40F
  2
CONTINUOUS
  70
0
  3
Solid line
  72
65
  73
0
  40
0.0
  0
LTYPE
  5
410
  2
DASHDOT
 70
0
  3
Dash Dot ____ _ ____ _
 72
65
 73
4
 40
2.0
 49
1.25
 49
-0.25
 49
0.25
 49
-0.25
  0
LTYPE
  5
411
  2
DASHED
 70
0
  3
Dashed __ __ __ __ __
 72
65
 73
2
 40
0.75
 49
0.5
 49
-0.25
  0
LTYPE
  5
43B
  2
DOTTED
 70
0
  3
Dotted .  .  .  .
 72
65
 73
2
 40
0.2
 49
0.0
 49
-0.2
  0
ENDTAB
  0
TABLE
  2
STYLE
  70
4
  0
STYLE
  2
KICAD
  70
0
  40
0
  41
1
  42
1
  50
0
  71
0
  3
isocp.shx
  0
STYLE
  2
KICADB
  70
0
  40
0
  41
1
  42
1
  50
0
  71
0
  3
isocp.shx
  0
STYLE
  2
KICADI
  70
0
  40
0
  41
1
  42
1
  50
15
  71
0
  3
isocp.shx
  0
STYLE
  2
KICADBI
  70
0
  40
0
  41
1
  42
1
  50
15
  71
0
  3
isocp.shx
  0
ENDTAB
  0
TABLE
  2
LAYER
  70
1
  0
LAYER
  2
BLACK
  70
0
  62
7
  6
CONTINUOUS
  0
ENDTAB
  0
ENDSEC
  0
SECTION
  2
ENTITIES
0
ARC
8
BLACK
10
199.
20
-51.
40
1.
50
0.00000000
51
90.00000000
0
ARC
8
BLACK
10
181.
20
-51.
40
1.
50
90.00000000
51
180.00000000
0
ARC
8
BLACK
10
181.
20
-79.
40
1.
50
-180.00000000
51
-90.00000000
0
ARC
8
BLACK
10
199.
20
-79.
40
1.
50
-90.00000000
51
-0.00000000
0
LINE
8
BLACK
6
CONTINUOUS
10
200.
20
-79.
11
200.
21
-51.
0
LINE
8
BLACK
6
CONTINUOUS
10
181.
20
-80.
11
199.
21
-80.
0
LINE
8
BLACK
6
CONTINUOUS
10
199.
20
-50.
11
181.
21
-50.
0
LINE
8
BLACK
6
CONTINUOUS
10
180.
20
-51.
11
180.
21
-79.
0
LINE
8
BLACK
6
CONTINUOUS
10
182.5577679999999816
20
-83.1648380000000031
11
182.5577679999999816
21
-81.1648380000000031
0
LINE
8
BLACK
6
CONTINUOUS
10
182.5577679999999816
20
-81.1648380000000031
11
183.0339579999999842
21
-81.1648380000000031
0
LINE
8
BLACK
6
CONTINUOUS
10
183.0339579999999842
20
-81.1648380000000031
11
183.3196729999999945
21
-81.260075999999998
0
LINE
8
BLACK
6
CONTINUOUS
10
183.3196729999999945
20
-81.260075999999998
11
183.5101489999999842
21
-81.4505520000000018
0
LINE
8
BLACK
6
CONTINUOUS
10
183.5101489999999842
20
-81.4505520000000018
11
183.605386999999979
21
-81.6410279999999915
0
LINE
8
BLACK
6
CONTINUOUS
10
183.605386999999979
20
-81.6410279999999915
11
183.7006250000000023
21
-82.0219799999999992
0
LINE
8
BLACK
6
CONTINUOUS
10
183.7006250000000023
20
-82.0219799999999992
11
183.7006250000000023
21
-82.3076949999999954
0
LINE
8
BLACK
6
CONTINUOUS
10
183.7006250000000023
20
-82.3076949999999954
11
183.605386999999979
21
-82.6886470000000031
0
LINE
8
BLACK
6
CONTINUOUS
10
183.605386999999979
20
-82.6886470000000031
11
183.5101489999999842
21
-82.8791229999999928
0
LINE
8
BLACK
6
CONTINUOUS
10
183.5101489999999842
20
-82.8791229999999928
11
183.3196729999999945
21
-83.0695999999999941
0
LINE
8
BLACK
6
CONTINUOUS
10
183.3196729999999945
20
-83.0695999999999941
11
183.0339579999999842
21
-83.1648380000000031
0
LINE
8
BLACK
6
CONTINUOUS
10
183.0339579999999842
20
-83.1648380000000031
11
182.5577679999999816
21
-83.1648380000000031
0
LINE
8
BLACK
6
CONTINUOUS
10
184.5577679999999816
20
-83.1648380000000031
11
184.5577679999999816
21
-81.8315039999999954
0
LINE
8
BLACK
6
CONTINUOUS
10
184.5577679999999816
20
-82.2124570000000006
11
184.6530060000000049
21
-82.0219799999999992
0
LINE
8
BLACK
6
CONTINUOUS
10
184.6530060000000049
20
-82.0219799999999992
11
184.7482439999999997
21
-81.9267419999999902
0
LINE
8
BLACK
6
CONTINUOUS
10
184.7482439999999997
20
-81.9267419999999902
11
184.9387199999999893
21
-81.8315039999999954
0
LINE
8
BLACK
6
CONTINUOUS
10
184.9387199999999893
20
-81.8315039999999954
11
185.1291970000000049
21
-81.8315039999999954
0
LINE
8
BLACK
6
CONTINUOUS
10
185.7958629999999971
20
-83.1648380000000031
11
185.7958629999999971
21
-81.8315039999999954
0
LINE
8
BLACK
6
CONTINUOUS
10
185.7958629999999971
20
-81.1648380000000031
11
185.7006250000000023
21
-81.260075999999998
0
LINE
8
BLACK
6
CONTINUOUS
10
185.7006250000000023
20
-81.260075999999998
11
185.7958629999999971
21
-81.3553139999999928
0
LINE
8
BLACK
6
CONTINUOUS
10
185.7958629999999971
20
-81.3553139999999928
11
185.8911009999999919
21
-81.260075999999998
0
LINE
8
BLACK
6
CONTINUOUS
10
185.8911009999999919
20
-81.260075999999998
11
185.7958629999999971
21
-81.1648380000000031
0
LINE
8
BLACK
6
CONTINUOUS
10
185.7958629999999971
20
-81.1648380000000031
11
185.7958629999999971
21
-81.3553139999999928
0
LINE
8
BLACK
6
CONTINUOUS
10
187.0339579999999842
20
-83.1648380000000031
11
186.8434819999999945
21
-83.0695999999999941
0
LINE
8
BLACK
6
CONTINUOUS
10
186.8434819999999945
20
-83.0695999999999941
11
186.7482439999999997
21
-82.8791229999999928
0
LINE
8
BLACK
6
CONTINUOUS
10
186.7482439999999997
20
-82.8791229999999928
11
186.7482439999999997
21
-81.1648380000000031
0
LINE
8
BLACK
6
CONTINUOUS
10
188.0815769999999816
20
-83.1648380000000031
11
187.8911009999999919
21
-83.0695999999999941
0
LINE
8
BLACK
6
CONTINUOUS
10
187.8911009999999919
20
-83.0695999999999941
11
187.7958629999999971
21
-82.8791229999999928
0
LINE
8
BLACK
6
CONTINUOUS
10
187.7958629999999971
20
-82.8791229999999928
11
187.7958629999999971
21
-81.1648380000000031
0
LINE
8
BLACK
6
CONTINUOUS
10
190.367291999999992
20
-83.1648380000000031
11
190.367291999999992
21
-81.1648380000000031
0
LINE
8
BLACK
6
CONTINUOUS
10
190.367291999999992
20
-81.1648380000000031
11
191.0339589999999816
21
-82.5934089999999941
0
LINE
8
BLACK
6
CONTINUOUS
10
191.0339589999999816
20
-82.5934089999999941
11
191.7006250000000023
21
-81.1648380000000031
0
LINE
8
BLACK
6
CONTINUOUS
10
191.7006250000000023
20
-81.1648380000000031
11
191.7006250000000023
21
-83.1648380000000031
0
LINE
8
BLACK
6
CONTINUOUS
10
193.5101489999999842
20
-83.1648380000000031
11
193.5101489999999842
21
-82.1172189999999915
0
LINE
8
BLACK
6
CONTINUOUS
10
193.5101489999999842
20
-82.1172189999999915
11
193.4149109999999894
21
-81.9267419999999902
0
LINE
8
BLACK
6
CONTINUOUS
10
193.4149109999999894
20
-81.9267419999999902
11
193.2244349999999997
21
-81.8315039999999954
0
LINE
8
BLACK
6
CONTINUOUS
10
193.2244349999999997
20
-81.8315039999999954
11
192.8434819999999945
21
-81.8315039999999954
0
LINE
8
BLACK
6
CONTINUOUS
10
192.8434819999999945
20
-81.8315039999999954
11
192.6530060000000049
21
-81.9267419999999902
0
LINE
8
BLACK
6
CONTINUOUS
10
193.5101489999999842
20
-83.0695999999999941
11
193.3196729999999945
21
-83.1648380000000031
0
LINE
8
BLACK
6
CONTINUOUS
10
193.3196729999999945
20
-83.1648380000000031
11
192.8434819999999945
21
-83.1648380000000031
0
LINE
8
BLACK
6
CONTINUOUS
10
192.8434819999999945
20
-83.1648380000000031
11
192.6530060000000049
21
-83.0695999999999941
0
LINE
8
BLACK
6
CONTINUOUS
10
192.6530060000000049
20
-83.0695999999999941
11
192.5577679999999816
21
-82.8791229999999928
0
LINE
8
BLACK
6
CONTINUOUS
10
192.5577679999999816
20
-82.8791229999999928
11
192.5577679999999816
21
-82.6886470000000031
0
LINE
8
BLACK
6
CONTINUOUS
10
192.5577679999999816
20
-82.6886470000000031
11
192.6530060000000049
21
-82.4981709999999993
0
LINE
8
BLACK
6
CONTINUOUS
10
192.6530060000000049
20
-82.4981709999999993
11
192.8434819999999945
21
-82.4029329999999902
0
LINE
8
BLACK
6
CONTINUOUS
10
192.8434819999999945
20
-82.4029329999999902
11
193.3196729999999945
21
-82.4029329999999902
0
LINE
8
BLACK
6
CONTINUOUS
10
193.3196729999999945
20
-82.4029329999999902
11
193.5101489999999842
21
-82.3076949999999954
0
LINE
8
BLACK
6
CONTINUOUS
10
194.4625299999999868
20
-81.8315039999999954
11
194.4625299999999868
21
-83.8315039999999954
0
LINE
8
BLACK
6
CONTINUOUS
10
194.4625299999999868
20
-81.9267419999999902
11
194.6530060000000049
21
-81.8315039999999954
0
LINE
8
BLACK
6
CONTINUOUS
10
194.6530060000000049
20
-81.8315039999999954
11
195.0339589999999816
21
-81.8315039999999954
0
LINE
8
BLACK
6
CONTINUOUS
10
195.0339589999999816
20
-81.8315039999999954
11
195.2244349999999997
21
-81.9267419999999902
0
LINE
8
BLACK
6
CONTINUOUS
10
195.2244349999999997
20
-81.9267419999999902
11
195.3196729999999945
21
-82.0219799999999992
0
LINE
8
BLACK
6
CONTINUOUS
10
195.3196729999999945
20
-82.0219799999999992
11
195.4149109999999894
21
-82.2124570000000006
0
LINE
8
BLACK
6
CONTINUOUS
10
195.4149109999999894
20
-82.2124570000000006
11
195.4149109999999894
21
-82.7838849999999979
0
LINE
8
BLACK
6
CONTINUOUS
10
195.4149109999999894
20
-82.7838849999999979
11
195.3196729999999945
21
-82.9743610000000018
0
LINE
8
BLACK
6
CONTINUOUS
10
195.3196729999999945
20
-82.9743610000000018
11
195.2244349999999997
21
-83.0695999999999941
0
LINE
8
BLACK
6
CONTINUOUS
10
195.2244349999999997
20
-83.0695999999999941
11
195.0339589999999816
21
-83.1648380000000031
0
LINE
8
BLACK
6
CONTINUOUS
10
195.0339589999999816
20
-83.1648380000000031
11
194.6530060000000049
21
-83.1648380000000031
0
LINE
8
BLACK
6
CONTINUOUS
10
194.6530060000000049
20
-83.1648380000000031
11
194.4625299999999868
21
-83.0695999999999941
0
LINE
8
BLACK
6
CONTINUOUS
10
196.2720539999999971
20
-82.9743610000000018
11
196.367291999999992
21
-83.0695999999999941
0
LINE
8
BLACK
6
CONTINUOUS
10
196.367291999999992
20
-83.0695999999999941
11
196.2720539999999971
21
-83.1648380000000031
0
LINE
8
BLACK
6
CONTINUOUS
10
196.2720539999999971
20
-83.1648380000000031
11
196.1768160000000023
21
-83.0695999999999941
0
LINE
8
BLACK
6
CONTINUOUS
10
196.1768160000000023
20
-83.0695999999999941
11
196.2720539999999971
21
-82.9743610000000018
0
LINE
8
BLACK
6
CONTINUOUS
10
196.2720539999999971
20
-82.9743610000000018
11
196.2720539999999971
21
-83.1648380000000031
0
LINE
8
BLACK
6
CONTINUOUS
10
196.2720539999999971
20
-81.9267419999999902
11
196.367291999999992
21
-82.0219799999999992
0
LINE
8
BLACK
6
CONTINUOUS
10
196.367291999999992
20
-82.0219799999999992
11
196.2720539999999971
21
-82.1172189999999915
0
LINE
8
BLACK
6
CONTINUOUS
10
196.2720539999999971
20
-82.1172189999999915
11
196.1768160000000023
21
-82.0219799999999992
0
LINE
8
BLACK
6
CONTINUOUS
10
196.1768160000000023
20
-82.0219799999999992
11
196.2720539999999971
21
-81.9267419999999902
0
LINE
8
BLACK
6
CONTINUOUS
10
196.2720539999999971
20
-81.9267419999999902
11
196.2720539999999971
21
-82.1172189999999915
  0
ENDSEC
  0
EOF
