M48
; DRILL file {KiCad 8.0.0} date 2024-03-02T14:54:38+0300
; FORMAT={-:-/ absolute / metric / decimal}
; #@! TF.CreationDate,2024-03-02T14:54:38+03:00
; #@! TF.GenerationSoftware,Kicad,Pcbnew,8.0.0
; #@! TF.FileFunction,Plated,1,4,PTH
FMAT,2
METRIC
; #@! TA.AperFunction,Plated,PTH,ViaDrill
T1C0.250
; #@! TA.AperFunction,Plated,PTH,ViaDrill
T2C0.300
; #@! TA.AperFunction,Plated,PTH,ViaDrill
T3C0.400
%
G90
G05
T1
X180.9Y-72.8
X180.9Y-76.2
X181.0Y-78.597
X182.4Y-79.72
X182.96Y-60.3
X183.65Y-68.8
X183.75Y-74.25
X183.96Y-61.0
X184.6Y-73.8
X186.1Y-68.4
X186.5Y-79.3
X187.2Y-63.8
X187.25Y-79.75
X187.5Y-78.725
X187.8Y-68.4
X188.301Y-66.976
X188.6Y-78.8
X189.0Y-61.4
X189.08Y-75.52
X189.1Y-64.5
X189.2Y-67.9
X189.3Y-54.2
X189.7Y-59.8
X189.75Y-79.75
X190.102Y-75.576
X190.2Y-66.0
X190.3Y-55.3
X190.5Y-63.2
X190.66Y-53.6
X191.0Y-67.8
X191.0Y-71.9
X191.1Y-75.576
X191.1Y-67.0
X191.2Y-55.4
X191.475Y-69.398
X191.508Y-68.206
X191.8Y-70.3
X191.8Y-78.8
X191.9Y-64.0
X192.0Y-57.5
X192.0Y-59.5
X192.0Y-61.5
X192.024Y-54.824
X192.907Y-64.093
X193.25Y-79.5
X193.501Y-66.75
X193.9Y-64.2
X194.0Y-57.3
X194.0Y-61.5
X194.256Y-53.344
X194.3Y-75.55
X194.4Y-54.8
X194.8Y-65.9
X195.2Y-55.1
X196.0Y-57.5
X196.0Y-59.5
X196.0Y-61.5
X196.2Y-78.8
X196.25Y-75.75
X196.826Y-53.374
X197.3Y-72.0
X197.8Y-78.4
X198.1Y-66.85
X198.1Y-67.9
X198.3Y-57.25
X198.75Y-76.0
X198.8Y-54.6
X199.2Y-75.1
X199.5Y-65.25
X199.5Y-66.25
X199.5Y-76.25
X199.617Y-58.126
X199.75Y-63.25
X199.75Y-68.0
T2
X180.75Y-70.0
X181.0Y-51.0
X181.0Y-53.0
X181.0Y-55.0
X181.0Y-57.0
X181.0Y-59.0
X181.0Y-61.0
X181.0Y-63.0
X181.0Y-65.0
X181.0Y-68.5
X181.0Y-75.0
X182.0Y-56.2
X182.0Y-60.3
X182.0Y-75.25
X182.3Y-70.3
X183.0Y-51.0
X183.0Y-53.0
X183.0Y-73.0
X183.2Y-70.4
X184.0Y-65.038
X184.4Y-70.4
X185.0Y-51.0
X185.0Y-53.0
X185.0Y-55.0
X185.2Y-61.0
X187.0Y-55.0
X188.6Y-69.4
X197.1Y-72.9
X197.35Y-64.29
X197.8Y-65.9
X198.28Y-53.6
X198.5Y-59.8
X198.75Y-63.25
X198.8Y-59.0
X199.1Y-79.1
X199.4Y-52.072
T3
X188.1Y-53.6
M30
