  0
SECTION
  2
HEADER
  9
$ANGBASE
  50
0.0
  9
$ANGDIR
  70
1
  9
$MEASUREMENT
  70
1
  0
ENDSEC
  0
SECTION
  2
TABLES
  0
TABLE
  2
LTYPE
  70
4
  0
LTYPE
  5
40F
  2
CONTINUOUS
  70
0
  3
Solid line
  72
65
  73
0
  40
0.0
  0
LTYPE
  5
410
  2
DASHDOT
 70
0
  3
Dash Dot ____ _ ____ _
 72
65
 73
4
 40
2.0
 49
1.25
 49
-0.25
 49
0.25
 49
-0.25
  0
LTYPE
  5
411
  2
DASHED
 70
0
  3
Dashed __ __ __ __ __
 72
65
 73
2
 40
0.75
 49
0.5
 49
-0.25
  0
LTYPE
  5
43B
  2
DOTTED
 70
0
  3
Dotted .  .  .  .
 72
65
 73
2
 40
0.2
 49
0.0
 49
-0.2
  0
ENDTAB
  0
TABLE
  2
STYLE
  70
4
  0
STYLE
  2
KICAD
  70
0
  40
0
  41
1
  42
1
  50
0
  71
0
  3
isocp.shx
  0
STYLE
  2
KICADB
  70
0
  40
0
  41
1
  42
1
  50
0
  71
0
  3
isocp.shx
  0
STYLE
  2
KICADI
  70
0
  40
0
  41
1
  42
1
  50
15
  71
0
  3
isocp.shx
  0
STYLE
  2
KICADBI
  70
0
  40
0
  41
1
  42
1
  50
15
  71
0
  3
isocp.shx
  0
ENDTAB
  0
TABLE
  2
LAYER
  70
1
  0
LAYER
  2
BLACK
  70
0
  62
7
  6
CONTINUOUS
  0
ENDTAB
  0
ENDSEC
  0
SECTION
  2
ENTITIES
0
ARC
8
BLACK
10
199.
20
-51.
40
1.
50
0.00000000
51
90.00000000
0
ARC
8
BLACK
10
181.
20
-51.
40
1.
50
90.00000000
51
180.00000000
0
ARC
8
BLACK
10
181.
20
-79.
40
1.
50
-180.00000000
51
-90.00000000
0
ARC
8
BLACK
10
199.
20
-79.
40
1.
50
-90.00000000
51
-0.00000000
0
LINE
8
BLACK
6
CONTINUOUS
10
200.
20
-79.
11
200.
21
-51.
0
LINE
8
BLACK
6
CONTINUOUS
10
181.
20
-80.
11
199.
21
-80.
0
LINE
8
BLACK
6
CONTINUOUS
10
199.
20
-50.
11
181.
21
-50.
0
LINE
8
BLACK
6
CONTINUOUS
10
180.
20
-51.
11
180.
21
-79.
0
LINE
8
BLACK
6
CONTINUOUS
10
180.7750000000000057
20
-72.6749999999999972
11
181.0250000000000057
21
-72.9249999999999972
0
LINE
8
BLACK
6
CONTINUOUS
10
181.0250000000000057
20
-72.6749999999999972
11
180.7750000000000057
21
-72.9249999999999972
0
LINE
8
BLACK
6
CONTINUOUS
10
180.7750000000000057
20
-76.0750000000000028
11
181.0250000000000057
21
-76.3250000000000028
0
LINE
8
BLACK
6
CONTINUOUS
10
181.0250000000000057
20
-76.0750000000000028
11
180.7750000000000057
21
-76.3250000000000028
0
LINE
8
BLACK
6
CONTINUOUS
10
180.875
20
-78.4721509999999967
11
181.125
21
-78.7221509999999967
0
LINE
8
BLACK
6
CONTINUOUS
10
181.125
20
-78.4721509999999967
11
180.875
21
-78.7221509999999967
0
LINE
8
BLACK
6
CONTINUOUS
10
182.2750000000000057
20
-79.5951079999999962
11
182.5250000000000057
21
-79.8451079999999962
0
LINE
8
BLACK
6
CONTINUOUS
10
182.5250000000000057
20
-79.5951079999999962
11
182.2750000000000057
21
-79.8451079999999962
0
LINE
8
BLACK
6
CONTINUOUS
10
182.8349999999999795
20
-60.1749999999999972
11
183.0849999999999795
21
-60.4249999999999972
0
LINE
8
BLACK
6
CONTINUOUS
10
183.0849999999999795
20
-60.1749999999999972
11
182.8349999999999795
21
-60.4249999999999972
0
LINE
8
BLACK
6
CONTINUOUS
10
183.5250000000000057
20
-68.6749999999999972
11
183.7750000000000057
21
-68.9249999999999972
0
LINE
8
BLACK
6
CONTINUOUS
10
183.7750000000000057
20
-68.6749999999999972
11
183.5250000000000057
21
-68.9249999999999972
0
LINE
8
BLACK
6
CONTINUOUS
10
183.625
20
-74.125
11
183.875
21
-74.375
0
LINE
8
BLACK
6
CONTINUOUS
10
183.875
20
-74.125
11
183.625
21
-74.375
0
LINE
8
BLACK
6
CONTINUOUS
10
183.8349999999999795
20
-60.875
11
184.0849999999999795
21
-61.125
0
LINE
8
BLACK
6
CONTINUOUS
10
184.0849999999999795
20
-60.875
11
183.8349999999999795
21
-61.125
0
LINE
8
BLACK
6
CONTINUOUS
10
184.4749999999999943
20
-73.6749999999999972
11
184.7249999999999943
21
-73.9249999999999972
0
LINE
8
BLACK
6
CONTINUOUS
10
184.7249999999999943
20
-73.6749999999999972
11
184.4749999999999943
21
-73.9249999999999972
0
LINE
8
BLACK
6
CONTINUOUS
10
185.9749999999999943
20
-68.2749999999999915
11
186.2249999999999943
21
-68.5249999999999915
0
LINE
8
BLACK
6
CONTINUOUS
10
186.2249999999999943
20
-68.2749999999999915
11
185.9749999999999943
21
-68.5249999999999915
0
LINE
8
BLACK
6
CONTINUOUS
10
186.375
20
-79.1749999999999972
11
186.625
21
-79.4249999999999972
0
LINE
8
BLACK
6
CONTINUOUS
10
186.625
20
-79.1749999999999972
11
186.375
21
-79.4249999999999972
0
LINE
8
BLACK
6
CONTINUOUS
10
187.0749999999999886
20
-63.6749999999999972
11
187.3249999999999886
21
-63.9249999999999972
0
LINE
8
BLACK
6
CONTINUOUS
10
187.3249999999999886
20
-63.6749999999999972
11
187.0749999999999886
21
-63.9249999999999972
0
LINE
8
BLACK
6
CONTINUOUS
10
187.125
20
-79.625
11
187.375
21
-79.875
0
LINE
8
BLACK
6
CONTINUOUS
10
187.375
20
-79.625
11
187.125
21
-79.875
0
LINE
8
BLACK
6
CONTINUOUS
10
187.375
20
-78.6000020000000035
11
187.625
21
-78.8500020000000035
0
LINE
8
BLACK
6
CONTINUOUS
10
187.625
20
-78.6000020000000035
11
187.375
21
-78.8500020000000035
0
LINE
8
BLACK
6
CONTINUOUS
10
187.6749999999999829
20
-68.2749999999999915
11
187.9249999999999829
21
-68.5249999999999915
0
LINE
8
BLACK
6
CONTINUOUS
10
187.9249999999999829
20
-68.2749999999999915
11
187.6749999999999829
21
-68.5249999999999915
0
LINE
8
BLACK
6
CONTINUOUS
10
188.1764089999999783
20
-66.8514090000000039
11
188.4264089999999783
21
-67.1014090000000039
0
LINE
8
BLACK
6
CONTINUOUS
10
188.4264089999999783
20
-66.8514090000000039
11
188.1764089999999783
21
-67.1014090000000039
0
LINE
8
BLACK
6
CONTINUOUS
10
188.4749999999999943
20
-78.6749999999999972
11
188.7249999999999943
21
-78.9249999999999972
0
LINE
8
BLACK
6
CONTINUOUS
10
188.7249999999999943
20
-78.6749999999999972
11
188.4749999999999943
21
-78.9249999999999972
0
LINE
8
BLACK
6
CONTINUOUS
10
188.875
20
-61.2749999999999986
11
189.125
21
-61.5249999999999986
0
LINE
8
BLACK
6
CONTINUOUS
10
189.125
20
-61.2749999999999986
11
188.875
21
-61.5249999999999986
0
LINE
8
BLACK
6
CONTINUOUS
10
188.9548409999999876
20
-75.3951589999999925
11
189.2048409999999876
21
-75.6451589999999925
0
LINE
8
BLACK
6
CONTINUOUS
10
189.2048409999999876
20
-75.3951589999999925
11
188.9548409999999876
21
-75.6451589999999925
0
LINE
8
BLACK
6
CONTINUOUS
10
188.9749999999999943
20
-64.375
11
189.2249999999999943
21
-64.625
0
LINE
8
BLACK
6
CONTINUOUS
10
189.2249999999999943
20
-64.375
11
188.9749999999999943
21
-64.625
0
LINE
8
BLACK
6
CONTINUOUS
10
189.0749999999999886
20
-67.7749999999999915
11
189.3249999999999886
21
-68.0249999999999915
0
LINE
8
BLACK
6
CONTINUOUS
10
189.3249999999999886
20
-67.7749999999999915
11
189.0749999999999886
21
-68.0249999999999915
0
LINE
8
BLACK
6
CONTINUOUS
10
189.1749999999999829
20
-54.0749999999999957
11
189.4249999999999829
21
-54.3249999999999957
0
LINE
8
BLACK
6
CONTINUOUS
10
189.4249999999999829
20
-54.0749999999999957
11
189.1749999999999829
21
-54.3249999999999957
0
LINE
8
BLACK
6
CONTINUOUS
10
189.5749999999999886
20
-59.6749999999999972
11
189.8249999999999886
21
-59.9249999999999972
0
LINE
8
BLACK
6
CONTINUOUS
10
189.8249999999999886
20
-59.6749999999999972
11
189.5749999999999886
21
-59.9249999999999972
0
LINE
8
BLACK
6
CONTINUOUS
10
189.625
20
-79.625
11
189.875
21
-79.875
0
LINE
8
BLACK
6
CONTINUOUS
10
189.875
20
-79.625
11
189.625
21
-79.875
0
LINE
8
BLACK
6
CONTINUOUS
10
189.9765109999999879
20
-75.4508259999999922
11
190.2265109999999879
21
-75.7008259999999922
0
LINE
8
BLACK
6
CONTINUOUS
10
190.2265109999999879
20
-75.4508259999999922
11
189.9765109999999879
21
-75.7008259999999922
0
LINE
8
BLACK
6
CONTINUOUS
10
190.0749999999999886
20
-65.875
11
190.3249999999999886
21
-66.125
0
LINE
8
BLACK
6
CONTINUOUS
10
190.3249999999999886
20
-65.875
11
190.0749999999999886
21
-66.125
0
LINE
8
BLACK
6
CONTINUOUS
10
190.1749999999999829
20
-55.1749999999999972
11
190.4249999999999829
21
-55.4249999999999972
0
LINE
8
BLACK
6
CONTINUOUS
10
190.4249999999999829
20
-55.1749999999999972
11
190.1749999999999829
21
-55.4249999999999972
0
LINE
8
BLACK
6
CONTINUOUS
10
190.375
20
-63.0749999999999957
11
190.625
21
-63.3249999999999957
0
LINE
8
BLACK
6
CONTINUOUS
10
190.625
20
-63.0749999999999957
11
190.375
21
-63.3249999999999957
0
LINE
8
BLACK
6
CONTINUOUS
10
190.5349999999999966
20
-53.4749999999999943
11
190.7849999999999966
21
-53.7249999999999943
0
LINE
8
BLACK
6
CONTINUOUS
10
190.7849999999999966
20
-53.4749999999999943
11
190.5349999999999966
21
-53.7249999999999943
0
LINE
8
BLACK
6
CONTINUOUS
10
190.875
20
-67.6749999999999972
11
191.125
21
-67.9249999999999972
0
LINE
8
BLACK
6
CONTINUOUS
10
191.125
20
-67.6749999999999972
11
190.875
21
-67.9249999999999972
0
LINE
8
BLACK
6
CONTINUOUS
10
190.875
20
-71.7749999999999915
11
191.125
21
-72.0249999999999915
0
LINE
8
BLACK
6
CONTINUOUS
10
191.125
20
-71.7749999999999915
11
190.875
21
-72.0249999999999915
0
LINE
8
BLACK
6
CONTINUOUS
10
190.9747239999999806
20
-75.4507189999999923
11
191.2247239999999806
21
-75.7007189999999923
0
LINE
8
BLACK
6
CONTINUOUS
10
191.2247239999999806
20
-75.4507189999999923
11
190.9747239999999806
21
-75.7007189999999923
0
LINE
8
BLACK
6
CONTINUOUS
10
190.9749999999999943
20
-66.875
11
191.2249999999999943
21
-67.125
0
LINE
8
BLACK
6
CONTINUOUS
10
191.2249999999999943
20
-66.875
11
190.9749999999999943
21
-67.125
0
LINE
8
BLACK
6
CONTINUOUS
10
191.0749999999999886
20
-55.2749999999999986
11
191.3249999999999886
21
-55.5249999999999986
0
LINE
8
BLACK
6
CONTINUOUS
10
191.3249999999999886
20
-55.2749999999999986
11
191.0749999999999886
21
-55.5249999999999986
0
LINE
8
BLACK
6
CONTINUOUS
10
191.3499999999999943
20
-69.272759999999991
11
191.5999999999999943
21
-69.522759999999991
0
LINE
8
BLACK
6
CONTINUOUS
10
191.5999999999999943
20
-69.272759999999991
11
191.3499999999999943
21
-69.522759999999991
0
LINE
8
BLACK
6
CONTINUOUS
10
191.3825669999999946
20
-68.0810529999999972
11
191.6325669999999946
21
-68.3310529999999972
0
LINE
8
BLACK
6
CONTINUOUS
10
191.6325669999999946
20
-68.0810529999999972
11
191.3825669999999946
21
-68.3310529999999972
0
LINE
8
BLACK
6
CONTINUOUS
10
191.6749999999999829
20
-70.1749999999999972
11
191.9249999999999829
21
-70.4249999999999972
0
LINE
8
BLACK
6
CONTINUOUS
10
191.9249999999999829
20
-70.1749999999999972
11
191.6749999999999829
21
-70.4249999999999972
0
LINE
8
BLACK
6
CONTINUOUS
10
191.6749999999999829
20
-78.6749999999999972
11
191.9249999999999829
21
-78.9249999999999972
0
LINE
8
BLACK
6
CONTINUOUS
10
191.9249999999999829
20
-78.6749999999999972
11
191.6749999999999829
21
-78.9249999999999972
0
LINE
8
BLACK
6
CONTINUOUS
10
191.7749999999999773
20
-63.875
11
192.0249999999999773
21
-64.125
0
LINE
8
BLACK
6
CONTINUOUS
10
192.0249999999999773
20
-63.875
11
191.7749999999999773
21
-64.125
0
LINE
8
BLACK
6
CONTINUOUS
10
191.875
20
-57.375
11
192.125
21
-57.625
0
LINE
8
BLACK
6
CONTINUOUS
10
192.125
20
-57.375
11
191.875
21
-57.625
0
LINE
8
BLACK
6
CONTINUOUS
10
191.875
20
-59.375
11
192.125
21
-59.625
0
LINE
8
BLACK
6
CONTINUOUS
10
192.125
20
-59.375
11
191.875
21
-59.625
0
LINE
8
BLACK
6
CONTINUOUS
10
191.875
20
-61.375
11
192.125
21
-61.625
0
LINE
8
BLACK
6
CONTINUOUS
10
192.125
20
-61.375
11
191.875
21
-61.625
0
LINE
8
BLACK
6
CONTINUOUS
10
191.8987679999999898
20
-54.6987679999999941
11
192.1487679999999898
21
-54.9487679999999941
0
LINE
8
BLACK
6
CONTINUOUS
10
192.1487679999999898
20
-54.6987679999999941
11
191.8987679999999898
21
-54.9487679999999941
0
LINE
8
BLACK
6
CONTINUOUS
10
192.7815870000000018
20
-63.9684129999999982
11
193.0315870000000018
21
-64.2184129999999982
0
LINE
8
BLACK
6
CONTINUOUS
10
193.0315870000000018
20
-63.9684129999999982
11
192.7815870000000018
21
-64.2184129999999982
0
LINE
8
BLACK
6
CONTINUOUS
10
193.125
20
-79.375
11
193.375
21
-79.625
0
LINE
8
BLACK
6
CONTINUOUS
10
193.375
20
-79.375
11
193.125
21
-79.625
0
LINE
8
BLACK
6
CONTINUOUS
10
193.3763160000000028
20
-66.625
11
193.6263160000000028
21
-66.875
0
LINE
8
BLACK
6
CONTINUOUS
10
193.6263160000000028
20
-66.625
11
193.3763160000000028
21
-66.875
0
LINE
8
BLACK
6
CONTINUOUS
10
193.7749999999999773
20
-64.0750000000000028
11
194.0249999999999773
21
-64.3250000000000028
0
LINE
8
BLACK
6
CONTINUOUS
10
194.0249999999999773
20
-64.0750000000000028
11
193.7749999999999773
21
-64.3250000000000028
0
LINE
8
BLACK
6
CONTINUOUS
10
193.875
20
-57.1749999999999972
11
194.125
21
-57.4249999999999972
0
LINE
8
BLACK
6
CONTINUOUS
10
194.125
20
-57.1749999999999972
11
193.875
21
-57.4249999999999972
0
LINE
8
BLACK
6
CONTINUOUS
10
193.875
20
-61.375
11
194.125
21
-61.625
0
LINE
8
BLACK
6
CONTINUOUS
10
194.125
20
-61.375
11
193.875
21
-61.625
0
LINE
8
BLACK
6
CONTINUOUS
10
194.1312499999999943
20
-53.21875
11
194.3812499999999943
21
-53.46875
0
LINE
8
BLACK
6
CONTINUOUS
10
194.3812499999999943
20
-53.21875
11
194.1312499999999943
21
-53.46875
0
LINE
8
BLACK
6
CONTINUOUS
10
194.1749999999999829
20
-75.4249999999999972
11
194.4249999999999829
21
-75.6749999999999972
0
LINE
8
BLACK
6
CONTINUOUS
10
194.4249999999999829
20
-75.4249999999999972
11
194.1749999999999829
21
-75.6749999999999972
0
LINE
8
BLACK
6
CONTINUOUS
10
194.2749999999999773
20
-54.6749999999999972
11
194.5249999999999773
21
-54.9249999999999972
0
LINE
8
BLACK
6
CONTINUOUS
10
194.5249999999999773
20
-54.6749999999999972
11
194.2749999999999773
21
-54.9249999999999972
0
LINE
8
BLACK
6
CONTINUOUS
10
194.6749999999999829
20
-65.7749999999999915
11
194.9249999999999829
21
-66.0249999999999915
0
LINE
8
BLACK
6
CONTINUOUS
10
194.9249999999999829
20
-65.7749999999999915
11
194.6749999999999829
21
-66.0249999999999915
0
LINE
8
BLACK
6
CONTINUOUS
10
195.0749999999999886
20
-54.9749999999999943
11
195.3249999999999886
21
-55.2249999999999943
0
LINE
8
BLACK
6
CONTINUOUS
10
195.3249999999999886
20
-54.9749999999999943
11
195.0749999999999886
21
-55.2249999999999943
0
LINE
8
BLACK
6
CONTINUOUS
10
195.875
20
-57.375
11
196.125
21
-57.625
0
LINE
8
BLACK
6
CONTINUOUS
10
196.125
20
-57.375
11
195.875
21
-57.625
0
LINE
8
BLACK
6
CONTINUOUS
10
195.875
20
-59.375
11
196.125
21
-59.625
0
LINE
8
BLACK
6
CONTINUOUS
10
196.125
20
-59.375
11
195.875
21
-59.625
0
LINE
8
BLACK
6
CONTINUOUS
10
195.875
20
-61.375
11
196.125
21
-61.625
0
LINE
8
BLACK
6
CONTINUOUS
10
196.125
20
-61.375
11
195.875
21
-61.625
0
LINE
8
BLACK
6
CONTINUOUS
10
196.0749999999999886
20
-78.6749999999999972
11
196.3249999999999886
21
-78.9249999999999972
0
LINE
8
BLACK
6
CONTINUOUS
10
196.3249999999999886
20
-78.6749999999999972
11
196.0749999999999886
21
-78.9249999999999972
0
LINE
8
BLACK
6
CONTINUOUS
10
196.125
20
-75.625
11
196.375
21
-75.875
0
LINE
8
BLACK
6
CONTINUOUS
10
196.375
20
-75.625
11
196.125
21
-75.875
0
LINE
8
BLACK
6
CONTINUOUS
10
196.7012499999999875
20
-53.2487500000000011
11
196.9512499999999875
21
-53.498749999999994
0
LINE
8
BLACK
6
CONTINUOUS
10
196.9512499999999875
20
-53.2487500000000011
11
196.7012499999999875
21
-53.498749999999994
0
LINE
8
BLACK
6
CONTINUOUS
10
197.1749999999999829
20
-71.875
11
197.4249999999999829
21
-72.125
0
LINE
8
BLACK
6
CONTINUOUS
10
197.4249999999999829
20
-71.875
11
197.1749999999999829
21
-72.125
0
LINE
8
BLACK
6
CONTINUOUS
10
197.6749999999999829
20
-78.2749999999999915
11
197.9249999999999829
21
-78.5249999999999915
0
LINE
8
BLACK
6
CONTINUOUS
10
197.9249999999999829
20
-78.2749999999999915
11
197.6749999999999829
21
-78.5249999999999915
0
LINE
8
BLACK
6
CONTINUOUS
10
197.9749999999999943
20
-66.7249999999999943
11
198.2249999999999943
21
-66.9749999999999943
0
LINE
8
BLACK
6
CONTINUOUS
10
198.2249999999999943
20
-66.7249999999999943
11
197.9749999999999943
21
-66.9749999999999943
0
LINE
8
BLACK
6
CONTINUOUS
10
197.9749999999999943
20
-67.7749999999999915
11
198.2249999999999943
21
-68.0249999999999915
0
LINE
8
BLACK
6
CONTINUOUS
10
198.2249999999999943
20
-67.7749999999999915
11
197.9749999999999943
21
-68.0249999999999915
0
LINE
8
BLACK
6
CONTINUOUS
10
198.1749999999999829
20
-57.125
11
198.4249999999999829
21
-57.375
0
LINE
8
BLACK
6
CONTINUOUS
10
198.4249999999999829
20
-57.125
11
198.1749999999999829
21
-57.375
0
LINE
8
BLACK
6
CONTINUOUS
10
198.625
20
-75.875
11
198.875
21
-76.125
0
LINE
8
BLACK
6
CONTINUOUS
10
198.875
20
-75.875
11
198.625
21
-76.125
0
LINE
8
BLACK
6
CONTINUOUS
10
198.6749999999999829
20
-54.4749999999999943
11
198.9249999999999829
21
-54.7249999999999943
0
LINE
8
BLACK
6
CONTINUOUS
10
198.9249999999999829
20
-54.4749999999999943
11
198.6749999999999829
21
-54.7249999999999943
0
LINE
8
BLACK
6
CONTINUOUS
10
199.0749999999999886
20
-74.9749999999999943
11
199.3249999999999886
21
-75.2249999999999943
0
LINE
8
BLACK
6
CONTINUOUS
10
199.3249999999999886
20
-74.9749999999999943
11
199.0749999999999886
21
-75.2249999999999943
0
LINE
8
BLACK
6
CONTINUOUS
10
199.375
20
-65.125
11
199.625
21
-65.375
0
LINE
8
BLACK
6
CONTINUOUS
10
199.625
20
-65.125
11
199.375
21
-65.375
0
LINE
8
BLACK
6
CONTINUOUS
10
199.375
20
-66.125
11
199.625
21
-66.375
0
LINE
8
BLACK
6
CONTINUOUS
10
199.625
20
-66.125
11
199.375
21
-66.375
0
LINE
8
BLACK
6
CONTINUOUS
10
199.375
20
-76.125
11
199.625
21
-76.375
0
LINE
8
BLACK
6
CONTINUOUS
10
199.625
20
-76.125
11
199.375
21
-76.375
0
LINE
8
BLACK
6
CONTINUOUS
10
199.4923599999999908
20
-58.0011729999999943
11
199.7423599999999908
21
-58.2511729999999943
0
LINE
8
BLACK
6
CONTINUOUS
10
199.7423599999999908
20
-58.0011729999999943
11
199.4923599999999908
21
-58.2511729999999943
0
LINE
8
BLACK
6
CONTINUOUS
10
199.625
20
-63.125
11
199.875
21
-63.375
0
LINE
8
BLACK
6
CONTINUOUS
10
199.875
20
-63.125
11
199.625
21
-63.375
0
LINE
8
BLACK
6
CONTINUOUS
10
199.625
20
-67.875
11
199.875
21
-68.125
0
LINE
8
BLACK
6
CONTINUOUS
10
199.875
20
-67.875
11
199.625
21
-68.125
0
CIRCLE
8
BLACK
10
180.75
20
-70.
40
0.15
0
CIRCLE
8
BLACK
10
181.
20
-51.
40
0.15
0
CIRCLE
8
BLACK
10
181.
20
-53.
40
0.15
0
CIRCLE
8
BLACK
10
181.
20
-55.
40
0.15
0
CIRCLE
8
BLACK
10
181.
20
-57.
40
0.15
0
CIRCLE
8
BLACK
10
181.
20
-59.
40
0.15
0
CIRCLE
8
BLACK
10
181.
20
-61.
40
0.15
0
CIRCLE
8
BLACK
10
181.
20
-63.
40
0.15
0
CIRCLE
8
BLACK
10
181.
20
-65.
40
0.15
0
CIRCLE
8
BLACK
10
181.
20
-68.5
40
0.15
0
CIRCLE
8
BLACK
10
181.
20
-75.
40
0.15
0
CIRCLE
8
BLACK
10
182.
20
-56.1999999999999957
40
0.15
0
CIRCLE
8
BLACK
10
182.
20
-60.2999999999999972
40
0.15
0
CIRCLE
8
BLACK
10
182.
20
-75.25
40
0.15
0
CIRCLE
8
BLACK
10
182.2999999999999829
20
-70.2999999999999972
40
0.15
0
CIRCLE
8
BLACK
10
183.
20
-51.
40
0.15
0
CIRCLE
8
BLACK
10
183.
20
-53.
40
0.15
0
CIRCLE
8
BLACK
10
183.
20
-73.
40
0.15
0
CIRCLE
8
BLACK
10
183.1999999999999886
20
-70.3999999999999915
40
0.15
0
CIRCLE
8
BLACK
10
184.
20
-65.0375009999999918
40
0.15
0
CIRCLE
8
BLACK
10
184.4000000000000057
20
-70.3999999999999915
40
0.15
0
CIRCLE
8
BLACK
10
185.
20
-51.
40
0.15
0
CIRCLE
8
BLACK
10
185.
20
-53.
40
0.15
0
CIRCLE
8
BLACK
10
185.
20
-55.
40
0.15
0
CIRCLE
8
BLACK
10
185.1999999999999886
20
-61.
40
0.15
0
CIRCLE
8
BLACK
10
187.
20
-55.
40
0.15
0
CIRCLE
8
BLACK
10
188.5999999999999943
20
-69.3999999999999915
40
0.15
0
CIRCLE
8
BLACK
10
197.0999999999999943
20
-72.8999999999999915
40
0.15
0
CIRCLE
8
BLACK
10
197.3499999999999943
20
-64.289999999999992
40
0.15
0
CIRCLE
8
BLACK
10
197.7999999999999829
20
-65.8999999999999915
40
0.15
0
CIRCLE
8
BLACK
10
198.2800000000000011
20
-53.5999999999999943
40
0.15
0
CIRCLE
8
BLACK
10
198.5
20
-59.7999999999999972
40
0.15
0
CIRCLE
8
BLACK
10
198.75
20
-63.25
40
0.15
0
CIRCLE
8
BLACK
10
198.7999999999999829
20
-59.
40
0.15
0
CIRCLE
8
BLACK
10
199.0999999999999943
20
-79.0999999999999943
40
0.15
0
CIRCLE
8
BLACK
10
199.3999999999999773
20
-52.072499999999998
40
0.15
0
LINE
8
BLACK
6
CONTINUOUS
10
188.0999999999999943
20
-53.3999999999999986
11
188.0999999999999943
21
-53.7999999999999972
0
LINE
8
BLACK
6
CONTINUOUS
10
187.9000000000000057
20
-53.5999999999999943
11
188.2999999999999829
21
-53.5999999999999943
0
LINE
8
BLACK
6
CONTINUOUS
10
182.5577679999999816
20
-83.1648380000000031
11
182.5577679999999816
21
-81.1648380000000031
0
LINE
8
BLACK
6
CONTINUOUS
10
182.5577679999999816
20
-81.1648380000000031
11
183.0339579999999842
21
-81.1648380000000031
0
LINE
8
BLACK
6
CONTINUOUS
10
183.0339579999999842
20
-81.1648380000000031
11
183.3196729999999945
21
-81.260075999999998
0
LINE
8
BLACK
6
CONTINUOUS
10
183.3196729999999945
20
-81.260075999999998
11
183.5101489999999842
21
-81.4505520000000018
0
LINE
8
BLACK
6
CONTINUOUS
10
183.5101489999999842
20
-81.4505520000000018
11
183.605386999999979
21
-81.6410279999999915
0
LINE
8
BLACK
6
CONTINUOUS
10
183.605386999999979
20
-81.6410279999999915
11
183.7006250000000023
21
-82.0219799999999992
0
LINE
8
BLACK
6
CONTINUOUS
10
183.7006250000000023
20
-82.0219799999999992
11
183.7006250000000023
21
-82.3076949999999954
0
LINE
8
BLACK
6
CONTINUOUS
10
183.7006250000000023
20
-82.3076949999999954
11
183.605386999999979
21
-82.6886470000000031
0
LINE
8
BLACK
6
CONTINUOUS
10
183.605386999999979
20
-82.6886470000000031
11
183.5101489999999842
21
-82.8791229999999928
0
LINE
8
BLACK
6
CONTINUOUS
10
183.5101489999999842
20
-82.8791229999999928
11
183.3196729999999945
21
-83.0695999999999941
0
LINE
8
BLACK
6
CONTINUOUS
10
183.3196729999999945
20
-83.0695999999999941
11
183.0339579999999842
21
-83.1648380000000031
0
LINE
8
BLACK
6
CONTINUOUS
10
183.0339579999999842
20
-83.1648380000000031
11
182.5577679999999816
21
-83.1648380000000031
0
LINE
8
BLACK
6
CONTINUOUS
10
184.5577679999999816
20
-83.1648380000000031
11
184.5577679999999816
21
-81.8315039999999954
0
LINE
8
BLACK
6
CONTINUOUS
10
184.5577679999999816
20
-82.2124570000000006
11
184.6530060000000049
21
-82.0219799999999992
0
LINE
8
BLACK
6
CONTINUOUS
10
184.6530060000000049
20
-82.0219799999999992
11
184.7482439999999997
21
-81.9267419999999902
0
LINE
8
BLACK
6
CONTINUOUS
10
184.7482439999999997
20
-81.9267419999999902
11
184.9387199999999893
21
-81.8315039999999954
0
LINE
8
BLACK
6
CONTINUOUS
10
184.9387199999999893
20
-81.8315039999999954
11
185.1291970000000049
21
-81.8315039999999954
0
LINE
8
BLACK
6
CONTINUOUS
10
185.7958629999999971
20
-83.1648380000000031
11
185.7958629999999971
21
-81.8315039999999954
0
LINE
8
BLACK
6
CONTINUOUS
10
185.7958629999999971
20
-81.1648380000000031
11
185.7006250000000023
21
-81.260075999999998
0
LINE
8
BLACK
6
CONTINUOUS
10
185.7006250000000023
20
-81.260075999999998
11
185.7958629999999971
21
-81.3553139999999928
0
LINE
8
BLACK
6
CONTINUOUS
10
185.7958629999999971
20
-81.3553139999999928
11
185.8911009999999919
21
-81.260075999999998
0
LINE
8
BLACK
6
CONTINUOUS
10
185.8911009999999919
20
-81.260075999999998
11
185.7958629999999971
21
-81.1648380000000031
0
LINE
8
BLACK
6
CONTINUOUS
10
185.7958629999999971
20
-81.1648380000000031
11
185.7958629999999971
21
-81.3553139999999928
0
LINE
8
BLACK
6
CONTINUOUS
10
187.0339579999999842
20
-83.1648380000000031
11
186.8434819999999945
21
-83.0695999999999941
0
LINE
8
BLACK
6
CONTINUOUS
10
186.8434819999999945
20
-83.0695999999999941
11
186.7482439999999997
21
-82.8791229999999928
0
LINE
8
BLACK
6
CONTINUOUS
10
186.7482439999999997
20
-82.8791229999999928
11
186.7482439999999997
21
-81.1648380000000031
0
LINE
8
BLACK
6
CONTINUOUS
10
188.0815769999999816
20
-83.1648380000000031
11
187.8911009999999919
21
-83.0695999999999941
0
LINE
8
BLACK
6
CONTINUOUS
10
187.8911009999999919
20
-83.0695999999999941
11
187.7958629999999971
21
-82.8791229999999928
0
LINE
8
BLACK
6
CONTINUOUS
10
187.7958629999999971
20
-82.8791229999999928
11
187.7958629999999971
21
-81.1648380000000031
0
LINE
8
BLACK
6
CONTINUOUS
10
190.367291999999992
20
-83.1648380000000031
11
190.367291999999992
21
-81.1648380000000031
0
LINE
8
BLACK
6
CONTINUOUS
10
190.367291999999992
20
-81.1648380000000031
11
191.0339589999999816
21
-82.5934089999999941
0
LINE
8
BLACK
6
CONTINUOUS
10
191.0339589999999816
20
-82.5934089999999941
11
191.7006250000000023
21
-81.1648380000000031
0
LINE
8
BLACK
6
CONTINUOUS
10
191.7006250000000023
20
-81.1648380000000031
11
191.7006250000000023
21
-83.1648380000000031
0
LINE
8
BLACK
6
CONTINUOUS
10
193.5101489999999842
20
-83.1648380000000031
11
193.5101489999999842
21
-82.1172189999999915
0
LINE
8
BLACK
6
CONTINUOUS
10
193.5101489999999842
20
-82.1172189999999915
11
193.4149109999999894
21
-81.9267419999999902
0
LINE
8
BLACK
6
CONTINUOUS
10
193.4149109999999894
20
-81.9267419999999902
11
193.2244349999999997
21
-81.8315039999999954
0
LINE
8
BLACK
6
CONTINUOUS
10
193.2244349999999997
20
-81.8315039999999954
11
192.8434819999999945
21
-81.8315039999999954
0
LINE
8
BLACK
6
CONTINUOUS
10
192.8434819999999945
20
-81.8315039999999954
11
192.6530060000000049
21
-81.9267419999999902
0
LINE
8
BLACK
6
CONTINUOUS
10
193.5101489999999842
20
-83.0695999999999941
11
193.3196729999999945
21
-83.1648380000000031
0
LINE
8
BLACK
6
CONTINUOUS
10
193.3196729999999945
20
-83.1648380000000031
11
192.8434819999999945
21
-83.1648380000000031
0
LINE
8
BLACK
6
CONTINUOUS
10
192.8434819999999945
20
-83.1648380000000031
11
192.6530060000000049
21
-83.0695999999999941
0
LINE
8
BLACK
6
CONTINUOUS
10
192.6530060000000049
20
-83.0695999999999941
11
192.5577679999999816
21
-82.8791229999999928
0
LINE
8
BLACK
6
CONTINUOUS
10
192.5577679999999816
20
-82.8791229999999928
11
192.5577679999999816
21
-82.6886470000000031
0
LINE
8
BLACK
6
CONTINUOUS
10
192.5577679999999816
20
-82.6886470000000031
11
192.6530060000000049
21
-82.4981709999999993
0
LINE
8
BLACK
6
CONTINUOUS
10
192.6530060000000049
20
-82.4981709999999993
11
192.8434819999999945
21
-82.4029329999999902
0
LINE
8
BLACK
6
CONTINUOUS
10
192.8434819999999945
20
-82.4029329999999902
11
193.3196729999999945
21
-82.4029329999999902
0
LINE
8
BLACK
6
CONTINUOUS
10
193.3196729999999945
20
-82.4029329999999902
11
193.5101489999999842
21
-82.3076949999999954
0
LINE
8
BLACK
6
CONTINUOUS
10
194.4625299999999868
20
-81.8315039999999954
11
194.4625299999999868
21
-83.8315039999999954
0
LINE
8
BLACK
6
CONTINUOUS
10
194.4625299999999868
20
-81.9267419999999902
11
194.6530060000000049
21
-81.8315039999999954
0
LINE
8
BLACK
6
CONTINUOUS
10
194.6530060000000049
20
-81.8315039999999954
11
195.0339589999999816
21
-81.8315039999999954
0
LINE
8
BLACK
6
CONTINUOUS
10
195.0339589999999816
20
-81.8315039999999954
11
195.2244349999999997
21
-81.9267419999999902
0
LINE
8
BLACK
6
CONTINUOUS
10
195.2244349999999997
20
-81.9267419999999902
11
195.3196729999999945
21
-82.0219799999999992
0
LINE
8
BLACK
6
CONTINUOUS
10
195.3196729999999945
20
-82.0219799999999992
11
195.4149109999999894
21
-82.2124570000000006
0
LINE
8
BLACK
6
CONTINUOUS
10
195.4149109999999894
20
-82.2124570000000006
11
195.4149109999999894
21
-82.7838849999999979
0
LINE
8
BLACK
6
CONTINUOUS
10
195.4149109999999894
20
-82.7838849999999979
11
195.3196729999999945
21
-82.9743610000000018
0
LINE
8
BLACK
6
CONTINUOUS
10
195.3196729999999945
20
-82.9743610000000018
11
195.2244349999999997
21
-83.0695999999999941
0
LINE
8
BLACK
6
CONTINUOUS
10
195.2244349999999997
20
-83.0695999999999941
11
195.0339589999999816
21
-83.1648380000000031
0
LINE
8
BLACK
6
CONTINUOUS
10
195.0339589999999816
20
-83.1648380000000031
11
194.6530060000000049
21
-83.1648380000000031
0
LINE
8
BLACK
6
CONTINUOUS
10
194.6530060000000049
20
-83.1648380000000031
11
194.4625299999999868
21
-83.0695999999999941
0
LINE
8
BLACK
6
CONTINUOUS
10
196.2720539999999971
20
-82.9743610000000018
11
196.367291999999992
21
-83.0695999999999941
0
LINE
8
BLACK
6
CONTINUOUS
10
196.367291999999992
20
-83.0695999999999941
11
196.2720539999999971
21
-83.1648380000000031
0
LINE
8
BLACK
6
CONTINUOUS
10
196.2720539999999971
20
-83.1648380000000031
11
196.1768160000000023
21
-83.0695999999999941
0
LINE
8
BLACK
6
CONTINUOUS
10
196.1768160000000023
20
-83.0695999999999941
11
196.2720539999999971
21
-82.9743610000000018
0
LINE
8
BLACK
6
CONTINUOUS
10
196.2720539999999971
20
-82.9743610000000018
11
196.2720539999999971
21
-83.1648380000000031
0
LINE
8
BLACK
6
CONTINUOUS
10
196.2720539999999971
20
-81.9267419999999902
11
196.367291999999992
21
-82.0219799999999992
0
LINE
8
BLACK
6
CONTINUOUS
10
196.367291999999992
20
-82.0219799999999992
11
196.2720539999999971
21
-82.1172189999999915
0
LINE
8
BLACK
6
CONTINUOUS
10
196.2720539999999971
20
-82.1172189999999915
11
196.1768160000000023
21
-82.0219799999999992
0
LINE
8
BLACK
6
CONTINUOUS
10
196.1768160000000023
20
-82.0219799999999992
11
196.2720539999999971
21
-81.9267419999999902
0
LINE
8
BLACK
6
CONTINUOUS
10
196.2720539999999971
20
-81.9267419999999902
11
196.2720539999999971
21
-82.1172189999999915
0
LINE
8
BLACK
6
CONTINUOUS
10
179.6999999999999886
20
-86.3250000000000028
11
179.9499999999999886
21
-86.5750000000000028
0
LINE
8
BLACK
6
CONTINUOUS
10
179.9499999999999886
20
-86.3250000000000028
11
179.6999999999999886
21
-86.5750000000000028
0
LINE
8
BLACK
6
CONTINUOUS
10
182.9387199999999893
20
-85.3648379999999918
11
183.1291970000000049
21
-85.3648379999999918
0
LINE
8
BLACK
6
CONTINUOUS
10
183.1291970000000049
20
-85.3648379999999918
11
183.3196729999999945
21
-85.4600760000000008
0
LINE
8
BLACK
6
CONTINUOUS
10
183.3196729999999945
20
-85.4600760000000008
11
183.4149109999999894
21
-85.5553139999999956
0
LINE
8
BLACK
6
CONTINUOUS
10
183.4149109999999894
20
-85.5553139999999956
11
183.5101489999999842
21
-85.7457899999999995
0
LINE
8
BLACK
6
CONTINUOUS
10
183.5101489999999842
20
-85.7457899999999995
11
183.605386999999979
21
-86.126741999999993
0
LINE
8
BLACK
6
CONTINUOUS
10
183.605386999999979
20
-86.126741999999993
11
183.605386999999979
21
-86.6029329999999931
0
LINE
8
BLACK
6
CONTINUOUS
10
183.605386999999979
20
-86.6029329999999931
11
183.5101489999999842
21
-86.9838850000000008
0
LINE
8
BLACK
6
CONTINUOUS
10
183.5101489999999842
20
-86.9838850000000008
11
183.4149109999999894
21
-87.1743609999999904
0
LINE
8
BLACK
6
CONTINUOUS
10
183.4149109999999894
20
-87.1743609999999904
11
183.3196729999999945
21
-87.269599999999997
0
LINE
8
BLACK
6
CONTINUOUS
10
183.3196729999999945
20
-87.269599999999997
11
183.1291970000000049
21
-87.3648379999999918
0
LINE
8
BLACK
6
CONTINUOUS
10
183.1291970000000049
20
-87.3648379999999918
11
182.9387199999999893
21
-87.3648379999999918
0
LINE
8
BLACK
6
CONTINUOUS
10
182.9387199999999893
20
-87.3648379999999918
11
182.7482439999999997
21
-87.269599999999997
0
LINE
8
BLACK
6
CONTINUOUS
10
182.7482439999999997
20
-87.269599999999997
11
182.6530060000000049
21
-87.1743609999999904
0
LINE
8
BLACK
6
CONTINUOUS
10
182.6530060000000049
20
-87.1743609999999904
11
182.5577679999999816
21
-86.9838850000000008
0
LINE
8
BLACK
6
CONTINUOUS
10
182.5577679999999816
20
-86.9838850000000008
11
182.4625299999999868
21
-86.6029329999999931
0
LINE
8
BLACK
6
CONTINUOUS
10
182.4625299999999868
20
-86.6029329999999931
11
182.4625299999999868
21
-86.126741999999993
0
LINE
8
BLACK
6
CONTINUOUS
10
182.4625299999999868
20
-86.126741999999993
11
182.5577679999999816
21
-85.7457899999999995
0
LINE
8
BLACK
6
CONTINUOUS
10
182.5577679999999816
20
-85.7457899999999995
11
182.6530060000000049
21
-85.5553139999999956
0
LINE
8
BLACK
6
CONTINUOUS
10
182.6530060000000049
20
-85.5553139999999956
11
182.7482439999999997
21
-85.4600760000000008
0
LINE
8
BLACK
6
CONTINUOUS
10
182.7482439999999997
20
-85.4600760000000008
11
182.9387199999999893
21
-85.3648379999999918
0
LINE
8
BLACK
6
CONTINUOUS
10
184.4625299999999868
20
-87.1743609999999904
11
184.5577679999999816
21
-87.269599999999997
0
LINE
8
BLACK
6
CONTINUOUS
10
184.5577679999999816
20
-87.269599999999997
11
184.4625299999999868
21
-87.3648379999999918
0
LINE
8
BLACK
6
CONTINUOUS
10
184.4625299999999868
20
-87.3648379999999918
11
184.367291999999992
21
-87.269599999999997
0
LINE
8
BLACK
6
CONTINUOUS
10
184.367291999999992
20
-87.269599999999997
11
184.4625299999999868
21
-87.1743609999999904
0
LINE
8
BLACK
6
CONTINUOUS
10
184.4625299999999868
20
-87.1743609999999904
11
184.4625299999999868
21
-87.3648379999999918
0
LINE
8
BLACK
6
CONTINUOUS
10
185.3196729999999945
20
-85.5553139999999956
11
185.4149109999999894
21
-85.4600760000000008
0
LINE
8
BLACK
6
CONTINUOUS
10
185.4149109999999894
20
-85.4600760000000008
11
185.605386999999979
21
-85.3648379999999918
0
LINE
8
BLACK
6
CONTINUOUS
10
185.605386999999979
20
-85.3648379999999918
11
186.0815779999999791
21
-85.3648379999999918
0
LINE
8
BLACK
6
CONTINUOUS
10
186.0815779999999791
20
-85.3648379999999918
11
186.2720539999999971
21
-85.4600760000000008
0
LINE
8
BLACK
6
CONTINUOUS
10
186.2720539999999971
20
-85.4600760000000008
11
186.367291999999992
21
-85.5553139999999956
0
LINE
8
BLACK
6
CONTINUOUS
10
186.367291999999992
20
-85.5553139999999956
11
186.4625299999999868
21
-85.7457899999999995
0
LINE
8
BLACK
6
CONTINUOUS
10
186.4625299999999868
20
-85.7457899999999995
11
186.4625299999999868
21
-85.9362659999999892
0
LINE
8
BLACK
6
CONTINUOUS
10
186.4625299999999868
20
-85.9362659999999892
11
186.367291999999992
21
-86.2219800000000021
0
LINE
8
BLACK
6
CONTINUOUS
10
186.367291999999992
20
-86.2219800000000021
11
185.2244349999999997
21
-87.3648379999999918
0
LINE
8
BLACK
6
CONTINUOUS
10
185.2244349999999997
20
-87.3648379999999918
11
186.4625299999999868
21
-87.3648379999999918
0
LINE
8
BLACK
6
CONTINUOUS
10
188.2720539999999971
20
-85.3648379999999918
11
187.3196729999999945
21
-85.3648379999999918
0
LINE
8
BLACK
6
CONTINUOUS
10
187.3196729999999945
20
-85.3648379999999918
11
187.2244349999999997
21
-86.3172189999999944
0
LINE
8
BLACK
6
CONTINUOUS
10
187.2244349999999997
20
-86.3172189999999944
11
187.3196729999999945
21
-86.2219800000000021
0
LINE
8
BLACK
6
CONTINUOUS
10
187.3196729999999945
20
-86.2219800000000021
11
187.5101489999999842
21
-86.126741999999993
0
LINE
8
BLACK
6
CONTINUOUS
10
187.5101489999999842
20
-86.126741999999993
11
187.9863399999999842
21
-86.126741999999993
0
LINE
8
BLACK
6
CONTINUOUS
10
187.9863399999999842
20
-86.126741999999993
11
188.1768160000000023
21
-86.2219800000000021
0
LINE
8
BLACK
6
CONTINUOUS
10
188.1768160000000023
20
-86.2219800000000021
11
188.2720539999999971
21
-86.3172189999999944
0
LINE
8
BLACK
6
CONTINUOUS
10
188.2720539999999971
20
-86.3172189999999944
11
188.367291999999992
21
-86.5076949999999982
0
LINE
8
BLACK
6
CONTINUOUS
10
188.367291999999992
20
-86.5076949999999982
11
188.367291999999992
21
-86.9838850000000008
0
LINE
8
BLACK
6
CONTINUOUS
10
188.367291999999992
20
-86.9838850000000008
11
188.2720539999999971
21
-87.1743609999999904
0
LINE
8
BLACK
6
CONTINUOUS
10
188.2720539999999971
20
-87.1743609999999904
11
188.1768160000000023
21
-87.269599999999997
0
LINE
8
BLACK
6
CONTINUOUS
10
188.1768160000000023
20
-87.269599999999997
11
187.9863399999999842
21
-87.3648379999999918
0
LINE
8
BLACK
6
CONTINUOUS
10
187.9863399999999842
20
-87.3648379999999918
11
187.5101489999999842
21
-87.3648379999999918
0
LINE
8
BLACK
6
CONTINUOUS
10
187.5101489999999842
20
-87.3648379999999918
11
187.3196729999999945
21
-87.269599999999997
0
LINE
8
BLACK
6
CONTINUOUS
10
187.3196729999999945
20
-87.269599999999997
11
187.2244349999999997
21
-87.1743609999999904
0
LINE
8
BLACK
6
CONTINUOUS
10
189.605386999999979
20
-85.3648379999999918
11
189.7958639999999946
21
-85.3648379999999918
0
LINE
8
BLACK
6
CONTINUOUS
10
189.7958639999999946
20
-85.3648379999999918
11
189.9863399999999842
21
-85.4600760000000008
0
LINE
8
BLACK
6
CONTINUOUS
10
189.9863399999999842
20
-85.4600760000000008
11
190.0815779999999791
21
-85.5553139999999956
0
LINE
8
BLACK
6
CONTINUOUS
10
190.0815779999999791
20
-85.5553139999999956
11
190.1768160000000023
21
-85.7457899999999995
0
LINE
8
BLACK
6
CONTINUOUS
10
190.1768160000000023
20
-85.7457899999999995
11
190.2720539999999971
21
-86.126741999999993
0
LINE
8
BLACK
6
CONTINUOUS
10
190.2720539999999971
20
-86.126741999999993
11
190.2720539999999971
21
-86.6029329999999931
0
LINE
8
BLACK
6
CONTINUOUS
10
190.2720539999999971
20
-86.6029329999999931
11
190.1768160000000023
21
-86.9838850000000008
0
LINE
8
BLACK
6
CONTINUOUS
10
190.1768160000000023
20
-86.9838850000000008
11
190.0815779999999791
21
-87.1743609999999904
0
LINE
8
BLACK
6
CONTINUOUS
10
190.0815779999999791
20
-87.1743609999999904
11
189.9863399999999842
21
-87.269599999999997
0
LINE
8
BLACK
6
CONTINUOUS
10
189.9863399999999842
20
-87.269599999999997
11
189.7958639999999946
21
-87.3648379999999918
0
LINE
8
BLACK
6
CONTINUOUS
10
189.7958639999999946
20
-87.3648379999999918
11
189.605386999999979
21
-87.3648379999999918
0
LINE
8
BLACK
6
CONTINUOUS
10
189.605386999999979
20
-87.3648379999999918
11
189.4149109999999894
21
-87.269599999999997
0
LINE
8
BLACK
6
CONTINUOUS
10
189.4149109999999894
20
-87.269599999999997
11
189.3196729999999945
21
-87.1743609999999904
0
LINE
8
BLACK
6
CONTINUOUS
10
189.3196729999999945
20
-87.1743609999999904
11
189.2244349999999997
21
-86.9838850000000008
0
LINE
8
BLACK
6
CONTINUOUS
10
189.2244349999999997
20
-86.9838850000000008
11
189.1291970000000049
21
-86.6029329999999931
0
LINE
8
BLACK
6
CONTINUOUS
10
189.1291970000000049
20
-86.6029329999999931
11
189.1291970000000049
21
-86.126741999999993
0
LINE
8
BLACK
6
CONTINUOUS
10
189.1291970000000049
20
-86.126741999999993
11
189.2244349999999997
21
-85.7457899999999995
0
LINE
8
BLACK
6
CONTINUOUS
10
189.2244349999999997
20
-85.7457899999999995
11
189.3196729999999945
21
-85.5553139999999956
0
LINE
8
BLACK
6
CONTINUOUS
10
189.3196729999999945
20
-85.5553139999999956
11
189.4149109999999894
21
-85.4600760000000008
0
LINE
8
BLACK
6
CONTINUOUS
10
189.4149109999999894
20
-85.4600760000000008
11
189.605386999999979
21
-85.3648379999999918
0
LINE
8
BLACK
6
CONTINUOUS
10
191.1291970000000049
20
-87.3648379999999918
11
191.1291970000000049
21
-86.0315039999999982
0
LINE
8
BLACK
6
CONTINUOUS
10
191.1291970000000049
20
-86.2219800000000021
11
191.2244349999999997
21
-86.126741999999993
0
LINE
8
BLACK
6
CONTINUOUS
10
191.2244349999999997
20
-86.126741999999993
11
191.4149109999999894
21
-86.0315039999999982
0
LINE
8
BLACK
6
CONTINUOUS
10
191.4149109999999894
20
-86.0315039999999982
11
191.7006259999999997
21
-86.0315039999999982
0
LINE
8
BLACK
6
CONTINUOUS
10
191.7006259999999997
20
-86.0315039999999982
11
191.8911019999999894
21
-86.126741999999993
0
LINE
8
BLACK
6
CONTINUOUS
10
191.8911019999999894
20
-86.126741999999993
11
191.9863399999999842
21
-86.3172189999999944
0
LINE
8
BLACK
6
CONTINUOUS
10
191.9863399999999842
20
-86.3172189999999944
11
191.9863399999999842
21
-87.3648379999999918
0
LINE
8
BLACK
6
CONTINUOUS
10
191.9863399999999842
20
-86.3172189999999944
11
192.0815779999999791
21
-86.126741999999993
0
LINE
8
BLACK
6
CONTINUOUS
10
192.0815779999999791
20
-86.126741999999993
11
192.2720539999999971
21
-86.0315039999999982
0
LINE
8
BLACK
6
CONTINUOUS
10
192.2720539999999971
20
-86.0315039999999982
11
192.5577679999999816
21
-86.0315039999999982
0
LINE
8
BLACK
6
CONTINUOUS
10
192.5577679999999816
20
-86.0315039999999982
11
192.7482449999999972
21
-86.126741999999993
0
LINE
8
BLACK
6
CONTINUOUS
10
192.7482449999999972
20
-86.126741999999993
11
192.843482999999992
21
-86.3172189999999944
0
LINE
8
BLACK
6
CONTINUOUS
10
192.843482999999992
20
-86.3172189999999944
11
192.843482999999992
21
-87.3648379999999918
0
LINE
8
BLACK
6
CONTINUOUS
10
193.7958639999999946
20
-87.3648379999999918
11
193.7958639999999946
21
-86.0315039999999982
0
LINE
8
BLACK
6
CONTINUOUS
10
193.7958639999999946
20
-86.2219800000000021
11
193.8911019999999894
21
-86.126741999999993
0
LINE
8
BLACK
6
CONTINUOUS
10
193.8911019999999894
20
-86.126741999999993
11
194.0815779999999791
21
-86.0315039999999982
0
LINE
8
BLACK
6
CONTINUOUS
10
194.0815779999999791
20
-86.0315039999999982
11
194.3672929999999894
21
-86.0315039999999982
0
LINE
8
BLACK
6
CONTINUOUS
10
194.3672929999999894
20
-86.0315039999999982
11
194.5577689999999791
21
-86.126741999999993
0
LINE
8
BLACK
6
CONTINUOUS
10
194.5577689999999791
20
-86.126741999999993
11
194.6530070000000023
21
-86.3172189999999944
0
LINE
8
BLACK
6
CONTINUOUS
10
194.6530070000000023
20
-86.3172189999999944
11
194.6530070000000023
21
-87.3648379999999918
0
LINE
8
BLACK
6
CONTINUOUS
10
194.6530070000000023
20
-86.3172189999999944
11
194.7482449999999972
21
-86.126741999999993
0
LINE
8
BLACK
6
CONTINUOUS
10
194.7482449999999972
20
-86.126741999999993
11
194.9387209999999868
21
-86.0315039999999982
0
LINE
8
BLACK
6
CONTINUOUS
10
194.9387209999999868
20
-86.0315039999999982
11
195.2244349999999997
21
-86.0315039999999982
0
LINE
8
BLACK
6
CONTINUOUS
10
195.2244349999999997
20
-86.0315039999999982
11
195.4149119999999868
21
-86.126741999999993
0
LINE
8
BLACK
6
CONTINUOUS
10
195.4149119999999868
20
-86.126741999999993
11
195.5101499999999817
21
-86.3172189999999944
0
LINE
8
BLACK
6
CONTINUOUS
10
195.5101499999999817
20
-86.3172189999999944
11
195.5101499999999817
21
-87.3648379999999918
0
LINE
8
BLACK
6
CONTINUOUS
10
199.4149119999999868
20
-85.269599999999997
11
197.7006269999999972
21
-87.8410279999999943
0
LINE
8
BLACK
6
CONTINUOUS
10
201.9863409999999817
20
-85.3648379999999918
11
202.1768179999999973
21
-85.3648379999999918
0
LINE
8
BLACK
6
CONTINUOUS
10
202.1768179999999973
20
-85.3648379999999918
11
202.3672939999999869
21
-85.4600760000000008
0
LINE
8
BLACK
6
CONTINUOUS
10
202.3672939999999869
20
-85.4600760000000008
11
202.4625319999999817
21
-85.5553139999999956
0
LINE
8
BLACK
6
CONTINUOUS
10
202.4625319999999817
20
-85.5553139999999956
11
202.557770000000005
21
-85.7457899999999995
0
LINE
8
BLACK
6
CONTINUOUS
10
202.557770000000005
20
-85.7457899999999995
11
202.6530079999999998
21
-86.126741999999993
0
LINE
8
BLACK
6
CONTINUOUS
10
202.6530079999999998
20
-86.126741999999993
11
202.6530079999999998
21
-86.6029329999999931
0
LINE
8
BLACK
6
CONTINUOUS
10
202.6530079999999998
20
-86.6029329999999931
11
202.557770000000005
21
-86.9838850000000008
0
LINE
8
BLACK
6
CONTINUOUS
10
202.557770000000005
20
-86.9838850000000008
11
202.4625319999999817
21
-87.1743609999999904
0
LINE
8
BLACK
6
CONTINUOUS
10
202.4625319999999817
20
-87.1743609999999904
11
202.3672939999999869
21
-87.269599999999997
0
LINE
8
BLACK
6
CONTINUOUS
10
202.3672939999999869
20
-87.269599999999997
11
202.1768179999999973
21
-87.3648379999999918
0
LINE
8
BLACK
6
CONTINUOUS
10
202.1768179999999973
20
-87.3648379999999918
11
201.9863409999999817
21
-87.3648379999999918
0
LINE
8
BLACK
6
CONTINUOUS
10
201.9863409999999817
20
-87.3648379999999918
11
201.7958649999999921
21
-87.269599999999997
0
LINE
8
BLACK
6
CONTINUOUS
10
201.7958649999999921
20
-87.269599999999997
11
201.7006269999999972
21
-87.1743609999999904
0
LINE
8
BLACK
6
CONTINUOUS
10
201.7006269999999972
20
-87.1743609999999904
11
201.6053890000000024
21
-86.9838850000000008
0
LINE
8
BLACK
6
CONTINUOUS
10
201.6053890000000024
20
-86.9838850000000008
11
201.5101509999999791
21
-86.6029329999999931
0
LINE
8
BLACK
6
CONTINUOUS
10
201.5101509999999791
20
-86.6029329999999931
11
201.5101509999999791
21
-86.126741999999993
0
LINE
8
BLACK
6
CONTINUOUS
10
201.5101509999999791
20
-86.126741999999993
11
201.6053890000000024
21
-85.7457899999999995
0
LINE
8
BLACK
6
CONTINUOUS
10
201.6053890000000024
20
-85.7457899999999995
11
201.7006269999999972
21
-85.5553139999999956
0
LINE
8
BLACK
6
CONTINUOUS
10
201.7006269999999972
20
-85.5553139999999956
11
201.7958649999999921
21
-85.4600760000000008
0
LINE
8
BLACK
6
CONTINUOUS
10
201.7958649999999921
20
-85.4600760000000008
11
201.9863409999999817
21
-85.3648379999999918
0
LINE
8
BLACK
6
CONTINUOUS
10
203.5101509999999791
20
-87.1743609999999904
11
203.6053890000000024
21
-87.269599999999997
0
LINE
8
BLACK
6
CONTINUOUS
10
203.6053890000000024
20
-87.269599999999997
11
203.5101509999999791
21
-87.3648379999999918
0
LINE
8
BLACK
6
CONTINUOUS
10
203.5101509999999791
20
-87.3648379999999918
11
203.4149129999999843
21
-87.269599999999997
0
LINE
8
BLACK
6
CONTINUOUS
10
203.4149129999999843
20
-87.269599999999997
11
203.5101509999999791
21
-87.1743609999999904
0
LINE
8
BLACK
6
CONTINUOUS
10
203.5101509999999791
20
-87.1743609999999904
11
203.5101509999999791
21
-87.3648379999999918
0
LINE
8
BLACK
6
CONTINUOUS
10
204.8434839999999895
20
-85.3648379999999918
11
205.0339609999999766
21
-85.3648379999999918
0
LINE
8
BLACK
6
CONTINUOUS
10
205.0339609999999766
20
-85.3648379999999918
11
205.2244369999999947
21
-85.4600760000000008
0
LINE
8
BLACK
6
CONTINUOUS
10
205.2244369999999947
20
-85.4600760000000008
11
205.3196749999999895
21
-85.5553139999999956
0
LINE
8
BLACK
6
CONTINUOUS
10
205.3196749999999895
20
-85.5553139999999956
11
205.4149129999999843
21
-85.7457899999999995
0
LINE
8
BLACK
6
CONTINUOUS
10
205.4149129999999843
20
-85.7457899999999995
11
205.5101509999999791
21
-86.126741999999993
0
LINE
8
BLACK
6
CONTINUOUS
10
205.5101509999999791
20
-86.126741999999993
11
205.5101509999999791
21
-86.6029329999999931
0
LINE
8
BLACK
6
CONTINUOUS
10
205.5101509999999791
20
-86.6029329999999931
11
205.4149129999999843
21
-86.9838850000000008
0
LINE
8
BLACK
6
CONTINUOUS
10
205.4149129999999843
20
-86.9838850000000008
11
205.3196749999999895
21
-87.1743609999999904
0
LINE
8
BLACK
6
CONTINUOUS
10
205.3196749999999895
20
-87.1743609999999904
11
205.2244369999999947
21
-87.269599999999997
0
LINE
8
BLACK
6
CONTINUOUS
10
205.2244369999999947
20
-87.269599999999997
11
205.0339609999999766
21
-87.3648379999999918
0
LINE
8
BLACK
6
CONTINUOUS
10
205.0339609999999766
20
-87.3648379999999918
11
204.8434839999999895
21
-87.3648379999999918
0
LINE
8
BLACK
6
CONTINUOUS
10
204.8434839999999895
20
-87.3648379999999918
11
204.6530079999999998
21
-87.269599999999997
0
LINE
8
BLACK
6
CONTINUOUS
10
204.6530079999999998
20
-87.269599999999997
11
204.5577699999999766
21
-87.1743609999999904
0
LINE
8
BLACK
6
CONTINUOUS
10
204.5577699999999766
20
-87.1743609999999904
11
204.4625319999999817
21
-86.9838850000000008
0
LINE
8
BLACK
6
CONTINUOUS
10
204.4625319999999817
20
-86.9838850000000008
11
204.3672939999999869
21
-86.6029329999999931
0
LINE
8
BLACK
6
CONTINUOUS
10
204.3672939999999869
20
-86.6029329999999931
11
204.3672939999999869
21
-86.126741999999993
0
LINE
8
BLACK
6
CONTINUOUS
10
204.3672939999999869
20
-86.126741999999993
11
204.4625319999999817
21
-85.7457899999999995
0
LINE
8
BLACK
6
CONTINUOUS
10
204.4625319999999817
20
-85.7457899999999995
11
204.5577699999999766
21
-85.5553139999999956
0
LINE
8
BLACK
6
CONTINUOUS
10
204.5577699999999766
20
-85.5553139999999956
11
204.6530079999999998
21
-85.4600760000000008
0
LINE
8
BLACK
6
CONTINUOUS
10
204.6530079999999998
20
-85.4600760000000008
11
204.8434839999999895
21
-85.3648379999999918
0
LINE
8
BLACK
6
CONTINUOUS
10
206.7482459999999946
20
-85.3648379999999918
11
206.9387229999999818
21
-85.3648379999999918
0
LINE
8
BLACK
6
CONTINUOUS
10
206.9387229999999818
20
-85.3648379999999918
11
207.1291989999999998
21
-85.4600760000000008
0
LINE
8
BLACK
6
CONTINUOUS
10
207.1291989999999998
20
-85.4600760000000008
11
207.2244369999999947
21
-85.5553139999999956
0
LINE
8
BLACK
6
CONTINUOUS
10
207.2244369999999947
20
-85.5553139999999956
11
207.3196749999999895
21
-85.7457899999999995
0
LINE
8
BLACK
6
CONTINUOUS
10
207.3196749999999895
20
-85.7457899999999995
11
207.4149129999999843
21
-86.126741999999993
0
LINE
8
BLACK
6
CONTINUOUS
10
207.4149129999999843
20
-86.126741999999993
11
207.4149129999999843
21
-86.6029329999999931
0
LINE
8
BLACK
6
CONTINUOUS
10
207.4149129999999843
20
-86.6029329999999931
11
207.3196749999999895
21
-86.9838850000000008
0
LINE
8
BLACK
6
CONTINUOUS
10
207.3196749999999895
20
-86.9838850000000008
11
207.2244369999999947
21
-87.1743609999999904
0
LINE
8
BLACK
6
CONTINUOUS
10
207.2244369999999947
20
-87.1743609999999904
11
207.1291989999999998
21
-87.269599999999997
0
LINE
8
BLACK
6
CONTINUOUS
10
207.1291989999999998
20
-87.269599999999997
11
206.9387229999999818
21
-87.3648379999999918
0
LINE
8
BLACK
6
CONTINUOUS
10
206.9387229999999818
20
-87.3648379999999918
11
206.7482459999999946
21
-87.3648379999999918
0
LINE
8
BLACK
6
CONTINUOUS
10
206.7482459999999946
20
-87.3648379999999918
11
206.5577699999999766
21
-87.269599999999997
0
LINE
8
BLACK
6
CONTINUOUS
10
206.5577699999999766
20
-87.269599999999997
11
206.4625319999999817
21
-87.1743609999999904
0
LINE
8
BLACK
6
CONTINUOUS
10
206.4625319999999817
20
-87.1743609999999904
11
206.3672939999999869
21
-86.9838850000000008
0
LINE
8
BLACK
6
CONTINUOUS
10
206.3672939999999869
20
-86.9838850000000008
11
206.2720559999999921
21
-86.6029329999999931
0
LINE
8
BLACK
6
CONTINUOUS
10
206.2720559999999921
20
-86.6029329999999931
11
206.2720559999999921
21
-86.126741999999993
0
LINE
8
BLACK
6
CONTINUOUS
10
206.2720559999999921
20
-86.126741999999993
11
206.3672939999999869
21
-85.7457899999999995
0
LINE
8
BLACK
6
CONTINUOUS
10
206.3672939999999869
20
-85.7457899999999995
11
206.4625319999999817
21
-85.5553139999999956
0
LINE
8
BLACK
6
CONTINUOUS
10
206.4625319999999817
20
-85.5553139999999956
11
206.5577699999999766
21
-85.4600760000000008
0
LINE
8
BLACK
6
CONTINUOUS
10
206.5577699999999766
20
-85.4600760000000008
11
206.7482459999999946
21
-85.3648379999999918
0
LINE
8
BLACK
6
CONTINUOUS
10
208.3672939999999869
20
-87.3648379999999918
11
208.7482459999999946
21
-87.3648379999999918
0
LINE
8
BLACK
6
CONTINUOUS
10
208.7482459999999946
20
-87.3648379999999918
11
208.9387229999999818
21
-87.269599999999997
0
LINE
8
BLACK
6
CONTINUOUS
10
208.9387229999999818
20
-87.269599999999997
11
209.0339609999999766
21
-87.1743609999999904
0
LINE
8
BLACK
6
CONTINUOUS
10
209.0339609999999766
20
-87.1743609999999904
11
209.2244369999999947
21
-86.8886469999999917
0
LINE
8
BLACK
6
CONTINUOUS
10
209.2244369999999947
20
-86.8886469999999917
11
209.3196749999999895
21
-86.5076949999999982
0
LINE
8
BLACK
6
CONTINUOUS
10
209.3196749999999895
20
-86.5076949999999982
11
209.3196749999999895
21
-85.7457899999999995
0
LINE
8
BLACK
6
CONTINUOUS
10
209.3196749999999895
20
-85.7457899999999995
11
209.2244369999999947
21
-85.5553139999999956
0
LINE
8
BLACK
6
CONTINUOUS
10
209.2244369999999947
20
-85.5553139999999956
11
209.1291989999999998
21
-85.4600760000000008
0
LINE
8
BLACK
6
CONTINUOUS
10
209.1291989999999998
20
-85.4600760000000008
11
208.9387229999999818
21
-85.3648379999999918
0
LINE
8
BLACK
6
CONTINUOUS
10
208.9387229999999818
20
-85.3648379999999918
11
208.5577699999999766
21
-85.3648379999999918
0
LINE
8
BLACK
6
CONTINUOUS
10
208.5577699999999766
20
-85.3648379999999918
11
208.3672939999999869
21
-85.4600760000000008
0
LINE
8
BLACK
6
CONTINUOUS
10
208.3672939999999869
20
-85.4600760000000008
11
208.2720559999999921
21
-85.5553139999999956
0
LINE
8
BLACK
6
CONTINUOUS
10
208.2720559999999921
20
-85.5553139999999956
11
208.1768179999999973
21
-85.7457899999999995
0
LINE
8
BLACK
6
CONTINUOUS
10
208.1768179999999973
20
-85.7457899999999995
11
208.1768179999999973
21
-86.2219800000000021
0
LINE
8
BLACK
6
CONTINUOUS
10
208.1768179999999973
20
-86.2219800000000021
11
208.2720559999999921
21
-86.4124569999999892
0
LINE
8
BLACK
6
CONTINUOUS
10
208.2720559999999921
20
-86.4124569999999892
11
208.3672939999999869
21
-86.5076949999999982
0
LINE
8
BLACK
6
CONTINUOUS
10
208.3672939999999869
20
-86.5076949999999982
11
208.5577699999999766
21
-86.6029329999999931
0
LINE
8
BLACK
6
CONTINUOUS
10
208.5577699999999766
20
-86.6029329999999931
11
208.9387229999999818
21
-86.6029329999999931
0
LINE
8
BLACK
6
CONTINUOUS
10
208.9387229999999818
20
-86.6029329999999931
11
209.1291989999999998
21
-86.5076949999999982
0
LINE
8
BLACK
6
CONTINUOUS
10
209.1291989999999998
20
-86.5076949999999982
11
209.2244369999999947
21
-86.4124569999999892
0
LINE
8
BLACK
6
CONTINUOUS
10
209.2244369999999947
20
-86.4124569999999892
11
209.3196749999999895
21
-86.2219800000000021
0
LINE
8
BLACK
6
CONTINUOUS
10
210.4625319999999817
20
-86.2219800000000021
11
210.2720559999999921
21
-86.126741999999993
0
LINE
8
BLACK
6
CONTINUOUS
10
210.2720559999999921
20
-86.126741999999993
11
210.1768179999999973
21
-86.0315039999999982
0
LINE
8
BLACK
6
CONTINUOUS
10
210.1768179999999973
20
-86.0315039999999982
11
210.0815800000000024
21
-85.8410279999999943
0
LINE
8
BLACK
6
CONTINUOUS
10
210.0815800000000024
20
-85.8410279999999943
11
210.0815800000000024
21
-85.7457899999999995
0
LINE
8
BLACK
6
CONTINUOUS
10
210.0815800000000024
20
-85.7457899999999995
11
210.1768179999999973
21
-85.5553139999999956
0
LINE
8
BLACK
6
CONTINUOUS
10
210.1768179999999973
20
-85.5553139999999956
11
210.2720559999999921
21
-85.4600760000000008
0
LINE
8
BLACK
6
CONTINUOUS
10
210.2720559999999921
20
-85.4600760000000008
11
210.4625319999999817
21
-85.3648379999999918
0
LINE
8
BLACK
6
CONTINUOUS
10
210.4625319999999817
20
-85.3648379999999918
11
210.8434849999999869
21
-85.3648379999999918
0
LINE
8
BLACK
6
CONTINUOUS
10
210.8434849999999869
20
-85.3648379999999918
11
211.0339609999999766
21
-85.4600760000000008
0
LINE
8
BLACK
6
CONTINUOUS
10
211.0339609999999766
20
-85.4600760000000008
11
211.1291989999999998
21
-85.5553139999999956
0
LINE
8
BLACK
6
CONTINUOUS
10
211.1291989999999998
20
-85.5553139999999956
11
211.2244369999999947
21
-85.7457899999999995
0
LINE
8
BLACK
6
CONTINUOUS
10
211.2244369999999947
20
-85.7457899999999995
11
211.2244369999999947
21
-85.8410279999999943
0
LINE
8
BLACK
6
CONTINUOUS
10
211.2244369999999947
20
-85.8410279999999943
11
211.1291989999999998
21
-86.0315039999999982
0
LINE
8
BLACK
6
CONTINUOUS
10
211.1291989999999998
20
-86.0315039999999982
11
211.0339609999999766
21
-86.126741999999993
0
LINE
8
BLACK
6
CONTINUOUS
10
211.0339609999999766
20
-86.126741999999993
11
210.8434849999999869
21
-86.2219800000000021
0
LINE
8
BLACK
6
CONTINUOUS
10
210.8434849999999869
20
-86.2219800000000021
11
210.4625319999999817
21
-86.2219800000000021
0
LINE
8
BLACK
6
CONTINUOUS
10
210.4625319999999817
20
-86.2219800000000021
11
210.2720559999999921
21
-86.3172189999999944
0
LINE
8
BLACK
6
CONTINUOUS
10
210.2720559999999921
20
-86.3172189999999944
11
210.1768179999999973
21
-86.4124569999999892
0
LINE
8
BLACK
6
CONTINUOUS
10
210.1768179999999973
20
-86.4124569999999892
11
210.0815800000000024
21
-86.6029329999999931
0
LINE
8
BLACK
6
CONTINUOUS
10
210.0815800000000024
20
-86.6029329999999931
11
210.0815800000000024
21
-86.9838850000000008
0
LINE
8
BLACK
6
CONTINUOUS
10
210.0815800000000024
20
-86.9838850000000008
11
210.1768179999999973
21
-87.1743609999999904
0
LINE
8
BLACK
6
CONTINUOUS
10
210.1768179999999973
20
-87.1743609999999904
11
210.2720559999999921
21
-87.269599999999997
0
LINE
8
BLACK
6
CONTINUOUS
10
210.2720559999999921
20
-87.269599999999997
11
210.4625319999999817
21
-87.3648379999999918
0
LINE
8
BLACK
6
CONTINUOUS
10
210.4625319999999817
20
-87.3648379999999918
11
210.8434849999999869
21
-87.3648379999999918
0
LINE
8
BLACK
6
CONTINUOUS
10
210.8434849999999869
20
-87.3648379999999918
11
211.0339609999999766
21
-87.269599999999997
0
LINE
8
BLACK
6
CONTINUOUS
10
211.0339609999999766
20
-87.269599999999997
11
211.1291989999999998
21
-87.1743609999999904
0
LINE
8
BLACK
6
CONTINUOUS
10
211.1291989999999998
20
-87.1743609999999904
11
211.2244369999999947
21
-86.9838850000000008
0
LINE
8
BLACK
6
CONTINUOUS
10
211.2244369999999947
20
-86.9838850000000008
11
211.2244369999999947
21
-86.6029329999999931
0
LINE
8
BLACK
6
CONTINUOUS
10
211.2244369999999947
20
-86.6029329999999931
11
211.1291989999999998
21
-86.4124569999999892
0
LINE
8
BLACK
6
CONTINUOUS
10
211.1291989999999998
20
-86.4124569999999892
11
211.0339609999999766
21
-86.3172189999999944
0
LINE
8
BLACK
6
CONTINUOUS
10
211.0339609999999766
20
-86.3172189999999944
11
210.8434849999999869
21
-86.2219800000000021
0
LINE
8
BLACK
6
CONTINUOUS
10
211.9863419999999792
20
-85.3648379999999918
11
211.9863419999999792
21
-85.7457899999999995
0
LINE
8
BLACK
6
CONTINUOUS
10
212.7482469999999921
20
-85.3648379999999918
11
212.7482469999999921
21
-85.7457899999999995
0
LINE
8
BLACK
6
CONTINUOUS
10
215.7006289999999922
20
-88.126741999999993
11
215.6053899999999999
21
-88.0315039999999982
0
LINE
8
BLACK
6
CONTINUOUS
10
215.6053899999999999
20
-88.0315039999999982
11
215.4149139999999818
21
-87.7457899999999995
0
LINE
8
BLACK
6
CONTINUOUS
10
215.4149139999999818
20
-87.7457899999999995
11
215.319675999999987
21
-87.5553139999999956
0
LINE
8
BLACK
6
CONTINUOUS
10
215.319675999999987
20
-87.5553139999999956
11
215.2244379999999921
21
-87.269599999999997
0
LINE
8
BLACK
6
CONTINUOUS
10
215.2244379999999921
20
-87.269599999999997
11
215.1291999999999973
21
-86.7934089999999969
0
LINE
8
BLACK
6
CONTINUOUS
10
215.1291999999999973
20
-86.7934089999999969
11
215.1291999999999973
21
-86.4124569999999892
0
LINE
8
BLACK
6
CONTINUOUS
10
215.1291999999999973
20
-86.4124569999999892
11
215.2244379999999921
21
-85.9362659999999892
0
LINE
8
BLACK
6
CONTINUOUS
10
215.2244379999999921
20
-85.9362659999999892
11
215.319675999999987
21
-85.6505519999999905
0
LINE
8
BLACK
6
CONTINUOUS
10
215.319675999999987
20
-85.6505519999999905
11
215.4149139999999818
21
-85.4600760000000008
0
LINE
8
BLACK
6
CONTINUOUS
10
215.4149139999999818
20
-85.4600760000000008
11
215.6053899999999999
21
-85.1743609999999904
0
LINE
8
BLACK
6
CONTINUOUS
10
215.6053899999999999
20
-85.1743609999999904
11
215.7006289999999922
21
-85.0791229999999956
0
LINE
8
BLACK
6
CONTINUOUS
10
216.2720569999999896
20
-85.3648379999999918
11
217.6053899999999999
21
-85.3648379999999918
0
LINE
8
BLACK
6
CONTINUOUS
10
217.6053899999999999
20
-85.3648379999999918
11
216.7482469999999921
21
-87.3648379999999918
0
LINE
8
BLACK
6
CONTINUOUS
10
219.2244379999999921
20
-86.0315039999999982
11
219.2244379999999921
21
-87.3648379999999918
0
LINE
8
BLACK
6
CONTINUOUS
10
218.7482469999999921
20
-85.269599999999997
11
218.2720569999999896
21
-86.6981710000000021
0
LINE
8
BLACK
6
CONTINUOUS
10
218.2720569999999896
20
-86.6981710000000021
11
219.5101519999999766
21
-86.6981710000000021
0
LINE
8
BLACK
6
CONTINUOUS
10
221.795866999999987
20
-87.3648379999999918
11
221.795866999999987
21
-85.3648379999999918
0
LINE
8
BLACK
6
CONTINUOUS
10
222.6530099999999948
20
-87.3648379999999918
11
222.6530099999999948
21
-86.3172189999999944
0
LINE
8
BLACK
6
CONTINUOUS
10
222.6530099999999948
20
-86.3172189999999944
11
222.5577719999999999
21
-86.126741999999993
0
LINE
8
BLACK
6
CONTINUOUS
10
222.5577719999999999
20
-86.126741999999993
11
222.3672959999999819
21
-86.0315039999999982
0
LINE
8
BLACK
6
CONTINUOUS
10
222.3672959999999819
20
-86.0315039999999982
11
222.0815809999999999
21
-86.0315039999999982
0
LINE
8
BLACK
6
CONTINUOUS
10
222.0815809999999999
20
-86.0315039999999982
11
221.8911049999999818
21
-86.126741999999993
0
LINE
8
BLACK
6
CONTINUOUS
10
221.8911049999999818
20
-86.126741999999993
11
221.795866999999987
21
-86.2219800000000021
0
LINE
8
BLACK
6
CONTINUOUS
10
223.8911049999999818
20
-87.3648379999999918
11
223.7006289999999922
21
-87.269599999999997
0
LINE
8
BLACK
6
CONTINUOUS
10
223.7006289999999922
20
-87.269599999999997
11
223.6053909999999973
21
-87.1743609999999904
0
LINE
8
BLACK
6
CONTINUOUS
10
223.6053909999999973
20
-87.1743609999999904
11
223.5101530000000025
21
-86.9838850000000008
0
LINE
8
BLACK
6
CONTINUOUS
10
223.5101530000000025
20
-86.9838850000000008
11
223.5101530000000025
21
-86.4124569999999892
0
LINE
8
BLACK
6
CONTINUOUS
10
223.5101530000000025
20
-86.4124569999999892
11
223.6053909999999973
21
-86.2219800000000021
0
LINE
8
BLACK
6
CONTINUOUS
10
223.6053909999999973
20
-86.2219800000000021
11
223.7006289999999922
21
-86.126741999999993
0
LINE
8
BLACK
6
CONTINUOUS
10
223.7006289999999922
20
-86.126741999999993
11
223.8911049999999818
21
-86.0315039999999982
0
LINE
8
BLACK
6
CONTINUOUS
10
223.8911049999999818
20
-86.0315039999999982
11
224.1768199999999922
21
-86.0315039999999982
0
LINE
8
BLACK
6
CONTINUOUS
10
224.1768199999999922
20
-86.0315039999999982
11
224.3672959999999819
21
-86.126741999999993
0
LINE
8
BLACK
6
CONTINUOUS
10
224.3672959999999819
20
-86.126741999999993
11
224.4625339999999767
21
-86.2219800000000021
0
LINE
8
BLACK
6
CONTINUOUS
10
224.4625339999999767
20
-86.2219800000000021
11
224.5577719999999999
21
-86.4124569999999892
0
LINE
8
BLACK
6
CONTINUOUS
10
224.5577719999999999
20
-86.4124569999999892
11
224.5577719999999999
21
-86.9838850000000008
0
LINE
8
BLACK
6
CONTINUOUS
10
224.5577719999999999
20
-86.9838850000000008
11
224.4625339999999767
21
-87.1743609999999904
0
LINE
8
BLACK
6
CONTINUOUS
10
224.4625339999999767
20
-87.1743609999999904
11
224.3672959999999819
21
-87.269599999999997
0
LINE
8
BLACK
6
CONTINUOUS
10
224.3672959999999819
20
-87.269599999999997
11
224.1768199999999922
21
-87.3648379999999918
0
LINE
8
BLACK
6
CONTINUOUS
10
224.1768199999999922
20
-87.3648379999999918
11
223.8911049999999818
21
-87.3648379999999918
0
LINE
8
BLACK
6
CONTINUOUS
10
225.7006289999999922
20
-87.3648379999999918
11
225.5101530000000025
21
-87.269599999999997
0
LINE
8
BLACK
6
CONTINUOUS
10
225.5101530000000025
20
-87.269599999999997
11
225.4149149999999793
21
-87.0791229999999956
0
LINE
8
BLACK
6
CONTINUOUS
10
225.4149149999999793
20
-87.0791229999999956
11
225.4149149999999793
21
-85.3648379999999918
0
LINE
8
BLACK
6
CONTINUOUS
10
227.2244389999999896
20
-87.269599999999997
11
227.033963
21
-87.3648379999999918
0
LINE
8
BLACK
6
CONTINUOUS
10
227.033963
20
-87.3648379999999918
11
226.6530099999999948
21
-87.3648379999999918
0
LINE
8
BLACK
6
CONTINUOUS
10
226.6530099999999948
20
-87.3648379999999918
11
226.4625339999999767
21
-87.269599999999997
0
LINE
8
BLACK
6
CONTINUOUS
10
226.4625339999999767
20
-87.269599999999997
11
226.3672959999999819
21
-87.0791229999999956
0
LINE
8
BLACK
6
CONTINUOUS
10
226.3672959999999819
20
-87.0791229999999956
11
226.3672959999999819
21
-86.3172189999999944
0
LINE
8
BLACK
6
CONTINUOUS
10
226.3672959999999819
20
-86.3172189999999944
11
226.4625339999999767
21
-86.126741999999993
0
LINE
8
BLACK
6
CONTINUOUS
10
226.4625339999999767
20
-86.126741999999993
11
226.6530099999999948
21
-86.0315039999999982
0
LINE
8
BLACK
6
CONTINUOUS
10
226.6530099999999948
20
-86.0315039999999982
11
227.033963
21
-86.0315039999999982
0
LINE
8
BLACK
6
CONTINUOUS
10
227.033963
20
-86.0315039999999982
11
227.2244389999999896
21
-86.126741999999993
0
LINE
8
BLACK
6
CONTINUOUS
10
227.2244389999999896
20
-86.126741999999993
11
227.3196769999999844
21
-86.3172189999999944
0
LINE
8
BLACK
6
CONTINUOUS
10
227.3196769999999844
20
-86.3172189999999944
11
227.3196769999999844
21
-86.5076949999999982
0
LINE
8
BLACK
6
CONTINUOUS
10
227.3196769999999844
20
-86.5076949999999982
11
226.3672959999999819
21
-86.6981710000000021
0
LINE
8
BLACK
6
CONTINUOUS
10
228.0815819999999974
20
-87.269599999999997
11
228.272057999999987
21
-87.3648379999999918
0
LINE
8
BLACK
6
CONTINUOUS
10
228.272057999999987
20
-87.3648379999999918
11
228.6530099999999948
21
-87.3648379999999918
0
LINE
8
BLACK
6
CONTINUOUS
10
228.6530099999999948
20
-87.3648379999999918
11
228.8434869999999819
21
-87.269599999999997
0
LINE
8
BLACK
6
CONTINUOUS
10
228.8434869999999819
20
-87.269599999999997
11
228.9387249999999767
21
-87.0791229999999956
0
LINE
8
BLACK
6
CONTINUOUS
10
228.9387249999999767
20
-87.0791229999999956
11
228.9387249999999767
21
-86.9838850000000008
0
LINE
8
BLACK
6
CONTINUOUS
10
228.9387249999999767
20
-86.9838850000000008
11
228.8434869999999819
21
-86.7934089999999969
0
LINE
8
BLACK
6
CONTINUOUS
10
228.8434869999999819
20
-86.7934089999999969
11
228.6530099999999948
21
-86.6981710000000021
0
LINE
8
BLACK
6
CONTINUOUS
10
228.6530099999999948
20
-86.6981710000000021
11
228.3672959999999819
21
-86.6981710000000021
0
LINE
8
BLACK
6
CONTINUOUS
10
228.3672959999999819
20
-86.6981710000000021
11
228.1768199999999922
21
-86.6029329999999931
0
LINE
8
BLACK
6
CONTINUOUS
10
228.1768199999999922
20
-86.6029329999999931
11
228.0815819999999974
21
-86.4124569999999892
0
LINE
8
BLACK
6
CONTINUOUS
10
228.0815819999999974
20
-86.4124569999999892
11
228.0815819999999974
21
-86.3172189999999944
0
LINE
8
BLACK
6
CONTINUOUS
10
228.0815819999999974
20
-86.3172189999999944
11
228.1768199999999922
21
-86.126741999999993
0
LINE
8
BLACK
6
CONTINUOUS
10
228.1768199999999922
20
-86.126741999999993
11
228.3672959999999819
21
-86.0315039999999982
0
LINE
8
BLACK
6
CONTINUOUS
10
228.3672959999999819
20
-86.0315039999999982
11
228.6530099999999948
21
-86.0315039999999982
0
LINE
8
BLACK
6
CONTINUOUS
10
228.6530099999999948
20
-86.0315039999999982
11
228.8434869999999819
21
-86.126741999999993
0
LINE
8
BLACK
6
CONTINUOUS
10
229.6053919999999948
20
-88.126741999999993
11
229.7006299999999896
21
-88.0315039999999982
0
LINE
8
BLACK
6
CONTINUOUS
10
229.7006299999999896
20
-88.0315039999999982
11
229.8911059999999793
21
-87.7457899999999995
0
LINE
8
BLACK
6
CONTINUOUS
10
229.8911059999999793
20
-87.7457899999999995
11
229.9863440000000026
21
-87.5553139999999956
0
LINE
8
BLACK
6
CONTINUOUS
10
229.9863440000000026
20
-87.5553139999999956
11
230.0815819999999974
21
-87.269599999999997
0
LINE
8
BLACK
6
CONTINUOUS
10
230.0815819999999974
20
-87.269599999999997
11
230.1768199999999922
21
-86.7934089999999969
0
LINE
8
BLACK
6
CONTINUOUS
10
230.1768199999999922
20
-86.7934089999999969
11
230.1768199999999922
21
-86.4124569999999892
0
LINE
8
BLACK
6
CONTINUOUS
10
230.1768199999999922
20
-86.4124569999999892
11
230.0815819999999974
21
-85.9362659999999892
0
LINE
8
BLACK
6
CONTINUOUS
10
230.0815819999999974
20
-85.9362659999999892
11
229.9863440000000026
21
-85.6505519999999905
0
LINE
8
BLACK
6
CONTINUOUS
10
229.9863440000000026
20
-85.6505519999999905
11
229.8911059999999793
21
-85.4600760000000008
0
LINE
8
BLACK
6
CONTINUOUS
10
229.8911059999999793
20
-85.4600760000000008
11
229.7006299999999896
21
-85.1743609999999904
0
LINE
8
BLACK
6
CONTINUOUS
10
229.7006299999999896
20
-85.1743609999999904
11
229.6053919999999948
21
-85.0791229999999956
0
CIRCLE
8
BLACK
10
179.7999999999999829
20
-89.0899999999999892
40
0.15
0
LINE
8
BLACK
6
CONTINUOUS
10
182.9387199999999893
20
-88.0048379999999923
11
183.1291970000000049
21
-88.0048379999999923
0
LINE
8
BLACK
6
CONTINUOUS
10
183.1291970000000049
20
-88.0048379999999923
11
183.3196729999999945
21
-88.1000760000000014
0
LINE
8
BLACK
6
CONTINUOUS
10
183.3196729999999945
20
-88.1000760000000014
11
183.4149109999999894
21
-88.1953139999999962
0
LINE
8
BLACK
6
CONTINUOUS
10
183.4149109999999894
20
-88.1953139999999962
11
183.5101489999999842
21
-88.3857900000000001
0
LINE
8
BLACK
6
CONTINUOUS
10
183.5101489999999842
20
-88.3857900000000001
11
183.605386999999979
21
-88.7667419999999936
0
LINE
8
BLACK
6
CONTINUOUS
10
183.605386999999979
20
-88.7667419999999936
11
183.605386999999979
21
-89.2429329999999936
0
LINE
8
BLACK
6
CONTINUOUS
10
183.605386999999979
20
-89.2429329999999936
11
183.5101489999999842
21
-89.6238850000000014
0
LINE
8
BLACK
6
CONTINUOUS
10
183.5101489999999842
20
-89.6238850000000014
11
183.4149109999999894
21
-89.814360999999991
0
LINE
8
BLACK
6
CONTINUOUS
10
183.4149109999999894
20
-89.814360999999991
11
183.3196729999999945
21
-89.9095999999999975
0
LINE
8
BLACK
6
CONTINUOUS
10
183.3196729999999945
20
-89.9095999999999975
11
183.1291970000000049
21
-90.0048379999999923
0
LINE
8
BLACK
6
CONTINUOUS
10
183.1291970000000049
20
-90.0048379999999923
11
182.9387199999999893
21
-90.0048379999999923
0
LINE
8
BLACK
6
CONTINUOUS
10
182.9387199999999893
20
-90.0048379999999923
11
182.7482439999999997
21
-89.9095999999999975
0
LINE
8
BLACK
6
CONTINUOUS
10
182.7482439999999997
20
-89.9095999999999975
11
182.6530060000000049
21
-89.814360999999991
0
LINE
8
BLACK
6
CONTINUOUS
10
182.6530060000000049
20
-89.814360999999991
11
182.5577679999999816
21
-89.6238850000000014
0
LINE
8
BLACK
6
CONTINUOUS
10
182.5577679999999816
20
-89.6238850000000014
11
182.4625299999999868
21
-89.2429329999999936
0
LINE
8
BLACK
6
CONTINUOUS
10
182.4625299999999868
20
-89.2429329999999936
11
182.4625299999999868
21
-88.7667419999999936
0
LINE
8
BLACK
6
CONTINUOUS
10
182.4625299999999868
20
-88.7667419999999936
11
182.5577679999999816
21
-88.3857900000000001
0
LINE
8
BLACK
6
CONTINUOUS
10
182.5577679999999816
20
-88.3857900000000001
11
182.6530060000000049
21
-88.1953139999999962
0
LINE
8
BLACK
6
CONTINUOUS
10
182.6530060000000049
20
-88.1953139999999962
11
182.7482439999999997
21
-88.1000760000000014
0
LINE
8
BLACK
6
CONTINUOUS
10
182.7482439999999997
20
-88.1000760000000014
11
182.9387199999999893
21
-88.0048379999999923
0
LINE
8
BLACK
6
CONTINUOUS
10
184.4625299999999868
20
-89.814360999999991
11
184.5577679999999816
21
-89.9095999999999975
0
LINE
8
BLACK
6
CONTINUOUS
10
184.5577679999999816
20
-89.9095999999999975
11
184.4625299999999868
21
-90.0048379999999923
0
LINE
8
BLACK
6
CONTINUOUS
10
184.4625299999999868
20
-90.0048379999999923
11
184.367291999999992
21
-89.9095999999999975
0
LINE
8
BLACK
6
CONTINUOUS
10
184.367291999999992
20
-89.9095999999999975
11
184.4625299999999868
21
-89.814360999999991
0
LINE
8
BLACK
6
CONTINUOUS
10
184.4625299999999868
20
-89.814360999999991
11
184.4625299999999868
21
-90.0048379999999923
0
LINE
8
BLACK
6
CONTINUOUS
10
185.2244349999999997
20
-88.0048379999999923
11
186.4625299999999868
21
-88.0048379999999923
0
LINE
8
BLACK
6
CONTINUOUS
10
186.4625299999999868
20
-88.0048379999999923
11
185.7958629999999971
21
-88.7667419999999936
0
LINE
8
BLACK
6
CONTINUOUS
10
185.7958629999999971
20
-88.7667419999999936
11
186.0815779999999791
21
-88.7667419999999936
0
LINE
8
BLACK
6
CONTINUOUS
10
186.0815779999999791
20
-88.7667419999999936
11
186.2720539999999971
21
-88.8619800000000026
0
LINE
8
BLACK
6
CONTINUOUS
10
186.2720539999999971
20
-88.8619800000000026
11
186.367291999999992
21
-88.9572189999999949
0
LINE
8
BLACK
6
CONTINUOUS
10
186.367291999999992
20
-88.9572189999999949
11
186.4625299999999868
21
-89.1476949999999988
0
LINE
8
BLACK
6
CONTINUOUS
10
186.4625299999999868
20
-89.1476949999999988
11
186.4625299999999868
21
-89.6238850000000014
0
LINE
8
BLACK
6
CONTINUOUS
10
186.4625299999999868
20
-89.6238850000000014
11
186.367291999999992
21
-89.814360999999991
0
LINE
8
BLACK
6
CONTINUOUS
10
186.367291999999992
20
-89.814360999999991
11
186.2720539999999971
21
-89.9095999999999975
0
LINE
8
BLACK
6
CONTINUOUS
10
186.2720539999999971
20
-89.9095999999999975
11
186.0815779999999791
21
-90.0048379999999923
0
LINE
8
BLACK
6
CONTINUOUS
10
186.0815779999999791
20
-90.0048379999999923
11
185.5101489999999842
21
-90.0048379999999923
0
LINE
8
BLACK
6
CONTINUOUS
10
185.5101489999999842
20
-90.0048379999999923
11
185.3196729999999945
21
-89.9095999999999975
0
LINE
8
BLACK
6
CONTINUOUS
10
185.3196729999999945
20
-89.9095999999999975
11
185.2244349999999997
21
-89.814360999999991
0
LINE
8
BLACK
6
CONTINUOUS
10
187.7006250000000023
20
-88.0048379999999923
11
187.8911019999999894
21
-88.0048379999999923
0
LINE
8
BLACK
6
CONTINUOUS
10
187.8911019999999894
20
-88.0048379999999923
11
188.0815779999999791
21
-88.1000760000000014
0
LINE
8
BLACK
6
CONTINUOUS
10
188.0815779999999791
20
-88.1000760000000014
11
188.1768160000000023
21
-88.1953139999999962
0
LINE
8
BLACK
6
CONTINUOUS
10
188.1768160000000023
20
-88.1953139999999962
11
188.2720539999999971
21
-88.3857900000000001
0
LINE
8
BLACK
6
CONTINUOUS
10
188.2720539999999971
20
-88.3857900000000001
11
188.367291999999992
21
-88.7667419999999936
0
LINE
8
BLACK
6
CONTINUOUS
10
188.367291999999992
20
-88.7667419999999936
11
188.367291999999992
21
-89.2429329999999936
0
LINE
8
BLACK
6
CONTINUOUS
10
188.367291999999992
20
-89.2429329999999936
11
188.2720539999999971
21
-89.6238850000000014
0
LINE
8
BLACK
6
CONTINUOUS
10
188.2720539999999971
20
-89.6238850000000014
11
188.1768160000000023
21
-89.814360999999991
0
LINE
8
BLACK
6
CONTINUOUS
10
188.1768160000000023
20
-89.814360999999991
11
188.0815779999999791
21
-89.9095999999999975
0
LINE
8
BLACK
6
CONTINUOUS
10
188.0815779999999791
20
-89.9095999999999975
11
187.8911019999999894
21
-90.0048379999999923
0
LINE
8
BLACK
6
CONTINUOUS
10
187.8911019999999894
20
-90.0048379999999923
11
187.7006250000000023
21
-90.0048379999999923
0
LINE
8
BLACK
6
CONTINUOUS
10
187.7006250000000023
20
-90.0048379999999923
11
187.5101489999999842
21
-89.9095999999999975
0
LINE
8
BLACK
6
CONTINUOUS
10
187.5101489999999842
20
-89.9095999999999975
11
187.4149109999999894
21
-89.814360999999991
0
LINE
8
BLACK
6
CONTINUOUS
10
187.4149109999999894
20
-89.814360999999991
11
187.3196729999999945
21
-89.6238850000000014
0
LINE
8
BLACK
6
CONTINUOUS
10
187.3196729999999945
20
-89.6238850000000014
11
187.2244349999999997
21
-89.2429329999999936
0
LINE
8
BLACK
6
CONTINUOUS
10
187.2244349999999997
20
-89.2429329999999936
11
187.2244349999999997
21
-88.7667419999999936
0
LINE
8
BLACK
6
CONTINUOUS
10
187.2244349999999997
20
-88.7667419999999936
11
187.3196729999999945
21
-88.3857900000000001
0
LINE
8
BLACK
6
CONTINUOUS
10
187.3196729999999945
20
-88.3857900000000001
11
187.4149109999999894
21
-88.1953139999999962
0
LINE
8
BLACK
6
CONTINUOUS
10
187.4149109999999894
20
-88.1953139999999962
11
187.5101489999999842
21
-88.1000760000000014
0
LINE
8
BLACK
6
CONTINUOUS
10
187.5101489999999842
20
-88.1000760000000014
11
187.7006250000000023
21
-88.0048379999999923
0
LINE
8
BLACK
6
CONTINUOUS
10
189.605386999999979
20
-88.0048379999999923
11
189.7958639999999946
21
-88.0048379999999923
0
LINE
8
BLACK
6
CONTINUOUS
10
189.7958639999999946
20
-88.0048379999999923
11
189.9863399999999842
21
-88.1000760000000014
0
LINE
8
BLACK
6
CONTINUOUS
10
189.9863399999999842
20
-88.1000760000000014
11
190.0815779999999791
21
-88.1953139999999962
0
LINE
8
BLACK
6
CONTINUOUS
10
190.0815779999999791
20
-88.1953139999999962
11
190.1768160000000023
21
-88.3857900000000001
0
LINE
8
BLACK
6
CONTINUOUS
10
190.1768160000000023
20
-88.3857900000000001
11
190.2720539999999971
21
-88.7667419999999936
0
LINE
8
BLACK
6
CONTINUOUS
10
190.2720539999999971
20
-88.7667419999999936
11
190.2720539999999971
21
-89.2429329999999936
0
LINE
8
BLACK
6
CONTINUOUS
10
190.2720539999999971
20
-89.2429329999999936
11
190.1768160000000023
21
-89.6238850000000014
0
LINE
8
BLACK
6
CONTINUOUS
10
190.1768160000000023
20
-89.6238850000000014
11
190.0815779999999791
21
-89.814360999999991
0
LINE
8
BLACK
6
CONTINUOUS
10
190.0815779999999791
20
-89.814360999999991
11
189.9863399999999842
21
-89.9095999999999975
0
LINE
8
BLACK
6
CONTINUOUS
10
189.9863399999999842
20
-89.9095999999999975
11
189.7958639999999946
21
-90.0048379999999923
0
LINE
8
BLACK
6
CONTINUOUS
10
189.7958639999999946
20
-90.0048379999999923
11
189.605386999999979
21
-90.0048379999999923
0
LINE
8
BLACK
6
CONTINUOUS
10
189.605386999999979
20
-90.0048379999999923
11
189.4149109999999894
21
-89.9095999999999975
0
LINE
8
BLACK
6
CONTINUOUS
10
189.4149109999999894
20
-89.9095999999999975
11
189.3196729999999945
21
-89.814360999999991
0
LINE
8
BLACK
6
CONTINUOUS
10
189.3196729999999945
20
-89.814360999999991
11
189.2244349999999997
21
-89.6238850000000014
0
LINE
8
BLACK
6
CONTINUOUS
10
189.2244349999999997
20
-89.6238850000000014
11
189.1291970000000049
21
-89.2429329999999936
0
LINE
8
BLACK
6
CONTINUOUS
10
189.1291970000000049
20
-89.2429329999999936
11
189.1291970000000049
21
-88.7667419999999936
0
LINE
8
BLACK
6
CONTINUOUS
10
189.1291970000000049
20
-88.7667419999999936
11
189.2244349999999997
21
-88.3857900000000001
0
LINE
8
BLACK
6
CONTINUOUS
10
189.2244349999999997
20
-88.3857900000000001
11
189.3196729999999945
21
-88.1953139999999962
0
LINE
8
BLACK
6
CONTINUOUS
10
189.3196729999999945
20
-88.1953139999999962
11
189.4149109999999894
21
-88.1000760000000014
0
LINE
8
BLACK
6
CONTINUOUS
10
189.4149109999999894
20
-88.1000760000000014
11
189.605386999999979
21
-88.0048379999999923
0
LINE
8
BLACK
6
CONTINUOUS
10
191.1291970000000049
20
-90.0048379999999923
11
191.1291970000000049
21
-88.6715039999999988
0
LINE
8
BLACK
6
CONTINUOUS
10
191.1291970000000049
20
-88.8619800000000026
11
191.2244349999999997
21
-88.7667419999999936
0
LINE
8
BLACK
6
CONTINUOUS
10
191.2244349999999997
20
-88.7667419999999936
11
191.4149109999999894
21
-88.6715039999999988
0
LINE
8
BLACK
6
CONTINUOUS
10
191.4149109999999894
20
-88.6715039999999988
11
191.7006259999999997
21
-88.6715039999999988
0
LINE
8
BLACK
6
CONTINUOUS
10
191.7006259999999997
20
-88.6715039999999988
11
191.8911019999999894
21
-88.7667419999999936
0
LINE
8
BLACK
6
CONTINUOUS
10
191.8911019999999894
20
-88.7667419999999936
11
191.9863399999999842
21
-88.9572189999999949
0
LINE
8
BLACK
6
CONTINUOUS
10
191.9863399999999842
20
-88.9572189999999949
11
191.9863399999999842
21
-90.0048379999999923
0
LINE
8
BLACK
6
CONTINUOUS
10
191.9863399999999842
20
-88.9572189999999949
11
192.0815779999999791
21
-88.7667419999999936
0
LINE
8
BLACK
6
CONTINUOUS
10
192.0815779999999791
20
-88.7667419999999936
11
192.2720539999999971
21
-88.6715039999999988
0
LINE
8
BLACK
6
CONTINUOUS
10
192.2720539999999971
20
-88.6715039999999988
11
192.5577679999999816
21
-88.6715039999999988
0
LINE
8
BLACK
6
CONTINUOUS
10
192.5577679999999816
20
-88.6715039999999988
11
192.7482449999999972
21
-88.7667419999999936
0
LINE
8
BLACK
6
CONTINUOUS
10
192.7482449999999972
20
-88.7667419999999936
11
192.843482999999992
21
-88.9572189999999949
0
LINE
8
BLACK
6
CONTINUOUS
10
192.843482999999992
20
-88.9572189999999949
11
192.843482999999992
21
-90.0048379999999923
0
LINE
8
BLACK
6
CONTINUOUS
10
193.7958639999999946
20
-90.0048379999999923
11
193.7958639999999946
21
-88.6715039999999988
0
LINE
8
BLACK
6
CONTINUOUS
10
193.7958639999999946
20
-88.8619800000000026
11
193.8911019999999894
21
-88.7667419999999936
0
LINE
8
BLACK
6
CONTINUOUS
10
193.8911019999999894
20
-88.7667419999999936
11
194.0815779999999791
21
-88.6715039999999988
0
LINE
8
BLACK
6
CONTINUOUS
10
194.0815779999999791
20
-88.6715039999999988
11
194.3672929999999894
21
-88.6715039999999988
0
LINE
8
BLACK
6
CONTINUOUS
10
194.3672929999999894
20
-88.6715039999999988
11
194.5577689999999791
21
-88.7667419999999936
0
LINE
8
BLACK
6
CONTINUOUS
10
194.5577689999999791
20
-88.7667419999999936
11
194.6530070000000023
21
-88.9572189999999949
0
LINE
8
BLACK
6
CONTINUOUS
10
194.6530070000000023
20
-88.9572189999999949
11
194.6530070000000023
21
-90.0048379999999923
0
LINE
8
BLACK
6
CONTINUOUS
10
194.6530070000000023
20
-88.9572189999999949
11
194.7482449999999972
21
-88.7667419999999936
0
LINE
8
BLACK
6
CONTINUOUS
10
194.7482449999999972
20
-88.7667419999999936
11
194.9387209999999868
21
-88.6715039999999988
0
LINE
8
BLACK
6
CONTINUOUS
10
194.9387209999999868
20
-88.6715039999999988
11
195.2244349999999997
21
-88.6715039999999988
0
LINE
8
BLACK
6
CONTINUOUS
10
195.2244349999999997
20
-88.6715039999999988
11
195.4149119999999868
21
-88.7667419999999936
0
LINE
8
BLACK
6
CONTINUOUS
10
195.4149119999999868
20
-88.7667419999999936
11
195.5101499999999817
21
-88.9572189999999949
0
LINE
8
BLACK
6
CONTINUOUS
10
195.5101499999999817
20
-88.9572189999999949
11
195.5101499999999817
21
-90.0048379999999923
0
LINE
8
BLACK
6
CONTINUOUS
10
199.4149119999999868
20
-87.9095999999999975
11
197.7006269999999972
21
-90.4810279999999949
0
LINE
8
BLACK
6
CONTINUOUS
10
201.9863409999999817
20
-88.0048379999999923
11
202.1768179999999973
21
-88.0048379999999923
0
LINE
8
BLACK
6
CONTINUOUS
10
202.1768179999999973
20
-88.0048379999999923
11
202.3672939999999869
21
-88.1000760000000014
0
LINE
8
BLACK
6
CONTINUOUS
10
202.3672939999999869
20
-88.1000760000000014
11
202.4625319999999817
21
-88.1953139999999962
0
LINE
8
BLACK
6
CONTINUOUS
10
202.4625319999999817
20
-88.1953139999999962
11
202.557770000000005
21
-88.3857900000000001
0
LINE
8
BLACK
6
CONTINUOUS
10
202.557770000000005
20
-88.3857900000000001
11
202.6530079999999998
21
-88.7667419999999936
0
LINE
8
BLACK
6
CONTINUOUS
10
202.6530079999999998
20
-88.7667419999999936
11
202.6530079999999998
21
-89.2429329999999936
0
LINE
8
BLACK
6
CONTINUOUS
10
202.6530079999999998
20
-89.2429329999999936
11
202.557770000000005
21
-89.6238850000000014
0
LINE
8
BLACK
6
CONTINUOUS
10
202.557770000000005
20
-89.6238850000000014
11
202.4625319999999817
21
-89.814360999999991
0
LINE
8
BLACK
6
CONTINUOUS
10
202.4625319999999817
20
-89.814360999999991
11
202.3672939999999869
21
-89.9095999999999975
0
LINE
8
BLACK
6
CONTINUOUS
10
202.3672939999999869
20
-89.9095999999999975
11
202.1768179999999973
21
-90.0048379999999923
0
LINE
8
BLACK
6
CONTINUOUS
10
202.1768179999999973
20
-90.0048379999999923
11
201.9863409999999817
21
-90.0048379999999923
0
LINE
8
BLACK
6
CONTINUOUS
10
201.9863409999999817
20
-90.0048379999999923
11
201.7958649999999921
21
-89.9095999999999975
0
LINE
8
BLACK
6
CONTINUOUS
10
201.7958649999999921
20
-89.9095999999999975
11
201.7006269999999972
21
-89.814360999999991
0
LINE
8
BLACK
6
CONTINUOUS
10
201.7006269999999972
20
-89.814360999999991
11
201.6053890000000024
21
-89.6238850000000014
0
LINE
8
BLACK
6
CONTINUOUS
10
201.6053890000000024
20
-89.6238850000000014
11
201.5101509999999791
21
-89.2429329999999936
0
LINE
8
BLACK
6
CONTINUOUS
10
201.5101509999999791
20
-89.2429329999999936
11
201.5101509999999791
21
-88.7667419999999936
0
LINE
8
BLACK
6
CONTINUOUS
10
201.5101509999999791
20
-88.7667419999999936
11
201.6053890000000024
21
-88.3857900000000001
0
LINE
8
BLACK
6
CONTINUOUS
10
201.6053890000000024
20
-88.3857900000000001
11
201.7006269999999972
21
-88.1953139999999962
0
LINE
8
BLACK
6
CONTINUOUS
10
201.7006269999999972
20
-88.1953139999999962
11
201.7958649999999921
21
-88.1000760000000014
0
LINE
8
BLACK
6
CONTINUOUS
10
201.7958649999999921
20
-88.1000760000000014
11
201.9863409999999817
21
-88.0048379999999923
0
LINE
8
BLACK
6
CONTINUOUS
10
203.5101509999999791
20
-89.814360999999991
11
203.6053890000000024
21
-89.9095999999999975
0
LINE
8
BLACK
6
CONTINUOUS
10
203.6053890000000024
20
-89.9095999999999975
11
203.5101509999999791
21
-90.0048379999999923
0
LINE
8
BLACK
6
CONTINUOUS
10
203.5101509999999791
20
-90.0048379999999923
11
203.4149129999999843
21
-89.9095999999999975
0
LINE
8
BLACK
6
CONTINUOUS
10
203.4149129999999843
20
-89.9095999999999975
11
203.5101509999999791
21
-89.814360999999991
0
LINE
8
BLACK
6
CONTINUOUS
10
203.5101509999999791
20
-89.814360999999991
11
203.5101509999999791
21
-90.0048379999999923
0
LINE
8
BLACK
6
CONTINUOUS
10
204.8434839999999895
20
-88.0048379999999923
11
205.0339609999999766
21
-88.0048379999999923
0
LINE
8
BLACK
6
CONTINUOUS
10
205.0339609999999766
20
-88.0048379999999923
11
205.2244369999999947
21
-88.1000760000000014
0
LINE
8
BLACK
6
CONTINUOUS
10
205.2244369999999947
20
-88.1000760000000014
11
205.3196749999999895
21
-88.1953139999999962
0
LINE
8
BLACK
6
CONTINUOUS
10
205.3196749999999895
20
-88.1953139999999962
11
205.4149129999999843
21
-88.3857900000000001
0
LINE
8
BLACK
6
CONTINUOUS
10
205.4149129999999843
20
-88.3857900000000001
11
205.5101509999999791
21
-88.7667419999999936
0
LINE
8
BLACK
6
CONTINUOUS
10
205.5101509999999791
20
-88.7667419999999936
11
205.5101509999999791
21
-89.2429329999999936
0
LINE
8
BLACK
6
CONTINUOUS
10
205.5101509999999791
20
-89.2429329999999936
11
205.4149129999999843
21
-89.6238850000000014
0
LINE
8
BLACK
6
CONTINUOUS
10
205.4149129999999843
20
-89.6238850000000014
11
205.3196749999999895
21
-89.814360999999991
0
LINE
8
BLACK
6
CONTINUOUS
10
205.3196749999999895
20
-89.814360999999991
11
205.2244369999999947
21
-89.9095999999999975
0
LINE
8
BLACK
6
CONTINUOUS
10
205.2244369999999947
20
-89.9095999999999975
11
205.0339609999999766
21
-90.0048379999999923
0
LINE
8
BLACK
6
CONTINUOUS
10
205.0339609999999766
20
-90.0048379999999923
11
204.8434839999999895
21
-90.0048379999999923
0
LINE
8
BLACK
6
CONTINUOUS
10
204.8434839999999895
20
-90.0048379999999923
11
204.6530079999999998
21
-89.9095999999999975
0
LINE
8
BLACK
6
CONTINUOUS
10
204.6530079999999998
20
-89.9095999999999975
11
204.5577699999999766
21
-89.814360999999991
0
LINE
8
BLACK
6
CONTINUOUS
10
204.5577699999999766
20
-89.814360999999991
11
204.4625319999999817
21
-89.6238850000000014
0
LINE
8
BLACK
6
CONTINUOUS
10
204.4625319999999817
20
-89.6238850000000014
11
204.3672939999999869
21
-89.2429329999999936
0
LINE
8
BLACK
6
CONTINUOUS
10
204.3672939999999869
20
-89.2429329999999936
11
204.3672939999999869
21
-88.7667419999999936
0
LINE
8
BLACK
6
CONTINUOUS
10
204.3672939999999869
20
-88.7667419999999936
11
204.4625319999999817
21
-88.3857900000000001
0
LINE
8
BLACK
6
CONTINUOUS
10
204.4625319999999817
20
-88.3857900000000001
11
204.5577699999999766
21
-88.1953139999999962
0
LINE
8
BLACK
6
CONTINUOUS
10
204.5577699999999766
20
-88.1953139999999962
11
204.6530079999999998
21
-88.1000760000000014
0
LINE
8
BLACK
6
CONTINUOUS
10
204.6530079999999998
20
-88.1000760000000014
11
204.8434839999999895
21
-88.0048379999999923
0
LINE
8
BLACK
6
CONTINUOUS
10
207.4149129999999843
20
-90.0048379999999923
11
206.2720559999999921
21
-90.0048379999999923
0
LINE
8
BLACK
6
CONTINUOUS
10
206.8434839999999895
20
-90.0048379999999923
11
206.8434839999999895
21
-88.0048379999999923
0
LINE
8
BLACK
6
CONTINUOUS
10
206.8434839999999895
20
-88.0048379999999923
11
206.6530079999999998
21
-88.290551999999991
0
LINE
8
BLACK
6
CONTINUOUS
10
206.6530079999999998
20
-88.290551999999991
11
206.4625319999999817
21
-88.4810279999999949
0
LINE
8
BLACK
6
CONTINUOUS
10
206.4625319999999817
20
-88.4810279999999949
11
206.2720559999999921
21
-88.5762659999999897
0
LINE
8
BLACK
6
CONTINUOUS
10
209.3196749999999895
20
-90.0048379999999923
11
208.1768179999999973
21
-90.0048379999999923
0
LINE
8
BLACK
6
CONTINUOUS
10
208.7482459999999946
20
-90.0048379999999923
11
208.7482459999999946
21
-88.0048379999999923
0
LINE
8
BLACK
6
CONTINUOUS
10
208.7482459999999946
20
-88.0048379999999923
11
208.5577699999999766
21
-88.290551999999991
0
LINE
8
BLACK
6
CONTINUOUS
10
208.5577699999999766
20
-88.290551999999991
11
208.3672939999999869
21
-88.4810279999999949
0
LINE
8
BLACK
6
CONTINUOUS
10
208.3672939999999869
20
-88.4810279999999949
11
208.1768179999999973
21
-88.5762659999999897
0
LINE
8
BLACK
6
CONTINUOUS
10
210.4625319999999817
20
-88.8619800000000026
11
210.2720559999999921
21
-88.7667419999999936
0
LINE
8
BLACK
6
CONTINUOUS
10
210.2720559999999921
20
-88.7667419999999936
11
210.1768179999999973
21
-88.6715039999999988
0
LINE
8
BLACK
6
CONTINUOUS
10
210.1768179999999973
20
-88.6715039999999988
11
210.0815800000000024
21
-88.4810279999999949
0
LINE
8
BLACK
6
CONTINUOUS
10
210.0815800000000024
20
-88.4810279999999949
11
210.0815800000000024
21
-88.3857900000000001
0
LINE
8
BLACK
6
CONTINUOUS
10
210.0815800000000024
20
-88.3857900000000001
11
210.1768179999999973
21
-88.1953139999999962
0
LINE
8
BLACK
6
CONTINUOUS
10
210.1768179999999973
20
-88.1953139999999962
11
210.2720559999999921
21
-88.1000760000000014
0
LINE
8
BLACK
6
CONTINUOUS
10
210.2720559999999921
20
-88.1000760000000014
11
210.4625319999999817
21
-88.0048379999999923
0
LINE
8
BLACK
6
CONTINUOUS
10
210.4625319999999817
20
-88.0048379999999923
11
210.8434849999999869
21
-88.0048379999999923
0
LINE
8
BLACK
6
CONTINUOUS
10
210.8434849999999869
20
-88.0048379999999923
11
211.0339609999999766
21
-88.1000760000000014
0
LINE
8
BLACK
6
CONTINUOUS
10
211.0339609999999766
20
-88.1000760000000014
11
211.1291989999999998
21
-88.1953139999999962
0
LINE
8
BLACK
6
CONTINUOUS
10
211.1291989999999998
20
-88.1953139999999962
11
211.2244369999999947
21
-88.3857900000000001
0
LINE
8
BLACK
6
CONTINUOUS
10
211.2244369999999947
20
-88.3857900000000001
11
211.2244369999999947
21
-88.4810279999999949
0
LINE
8
BLACK
6
CONTINUOUS
10
211.2244369999999947
20
-88.4810279999999949
11
211.1291989999999998
21
-88.6715039999999988
0
LINE
8
BLACK
6
CONTINUOUS
10
211.1291989999999998
20
-88.6715039999999988
11
211.0339609999999766
21
-88.7667419999999936
0
LINE
8
BLACK
6
CONTINUOUS
10
211.0339609999999766
20
-88.7667419999999936
11
210.8434849999999869
21
-88.8619800000000026
0
LINE
8
BLACK
6
CONTINUOUS
10
210.8434849999999869
20
-88.8619800000000026
11
210.4625319999999817
21
-88.8619800000000026
0
LINE
8
BLACK
6
CONTINUOUS
10
210.4625319999999817
20
-88.8619800000000026
11
210.2720559999999921
21
-88.9572189999999949
0
LINE
8
BLACK
6
CONTINUOUS
10
210.2720559999999921
20
-88.9572189999999949
11
210.1768179999999973
21
-89.0524569999999898
0
LINE
8
BLACK
6
CONTINUOUS
10
210.1768179999999973
20
-89.0524569999999898
11
210.0815800000000024
21
-89.2429329999999936
0
LINE
8
BLACK
6
CONTINUOUS
10
210.0815800000000024
20
-89.2429329999999936
11
210.0815800000000024
21
-89.6238850000000014
0
LINE
8
BLACK
6
CONTINUOUS
10
210.0815800000000024
20
-89.6238850000000014
11
210.1768179999999973
21
-89.814360999999991
0
LINE
8
BLACK
6
CONTINUOUS
10
210.1768179999999973
20
-89.814360999999991
11
210.2720559999999921
21
-89.9095999999999975
0
LINE
8
BLACK
6
CONTINUOUS
10
210.2720559999999921
20
-89.9095999999999975
11
210.4625319999999817
21
-90.0048379999999923
0
LINE
8
BLACK
6
CONTINUOUS
10
210.4625319999999817
20
-90.0048379999999923
11
210.8434849999999869
21
-90.0048379999999923
0
LINE
8
BLACK
6
CONTINUOUS
10
210.8434849999999869
20
-90.0048379999999923
11
211.0339609999999766
21
-89.9095999999999975
0
LINE
8
BLACK
6
CONTINUOUS
10
211.0339609999999766
20
-89.9095999999999975
11
211.1291989999999998
21
-89.814360999999991
0
LINE
8
BLACK
6
CONTINUOUS
10
211.1291989999999998
20
-89.814360999999991
11
211.2244369999999947
21
-89.6238850000000014
0
LINE
8
BLACK
6
CONTINUOUS
10
211.2244369999999947
20
-89.6238850000000014
11
211.2244369999999947
21
-89.2429329999999936
0
LINE
8
BLACK
6
CONTINUOUS
10
211.2244369999999947
20
-89.2429329999999936
11
211.1291989999999998
21
-89.0524569999999898
0
LINE
8
BLACK
6
CONTINUOUS
10
211.1291989999999998
20
-89.0524569999999898
11
211.0339609999999766
21
-88.9572189999999949
0
LINE
8
BLACK
6
CONTINUOUS
10
211.0339609999999766
20
-88.9572189999999949
11
210.8434849999999869
21
-88.8619800000000026
0
LINE
8
BLACK
6
CONTINUOUS
10
211.9863419999999792
20
-88.0048379999999923
11
211.9863419999999792
21
-88.3857900000000001
0
LINE
8
BLACK
6
CONTINUOUS
10
212.7482469999999921
20
-88.0048379999999923
11
212.7482469999999921
21
-88.3857900000000001
0
LINE
8
BLACK
6
CONTINUOUS
10
215.7006289999999922
20
-90.7667419999999936
11
215.6053899999999999
21
-90.6715039999999988
0
LINE
8
BLACK
6
CONTINUOUS
10
215.6053899999999999
20
-90.6715039999999988
11
215.4149139999999818
21
-90.3857900000000001
0
LINE
8
BLACK
6
CONTINUOUS
10
215.4149139999999818
20
-90.3857900000000001
11
215.319675999999987
21
-90.1953139999999962
0
LINE
8
BLACK
6
CONTINUOUS
10
215.319675999999987
20
-90.1953139999999962
11
215.2244379999999921
21
-89.9095999999999975
0
LINE
8
BLACK
6
CONTINUOUS
10
215.2244379999999921
20
-89.9095999999999975
11
215.1291999999999973
21
-89.4334089999999975
0
LINE
8
BLACK
6
CONTINUOUS
10
215.1291999999999973
20
-89.4334089999999975
11
215.1291999999999973
21
-89.0524569999999898
0
LINE
8
BLACK
6
CONTINUOUS
10
215.1291999999999973
20
-89.0524569999999898
11
215.2244379999999921
21
-88.5762659999999897
0
LINE
8
BLACK
6
CONTINUOUS
10
215.2244379999999921
20
-88.5762659999999897
11
215.319675999999987
21
-88.290551999999991
0
LINE
8
BLACK
6
CONTINUOUS
10
215.319675999999987
20
-88.290551999999991
11
215.4149139999999818
21
-88.1000760000000014
0
LINE
8
BLACK
6
CONTINUOUS
10
215.4149139999999818
20
-88.1000760000000014
11
215.6053899999999999
21
-87.814360999999991
0
LINE
8
BLACK
6
CONTINUOUS
10
215.6053899999999999
20
-87.814360999999991
11
215.7006289999999922
21
-87.7191229999999962
0
LINE
8
BLACK
6
CONTINUOUS
10
216.2720569999999896
20
-88.0048379999999923
11
217.5101519999999766
21
-88.0048379999999923
0
LINE
8
BLACK
6
CONTINUOUS
10
217.5101519999999766
20
-88.0048379999999923
11
216.8434849999999869
21
-88.7667419999999936
0
LINE
8
BLACK
6
CONTINUOUS
10
216.8434849999999869
20
-88.7667419999999936
11
217.1291999999999973
21
-88.7667419999999936
0
LINE
8
BLACK
6
CONTINUOUS
10
217.1291999999999973
20
-88.7667419999999936
11
217.319675999999987
21
-88.8619800000000026
0
LINE
8
BLACK
6
CONTINUOUS
10
217.319675999999987
20
-88.8619800000000026
11
217.4149139999999818
21
-88.9572189999999949
0
LINE
8
BLACK
6
CONTINUOUS
10
217.4149139999999818
20
-88.9572189999999949
11
217.5101519999999766
21
-89.1476949999999988
0
LINE
8
BLACK
6
CONTINUOUS
10
217.5101519999999766
20
-89.1476949999999988
11
217.5101519999999766
21
-89.6238850000000014
0
LINE
8
BLACK
6
CONTINUOUS
10
217.5101519999999766
20
-89.6238850000000014
11
217.4149139999999818
21
-89.814360999999991
0
LINE
8
BLACK
6
CONTINUOUS
10
217.4149139999999818
20
-89.814360999999991
11
217.319675999999987
21
-89.9095999999999975
0
LINE
8
BLACK
6
CONTINUOUS
10
217.319675999999987
20
-89.9095999999999975
11
217.1291999999999973
21
-90.0048379999999923
0
LINE
8
BLACK
6
CONTINUOUS
10
217.1291999999999973
20
-90.0048379999999923
11
216.5577710000000025
21
-90.0048379999999923
0
LINE
8
BLACK
6
CONTINUOUS
10
216.5577710000000025
20
-90.0048379999999923
11
216.3672949999999844
21
-89.9095999999999975
0
LINE
8
BLACK
6
CONTINUOUS
10
216.3672949999999844
20
-89.9095999999999975
11
216.2720569999999896
21
-89.814360999999991
0
LINE
8
BLACK
6
CONTINUOUS
10
219.2244379999999921
20
-88.0048379999999923
11
218.8434849999999869
21
-88.0048379999999923
0
LINE
8
BLACK
6
CONTINUOUS
10
218.8434849999999869
20
-88.0048379999999923
11
218.6530089999999973
21
-88.1000760000000014
0
LINE
8
BLACK
6
CONTINUOUS
10
218.6530089999999973
20
-88.1000760000000014
11
218.5577710000000025
21
-88.1953139999999962
0
LINE
8
BLACK
6
CONTINUOUS
10
218.5577710000000025
20
-88.1953139999999962
11
218.3672949999999844
21
-88.4810279999999949
0
LINE
8
BLACK
6
CONTINUOUS
10
218.3672949999999844
20
-88.4810279999999949
11
218.2720569999999896
21
-88.8619800000000026
0
LINE
8
BLACK
6
CONTINUOUS
10
218.2720569999999896
20
-88.8619800000000026
11
218.2720569999999896
21
-89.6238850000000014
0
LINE
8
BLACK
6
CONTINUOUS
10
218.2720569999999896
20
-89.6238850000000014
11
218.3672949999999844
21
-89.814360999999991
0
LINE
8
BLACK
6
CONTINUOUS
10
218.3672949999999844
20
-89.814360999999991
11
218.4625329999999792
21
-89.9095999999999975
0
LINE
8
BLACK
6
CONTINUOUS
10
218.4625329999999792
20
-89.9095999999999975
11
218.6530089999999973
21
-90.0048379999999923
0
LINE
8
BLACK
6
CONTINUOUS
10
218.6530089999999973
20
-90.0048379999999923
11
219.0339620000000025
21
-90.0048379999999923
0
LINE
8
BLACK
6
CONTINUOUS
10
219.0339620000000025
20
-90.0048379999999923
11
219.2244379999999921
21
-89.9095999999999975
0
LINE
8
BLACK
6
CONTINUOUS
10
219.2244379999999921
20
-89.9095999999999975
11
219.319675999999987
21
-89.814360999999991
0
LINE
8
BLACK
6
CONTINUOUS
10
219.319675999999987
20
-89.814360999999991
11
219.4149139999999818
21
-89.6238850000000014
0
LINE
8
BLACK
6
CONTINUOUS
10
219.4149139999999818
20
-89.6238850000000014
11
219.4149139999999818
21
-89.1476949999999988
0
LINE
8
BLACK
6
CONTINUOUS
10
219.4149139999999818
20
-89.1476949999999988
11
219.319675999999987
21
-88.9572189999999949
0
LINE
8
BLACK
6
CONTINUOUS
10
219.319675999999987
20
-88.9572189999999949
11
219.2244379999999921
21
-88.8619800000000026
0
LINE
8
BLACK
6
CONTINUOUS
10
219.2244379999999921
20
-88.8619800000000026
11
219.0339620000000025
21
-88.7667419999999936
0
LINE
8
BLACK
6
CONTINUOUS
10
219.0339620000000025
20
-88.7667419999999936
11
218.6530089999999973
21
-88.7667419999999936
0
LINE
8
BLACK
6
CONTINUOUS
10
218.6530089999999973
20
-88.7667419999999936
11
218.4625329999999792
21
-88.8619800000000026
0
LINE
8
BLACK
6
CONTINUOUS
10
218.4625329999999792
20
-88.8619800000000026
11
218.3672949999999844
21
-88.9572189999999949
0
LINE
8
BLACK
6
CONTINUOUS
10
218.3672949999999844
20
-88.9572189999999949
11
218.2720569999999896
21
-89.1476949999999988
0
LINE
8
BLACK
6
CONTINUOUS
10
221.795866999999987
20
-90.0048379999999923
11
221.795866999999987
21
-88.0048379999999923
0
LINE
8
BLACK
6
CONTINUOUS
10
222.6530099999999948
20
-90.0048379999999923
11
222.6530099999999948
21
-88.9572189999999949
0
LINE
8
BLACK
6
CONTINUOUS
10
222.6530099999999948
20
-88.9572189999999949
11
222.5577719999999999
21
-88.7667419999999936
0
LINE
8
BLACK
6
CONTINUOUS
10
222.5577719999999999
20
-88.7667419999999936
11
222.3672959999999819
21
-88.6715039999999988
0
LINE
8
BLACK
6
CONTINUOUS
10
222.3672959999999819
20
-88.6715039999999988
11
222.0815809999999999
21
-88.6715039999999988
0
LINE
8
BLACK
6
CONTINUOUS
10
222.0815809999999999
20
-88.6715039999999988
11
221.8911049999999818
21
-88.7667419999999936
0
LINE
8
BLACK
6
CONTINUOUS
10
221.8911049999999818
20
-88.7667419999999936
11
221.795866999999987
21
-88.8619800000000026
0
LINE
8
BLACK
6
CONTINUOUS
10
223.8911049999999818
20
-90.0048379999999923
11
223.7006289999999922
21
-89.9095999999999975
0
LINE
8
BLACK
6
CONTINUOUS
10
223.7006289999999922
20
-89.9095999999999975
11
223.6053909999999973
21
-89.814360999999991
0
LINE
8
BLACK
6
CONTINUOUS
10
223.6053909999999973
20
-89.814360999999991
11
223.5101530000000025
21
-89.6238850000000014
0
LINE
8
BLACK
6
CONTINUOUS
10
223.5101530000000025
20
-89.6238850000000014
11
223.5101530000000025
21
-89.0524569999999898
0
LINE
8
BLACK
6
CONTINUOUS
10
223.5101530000000025
20
-89.0524569999999898
11
223.6053909999999973
21
-88.8619800000000026
0
LINE
8
BLACK
6
CONTINUOUS
10
223.6053909999999973
20
-88.8619800000000026
11
223.7006289999999922
21
-88.7667419999999936
0
LINE
8
BLACK
6
CONTINUOUS
10
223.7006289999999922
20
-88.7667419999999936
11
223.8911049999999818
21
-88.6715039999999988
0
LINE
8
BLACK
6
CONTINUOUS
10
223.8911049999999818
20
-88.6715039999999988
11
224.1768199999999922
21
-88.6715039999999988
0
LINE
8
BLACK
6
CONTINUOUS
10
224.1768199999999922
20
-88.6715039999999988
11
224.3672959999999819
21
-88.7667419999999936
0
LINE
8
BLACK
6
CONTINUOUS
10
224.3672959999999819
20
-88.7667419999999936
11
224.4625339999999767
21
-88.8619800000000026
0
LINE
8
BLACK
6
CONTINUOUS
10
224.4625339999999767
20
-88.8619800000000026
11
224.5577719999999999
21
-89.0524569999999898
0
LINE
8
BLACK
6
CONTINUOUS
10
224.5577719999999999
20
-89.0524569999999898
11
224.5577719999999999
21
-89.6238850000000014
0
LINE
8
BLACK
6
CONTINUOUS
10
224.5577719999999999
20
-89.6238850000000014
11
224.4625339999999767
21
-89.814360999999991
0
LINE
8
BLACK
6
CONTINUOUS
10
224.4625339999999767
20
-89.814360999999991
11
224.3672959999999819
21
-89.9095999999999975
0
LINE
8
BLACK
6
CONTINUOUS
10
224.3672959999999819
20
-89.9095999999999975
11
224.1768199999999922
21
-90.0048379999999923
0
LINE
8
BLACK
6
CONTINUOUS
10
224.1768199999999922
20
-90.0048379999999923
11
223.8911049999999818
21
-90.0048379999999923
0
LINE
8
BLACK
6
CONTINUOUS
10
225.7006289999999922
20
-90.0048379999999923
11
225.5101530000000025
21
-89.9095999999999975
0
LINE
8
BLACK
6
CONTINUOUS
10
225.5101530000000025
20
-89.9095999999999975
11
225.4149149999999793
21
-89.7191229999999962
0
LINE
8
BLACK
6
CONTINUOUS
10
225.4149149999999793
20
-89.7191229999999962
11
225.4149149999999793
21
-88.0048379999999923
0
LINE
8
BLACK
6
CONTINUOUS
10
227.2244389999999896
20
-89.9095999999999975
11
227.033963
21
-90.0048379999999923
0
LINE
8
BLACK
6
CONTINUOUS
10
227.033963
20
-90.0048379999999923
11
226.6530099999999948
21
-90.0048379999999923
0
LINE
8
BLACK
6
CONTINUOUS
10
226.6530099999999948
20
-90.0048379999999923
11
226.4625339999999767
21
-89.9095999999999975
0
LINE
8
BLACK
6
CONTINUOUS
10
226.4625339999999767
20
-89.9095999999999975
11
226.3672959999999819
21
-89.7191229999999962
0
LINE
8
BLACK
6
CONTINUOUS
10
226.3672959999999819
20
-89.7191229999999962
11
226.3672959999999819
21
-88.9572189999999949
0
LINE
8
BLACK
6
CONTINUOUS
10
226.3672959999999819
20
-88.9572189999999949
11
226.4625339999999767
21
-88.7667419999999936
0
LINE
8
BLACK
6
CONTINUOUS
10
226.4625339999999767
20
-88.7667419999999936
11
226.6530099999999948
21
-88.6715039999999988
0
LINE
8
BLACK
6
CONTINUOUS
10
226.6530099999999948
20
-88.6715039999999988
11
227.033963
21
-88.6715039999999988
0
LINE
8
BLACK
6
CONTINUOUS
10
227.033963
20
-88.6715039999999988
11
227.2244389999999896
21
-88.7667419999999936
0
LINE
8
BLACK
6
CONTINUOUS
10
227.2244389999999896
20
-88.7667419999999936
11
227.3196769999999844
21
-88.9572189999999949
0
LINE
8
BLACK
6
CONTINUOUS
10
227.3196769999999844
20
-88.9572189999999949
11
227.3196769999999844
21
-89.1476949999999988
0
LINE
8
BLACK
6
CONTINUOUS
10
227.3196769999999844
20
-89.1476949999999988
11
226.3672959999999819
21
-89.3381710000000027
0
LINE
8
BLACK
6
CONTINUOUS
10
228.0815819999999974
20
-89.9095999999999975
11
228.272057999999987
21
-90.0048379999999923
0
LINE
8
BLACK
6
CONTINUOUS
10
228.272057999999987
20
-90.0048379999999923
11
228.6530099999999948
21
-90.0048379999999923
0
LINE
8
BLACK
6
CONTINUOUS
10
228.6530099999999948
20
-90.0048379999999923
11
228.8434869999999819
21
-89.9095999999999975
0
LINE
8
BLACK
6
CONTINUOUS
10
228.8434869999999819
20
-89.9095999999999975
11
228.9387249999999767
21
-89.7191229999999962
0
LINE
8
BLACK
6
CONTINUOUS
10
228.9387249999999767
20
-89.7191229999999962
11
228.9387249999999767
21
-89.6238850000000014
0
LINE
8
BLACK
6
CONTINUOUS
10
228.9387249999999767
20
-89.6238850000000014
11
228.8434869999999819
21
-89.4334089999999975
0
LINE
8
BLACK
6
CONTINUOUS
10
228.8434869999999819
20
-89.4334089999999975
11
228.6530099999999948
21
-89.3381710000000027
0
LINE
8
BLACK
6
CONTINUOUS
10
228.6530099999999948
20
-89.3381710000000027
11
228.3672959999999819
21
-89.3381710000000027
0
LINE
8
BLACK
6
CONTINUOUS
10
228.3672959999999819
20
-89.3381710000000027
11
228.1768199999999922
21
-89.2429329999999936
0
LINE
8
BLACK
6
CONTINUOUS
10
228.1768199999999922
20
-89.2429329999999936
11
228.0815819999999974
21
-89.0524569999999898
0
LINE
8
BLACK
6
CONTINUOUS
10
228.0815819999999974
20
-89.0524569999999898
11
228.0815819999999974
21
-88.9572189999999949
0
LINE
8
BLACK
6
CONTINUOUS
10
228.0815819999999974
20
-88.9572189999999949
11
228.1768199999999922
21
-88.7667419999999936
0
LINE
8
BLACK
6
CONTINUOUS
10
228.1768199999999922
20
-88.7667419999999936
11
228.3672959999999819
21
-88.6715039999999988
0
LINE
8
BLACK
6
CONTINUOUS
10
228.3672959999999819
20
-88.6715039999999988
11
228.6530099999999948
21
-88.6715039999999988
0
LINE
8
BLACK
6
CONTINUOUS
10
228.6530099999999948
20
-88.6715039999999988
11
228.8434869999999819
21
-88.7667419999999936
0
LINE
8
BLACK
6
CONTINUOUS
10
229.6053919999999948
20
-90.7667419999999936
11
229.7006299999999896
21
-90.6715039999999988
0
LINE
8
BLACK
6
CONTINUOUS
10
229.7006299999999896
20
-90.6715039999999988
11
229.8911059999999793
21
-90.3857900000000001
0
LINE
8
BLACK
6
CONTINUOUS
10
229.8911059999999793
20
-90.3857900000000001
11
229.9863440000000026
21
-90.1953139999999962
0
LINE
8
BLACK
6
CONTINUOUS
10
229.9863440000000026
20
-90.1953139999999962
11
230.0815819999999974
21
-89.9095999999999975
0
LINE
8
BLACK
6
CONTINUOUS
10
230.0815819999999974
20
-89.9095999999999975
11
230.1768199999999922
21
-89.4334089999999975
0
LINE
8
BLACK
6
CONTINUOUS
10
230.1768199999999922
20
-89.4334089999999975
11
230.1768199999999922
21
-89.0524569999999898
0
LINE
8
BLACK
6
CONTINUOUS
10
230.1768199999999922
20
-89.0524569999999898
11
230.0815819999999974
21
-88.5762659999999897
0
LINE
8
BLACK
6
CONTINUOUS
10
230.0815819999999974
20
-88.5762659999999897
11
229.9863440000000026
21
-88.290551999999991
0
LINE
8
BLACK
6
CONTINUOUS
10
229.9863440000000026
20
-88.290551999999991
11
229.8911059999999793
21
-88.1000760000000014
0
LINE
8
BLACK
6
CONTINUOUS
10
229.8911059999999793
20
-88.1000760000000014
11
229.7006299999999896
21
-87.814360999999991
0
LINE
8
BLACK
6
CONTINUOUS
10
229.7006299999999896
20
-87.814360999999991
11
229.6053919999999948
21
-87.7191229999999962
0
LINE
8
BLACK
6
CONTINUOUS
10
179.75
20
-91.5300000000000011
11
179.75
21
-91.9299999999999926
0
LINE
8
BLACK
6
CONTINUOUS
10
179.5499999999999829
20
-91.7299999999999898
11
179.9499999999999886
21
-91.7299999999999898
0
LINE
8
BLACK
6
CONTINUOUS
10
182.9387199999999893
20
-90.6448379999999929
11
183.1291970000000049
21
-90.6448379999999929
0
LINE
8
BLACK
6
CONTINUOUS
10
183.1291970000000049
20
-90.6448379999999929
11
183.3196729999999945
21
-90.740076000000002
0
LINE
8
BLACK
6
CONTINUOUS
10
183.3196729999999945
20
-90.740076000000002
11
183.4149109999999894
21
-90.8353139999999968
0
LINE
8
BLACK
6
CONTINUOUS
10
183.4149109999999894
20
-90.8353139999999968
11
183.5101489999999842
21
-91.0257900000000006
0
LINE
8
BLACK
6
CONTINUOUS
10
183.5101489999999842
20
-91.0257900000000006
11
183.605386999999979
21
-91.4067419999999942
0
LINE
8
BLACK
6
CONTINUOUS
10
183.605386999999979
20
-91.4067419999999942
11
183.605386999999979
21
-91.8829329999999942
0
LINE
8
BLACK
6
CONTINUOUS
10
183.605386999999979
20
-91.8829329999999942
11
183.5101489999999842
21
-92.2638850000000019
0
LINE
8
BLACK
6
CONTINUOUS
10
183.5101489999999842
20
-92.2638850000000019
11
183.4149109999999894
21
-92.4543609999999916
0
LINE
8
BLACK
6
CONTINUOUS
10
183.4149109999999894
20
-92.4543609999999916
11
183.3196729999999945
21
-92.5495999999999981
0
LINE
8
BLACK
6
CONTINUOUS
10
183.3196729999999945
20
-92.5495999999999981
11
183.1291970000000049
21
-92.6448379999999929
0
LINE
8
BLACK
6
CONTINUOUS
10
183.1291970000000049
20
-92.6448379999999929
11
182.9387199999999893
21
-92.6448379999999929
0
LINE
8
BLACK
6
CONTINUOUS
10
182.9387199999999893
20
-92.6448379999999929
11
182.7482439999999997
21
-92.5495999999999981
0
LINE
8
BLACK
6
CONTINUOUS
10
182.7482439999999997
20
-92.5495999999999981
11
182.6530060000000049
21
-92.4543609999999916
0
LINE
8
BLACK
6
CONTINUOUS
10
182.6530060000000049
20
-92.4543609999999916
11
182.5577679999999816
21
-92.2638850000000019
0
LINE
8
BLACK
6
CONTINUOUS
10
182.5577679999999816
20
-92.2638850000000019
11
182.4625299999999868
21
-91.8829329999999942
0
LINE
8
BLACK
6
CONTINUOUS
10
182.4625299999999868
20
-91.8829329999999942
11
182.4625299999999868
21
-91.4067419999999942
0
LINE
8
BLACK
6
CONTINUOUS
10
182.4625299999999868
20
-91.4067419999999942
11
182.5577679999999816
21
-91.0257900000000006
0
LINE
8
BLACK
6
CONTINUOUS
10
182.5577679999999816
20
-91.0257900000000006
11
182.6530060000000049
21
-90.8353139999999968
0
LINE
8
BLACK
6
CONTINUOUS
10
182.6530060000000049
20
-90.8353139999999968
11
182.7482439999999997
21
-90.740076000000002
0
LINE
8
BLACK
6
CONTINUOUS
10
182.7482439999999997
20
-90.740076000000002
11
182.9387199999999893
21
-90.6448379999999929
0
LINE
8
BLACK
6
CONTINUOUS
10
184.4625299999999868
20
-92.4543609999999916
11
184.5577679999999816
21
-92.5495999999999981
0
LINE
8
BLACK
6
CONTINUOUS
10
184.5577679999999816
20
-92.5495999999999981
11
184.4625299999999868
21
-92.6448379999999929
0
LINE
8
BLACK
6
CONTINUOUS
10
184.4625299999999868
20
-92.6448379999999929
11
184.367291999999992
21
-92.5495999999999981
0
LINE
8
BLACK
6
CONTINUOUS
10
184.367291999999992
20
-92.5495999999999981
11
184.4625299999999868
21
-92.4543609999999916
0
LINE
8
BLACK
6
CONTINUOUS
10
184.4625299999999868
20
-92.4543609999999916
11
184.4625299999999868
21
-92.6448379999999929
0
LINE
8
BLACK
6
CONTINUOUS
10
186.2720539999999971
20
-91.3115039999999993
11
186.2720539999999971
21
-92.6448379999999929
0
LINE
8
BLACK
6
CONTINUOUS
10
185.7958629999999971
20
-90.5495999999999981
11
185.3196729999999945
21
-91.978170999999989
0
LINE
8
BLACK
6
CONTINUOUS
10
185.3196729999999945
20
-91.978170999999989
11
186.5577679999999816
21
-91.978170999999989
0
LINE
8
BLACK
6
CONTINUOUS
10
187.7006250000000023
20
-90.6448379999999929
11
187.8911019999999894
21
-90.6448379999999929
0
LINE
8
BLACK
6
CONTINUOUS
10
187.8911019999999894
20
-90.6448379999999929
11
188.0815779999999791
21
-90.740076000000002
0
LINE
8
BLACK
6
CONTINUOUS
10
188.0815779999999791
20
-90.740076000000002
11
188.1768160000000023
21
-90.8353139999999968
0
LINE
8
BLACK
6
CONTINUOUS
10
188.1768160000000023
20
-90.8353139999999968
11
188.2720539999999971
21
-91.0257900000000006
0
LINE
8
BLACK
6
CONTINUOUS
10
188.2720539999999971
20
-91.0257900000000006
11
188.367291999999992
21
-91.4067419999999942
0
LINE
8
BLACK
6
CONTINUOUS
10
188.367291999999992
20
-91.4067419999999942
11
188.367291999999992
21
-91.8829329999999942
0
LINE
8
BLACK
6
CONTINUOUS
10
188.367291999999992
20
-91.8829329999999942
11
188.2720539999999971
21
-92.2638850000000019
0
LINE
8
BLACK
6
CONTINUOUS
10
188.2720539999999971
20
-92.2638850000000019
11
188.1768160000000023
21
-92.4543609999999916
0
LINE
8
BLACK
6
CONTINUOUS
10
188.1768160000000023
20
-92.4543609999999916
11
188.0815779999999791
21
-92.5495999999999981
0
LINE
8
BLACK
6
CONTINUOUS
10
188.0815779999999791
20
-92.5495999999999981
11
187.8911019999999894
21
-92.6448379999999929
0
LINE
8
BLACK
6
CONTINUOUS
10
187.8911019999999894
20
-92.6448379999999929
11
187.7006250000000023
21
-92.6448379999999929
0
LINE
8
BLACK
6
CONTINUOUS
10
187.7006250000000023
20
-92.6448379999999929
11
187.5101489999999842
21
-92.5495999999999981
0
LINE
8
BLACK
6
CONTINUOUS
10
187.5101489999999842
20
-92.5495999999999981
11
187.4149109999999894
21
-92.4543609999999916
0
LINE
8
BLACK
6
CONTINUOUS
10
187.4149109999999894
20
-92.4543609999999916
11
187.3196729999999945
21
-92.2638850000000019
0
LINE
8
BLACK
6
CONTINUOUS
10
187.3196729999999945
20
-92.2638850000000019
11
187.2244349999999997
21
-91.8829329999999942
0
LINE
8
BLACK
6
CONTINUOUS
10
187.2244349999999997
20
-91.8829329999999942
11
187.2244349999999997
21
-91.4067419999999942
0
LINE
8
BLACK
6
CONTINUOUS
10
187.2244349999999997
20
-91.4067419999999942
11
187.3196729999999945
21
-91.0257900000000006
0
LINE
8
BLACK
6
CONTINUOUS
10
187.3196729999999945
20
-91.0257900000000006
11
187.4149109999999894
21
-90.8353139999999968
0
LINE
8
BLACK
6
CONTINUOUS
10
187.4149109999999894
20
-90.8353139999999968
11
187.5101489999999842
21
-90.740076000000002
0
LINE
8
BLACK
6
CONTINUOUS
10
187.5101489999999842
20
-90.740076000000002
11
187.7006250000000023
21
-90.6448379999999929
0
LINE
8
BLACK
6
CONTINUOUS
10
189.605386999999979
20
-90.6448379999999929
11
189.7958639999999946
21
-90.6448379999999929
0
LINE
8
BLACK
6
CONTINUOUS
10
189.7958639999999946
20
-90.6448379999999929
11
189.9863399999999842
21
-90.740076000000002
0
LINE
8
BLACK
6
CONTINUOUS
10
189.9863399999999842
20
-90.740076000000002
11
190.0815779999999791
21
-90.8353139999999968
0
LINE
8
BLACK
6
CONTINUOUS
10
190.0815779999999791
20
-90.8353139999999968
11
190.1768160000000023
21
-91.0257900000000006
0
LINE
8
BLACK
6
CONTINUOUS
10
190.1768160000000023
20
-91.0257900000000006
11
190.2720539999999971
21
-91.4067419999999942
0
LINE
8
BLACK
6
CONTINUOUS
10
190.2720539999999971
20
-91.4067419999999942
11
190.2720539999999971
21
-91.8829329999999942
0
LINE
8
BLACK
6
CONTINUOUS
10
190.2720539999999971
20
-91.8829329999999942
11
190.1768160000000023
21
-92.2638850000000019
0
LINE
8
BLACK
6
CONTINUOUS
10
190.1768160000000023
20
-92.2638850000000019
11
190.0815779999999791
21
-92.4543609999999916
0
LINE
8
BLACK
6
CONTINUOUS
10
190.0815779999999791
20
-92.4543609999999916
11
189.9863399999999842
21
-92.5495999999999981
0
LINE
8
BLACK
6
CONTINUOUS
10
189.9863399999999842
20
-92.5495999999999981
11
189.7958639999999946
21
-92.6448379999999929
0
LINE
8
BLACK
6
CONTINUOUS
10
189.7958639999999946
20
-92.6448379999999929
11
189.605386999999979
21
-92.6448379999999929
0
LINE
8
BLACK
6
CONTINUOUS
10
189.605386999999979
20
-92.6448379999999929
11
189.4149109999999894
21
-92.5495999999999981
0
LINE
8
BLACK
6
CONTINUOUS
10
189.4149109999999894
20
-92.5495999999999981
11
189.3196729999999945
21
-92.4543609999999916
0
LINE
8
BLACK
6
CONTINUOUS
10
189.3196729999999945
20
-92.4543609999999916
11
189.2244349999999997
21
-92.2638850000000019
0
LINE
8
BLACK
6
CONTINUOUS
10
189.2244349999999997
20
-92.2638850000000019
11
189.1291970000000049
21
-91.8829329999999942
0
LINE
8
BLACK
6
CONTINUOUS
10
189.1291970000000049
20
-91.8829329999999942
11
189.1291970000000049
21
-91.4067419999999942
0
LINE
8
BLACK
6
CONTINUOUS
10
189.1291970000000049
20
-91.4067419999999942
11
189.2244349999999997
21
-91.0257900000000006
0
LINE
8
BLACK
6
CONTINUOUS
10
189.2244349999999997
20
-91.0257900000000006
11
189.3196729999999945
21
-90.8353139999999968
0
LINE
8
BLACK
6
CONTINUOUS
10
189.3196729999999945
20
-90.8353139999999968
11
189.4149109999999894
21
-90.740076000000002
0
LINE
8
BLACK
6
CONTINUOUS
10
189.4149109999999894
20
-90.740076000000002
11
189.605386999999979
21
-90.6448379999999929
0
LINE
8
BLACK
6
CONTINUOUS
10
191.1291970000000049
20
-92.6448379999999929
11
191.1291970000000049
21
-91.3115039999999993
0
LINE
8
BLACK
6
CONTINUOUS
10
191.1291970000000049
20
-91.501979999999989
11
191.2244349999999997
21
-91.4067419999999942
0
LINE
8
BLACK
6
CONTINUOUS
10
191.2244349999999997
20
-91.4067419999999942
11
191.4149109999999894
21
-91.3115039999999993
0
LINE
8
BLACK
6
CONTINUOUS
10
191.4149109999999894
20
-91.3115039999999993
11
191.7006259999999997
21
-91.3115039999999993
0
LINE
8
BLACK
6
CONTINUOUS
10
191.7006259999999997
20
-91.3115039999999993
11
191.8911019999999894
21
-91.4067419999999942
0
LINE
8
BLACK
6
CONTINUOUS
10
191.8911019999999894
20
-91.4067419999999942
11
191.9863399999999842
21
-91.5972189999999955
0
LINE
8
BLACK
6
CONTINUOUS
10
191.9863399999999842
20
-91.5972189999999955
11
191.9863399999999842
21
-92.6448379999999929
0
LINE
8
BLACK
6
CONTINUOUS
10
191.9863399999999842
20
-91.5972189999999955
11
192.0815779999999791
21
-91.4067419999999942
0
LINE
8
BLACK
6
CONTINUOUS
10
192.0815779999999791
20
-91.4067419999999942
11
192.2720539999999971
21
-91.3115039999999993
0
LINE
8
BLACK
6
CONTINUOUS
10
192.2720539999999971
20
-91.3115039999999993
11
192.5577679999999816
21
-91.3115039999999993
0
LINE
8
BLACK
6
CONTINUOUS
10
192.5577679999999816
20
-91.3115039999999993
11
192.7482449999999972
21
-91.4067419999999942
0
LINE
8
BLACK
6
CONTINUOUS
10
192.7482449999999972
20
-91.4067419999999942
11
192.843482999999992
21
-91.5972189999999955
0
LINE
8
BLACK
6
CONTINUOUS
10
192.843482999999992
20
-91.5972189999999955
11
192.843482999999992
21
-92.6448379999999929
0
LINE
8
BLACK
6
CONTINUOUS
10
193.7958639999999946
20
-92.6448379999999929
11
193.7958639999999946
21
-91.3115039999999993
0
LINE
8
BLACK
6
CONTINUOUS
10
193.7958639999999946
20
-91.501979999999989
11
193.8911019999999894
21
-91.4067419999999942
0
LINE
8
BLACK
6
CONTINUOUS
10
193.8911019999999894
20
-91.4067419999999942
11
194.0815779999999791
21
-91.3115039999999993
0
LINE
8
BLACK
6
CONTINUOUS
10
194.0815779999999791
20
-91.3115039999999993
11
194.3672929999999894
21
-91.3115039999999993
0
LINE
8
BLACK
6
CONTINUOUS
10
194.3672929999999894
20
-91.3115039999999993
11
194.5577689999999791
21
-91.4067419999999942
0
LINE
8
BLACK
6
CONTINUOUS
10
194.5577689999999791
20
-91.4067419999999942
11
194.6530070000000023
21
-91.5972189999999955
0
LINE
8
BLACK
6
CONTINUOUS
10
194.6530070000000023
20
-91.5972189999999955
11
194.6530070000000023
21
-92.6448379999999929
0
LINE
8
BLACK
6
CONTINUOUS
10
194.6530070000000023
20
-91.5972189999999955
11
194.7482449999999972
21
-91.4067419999999942
0
LINE
8
BLACK
6
CONTINUOUS
10
194.7482449999999972
20
-91.4067419999999942
11
194.9387209999999868
21
-91.3115039999999993
0
LINE
8
BLACK
6
CONTINUOUS
10
194.9387209999999868
20
-91.3115039999999993
11
195.2244349999999997
21
-91.3115039999999993
0
LINE
8
BLACK
6
CONTINUOUS
10
195.2244349999999997
20
-91.3115039999999993
11
195.4149119999999868
21
-91.4067419999999942
0
LINE
8
BLACK
6
CONTINUOUS
10
195.4149119999999868
20
-91.4067419999999942
11
195.5101499999999817
21
-91.5972189999999955
0
LINE
8
BLACK
6
CONTINUOUS
10
195.5101499999999817
20
-91.5972189999999955
11
195.5101499999999817
21
-92.6448379999999929
0
LINE
8
BLACK
6
CONTINUOUS
10
199.4149119999999868
20
-90.5495999999999981
11
197.7006269999999972
21
-93.1210279999999955
0
LINE
8
BLACK
6
CONTINUOUS
10
201.9863409999999817
20
-90.6448379999999929
11
202.1768179999999973
21
-90.6448379999999929
0
LINE
8
BLACK
6
CONTINUOUS
10
202.1768179999999973
20
-90.6448379999999929
11
202.3672939999999869
21
-90.740076000000002
0
LINE
8
BLACK
6
CONTINUOUS
10
202.3672939999999869
20
-90.740076000000002
11
202.4625319999999817
21
-90.8353139999999968
0
LINE
8
BLACK
6
CONTINUOUS
10
202.4625319999999817
20
-90.8353139999999968
11
202.557770000000005
21
-91.0257900000000006
0
LINE
8
BLACK
6
CONTINUOUS
10
202.557770000000005
20
-91.0257900000000006
11
202.6530079999999998
21
-91.4067419999999942
0
LINE
8
BLACK
6
CONTINUOUS
10
202.6530079999999998
20
-91.4067419999999942
11
202.6530079999999998
21
-91.8829329999999942
0
LINE
8
BLACK
6
CONTINUOUS
10
202.6530079999999998
20
-91.8829329999999942
11
202.557770000000005
21
-92.2638850000000019
0
LINE
8
BLACK
6
CONTINUOUS
10
202.557770000000005
20
-92.2638850000000019
11
202.4625319999999817
21
-92.4543609999999916
0
LINE
8
BLACK
6
CONTINUOUS
10
202.4625319999999817
20
-92.4543609999999916
11
202.3672939999999869
21
-92.5495999999999981
0
LINE
8
BLACK
6
CONTINUOUS
10
202.3672939999999869
20
-92.5495999999999981
11
202.1768179999999973
21
-92.6448379999999929
0
LINE
8
BLACK
6
CONTINUOUS
10
202.1768179999999973
20
-92.6448379999999929
11
201.9863409999999817
21
-92.6448379999999929
0
LINE
8
BLACK
6
CONTINUOUS
10
201.9863409999999817
20
-92.6448379999999929
11
201.7958649999999921
21
-92.5495999999999981
0
LINE
8
BLACK
6
CONTINUOUS
10
201.7958649999999921
20
-92.5495999999999981
11
201.7006269999999972
21
-92.4543609999999916
0
LINE
8
BLACK
6
CONTINUOUS
10
201.7006269999999972
20
-92.4543609999999916
11
201.6053890000000024
21
-92.2638850000000019
0
LINE
8
BLACK
6
CONTINUOUS
10
201.6053890000000024
20
-92.2638850000000019
11
201.5101509999999791
21
-91.8829329999999942
0
LINE
8
BLACK
6
CONTINUOUS
10
201.5101509999999791
20
-91.8829329999999942
11
201.5101509999999791
21
-91.4067419999999942
0
LINE
8
BLACK
6
CONTINUOUS
10
201.5101509999999791
20
-91.4067419999999942
11
201.6053890000000024
21
-91.0257900000000006
0
LINE
8
BLACK
6
CONTINUOUS
10
201.6053890000000024
20
-91.0257900000000006
11
201.7006269999999972
21
-90.8353139999999968
0
LINE
8
BLACK
6
CONTINUOUS
10
201.7006269999999972
20
-90.8353139999999968
11
201.7958649999999921
21
-90.740076000000002
0
LINE
8
BLACK
6
CONTINUOUS
10
201.7958649999999921
20
-90.740076000000002
11
201.9863409999999817
21
-90.6448379999999929
0
LINE
8
BLACK
6
CONTINUOUS
10
203.5101509999999791
20
-92.4543609999999916
11
203.6053890000000024
21
-92.5495999999999981
0
LINE
8
BLACK
6
CONTINUOUS
10
203.6053890000000024
20
-92.5495999999999981
11
203.5101509999999791
21
-92.6448379999999929
0
LINE
8
BLACK
6
CONTINUOUS
10
203.5101509999999791
20
-92.6448379999999929
11
203.4149129999999843
21
-92.5495999999999981
0
LINE
8
BLACK
6
CONTINUOUS
10
203.4149129999999843
20
-92.5495999999999981
11
203.5101509999999791
21
-92.4543609999999916
0
LINE
8
BLACK
6
CONTINUOUS
10
203.5101509999999791
20
-92.4543609999999916
11
203.5101509999999791
21
-92.6448379999999929
0
LINE
8
BLACK
6
CONTINUOUS
10
204.8434839999999895
20
-90.6448379999999929
11
205.0339609999999766
21
-90.6448379999999929
0
LINE
8
BLACK
6
CONTINUOUS
10
205.0339609999999766
20
-90.6448379999999929
11
205.2244369999999947
21
-90.740076000000002
0
LINE
8
BLACK
6
CONTINUOUS
10
205.2244369999999947
20
-90.740076000000002
11
205.3196749999999895
21
-90.8353139999999968
0
LINE
8
BLACK
6
CONTINUOUS
10
205.3196749999999895
20
-90.8353139999999968
11
205.4149129999999843
21
-91.0257900000000006
0
LINE
8
BLACK
6
CONTINUOUS
10
205.4149129999999843
20
-91.0257900000000006
11
205.5101509999999791
21
-91.4067419999999942
0
LINE
8
BLACK
6
CONTINUOUS
10
205.5101509999999791
20
-91.4067419999999942
11
205.5101509999999791
21
-91.8829329999999942
0
LINE
8
BLACK
6
CONTINUOUS
10
205.5101509999999791
20
-91.8829329999999942
11
205.4149129999999843
21
-92.2638850000000019
0
LINE
8
BLACK
6
CONTINUOUS
10
205.4149129999999843
20
-92.2638850000000019
11
205.3196749999999895
21
-92.4543609999999916
0
LINE
8
BLACK
6
CONTINUOUS
10
205.3196749999999895
20
-92.4543609999999916
11
205.2244369999999947
21
-92.5495999999999981
0
LINE
8
BLACK
6
CONTINUOUS
10
205.2244369999999947
20
-92.5495999999999981
11
205.0339609999999766
21
-92.6448379999999929
0
LINE
8
BLACK
6
CONTINUOUS
10
205.0339609999999766
20
-92.6448379999999929
11
204.8434839999999895
21
-92.6448379999999929
0
LINE
8
BLACK
6
CONTINUOUS
10
204.8434839999999895
20
-92.6448379999999929
11
204.6530079999999998
21
-92.5495999999999981
0
LINE
8
BLACK
6
CONTINUOUS
10
204.6530079999999998
20
-92.5495999999999981
11
204.5577699999999766
21
-92.4543609999999916
0
LINE
8
BLACK
6
CONTINUOUS
10
204.5577699999999766
20
-92.4543609999999916
11
204.4625319999999817
21
-92.2638850000000019
0
LINE
8
BLACK
6
CONTINUOUS
10
204.4625319999999817
20
-92.2638850000000019
11
204.3672939999999869
21
-91.8829329999999942
0
LINE
8
BLACK
6
CONTINUOUS
10
204.3672939999999869
20
-91.8829329999999942
11
204.3672939999999869
21
-91.4067419999999942
0
LINE
8
BLACK
6
CONTINUOUS
10
204.3672939999999869
20
-91.4067419999999942
11
204.4625319999999817
21
-91.0257900000000006
0
LINE
8
BLACK
6
CONTINUOUS
10
204.4625319999999817
20
-91.0257900000000006
11
204.5577699999999766
21
-90.8353139999999968
0
LINE
8
BLACK
6
CONTINUOUS
10
204.5577699999999766
20
-90.8353139999999968
11
204.6530079999999998
21
-90.740076000000002
0
LINE
8
BLACK
6
CONTINUOUS
10
204.6530079999999998
20
-90.740076000000002
11
204.8434839999999895
21
-90.6448379999999929
0
LINE
8
BLACK
6
CONTINUOUS
10
207.4149129999999843
20
-92.6448379999999929
11
206.2720559999999921
21
-92.6448379999999929
0
LINE
8
BLACK
6
CONTINUOUS
10
206.8434839999999895
20
-92.6448379999999929
11
206.8434839999999895
21
-90.6448379999999929
0
LINE
8
BLACK
6
CONTINUOUS
10
206.8434839999999895
20
-90.6448379999999929
11
206.6530079999999998
21
-90.9305519999999916
0
LINE
8
BLACK
6
CONTINUOUS
10
206.6530079999999998
20
-90.9305519999999916
11
206.4625319999999817
21
-91.1210279999999955
0
LINE
8
BLACK
6
CONTINUOUS
10
206.4625319999999817
20
-91.1210279999999955
11
206.2720559999999921
21
-91.2162659999999903
0
LINE
8
BLACK
6
CONTINUOUS
10
209.2244369999999947
20
-90.6448379999999929
11
208.2720559999999921
21
-90.6448379999999929
0
LINE
8
BLACK
6
CONTINUOUS
10
208.2720559999999921
20
-90.6448379999999929
11
208.1768179999999973
21
-91.5972189999999955
0
LINE
8
BLACK
6
CONTINUOUS
10
208.1768179999999973
20
-91.5972189999999955
11
208.2720559999999921
21
-91.501979999999989
0
LINE
8
BLACK
6
CONTINUOUS
10
208.2720559999999921
20
-91.501979999999989
11
208.4625319999999817
21
-91.4067419999999942
0
LINE
8
BLACK
6
CONTINUOUS
10
208.4625319999999817
20
-91.4067419999999942
11
208.9387229999999818
21
-91.4067419999999942
0
LINE
8
BLACK
6
CONTINUOUS
10
208.9387229999999818
20
-91.4067419999999942
11
209.1291989999999998
21
-91.501979999999989
0
LINE
8
BLACK
6
CONTINUOUS
10
209.1291989999999998
20
-91.501979999999989
11
209.2244369999999947
21
-91.5972189999999955
0
LINE
8
BLACK
6
CONTINUOUS
10
209.2244369999999947
20
-91.5972189999999955
11
209.3196749999999895
21
-91.7876949999999994
0
LINE
8
BLACK
6
CONTINUOUS
10
209.3196749999999895
20
-91.7876949999999994
11
209.3196749999999895
21
-92.2638850000000019
0
LINE
8
BLACK
6
CONTINUOUS
10
209.3196749999999895
20
-92.2638850000000019
11
209.2244369999999947
21
-92.4543609999999916
0
LINE
8
BLACK
6
CONTINUOUS
10
209.2244369999999947
20
-92.4543609999999916
11
209.1291989999999998
21
-92.5495999999999981
0
LINE
8
BLACK
6
CONTINUOUS
10
209.1291989999999998
20
-92.5495999999999981
11
208.9387229999999818
21
-92.6448379999999929
0
LINE
8
BLACK
6
CONTINUOUS
10
208.9387229999999818
20
-92.6448379999999929
11
208.4625319999999817
21
-92.6448379999999929
0
LINE
8
BLACK
6
CONTINUOUS
10
208.4625319999999817
20
-92.6448379999999929
11
208.2720559999999921
21
-92.5495999999999981
0
LINE
8
BLACK
6
CONTINUOUS
10
208.2720559999999921
20
-92.5495999999999981
11
208.1768179999999973
21
-92.4543609999999916
0
LINE
8
BLACK
6
CONTINUOUS
10
209.9863419999999792
20
-90.6448379999999929
11
211.3196749999999895
21
-90.6448379999999929
0
LINE
8
BLACK
6
CONTINUOUS
10
211.3196749999999895
20
-90.6448379999999929
11
210.4625319999999817
21
-92.6448379999999929
0
LINE
8
BLACK
6
CONTINUOUS
10
211.9863419999999792
20
-90.6448379999999929
11
211.9863419999999792
21
-91.0257900000000006
0
LINE
8
BLACK
6
CONTINUOUS
10
212.7482469999999921
20
-90.6448379999999929
11
212.7482469999999921
21
-91.0257900000000006
0
LINE
8
BLACK
6
CONTINUOUS
10
215.7006289999999922
20
-93.4067419999999942
11
215.6053899999999999
21
-93.3115039999999993
0
LINE
8
BLACK
6
CONTINUOUS
10
215.6053899999999999
20
-93.3115039999999993
11
215.4149139999999818
21
-93.0257900000000006
0
LINE
8
BLACK
6
CONTINUOUS
10
215.4149139999999818
20
-93.0257900000000006
11
215.319675999999987
21
-92.8353139999999968
0
LINE
8
BLACK
6
CONTINUOUS
10
215.319675999999987
20
-92.8353139999999968
11
215.2244379999999921
21
-92.5495999999999981
0
LINE
8
BLACK
6
CONTINUOUS
10
215.2244379999999921
20
-92.5495999999999981
11
215.1291999999999973
21
-92.0734089999999981
0
LINE
8
BLACK
6
CONTINUOUS
10
215.1291999999999973
20
-92.0734089999999981
11
215.1291999999999973
21
-91.6924569999999903
0
LINE
8
BLACK
6
CONTINUOUS
10
215.1291999999999973
20
-91.6924569999999903
11
215.2244379999999921
21
-91.2162659999999903
0
LINE
8
BLACK
6
CONTINUOUS
10
215.2244379999999921
20
-91.2162659999999903
11
215.319675999999987
21
-90.9305519999999916
0
LINE
8
BLACK
6
CONTINUOUS
10
215.319675999999987
20
-90.9305519999999916
11
215.4149139999999818
21
-90.740076000000002
0
LINE
8
BLACK
6
CONTINUOUS
10
215.4149139999999818
20
-90.740076000000002
11
215.6053899999999999
21
-90.4543609999999916
0
LINE
8
BLACK
6
CONTINUOUS
10
215.6053899999999999
20
-90.4543609999999916
11
215.7006289999999922
21
-90.3591229999999968
0
LINE
8
BLACK
6
CONTINUOUS
10
217.5101519999999766
20
-92.6448379999999929
11
216.3672949999999844
21
-92.6448379999999929
0
LINE
8
BLACK
6
CONTINUOUS
10
216.9387229999999818
20
-92.6448379999999929
11
216.9387229999999818
21
-90.6448379999999929
0
LINE
8
BLACK
6
CONTINUOUS
10
216.9387229999999818
20
-90.6448379999999929
11
216.7482469999999921
21
-90.9305519999999916
0
LINE
8
BLACK
6
CONTINUOUS
10
216.7482469999999921
20
-90.9305519999999916
11
216.5577710000000025
21
-91.1210279999999955
0
LINE
8
BLACK
6
CONTINUOUS
10
216.5577710000000025
20
-91.1210279999999955
11
216.3672949999999844
21
-91.2162659999999903
0
LINE
8
BLACK
6
CONTINUOUS
10
219.8911049999999818
20
-92.6448379999999929
11
219.8911049999999818
21
-90.6448379999999929
0
LINE
8
BLACK
6
CONTINUOUS
10
220.7482479999999896
20
-92.6448379999999929
11
220.7482479999999896
21
-91.5972189999999955
0
LINE
8
BLACK
6
CONTINUOUS
10
220.7482479999999896
20
-91.5972189999999955
11
220.6530099999999948
21
-91.4067419999999942
0
LINE
8
BLACK
6
CONTINUOUS
10
220.6530099999999948
20
-91.4067419999999942
11
220.4625339999999767
21
-91.3115039999999993
0
LINE
8
BLACK
6
CONTINUOUS
10
220.4625339999999767
20
-91.3115039999999993
11
220.1768189999999947
21
-91.3115039999999993
0
LINE
8
BLACK
6
CONTINUOUS
10
220.1768189999999947
20
-91.3115039999999993
11
219.9863429999999767
21
-91.4067419999999942
0
LINE
8
BLACK
6
CONTINUOUS
10
219.9863429999999767
20
-91.4067419999999942
11
219.8911049999999818
21
-91.501979999999989
0
LINE
8
BLACK
6
CONTINUOUS
10
221.9863429999999767
20
-92.6448379999999929
11
221.795866999999987
21
-92.5495999999999981
0
LINE
8
BLACK
6
CONTINUOUS
10
221.795866999999987
20
-92.5495999999999981
11
221.7006289999999922
21
-92.4543609999999916
0
LINE
8
BLACK
6
CONTINUOUS
10
221.7006289999999922
20
-92.4543609999999916
11
221.6053909999999973
21
-92.2638850000000019
0
LINE
8
BLACK
6
CONTINUOUS
10
221.6053909999999973
20
-92.2638850000000019
11
221.6053909999999973
21
-91.6924569999999903
0
LINE
8
BLACK
6
CONTINUOUS
10
221.6053909999999973
20
-91.6924569999999903
11
221.7006289999999922
21
-91.501979999999989
0
LINE
8
BLACK
6
CONTINUOUS
10
221.7006289999999922
20
-91.501979999999989
11
221.795866999999987
21
-91.4067419999999942
0
LINE
8
BLACK
6
CONTINUOUS
10
221.795866999999987
20
-91.4067419999999942
11
221.9863429999999767
21
-91.3115039999999993
0
LINE
8
BLACK
6
CONTINUOUS
10
221.9863429999999767
20
-91.3115039999999993
11
222.272057999999987
21
-91.3115039999999993
0
LINE
8
BLACK
6
CONTINUOUS
10
222.272057999999987
20
-91.3115039999999993
11
222.4625339999999767
21
-91.4067419999999942
0
LINE
8
BLACK
6
CONTINUOUS
10
222.4625339999999767
20
-91.4067419999999942
11
222.5577719999999999
21
-91.501979999999989
0
LINE
8
BLACK
6
CONTINUOUS
10
222.5577719999999999
20
-91.501979999999989
11
222.6530099999999948
21
-91.6924569999999903
0
LINE
8
BLACK
6
CONTINUOUS
10
222.6530099999999948
20
-91.6924569999999903
11
222.6530099999999948
21
-92.2638850000000019
0
LINE
8
BLACK
6
CONTINUOUS
10
222.6530099999999948
20
-92.2638850000000019
11
222.5577719999999999
21
-92.4543609999999916
0
LINE
8
BLACK
6
CONTINUOUS
10
222.5577719999999999
20
-92.4543609999999916
11
222.4625339999999767
21
-92.5495999999999981
0
LINE
8
BLACK
6
CONTINUOUS
10
222.4625339999999767
20
-92.5495999999999981
11
222.272057999999987
21
-92.6448379999999929
0
LINE
8
BLACK
6
CONTINUOUS
10
222.272057999999987
20
-92.6448379999999929
11
221.9863429999999767
21
-92.6448379999999929
0
LINE
8
BLACK
6
CONTINUOUS
10
223.795866999999987
20
-92.6448379999999929
11
223.6053909999999973
21
-92.5495999999999981
0
LINE
8
BLACK
6
CONTINUOUS
10
223.6053909999999973
20
-92.5495999999999981
11
223.5101530000000025
21
-92.3591229999999968
0
LINE
8
BLACK
6
CONTINUOUS
10
223.5101530000000025
20
-92.3591229999999968
11
223.5101530000000025
21
-90.6448379999999929
0
LINE
8
BLACK
6
CONTINUOUS
10
225.3196769999999844
20
-92.5495999999999981
11
225.1292009999999948
21
-92.6448379999999929
0
LINE
8
BLACK
6
CONTINUOUS
10
225.1292009999999948
20
-92.6448379999999929
11
224.7482479999999896
21
-92.6448379999999929
0
LINE
8
BLACK
6
CONTINUOUS
10
224.7482479999999896
20
-92.6448379999999929
11
224.5577719999999999
21
-92.5495999999999981
0
LINE
8
BLACK
6
CONTINUOUS
10
224.5577719999999999
20
-92.5495999999999981
11
224.4625339999999767
21
-92.3591229999999968
0
LINE
8
BLACK
6
CONTINUOUS
10
224.4625339999999767
20
-92.3591229999999968
11
224.4625339999999767
21
-91.5972189999999955
0
LINE
8
BLACK
6
CONTINUOUS
10
224.4625339999999767
20
-91.5972189999999955
11
224.5577719999999999
21
-91.4067419999999942
0
LINE
8
BLACK
6
CONTINUOUS
10
224.5577719999999999
20
-91.4067419999999942
11
224.7482479999999896
21
-91.3115039999999993
0
LINE
8
BLACK
6
CONTINUOUS
10
224.7482479999999896
20
-91.3115039999999993
11
225.1292009999999948
21
-91.3115039999999993
0
LINE
8
BLACK
6
CONTINUOUS
10
225.1292009999999948
20
-91.3115039999999993
11
225.3196769999999844
21
-91.4067419999999942
0
LINE
8
BLACK
6
CONTINUOUS
10
225.3196769999999844
20
-91.4067419999999942
11
225.4149149999999793
21
-91.5972189999999955
0
LINE
8
BLACK
6
CONTINUOUS
10
225.4149149999999793
20
-91.5972189999999955
11
225.4149149999999793
21
-91.7876949999999994
0
LINE
8
BLACK
6
CONTINUOUS
10
225.4149149999999793
20
-91.7876949999999994
11
224.4625339999999767
21
-91.978170999999989
0
LINE
8
BLACK
6
CONTINUOUS
10
226.0815819999999974
20
-93.4067419999999942
11
226.1768199999999922
21
-93.3115039999999993
0
LINE
8
BLACK
6
CONTINUOUS
10
226.1768199999999922
20
-93.3115039999999993
11
226.3672959999999819
21
-93.0257900000000006
0
LINE
8
BLACK
6
CONTINUOUS
10
226.3672959999999819
20
-93.0257900000000006
11
226.4625339999999767
21
-92.8353139999999968
0
LINE
8
BLACK
6
CONTINUOUS
10
226.4625339999999767
20
-92.8353139999999968
11
226.5577719999999999
21
-92.5495999999999981
0
LINE
8
BLACK
6
CONTINUOUS
10
226.5577719999999999
20
-92.5495999999999981
11
226.6530099999999948
21
-92.0734089999999981
0
LINE
8
BLACK
6
CONTINUOUS
10
226.6530099999999948
20
-92.0734089999999981
11
226.6530099999999948
21
-91.6924569999999903
0
LINE
8
BLACK
6
CONTINUOUS
10
226.6530099999999948
20
-91.6924569999999903
11
226.5577719999999999
21
-91.2162659999999903
0
LINE
8
BLACK
6
CONTINUOUS
10
226.5577719999999999
20
-91.2162659999999903
11
226.4625339999999767
21
-90.9305519999999916
0
LINE
8
BLACK
6
CONTINUOUS
10
226.4625339999999767
20
-90.9305519999999916
11
226.3672959999999819
21
-90.740076000000002
0
LINE
8
BLACK
6
CONTINUOUS
10
226.3672959999999819
20
-90.740076000000002
11
226.1768199999999922
21
-90.4543609999999916
0
LINE
8
BLACK
6
CONTINUOUS
10
226.1768199999999922
20
-90.4543609999999916
11
226.0815819999999974
21
-90.3591229999999968
  0
ENDSEC
  0
EOF
