%TF.GenerationSoftware,KiCad,Pcbnew,8.0.0*%
%TF.CreationDate,2024-03-06T16:17:17+03:00*%
%TF.ProjectId,micro17,6d696372-6f31-4372-9e6b-696361645f70,rev?*%
%TF.SameCoordinates,Original*%
%TF.FileFunction,Soldermask,Bot*%
%TF.FilePolarity,Negative*%
%FSLAX46Y46*%
G04 Gerber Fmt 4.6, Leading zero omitted, Abs format (unit mm)*
G04 Created by KiCad (PCBNEW 8.0.0) date 2024-03-06 16:17:17*
%MOMM*%
%LPD*%
G01*
G04 APERTURE LIST*
G04 Aperture macros list*
%AMRoundRect*
0 Rectangle with rounded corners*
0 $1 Rounding radius*
0 $2 $3 $4 $5 $6 $7 $8 $9 X,Y pos of 4 corners*
0 Add a 4 corners polygon primitive as box body*
4,1,4,$2,$3,$4,$5,$6,$7,$8,$9,$2,$3,0*
0 Add four circle primitives for the rounded corners*
1,1,$1+$1,$2,$3*
1,1,$1+$1,$4,$5*
1,1,$1+$1,$6,$7*
1,1,$1+$1,$8,$9*
0 Add four rect primitives between the rounded corners*
20,1,$1+$1,$2,$3,$4,$5,0*
20,1,$1+$1,$4,$5,$6,$7,0*
20,1,$1+$1,$6,$7,$8,$9,0*
20,1,$1+$1,$8,$9,$2,$3,0*%
G04 Aperture macros list end*
%ADD10RoundRect,0.135000X0.185000X-0.135000X0.185000X0.135000X-0.185000X0.135000X-0.185000X-0.135000X0*%
%ADD11RoundRect,0.150000X-0.350000X-0.150000X0.350000X-0.150000X0.350000X0.150000X-0.350000X0.150000X0*%
%ADD12C,1.000000*%
%ADD13RoundRect,0.137500X-0.137500X0.587500X-0.137500X-0.587500X0.137500X-0.587500X0.137500X0.587500X0*%
%ADD14R,0.450000X1.380000*%
%ADD15R,1.650000X1.300000*%
%ADD16R,1.425000X1.550000*%
%ADD17R,1.800000X1.900000*%
%ADD18R,1.000000X1.900000*%
%ADD19R,0.750000X2.300000*%
%ADD20R,0.250000X2.300000*%
%ADD21RoundRect,0.135000X0.135000X0.185000X-0.135000X0.185000X-0.135000X-0.185000X0.135000X-0.185000X0*%
G04 APERTURE END LIST*
D10*
%TO.C,R30*%
X198300000Y-63510000D03*
X198300000Y-62490000D03*
%TD*%
D11*
%TO.C,D1*%
X194820000Y-67800000D03*
X196920000Y-67800000D03*
%TD*%
D12*
%TO.C,TP10*%
X181750000Y-66250000D03*
%TD*%
%TO.C,TP4*%
X193000000Y-70500000D03*
%TD*%
%TO.C,TP13*%
X196300000Y-65600000D03*
%TD*%
%TO.C,TP6*%
X193000000Y-65250000D03*
%TD*%
D13*
%TO.C,U3*%
X188330000Y-65150000D03*
X190870000Y-65150000D03*
X190870000Y-70650000D03*
X188330000Y-70650000D03*
%TD*%
D12*
%TO.C,TP11*%
X188400000Y-56100000D03*
%TD*%
D14*
%TO.C,J4*%
X193200000Y-53960000D03*
X193850000Y-53960000D03*
X194500000Y-53960000D03*
X195150000Y-53960000D03*
X195800000Y-53960000D03*
D15*
X191125000Y-51300000D03*
D16*
X192012500Y-53875000D03*
D17*
X193350000Y-51300000D03*
D18*
X196050000Y-51300000D03*
D16*
X196987500Y-53875000D03*
D15*
X197875000Y-51300000D03*
%TD*%
D12*
%TO.C,TP5*%
X184000000Y-66250000D03*
%TD*%
%TO.C,TP8*%
X198900000Y-70500000D03*
%TD*%
%TO.C,TP9*%
X181250000Y-77250000D03*
%TD*%
%TO.C,TP7*%
X186250000Y-65250000D03*
%TD*%
%TO.C,TP3*%
X193000000Y-68450000D03*
%TD*%
D19*
%TO.C,J2*%
X186200000Y-73850000D03*
X186200000Y-77150000D03*
D20*
X186950000Y-73850000D03*
X186950000Y-77150000D03*
X187450000Y-73850000D03*
X187450000Y-77150000D03*
X187950000Y-73850000D03*
X187950000Y-77150000D03*
X188450000Y-73850000D03*
X188450000Y-77150000D03*
X188950000Y-73850000D03*
X188950000Y-77150000D03*
X189450000Y-73850000D03*
X189450000Y-77150000D03*
X189950000Y-73850000D03*
X189950000Y-77150000D03*
X190450000Y-73850000D03*
X190450000Y-77150000D03*
X190950000Y-73850000D03*
X190950000Y-77150000D03*
X191450000Y-73850000D03*
X191450000Y-77150000D03*
X191950000Y-73850000D03*
X191950000Y-77150000D03*
X192450000Y-73850000D03*
X192450000Y-77150000D03*
X192950000Y-73850000D03*
X192950000Y-77150000D03*
X193450000Y-73850000D03*
X193450000Y-77150000D03*
X193950000Y-73850000D03*
X193950000Y-77150000D03*
X194450000Y-73850000D03*
X194450000Y-77150000D03*
X194950000Y-73850000D03*
X194950000Y-77150000D03*
X195450000Y-73850000D03*
X195450000Y-77150000D03*
D19*
X196200000Y-73850000D03*
X196200000Y-77150000D03*
%TD*%
D21*
%TO.C,R25*%
X189410000Y-63400000D03*
X188390000Y-63400000D03*
%TD*%
M02*
