%TF.GenerationSoftware,KiCad,Pcbnew,8.0.0*%
%TF.CreationDate,2024-03-02T14:54:34+03:00*%
%TF.ProjectId,micro17,6d696372-6f31-4372-9e6b-696361645f70,rev?*%
%TF.SameCoordinates,Original*%
%TF.FileFunction,Copper,L3,Inr*%
%TF.FilePolarity,Positive*%
%FSLAX46Y46*%
G04 Gerber Fmt 4.6, Leading zero omitted, Abs format (unit mm)*
G04 Created by KiCad (PCBNEW 8.0.0) date 2024-03-02 14:54:34*
%MOMM*%
%LPD*%
G01*
G04 APERTURE LIST*
%TA.AperFunction,ViaPad*%
%ADD10C,0.450000*%
%TD*%
%TA.AperFunction,ViaPad*%
%ADD11C,0.500000*%
%TD*%
%TA.AperFunction,ViaPad*%
%ADD12C,0.800000*%
%TD*%
%TA.AperFunction,Conductor*%
%ADD13C,0.300000*%
%TD*%
%TA.AperFunction,Conductor*%
%ADD14C,0.250000*%
%TD*%
G04 APERTURE END LIST*
D10*
%TO.N,GND*%
X199617360Y-58126173D03*
%TO.N,/MCU/SWCLK*%
X194256250Y-53343750D03*
%TO.N,/MCU/SWDIO*%
X196826250Y-53373750D03*
%TO.N,GND*%
X196250000Y-75750000D03*
X187250000Y-79750000D03*
X189750000Y-79750000D03*
X193250000Y-79500000D03*
X199500000Y-76250000D03*
X199500000Y-66250000D03*
X199750000Y-68000000D03*
X199750000Y-63250000D03*
X199500000Y-65250000D03*
X182400000Y-79720108D03*
X196200000Y-78800000D03*
%TO.N,BASEBAND_OUT*%
X184600000Y-73800000D03*
%TO.N,AUDIO_OUT_MUTE*%
X189079841Y-75520159D03*
%TO.N,+5V*%
X194300000Y-75550000D03*
%TO.N,AUDIO_IN*%
X199200000Y-75100000D03*
X190101511Y-75575826D03*
%TO.N,Net-(U5C-P2W)*%
X187500000Y-78725002D03*
%TO.N,AUDIO_OUT_FILT*%
X191800000Y-78800000D03*
%TO.N,BASEBAND_OUT_FILT*%
X191099724Y-75575719D03*
D11*
%TO.N,GND*%
X185000000Y-51000000D03*
X185000000Y-53000000D03*
X181000000Y-61000000D03*
X185200000Y-61000000D03*
X199400000Y-52072500D03*
X181000000Y-51000000D03*
D10*
X192000000Y-57500000D03*
X197300000Y-72000000D03*
D11*
X181000000Y-63000000D03*
D10*
X194000000Y-61500000D03*
D11*
X181000000Y-55000000D03*
D10*
X186500000Y-79300000D03*
D11*
X180750000Y-70000000D03*
D10*
X192000000Y-59500000D03*
D11*
X199100000Y-79100000D03*
D10*
X191000000Y-71900000D03*
D11*
X185000000Y-55000000D03*
D10*
X194000000Y-57300000D03*
D11*
X188600000Y-69400000D03*
X181000000Y-75000000D03*
X181000000Y-59000000D03*
D10*
X197800000Y-78400000D03*
D11*
X198750000Y-63250000D03*
X181000000Y-68500000D03*
D10*
X189100000Y-64500000D03*
X186100000Y-68400000D03*
X182960000Y-60300000D03*
X196000000Y-59500000D03*
X196000000Y-61500000D03*
D11*
X198280000Y-53600000D03*
D10*
X190300000Y-55300000D03*
X194400000Y-54800000D03*
X191507567Y-68206053D03*
D11*
X197800000Y-65900000D03*
D10*
X192000000Y-61500000D03*
X183960000Y-61000000D03*
X198800000Y-54600000D03*
X196000000Y-57500000D03*
D11*
X182000000Y-75250000D03*
X183000000Y-73000000D03*
X181000000Y-53000000D03*
X182300000Y-70300000D03*
X183000000Y-53000000D03*
X181000000Y-57000000D03*
X197100000Y-72900000D03*
D10*
X194800000Y-65900000D03*
D11*
X183000000Y-51000000D03*
X181000000Y-65000000D03*
X187000000Y-55000000D03*
D10*
%TO.N,+3V3*%
X191200000Y-55400000D03*
X198300000Y-57250000D03*
D11*
X182000000Y-56200000D03*
D10*
X187200000Y-63800000D03*
D11*
X197350000Y-64290000D03*
D10*
X183650000Y-68800000D03*
D12*
X188100000Y-53600000D03*
D10*
X183750000Y-74250000D03*
%TO.N,+5V*%
X198100000Y-66850000D03*
X189200000Y-67900000D03*
X191475000Y-69397760D03*
D11*
X182000000Y-60300000D03*
D10*
%TO.N,Net-(U4B-+)*%
X191000000Y-67800000D03*
X188301409Y-66976409D03*
%TO.N,/MCU/~{RST}*%
X190660000Y-53600000D03*
X189700000Y-59800000D03*
%TO.N,Net-(C16-Pad2)*%
X190200000Y-66000000D03*
X187800000Y-68400000D03*
%TO.N,Net-(U5A-P0A)*%
X180900000Y-76200000D03*
X191800000Y-70300000D03*
X193501316Y-66750000D03*
%TO.N,Net-(U5B-P1A)*%
X180900000Y-72800000D03*
X198100000Y-67900000D03*
%TO.N,Net-(U5C-P2W)*%
X198750000Y-76000000D03*
%TO.N,I2C_SDA*%
X192023768Y-54823768D03*
D11*
X183200000Y-70400000D03*
D10*
%TO.N,PTT_OUT*%
X191900000Y-64000000D03*
%TO.N,AUDIO_OUT_MUTE*%
X193900000Y-64200000D03*
%TO.N,BASEBAND_IN_FILT*%
X189000000Y-61400000D03*
X191100000Y-67000000D03*
%TO.N,BASEBAND_OUT*%
X190500000Y-63200000D03*
%TO.N,I2C_SCL*%
X195200000Y-55100000D03*
D11*
X184400000Y-70400000D03*
D10*
%TO.N,AUDIO_OUT_FILT*%
X181000000Y-78597151D03*
%TO.N,BASEBAND_IN*%
X188600000Y-78800000D03*
%TO.N,PTT_IN*%
X189300000Y-54200000D03*
D11*
%TO.N,MCU_TX*%
X198500000Y-59800000D03*
%TO.N,MCU_RX*%
X198800000Y-59000000D03*
D10*
%TO.N,BASEBAND_BYPASS*%
X192906587Y-64093413D03*
D11*
%TO.N,+5VD*%
X184000000Y-65037501D03*
%TD*%
D13*
%TO.N,Net-(U5C-P2W)*%
X188725002Y-77500000D02*
X187500000Y-78725002D01*
X195467539Y-77500000D02*
X188725002Y-77500000D01*
X198750000Y-76000000D02*
X196967539Y-76000000D01*
X196967539Y-76000000D02*
X195467539Y-77500000D01*
%TO.N,Net-(U5B-P1A)*%
X192250000Y-76200000D02*
X198100000Y-67900000D01*
X183950000Y-76200000D02*
X192250000Y-76200000D01*
X180900000Y-73150000D02*
X183950000Y-76200000D01*
X180900000Y-72800000D02*
X180900000Y-73150000D01*
D14*
%TO.N,AUDIO_OUT_MUTE*%
X193900000Y-64200000D02*
X194051316Y-64351316D01*
X194051316Y-69500000D02*
X189079841Y-75520159D01*
X194051316Y-64351316D02*
X194051316Y-69500000D01*
D13*
%TO.N,BASEBAND_OUT*%
X189202818Y-65075000D02*
X189425000Y-65075000D01*
X186800000Y-67477818D02*
X189202818Y-65075000D01*
X189425000Y-65075000D02*
X190500000Y-64000000D01*
X186800000Y-69250000D02*
X186800000Y-67477818D01*
X190500000Y-64000000D02*
X190500000Y-63200000D01*
X184600000Y-73800000D02*
X186800000Y-69250000D01*
%TO.N,Net-(U5A-P0A)*%
X193501316Y-66750000D02*
X191800000Y-70300000D01*
%TO.N,+3V3*%
X183800000Y-74200000D02*
X183800000Y-68950000D01*
X183750000Y-74250000D02*
X183800000Y-74200000D01*
X183800000Y-68950000D02*
X183650000Y-68800000D01*
%TO.N,Net-(C16-Pad2)*%
X190200000Y-66022182D02*
X190200000Y-66000000D01*
X187822182Y-68400000D02*
X190200000Y-66022182D01*
X187800000Y-68400000D02*
X187822182Y-68400000D01*
%TO.N,+3V3*%
X183650000Y-67350000D02*
X187200000Y-63800000D01*
X183650000Y-68800000D02*
X183650000Y-67350000D01*
%TO.N,I2C_SDA*%
X192023768Y-55476232D02*
X192023768Y-54823768D01*
X183000000Y-64500000D02*
X192023768Y-55476232D01*
X183200000Y-70400000D02*
X183000000Y-70200000D01*
X183000000Y-70200000D02*
X183000000Y-64500000D01*
%TO.N,I2C_SCL*%
X184400000Y-70400000D02*
X184400000Y-68100000D01*
X195200000Y-57300000D02*
X195200000Y-55100000D01*
X184400000Y-68100000D02*
X195200000Y-57300000D01*
%TD*%
%TA.AperFunction,Conductor*%
%TO.N,GND*%
G36*
X189944140Y-63299476D02*
G01*
X189991775Y-63347111D01*
X189995358Y-63354884D01*
X190041203Y-63465566D01*
X190049500Y-63507278D01*
X190049500Y-63768246D01*
X190028683Y-63832315D01*
X190017575Y-63845321D01*
X189270322Y-64592575D01*
X189210298Y-64623158D01*
X189193247Y-64624500D01*
X189143509Y-64624500D01*
X189053144Y-64648713D01*
X189028931Y-64655200D01*
X188926206Y-64714508D01*
X186439510Y-67201205D01*
X186380202Y-67303927D01*
X186374573Y-67324937D01*
X186349500Y-67418507D01*
X186349500Y-69121833D01*
X186338631Y-69169281D01*
X184457631Y-73059530D01*
X184411000Y-73108148D01*
X184344698Y-73120072D01*
X184284050Y-73090748D01*
X184252221Y-73031376D01*
X184250500Y-73012082D01*
X184250500Y-71059858D01*
X184271317Y-70995789D01*
X184325817Y-70956193D01*
X184373727Y-70951791D01*
X184391855Y-70954177D01*
X184399999Y-70955250D01*
X184400000Y-70955250D01*
X184400003Y-70955250D01*
X184543704Y-70936331D01*
X184543706Y-70936330D01*
X184543709Y-70936330D01*
X184677625Y-70880861D01*
X184792621Y-70792621D01*
X184880861Y-70677625D01*
X184936330Y-70543709D01*
X184938178Y-70529677D01*
X184955250Y-70400002D01*
X184955250Y-70399997D01*
X184936331Y-70256295D01*
X184936329Y-70256288D01*
X184897610Y-70162811D01*
X184880861Y-70122375D01*
X184873023Y-70112160D01*
X184850537Y-70048657D01*
X184850500Y-70045807D01*
X184850500Y-68331752D01*
X184871317Y-68267683D01*
X184882419Y-68254683D01*
X189817582Y-63319519D01*
X189877604Y-63288938D01*
X189944140Y-63299476D01*
G37*
%TD.AperFunction*%
%TA.AperFunction,Conductor*%
G36*
X198975829Y-50000002D02*
G01*
X198976531Y-50000006D01*
X198999418Y-50000146D01*
X199000525Y-50000159D01*
X199024479Y-50000599D01*
X199024500Y-50000600D01*
X199046812Y-50001147D01*
X199051434Y-50001359D01*
X199093355Y-50004191D01*
X199102646Y-50005222D01*
X199144141Y-50011636D01*
X199148714Y-50012444D01*
X199192022Y-50021059D01*
X199197191Y-50022219D01*
X199284397Y-50044063D01*
X199294633Y-50047168D01*
X199376725Y-50076542D01*
X199386585Y-50080626D01*
X199465425Y-50117914D01*
X199474850Y-50122953D01*
X199549641Y-50167781D01*
X199558535Y-50173723D01*
X199628569Y-50225663D01*
X199636825Y-50232439D01*
X199701453Y-50291014D01*
X199708985Y-50298546D01*
X199767558Y-50363171D01*
X199774336Y-50371430D01*
X199826276Y-50441463D01*
X199832217Y-50450355D01*
X199877050Y-50525154D01*
X199882086Y-50534575D01*
X199919370Y-50613407D01*
X199923463Y-50623289D01*
X199952830Y-50705365D01*
X199955936Y-50715602D01*
X199977777Y-50802798D01*
X199978949Y-50808017D01*
X199987549Y-50851252D01*
X199988363Y-50855863D01*
X199994776Y-50897343D01*
X199995808Y-50906648D01*
X199998639Y-50948543D01*
X199998854Y-50953226D01*
X199999388Y-50975054D01*
X199999403Y-50975715D01*
X199999838Y-50999361D01*
X199999854Y-51000697D01*
X199999998Y-51024166D01*
X200000000Y-51024835D01*
X200000000Y-78975164D01*
X199999998Y-78975833D01*
X199999854Y-78999302D01*
X199999838Y-79000638D01*
X199999403Y-79024284D01*
X199999388Y-79024945D01*
X199998854Y-79046773D01*
X199998639Y-79051456D01*
X199995808Y-79093351D01*
X199994776Y-79102656D01*
X199988363Y-79144136D01*
X199987549Y-79148747D01*
X199978949Y-79191982D01*
X199977777Y-79197201D01*
X199955936Y-79284397D01*
X199952830Y-79294634D01*
X199923463Y-79376710D01*
X199919370Y-79386593D01*
X199882089Y-79465417D01*
X199877046Y-79474850D01*
X199832218Y-79549641D01*
X199826276Y-79558535D01*
X199774336Y-79628569D01*
X199767550Y-79636838D01*
X199709001Y-79701437D01*
X199701442Y-79708995D01*
X199636838Y-79767550D01*
X199628569Y-79774336D01*
X199558535Y-79826276D01*
X199549641Y-79832218D01*
X199474850Y-79877046D01*
X199465417Y-79882089D01*
X199386593Y-79919370D01*
X199376710Y-79923463D01*
X199294634Y-79952830D01*
X199284397Y-79955936D01*
X199197201Y-79977777D01*
X199191982Y-79978949D01*
X199148747Y-79987549D01*
X199144136Y-79988363D01*
X199102656Y-79994776D01*
X199093351Y-79995808D01*
X199051456Y-79998639D01*
X199046773Y-79998854D01*
X199024945Y-79999388D01*
X199024284Y-79999403D01*
X199000638Y-79999838D01*
X198999302Y-79999854D01*
X198976596Y-79999993D01*
X198975831Y-79999998D01*
X198975165Y-80000000D01*
X181024835Y-80000000D01*
X181024168Y-79999998D01*
X181023385Y-79999993D01*
X181000697Y-79999854D01*
X180999361Y-79999838D01*
X180975715Y-79999403D01*
X180975054Y-79999388D01*
X180953226Y-79998854D01*
X180948543Y-79998639D01*
X180906648Y-79995808D01*
X180897343Y-79994776D01*
X180855863Y-79988363D01*
X180851252Y-79987549D01*
X180840735Y-79985457D01*
X180808007Y-79978946D01*
X180802798Y-79977777D01*
X180715602Y-79955936D01*
X180705365Y-79952830D01*
X180623289Y-79923463D01*
X180613411Y-79919372D01*
X180534582Y-79882089D01*
X180525149Y-79877047D01*
X180450361Y-79832221D01*
X180441468Y-79826278D01*
X180371431Y-79774336D01*
X180363171Y-79767558D01*
X180298546Y-79708985D01*
X180291014Y-79701453D01*
X180232439Y-79636825D01*
X180225663Y-79628569D01*
X180173723Y-79558535D01*
X180167781Y-79549641D01*
X180122953Y-79474850D01*
X180117914Y-79465425D01*
X180080626Y-79386585D01*
X180076541Y-79376721D01*
X180047168Y-79294630D01*
X180044062Y-79284393D01*
X180037707Y-79259023D01*
X180022219Y-79197191D01*
X180021059Y-79192022D01*
X180012444Y-79148714D01*
X180011636Y-79144136D01*
X180009016Y-79127186D01*
X180005222Y-79102646D01*
X180004191Y-79093355D01*
X180001359Y-79051434D01*
X180001147Y-79046812D01*
X180000600Y-79024487D01*
X180000159Y-79000525D01*
X180000146Y-78999418D01*
X180000002Y-78975828D01*
X180000000Y-78975164D01*
X180000000Y-78597153D01*
X180469965Y-78597153D01*
X180488024Y-78734329D01*
X180488026Y-78734336D01*
X180540974Y-78862165D01*
X180540976Y-78862169D01*
X180598538Y-78937185D01*
X180625209Y-78971942D01*
X180625213Y-78971945D01*
X180625214Y-78971946D01*
X180629408Y-78975164D01*
X180734982Y-79056175D01*
X180798899Y-79082650D01*
X180862814Y-79109124D01*
X180862821Y-79109126D01*
X180999997Y-79127186D01*
X181000000Y-79127186D01*
X181000003Y-79127186D01*
X181137178Y-79109126D01*
X181137180Y-79109125D01*
X181137183Y-79109125D01*
X181265018Y-79056175D01*
X181374791Y-78971942D01*
X181459024Y-78862169D01*
X181511974Y-78734334D01*
X181513203Y-78725004D01*
X186969965Y-78725004D01*
X186988024Y-78862180D01*
X186988026Y-78862187D01*
X187040974Y-78990016D01*
X187040976Y-78990020D01*
X187120265Y-79093351D01*
X187125209Y-79099793D01*
X187125213Y-79099796D01*
X187125214Y-79099797D01*
X187137372Y-79109126D01*
X187234982Y-79184026D01*
X187266766Y-79197191D01*
X187362814Y-79236975D01*
X187362821Y-79236977D01*
X187499997Y-79255037D01*
X187500000Y-79255037D01*
X187500003Y-79255037D01*
X187637178Y-79236977D01*
X187637180Y-79236976D01*
X187637183Y-79236976D01*
X187765018Y-79184026D01*
X187874791Y-79099793D01*
X187942087Y-79012092D01*
X187997601Y-78973939D01*
X188064944Y-78975702D01*
X188118389Y-79016712D01*
X188129262Y-79036738D01*
X188140974Y-79065014D01*
X188140976Y-79065018D01*
X188167655Y-79099787D01*
X188225209Y-79174791D01*
X188225213Y-79174794D01*
X188225214Y-79174795D01*
X188254401Y-79197191D01*
X188334982Y-79259024D01*
X188396229Y-79284393D01*
X188462814Y-79311973D01*
X188462821Y-79311975D01*
X188599997Y-79330035D01*
X188600000Y-79330035D01*
X188600003Y-79330035D01*
X188737178Y-79311975D01*
X188737180Y-79311974D01*
X188737183Y-79311974D01*
X188865018Y-79259024D01*
X188974791Y-79174791D01*
X189059024Y-79065018D01*
X189111974Y-78937183D01*
X189130035Y-78800002D01*
X191269965Y-78800002D01*
X191288024Y-78937178D01*
X191288026Y-78937185D01*
X191340974Y-79065014D01*
X191340976Y-79065018D01*
X191367655Y-79099787D01*
X191425209Y-79174791D01*
X191425213Y-79174794D01*
X191425214Y-79174795D01*
X191454401Y-79197191D01*
X191534982Y-79259024D01*
X191596229Y-79284393D01*
X191662814Y-79311973D01*
X191662821Y-79311975D01*
X191799997Y-79330035D01*
X191800000Y-79330035D01*
X191800003Y-79330035D01*
X191937178Y-79311975D01*
X191937180Y-79311974D01*
X191937183Y-79311974D01*
X192065018Y-79259024D01*
X192174791Y-79174791D01*
X192259024Y-79065018D01*
X192311974Y-78937183D01*
X192330035Y-78800000D01*
X192330035Y-78799997D01*
X192311975Y-78662821D01*
X192311973Y-78662814D01*
X192259023Y-78534981D01*
X192174795Y-78425214D01*
X192174794Y-78425213D01*
X192174791Y-78425209D01*
X192174786Y-78425205D01*
X192174785Y-78425204D01*
X192065018Y-78340976D01*
X192065014Y-78340974D01*
X191937185Y-78288026D01*
X191937178Y-78288024D01*
X191800003Y-78269965D01*
X191799997Y-78269965D01*
X191662821Y-78288024D01*
X191662814Y-78288026D01*
X191534981Y-78340976D01*
X191425214Y-78425204D01*
X191425204Y-78425214D01*
X191340976Y-78534981D01*
X191288026Y-78662814D01*
X191288024Y-78662821D01*
X191269965Y-78799997D01*
X191269965Y-78800002D01*
X189130035Y-78800002D01*
X189130035Y-78800000D01*
X189130035Y-78799997D01*
X189111975Y-78662821D01*
X189111973Y-78662814D01*
X189059023Y-78534981D01*
X188974795Y-78425214D01*
X188974794Y-78425213D01*
X188974791Y-78425209D01*
X188974786Y-78425205D01*
X188974785Y-78425204D01*
X188865018Y-78340976D01*
X188865016Y-78340975D01*
X188772563Y-78302680D01*
X188721338Y-78258929D01*
X188705612Y-78193425D01*
X188731392Y-78131187D01*
X188737202Y-78124902D01*
X188879681Y-77982425D01*
X188939704Y-77951842D01*
X188956755Y-77950500D01*
X195526847Y-77950500D01*
X195526848Y-77950500D01*
X195617212Y-77926286D01*
X195641426Y-77919799D01*
X195744153Y-77860489D01*
X197122217Y-76482425D01*
X197182241Y-76451842D01*
X197199292Y-76450500D01*
X198442722Y-76450500D01*
X198484434Y-76458797D01*
X198612814Y-76511973D01*
X198612821Y-76511975D01*
X198749997Y-76530035D01*
X198750000Y-76530035D01*
X198750003Y-76530035D01*
X198887178Y-76511975D01*
X198887180Y-76511974D01*
X198887183Y-76511974D01*
X199015018Y-76459024D01*
X199124791Y-76374791D01*
X199209024Y-76265018D01*
X199261974Y-76137183D01*
X199271765Y-76062821D01*
X199280035Y-76000002D01*
X199280035Y-75999997D01*
X199261975Y-75862821D01*
X199261974Y-75862817D01*
X199242175Y-75815018D01*
X199221693Y-75765570D01*
X199216409Y-75698416D01*
X199251607Y-75640977D01*
X199308167Y-75615794D01*
X199337183Y-75611974D01*
X199465018Y-75559024D01*
X199574791Y-75474791D01*
X199659024Y-75365018D01*
X199711974Y-75237183D01*
X199716733Y-75201040D01*
X199730035Y-75100002D01*
X199730035Y-75099997D01*
X199711975Y-74962821D01*
X199711973Y-74962814D01*
X199659023Y-74834981D01*
X199574795Y-74725214D01*
X199574794Y-74725213D01*
X199574791Y-74725209D01*
X199574786Y-74725205D01*
X199574785Y-74725204D01*
X199465018Y-74640976D01*
X199465014Y-74640974D01*
X199337185Y-74588026D01*
X199337178Y-74588024D01*
X199200003Y-74569965D01*
X199199997Y-74569965D01*
X199062821Y-74588024D01*
X199062814Y-74588026D01*
X198934981Y-74640976D01*
X198825214Y-74725204D01*
X198825204Y-74725214D01*
X198740976Y-74834981D01*
X198688026Y-74962814D01*
X198688024Y-74962821D01*
X198669965Y-75099997D01*
X198669965Y-75100002D01*
X198688024Y-75237178D01*
X198688026Y-75237185D01*
X198728304Y-75334426D01*
X198733589Y-75401585D01*
X198698390Y-75459023D01*
X198641831Y-75484205D01*
X198612821Y-75488025D01*
X198612814Y-75488026D01*
X198484435Y-75541203D01*
X198442723Y-75549500D01*
X196908226Y-75549500D01*
X196793656Y-75580199D01*
X196793653Y-75580201D01*
X196750235Y-75605268D01*
X196750233Y-75605268D01*
X196690926Y-75639510D01*
X195312861Y-77017575D01*
X195252837Y-77048158D01*
X195235786Y-77049500D01*
X188665689Y-77049500D01*
X188551119Y-77080199D01*
X188551116Y-77080201D01*
X188507698Y-77105268D01*
X188507696Y-77105268D01*
X188448389Y-77139510D01*
X187398723Y-78189174D01*
X187363361Y-78212802D01*
X187234980Y-78265979D01*
X187125214Y-78350206D01*
X187125204Y-78350216D01*
X187040976Y-78459983D01*
X186988026Y-78587816D01*
X186988024Y-78587823D01*
X186969965Y-78724999D01*
X186969965Y-78725004D01*
X181513203Y-78725004D01*
X181530035Y-78597153D01*
X181530035Y-78597148D01*
X181511975Y-78459972D01*
X181511973Y-78459965D01*
X181466512Y-78350211D01*
X181459024Y-78332134D01*
X181459023Y-78332133D01*
X181459023Y-78332132D01*
X181374795Y-78222365D01*
X181374794Y-78222364D01*
X181374791Y-78222360D01*
X181374786Y-78222356D01*
X181374785Y-78222355D01*
X181265018Y-78138127D01*
X181265014Y-78138125D01*
X181137185Y-78085177D01*
X181137178Y-78085175D01*
X181000003Y-78067116D01*
X180999997Y-78067116D01*
X180862821Y-78085175D01*
X180862814Y-78085177D01*
X180734981Y-78138127D01*
X180625214Y-78222355D01*
X180625204Y-78222365D01*
X180540976Y-78332132D01*
X180488026Y-78459965D01*
X180488024Y-78459972D01*
X180469965Y-78597148D01*
X180469965Y-78597153D01*
X180000000Y-78597153D01*
X180000000Y-76200002D01*
X180369965Y-76200002D01*
X180388024Y-76337178D01*
X180388026Y-76337185D01*
X180440974Y-76465014D01*
X180440976Y-76465018D01*
X180518537Y-76566097D01*
X180525209Y-76574791D01*
X180525213Y-76574794D01*
X180525214Y-76574795D01*
X180551191Y-76594728D01*
X180634982Y-76659024D01*
X180698899Y-76685499D01*
X180762814Y-76711973D01*
X180762821Y-76711975D01*
X180899997Y-76730035D01*
X180900000Y-76730035D01*
X180900003Y-76730035D01*
X181037178Y-76711975D01*
X181037180Y-76711974D01*
X181037183Y-76711974D01*
X181165018Y-76659024D01*
X181274791Y-76574791D01*
X181359024Y-76465018D01*
X181411974Y-76337183D01*
X181430035Y-76200000D01*
X181421765Y-76137183D01*
X181411975Y-76062821D01*
X181411973Y-76062814D01*
X181359023Y-75934981D01*
X181274795Y-75825214D01*
X181274794Y-75825213D01*
X181274791Y-75825209D01*
X181274786Y-75825205D01*
X181274785Y-75825204D01*
X181165018Y-75740976D01*
X181165014Y-75740974D01*
X181037185Y-75688026D01*
X181037178Y-75688024D01*
X180900003Y-75669965D01*
X180899997Y-75669965D01*
X180762821Y-75688024D01*
X180762814Y-75688026D01*
X180634981Y-75740976D01*
X180525214Y-75825204D01*
X180525204Y-75825214D01*
X180440976Y-75934981D01*
X180388026Y-76062814D01*
X180388024Y-76062821D01*
X180369965Y-76199997D01*
X180369965Y-76200002D01*
X180000000Y-76200002D01*
X180000000Y-72800002D01*
X180369965Y-72800002D01*
X180388024Y-72937178D01*
X180388026Y-72937185D01*
X180441203Y-73065566D01*
X180449500Y-73107278D01*
X180449500Y-73209310D01*
X180465753Y-73269965D01*
X180465753Y-73269966D01*
X180480201Y-73323887D01*
X180480200Y-73323887D01*
X180527495Y-73405802D01*
X180539511Y-73426614D01*
X183673386Y-76560489D01*
X183732696Y-76594731D01*
X183754405Y-76607265D01*
X183776113Y-76619799D01*
X183890687Y-76650499D01*
X183890691Y-76650500D01*
X192224719Y-76650500D01*
X192234555Y-76650945D01*
X192268417Y-76654013D01*
X192268417Y-76654012D01*
X192268418Y-76654013D01*
X192275539Y-76652779D01*
X192279479Y-76652098D01*
X192298075Y-76650500D01*
X192309308Y-76650500D01*
X192309309Y-76650500D01*
X192342190Y-76641688D01*
X192351771Y-76639580D01*
X192385298Y-76633776D01*
X192395490Y-76629061D01*
X192413030Y-76622707D01*
X192423886Y-76619799D01*
X192453366Y-76602776D01*
X192462062Y-76598267D01*
X192492958Y-76583978D01*
X192501583Y-76576784D01*
X192516888Y-76566102D01*
X192526613Y-76560489D01*
X192550671Y-76536430D01*
X192557917Y-76529810D01*
X192584060Y-76508012D01*
X192590529Y-76498832D01*
X192602549Y-76484552D01*
X192610489Y-76476613D01*
X192627509Y-76447131D01*
X192632787Y-76438876D01*
X193259282Y-75550002D01*
X193769965Y-75550002D01*
X193788024Y-75687178D01*
X193788026Y-75687185D01*
X193840974Y-75815014D01*
X193840976Y-75815018D01*
X193925209Y-75924791D01*
X194034982Y-76009024D01*
X194098899Y-76035499D01*
X194162814Y-76061973D01*
X194162821Y-76061975D01*
X194299997Y-76080035D01*
X194300000Y-76080035D01*
X194300003Y-76080035D01*
X194437178Y-76061975D01*
X194437180Y-76061974D01*
X194437183Y-76061974D01*
X194565018Y-76009024D01*
X194674791Y-75924791D01*
X194759024Y-75815018D01*
X194811974Y-75687183D01*
X194818058Y-75640977D01*
X194830035Y-75550002D01*
X194830035Y-75549997D01*
X194811975Y-75412821D01*
X194811973Y-75412814D01*
X194759023Y-75284981D01*
X194674795Y-75175214D01*
X194674794Y-75175213D01*
X194674791Y-75175209D01*
X194674786Y-75175205D01*
X194674785Y-75175204D01*
X194565018Y-75090976D01*
X194565014Y-75090974D01*
X194437185Y-75038026D01*
X194437178Y-75038024D01*
X194300003Y-75019965D01*
X194299997Y-75019965D01*
X194162821Y-75038024D01*
X194162814Y-75038026D01*
X194034981Y-75090976D01*
X193925214Y-75175204D01*
X193925204Y-75175214D01*
X193840976Y-75284981D01*
X193788026Y-75412814D01*
X193788024Y-75412821D01*
X193769965Y-75549997D01*
X193769965Y-75550002D01*
X193259282Y-75550002D01*
X198294007Y-68406717D01*
X198341391Y-68368810D01*
X198365016Y-68359025D01*
X198365016Y-68359024D01*
X198365018Y-68359024D01*
X198474791Y-68274791D01*
X198559024Y-68165018D01*
X198611974Y-68037183D01*
X198613551Y-68025209D01*
X198630035Y-67900002D01*
X198630035Y-67899997D01*
X198611975Y-67762821D01*
X198611973Y-67762814D01*
X198559023Y-67634981D01*
X198474795Y-67525214D01*
X198474794Y-67525213D01*
X198474791Y-67525209D01*
X198474786Y-67525205D01*
X198474785Y-67525204D01*
X198391732Y-67461475D01*
X198353576Y-67405957D01*
X198355339Y-67338615D01*
X198391732Y-67288525D01*
X198474791Y-67224791D01*
X198559024Y-67115018D01*
X198611974Y-66987183D01*
X198630035Y-66850000D01*
X198627283Y-66829094D01*
X198611975Y-66712821D01*
X198611973Y-66712814D01*
X198565914Y-66601618D01*
X198559024Y-66584983D01*
X198559023Y-66584982D01*
X198559023Y-66584981D01*
X198474795Y-66475214D01*
X198474794Y-66475213D01*
X198474791Y-66475209D01*
X198474786Y-66475205D01*
X198474785Y-66475204D01*
X198365018Y-66390976D01*
X198365014Y-66390974D01*
X198237185Y-66338026D01*
X198237178Y-66338024D01*
X198100003Y-66319965D01*
X198099997Y-66319965D01*
X197962821Y-66338024D01*
X197962814Y-66338026D01*
X197834981Y-66390976D01*
X197725214Y-66475204D01*
X197725204Y-66475214D01*
X197640976Y-66584981D01*
X197588026Y-66712814D01*
X197588024Y-66712821D01*
X197569965Y-66849997D01*
X197569965Y-66850002D01*
X197588024Y-66987178D01*
X197588026Y-66987185D01*
X197640974Y-67115014D01*
X197640976Y-67115018D01*
X197707110Y-67201205D01*
X197725209Y-67224791D01*
X197808267Y-67288525D01*
X197846423Y-67344041D01*
X197844660Y-67411384D01*
X197808268Y-67461474D01*
X197725211Y-67525207D01*
X197725204Y-67525214D01*
X197640976Y-67634981D01*
X197588026Y-67762814D01*
X197588024Y-67762821D01*
X197578319Y-67836534D01*
X197559346Y-67885100D01*
X192048934Y-75703295D01*
X191995009Y-75743671D01*
X191959840Y-75749500D01*
X191731171Y-75749500D01*
X191667102Y-75728683D01*
X191627506Y-75674183D01*
X191623103Y-75626273D01*
X191624050Y-75619082D01*
X191629759Y-75575719D01*
X191616471Y-75474791D01*
X191611699Y-75438540D01*
X191611697Y-75438533D01*
X191558747Y-75310700D01*
X191474519Y-75200933D01*
X191474518Y-75200932D01*
X191474515Y-75200928D01*
X191474510Y-75200924D01*
X191474509Y-75200923D01*
X191364742Y-75116695D01*
X191364738Y-75116693D01*
X191236909Y-75063745D01*
X191236902Y-75063743D01*
X191099727Y-75045684D01*
X191099721Y-75045684D01*
X190962545Y-75063743D01*
X190962538Y-75063745D01*
X190834705Y-75116695D01*
X190724938Y-75200923D01*
X190724931Y-75200930D01*
X190687051Y-75250296D01*
X190631532Y-75288452D01*
X190564190Y-75286687D01*
X190514101Y-75250295D01*
X190476306Y-75201040D01*
X190476305Y-75201039D01*
X190476302Y-75201035D01*
X190476297Y-75201031D01*
X190476296Y-75201030D01*
X190366529Y-75116802D01*
X190366525Y-75116800D01*
X190238696Y-75063852D01*
X190238691Y-75063851D01*
X190226220Y-75062209D01*
X190165418Y-75033205D01*
X190133276Y-74974001D01*
X190142072Y-74907212D01*
X190156401Y-74884742D01*
X194363217Y-69790540D01*
X194370159Y-69782903D01*
X194391801Y-69761263D01*
X194397482Y-69751420D01*
X194407839Y-69736507D01*
X194408994Y-69735107D01*
X194415076Y-69727744D01*
X194427783Y-69699925D01*
X194432530Y-69690717D01*
X194447819Y-69664237D01*
X194450762Y-69653250D01*
X194456898Y-69636184D01*
X194461626Y-69625836D01*
X194466703Y-69595650D01*
X194468899Y-69585560D01*
X194476816Y-69556018D01*
X194476816Y-69544648D01*
X194478327Y-69526561D01*
X194480213Y-69515351D01*
X194477309Y-69484916D01*
X194476816Y-69474562D01*
X194476816Y-64295298D01*
X194476815Y-64295294D01*
X194475397Y-64290002D01*
X196794750Y-64290002D01*
X196813668Y-64433704D01*
X196813670Y-64433711D01*
X196869139Y-64567626D01*
X196951365Y-64674784D01*
X196957379Y-64682621D01*
X196957383Y-64682624D01*
X196957384Y-64682625D01*
X197072373Y-64770860D01*
X197206288Y-64826329D01*
X197206295Y-64826331D01*
X197349997Y-64845250D01*
X197350000Y-64845250D01*
X197350003Y-64845250D01*
X197493704Y-64826331D01*
X197493706Y-64826330D01*
X197493709Y-64826330D01*
X197627625Y-64770861D01*
X197742621Y-64682621D01*
X197830861Y-64567625D01*
X197886330Y-64433709D01*
X197894087Y-64374795D01*
X197905250Y-64290002D01*
X197905250Y-64289997D01*
X197886331Y-64146295D01*
X197886329Y-64146288D01*
X197830860Y-64012373D01*
X197742625Y-63897384D01*
X197742624Y-63897383D01*
X197742621Y-63897379D01*
X197742616Y-63897375D01*
X197742615Y-63897374D01*
X197627626Y-63809139D01*
X197493711Y-63753670D01*
X197493704Y-63753668D01*
X197350003Y-63734750D01*
X197349997Y-63734750D01*
X197206295Y-63753668D01*
X197206288Y-63753670D01*
X197072373Y-63809139D01*
X196957384Y-63897374D01*
X196957374Y-63897384D01*
X196869139Y-64012373D01*
X196813670Y-64146288D01*
X196813668Y-64146295D01*
X196794750Y-64289997D01*
X196794750Y-64290002D01*
X194475397Y-64290002D01*
X194475396Y-64289998D01*
X194475394Y-64289992D01*
X194457547Y-64223386D01*
X194447819Y-64187079D01*
X194447818Y-64187078D01*
X194447819Y-64187078D01*
X194433418Y-64162136D01*
X194419748Y-64121868D01*
X194411974Y-64062817D01*
X194410521Y-64059310D01*
X194376145Y-63976318D01*
X194359024Y-63934983D01*
X194359023Y-63934982D01*
X194359023Y-63934981D01*
X194274795Y-63825214D01*
X194274794Y-63825213D01*
X194274791Y-63825209D01*
X194274786Y-63825205D01*
X194274785Y-63825204D01*
X194165018Y-63740976D01*
X194165014Y-63740974D01*
X194037185Y-63688026D01*
X194037178Y-63688024D01*
X193900003Y-63669965D01*
X193899997Y-63669965D01*
X193762821Y-63688024D01*
X193762814Y-63688026D01*
X193634981Y-63740976D01*
X193525207Y-63825209D01*
X193521402Y-63829015D01*
X193461377Y-63859595D01*
X193394842Y-63849053D01*
X193357857Y-63818291D01*
X193350834Y-63809139D01*
X193281378Y-63718622D01*
X193281373Y-63718618D01*
X193281372Y-63718617D01*
X193171605Y-63634389D01*
X193171601Y-63634387D01*
X193043772Y-63581439D01*
X193043765Y-63581437D01*
X192906590Y-63563378D01*
X192906584Y-63563378D01*
X192769408Y-63581437D01*
X192769401Y-63581439D01*
X192641568Y-63634389D01*
X192531801Y-63718617D01*
X192531791Y-63718627D01*
X192525606Y-63726688D01*
X192470087Y-63764843D01*
X192402744Y-63763077D01*
X192352658Y-63726686D01*
X192281835Y-63634389D01*
X192274791Y-63625209D01*
X192274786Y-63625205D01*
X192274785Y-63625204D01*
X192165018Y-63540976D01*
X192165014Y-63540974D01*
X192037185Y-63488026D01*
X192037178Y-63488024D01*
X191900003Y-63469965D01*
X191899997Y-63469965D01*
X191762821Y-63488024D01*
X191762814Y-63488026D01*
X191634981Y-63540976D01*
X191525214Y-63625204D01*
X191525204Y-63625214D01*
X191440976Y-63734981D01*
X191388026Y-63862814D01*
X191388024Y-63862821D01*
X191369965Y-63999997D01*
X191369965Y-64000002D01*
X191388024Y-64137178D01*
X191388026Y-64137185D01*
X191440974Y-64265014D01*
X191440976Y-64265018D01*
X191489742Y-64328571D01*
X191525209Y-64374791D01*
X191634982Y-64459024D01*
X191686563Y-64480389D01*
X191762814Y-64511973D01*
X191762821Y-64511975D01*
X191899997Y-64530035D01*
X191900000Y-64530035D01*
X191900003Y-64530035D01*
X192037178Y-64511975D01*
X192037180Y-64511974D01*
X192037183Y-64511974D01*
X192165018Y-64459024D01*
X192274791Y-64374791D01*
X192280979Y-64366727D01*
X192336497Y-64328571D01*
X192403839Y-64330334D01*
X192453929Y-64366727D01*
X192528881Y-64464406D01*
X192531796Y-64468204D01*
X192531799Y-64468206D01*
X192531801Y-64468208D01*
X192550102Y-64482251D01*
X192641569Y-64552437D01*
X192678237Y-64567625D01*
X192769401Y-64605386D01*
X192769408Y-64605388D01*
X192906584Y-64623448D01*
X192906587Y-64623448D01*
X192906590Y-64623448D01*
X193043765Y-64605388D01*
X193043767Y-64605387D01*
X193043770Y-64605387D01*
X193171605Y-64552437D01*
X193281378Y-64468204D01*
X193281384Y-64468195D01*
X193285175Y-64464406D01*
X193345197Y-64433819D01*
X193411733Y-64444353D01*
X193448727Y-64475119D01*
X193525209Y-64574791D01*
X193583172Y-64619268D01*
X193621327Y-64674784D01*
X193625816Y-64705742D01*
X193625816Y-66112065D01*
X193604999Y-66176134D01*
X193550499Y-66215730D01*
X193508460Y-66219593D01*
X193508460Y-66219965D01*
X193504418Y-66219965D01*
X193502591Y-66220132D01*
X193501316Y-66219965D01*
X193501314Y-66219965D01*
X193501313Y-66219965D01*
X193364137Y-66238024D01*
X193364130Y-66238026D01*
X193236297Y-66290976D01*
X193126530Y-66375204D01*
X193126520Y-66375214D01*
X193042292Y-66484981D01*
X192989342Y-66612814D01*
X192989340Y-66612821D01*
X192971281Y-66749997D01*
X192971281Y-66749999D01*
X192973619Y-66767762D01*
X192963846Y-66829094D01*
X191953663Y-68936963D01*
X191907201Y-68985743D01*
X191840941Y-68997897D01*
X191789013Y-68976332D01*
X191740018Y-68938736D01*
X191740013Y-68938734D01*
X191740014Y-68938734D01*
X191612185Y-68885786D01*
X191612178Y-68885784D01*
X191475003Y-68867725D01*
X191474997Y-68867725D01*
X191337821Y-68885784D01*
X191337814Y-68885786D01*
X191209981Y-68938736D01*
X191100214Y-69022964D01*
X191100204Y-69022974D01*
X191015976Y-69132741D01*
X190963026Y-69260574D01*
X190963024Y-69260581D01*
X190944965Y-69397757D01*
X190944965Y-69397762D01*
X190963024Y-69534938D01*
X190963026Y-69534945D01*
X191015974Y-69662774D01*
X191015976Y-69662778D01*
X191077941Y-69743532D01*
X191100209Y-69772551D01*
X191209982Y-69856784D01*
X191209987Y-69856786D01*
X191284090Y-69887480D01*
X191335316Y-69931229D01*
X191351043Y-69996734D01*
X191343082Y-70029894D01*
X191288027Y-70162811D01*
X191288024Y-70162821D01*
X191269965Y-70299997D01*
X191269965Y-70300002D01*
X191288024Y-70437178D01*
X191288026Y-70437185D01*
X191340974Y-70565014D01*
X191340976Y-70565018D01*
X191425209Y-70674791D01*
X191425213Y-70674794D01*
X191425214Y-70674795D01*
X191470484Y-70709532D01*
X191534982Y-70759024D01*
X191598899Y-70785499D01*
X191662814Y-70811973D01*
X191662821Y-70811975D01*
X191799997Y-70830035D01*
X191800000Y-70830035D01*
X191800003Y-70830035D01*
X191937178Y-70811975D01*
X191937180Y-70811974D01*
X191937183Y-70811974D01*
X192065018Y-70759024D01*
X192174791Y-70674791D01*
X192259024Y-70565018D01*
X192311974Y-70437183D01*
X192316870Y-70400000D01*
X192330035Y-70300002D01*
X192330035Y-70300001D01*
X192330035Y-70300000D01*
X192327696Y-70282238D01*
X192337467Y-70220905D01*
X193418521Y-67965157D01*
X193464983Y-67916378D01*
X193531243Y-67904224D01*
X193591993Y-67933338D01*
X193624027Y-67992599D01*
X193625816Y-68012265D01*
X193625816Y-69307830D01*
X193604999Y-69371899D01*
X193600862Y-69377236D01*
X188972305Y-74982142D01*
X188929972Y-75013439D01*
X188814821Y-75061136D01*
X188705055Y-75145363D01*
X188705045Y-75145373D01*
X188620817Y-75255140D01*
X188567867Y-75382973D01*
X188567865Y-75382980D01*
X188549806Y-75520156D01*
X188549806Y-75520161D01*
X188563776Y-75626272D01*
X188551500Y-75692510D01*
X188502635Y-75738882D01*
X188455709Y-75749500D01*
X184181753Y-75749500D01*
X184117684Y-75728683D01*
X184104678Y-75717575D01*
X181437790Y-73050687D01*
X181407207Y-72990663D01*
X181412647Y-72944758D01*
X181410125Y-72944083D01*
X181411975Y-72937178D01*
X181430035Y-72800002D01*
X181430035Y-72799997D01*
X181411975Y-72662821D01*
X181411973Y-72662814D01*
X181359023Y-72534981D01*
X181274795Y-72425214D01*
X181274794Y-72425213D01*
X181274791Y-72425209D01*
X181274786Y-72425205D01*
X181274785Y-72425204D01*
X181165018Y-72340976D01*
X181165014Y-72340974D01*
X181037185Y-72288026D01*
X181037178Y-72288024D01*
X180900003Y-72269965D01*
X180899997Y-72269965D01*
X180762821Y-72288024D01*
X180762814Y-72288026D01*
X180634981Y-72340976D01*
X180525214Y-72425204D01*
X180525204Y-72425214D01*
X180440976Y-72534981D01*
X180388026Y-72662814D01*
X180388024Y-72662821D01*
X180369965Y-72799997D01*
X180369965Y-72800002D01*
X180000000Y-72800002D01*
X180000000Y-70259309D01*
X182549500Y-70259309D01*
X182571306Y-70340691D01*
X182580201Y-70373887D01*
X182639511Y-70476614D01*
X182639514Y-70476617D01*
X182640232Y-70477553D01*
X182640684Y-70478646D01*
X182643083Y-70482800D01*
X182642536Y-70483115D01*
X182661822Y-70529677D01*
X182663668Y-70543704D01*
X182663670Y-70543711D01*
X182719139Y-70677626D01*
X182807374Y-70792615D01*
X182807379Y-70792621D01*
X182807383Y-70792624D01*
X182807384Y-70792625D01*
X182922373Y-70880860D01*
X183056288Y-70936329D01*
X183056295Y-70936331D01*
X183199997Y-70955250D01*
X183200000Y-70955250D01*
X183200001Y-70955250D01*
X183208144Y-70954177D01*
X183226271Y-70951791D01*
X183292509Y-70964066D01*
X183338881Y-71012931D01*
X183349500Y-71059858D01*
X183349500Y-73871711D01*
X183328683Y-73935780D01*
X183326976Y-73938065D01*
X183290976Y-73984981D01*
X183238026Y-74112814D01*
X183238024Y-74112821D01*
X183219965Y-74249997D01*
X183219965Y-74250002D01*
X183238024Y-74387178D01*
X183238026Y-74387185D01*
X183290974Y-74515014D01*
X183290976Y-74515018D01*
X183375209Y-74624791D01*
X183484982Y-74709024D01*
X183524045Y-74725204D01*
X183612814Y-74761973D01*
X183612821Y-74761975D01*
X183749997Y-74780035D01*
X183750000Y-74780035D01*
X183750003Y-74780035D01*
X183887178Y-74761975D01*
X183887180Y-74761974D01*
X183887183Y-74761974D01*
X184015018Y-74709024D01*
X184124791Y-74624791D01*
X184209024Y-74515018D01*
X184261974Y-74387183D01*
X184263207Y-74377812D01*
X184292206Y-74317009D01*
X184351407Y-74284863D01*
X184412987Y-74291334D01*
X184462814Y-74311973D01*
X184462821Y-74311975D01*
X184599997Y-74330035D01*
X184600000Y-74330035D01*
X184600003Y-74330035D01*
X184737178Y-74311975D01*
X184737180Y-74311974D01*
X184737183Y-74311974D01*
X184865018Y-74259024D01*
X184974791Y-74174791D01*
X185059024Y-74065018D01*
X185111974Y-73937183D01*
X185115723Y-73908713D01*
X185130035Y-73800002D01*
X185130035Y-73799998D01*
X185127948Y-73784148D01*
X185137884Y-73722471D01*
X185330606Y-73323887D01*
X187196676Y-69464514D01*
X187200379Y-69457519D01*
X187219799Y-69423886D01*
X187221452Y-69417715D01*
X187228607Y-69398474D01*
X187231396Y-69392709D01*
X187238676Y-69354556D01*
X187240451Y-69346807D01*
X187250500Y-69309309D01*
X187250500Y-69302912D01*
X187252432Y-69282479D01*
X187253632Y-69276192D01*
X187252486Y-69260577D01*
X187250792Y-69237480D01*
X187250500Y-69229504D01*
X187250500Y-68861761D01*
X187271317Y-68797692D01*
X187325817Y-68758096D01*
X187393183Y-68758096D01*
X187425849Y-68775282D01*
X187534982Y-68859024D01*
X187598899Y-68885499D01*
X187662814Y-68911973D01*
X187662821Y-68911975D01*
X187799997Y-68930035D01*
X187800000Y-68930035D01*
X187800003Y-68930035D01*
X187937178Y-68911975D01*
X187937180Y-68911974D01*
X187937183Y-68911974D01*
X188065018Y-68859024D01*
X188174791Y-68774791D01*
X188259024Y-68665018D01*
X188296516Y-68574500D01*
X188320138Y-68539145D01*
X188632811Y-68226472D01*
X188692833Y-68195891D01*
X188759369Y-68206429D01*
X188796357Y-68237192D01*
X188825209Y-68274791D01*
X188934982Y-68359024D01*
X188998899Y-68385499D01*
X189062814Y-68411973D01*
X189062821Y-68411975D01*
X189199997Y-68430035D01*
X189200000Y-68430035D01*
X189200003Y-68430035D01*
X189337178Y-68411975D01*
X189337180Y-68411974D01*
X189337183Y-68411974D01*
X189465018Y-68359024D01*
X189574791Y-68274791D01*
X189659024Y-68165018D01*
X189711974Y-68037183D01*
X189713551Y-68025209D01*
X189730035Y-67900002D01*
X189730035Y-67899997D01*
X189716870Y-67800002D01*
X190469965Y-67800002D01*
X190488024Y-67937178D01*
X190488026Y-67937185D01*
X190540974Y-68065014D01*
X190540976Y-68065018D01*
X190617709Y-68165018D01*
X190625209Y-68174791D01*
X190734982Y-68259024D01*
X190798899Y-68285499D01*
X190862814Y-68311973D01*
X190862821Y-68311975D01*
X190999997Y-68330035D01*
X191000000Y-68330035D01*
X191000003Y-68330035D01*
X191137178Y-68311975D01*
X191137180Y-68311974D01*
X191137183Y-68311974D01*
X191265018Y-68259024D01*
X191374791Y-68174791D01*
X191459024Y-68065018D01*
X191511974Y-67937183D01*
X191512481Y-67933338D01*
X191530035Y-67800002D01*
X191530035Y-67799997D01*
X191511975Y-67662821D01*
X191511973Y-67662814D01*
X191459023Y-67534981D01*
X191453856Y-67528247D01*
X191431367Y-67464746D01*
X191450499Y-67400154D01*
X191469758Y-67379861D01*
X191469739Y-67379842D01*
X191470481Y-67379099D01*
X191473980Y-67375413D01*
X191474791Y-67374791D01*
X191559024Y-67265018D01*
X191611974Y-67137183D01*
X191630035Y-67000000D01*
X191611974Y-66862817D01*
X191559024Y-66734983D01*
X191559023Y-66734982D01*
X191559023Y-66734981D01*
X191474795Y-66625214D01*
X191474794Y-66625213D01*
X191474791Y-66625209D01*
X191474786Y-66625205D01*
X191474785Y-66625204D01*
X191365018Y-66540976D01*
X191365014Y-66540974D01*
X191237185Y-66488026D01*
X191237178Y-66488024D01*
X191100003Y-66469965D01*
X191099997Y-66469965D01*
X190962821Y-66488024D01*
X190962814Y-66488026D01*
X190834981Y-66540976D01*
X190725214Y-66625204D01*
X190725204Y-66625214D01*
X190640976Y-66734981D01*
X190588026Y-66862814D01*
X190588024Y-66862821D01*
X190569965Y-66999997D01*
X190569965Y-67000002D01*
X190588024Y-67137178D01*
X190588026Y-67137185D01*
X190640976Y-67265019D01*
X190646144Y-67271754D01*
X190668631Y-67335256D01*
X190649497Y-67399847D01*
X190630242Y-67420139D01*
X190630261Y-67420158D01*
X190629557Y-67420861D01*
X190626033Y-67424576D01*
X190625215Y-67425203D01*
X190625204Y-67425214D01*
X190540976Y-67534981D01*
X190488026Y-67662814D01*
X190488024Y-67662821D01*
X190469965Y-67799997D01*
X190469965Y-67800002D01*
X189716870Y-67800002D01*
X189711975Y-67762821D01*
X189711973Y-67762814D01*
X189659023Y-67634981D01*
X189574795Y-67525214D01*
X189574794Y-67525213D01*
X189574791Y-67525209D01*
X189537192Y-67496358D01*
X189499037Y-67440841D01*
X189500801Y-67373498D01*
X189526472Y-67332811D01*
X190339145Y-66520138D01*
X190374500Y-66496516D01*
X190465018Y-66459024D01*
X190574791Y-66374791D01*
X190659024Y-66265018D01*
X190711974Y-66137183D01*
X190730035Y-66000000D01*
X190730035Y-65999997D01*
X190711975Y-65862821D01*
X190711973Y-65862814D01*
X190659023Y-65734981D01*
X190574795Y-65625214D01*
X190574794Y-65625213D01*
X190574791Y-65625209D01*
X190574786Y-65625205D01*
X190574785Y-65625204D01*
X190465018Y-65540976D01*
X190465014Y-65540974D01*
X190337185Y-65488026D01*
X190337178Y-65488024D01*
X190200003Y-65469965D01*
X190199997Y-65469965D01*
X190062821Y-65488024D01*
X190062814Y-65488026D01*
X189934981Y-65540976D01*
X189825214Y-65625204D01*
X189825204Y-65625214D01*
X189740976Y-65734981D01*
X189688026Y-65862814D01*
X189688025Y-65862819D01*
X189687664Y-65865564D01*
X189686810Y-65867352D01*
X189686177Y-65869718D01*
X189685738Y-65869600D01*
X189658658Y-65926366D01*
X189656672Y-65928405D01*
X188897491Y-66687586D01*
X188837467Y-66718169D01*
X188770931Y-66707631D01*
X188733941Y-66676867D01*
X188684791Y-66612814D01*
X188676200Y-66601618D01*
X188569469Y-66519719D01*
X188531313Y-66464201D01*
X188533077Y-66396858D01*
X188558751Y-66356169D01*
X189357498Y-65557425D01*
X189417521Y-65526842D01*
X189434572Y-65525500D01*
X189484308Y-65525500D01*
X189484309Y-65525500D01*
X189574673Y-65501286D01*
X189598887Y-65494799D01*
X189701614Y-65435489D01*
X190860490Y-64276614D01*
X190919799Y-64173886D01*
X190923044Y-64161774D01*
X190950500Y-64059309D01*
X190950500Y-63507278D01*
X190958797Y-63465566D01*
X191011973Y-63337185D01*
X191011975Y-63337178D01*
X191030035Y-63200002D01*
X191030035Y-63199997D01*
X191011975Y-63062821D01*
X191011973Y-63062814D01*
X190959023Y-62934981D01*
X190874795Y-62825214D01*
X190874794Y-62825213D01*
X190874791Y-62825209D01*
X190874786Y-62825205D01*
X190874785Y-62825204D01*
X190765018Y-62740976D01*
X190765014Y-62740974D01*
X190654884Y-62695358D01*
X190603659Y-62651608D01*
X190587932Y-62586104D01*
X190613711Y-62523866D01*
X190619508Y-62517593D01*
X193337100Y-59800002D01*
X197944750Y-59800002D01*
X197963668Y-59943704D01*
X197963670Y-59943711D01*
X198019139Y-60077626D01*
X198107374Y-60192615D01*
X198107379Y-60192621D01*
X198107383Y-60192624D01*
X198107384Y-60192625D01*
X198222373Y-60280860D01*
X198356288Y-60336329D01*
X198356295Y-60336331D01*
X198499997Y-60355250D01*
X198500000Y-60355250D01*
X198500003Y-60355250D01*
X198643704Y-60336331D01*
X198643706Y-60336330D01*
X198643709Y-60336330D01*
X198777625Y-60280861D01*
X198892621Y-60192621D01*
X198980861Y-60077625D01*
X199036330Y-59943709D01*
X199037190Y-59937183D01*
X199055250Y-59800002D01*
X199055250Y-59799997D01*
X199036331Y-59656295D01*
X199036329Y-59656288D01*
X199022066Y-59621854D01*
X199016781Y-59554696D01*
X199051979Y-59497258D01*
X199071825Y-59485097D01*
X199071441Y-59484431D01*
X199077617Y-59480864D01*
X199077625Y-59480861D01*
X199192621Y-59392621D01*
X199280861Y-59277625D01*
X199336330Y-59143709D01*
X199355250Y-59000000D01*
X199336330Y-58856291D01*
X199280861Y-58722375D01*
X199280860Y-58722374D01*
X199280860Y-58722373D01*
X199192625Y-58607384D01*
X199192624Y-58607383D01*
X199192621Y-58607379D01*
X199192616Y-58607375D01*
X199192615Y-58607374D01*
X199077626Y-58519139D01*
X198943711Y-58463670D01*
X198943704Y-58463668D01*
X198800003Y-58444750D01*
X198799997Y-58444750D01*
X198656295Y-58463668D01*
X198656288Y-58463670D01*
X198522373Y-58519139D01*
X198407384Y-58607374D01*
X198407374Y-58607384D01*
X198319139Y-58722373D01*
X198263670Y-58856288D01*
X198263668Y-58856295D01*
X198244750Y-58999997D01*
X198244750Y-59000002D01*
X198263668Y-59143704D01*
X198263671Y-59143714D01*
X198277933Y-59178146D01*
X198283218Y-59245304D01*
X198248019Y-59302742D01*
X198228183Y-59314899D01*
X198228567Y-59315564D01*
X198222374Y-59319139D01*
X198107384Y-59407374D01*
X198107374Y-59407384D01*
X198019139Y-59522373D01*
X197963670Y-59656288D01*
X197963668Y-59656295D01*
X197944750Y-59799997D01*
X197944750Y-59800002D01*
X193337100Y-59800002D01*
X195560489Y-57576614D01*
X195619798Y-57473887D01*
X195619799Y-57473886D01*
X195650500Y-57359309D01*
X195650500Y-57250002D01*
X197769965Y-57250002D01*
X197788024Y-57387178D01*
X197788026Y-57387185D01*
X197829087Y-57486316D01*
X197840976Y-57515018D01*
X197925209Y-57624791D01*
X198034982Y-57709024D01*
X198098899Y-57735499D01*
X198162814Y-57761973D01*
X198162821Y-57761975D01*
X198299997Y-57780035D01*
X198300000Y-57780035D01*
X198300003Y-57780035D01*
X198437178Y-57761975D01*
X198437180Y-57761974D01*
X198437183Y-57761974D01*
X198565018Y-57709024D01*
X198674791Y-57624791D01*
X198759024Y-57515018D01*
X198811974Y-57387183D01*
X198815644Y-57359312D01*
X198830035Y-57250002D01*
X198830035Y-57249997D01*
X198811975Y-57112821D01*
X198811973Y-57112814D01*
X198759023Y-56984981D01*
X198674795Y-56875214D01*
X198674794Y-56875213D01*
X198674791Y-56875209D01*
X198674786Y-56875205D01*
X198674785Y-56875204D01*
X198565018Y-56790976D01*
X198565014Y-56790974D01*
X198437185Y-56738026D01*
X198437178Y-56738024D01*
X198300003Y-56719965D01*
X198299997Y-56719965D01*
X198162821Y-56738024D01*
X198162814Y-56738026D01*
X198034981Y-56790976D01*
X197925214Y-56875204D01*
X197925204Y-56875214D01*
X197840976Y-56984981D01*
X197788026Y-57112814D01*
X197788024Y-57112821D01*
X197769965Y-57249997D01*
X197769965Y-57250002D01*
X195650500Y-57250002D01*
X195650500Y-55407278D01*
X195658797Y-55365566D01*
X195659024Y-55365018D01*
X195711974Y-55237183D01*
X195725430Y-55134983D01*
X195730035Y-55100002D01*
X195730035Y-55099997D01*
X195711975Y-54962821D01*
X195711973Y-54962814D01*
X195659023Y-54834981D01*
X195574795Y-54725214D01*
X195574794Y-54725213D01*
X195574791Y-54725209D01*
X195574786Y-54725205D01*
X195574785Y-54725204D01*
X195465018Y-54640976D01*
X195465014Y-54640974D01*
X195337185Y-54588026D01*
X195337178Y-54588024D01*
X195200003Y-54569965D01*
X195199997Y-54569965D01*
X195062821Y-54588024D01*
X195062814Y-54588026D01*
X194934981Y-54640976D01*
X194825214Y-54725204D01*
X194825204Y-54725214D01*
X194740976Y-54834981D01*
X194688026Y-54962814D01*
X194688024Y-54962821D01*
X194669965Y-55099997D01*
X194669965Y-55100002D01*
X194688024Y-55237178D01*
X194688026Y-55237185D01*
X194741203Y-55365566D01*
X194749500Y-55407278D01*
X194749500Y-57068247D01*
X194728683Y-57132316D01*
X194717575Y-57145322D01*
X187906623Y-63956273D01*
X187846599Y-63986856D01*
X187780063Y-63976318D01*
X187732428Y-63928683D01*
X187721481Y-63864969D01*
X187721765Y-63862817D01*
X187730035Y-63800000D01*
X187730035Y-63799997D01*
X187711975Y-63662821D01*
X187711973Y-63662814D01*
X187661506Y-63540976D01*
X187659024Y-63534983D01*
X187659023Y-63534982D01*
X187659023Y-63534981D01*
X187574795Y-63425214D01*
X187574794Y-63425213D01*
X187574791Y-63425209D01*
X187574786Y-63425205D01*
X187574785Y-63425204D01*
X187465018Y-63340976D01*
X187465014Y-63340974D01*
X187337185Y-63288026D01*
X187337178Y-63288024D01*
X187200003Y-63269965D01*
X187199997Y-63269965D01*
X187062821Y-63288024D01*
X187062814Y-63288026D01*
X186934981Y-63340976D01*
X186825214Y-63425204D01*
X186825204Y-63425214D01*
X186740977Y-63534980D01*
X186687800Y-63663361D01*
X186664172Y-63698723D01*
X183636575Y-66726321D01*
X183576551Y-66756904D01*
X183510015Y-66746366D01*
X183462380Y-66698731D01*
X183450500Y-66649246D01*
X183450500Y-65530774D01*
X183471317Y-65466705D01*
X183525817Y-65427109D01*
X183593183Y-65427109D01*
X183625851Y-65444296D01*
X183722374Y-65518361D01*
X183722375Y-65518362D01*
X183856288Y-65573830D01*
X183856295Y-65573832D01*
X183999997Y-65592751D01*
X184000000Y-65592751D01*
X184000003Y-65592751D01*
X184143704Y-65573832D01*
X184143706Y-65573831D01*
X184143709Y-65573831D01*
X184277625Y-65518362D01*
X184392621Y-65430122D01*
X184480861Y-65315126D01*
X184536330Y-65181210D01*
X184555250Y-65037501D01*
X184536330Y-64893792D01*
X184480861Y-64759876D01*
X184480860Y-64759875D01*
X184480860Y-64759874D01*
X184392625Y-64644885D01*
X184392624Y-64644884D01*
X184392621Y-64644880D01*
X184392616Y-64644876D01*
X184392615Y-64644875D01*
X184277626Y-64556640D01*
X184143711Y-64501171D01*
X184143704Y-64501169D01*
X184000003Y-64482251D01*
X184000002Y-64482251D01*
X184000000Y-64482251D01*
X183980450Y-64484824D01*
X183920878Y-64492667D01*
X183854641Y-64480389D01*
X183808270Y-64431524D01*
X183799477Y-64364734D01*
X183829574Y-64307528D01*
X186737100Y-61400002D01*
X188469965Y-61400002D01*
X188488024Y-61537178D01*
X188488026Y-61537185D01*
X188540974Y-61665014D01*
X188540976Y-61665018D01*
X188625209Y-61774791D01*
X188734982Y-61859024D01*
X188798899Y-61885499D01*
X188862814Y-61911973D01*
X188862821Y-61911975D01*
X188999997Y-61930035D01*
X189000000Y-61930035D01*
X189000003Y-61930035D01*
X189137178Y-61911975D01*
X189137180Y-61911974D01*
X189137183Y-61911974D01*
X189265018Y-61859024D01*
X189374791Y-61774791D01*
X189459024Y-61665018D01*
X189511974Y-61537183D01*
X189530035Y-61400000D01*
X189511974Y-61262817D01*
X189459024Y-61134983D01*
X189459023Y-61134982D01*
X189459023Y-61134981D01*
X189374795Y-61025214D01*
X189374794Y-61025213D01*
X189374791Y-61025209D01*
X189374786Y-61025205D01*
X189374785Y-61025204D01*
X189265018Y-60940976D01*
X189265014Y-60940974D01*
X189137185Y-60888026D01*
X189137178Y-60888024D01*
X189000003Y-60869965D01*
X188999997Y-60869965D01*
X188862821Y-60888024D01*
X188862814Y-60888026D01*
X188734981Y-60940976D01*
X188625214Y-61025204D01*
X188625204Y-61025214D01*
X188540976Y-61134981D01*
X188488026Y-61262814D01*
X188488024Y-61262821D01*
X188469965Y-61399997D01*
X188469965Y-61400002D01*
X186737100Y-61400002D01*
X188337100Y-59800002D01*
X189169965Y-59800002D01*
X189188024Y-59937178D01*
X189188026Y-59937185D01*
X189223312Y-60022373D01*
X189240976Y-60065018D01*
X189325209Y-60174791D01*
X189434982Y-60259024D01*
X189487700Y-60280860D01*
X189562814Y-60311973D01*
X189562821Y-60311975D01*
X189699997Y-60330035D01*
X189700000Y-60330035D01*
X189700003Y-60330035D01*
X189837178Y-60311975D01*
X189837180Y-60311974D01*
X189837183Y-60311974D01*
X189965018Y-60259024D01*
X190074791Y-60174791D01*
X190159024Y-60065018D01*
X190211974Y-59937183D01*
X190215898Y-59907384D01*
X190230035Y-59800002D01*
X190230035Y-59799997D01*
X190211975Y-59662821D01*
X190211973Y-59662814D01*
X190159023Y-59534981D01*
X190074795Y-59425214D01*
X190074794Y-59425213D01*
X190074791Y-59425209D01*
X190074786Y-59425205D01*
X190074785Y-59425204D01*
X189965018Y-59340976D01*
X189965014Y-59340974D01*
X189837185Y-59288026D01*
X189837178Y-59288024D01*
X189700003Y-59269965D01*
X189699997Y-59269965D01*
X189562821Y-59288024D01*
X189562814Y-59288026D01*
X189434981Y-59340976D01*
X189325214Y-59425204D01*
X189325204Y-59425214D01*
X189240976Y-59534981D01*
X189188026Y-59662814D01*
X189188024Y-59662821D01*
X189169965Y-59799997D01*
X189169965Y-59800002D01*
X188337100Y-59800002D01*
X192384257Y-55752846D01*
X192443567Y-55650119D01*
X192453788Y-55611974D01*
X192474268Y-55535541D01*
X192474268Y-55131046D01*
X192482565Y-55089334D01*
X192535741Y-54960953D01*
X192535743Y-54960946D01*
X192553803Y-54823770D01*
X192553803Y-54823765D01*
X192535743Y-54686589D01*
X192535741Y-54686582D01*
X192494917Y-54588024D01*
X192482792Y-54558751D01*
X192482791Y-54558750D01*
X192482791Y-54558749D01*
X192398563Y-54448982D01*
X192398562Y-54448981D01*
X192398559Y-54448977D01*
X192398554Y-54448973D01*
X192398553Y-54448972D01*
X192288786Y-54364744D01*
X192288782Y-54364742D01*
X192160953Y-54311794D01*
X192160946Y-54311792D01*
X192023771Y-54293733D01*
X192023765Y-54293733D01*
X191886589Y-54311792D01*
X191886582Y-54311794D01*
X191758749Y-54364744D01*
X191648982Y-54448972D01*
X191648972Y-54448982D01*
X191564744Y-54558749D01*
X191511794Y-54686582D01*
X191511792Y-54686589D01*
X191496156Y-54805359D01*
X191467154Y-54866162D01*
X191407952Y-54898306D01*
X191346377Y-54891834D01*
X191337185Y-54888026D01*
X191337178Y-54888024D01*
X191200003Y-54869965D01*
X191199997Y-54869965D01*
X191062821Y-54888024D01*
X191062814Y-54888026D01*
X190934981Y-54940976D01*
X190825214Y-55025204D01*
X190825204Y-55025214D01*
X190740976Y-55134981D01*
X190688026Y-55262814D01*
X190688024Y-55262821D01*
X190669965Y-55399997D01*
X190669965Y-55400002D01*
X190688024Y-55537178D01*
X190688026Y-55537185D01*
X190740974Y-55665014D01*
X190740976Y-55665018D01*
X190808369Y-55752846D01*
X190825209Y-55774791D01*
X190825213Y-55774794D01*
X190825214Y-55774795D01*
X190875355Y-55813270D01*
X190913511Y-55868788D01*
X190911748Y-55936130D01*
X190886075Y-55976820D01*
X182639510Y-64223387D01*
X182580201Y-64326110D01*
X182580202Y-64326110D01*
X182580201Y-64326115D01*
X182549500Y-64440689D01*
X182549500Y-64440691D01*
X182549500Y-70259309D01*
X180000000Y-70259309D01*
X180000000Y-60300002D01*
X181444750Y-60300002D01*
X181463668Y-60443704D01*
X181463670Y-60443711D01*
X181519139Y-60577626D01*
X181607374Y-60692615D01*
X181607379Y-60692621D01*
X181607383Y-60692624D01*
X181607384Y-60692625D01*
X181722373Y-60780860D01*
X181856288Y-60836329D01*
X181856295Y-60836331D01*
X181999997Y-60855250D01*
X182000000Y-60855250D01*
X182000003Y-60855250D01*
X182143704Y-60836331D01*
X182143706Y-60836330D01*
X182143709Y-60836330D01*
X182277625Y-60780861D01*
X182392621Y-60692621D01*
X182480861Y-60577625D01*
X182536330Y-60443709D01*
X182553674Y-60311975D01*
X182555250Y-60300002D01*
X182555250Y-60299997D01*
X182536331Y-60156295D01*
X182536329Y-60156288D01*
X182480860Y-60022373D01*
X182392625Y-59907384D01*
X182392624Y-59907383D01*
X182392621Y-59907379D01*
X182392616Y-59907375D01*
X182392615Y-59907374D01*
X182277626Y-59819139D01*
X182143711Y-59763670D01*
X182143704Y-59763668D01*
X182000003Y-59744750D01*
X181999997Y-59744750D01*
X181856295Y-59763668D01*
X181856288Y-59763670D01*
X181722373Y-59819139D01*
X181607384Y-59907374D01*
X181607374Y-59907384D01*
X181519139Y-60022373D01*
X181463670Y-60156288D01*
X181463668Y-60156295D01*
X181444750Y-60299997D01*
X181444750Y-60300002D01*
X180000000Y-60300002D01*
X180000000Y-56200002D01*
X181444750Y-56200002D01*
X181463668Y-56343704D01*
X181463670Y-56343711D01*
X181519139Y-56477626D01*
X181607374Y-56592615D01*
X181607379Y-56592621D01*
X181607383Y-56592624D01*
X181607384Y-56592625D01*
X181722373Y-56680860D01*
X181856288Y-56736329D01*
X181856295Y-56736331D01*
X181999997Y-56755250D01*
X182000000Y-56755250D01*
X182000003Y-56755250D01*
X182143704Y-56736331D01*
X182143706Y-56736330D01*
X182143709Y-56736330D01*
X182277625Y-56680861D01*
X182392621Y-56592621D01*
X182480861Y-56477625D01*
X182536330Y-56343709D01*
X182555250Y-56200000D01*
X182536330Y-56056291D01*
X182480861Y-55922375D01*
X182480860Y-55922374D01*
X182480860Y-55922373D01*
X182392625Y-55807384D01*
X182392624Y-55807383D01*
X182392621Y-55807379D01*
X182392616Y-55807375D01*
X182392615Y-55807374D01*
X182277626Y-55719139D01*
X182143711Y-55663670D01*
X182143704Y-55663668D01*
X182000003Y-55644750D01*
X181999997Y-55644750D01*
X181856295Y-55663668D01*
X181856288Y-55663670D01*
X181722373Y-55719139D01*
X181607384Y-55807374D01*
X181607374Y-55807384D01*
X181519139Y-55922373D01*
X181463670Y-56056288D01*
X181463668Y-56056295D01*
X181444750Y-56199997D01*
X181444750Y-56200002D01*
X180000000Y-56200002D01*
X180000000Y-53600002D01*
X187394355Y-53600002D01*
X187414858Y-53768868D01*
X187414859Y-53768871D01*
X187475180Y-53927927D01*
X187475184Y-53927934D01*
X187571815Y-54067927D01*
X187571816Y-54067928D01*
X187571817Y-54067929D01*
X187699148Y-54180734D01*
X187849775Y-54259790D01*
X188014944Y-54300500D01*
X188014945Y-54300500D01*
X188185055Y-54300500D01*
X188185056Y-54300500D01*
X188350225Y-54259790D01*
X188500852Y-54180734D01*
X188589929Y-54101818D01*
X188651689Y-54074915D01*
X188717467Y-54089451D01*
X188762139Y-54139875D01*
X188769604Y-54192856D01*
X188769965Y-54192856D01*
X188769965Y-54195417D01*
X188770276Y-54197631D01*
X188769966Y-54199997D01*
X188769965Y-54200002D01*
X188788024Y-54337178D01*
X188788026Y-54337185D01*
X188840974Y-54465014D01*
X188840976Y-54465018D01*
X188921505Y-54569965D01*
X188925209Y-54574791D01*
X189034982Y-54659024D01*
X189098899Y-54685499D01*
X189162814Y-54711973D01*
X189162821Y-54711975D01*
X189299997Y-54730035D01*
X189300000Y-54730035D01*
X189300003Y-54730035D01*
X189437178Y-54711975D01*
X189437180Y-54711974D01*
X189437183Y-54711974D01*
X189565018Y-54659024D01*
X189674791Y-54574791D01*
X189759024Y-54465018D01*
X189811974Y-54337183D01*
X189817695Y-54293733D01*
X189830035Y-54200002D01*
X189830035Y-54199997D01*
X189811975Y-54062821D01*
X189811973Y-54062814D01*
X189759023Y-53934981D01*
X189674795Y-53825214D01*
X189674794Y-53825213D01*
X189674791Y-53825209D01*
X189674786Y-53825205D01*
X189674785Y-53825204D01*
X189565018Y-53740976D01*
X189565014Y-53740974D01*
X189437185Y-53688026D01*
X189437178Y-53688024D01*
X189300003Y-53669965D01*
X189299997Y-53669965D01*
X189162821Y-53688024D01*
X189162814Y-53688026D01*
X189034981Y-53740976D01*
X188969039Y-53791576D01*
X188905537Y-53814064D01*
X188840946Y-53794931D01*
X188799936Y-53741486D01*
X188794479Y-53691963D01*
X188805645Y-53600002D01*
X190129965Y-53600002D01*
X190148024Y-53737178D01*
X190148026Y-53737185D01*
X190200974Y-53865014D01*
X190200976Y-53865018D01*
X190216864Y-53885724D01*
X190285209Y-53974791D01*
X190394982Y-54059024D01*
X190416479Y-54067928D01*
X190522814Y-54111973D01*
X190522821Y-54111975D01*
X190659997Y-54130035D01*
X190660000Y-54130035D01*
X190660003Y-54130035D01*
X190797178Y-54111975D01*
X190797180Y-54111974D01*
X190797183Y-54111974D01*
X190925018Y-54059024D01*
X191034791Y-53974791D01*
X191119024Y-53865018D01*
X191171974Y-53737183D01*
X191174429Y-53718541D01*
X191190035Y-53600002D01*
X191190035Y-53599997D01*
X191171975Y-53462821D01*
X191171973Y-53462814D01*
X191122656Y-53343752D01*
X193726215Y-53343752D01*
X193744274Y-53480928D01*
X193744276Y-53480935D01*
X193797224Y-53608764D01*
X193797226Y-53608768D01*
X193861064Y-53691963D01*
X193881459Y-53718541D01*
X193991232Y-53802774D01*
X194018489Y-53814064D01*
X194119064Y-53855723D01*
X194119071Y-53855725D01*
X194256247Y-53873785D01*
X194256250Y-53873785D01*
X194256253Y-53873785D01*
X194393428Y-53855725D01*
X194393430Y-53855724D01*
X194393433Y-53855724D01*
X194521268Y-53802774D01*
X194631041Y-53718541D01*
X194715274Y-53608768D01*
X194768224Y-53480933D01*
X194770610Y-53462814D01*
X194782335Y-53373752D01*
X196296215Y-53373752D01*
X196314274Y-53510928D01*
X196314276Y-53510935D01*
X196367224Y-53638764D01*
X196367226Y-53638768D01*
X196445652Y-53740974D01*
X196451459Y-53748541D01*
X196561232Y-53832774D01*
X196616637Y-53855723D01*
X196689064Y-53885723D01*
X196689071Y-53885725D01*
X196826247Y-53903785D01*
X196826250Y-53903785D01*
X196826253Y-53903785D01*
X196963428Y-53885725D01*
X196963430Y-53885724D01*
X196963433Y-53885724D01*
X197091268Y-53832774D01*
X197201041Y-53748541D01*
X197285274Y-53638768D01*
X197338224Y-53510933D01*
X197342174Y-53480935D01*
X197356285Y-53373752D01*
X197356285Y-53373747D01*
X197338225Y-53236571D01*
X197338223Y-53236564D01*
X197298629Y-53140976D01*
X197285274Y-53108733D01*
X197285273Y-53108732D01*
X197285273Y-53108731D01*
X197201045Y-52998964D01*
X197201044Y-52998963D01*
X197201041Y-52998959D01*
X197201036Y-52998955D01*
X197201035Y-52998954D01*
X197091268Y-52914726D01*
X197091264Y-52914724D01*
X196963435Y-52861776D01*
X196963428Y-52861774D01*
X196826253Y-52843715D01*
X196826247Y-52843715D01*
X196689071Y-52861774D01*
X196689064Y-52861776D01*
X196561231Y-52914726D01*
X196451464Y-52998954D01*
X196451454Y-52998964D01*
X196367226Y-53108731D01*
X196314276Y-53236564D01*
X196314274Y-53236571D01*
X196296215Y-53373747D01*
X196296215Y-53373752D01*
X194782335Y-53373752D01*
X194786285Y-53343752D01*
X194786285Y-53343747D01*
X194768225Y-53206571D01*
X194768223Y-53206564D01*
X194715273Y-53078731D01*
X194631045Y-52968964D01*
X194631044Y-52968963D01*
X194631041Y-52968959D01*
X194631036Y-52968955D01*
X194631035Y-52968954D01*
X194521268Y-52884726D01*
X194521264Y-52884724D01*
X194393435Y-52831776D01*
X194393428Y-52831774D01*
X194256253Y-52813715D01*
X194256247Y-52813715D01*
X194119071Y-52831774D01*
X194119064Y-52831776D01*
X193991231Y-52884726D01*
X193881464Y-52968954D01*
X193881454Y-52968964D01*
X193797226Y-53078731D01*
X193744276Y-53206564D01*
X193744274Y-53206571D01*
X193726215Y-53343747D01*
X193726215Y-53343752D01*
X191122656Y-53343752D01*
X191119023Y-53334981D01*
X191034795Y-53225214D01*
X191034794Y-53225213D01*
X191034791Y-53225209D01*
X191034786Y-53225205D01*
X191034785Y-53225204D01*
X190925018Y-53140976D01*
X190925014Y-53140974D01*
X190797185Y-53088026D01*
X190797178Y-53088024D01*
X190660003Y-53069965D01*
X190659997Y-53069965D01*
X190522821Y-53088024D01*
X190522814Y-53088026D01*
X190394981Y-53140976D01*
X190285214Y-53225204D01*
X190285204Y-53225214D01*
X190200976Y-53334981D01*
X190148026Y-53462814D01*
X190148024Y-53462821D01*
X190129965Y-53599997D01*
X190129965Y-53600002D01*
X188805645Y-53600002D01*
X188805645Y-53599997D01*
X188785141Y-53431131D01*
X188785140Y-53431128D01*
X188724819Y-53272072D01*
X188724815Y-53272065D01*
X188628184Y-53132072D01*
X188628183Y-53132071D01*
X188578464Y-53088024D01*
X188500852Y-53019266D01*
X188500850Y-53019265D01*
X188500849Y-53019264D01*
X188350226Y-52940210D01*
X188185057Y-52899500D01*
X188185056Y-52899500D01*
X188014944Y-52899500D01*
X188014942Y-52899500D01*
X187849773Y-52940210D01*
X187699150Y-53019264D01*
X187699143Y-53019270D01*
X187571816Y-53132071D01*
X187571815Y-53132072D01*
X187475184Y-53272065D01*
X187475180Y-53272072D01*
X187414859Y-53431128D01*
X187414858Y-53431131D01*
X187394355Y-53599997D01*
X187394355Y-53600002D01*
X180000000Y-53600002D01*
X180000000Y-51024835D01*
X180000002Y-51024171D01*
X180000006Y-51023474D01*
X180000146Y-51000579D01*
X180000159Y-50999476D01*
X180000600Y-50975513D01*
X180001147Y-50953185D01*
X180001361Y-50948543D01*
X180004191Y-50906642D01*
X180005221Y-50897356D01*
X180011638Y-50855850D01*
X180012442Y-50851293D01*
X180021060Y-50807968D01*
X180022222Y-50802798D01*
X180044065Y-50715592D01*
X180047165Y-50705375D01*
X180076541Y-50623276D01*
X180080619Y-50613428D01*
X180117918Y-50534566D01*
X180122947Y-50525157D01*
X180167782Y-50450354D01*
X180173721Y-50441468D01*
X180225663Y-50371431D01*
X180232430Y-50363183D01*
X180291023Y-50298536D01*
X180298536Y-50291023D01*
X180363183Y-50232430D01*
X180371418Y-50225672D01*
X180441486Y-50173707D01*
X180450336Y-50167793D01*
X180525161Y-50122944D01*
X180534561Y-50117920D01*
X180613421Y-50080623D01*
X180623267Y-50076545D01*
X180705372Y-50047167D01*
X180715596Y-50044064D01*
X180802817Y-50022217D01*
X180807968Y-50021060D01*
X180851293Y-50012442D01*
X180855850Y-50011638D01*
X180897356Y-50005221D01*
X180906642Y-50004191D01*
X180948568Y-50001359D01*
X180953185Y-50001147D01*
X180975513Y-50000600D01*
X180999476Y-50000159D01*
X181000579Y-50000146D01*
X181023474Y-50000006D01*
X181024171Y-50000002D01*
X181024835Y-50000000D01*
X198975165Y-50000000D01*
X198975829Y-50000002D01*
G37*
%TD.AperFunction*%
%TD*%
M02*
