%TF.GenerationSoftware,KiCad,Pcbnew,8.0.0*%
%TF.CreationDate,2024-03-06T16:17:17+03:00*%
%TF.ProjectId,micro17,6d696372-6f31-4372-9e6b-696361645f70,rev?*%
%TF.SameCoordinates,Original*%
%TF.FileFunction,Copper,L2,Inr*%
%TF.FilePolarity,Positive*%
%FSLAX46Y46*%
G04 Gerber Fmt 4.6, Leading zero omitted, Abs format (unit mm)*
G04 Created by KiCad (PCBNEW 8.0.0) date 2024-03-06 16:17:17*
%MOMM*%
%LPD*%
G01*
G04 APERTURE LIST*
%TA.AperFunction,ViaPad*%
%ADD10C,0.800000*%
%TD*%
%TA.AperFunction,ViaPad*%
%ADD11C,0.500000*%
%TD*%
%TA.AperFunction,ViaPad*%
%ADD12C,0.450000*%
%TD*%
%TA.AperFunction,Conductor*%
%ADD13C,0.500000*%
%TD*%
%TA.AperFunction,Conductor*%
%ADD14C,0.300000*%
%TD*%
%TA.AperFunction,Conductor*%
%ADD15C,0.250000*%
%TD*%
G04 APERTURE END LIST*
D10*
%TO.N,USART3_RX*%
X197331041Y-63068959D03*
%TO.N,Net-(R30-Pad2)*%
X199300000Y-62900000D03*
D11*
%TO.N,GND*%
X185000000Y-51000000D03*
X185000000Y-53000000D03*
D12*
X182400000Y-79720108D03*
D11*
X180600000Y-61000000D03*
D12*
X188500000Y-57700000D03*
D11*
X199400000Y-52072500D03*
X181000000Y-51000000D03*
D12*
X192000000Y-57500000D03*
X197300000Y-72000000D03*
D11*
X180600000Y-63000000D03*
D12*
X194000000Y-61500000D03*
D11*
X181000000Y-55000000D03*
D12*
X186500000Y-79300000D03*
D11*
X180750000Y-70000000D03*
D12*
X199700000Y-58800000D03*
X199750000Y-68000000D03*
X192000000Y-59500000D03*
D11*
X199100000Y-79100000D03*
D12*
X191000000Y-71900000D03*
D11*
X185500000Y-55000000D03*
D12*
X182800000Y-65200000D03*
X199500000Y-66300000D03*
X194000000Y-57300000D03*
D11*
X188600000Y-69400000D03*
X181000000Y-74400000D03*
X180600000Y-59000000D03*
D12*
X197800000Y-78400000D03*
D11*
X180700000Y-68500000D03*
D10*
X184900000Y-60700000D03*
D12*
X196200000Y-78800000D03*
X189750000Y-79750000D03*
X189100000Y-64500000D03*
X186100000Y-68400000D03*
X182960000Y-60300000D03*
X187250000Y-79750000D03*
X196000000Y-59500000D03*
X185600000Y-59500000D03*
X196000000Y-61500000D03*
D11*
X198280000Y-53600000D03*
D12*
X190300000Y-55300000D03*
X191507567Y-68206053D03*
D11*
X197800000Y-65900000D03*
D12*
X192000000Y-61500000D03*
D11*
X183960000Y-61000000D03*
D12*
X199500000Y-76250000D03*
X198800000Y-54600000D03*
D11*
X182400000Y-76000000D03*
X183000000Y-73000000D03*
D12*
X199500000Y-65300000D03*
D11*
X181000000Y-53000000D03*
X182400000Y-70400000D03*
X183000000Y-53000000D03*
D12*
X193250000Y-79500000D03*
D11*
X180600000Y-57000000D03*
X197100000Y-72900000D03*
D12*
X194800000Y-65900000D03*
D11*
X183000000Y-51000000D03*
X180600000Y-65000000D03*
X186500000Y-55000000D03*
D12*
X196250000Y-75750000D03*
%TO.N,+3V3*%
X191200000Y-55400000D03*
X198820000Y-56800000D03*
D11*
X182000000Y-56200000D03*
X197350000Y-64290000D03*
D12*
X183650000Y-68800000D03*
D10*
X188100000Y-53600000D03*
D12*
X183750000Y-74250000D03*
%TO.N,VDDA*%
X195200000Y-64200000D03*
X187400000Y-63800000D03*
X191475000Y-69397760D03*
%TO.N,+5V*%
X198100000Y-66850000D03*
X189067678Y-67967678D03*
X194300000Y-75550000D03*
D11*
X182000000Y-60300000D03*
D12*
%TO.N,Net-(U4B-+)*%
X191000000Y-67800000D03*
X188301409Y-66976409D03*
%TO.N,/MCU/~{RST}*%
X190660000Y-53600000D03*
X189700000Y-59800000D03*
%TO.N,Net-(C16-Pad2)*%
X190200000Y-66000000D03*
X187800000Y-68400000D03*
%TO.N,Net-(U5A-P0A)*%
X183740793Y-75177619D03*
X193501316Y-66750000D03*
%TO.N,Net-(U5B-P1A)*%
X180975000Y-72800000D03*
X198100000Y-67900000D03*
%TO.N,Net-(U5C-P2W)*%
X187500000Y-78725002D03*
X198750000Y-76000000D03*
%TO.N,I2C_SDA*%
X191974992Y-55147670D03*
D11*
X183200000Y-70400000D03*
D12*
%TO.N,PTT_OUT*%
X191900000Y-64000000D03*
%TO.N,AUDIO_OUT_MUTE*%
X189079841Y-75520159D03*
X193900000Y-64200000D03*
%TO.N,BASEBAND_IN_FILT*%
X189000000Y-61400000D03*
X191100000Y-67000000D03*
%TO.N,BASEBAND_OUT*%
X190500000Y-63200000D03*
X184600000Y-73800000D03*
%TO.N,I2C_SCL*%
X195200000Y-55100000D03*
D11*
X184400000Y-70400000D03*
D12*
%TO.N,AUDIO_OUT_FILT*%
X181000000Y-78597151D03*
X191800000Y-78800000D03*
%TO.N,BASEBAND_IN*%
X188700000Y-78800000D03*
%TO.N,BASEBAND_OUT_FILT*%
X191099724Y-75575719D03*
%TO.N,AUDIO_IN*%
X199200000Y-75100000D03*
X190101511Y-75575826D03*
%TO.N,PTT_IN*%
X186600000Y-56000000D03*
D11*
%TO.N,MCU_TX*%
X198500000Y-59900000D03*
%TO.N,MCU_RX*%
X199100000Y-59300000D03*
D12*
%TO.N,BASEBAND_BYPASS*%
X192906587Y-64093413D03*
D11*
%TO.N,+5VD*%
X184000000Y-65037501D03*
D12*
%TO.N,Net-(U1-VBAT)*%
X189150000Y-55350000D03*
%TO.N,USB_DP*%
X198600000Y-57800000D03*
%TO.N,USB_DN*%
X198700000Y-58500000D03*
%TD*%
D13*
%TO.N,+3V3*%
X197200000Y-56800000D02*
X195700000Y-58300000D01*
X198820000Y-56800000D02*
X197200000Y-56800000D01*
X195700000Y-58300000D02*
X194900000Y-58300000D01*
X194900000Y-62000000D02*
X194900000Y-58300000D01*
X197190000Y-64290000D02*
X194900000Y-62000000D01*
X197350000Y-64290000D02*
X197190000Y-64290000D01*
X194900000Y-58300000D02*
X191000000Y-58300000D01*
X190100000Y-57400000D02*
X191200000Y-55400000D01*
D14*
X181400000Y-59200000D02*
X182000000Y-58600000D01*
D13*
X189600000Y-56900000D02*
X190100000Y-57400000D01*
X187900000Y-56900000D02*
X188100000Y-56700000D01*
X182700000Y-56900000D02*
X187900000Y-56900000D01*
X191000000Y-58300000D02*
X190100000Y-57400000D01*
X187900000Y-56900000D02*
X189600000Y-56900000D01*
X188100000Y-56700000D02*
X188100000Y-53600000D01*
D14*
X183650000Y-68800000D02*
X181400000Y-64000000D01*
D13*
X182000000Y-56200000D02*
X182700000Y-56900000D01*
D14*
X181400000Y-64000000D02*
X181400000Y-59200000D01*
X182000000Y-58600000D02*
X182000000Y-56200000D01*
%TO.N,VDDA*%
X191475000Y-69397760D02*
X191475000Y-69326472D01*
X192400000Y-67000000D02*
X195200000Y-64200000D01*
X187400000Y-65251472D02*
X187400000Y-63800000D01*
X191475000Y-69326472D02*
X187400000Y-65251472D01*
X191475000Y-69397760D02*
X192400000Y-68472760D01*
X192400000Y-68472760D02*
X192400000Y-67000000D01*
D13*
%TO.N,+5V*%
X189067678Y-67967678D02*
X188338083Y-67967678D01*
X189067678Y-67967678D02*
X189067678Y-68267678D01*
X194300000Y-75550000D02*
X194300000Y-69528248D01*
X188338083Y-67967678D02*
X182000000Y-61629595D01*
X193300000Y-70200000D02*
X194100000Y-69400000D01*
X194171752Y-69400000D02*
X194100000Y-69400000D01*
X198100000Y-66850000D02*
X194100000Y-69400000D01*
X189067678Y-68267678D02*
X191000000Y-70200000D01*
X191000000Y-70200000D02*
X193300000Y-70200000D01*
X194300000Y-69528248D02*
X194171752Y-69400000D01*
X182000000Y-61629595D02*
X182000000Y-60300000D01*
D14*
%TO.N,BASEBAND_IN_FILT*%
X191100000Y-66000000D02*
X191100000Y-67000000D01*
X189000000Y-61400000D02*
X189000000Y-63250000D01*
X189000000Y-63250000D02*
X191100000Y-66000000D01*
D15*
%TO.N,AUDIO_OUT_FILT*%
X189300000Y-78000000D02*
X186500000Y-78000000D01*
X191800000Y-78800000D02*
X189300000Y-78000000D01*
X186500000Y-78000000D02*
X181000000Y-78597151D01*
%TO.N,AUDIO_IN*%
X195750000Y-76750000D02*
X199200000Y-75100000D01*
X190101511Y-75575826D02*
X191275685Y-76750000D01*
X191275685Y-76750000D02*
X195750000Y-76750000D01*
%TD*%
%TA.AperFunction,Conductor*%
%TO.N,GND*%
G36*
X198975829Y-50000002D02*
G01*
X198976531Y-50000006D01*
X198999418Y-50000146D01*
X199000525Y-50000159D01*
X199024479Y-50000599D01*
X199024500Y-50000600D01*
X199046812Y-50001147D01*
X199051434Y-50001359D01*
X199093355Y-50004191D01*
X199102646Y-50005222D01*
X199144141Y-50011636D01*
X199148714Y-50012444D01*
X199192022Y-50021059D01*
X199197191Y-50022219D01*
X199284397Y-50044063D01*
X199294633Y-50047168D01*
X199376725Y-50076542D01*
X199386585Y-50080626D01*
X199465425Y-50117914D01*
X199474850Y-50122953D01*
X199549641Y-50167781D01*
X199558535Y-50173723D01*
X199628569Y-50225663D01*
X199636825Y-50232439D01*
X199701453Y-50291014D01*
X199708985Y-50298546D01*
X199767558Y-50363171D01*
X199774336Y-50371430D01*
X199826276Y-50441463D01*
X199832217Y-50450355D01*
X199877050Y-50525154D01*
X199882086Y-50534575D01*
X199919370Y-50613407D01*
X199923463Y-50623289D01*
X199952830Y-50705365D01*
X199955936Y-50715602D01*
X199977777Y-50802798D01*
X199978949Y-50808017D01*
X199987549Y-50851252D01*
X199988363Y-50855863D01*
X199994776Y-50897343D01*
X199995808Y-50906648D01*
X199998639Y-50948543D01*
X199998854Y-50953226D01*
X199999388Y-50975054D01*
X199999403Y-50975715D01*
X199999838Y-50999361D01*
X199999854Y-51000697D01*
X199999998Y-51024166D01*
X200000000Y-51024835D01*
X200000000Y-62342099D01*
X199979183Y-62406168D01*
X199924683Y-62445764D01*
X199857317Y-62445764D01*
X199818720Y-62423687D01*
X199722012Y-62338012D01*
X199700852Y-62319266D01*
X199700850Y-62319265D01*
X199700849Y-62319264D01*
X199550226Y-62240210D01*
X199385057Y-62199500D01*
X199385056Y-62199500D01*
X199214944Y-62199500D01*
X199214942Y-62199500D01*
X199049773Y-62240210D01*
X198899150Y-62319264D01*
X198899143Y-62319270D01*
X198771816Y-62432071D01*
X198771815Y-62432072D01*
X198675184Y-62572065D01*
X198675180Y-62572072D01*
X198614859Y-62731128D01*
X198614858Y-62731131D01*
X198594355Y-62899997D01*
X198594355Y-62900002D01*
X198614858Y-63068868D01*
X198614859Y-63068871D01*
X198675180Y-63227927D01*
X198675184Y-63227934D01*
X198771815Y-63367927D01*
X198771816Y-63367928D01*
X198771817Y-63367929D01*
X198899148Y-63480734D01*
X199049775Y-63559790D01*
X199214944Y-63600500D01*
X199214945Y-63600500D01*
X199385055Y-63600500D01*
X199385056Y-63600500D01*
X199550225Y-63559790D01*
X199700852Y-63480734D01*
X199818721Y-63376311D01*
X199880480Y-63349409D01*
X199946259Y-63363945D01*
X199990930Y-63414369D01*
X200000000Y-63457900D01*
X200000000Y-78975164D01*
X199999998Y-78975833D01*
X199999854Y-78999302D01*
X199999838Y-79000638D01*
X199999403Y-79024284D01*
X199999388Y-79024945D01*
X199998854Y-79046773D01*
X199998639Y-79051456D01*
X199995808Y-79093351D01*
X199994776Y-79102656D01*
X199988363Y-79144136D01*
X199987549Y-79148747D01*
X199978949Y-79191982D01*
X199977777Y-79197201D01*
X199955936Y-79284397D01*
X199952830Y-79294634D01*
X199923463Y-79376710D01*
X199919370Y-79386593D01*
X199882089Y-79465417D01*
X199877046Y-79474850D01*
X199832218Y-79549641D01*
X199826276Y-79558535D01*
X199774336Y-79628569D01*
X199767550Y-79636838D01*
X199709001Y-79701437D01*
X199701442Y-79708995D01*
X199636838Y-79767550D01*
X199628569Y-79774336D01*
X199558535Y-79826276D01*
X199549641Y-79832218D01*
X199474850Y-79877046D01*
X199465417Y-79882089D01*
X199386593Y-79919370D01*
X199376710Y-79923463D01*
X199294634Y-79952830D01*
X199284397Y-79955936D01*
X199197201Y-79977777D01*
X199191982Y-79978949D01*
X199148747Y-79987549D01*
X199144136Y-79988363D01*
X199102656Y-79994776D01*
X199093351Y-79995808D01*
X199051456Y-79998639D01*
X199046773Y-79998854D01*
X199024945Y-79999388D01*
X199024284Y-79999403D01*
X199000638Y-79999838D01*
X198999302Y-79999854D01*
X198976596Y-79999993D01*
X198975831Y-79999998D01*
X198975165Y-80000000D01*
X181024835Y-80000000D01*
X181024168Y-79999998D01*
X181023385Y-79999993D01*
X181000697Y-79999854D01*
X180999361Y-79999838D01*
X180975715Y-79999403D01*
X180975054Y-79999388D01*
X180953226Y-79998854D01*
X180948543Y-79998639D01*
X180906648Y-79995808D01*
X180897343Y-79994776D01*
X180855863Y-79988363D01*
X180851252Y-79987549D01*
X180840735Y-79985457D01*
X180808007Y-79978946D01*
X180802798Y-79977777D01*
X180715602Y-79955936D01*
X180705365Y-79952830D01*
X180623289Y-79923463D01*
X180613411Y-79919372D01*
X180534582Y-79882089D01*
X180525149Y-79877047D01*
X180450361Y-79832221D01*
X180441468Y-79826278D01*
X180371431Y-79774336D01*
X180363171Y-79767558D01*
X180298546Y-79708985D01*
X180291014Y-79701453D01*
X180232439Y-79636825D01*
X180225663Y-79628569D01*
X180173723Y-79558535D01*
X180167781Y-79549641D01*
X180122953Y-79474850D01*
X180117914Y-79465425D01*
X180080626Y-79386585D01*
X180076541Y-79376721D01*
X180047168Y-79294630D01*
X180044062Y-79284393D01*
X180037707Y-79259023D01*
X180022219Y-79197191D01*
X180021059Y-79192022D01*
X180012444Y-79148714D01*
X180011636Y-79144136D01*
X180009016Y-79127186D01*
X180005222Y-79102646D01*
X180004191Y-79093355D01*
X180001359Y-79051434D01*
X180001147Y-79046812D01*
X180000600Y-79024487D01*
X180000159Y-79000525D01*
X180000146Y-78999418D01*
X180000002Y-78975828D01*
X180000000Y-78975164D01*
X180000000Y-78597153D01*
X180469965Y-78597153D01*
X180488024Y-78734329D01*
X180488026Y-78734336D01*
X180540974Y-78862165D01*
X180540976Y-78862169D01*
X180598538Y-78937185D01*
X180625209Y-78971942D01*
X180734982Y-79056175D01*
X180798899Y-79082650D01*
X180862814Y-79109124D01*
X180862821Y-79109126D01*
X180999997Y-79127186D01*
X181000000Y-79127186D01*
X181000003Y-79127186D01*
X181137178Y-79109126D01*
X181137180Y-79109125D01*
X181137183Y-79109125D01*
X181265018Y-79056175D01*
X181331561Y-79005113D01*
X181386149Y-78983225D01*
X186517168Y-78426137D01*
X186528933Y-78425500D01*
X186892131Y-78425500D01*
X186956200Y-78446317D01*
X186995796Y-78500817D01*
X186995796Y-78568183D01*
X186992833Y-78576214D01*
X186988026Y-78587816D01*
X186988024Y-78587823D01*
X186969965Y-78724999D01*
X186969965Y-78725004D01*
X186988024Y-78862180D01*
X186988026Y-78862187D01*
X187040974Y-78990016D01*
X187040976Y-78990020D01*
X187120265Y-79093351D01*
X187125209Y-79099793D01*
X187125213Y-79099796D01*
X187125214Y-79099797D01*
X187137372Y-79109126D01*
X187234982Y-79184026D01*
X187266766Y-79197191D01*
X187362814Y-79236975D01*
X187362821Y-79236977D01*
X187499997Y-79255037D01*
X187500000Y-79255037D01*
X187500003Y-79255037D01*
X187637178Y-79236977D01*
X187637180Y-79236976D01*
X187637183Y-79236976D01*
X187765018Y-79184026D01*
X187874791Y-79099793D01*
X187959024Y-78990020D01*
X187983791Y-78930225D01*
X188027539Y-78879002D01*
X188093043Y-78863275D01*
X188155281Y-78889054D01*
X188182312Y-78931817D01*
X188185292Y-78930583D01*
X188240974Y-79065014D01*
X188240976Y-79065018D01*
X188297183Y-79138268D01*
X188325209Y-79174791D01*
X188325213Y-79174794D01*
X188325214Y-79174795D01*
X188354401Y-79197191D01*
X188434982Y-79259024D01*
X188496229Y-79284393D01*
X188562814Y-79311973D01*
X188562821Y-79311975D01*
X188699997Y-79330035D01*
X188700000Y-79330035D01*
X188700003Y-79330035D01*
X188837178Y-79311975D01*
X188837180Y-79311974D01*
X188837183Y-79311974D01*
X188965018Y-79259024D01*
X189074791Y-79174791D01*
X189159024Y-79065018D01*
X189211974Y-78937183D01*
X189212681Y-78931817D01*
X189230035Y-78800002D01*
X189230035Y-78799997D01*
X189211975Y-78662821D01*
X189211973Y-78662814D01*
X189185306Y-78598434D01*
X189180021Y-78531276D01*
X189215219Y-78473838D01*
X189277457Y-78448058D01*
X189319227Y-78452907D01*
X191343931Y-79100811D01*
X191397183Y-79138268D01*
X191425209Y-79174791D01*
X191425213Y-79174794D01*
X191425214Y-79174795D01*
X191454401Y-79197191D01*
X191534982Y-79259024D01*
X191596229Y-79284393D01*
X191662814Y-79311973D01*
X191662821Y-79311975D01*
X191799997Y-79330035D01*
X191800000Y-79330035D01*
X191800003Y-79330035D01*
X191937178Y-79311975D01*
X191937180Y-79311974D01*
X191937183Y-79311974D01*
X192065018Y-79259024D01*
X192174791Y-79174791D01*
X192259024Y-79065018D01*
X192311974Y-78937183D01*
X192312681Y-78931817D01*
X192330035Y-78800002D01*
X192330035Y-78799997D01*
X192311975Y-78662821D01*
X192311973Y-78662814D01*
X192259023Y-78534981D01*
X192174795Y-78425214D01*
X192174794Y-78425213D01*
X192174791Y-78425209D01*
X192174786Y-78425205D01*
X192174785Y-78425204D01*
X192065018Y-78340976D01*
X192065014Y-78340974D01*
X191937185Y-78288026D01*
X191937178Y-78288024D01*
X191800003Y-78269965D01*
X191799997Y-78269965D01*
X191662817Y-78288025D01*
X191657482Y-78289455D01*
X191596055Y-78287982D01*
X189484338Y-77612234D01*
X189469862Y-77605826D01*
X189464239Y-77603497D01*
X189422483Y-77592309D01*
X189417472Y-77590837D01*
X189376331Y-77577671D01*
X189370344Y-77576589D01*
X189362007Y-77575288D01*
X189356022Y-77574500D01*
X189356018Y-77574500D01*
X189312798Y-77574500D01*
X189307579Y-77574375D01*
X189264418Y-77572305D01*
X189258350Y-77572810D01*
X189242618Y-77574500D01*
X186541147Y-77574500D01*
X186524466Y-77573216D01*
X186518583Y-77572305D01*
X186509763Y-77570939D01*
X186509762Y-77570939D01*
X186482832Y-77573863D01*
X186471067Y-77574500D01*
X186443980Y-77574500D01*
X186429607Y-77578350D01*
X186413170Y-77581425D01*
X181297037Y-78136899D01*
X181243560Y-78129239D01*
X181137185Y-78085177D01*
X181137178Y-78085175D01*
X181000003Y-78067116D01*
X180999997Y-78067116D01*
X180862821Y-78085175D01*
X180862814Y-78085177D01*
X180734981Y-78138127D01*
X180625214Y-78222355D01*
X180625204Y-78222365D01*
X180540976Y-78332132D01*
X180488026Y-78459965D01*
X180488024Y-78459972D01*
X180469965Y-78597148D01*
X180469965Y-78597153D01*
X180000000Y-78597153D01*
X180000000Y-75177621D01*
X183210758Y-75177621D01*
X183228817Y-75314797D01*
X183228819Y-75314804D01*
X183281767Y-75442633D01*
X183281769Y-75442637D01*
X183341254Y-75520159D01*
X183366002Y-75552410D01*
X183366006Y-75552413D01*
X183366007Y-75552414D01*
X183396378Y-75575719D01*
X183475775Y-75636643D01*
X183525736Y-75657337D01*
X183603607Y-75689592D01*
X183603614Y-75689594D01*
X183740790Y-75707654D01*
X183740793Y-75707654D01*
X183740796Y-75707654D01*
X183877971Y-75689594D01*
X183877973Y-75689593D01*
X183877976Y-75689593D01*
X184005811Y-75636643D01*
X184115584Y-75552410D01*
X184140330Y-75520161D01*
X188549806Y-75520161D01*
X188567865Y-75657337D01*
X188567867Y-75657344D01*
X188620815Y-75785173D01*
X188620817Y-75785177D01*
X188699728Y-75888015D01*
X188705050Y-75894950D01*
X188814823Y-75979183D01*
X188878740Y-76005658D01*
X188942655Y-76032132D01*
X188942662Y-76032134D01*
X189079838Y-76050194D01*
X189079841Y-76050194D01*
X189079844Y-76050194D01*
X189217019Y-76032134D01*
X189217021Y-76032133D01*
X189217024Y-76032133D01*
X189344859Y-75979183D01*
X189454632Y-75894950D01*
X189482844Y-75858183D01*
X189538360Y-75820029D01*
X189605703Y-75821792D01*
X189655792Y-75858183D01*
X189726720Y-75950617D01*
X189836493Y-76034850D01*
X189964328Y-76087800D01*
X189982239Y-76090158D01*
X190043041Y-76119157D01*
X190045087Y-76121150D01*
X190935200Y-77011263D01*
X190935199Y-77011263D01*
X191014421Y-77090485D01*
X191080884Y-77128857D01*
X191111448Y-77146503D01*
X191219667Y-77175500D01*
X195729274Y-77175500D01*
X195737710Y-77175826D01*
X195772910Y-77178560D01*
X195779422Y-77177345D01*
X195799397Y-77175500D01*
X195806016Y-77175500D01*
X195806018Y-77175500D01*
X195840122Y-77166361D01*
X195848340Y-77164497D01*
X195883049Y-77158027D01*
X195889014Y-77155173D01*
X195907844Y-77148215D01*
X195914237Y-77146503D01*
X195944800Y-77128857D01*
X195952273Y-77124919D01*
X198097840Y-76098778D01*
X198164620Y-76089916D01*
X198223855Y-76121999D01*
X198245571Y-76155400D01*
X198290974Y-76265014D01*
X198290976Y-76265018D01*
X198328433Y-76313833D01*
X198375209Y-76374791D01*
X198484982Y-76459024D01*
X198548899Y-76485499D01*
X198612814Y-76511973D01*
X198612821Y-76511975D01*
X198749997Y-76530035D01*
X198750000Y-76530035D01*
X198750003Y-76530035D01*
X198887178Y-76511975D01*
X198887180Y-76511974D01*
X198887183Y-76511974D01*
X199015018Y-76459024D01*
X199124791Y-76374791D01*
X199209024Y-76265018D01*
X199261974Y-76137183D01*
X199264348Y-76119157D01*
X199280035Y-76000002D01*
X199280035Y-75999997D01*
X199261975Y-75862821D01*
X199261974Y-75862817D01*
X199260055Y-75858184D01*
X199221693Y-75765570D01*
X199216409Y-75698416D01*
X199251607Y-75640977D01*
X199308167Y-75615794D01*
X199337183Y-75611974D01*
X199465018Y-75559024D01*
X199574791Y-75474791D01*
X199659024Y-75365018D01*
X199711974Y-75237183D01*
X199716733Y-75201040D01*
X199730035Y-75100002D01*
X199730035Y-75099997D01*
X199711975Y-74962821D01*
X199711973Y-74962814D01*
X199659023Y-74834981D01*
X199574795Y-74725214D01*
X199574794Y-74725213D01*
X199574791Y-74725209D01*
X199574786Y-74725205D01*
X199574785Y-74725204D01*
X199465018Y-74640976D01*
X199465014Y-74640974D01*
X199337185Y-74588026D01*
X199337178Y-74588024D01*
X199200003Y-74569965D01*
X199199997Y-74569965D01*
X199062821Y-74588024D01*
X199062814Y-74588026D01*
X198934981Y-74640976D01*
X198825214Y-74725204D01*
X198825207Y-74725211D01*
X198741244Y-74834633D01*
X198701798Y-74866610D01*
X196264800Y-76032132D01*
X195697012Y-76303683D01*
X195675789Y-76313833D01*
X195628760Y-76324500D01*
X191497083Y-76324500D01*
X191433014Y-76303683D01*
X191420008Y-76292575D01*
X191336766Y-76209333D01*
X191306183Y-76149309D01*
X191316721Y-76082773D01*
X191359337Y-76037864D01*
X191364740Y-76034744D01*
X191364740Y-76034743D01*
X191364742Y-76034743D01*
X191474515Y-75950510D01*
X191558748Y-75840737D01*
X191611698Y-75712902D01*
X191613606Y-75698416D01*
X191629759Y-75575721D01*
X191629759Y-75575716D01*
X191611699Y-75438540D01*
X191611697Y-75438533D01*
X191558747Y-75310700D01*
X191474519Y-75200933D01*
X191474518Y-75200932D01*
X191474515Y-75200928D01*
X191474510Y-75200924D01*
X191474509Y-75200923D01*
X191364742Y-75116695D01*
X191364738Y-75116693D01*
X191236909Y-75063745D01*
X191236902Y-75063743D01*
X191099727Y-75045684D01*
X191099721Y-75045684D01*
X190962545Y-75063743D01*
X190962538Y-75063745D01*
X190834705Y-75116695D01*
X190724938Y-75200923D01*
X190724931Y-75200930D01*
X190687051Y-75250296D01*
X190631532Y-75288452D01*
X190564190Y-75286687D01*
X190514101Y-75250295D01*
X190476306Y-75201040D01*
X190476305Y-75201039D01*
X190476302Y-75201035D01*
X190476297Y-75201031D01*
X190476296Y-75201030D01*
X190366529Y-75116802D01*
X190366525Y-75116800D01*
X190238696Y-75063852D01*
X190238689Y-75063850D01*
X190101514Y-75045791D01*
X190101508Y-75045791D01*
X189964332Y-75063850D01*
X189964325Y-75063852D01*
X189836492Y-75116802D01*
X189726725Y-75201030D01*
X189726718Y-75201037D01*
X189698508Y-75237801D01*
X189642989Y-75275957D01*
X189575647Y-75274192D01*
X189525558Y-75237800D01*
X189454636Y-75145373D01*
X189454635Y-75145372D01*
X189454632Y-75145368D01*
X189454627Y-75145364D01*
X189454626Y-75145363D01*
X189344859Y-75061135D01*
X189344855Y-75061133D01*
X189217026Y-75008185D01*
X189217019Y-75008183D01*
X189079844Y-74990124D01*
X189079838Y-74990124D01*
X188942662Y-75008183D01*
X188942655Y-75008185D01*
X188814822Y-75061135D01*
X188705055Y-75145363D01*
X188705045Y-75145373D01*
X188620817Y-75255140D01*
X188567867Y-75382973D01*
X188567865Y-75382980D01*
X188549806Y-75520156D01*
X188549806Y-75520161D01*
X184140330Y-75520161D01*
X184199817Y-75442637D01*
X184252767Y-75314802D01*
X184257882Y-75275957D01*
X184270828Y-75177621D01*
X184270828Y-75177616D01*
X184252768Y-75040440D01*
X184252766Y-75040433D01*
X184220618Y-74962821D01*
X184199817Y-74912602D01*
X184199816Y-74912601D01*
X184199816Y-74912600D01*
X184115588Y-74802833D01*
X184115587Y-74802832D01*
X184115584Y-74802828D01*
X184115579Y-74802824D01*
X184110532Y-74797777D01*
X184111827Y-74796481D01*
X184078713Y-74748286D01*
X184080485Y-74680943D01*
X184116875Y-74630864D01*
X184124791Y-74624791D01*
X184209024Y-74515018D01*
X184261974Y-74387183D01*
X184263207Y-74377812D01*
X184292206Y-74317009D01*
X184351407Y-74284863D01*
X184412987Y-74291334D01*
X184462814Y-74311973D01*
X184462821Y-74311975D01*
X184599997Y-74330035D01*
X184600000Y-74330035D01*
X184600003Y-74330035D01*
X184737178Y-74311975D01*
X184737180Y-74311974D01*
X184737183Y-74311974D01*
X184865018Y-74259024D01*
X184974791Y-74174791D01*
X185059024Y-74065018D01*
X185111974Y-73937183D01*
X185120134Y-73875209D01*
X185130035Y-73800002D01*
X185130035Y-73799997D01*
X185111975Y-73662821D01*
X185111973Y-73662814D01*
X185059023Y-73534981D01*
X184974795Y-73425214D01*
X184974794Y-73425213D01*
X184974791Y-73425209D01*
X184974786Y-73425205D01*
X184974785Y-73425204D01*
X184865018Y-73340976D01*
X184865014Y-73340974D01*
X184737185Y-73288026D01*
X184737178Y-73288024D01*
X184600003Y-73269965D01*
X184599997Y-73269965D01*
X184462821Y-73288024D01*
X184462814Y-73288026D01*
X184334981Y-73340976D01*
X184225214Y-73425204D01*
X184225204Y-73425214D01*
X184140976Y-73534981D01*
X184088026Y-73662814D01*
X184088025Y-73662820D01*
X184086791Y-73672193D01*
X184057787Y-73732995D01*
X183998584Y-73765137D01*
X183937013Y-73758665D01*
X183887188Y-73738027D01*
X183887178Y-73738024D01*
X183750003Y-73719965D01*
X183749997Y-73719965D01*
X183612821Y-73738024D01*
X183612814Y-73738026D01*
X183484981Y-73790976D01*
X183375214Y-73875204D01*
X183375204Y-73875214D01*
X183290976Y-73984981D01*
X183238026Y-74112814D01*
X183238024Y-74112821D01*
X183219965Y-74249997D01*
X183219965Y-74250002D01*
X183238024Y-74387178D01*
X183238026Y-74387185D01*
X183290974Y-74515014D01*
X183290976Y-74515018D01*
X183375209Y-74624791D01*
X183375212Y-74624793D01*
X183380261Y-74629842D01*
X183378964Y-74631138D01*
X183412078Y-74679329D01*
X183410309Y-74746671D01*
X183373922Y-74796750D01*
X183366007Y-74802823D01*
X183365997Y-74802833D01*
X183281769Y-74912600D01*
X183228819Y-75040433D01*
X183228817Y-75040440D01*
X183210758Y-75177616D01*
X183210758Y-75177621D01*
X180000000Y-75177621D01*
X180000000Y-72800002D01*
X180444965Y-72800002D01*
X180463024Y-72937178D01*
X180463026Y-72937185D01*
X180515974Y-73065014D01*
X180515976Y-73065018D01*
X180600209Y-73174791D01*
X180709982Y-73259024D01*
X180773899Y-73285499D01*
X180837814Y-73311973D01*
X180837821Y-73311975D01*
X180974997Y-73330035D01*
X180975000Y-73330035D01*
X180975003Y-73330035D01*
X181112178Y-73311975D01*
X181112180Y-73311974D01*
X181112183Y-73311974D01*
X181240018Y-73259024D01*
X181349791Y-73174791D01*
X181434024Y-73065018D01*
X181486974Y-72937183D01*
X181505035Y-72800000D01*
X181486974Y-72662817D01*
X181434024Y-72534983D01*
X181434023Y-72534982D01*
X181434023Y-72534981D01*
X181349795Y-72425214D01*
X181349794Y-72425213D01*
X181349791Y-72425209D01*
X181349786Y-72425205D01*
X181349785Y-72425204D01*
X181240018Y-72340976D01*
X181240014Y-72340974D01*
X181112185Y-72288026D01*
X181112178Y-72288024D01*
X180975003Y-72269965D01*
X180974997Y-72269965D01*
X180837821Y-72288024D01*
X180837814Y-72288026D01*
X180709981Y-72340976D01*
X180600214Y-72425204D01*
X180600204Y-72425214D01*
X180515976Y-72534981D01*
X180463026Y-72662814D01*
X180463024Y-72662821D01*
X180444965Y-72799997D01*
X180444965Y-72800002D01*
X180000000Y-72800002D01*
X180000000Y-70400002D01*
X182644750Y-70400002D01*
X182663668Y-70543704D01*
X182663670Y-70543711D01*
X182719139Y-70677626D01*
X182775057Y-70750499D01*
X182807379Y-70792621D01*
X182807383Y-70792624D01*
X182807384Y-70792625D01*
X182922373Y-70880860D01*
X183056288Y-70936329D01*
X183056295Y-70936331D01*
X183199997Y-70955250D01*
X183200000Y-70955250D01*
X183200003Y-70955250D01*
X183343704Y-70936331D01*
X183343706Y-70936330D01*
X183343709Y-70936330D01*
X183477625Y-70880861D01*
X183592621Y-70792621D01*
X183680861Y-70677625D01*
X183699297Y-70633116D01*
X183743047Y-70581891D01*
X183808551Y-70566164D01*
X183870789Y-70591943D01*
X183900703Y-70633116D01*
X183919139Y-70677626D01*
X183975057Y-70750499D01*
X184007379Y-70792621D01*
X184007383Y-70792624D01*
X184007384Y-70792625D01*
X184122373Y-70880860D01*
X184256288Y-70936329D01*
X184256295Y-70936331D01*
X184399997Y-70955250D01*
X184400000Y-70955250D01*
X184400003Y-70955250D01*
X184543704Y-70936331D01*
X184543706Y-70936330D01*
X184543709Y-70936330D01*
X184677625Y-70880861D01*
X184792621Y-70792621D01*
X184880861Y-70677625D01*
X184936330Y-70543709D01*
X184938264Y-70529025D01*
X184955250Y-70400002D01*
X184955250Y-70399997D01*
X184936331Y-70256295D01*
X184936329Y-70256288D01*
X184880860Y-70122373D01*
X184792625Y-70007384D01*
X184792624Y-70007383D01*
X184792621Y-70007379D01*
X184792616Y-70007375D01*
X184792615Y-70007374D01*
X184677626Y-69919139D01*
X184543711Y-69863670D01*
X184543704Y-69863668D01*
X184400003Y-69844750D01*
X184399997Y-69844750D01*
X184256295Y-69863668D01*
X184256288Y-69863670D01*
X184122373Y-69919139D01*
X184007384Y-70007374D01*
X184007374Y-70007384D01*
X183919139Y-70122373D01*
X183900703Y-70166883D01*
X183856952Y-70218109D01*
X183791448Y-70233835D01*
X183729210Y-70208055D01*
X183699297Y-70166883D01*
X183680860Y-70122373D01*
X183592625Y-70007384D01*
X183592624Y-70007383D01*
X183592621Y-70007379D01*
X183592616Y-70007375D01*
X183592615Y-70007374D01*
X183477626Y-69919139D01*
X183343711Y-69863670D01*
X183343704Y-69863668D01*
X183200003Y-69844750D01*
X183199997Y-69844750D01*
X183056295Y-69863668D01*
X183056288Y-69863670D01*
X182922373Y-69919139D01*
X182807384Y-70007374D01*
X182807374Y-70007384D01*
X182719139Y-70122373D01*
X182663670Y-70256288D01*
X182663668Y-70256295D01*
X182644750Y-70399997D01*
X182644750Y-70400002D01*
X180000000Y-70400002D01*
X180000000Y-64020731D01*
X180946086Y-64020731D01*
X180947806Y-64030371D01*
X180949500Y-64049515D01*
X180949500Y-64059309D01*
X180958671Y-64093538D01*
X180960690Y-64102603D01*
X180966916Y-64137499D01*
X180966918Y-64137506D01*
X180971077Y-64146379D01*
X180977665Y-64164424D01*
X180980200Y-64173885D01*
X180980201Y-64173887D01*
X180997917Y-64204570D01*
X181002216Y-64212808D01*
X181270331Y-64784788D01*
X183113555Y-68717001D01*
X183122928Y-68777488D01*
X183119965Y-68799999D01*
X183119965Y-68800003D01*
X183138024Y-68937178D01*
X183138026Y-68937185D01*
X183172726Y-69020958D01*
X183190976Y-69065018D01*
X183275209Y-69174791D01*
X183384982Y-69259024D01*
X183448899Y-69285499D01*
X183512814Y-69311973D01*
X183512821Y-69311975D01*
X183649997Y-69330035D01*
X183650000Y-69330035D01*
X183650003Y-69330035D01*
X183787178Y-69311975D01*
X183787180Y-69311974D01*
X183787183Y-69311974D01*
X183915018Y-69259024D01*
X184024791Y-69174791D01*
X184109024Y-69065018D01*
X184161974Y-68937183D01*
X184163013Y-68929297D01*
X184180035Y-68800002D01*
X184180035Y-68799997D01*
X184161975Y-68662821D01*
X184161973Y-68662814D01*
X184109023Y-68534981D01*
X184024790Y-68425207D01*
X184024787Y-68425204D01*
X183963185Y-68377934D01*
X183930846Y-68337723D01*
X181860805Y-63921635D01*
X181850500Y-63875372D01*
X181850500Y-62521770D01*
X181871317Y-62457701D01*
X181925817Y-62418105D01*
X181993183Y-62418105D01*
X182036575Y-62444695D01*
X183909520Y-64317640D01*
X183940103Y-64377664D01*
X183929565Y-64444200D01*
X183881930Y-64491835D01*
X183860659Y-64500000D01*
X183856292Y-64501170D01*
X183722373Y-64556640D01*
X183607384Y-64644875D01*
X183607374Y-64644885D01*
X183519139Y-64759874D01*
X183463670Y-64893789D01*
X183463668Y-64893796D01*
X183444750Y-65037498D01*
X183444750Y-65037503D01*
X183463668Y-65181205D01*
X183463670Y-65181212D01*
X183519139Y-65315127D01*
X183607374Y-65430116D01*
X183607379Y-65430122D01*
X183607383Y-65430125D01*
X183607384Y-65430126D01*
X183722373Y-65518361D01*
X183722374Y-65518361D01*
X183722375Y-65518362D01*
X183745851Y-65528086D01*
X183856288Y-65573830D01*
X183856295Y-65573832D01*
X183999997Y-65592751D01*
X184000000Y-65592751D01*
X184000003Y-65592751D01*
X184143704Y-65573832D01*
X184143706Y-65573831D01*
X184143709Y-65573831D01*
X184277625Y-65518362D01*
X184392621Y-65430122D01*
X184480861Y-65315126D01*
X184536330Y-65181210D01*
X184536331Y-65181201D01*
X184537497Y-65176852D01*
X184574182Y-65120352D01*
X184637072Y-65096205D01*
X184702143Y-65113635D01*
X184719860Y-65127980D01*
X187445892Y-67854012D01*
X187476475Y-67914036D01*
X187465937Y-67980572D01*
X187435179Y-68017557D01*
X187425215Y-68025203D01*
X187425204Y-68025214D01*
X187340976Y-68134981D01*
X187288026Y-68262814D01*
X187288024Y-68262821D01*
X187269965Y-68399997D01*
X187269965Y-68400002D01*
X187288024Y-68537178D01*
X187288026Y-68537185D01*
X187340974Y-68665014D01*
X187340976Y-68665018D01*
X187405704Y-68749373D01*
X187425209Y-68774791D01*
X187425213Y-68774794D01*
X187425214Y-68774795D01*
X187458064Y-68800002D01*
X187534982Y-68859024D01*
X187598899Y-68885499D01*
X187662814Y-68911973D01*
X187662821Y-68911975D01*
X187799997Y-68930035D01*
X187800000Y-68930035D01*
X187800003Y-68930035D01*
X187937178Y-68911975D01*
X187937180Y-68911974D01*
X187937183Y-68911974D01*
X188065018Y-68859024D01*
X188174791Y-68774791D01*
X188259024Y-68665018D01*
X188291975Y-68585466D01*
X188335725Y-68534241D01*
X188392678Y-68518178D01*
X188410557Y-68518178D01*
X188513710Y-68518178D01*
X188577779Y-68538995D01*
X188608107Y-68572679D01*
X188627166Y-68605691D01*
X188627167Y-68605692D01*
X188627168Y-68605693D01*
X190661985Y-70640510D01*
X190787515Y-70712984D01*
X190927525Y-70750500D01*
X190927526Y-70750500D01*
X190927527Y-70750500D01*
X193372473Y-70750500D01*
X193372474Y-70750500D01*
X193372475Y-70750500D01*
X193512485Y-70712984D01*
X193586001Y-70670539D01*
X193651894Y-70656534D01*
X193713435Y-70683934D01*
X193747118Y-70742275D01*
X193749500Y-70764937D01*
X193749500Y-75622476D01*
X193787016Y-75762485D01*
X193842268Y-75858185D01*
X193859491Y-75888015D01*
X193961985Y-75990509D01*
X194087515Y-76062984D01*
X194227525Y-76100500D01*
X194227527Y-76100500D01*
X194372473Y-76100500D01*
X194372475Y-76100500D01*
X194512485Y-76062984D01*
X194638015Y-75990509D01*
X194740509Y-75888015D01*
X194812984Y-75762485D01*
X194850500Y-75622475D01*
X194850500Y-69634182D01*
X194871317Y-69570113D01*
X194900906Y-69542270D01*
X197418447Y-67937337D01*
X197483661Y-67920451D01*
X197546347Y-67945122D01*
X197582560Y-68001926D01*
X197585107Y-68015019D01*
X197588025Y-68037179D01*
X197588026Y-68037185D01*
X197640974Y-68165014D01*
X197640976Y-68165018D01*
X197717482Y-68264722D01*
X197725209Y-68274791D01*
X197834982Y-68359024D01*
X197841612Y-68361770D01*
X197962814Y-68411973D01*
X197962821Y-68411975D01*
X198099997Y-68430035D01*
X198100000Y-68430035D01*
X198100003Y-68430035D01*
X198237178Y-68411975D01*
X198237180Y-68411974D01*
X198237183Y-68411974D01*
X198365018Y-68359024D01*
X198474791Y-68274791D01*
X198559024Y-68165018D01*
X198611974Y-68037183D01*
X198613551Y-68025209D01*
X198630035Y-67900002D01*
X198630035Y-67899997D01*
X198611975Y-67762821D01*
X198611973Y-67762814D01*
X198559023Y-67634981D01*
X198474795Y-67525214D01*
X198474794Y-67525213D01*
X198474791Y-67525209D01*
X198412254Y-67477222D01*
X198374099Y-67421705D01*
X198375863Y-67354362D01*
X198416874Y-67300918D01*
X198419960Y-67298873D01*
X198457038Y-67275237D01*
X198554931Y-67168339D01*
X198621822Y-67039747D01*
X198653152Y-66898225D01*
X198646785Y-66753415D01*
X198640794Y-66734435D01*
X198603157Y-66615191D01*
X198603156Y-66615190D01*
X198603156Y-66615188D01*
X198525237Y-66492962D01*
X198418339Y-66395069D01*
X198289747Y-66328178D01*
X198289743Y-66328177D01*
X198148226Y-66296847D01*
X198003412Y-66303215D01*
X198003411Y-66303215D01*
X197865191Y-66346842D01*
X193816288Y-68928015D01*
X193812196Y-68930498D01*
X193761987Y-68959487D01*
X193761983Y-68959490D01*
X193761728Y-68959746D01*
X193743265Y-68974569D01*
X193742965Y-68974760D01*
X193742964Y-68974760D01*
X193703825Y-69017499D01*
X193700515Y-69020958D01*
X193103900Y-69617575D01*
X193043877Y-69648158D01*
X193026825Y-69649500D01*
X192123512Y-69649500D01*
X192059443Y-69628683D01*
X192019847Y-69574183D01*
X192019847Y-69506817D01*
X192046437Y-69463425D01*
X192335077Y-69174785D01*
X192760490Y-68749373D01*
X192819799Y-68646646D01*
X192830772Y-68605693D01*
X192850500Y-68532069D01*
X192850500Y-67231751D01*
X192871317Y-67167682D01*
X192882420Y-67154682D01*
X192945634Y-67091468D01*
X193005654Y-67060886D01*
X193072190Y-67071424D01*
X193109180Y-67102187D01*
X193126525Y-67124791D01*
X193236298Y-67209024D01*
X193291167Y-67231751D01*
X193364130Y-67261973D01*
X193364137Y-67261975D01*
X193501313Y-67280035D01*
X193501316Y-67280035D01*
X193501319Y-67280035D01*
X193638494Y-67261975D01*
X193638496Y-67261974D01*
X193638499Y-67261974D01*
X193766334Y-67209024D01*
X193876107Y-67124791D01*
X193960340Y-67015018D01*
X194013290Y-66887183D01*
X194016498Y-66862821D01*
X194031351Y-66750002D01*
X194031351Y-66749997D01*
X194013291Y-66612821D01*
X194013289Y-66612814D01*
X193971520Y-66511974D01*
X193960340Y-66484983D01*
X193960339Y-66484982D01*
X193960339Y-66484981D01*
X193876111Y-66375214D01*
X193876110Y-66375213D01*
X193876107Y-66375209D01*
X193853505Y-66357865D01*
X193815349Y-66302349D01*
X193817112Y-66235007D01*
X193842783Y-66194318D01*
X195301277Y-64735824D01*
X195336638Y-64712199D01*
X195337180Y-64711974D01*
X195337183Y-64711974D01*
X195465018Y-64659024D01*
X195574791Y-64574791D01*
X195659024Y-64465018D01*
X195711974Y-64337183D01*
X195718187Y-64289997D01*
X195730035Y-64200002D01*
X195730035Y-64199997D01*
X195711975Y-64062821D01*
X195711973Y-64062814D01*
X195666066Y-63951985D01*
X195659024Y-63934983D01*
X195659023Y-63934982D01*
X195659023Y-63934981D01*
X195574795Y-63825214D01*
X195574794Y-63825213D01*
X195574791Y-63825209D01*
X195574786Y-63825205D01*
X195574785Y-63825204D01*
X195465018Y-63740976D01*
X195465014Y-63740974D01*
X195337185Y-63688026D01*
X195337178Y-63688024D01*
X195200003Y-63669965D01*
X195199997Y-63669965D01*
X195062821Y-63688024D01*
X195062814Y-63688026D01*
X194934981Y-63740976D01*
X194825214Y-63825204D01*
X194825204Y-63825214D01*
X194740977Y-63934980D01*
X194687800Y-64063361D01*
X194664172Y-64098723D01*
X194601783Y-64161112D01*
X194541759Y-64191695D01*
X194475223Y-64181157D01*
X194427588Y-64133522D01*
X194416641Y-64098268D01*
X194411974Y-64062817D01*
X194391080Y-64012375D01*
X194366066Y-63951985D01*
X194359024Y-63934983D01*
X194359023Y-63934982D01*
X194359023Y-63934981D01*
X194274795Y-63825214D01*
X194274794Y-63825213D01*
X194274791Y-63825209D01*
X194274786Y-63825205D01*
X194274785Y-63825204D01*
X194165018Y-63740976D01*
X194165014Y-63740974D01*
X194037185Y-63688026D01*
X194037178Y-63688024D01*
X193900003Y-63669965D01*
X193899997Y-63669965D01*
X193762821Y-63688024D01*
X193762814Y-63688026D01*
X193634981Y-63740976D01*
X193525207Y-63825209D01*
X193521402Y-63829015D01*
X193461377Y-63859595D01*
X193394842Y-63849053D01*
X193357857Y-63818291D01*
X193350834Y-63809139D01*
X193281378Y-63718622D01*
X193281373Y-63718618D01*
X193281372Y-63718617D01*
X193171605Y-63634389D01*
X193171601Y-63634387D01*
X193043772Y-63581439D01*
X193043765Y-63581437D01*
X192906590Y-63563378D01*
X192906584Y-63563378D01*
X192769408Y-63581437D01*
X192769401Y-63581439D01*
X192641568Y-63634389D01*
X192531801Y-63718617D01*
X192531791Y-63718627D01*
X192525606Y-63726688D01*
X192470087Y-63764843D01*
X192402744Y-63763077D01*
X192352658Y-63726686D01*
X192300738Y-63659024D01*
X192274791Y-63625209D01*
X192274786Y-63625205D01*
X192274785Y-63625204D01*
X192165018Y-63540976D01*
X192165014Y-63540974D01*
X192037185Y-63488026D01*
X192037178Y-63488024D01*
X191900003Y-63469965D01*
X191899997Y-63469965D01*
X191762821Y-63488024D01*
X191762814Y-63488026D01*
X191634981Y-63540976D01*
X191525214Y-63625204D01*
X191525204Y-63625214D01*
X191440976Y-63734981D01*
X191388026Y-63862814D01*
X191388024Y-63862821D01*
X191369965Y-63999997D01*
X191369965Y-64000002D01*
X191388024Y-64137178D01*
X191388026Y-64137185D01*
X191440974Y-64265014D01*
X191440976Y-64265018D01*
X191515761Y-64362479D01*
X191525209Y-64374791D01*
X191634982Y-64459024D01*
X191691058Y-64482251D01*
X191762814Y-64511973D01*
X191762821Y-64511975D01*
X191899997Y-64530035D01*
X191900000Y-64530035D01*
X191900003Y-64530035D01*
X192037178Y-64511975D01*
X192037180Y-64511974D01*
X192037183Y-64511974D01*
X192165018Y-64459024D01*
X192274791Y-64374791D01*
X192280979Y-64366727D01*
X192336497Y-64328571D01*
X192403839Y-64330334D01*
X192453929Y-64366727D01*
X192528881Y-64464406D01*
X192531796Y-64468204D01*
X192531799Y-64468206D01*
X192531801Y-64468208D01*
X192574759Y-64501171D01*
X192641569Y-64552437D01*
X192678237Y-64567625D01*
X192769401Y-64605386D01*
X192769408Y-64605388D01*
X192906584Y-64623448D01*
X192906587Y-64623448D01*
X192906590Y-64623448D01*
X193043765Y-64605388D01*
X193043767Y-64605387D01*
X193043770Y-64605387D01*
X193171605Y-64552437D01*
X193281378Y-64468204D01*
X193281384Y-64468195D01*
X193285175Y-64464406D01*
X193345197Y-64433819D01*
X193411733Y-64444353D01*
X193448727Y-64475119D01*
X193477007Y-64511974D01*
X193498977Y-64540606D01*
X193525209Y-64574791D01*
X193634982Y-64659024D01*
X193691942Y-64682617D01*
X193762814Y-64711973D01*
X193762817Y-64711974D01*
X193798266Y-64716641D01*
X193859067Y-64745642D01*
X193891212Y-64804844D01*
X193882419Y-64871633D01*
X193861112Y-64901783D01*
X192039510Y-66723387D01*
X191980202Y-66826110D01*
X191980201Y-66826113D01*
X191973801Y-66849999D01*
X191973801Y-66850000D01*
X191949500Y-66940689D01*
X191949500Y-68241007D01*
X191928683Y-68305076D01*
X191917575Y-68318082D01*
X191587719Y-68647938D01*
X191527695Y-68678521D01*
X191461159Y-68667983D01*
X191433569Y-68647938D01*
X191224548Y-68438917D01*
X191193965Y-68378893D01*
X191204503Y-68312357D01*
X191252138Y-68264722D01*
X191259900Y-68261143D01*
X191265018Y-68259024D01*
X191374791Y-68174791D01*
X191459024Y-68065018D01*
X191511974Y-67937183D01*
X191515022Y-67914036D01*
X191530035Y-67800002D01*
X191530035Y-67799997D01*
X191511975Y-67662821D01*
X191511973Y-67662814D01*
X191459023Y-67534981D01*
X191453856Y-67528247D01*
X191431367Y-67464746D01*
X191450499Y-67400154D01*
X191469758Y-67379861D01*
X191469739Y-67379842D01*
X191470481Y-67379099D01*
X191473980Y-67375413D01*
X191474791Y-67374791D01*
X191559024Y-67265018D01*
X191611974Y-67137183D01*
X191613606Y-67124791D01*
X191630035Y-67000002D01*
X191630035Y-66999997D01*
X191611975Y-66862821D01*
X191611973Y-66862814D01*
X191558797Y-66734435D01*
X191550500Y-66692723D01*
X191550500Y-66037316D01*
X191551466Y-66022837D01*
X191554385Y-66001057D01*
X191551400Y-65977967D01*
X191550500Y-65963992D01*
X191550500Y-65940692D01*
X191550499Y-65940686D01*
X191544809Y-65919452D01*
X191541993Y-65905211D01*
X191539176Y-65883417D01*
X191530313Y-65861878D01*
X191525828Y-65848614D01*
X191519799Y-65826115D01*
X191519799Y-65826114D01*
X191508805Y-65807073D01*
X191502403Y-65794052D01*
X191494038Y-65773722D01*
X191488199Y-65766076D01*
X191479895Y-65755201D01*
X191472129Y-65743549D01*
X191460489Y-65723387D01*
X191444947Y-65707845D01*
X191435392Y-65696924D01*
X191341394Y-65573832D01*
X189528651Y-63200002D01*
X189969965Y-63200002D01*
X189988024Y-63337178D01*
X189988026Y-63337185D01*
X190040974Y-63465014D01*
X190040976Y-63465018D01*
X190096124Y-63536888D01*
X190125209Y-63574791D01*
X190234982Y-63659024D01*
X190266271Y-63671984D01*
X190362814Y-63711973D01*
X190362821Y-63711975D01*
X190499997Y-63730035D01*
X190500000Y-63730035D01*
X190500003Y-63730035D01*
X190637178Y-63711975D01*
X190637180Y-63711974D01*
X190637183Y-63711974D01*
X190765018Y-63659024D01*
X190874791Y-63574791D01*
X190959024Y-63465018D01*
X191011974Y-63337183D01*
X191012848Y-63330549D01*
X191030035Y-63200002D01*
X191030035Y-63199997D01*
X191011975Y-63062821D01*
X191011973Y-63062814D01*
X190980957Y-62987934D01*
X190959024Y-62934983D01*
X190959023Y-62934982D01*
X190959023Y-62934981D01*
X190874795Y-62825214D01*
X190874794Y-62825213D01*
X190874791Y-62825209D01*
X190874786Y-62825205D01*
X190874785Y-62825204D01*
X190765018Y-62740976D01*
X190765014Y-62740974D01*
X190637185Y-62688026D01*
X190637178Y-62688024D01*
X190500003Y-62669965D01*
X190499997Y-62669965D01*
X190362821Y-62688024D01*
X190362814Y-62688026D01*
X190234981Y-62740976D01*
X190125214Y-62825204D01*
X190125204Y-62825214D01*
X190040976Y-62934981D01*
X189988026Y-63062814D01*
X189988024Y-63062821D01*
X189969965Y-63199997D01*
X189969965Y-63200002D01*
X189528651Y-63200002D01*
X189472870Y-63126955D01*
X189450531Y-63063401D01*
X189450500Y-63060801D01*
X189450500Y-61707278D01*
X189458797Y-61665566D01*
X189511973Y-61537185D01*
X189511975Y-61537178D01*
X189530035Y-61400002D01*
X189530035Y-61399997D01*
X189511975Y-61262821D01*
X189511973Y-61262814D01*
X189459023Y-61134981D01*
X189374795Y-61025214D01*
X189374794Y-61025213D01*
X189374791Y-61025209D01*
X189374786Y-61025205D01*
X189374785Y-61025204D01*
X189265018Y-60940976D01*
X189265014Y-60940974D01*
X189137185Y-60888026D01*
X189137178Y-60888024D01*
X189000003Y-60869965D01*
X188999997Y-60869965D01*
X188862821Y-60888024D01*
X188862814Y-60888026D01*
X188734981Y-60940976D01*
X188625214Y-61025204D01*
X188625204Y-61025214D01*
X188540976Y-61134981D01*
X188488026Y-61262814D01*
X188488024Y-61262821D01*
X188469965Y-61399997D01*
X188469965Y-61400002D01*
X188488024Y-61537178D01*
X188488026Y-61537185D01*
X188541203Y-61665566D01*
X188549500Y-61707278D01*
X188549500Y-63212683D01*
X188548534Y-63227161D01*
X188545615Y-63248938D01*
X188545615Y-63248947D01*
X188548600Y-63272033D01*
X188549500Y-63286008D01*
X188549500Y-63309306D01*
X188549501Y-63309317D01*
X188555190Y-63330549D01*
X188558004Y-63344780D01*
X188560822Y-63366578D01*
X188560825Y-63366590D01*
X188569687Y-63388127D01*
X188574171Y-63401386D01*
X188580199Y-63423882D01*
X188580200Y-63423884D01*
X188580201Y-63423886D01*
X188580962Y-63425204D01*
X188591194Y-63442927D01*
X188597591Y-63455938D01*
X188605962Y-63476278D01*
X188620101Y-63494793D01*
X188627866Y-63506444D01*
X188639508Y-63526609D01*
X188639509Y-63526610D01*
X188639511Y-63526613D01*
X188647879Y-63534981D01*
X188655052Y-63542154D01*
X188664605Y-63553073D01*
X190037122Y-65350417D01*
X190059461Y-65413971D01*
X190040178Y-65478518D01*
X189992205Y-65517274D01*
X189934980Y-65540977D01*
X189825214Y-65625204D01*
X189825204Y-65625214D01*
X189740976Y-65734981D01*
X189688026Y-65862814D01*
X189688024Y-65862821D01*
X189669965Y-65999997D01*
X189669965Y-66000002D01*
X189688024Y-66137178D01*
X189688026Y-66137185D01*
X189740974Y-66265014D01*
X189740976Y-66265018D01*
X189812222Y-66357867D01*
X189825209Y-66374791D01*
X189934982Y-66459024D01*
X189997649Y-66484981D01*
X190062814Y-66511973D01*
X190062821Y-66511975D01*
X190199997Y-66530035D01*
X190200000Y-66530035D01*
X190200003Y-66530035D01*
X190337178Y-66511975D01*
X190337180Y-66511974D01*
X190337183Y-66511974D01*
X190465018Y-66459024D01*
X190474144Y-66452020D01*
X190537645Y-66429532D01*
X190602237Y-66448664D01*
X190643247Y-66502108D01*
X190649500Y-66538495D01*
X190649500Y-66692723D01*
X190641203Y-66734435D01*
X190588026Y-66862814D01*
X190588024Y-66862821D01*
X190569965Y-66999997D01*
X190569965Y-67000002D01*
X190588024Y-67137178D01*
X190588026Y-67137185D01*
X190640976Y-67265019D01*
X190646144Y-67271754D01*
X190668631Y-67335256D01*
X190649497Y-67399847D01*
X190630242Y-67420139D01*
X190630261Y-67420158D01*
X190629557Y-67420861D01*
X190626033Y-67424576D01*
X190625215Y-67425203D01*
X190625204Y-67425214D01*
X190540975Y-67534982D01*
X190540973Y-67534986D01*
X190538856Y-67540097D01*
X190495101Y-67591319D01*
X190429595Y-67607039D01*
X190367360Y-67581254D01*
X190361082Y-67575451D01*
X187882425Y-65096794D01*
X187851842Y-65036770D01*
X187850500Y-65019719D01*
X187850500Y-64107278D01*
X187858797Y-64065566D01*
X187893754Y-63981170D01*
X187911974Y-63937183D01*
X187912749Y-63931301D01*
X187930035Y-63800002D01*
X187930035Y-63799997D01*
X187911975Y-63662821D01*
X187911973Y-63662814D01*
X187861506Y-63540976D01*
X187859024Y-63534983D01*
X187859023Y-63534982D01*
X187859023Y-63534981D01*
X187774795Y-63425214D01*
X187774794Y-63425213D01*
X187774791Y-63425209D01*
X187774786Y-63425205D01*
X187774785Y-63425204D01*
X187665018Y-63340976D01*
X187665014Y-63340974D01*
X187537185Y-63288026D01*
X187537178Y-63288024D01*
X187400003Y-63269965D01*
X187399997Y-63269965D01*
X187262821Y-63288024D01*
X187262814Y-63288026D01*
X187134981Y-63340976D01*
X187025214Y-63425204D01*
X187025204Y-63425214D01*
X186940976Y-63534981D01*
X186888026Y-63662814D01*
X186888024Y-63662821D01*
X186869965Y-63799997D01*
X186869965Y-63800002D01*
X186888024Y-63937178D01*
X186888026Y-63937185D01*
X186941203Y-64065566D01*
X186949500Y-64107278D01*
X186949500Y-65310782D01*
X186968441Y-65381468D01*
X186968441Y-65381469D01*
X186977149Y-65413971D01*
X186980201Y-65425359D01*
X187039511Y-65528086D01*
X187511422Y-65999997D01*
X187944215Y-66432790D01*
X187974798Y-66492814D01*
X187964260Y-66559350D01*
X187933499Y-66596338D01*
X187926620Y-66601616D01*
X187926610Y-66601626D01*
X187925832Y-66602641D01*
X187925077Y-66603159D01*
X187921567Y-66606670D01*
X187920916Y-66606019D01*
X187870312Y-66640794D01*
X187802970Y-66639027D01*
X187762286Y-66613356D01*
X182582425Y-61433495D01*
X182551842Y-61373471D01*
X182550500Y-61356420D01*
X182550500Y-60343220D01*
X182551433Y-60328991D01*
X182555250Y-60300001D01*
X182555250Y-60299997D01*
X182551433Y-60271007D01*
X182550500Y-60256779D01*
X182550500Y-60227526D01*
X182550499Y-60227520D01*
X182547948Y-60218001D01*
X182542928Y-60199268D01*
X182540148Y-60185297D01*
X182536330Y-60156291D01*
X182525135Y-60129266D01*
X182520556Y-60115776D01*
X182512984Y-60087515D01*
X182498359Y-60062184D01*
X182492056Y-60049403D01*
X182480861Y-60022375D01*
X182463044Y-59999155D01*
X182455137Y-59987321D01*
X182440509Y-59961985D01*
X182440507Y-59961983D01*
X182419826Y-59941301D01*
X182410428Y-59930584D01*
X182392626Y-59907385D01*
X182392624Y-59907383D01*
X182392621Y-59907379D01*
X182369413Y-59889571D01*
X182358701Y-59880176D01*
X182338016Y-59859492D01*
X182338013Y-59859489D01*
X182312681Y-59844863D01*
X182300831Y-59836945D01*
X182296163Y-59833363D01*
X182277625Y-59819139D01*
X182277623Y-59819138D01*
X182277621Y-59819137D01*
X182250598Y-59807943D01*
X182237813Y-59801639D01*
X182234978Y-59800002D01*
X189169965Y-59800002D01*
X189188024Y-59937178D01*
X189188026Y-59937185D01*
X189240974Y-60065014D01*
X189240976Y-60065018D01*
X189311011Y-60156289D01*
X189325209Y-60174791D01*
X189325213Y-60174794D01*
X189325214Y-60174795D01*
X189338886Y-60185286D01*
X189434982Y-60259024D01*
X189463912Y-60271007D01*
X189562814Y-60311973D01*
X189562821Y-60311975D01*
X189699997Y-60330035D01*
X189700000Y-60330035D01*
X189700003Y-60330035D01*
X189837178Y-60311975D01*
X189837180Y-60311974D01*
X189837183Y-60311974D01*
X189965018Y-60259024D01*
X190074791Y-60174791D01*
X190159024Y-60065018D01*
X190211974Y-59937183D01*
X190216870Y-59900000D01*
X190230035Y-59800002D01*
X190230035Y-59799997D01*
X190211975Y-59662821D01*
X190211973Y-59662814D01*
X190159023Y-59534981D01*
X190074795Y-59425214D01*
X190074794Y-59425213D01*
X190074791Y-59425209D01*
X190074786Y-59425205D01*
X190074785Y-59425204D01*
X189965018Y-59340976D01*
X189965014Y-59340974D01*
X189837185Y-59288026D01*
X189837178Y-59288024D01*
X189700003Y-59269965D01*
X189699997Y-59269965D01*
X189562821Y-59288024D01*
X189562814Y-59288026D01*
X189434981Y-59340976D01*
X189325214Y-59425204D01*
X189325204Y-59425214D01*
X189240976Y-59534981D01*
X189188026Y-59662814D01*
X189188024Y-59662821D01*
X189169965Y-59799997D01*
X189169965Y-59800002D01*
X182234978Y-59800002D01*
X182234969Y-59799997D01*
X182212485Y-59787016D01*
X182212484Y-59787015D01*
X182212481Y-59787014D01*
X182184227Y-59779443D01*
X182170729Y-59774861D01*
X182143714Y-59763671D01*
X182143704Y-59763668D01*
X182114715Y-59759852D01*
X182100735Y-59757072D01*
X182092334Y-59754821D01*
X182072475Y-59749500D01*
X182072473Y-59749500D01*
X182043221Y-59749500D01*
X182028993Y-59748567D01*
X182000002Y-59744750D01*
X182000000Y-59744750D01*
X181981833Y-59747141D01*
X181973726Y-59748209D01*
X181907489Y-59735931D01*
X181861118Y-59687066D01*
X181850500Y-59640141D01*
X181850500Y-59431752D01*
X181871317Y-59367683D01*
X181882419Y-59354683D01*
X182360489Y-58876614D01*
X182419799Y-58773887D01*
X182428742Y-58740509D01*
X182450500Y-58659309D01*
X182450500Y-57545117D01*
X182471317Y-57481048D01*
X182525817Y-57441452D01*
X182587712Y-57439832D01*
X182627525Y-57450500D01*
X187827525Y-57450500D01*
X187827526Y-57450500D01*
X187972474Y-57450500D01*
X189326825Y-57450500D01*
X189390894Y-57471317D01*
X189403900Y-57482425D01*
X189654481Y-57733006D01*
X189662486Y-57741946D01*
X189666600Y-57747084D01*
X189713919Y-57792478D01*
X189715535Y-57794060D01*
X190661985Y-58740510D01*
X190730733Y-58780201D01*
X190787515Y-58812984D01*
X190927525Y-58850500D01*
X194240500Y-58850500D01*
X194304569Y-58871317D01*
X194344165Y-58925817D01*
X194349500Y-58959500D01*
X194349500Y-62072477D01*
X194387015Y-62212484D01*
X194459488Y-62338012D01*
X194459490Y-62338015D01*
X196851985Y-64730510D01*
X196957517Y-64791438D01*
X196977515Y-64802984D01*
X197117525Y-64840500D01*
X197117526Y-64840500D01*
X197262474Y-64840500D01*
X197306779Y-64840500D01*
X197321007Y-64841433D01*
X197349998Y-64845250D01*
X197350000Y-64845250D01*
X197350002Y-64845250D01*
X197378993Y-64841433D01*
X197393221Y-64840500D01*
X197422475Y-64840500D01*
X197422479Y-64840499D01*
X197430377Y-64838382D01*
X197450725Y-64832929D01*
X197464707Y-64830147D01*
X197493709Y-64826330D01*
X197520734Y-64815135D01*
X197534221Y-64810556D01*
X197562485Y-64802984D01*
X197587821Y-64788355D01*
X197600594Y-64782056D01*
X197627625Y-64770861D01*
X197650835Y-64753050D01*
X197662690Y-64745130D01*
X197688008Y-64730513D01*
X197688007Y-64730513D01*
X197688015Y-64730509D01*
X197708694Y-64709828D01*
X197719416Y-64700426D01*
X197742621Y-64682621D01*
X197760427Y-64659414D01*
X197769830Y-64648693D01*
X197773648Y-64644875D01*
X197790509Y-64628015D01*
X197805131Y-64602687D01*
X197813050Y-64590835D01*
X197830861Y-64567625D01*
X197842056Y-64540594D01*
X197848355Y-64527821D01*
X197862984Y-64502485D01*
X197870556Y-64474221D01*
X197875135Y-64460734D01*
X197886330Y-64433709D01*
X197890147Y-64404707D01*
X197892930Y-64390723D01*
X197897199Y-64374795D01*
X197900500Y-64362475D01*
X197900500Y-64333220D01*
X197901433Y-64318991D01*
X197905250Y-64290001D01*
X197905250Y-64289997D01*
X197901433Y-64261007D01*
X197900500Y-64246779D01*
X197900500Y-64217526D01*
X197900499Y-64217520D01*
X197893578Y-64191695D01*
X197892928Y-64189268D01*
X197890148Y-64175297D01*
X197886330Y-64146291D01*
X197875135Y-64119266D01*
X197870556Y-64105776D01*
X197862984Y-64077515D01*
X197848359Y-64052184D01*
X197842056Y-64039403D01*
X197830861Y-64012375D01*
X197813044Y-63989155D01*
X197805137Y-63977321D01*
X197790509Y-63951985D01*
X197790507Y-63951983D01*
X197769826Y-63931301D01*
X197760428Y-63920584D01*
X197742626Y-63897385D01*
X197742624Y-63897383D01*
X197742621Y-63897379D01*
X197719413Y-63879571D01*
X197708701Y-63870176D01*
X197688014Y-63849490D01*
X197686449Y-63848289D01*
X197685648Y-63847124D01*
X197682965Y-63844441D01*
X197683462Y-63843943D01*
X197648294Y-63792770D01*
X197650061Y-63725427D01*
X197691072Y-63671984D01*
X197702141Y-63665308D01*
X197731893Y-63649693D01*
X197859224Y-63536888D01*
X197955859Y-63396889D01*
X198016181Y-63237831D01*
X198016181Y-63237829D01*
X198016182Y-63237827D01*
X198036686Y-63068961D01*
X198036686Y-63068956D01*
X198016182Y-62900090D01*
X198016181Y-62900087D01*
X197955860Y-62741031D01*
X197955856Y-62741024D01*
X197859225Y-62601031D01*
X197859224Y-62601030D01*
X197826529Y-62572065D01*
X197731893Y-62488225D01*
X197731891Y-62488224D01*
X197731890Y-62488223D01*
X197581267Y-62409169D01*
X197416098Y-62368459D01*
X197416097Y-62368459D01*
X197245985Y-62368459D01*
X197245983Y-62368459D01*
X197080814Y-62409169D01*
X196930191Y-62488223D01*
X196930184Y-62488229D01*
X196802857Y-62601030D01*
X196802856Y-62601031D01*
X196706225Y-62741024D01*
X196706223Y-62741027D01*
X196687180Y-62791241D01*
X196644996Y-62843764D01*
X196579996Y-62861461D01*
X196517008Y-62837572D01*
X196508188Y-62829663D01*
X195482425Y-61803900D01*
X195451842Y-61743876D01*
X195450500Y-61726825D01*
X195450500Y-58959500D01*
X195471317Y-58895431D01*
X195525817Y-58855835D01*
X195559500Y-58850500D01*
X195772473Y-58850500D01*
X195772474Y-58850500D01*
X195772475Y-58850500D01*
X195912485Y-58812984D01*
X195969267Y-58780201D01*
X196038015Y-58740510D01*
X197396100Y-57382425D01*
X197456124Y-57351842D01*
X197473175Y-57350500D01*
X198061504Y-57350500D01*
X198125573Y-57371317D01*
X198165169Y-57425817D01*
X198165169Y-57493183D01*
X198147981Y-57525854D01*
X198140975Y-57534984D01*
X198088026Y-57662814D01*
X198088024Y-57662821D01*
X198069965Y-57799997D01*
X198069965Y-57800002D01*
X198088024Y-57937178D01*
X198088026Y-57937185D01*
X198140974Y-58065014D01*
X198140976Y-58065018D01*
X198213330Y-58159311D01*
X198235818Y-58222811D01*
X198227558Y-58267377D01*
X198188026Y-58362814D01*
X198188024Y-58362821D01*
X198169965Y-58499997D01*
X198169965Y-58500002D01*
X198188024Y-58637178D01*
X198188026Y-58637185D01*
X198240974Y-58765014D01*
X198240976Y-58765018D01*
X198306569Y-58850500D01*
X198325209Y-58874791D01*
X198434982Y-58959024D01*
X198477939Y-58976817D01*
X198513865Y-58991698D01*
X198565090Y-59035448D01*
X198580817Y-59100952D01*
X198572856Y-59134113D01*
X198563670Y-59156288D01*
X198563668Y-59156296D01*
X198550460Y-59256621D01*
X198521458Y-59317424D01*
X198462256Y-59349568D01*
X198456621Y-59350460D01*
X198356296Y-59363668D01*
X198356288Y-59363670D01*
X198222373Y-59419139D01*
X198107384Y-59507374D01*
X198107374Y-59507384D01*
X198019139Y-59622373D01*
X197963670Y-59756288D01*
X197963668Y-59756295D01*
X197944750Y-59899997D01*
X197944750Y-59900002D01*
X197963668Y-60043704D01*
X197963670Y-60043711D01*
X198019139Y-60177626D01*
X198107374Y-60292615D01*
X198107379Y-60292621D01*
X198107383Y-60292624D01*
X198107384Y-60292625D01*
X198222373Y-60380860D01*
X198356288Y-60436329D01*
X198356295Y-60436331D01*
X198499997Y-60455250D01*
X198500000Y-60455250D01*
X198500003Y-60455250D01*
X198643704Y-60436331D01*
X198643706Y-60436330D01*
X198643709Y-60436330D01*
X198777625Y-60380861D01*
X198892621Y-60292621D01*
X198980861Y-60177625D01*
X199036330Y-60043709D01*
X199049539Y-59943376D01*
X199078540Y-59882576D01*
X199137742Y-59850431D01*
X199143343Y-59849543D01*
X199243709Y-59836330D01*
X199377625Y-59780861D01*
X199492621Y-59692621D01*
X199580861Y-59577625D01*
X199636330Y-59443709D01*
X199637905Y-59431752D01*
X199655250Y-59300002D01*
X199655250Y-59299997D01*
X199636331Y-59156295D01*
X199636329Y-59156288D01*
X199580860Y-59022373D01*
X199492625Y-58907384D01*
X199492624Y-58907383D01*
X199492621Y-58907379D01*
X199492616Y-58907375D01*
X199492615Y-58907374D01*
X199377627Y-58819140D01*
X199272604Y-58775638D01*
X199221379Y-58731887D01*
X199205653Y-58666383D01*
X199210955Y-58644305D01*
X199210125Y-58644083D01*
X199211975Y-58637178D01*
X199230035Y-58500002D01*
X199230035Y-58499997D01*
X199211975Y-58362821D01*
X199211973Y-58362814D01*
X199159024Y-58234983D01*
X199135796Y-58204712D01*
X199086669Y-58140689D01*
X199064182Y-58077189D01*
X199072442Y-58032623D01*
X199111973Y-57937185D01*
X199111975Y-57937178D01*
X199130035Y-57800002D01*
X199130035Y-57799997D01*
X199111975Y-57662821D01*
X199111973Y-57662814D01*
X199059024Y-57534983D01*
X199052019Y-57525854D01*
X199008490Y-57469127D01*
X198986003Y-57405626D01*
X199005136Y-57341034D01*
X199040465Y-57308376D01*
X199158015Y-57240509D01*
X199260509Y-57138015D01*
X199332984Y-57012485D01*
X199370500Y-56872475D01*
X199370500Y-56727525D01*
X199332984Y-56587515D01*
X199260509Y-56461985D01*
X199158015Y-56359491D01*
X199140710Y-56349500D01*
X199032485Y-56287016D01*
X198892476Y-56249500D01*
X198892475Y-56249500D01*
X197127525Y-56249500D01*
X197127523Y-56249500D01*
X196987514Y-56287016D01*
X196861987Y-56359488D01*
X195503900Y-57717575D01*
X195443876Y-57748158D01*
X195426825Y-57749500D01*
X191273175Y-57749500D01*
X191209106Y-57728683D01*
X191196100Y-57717575D01*
X190839466Y-57360941D01*
X190808883Y-57300917D01*
X190819421Y-57234381D01*
X190821001Y-57231395D01*
X191666693Y-55693774D01*
X191715808Y-55647671D01*
X191782644Y-55639241D01*
X191803907Y-55645601D01*
X191831595Y-55657070D01*
X191837809Y-55659644D01*
X191837813Y-55659645D01*
X191974989Y-55677705D01*
X191974992Y-55677705D01*
X191974995Y-55677705D01*
X192112170Y-55659645D01*
X192112172Y-55659644D01*
X192112175Y-55659644D01*
X192240010Y-55606694D01*
X192349783Y-55522461D01*
X192434016Y-55412688D01*
X192486966Y-55284853D01*
X192496450Y-55212821D01*
X192505027Y-55147672D01*
X192505027Y-55147667D01*
X192498752Y-55100002D01*
X194669965Y-55100002D01*
X194688024Y-55237178D01*
X194688026Y-55237185D01*
X194740974Y-55365014D01*
X194740976Y-55365018D01*
X194821505Y-55469965D01*
X194825209Y-55474791D01*
X194934982Y-55559024D01*
X194998899Y-55585499D01*
X195062814Y-55611973D01*
X195062821Y-55611975D01*
X195199997Y-55630035D01*
X195200000Y-55630035D01*
X195200003Y-55630035D01*
X195337178Y-55611975D01*
X195337180Y-55611974D01*
X195337183Y-55611974D01*
X195465018Y-55559024D01*
X195574791Y-55474791D01*
X195659024Y-55365018D01*
X195711974Y-55237183D01*
X195715182Y-55212821D01*
X195730035Y-55100002D01*
X195730035Y-55099997D01*
X195711975Y-54962821D01*
X195711973Y-54962814D01*
X195678769Y-54882653D01*
X195659024Y-54834983D01*
X195659023Y-54834982D01*
X195659023Y-54834981D01*
X195574795Y-54725214D01*
X195574794Y-54725213D01*
X195574791Y-54725209D01*
X195574786Y-54725205D01*
X195574785Y-54725204D01*
X195465018Y-54640976D01*
X195465014Y-54640974D01*
X195337185Y-54588026D01*
X195337178Y-54588024D01*
X195200003Y-54569965D01*
X195199997Y-54569965D01*
X195062821Y-54588024D01*
X195062814Y-54588026D01*
X194934981Y-54640976D01*
X194825214Y-54725204D01*
X194825204Y-54725214D01*
X194740976Y-54834981D01*
X194688026Y-54962814D01*
X194688024Y-54962821D01*
X194669965Y-55099997D01*
X194669965Y-55100002D01*
X192498752Y-55100002D01*
X192486967Y-55010491D01*
X192486965Y-55010484D01*
X192437463Y-54890976D01*
X192434016Y-54882653D01*
X192434015Y-54882652D01*
X192434015Y-54882651D01*
X192349787Y-54772884D01*
X192349786Y-54772883D01*
X192349783Y-54772879D01*
X192349778Y-54772875D01*
X192349777Y-54772874D01*
X192240010Y-54688646D01*
X192240006Y-54688644D01*
X192112177Y-54635696D01*
X192112170Y-54635694D01*
X191974995Y-54617635D01*
X191974989Y-54617635D01*
X191837813Y-54635694D01*
X191837806Y-54635696D01*
X191709973Y-54688646D01*
X191600206Y-54772874D01*
X191600199Y-54772881D01*
X191539033Y-54852594D01*
X191483515Y-54890750D01*
X191416172Y-54888986D01*
X191404866Y-54883915D01*
X191401792Y-54882716D01*
X191401528Y-54882651D01*
X191261034Y-54848115D01*
X191261033Y-54848115D01*
X191116112Y-54851124D01*
X190976914Y-54891537D01*
X190852917Y-54966600D01*
X190752572Y-55071198D01*
X190752567Y-55071204D01*
X190030349Y-56384325D01*
X189981233Y-56430431D01*
X189914397Y-56438861D01*
X189880342Y-56426193D01*
X189812484Y-56387015D01*
X189766861Y-56374791D01*
X189766860Y-56374790D01*
X189672478Y-56349500D01*
X189672475Y-56349500D01*
X188759500Y-56349500D01*
X188695431Y-56328683D01*
X188655835Y-56274183D01*
X188650500Y-56240500D01*
X188650500Y-55850128D01*
X188671317Y-55786059D01*
X188725817Y-55746463D01*
X188793183Y-55746463D01*
X188825850Y-55763650D01*
X188884982Y-55809024D01*
X188948899Y-55835499D01*
X189012814Y-55861973D01*
X189012821Y-55861975D01*
X189149997Y-55880035D01*
X189150000Y-55880035D01*
X189150003Y-55880035D01*
X189287178Y-55861975D01*
X189287180Y-55861974D01*
X189287183Y-55861974D01*
X189415018Y-55809024D01*
X189524791Y-55724791D01*
X189609024Y-55615018D01*
X189661974Y-55487183D01*
X189663606Y-55474791D01*
X189680035Y-55350002D01*
X189680035Y-55349997D01*
X189661975Y-55212821D01*
X189661973Y-55212814D01*
X189609023Y-55084981D01*
X189524795Y-54975214D01*
X189524794Y-54975213D01*
X189524791Y-54975209D01*
X189524786Y-54975205D01*
X189524785Y-54975204D01*
X189415018Y-54890976D01*
X189415014Y-54890974D01*
X189287185Y-54838026D01*
X189287178Y-54838024D01*
X189150003Y-54819965D01*
X189149997Y-54819965D01*
X189012821Y-54838024D01*
X189012814Y-54838026D01*
X188884981Y-54890976D01*
X188825855Y-54936346D01*
X188762354Y-54958834D01*
X188697762Y-54939701D01*
X188656752Y-54886256D01*
X188650500Y-54849871D01*
X188650500Y-54069563D01*
X188669795Y-54007643D01*
X188692469Y-53974795D01*
X188724818Y-53927930D01*
X188785140Y-53768872D01*
X188785140Y-53768870D01*
X188785141Y-53768868D01*
X188805645Y-53600002D01*
X190129965Y-53600002D01*
X190148024Y-53737178D01*
X190148026Y-53737185D01*
X190200974Y-53865014D01*
X190200976Y-53865018D01*
X190285209Y-53974791D01*
X190394982Y-54059024D01*
X190420426Y-54069563D01*
X190522814Y-54111973D01*
X190522821Y-54111975D01*
X190659997Y-54130035D01*
X190660000Y-54130035D01*
X190660003Y-54130035D01*
X190797178Y-54111975D01*
X190797180Y-54111974D01*
X190797183Y-54111974D01*
X190925018Y-54059024D01*
X191034791Y-53974791D01*
X191119024Y-53865018D01*
X191171974Y-53737183D01*
X191190035Y-53600000D01*
X191171974Y-53462817D01*
X191158849Y-53431131D01*
X191119023Y-53334981D01*
X191034795Y-53225214D01*
X191034794Y-53225213D01*
X191034791Y-53225209D01*
X191034786Y-53225205D01*
X191034785Y-53225204D01*
X190925018Y-53140976D01*
X190925014Y-53140974D01*
X190797185Y-53088026D01*
X190797178Y-53088024D01*
X190660003Y-53069965D01*
X190659997Y-53069965D01*
X190522821Y-53088024D01*
X190522814Y-53088026D01*
X190394981Y-53140976D01*
X190285214Y-53225204D01*
X190285204Y-53225214D01*
X190200976Y-53334981D01*
X190148026Y-53462814D01*
X190148024Y-53462821D01*
X190129965Y-53599997D01*
X190129965Y-53600002D01*
X188805645Y-53600002D01*
X188805645Y-53599997D01*
X188785141Y-53431131D01*
X188785140Y-53431128D01*
X188724819Y-53272072D01*
X188724815Y-53272065D01*
X188628184Y-53132072D01*
X188628183Y-53132071D01*
X188578464Y-53088024D01*
X188500852Y-53019266D01*
X188500850Y-53019265D01*
X188500849Y-53019264D01*
X188350226Y-52940210D01*
X188185057Y-52899500D01*
X188185056Y-52899500D01*
X188014944Y-52899500D01*
X188014942Y-52899500D01*
X187849773Y-52940210D01*
X187699150Y-53019264D01*
X187699143Y-53019270D01*
X187571816Y-53132071D01*
X187571815Y-53132072D01*
X187475184Y-53272065D01*
X187475180Y-53272072D01*
X187414859Y-53431128D01*
X187414858Y-53431131D01*
X187394355Y-53599997D01*
X187394355Y-53600002D01*
X187414858Y-53768868D01*
X187414859Y-53768871D01*
X187475180Y-53927927D01*
X187475181Y-53927929D01*
X187530205Y-54007643D01*
X187549500Y-54069563D01*
X187549500Y-56240500D01*
X187528683Y-56304569D01*
X187474183Y-56344165D01*
X187440500Y-56349500D01*
X187187160Y-56349500D01*
X187123091Y-56328683D01*
X187083495Y-56274183D01*
X187083495Y-56206817D01*
X187086457Y-56198788D01*
X187111973Y-56137185D01*
X187111975Y-56137178D01*
X187130035Y-56000002D01*
X187130035Y-55999997D01*
X187111975Y-55862821D01*
X187111973Y-55862814D01*
X187059023Y-55734981D01*
X186974795Y-55625214D01*
X186974794Y-55625213D01*
X186974791Y-55625209D01*
X186974786Y-55625205D01*
X186974785Y-55625204D01*
X186865018Y-55540976D01*
X186865014Y-55540974D01*
X186737185Y-55488026D01*
X186737178Y-55488024D01*
X186600003Y-55469965D01*
X186599997Y-55469965D01*
X186462821Y-55488024D01*
X186462814Y-55488026D01*
X186334981Y-55540976D01*
X186225214Y-55625204D01*
X186225204Y-55625214D01*
X186140976Y-55734981D01*
X186088026Y-55862814D01*
X186088024Y-55862821D01*
X186069965Y-55999997D01*
X186069965Y-56000002D01*
X186088024Y-56137178D01*
X186088026Y-56137185D01*
X186113543Y-56198788D01*
X186118828Y-56265946D01*
X186083629Y-56323385D01*
X186021391Y-56349164D01*
X186012840Y-56349500D01*
X182973174Y-56349500D01*
X182909105Y-56328683D01*
X182896099Y-56317575D01*
X182670894Y-56092370D01*
X182419819Y-55841294D01*
X182410418Y-55830573D01*
X182392623Y-55807382D01*
X182392621Y-55807379D01*
X182389766Y-55805188D01*
X182369418Y-55789574D01*
X182358702Y-55780176D01*
X182338016Y-55759491D01*
X182338015Y-55759490D01*
X182312681Y-55744863D01*
X182300829Y-55736943D01*
X182277626Y-55719139D01*
X182250601Y-55707945D01*
X182237817Y-55701641D01*
X182212485Y-55687016D01*
X182212482Y-55687015D01*
X182212478Y-55687013D01*
X182184227Y-55679443D01*
X182170729Y-55674861D01*
X182143708Y-55663669D01*
X182143710Y-55663669D01*
X182114705Y-55659850D01*
X182100728Y-55657070D01*
X182097831Y-55656293D01*
X182072474Y-55649500D01*
X182072473Y-55649500D01*
X182043221Y-55649500D01*
X182028993Y-55648567D01*
X182000002Y-55644750D01*
X181999998Y-55644750D01*
X181971007Y-55648567D01*
X181956779Y-55649500D01*
X181927526Y-55649500D01*
X181899265Y-55657071D01*
X181885289Y-55659851D01*
X181856294Y-55663668D01*
X181856289Y-55663670D01*
X181829264Y-55674863D01*
X181815773Y-55679443D01*
X181787512Y-55687016D01*
X181762177Y-55701642D01*
X181749401Y-55707942D01*
X181722381Y-55719135D01*
X181722374Y-55719139D01*
X181699164Y-55736948D01*
X181687316Y-55744864D01*
X181661987Y-55759488D01*
X181661986Y-55759489D01*
X181641298Y-55780176D01*
X181630584Y-55789571D01*
X181607383Y-55807374D01*
X181607374Y-55807383D01*
X181589571Y-55830584D01*
X181580176Y-55841298D01*
X181559489Y-55861986D01*
X181559488Y-55861987D01*
X181544864Y-55887316D01*
X181536948Y-55899164D01*
X181519139Y-55922374D01*
X181519135Y-55922381D01*
X181507942Y-55949401D01*
X181501642Y-55962177D01*
X181487016Y-55987512D01*
X181479443Y-56015773D01*
X181474863Y-56029264D01*
X181463670Y-56056289D01*
X181463668Y-56056294D01*
X181459851Y-56085289D01*
X181457071Y-56099265D01*
X181449500Y-56127525D01*
X181449500Y-56156779D01*
X181448567Y-56171007D01*
X181444750Y-56199997D01*
X181444750Y-56200001D01*
X181448567Y-56228991D01*
X181449500Y-56243220D01*
X181449500Y-56272474D01*
X181449958Y-56274183D01*
X181457070Y-56300728D01*
X181459850Y-56314705D01*
X181463669Y-56343709D01*
X181474861Y-56370729D01*
X181479443Y-56384227D01*
X181487013Y-56412478D01*
X181487015Y-56412482D01*
X181487016Y-56412485D01*
X181494930Y-56426193D01*
X181501641Y-56437817D01*
X181507945Y-56450601D01*
X181519139Y-56477626D01*
X181526975Y-56487838D01*
X181549463Y-56551339D01*
X181549500Y-56554193D01*
X181549500Y-58368247D01*
X181528683Y-58432316D01*
X181517575Y-58445322D01*
X181039510Y-58923387D01*
X180980201Y-59026110D01*
X180980202Y-59026110D01*
X180980201Y-59026115D01*
X180949500Y-59140689D01*
X180949500Y-63976138D01*
X180949104Y-63985420D01*
X180946086Y-64020731D01*
X180000000Y-64020731D01*
X180000000Y-51024835D01*
X180000002Y-51024171D01*
X180000006Y-51023474D01*
X180000146Y-51000579D01*
X180000159Y-50999476D01*
X180000600Y-50975513D01*
X180001147Y-50953185D01*
X180001361Y-50948543D01*
X180004191Y-50906642D01*
X180005221Y-50897356D01*
X180011638Y-50855850D01*
X180012442Y-50851293D01*
X180021060Y-50807968D01*
X180022222Y-50802798D01*
X180044065Y-50715592D01*
X180047165Y-50705375D01*
X180076541Y-50623276D01*
X180080619Y-50613428D01*
X180117918Y-50534566D01*
X180122947Y-50525157D01*
X180167782Y-50450354D01*
X180173721Y-50441468D01*
X180225663Y-50371431D01*
X180232430Y-50363183D01*
X180291023Y-50298536D01*
X180298536Y-50291023D01*
X180363183Y-50232430D01*
X180371418Y-50225672D01*
X180441486Y-50173707D01*
X180450336Y-50167793D01*
X180525161Y-50122944D01*
X180534561Y-50117920D01*
X180613421Y-50080623D01*
X180623267Y-50076545D01*
X180705372Y-50047167D01*
X180715596Y-50044064D01*
X180802817Y-50022217D01*
X180807968Y-50021060D01*
X180851293Y-50012442D01*
X180855850Y-50011638D01*
X180897356Y-50005221D01*
X180906642Y-50004191D01*
X180948568Y-50001359D01*
X180953185Y-50001147D01*
X180975513Y-50000600D01*
X180999476Y-50000159D01*
X181000579Y-50000146D01*
X181023474Y-50000006D01*
X181024171Y-50000002D01*
X181024835Y-50000000D01*
X198975165Y-50000000D01*
X198975829Y-50000002D01*
G37*
%TD.AperFunction*%
%TD*%
M02*
