M48
; DRILL file {KiCad 8.0.0} date 2024-03-06T16:17:20+0300
; FORMAT={-:-/ absolute / metric / decimal}
; #@! TF.CreationDate,2024-03-06T16:17:20+03:00
; #@! TF.GenerationSoftware,Kicad,Pcbnew,8.0.0
; #@! TF.FileFunction,MixedPlating,1,4
FMAT,2
METRIC
; #@! TA.AperFunction,Plated,PTH,ViaDrill
T1C0.250
; #@! TA.AperFunction,Plated,PTH,ViaDrill
T2C0.300
; #@! TA.AperFunction,Plated,PTH,ViaDrill
T3C0.400
%
G90
G05
T1
X180.975Y-72.8
X181.0Y-78.597
X182.4Y-79.72
X182.8Y-65.2
X182.96Y-60.3
X183.65Y-68.8
X183.741Y-75.178
X183.75Y-74.25
X184.6Y-73.8
X185.6Y-59.5
X186.1Y-68.4
X186.5Y-79.3
X186.6Y-56.0
X187.25Y-79.75
X187.4Y-63.8
X187.5Y-78.725
X187.8Y-68.4
X188.301Y-66.976
X188.5Y-57.7
X188.7Y-78.8
X189.0Y-61.4
X189.068Y-67.968
X189.08Y-75.52
X189.1Y-64.5
X189.15Y-55.35
X189.7Y-59.8
X189.75Y-79.75
X190.102Y-75.576
X190.2Y-66.0
X190.3Y-55.3
X190.5Y-63.2
X190.66Y-53.6
X191.0Y-67.8
X191.0Y-71.9
X191.1Y-75.576
X191.1Y-67.0
X191.2Y-55.4
X191.475Y-69.398
X191.508Y-68.206
X191.8Y-78.8
X191.9Y-64.0
X191.975Y-55.148
X192.0Y-57.5
X192.0Y-59.5
X192.0Y-61.5
X192.907Y-64.093
X193.25Y-79.5
X193.501Y-66.75
X193.9Y-64.2
X194.0Y-57.3
X194.0Y-61.5
X194.3Y-75.55
X194.8Y-65.9
X195.2Y-55.1
X195.2Y-64.2
X196.0Y-59.5
X196.0Y-61.5
X196.2Y-78.8
X196.25Y-75.75
X197.3Y-72.0
X197.8Y-78.4
X198.1Y-66.85
X198.1Y-67.9
X198.6Y-57.8
X198.7Y-58.5
X198.75Y-76.0
X198.8Y-54.6
X198.82Y-56.8
X199.2Y-75.1
X199.5Y-65.3
X199.5Y-66.3
X199.5Y-76.25
X199.7Y-58.8
X199.75Y-68.0
T2
X180.6Y-57.0
X180.6Y-59.0
X180.6Y-61.0
X180.6Y-63.0
X180.6Y-65.0
X180.7Y-68.5
X180.75Y-70.0
X181.0Y-51.0
X181.0Y-53.0
X181.0Y-55.0
X181.0Y-74.4
X182.0Y-56.2
X182.0Y-60.3
X182.4Y-70.4
X182.4Y-76.0
X183.0Y-51.0
X183.0Y-53.0
X183.0Y-73.0
X183.2Y-70.4
X183.96Y-61.0
X184.0Y-65.038
X184.4Y-70.4
X185.0Y-51.0
X185.0Y-53.0
X185.5Y-55.0
X186.5Y-55.0
X188.6Y-69.4
X197.1Y-72.9
X197.35Y-64.29
X197.8Y-65.9
X198.28Y-53.6
X198.5Y-59.9
X199.1Y-59.3
X199.1Y-79.1
X199.4Y-52.072
T3
X184.9Y-60.7
X188.1Y-53.6
X197.331Y-63.069
X199.3Y-62.9
M30
