%TF.GenerationSoftware,KiCad,Pcbnew,8.0.0*%
%TF.CreationDate,2024-02-29T13:44:40+03:00*%
%TF.ProjectId,micro17,6d696372-6f31-4372-9e6b-696361645f70,rev?*%
%TF.SameCoordinates,Original*%
%TF.FileFunction,Copper,L1,Top*%
%TF.FilePolarity,Positive*%
%FSLAX46Y46*%
G04 Gerber Fmt 4.6, Leading zero omitted, Abs format (unit mm)*
G04 Created by KiCad (PCBNEW 8.0.0) date 2024-02-29 13:44:40*
%MOMM*%
%LPD*%
G01*
G04 APERTURE LIST*
G04 Aperture macros list*
%AMRoundRect*
0 Rectangle with rounded corners*
0 $1 Rounding radius*
0 $2 $3 $4 $5 $6 $7 $8 $9 X,Y pos of 4 corners*
0 Add a 4 corners polygon primitive as box body*
4,1,4,$2,$3,$4,$5,$6,$7,$8,$9,$2,$3,0*
0 Add four circle primitives for the rounded corners*
1,1,$1+$1,$2,$3*
1,1,$1+$1,$4,$5*
1,1,$1+$1,$6,$7*
1,1,$1+$1,$8,$9*
0 Add four rect primitives between the rounded corners*
20,1,$1+$1,$2,$3,$4,$5,0*
20,1,$1+$1,$4,$5,$6,$7,0*
20,1,$1+$1,$6,$7,$8,$9,0*
20,1,$1+$1,$8,$9,$2,$3,0*%
G04 Aperture macros list end*
%TA.AperFunction,SMDPad,CuDef*%
%ADD10R,1.000000X2.500000*%
%TD*%
%TA.AperFunction,SMDPad,CuDef*%
%ADD11RoundRect,0.135000X-0.185000X0.135000X-0.185000X-0.135000X0.185000X-0.135000X0.185000X0.135000X0*%
%TD*%
%TA.AperFunction,SMDPad,CuDef*%
%ADD12RoundRect,0.140000X-0.140000X-0.170000X0.140000X-0.170000X0.140000X0.170000X-0.140000X0.170000X0*%
%TD*%
%TA.AperFunction,SMDPad,CuDef*%
%ADD13RoundRect,0.140000X0.140000X0.170000X-0.140000X0.170000X-0.140000X-0.170000X0.140000X-0.170000X0*%
%TD*%
%TA.AperFunction,SMDPad,CuDef*%
%ADD14RoundRect,0.250000X-0.450000X-0.425000X0.450000X-0.425000X0.450000X0.425000X-0.450000X0.425000X0*%
%TD*%
%TA.AperFunction,SMDPad,CuDef*%
%ADD15RoundRect,0.140000X0.170000X-0.140000X0.170000X0.140000X-0.170000X0.140000X-0.170000X-0.140000X0*%
%TD*%
%TA.AperFunction,SMDPad,CuDef*%
%ADD16RoundRect,0.135000X-0.135000X-0.185000X0.135000X-0.185000X0.135000X0.185000X-0.135000X0.185000X0*%
%TD*%
%TA.AperFunction,SMDPad,CuDef*%
%ADD17RoundRect,0.150000X0.150000X-0.512500X0.150000X0.512500X-0.150000X0.512500X-0.150000X-0.512500X0*%
%TD*%
%TA.AperFunction,SMDPad,CuDef*%
%ADD18RoundRect,0.135000X0.185000X-0.135000X0.185000X0.135000X-0.185000X0.135000X-0.185000X-0.135000X0*%
%TD*%
%TA.AperFunction,SMDPad,CuDef*%
%ADD19RoundRect,0.135000X0.135000X0.185000X-0.135000X0.185000X-0.135000X-0.185000X0.135000X-0.185000X0*%
%TD*%
%TA.AperFunction,SMDPad,CuDef*%
%ADD20RoundRect,0.140000X-0.170000X0.140000X-0.170000X-0.140000X0.170000X-0.140000X0.170000X0.140000X0*%
%TD*%
%TA.AperFunction,SMDPad,CuDef*%
%ADD21RoundRect,0.250000X-0.425000X0.450000X-0.425000X-0.450000X0.425000X-0.450000X0.425000X0.450000X0*%
%TD*%
%TA.AperFunction,SMDPad,CuDef*%
%ADD22C,1.000000*%
%TD*%
%TA.AperFunction,SMDPad,CuDef*%
%ADD23RoundRect,0.200000X0.275000X-0.200000X0.275000X0.200000X-0.275000X0.200000X-0.275000X-0.200000X0*%
%TD*%
%TA.AperFunction,SMDPad,CuDef*%
%ADD24RoundRect,0.250000X0.450000X0.425000X-0.450000X0.425000X-0.450000X-0.425000X0.450000X-0.425000X0*%
%TD*%
%TA.AperFunction,SMDPad,CuDef*%
%ADD25R,0.750000X0.300000*%
%TD*%
%TA.AperFunction,SMDPad,CuDef*%
%ADD26R,1.750000X1.450000*%
%TD*%
%TA.AperFunction,SMDPad,CuDef*%
%ADD27RoundRect,0.100000X-0.100000X0.637500X-0.100000X-0.637500X0.100000X-0.637500X0.100000X0.637500X0*%
%TD*%
%TA.AperFunction,SMDPad,CuDef*%
%ADD28R,0.300000X0.750000*%
%TD*%
%TA.AperFunction,SMDPad,CuDef*%
%ADD29R,1.450000X1.750000*%
%TD*%
%TA.AperFunction,SMDPad,CuDef*%
%ADD30RoundRect,0.250000X-0.250000X-0.475000X0.250000X-0.475000X0.250000X0.475000X-0.250000X0.475000X0*%
%TD*%
%TA.AperFunction,SMDPad,CuDef*%
%ADD31RoundRect,0.062500X-0.375000X-0.062500X0.375000X-0.062500X0.375000X0.062500X-0.375000X0.062500X0*%
%TD*%
%TA.AperFunction,SMDPad,CuDef*%
%ADD32RoundRect,0.062500X-0.062500X-0.375000X0.062500X-0.375000X0.062500X0.375000X-0.062500X0.375000X0*%
%TD*%
%TA.AperFunction,HeatsinkPad*%
%ADD33R,5.600000X5.600000*%
%TD*%
%TA.AperFunction,SMDPad,CuDef*%
%ADD34RoundRect,0.225000X-0.225000X-0.250000X0.225000X-0.250000X0.225000X0.250000X-0.225000X0.250000X0*%
%TD*%
%TA.AperFunction,SMDPad,CuDef*%
%ADD35R,1.200000X1.400000*%
%TD*%
%TA.AperFunction,ViaPad*%
%ADD36C,0.450000*%
%TD*%
%TA.AperFunction,ViaPad*%
%ADD37C,0.800000*%
%TD*%
%TA.AperFunction,ViaPad*%
%ADD38C,0.500000*%
%TD*%
%TA.AperFunction,Conductor*%
%ADD39C,0.300000*%
%TD*%
%TA.AperFunction,Conductor*%
%ADD40C,0.200000*%
%TD*%
%TA.AperFunction,Conductor*%
%ADD41C,0.500000*%
%TD*%
%TA.AperFunction,Conductor*%
%ADD42C,0.250000*%
%TD*%
G04 APERTURE END LIST*
D10*
%TO.P,J1,1,Pin_1*%
%TO.N,+3V3*%
X187905000Y-52072500D03*
%TO.P,J1,2,Pin_2*%
%TO.N,/MCU/~{RST}*%
X190445000Y-52072500D03*
%TO.P,J1,3,Pin_3*%
%TO.N,/MCU/SWCLK*%
X192985000Y-52072500D03*
%TO.P,J1,4,Pin_4*%
%TO.N,/MCU/SWDIO*%
X195525000Y-52072500D03*
%TO.P,J1,5,Pin_5*%
%TO.N,GND*%
X198065000Y-52072500D03*
%TD*%
D11*
%TO.P,R13,1*%
%TO.N,Net-(C16-Pad2)*%
X187600000Y-68865000D03*
%TO.P,R13,2*%
%TO.N,Net-(C24-Pad1)*%
X187600000Y-69885000D03*
%TD*%
D12*
%TO.P,C19,1*%
%TO.N,Net-(C19-Pad1)*%
X192107500Y-66500000D03*
%TO.P,C19,2*%
%TO.N,Net-(U5A-P0A)*%
X193067500Y-66500000D03*
%TD*%
D13*
%TO.P,C31,1*%
%TO.N,Net-(C31-Pad1)*%
X193750000Y-77421250D03*
%TO.P,C31,2*%
%TO.N,Net-(U7B--)*%
X192790000Y-77421250D03*
%TD*%
D14*
%TO.P,C28,1*%
%TO.N,Net-(C28-Pad1)*%
X193550000Y-71200000D03*
%TO.P,C28,2*%
%TO.N,GND*%
X196250000Y-71200000D03*
%TD*%
D15*
%TO.P,C20,1*%
%TO.N,Net-(C20-Pad1)*%
X199200000Y-70480000D03*
%TO.P,C20,2*%
%TO.N,Net-(U5B-P1A)*%
X199200000Y-69520000D03*
%TD*%
D11*
%TO.P,R1,1*%
%TO.N,/MCU/VERSION_SET*%
X187900000Y-62790000D03*
%TO.P,R1,2*%
%TO.N,+3V3*%
X187900000Y-63810000D03*
%TD*%
D16*
%TO.P,R10,1*%
%TO.N,Net-(C19-Pad1)*%
X192077500Y-67500000D03*
%TO.P,R10,2*%
%TO.N,Net-(U6A-+)*%
X193097500Y-67500000D03*
%TD*%
D17*
%TO.P,U2,1,VIN*%
%TO.N,+5V*%
X182000000Y-59337500D03*
%TO.P,U2,2,GND*%
%TO.N,GND*%
X182950000Y-59337500D03*
%TO.P,U2,3,CE*%
%TO.N,+5V*%
X183900000Y-59337500D03*
%TO.P,U2,4,NC*%
%TO.N,unconnected-(U2-NC-Pad4)*%
X183900000Y-57062500D03*
%TO.P,U2,5,VOUT*%
%TO.N,+3V3*%
X182000000Y-57062500D03*
%TD*%
D18*
%TO.P,R5,1*%
%TO.N,/MCU/VDDA*%
X196800000Y-65310000D03*
%TO.P,R5,2*%
%TO.N,+3V3*%
X196800000Y-64290000D03*
%TD*%
D16*
%TO.P,R20,1*%
%TO.N,+5V*%
X192090000Y-69500000D03*
%TO.P,R20,2*%
%TO.N,Net-(C28-Pad1)*%
X193110000Y-69500000D03*
%TD*%
D19*
%TO.P,R16,1*%
%TO.N,+3V3*%
X183935000Y-79037500D03*
%TO.P,R16,2*%
%TO.N,Net-(U5E-~{RESET})*%
X182915000Y-79037500D03*
%TD*%
D18*
%TO.P,R9,1*%
%TO.N,Net-(C15-Pad1)*%
X199200000Y-72410000D03*
%TO.P,R9,2*%
%TO.N,Net-(C20-Pad1)*%
X199200000Y-71390000D03*
%TD*%
D11*
%TO.P,R4,1*%
%TO.N,PTT_IN*%
X189300000Y-54690000D03*
%TO.P,R4,2*%
%TO.N,Net-(U1-PC13)*%
X189300000Y-55710000D03*
%TD*%
D13*
%TO.P,C17,1*%
%TO.N,Net-(U6A-+)*%
X193080000Y-68500000D03*
%TO.P,C17,2*%
%TO.N,GND*%
X192120000Y-68500000D03*
%TD*%
D20*
%TO.P,C7,1*%
%TO.N,+3V3*%
X197800000Y-64320000D03*
%TO.P,C7,2*%
%TO.N,GND*%
X197800000Y-65280000D03*
%TD*%
D21*
%TO.P,C34,1*%
%TO.N,Net-(U7B--)*%
X191200000Y-74050000D03*
%TO.P,C34,2*%
%TO.N,BASEBAND_OUT_FILT*%
X191200000Y-76750000D03*
%TD*%
D12*
%TO.P,C13,1*%
%TO.N,+5V*%
X182280000Y-61000000D03*
%TO.P,C13,2*%
%TO.N,GND*%
X183240000Y-61000000D03*
%TD*%
D16*
%TO.P,R21,1*%
%TO.N,Net-(C28-Pad1)*%
X194190000Y-69500000D03*
%TO.P,R21,2*%
%TO.N,GND*%
X195210000Y-69500000D03*
%TD*%
D22*
%TO.P,TP2,1,1*%
%TO.N,BASEBAND_OUT_FILT*%
X190800000Y-78800000D03*
%TD*%
D15*
%TO.P,C24,1*%
%TO.N,Net-(C24-Pad1)*%
X186600000Y-69845000D03*
%TO.P,C24,2*%
%TO.N,GND*%
X186600000Y-68885000D03*
%TD*%
D23*
%TO.P,R24,1*%
%TO.N,Net-(C31-Pad1)*%
X193370000Y-75846250D03*
%TO.P,R24,2*%
%TO.N,Net-(U7B-+)*%
X193370000Y-74196250D03*
%TD*%
D11*
%TO.P,R14,1*%
%TO.N,Net-(C24-Pad1)*%
X188000000Y-70865000D03*
%TO.P,R14,2*%
%TO.N,Net-(U5D-P3A)*%
X188000000Y-71885000D03*
%TD*%
D16*
%TO.P,R8,1*%
%TO.N,Net-(C14-Pad1)*%
X192090000Y-65400000D03*
%TO.P,R8,2*%
%TO.N,Net-(C19-Pad1)*%
X193110000Y-65400000D03*
%TD*%
D19*
%TO.P,R3,1*%
%TO.N,GND*%
X193810000Y-54800000D03*
%TO.P,R3,2*%
%TO.N,/MCU/BOOT0*%
X192790000Y-54800000D03*
%TD*%
D18*
%TO.P,R11,1*%
%TO.N,Net-(C20-Pad1)*%
X198200000Y-70510000D03*
%TO.P,R11,2*%
%TO.N,Net-(U6B-+)*%
X198200000Y-69490000D03*
%TD*%
D24*
%TO.P,C26,1*%
%TO.N,Net-(C26-Pad1)*%
X184250000Y-67000000D03*
%TO.P,C26,2*%
%TO.N,GND*%
X181550000Y-67000000D03*
%TD*%
D21*
%TO.P,C27,1*%
%TO.N,Net-(U4A-+)*%
X188600000Y-74050000D03*
%TO.P,C27,2*%
%TO.N,BASEBAND_IN*%
X188600000Y-76750000D03*
%TD*%
D12*
%TO.P,C32,1*%
%TO.N,Net-(U7B-+)*%
X195320000Y-72900000D03*
%TO.P,C32,2*%
%TO.N,GND*%
X196280000Y-72900000D03*
%TD*%
D15*
%TO.P,C23,1*%
%TO.N,Net-(U5B-P1W)*%
X186300000Y-63780000D03*
%TO.P,C23,2*%
%TO.N,AUDIO_IN_FILT*%
X186300000Y-62820000D03*
%TD*%
%TO.P,C30,1*%
%TO.N,+5V*%
X198800000Y-67280000D03*
%TO.P,C30,2*%
%TO.N,GND*%
X198800000Y-66320000D03*
%TD*%
D18*
%TO.P,R17,1*%
%TO.N,Net-(U4A-+)*%
X191900000Y-72410000D03*
%TO.P,R17,2*%
%TO.N,Net-(C28-Pad1)*%
X191900000Y-71390000D03*
%TD*%
D25*
%TO.P,U6,1*%
%TO.N,Net-(U5A-P0A)*%
X194400000Y-66850000D03*
%TO.P,U6,2,-*%
X194400000Y-67350000D03*
%TO.P,U6,3,+*%
%TO.N,Net-(U6A-+)*%
X194400000Y-67850000D03*
%TO.P,U6,4,V-*%
%TO.N,GND*%
X194400000Y-68350000D03*
%TO.P,U6,5,+*%
%TO.N,Net-(U6B-+)*%
X197300000Y-68350000D03*
%TO.P,U6,6,-*%
%TO.N,Net-(U5B-P1A)*%
X197300000Y-67850000D03*
%TO.P,U6,7*%
X197300000Y-67350000D03*
%TO.P,U6,8,V+*%
%TO.N,+5V*%
X197300000Y-66850000D03*
D26*
%TO.P,U6,9,V-*%
%TO.N,GND*%
X195850000Y-67600000D03*
%TD*%
D19*
%TO.P,R22,1*%
%TO.N,Net-(U7A--)*%
X197910000Y-76712500D03*
%TO.P,R22,2*%
%TO.N,Net-(C29-Pad1)*%
X196890000Y-76712500D03*
%TD*%
D15*
%TO.P,C3,1*%
%TO.N,+3V3*%
X198850000Y-56242500D03*
%TO.P,C3,2*%
%TO.N,GND*%
X198850000Y-55282500D03*
%TD*%
D12*
%TO.P,C29,1*%
%TO.N,Net-(C29-Pad1)*%
X196920000Y-77812500D03*
%TO.P,C29,2*%
%TO.N,GND*%
X197880000Y-77812500D03*
%TD*%
D13*
%TO.P,C2,1*%
%TO.N,/MCU/X2*%
X188180000Y-61400000D03*
%TO.P,C2,2*%
%TO.N,GND*%
X187220000Y-61400000D03*
%TD*%
D27*
%TO.P,U5,1,P3A*%
%TO.N,Net-(U5D-P3A)*%
X186750000Y-71575000D03*
%TO.P,U5,2,P3W*%
%TO.N,Net-(U4A--)*%
X186100000Y-71575000D03*
%TO.P,U5,3,P3B*%
%TO.N,Net-(U5D-P3B)*%
X185450000Y-71575000D03*
%TO.P,U5,4,HVC/A0*%
%TO.N,GND*%
X184800000Y-71575000D03*
%TO.P,U5,5,SCL*%
%TO.N,I2C_SCL*%
X184150000Y-71575000D03*
%TO.P,U5,6,SDA*%
%TO.N,I2C_SDA*%
X183500000Y-71575000D03*
%TO.P,U5,7,VSS*%
%TO.N,GND*%
X182850000Y-71575000D03*
%TO.P,U5,8,P1B*%
X182200000Y-71575000D03*
%TO.P,U5,9,P1W*%
%TO.N,Net-(U5B-P1W)*%
X181550000Y-71575000D03*
%TO.P,U5,10,P1A*%
%TO.N,Net-(U5B-P1A)*%
X180900000Y-71575000D03*
%TO.P,U5,11,P0A*%
%TO.N,Net-(U5A-P0A)*%
X180900000Y-77300000D03*
%TO.P,U5,12,P0W*%
%TO.N,Net-(U5A-P0W)*%
X181550000Y-77300000D03*
%TO.P,U5,13,P0B*%
%TO.N,GND*%
X182200000Y-77300000D03*
%TO.P,U5,14,NC*%
%TO.N,unconnected-(U5E-NC-Pad14)*%
X182850000Y-77300000D03*
%TO.P,U5,15,~{RESET}*%
%TO.N,Net-(U5E-~{RESET})*%
X183500000Y-77300000D03*
%TO.P,U5,16,A1*%
%TO.N,GND*%
X184150000Y-77300000D03*
%TO.P,U5,17,VDD*%
%TO.N,+3V3*%
X184800000Y-77300000D03*
%TO.P,U5,18,P2B*%
%TO.N,GND*%
X185450000Y-77300000D03*
%TO.P,U5,19,P2W*%
%TO.N,Net-(U5C-P2W)*%
X186100000Y-77300000D03*
%TO.P,U5,20,P2A*%
%TO.N,BASEBAND_OUT*%
X186750000Y-77300000D03*
%TD*%
D28*
%TO.P,U4,1*%
%TO.N,Net-(U5D-P3A)*%
X189187500Y-71487500D03*
%TO.P,U4,2,-*%
%TO.N,Net-(U4A--)*%
X189687500Y-71487500D03*
%TO.P,U4,3,+*%
%TO.N,Net-(U4A-+)*%
X190187500Y-71487500D03*
%TO.P,U4,4,V-*%
%TO.N,GND*%
X190687500Y-71487500D03*
%TO.P,U4,5,+*%
%TO.N,Net-(U4B-+)*%
X190687500Y-68587500D03*
%TO.P,U4,6,-*%
%TO.N,BASEBAND_IN_FILT*%
X190187500Y-68587500D03*
%TO.P,U4,7*%
X189687500Y-68587500D03*
%TO.P,U4,8,V+*%
%TO.N,+5V*%
X189187500Y-68587500D03*
D29*
%TO.P,U4,9,V-*%
%TO.N,GND*%
X189937500Y-70037500D03*
%TD*%
D20*
%TO.P,C6,1*%
%TO.N,+3V3*%
X198850000Y-57182500D03*
%TO.P,C6,2*%
%TO.N,GND*%
X198850000Y-58142500D03*
%TD*%
D25*
%TO.P,U7,1*%
%TO.N,Net-(U7A--)*%
X197850000Y-75500000D03*
%TO.P,U7,2,-*%
X197850000Y-75000000D03*
%TO.P,U7,3,+*%
%TO.N,Net-(U5C-P2W)*%
X197850000Y-74500000D03*
%TO.P,U7,4,V-*%
%TO.N,GND*%
X197850000Y-74000000D03*
%TO.P,U7,5,+*%
%TO.N,Net-(U7B-+)*%
X194950000Y-74000000D03*
%TO.P,U7,6,-*%
%TO.N,Net-(U7B--)*%
X194950000Y-74500000D03*
%TO.P,U7,7*%
X194950000Y-75000000D03*
%TO.P,U7,8,V+*%
%TO.N,+5V*%
X194950000Y-75500000D03*
D26*
%TO.P,U7,9,V-*%
%TO.N,GND*%
X196400000Y-74750000D03*
%TD*%
D30*
%TO.P,C10,1*%
%TO.N,+5V*%
X182050000Y-62500000D03*
%TO.P,C10,2*%
%TO.N,GND*%
X183950000Y-62500000D03*
%TD*%
D13*
%TO.P,C18,1*%
%TO.N,Net-(U6B-+)*%
X197180000Y-69500000D03*
%TO.P,C18,2*%
%TO.N,GND*%
X196220000Y-69500000D03*
%TD*%
D31*
%TO.P,U1,1,VBAT*%
%TO.N,unconnected-(U1-VBAT-Pad1)*%
X190662500Y-56750000D03*
%TO.P,U1,2,PC13*%
%TO.N,Net-(U1-PC13)*%
X190662500Y-57250000D03*
%TO.P,U1,3,PC14*%
%TO.N,unconnected-(U1-PC14-Pad3)*%
X190662500Y-57750000D03*
%TO.P,U1,4,PC15*%
%TO.N,unconnected-(U1-PC15-Pad4)*%
X190662500Y-58250000D03*
%TO.P,U1,5,PF0*%
%TO.N,/MCU/X1*%
X190662500Y-58750000D03*
%TO.P,U1,6,PF1*%
%TO.N,/MCU/X2*%
X190662500Y-59250000D03*
%TO.P,U1,7,PG10*%
%TO.N,/MCU/~{RST}*%
X190662500Y-59750000D03*
%TO.P,U1,8,PA0*%
%TO.N,unconnected-(U1-PA0-Pad8)*%
X190662500Y-60250000D03*
%TO.P,U1,9,PA1*%
%TO.N,BASEBAND_IN_FILT*%
X190662500Y-60750000D03*
%TO.P,U1,10,PA2*%
%TO.N,AUDIO_IN_FILT*%
X190662500Y-61250000D03*
%TO.P,U1,11,PA3*%
%TO.N,/MCU/VERSION_SET*%
X190662500Y-61750000D03*
%TO.P,U1,12,PA4*%
%TO.N,BASEBAND_OUT*%
X190662500Y-62250000D03*
D32*
%TO.P,U1,13,PA5*%
%TO.N,AUDIO_OUT*%
X191350000Y-62937500D03*
%TO.P,U1,14,PA6*%
%TO.N,PTT_OUT*%
X191850000Y-62937500D03*
%TO.P,U1,15,PA7*%
%TO.N,BASEBAND_BYPASS*%
X192350000Y-62937500D03*
%TO.P,U1,16,PC4*%
%TO.N,unconnected-(U1-PC4-Pad16)*%
X192850000Y-62937500D03*
%TO.P,U1,17,PB0*%
%TO.N,unconnected-(U1-PB0-Pad17)*%
X193350000Y-62937500D03*
%TO.P,U1,18,PB1*%
%TO.N,AUDIO_OUT_MUTE*%
X193850000Y-62937500D03*
%TO.P,U1,19,PB2*%
%TO.N,unconnected-(U1-PB2-Pad19)*%
X194350000Y-62937500D03*
%TO.P,U1,20,VREF+*%
%TO.N,unconnected-(U1-VREF+-Pad20)*%
X194850000Y-62937500D03*
%TO.P,U1,21,VDDA*%
%TO.N,/MCU/VDDA*%
X195350000Y-62937500D03*
%TO.P,U1,22,PB10*%
%TO.N,unconnected-(U1-PB10-Pad22)*%
X195850000Y-62937500D03*
%TO.P,U1,23,VDD*%
%TO.N,+3V3*%
X196350000Y-62937500D03*
%TO.P,U1,24,PB11*%
%TO.N,unconnected-(U1-PB11-Pad24)*%
X196850000Y-62937500D03*
D31*
%TO.P,U1,25,PB12*%
%TO.N,unconnected-(U1-PB12-Pad25)*%
X197537500Y-62250000D03*
%TO.P,U1,26,PB13*%
%TO.N,unconnected-(U1-PB13-Pad26)*%
X197537500Y-61750000D03*
%TO.P,U1,27,PB14*%
%TO.N,unconnected-(U1-PB14-Pad27)*%
X197537500Y-61250000D03*
%TO.P,U1,28,PB15*%
%TO.N,unconnected-(U1-PB15-Pad28)*%
X197537500Y-60750000D03*
%TO.P,U1,29,PC6*%
%TO.N,unconnected-(U1-PC6-Pad29)*%
X197537500Y-60250000D03*
%TO.P,U1,30,PA8*%
%TO.N,unconnected-(U1-PA8-Pad30)*%
X197537500Y-59750000D03*
%TO.P,U1,31,PA9*%
%TO.N,MCU_TX*%
X197537500Y-59250000D03*
%TO.P,U1,32,PA10*%
%TO.N,MCU_RX*%
X197537500Y-58750000D03*
%TO.P,U1,33,PA11*%
%TO.N,unconnected-(U1-PA11-Pad33)*%
X197537500Y-58250000D03*
%TO.P,U1,34,PA12*%
%TO.N,unconnected-(U1-PA12-Pad34)*%
X197537500Y-57750000D03*
%TO.P,U1,35,VDD*%
%TO.N,+3V3*%
X197537500Y-57250000D03*
%TO.P,U1,36,PA13*%
%TO.N,/MCU/SWDIO*%
X197537500Y-56750000D03*
D32*
%TO.P,U1,37,PA14*%
%TO.N,/MCU/SWCLK*%
X196850000Y-56062500D03*
%TO.P,U1,38,PA15*%
%TO.N,I2C_SCL*%
X196350000Y-56062500D03*
%TO.P,U1,39,PC10*%
%TO.N,unconnected-(U1-PC10-Pad39)*%
X195850000Y-56062500D03*
%TO.P,U1,40,PC11*%
%TO.N,unconnected-(U1-PC11-Pad40)*%
X195350000Y-56062500D03*
%TO.P,U1,41,PB3*%
%TO.N,unconnected-(U1-PB3-Pad41)*%
X194850000Y-56062500D03*
%TO.P,U1,42,PB4*%
%TO.N,unconnected-(U1-PB4-Pad42)*%
X194350000Y-56062500D03*
%TO.P,U1,43,PB5*%
%TO.N,unconnected-(U1-PB5-Pad43)*%
X193850000Y-56062500D03*
%TO.P,U1,44,PB6*%
%TO.N,unconnected-(U1-PB6-Pad44)*%
X193350000Y-56062500D03*
%TO.P,U1,45,PB7*%
%TO.N,unconnected-(U1-PB7-Pad45)*%
X192850000Y-56062500D03*
%TO.P,U1,46,PB8*%
%TO.N,/MCU/BOOT0*%
X192350000Y-56062500D03*
%TO.P,U1,47,PB9*%
%TO.N,I2C_SDA*%
X191850000Y-56062500D03*
%TO.P,U1,48,VDD*%
%TO.N,+3V3*%
X191350000Y-56062500D03*
D33*
%TO.P,U1,49,VSS*%
%TO.N,GND*%
X194100000Y-59500000D03*
%TD*%
D19*
%TO.P,R23,1*%
%TO.N,Net-(C29-Pad1)*%
X196010000Y-77800000D03*
%TO.P,R23,2*%
%TO.N,Net-(C31-Pad1)*%
X194990000Y-77800000D03*
%TD*%
D20*
%TO.P,C8,1*%
%TO.N,/MCU/VDDA*%
X194810000Y-64300000D03*
%TO.P,C8,2*%
%TO.N,GND*%
X194810000Y-65260000D03*
%TD*%
D15*
%TO.P,C16,1*%
%TO.N,BASEBAND_IN_FILT*%
X190200000Y-67355000D03*
%TO.P,C16,2*%
%TO.N,Net-(C16-Pad2)*%
X190200000Y-66395000D03*
%TD*%
D20*
%TO.P,C21,1*%
%TO.N,Net-(U4B-+)*%
X186600000Y-66885000D03*
%TO.P,C21,2*%
%TO.N,GND*%
X186600000Y-67845000D03*
%TD*%
D15*
%TO.P,C9,1*%
%TO.N,GND*%
X195800000Y-65260000D03*
%TO.P,C9,2*%
%TO.N,/MCU/VDDA*%
X195800000Y-64300000D03*
%TD*%
%TO.P,C14,1*%
%TO.N,Net-(C14-Pad1)*%
X190100000Y-65180000D03*
%TO.P,C14,2*%
%TO.N,GND*%
X190100000Y-64220000D03*
%TD*%
D13*
%TO.P,C22,1*%
%TO.N,Net-(U5A-P0W)*%
X181705000Y-79037500D03*
%TO.P,C22,2*%
%TO.N,AUDIO_OUT_FILT*%
X180745000Y-79037500D03*
%TD*%
D11*
%TO.P,R12,1*%
%TO.N,Net-(U4B-+)*%
X187600000Y-66865000D03*
%TO.P,R12,2*%
%TO.N,Net-(C16-Pad2)*%
X187600000Y-67885000D03*
%TD*%
D34*
%TO.P,FB1,1*%
%TO.N,+5V*%
X182025000Y-64300000D03*
%TO.P,FB1,2*%
%TO.N,+5VD*%
X183575000Y-64300000D03*
%TD*%
D15*
%TO.P,C35,1*%
%TO.N,+5V*%
X189100000Y-67355000D03*
%TO.P,C35,2*%
%TO.N,GND*%
X189100000Y-66395000D03*
%TD*%
D13*
%TO.P,C4,1*%
%TO.N,+3V3*%
X191280000Y-54800000D03*
%TO.P,C4,2*%
%TO.N,GND*%
X190320000Y-54800000D03*
%TD*%
D35*
%TO.P,Y1,1,1*%
%TO.N,/MCU/X1*%
X186850000Y-57650000D03*
%TO.P,Y1,2,2*%
%TO.N,GND*%
X186850000Y-59850000D03*
%TO.P,Y1,3,3*%
%TO.N,/MCU/X2*%
X188550000Y-59850000D03*
%TO.P,Y1,4,4*%
%TO.N,GND*%
X188550000Y-57650000D03*
%TD*%
D18*
%TO.P,R15,1*%
%TO.N,Net-(U5D-P3B)*%
X185200000Y-69847500D03*
%TO.P,R15,2*%
%TO.N,Net-(C26-Pad1)*%
X185200000Y-68827500D03*
%TD*%
D22*
%TO.P,TP1,1,1*%
%TO.N,BASEBAND_IN*%
X188600000Y-78800000D03*
%TD*%
D11*
%TO.P,R19,1*%
%TO.N,+3V3*%
X183125000Y-68827500D03*
%TO.P,R19,2*%
%TO.N,I2C_SDA*%
X183125000Y-69847500D03*
%TD*%
%TO.P,R18,1*%
%TO.N,+3V3*%
X184125000Y-68827500D03*
%TO.P,R18,2*%
%TO.N,I2C_SCL*%
X184125000Y-69847500D03*
%TD*%
D20*
%TO.P,C5,1*%
%TO.N,+3V3*%
X198800000Y-64320000D03*
%TO.P,C5,2*%
%TO.N,GND*%
X198800000Y-65280000D03*
%TD*%
D12*
%TO.P,C1,1*%
%TO.N,/MCU/X1*%
X187020000Y-56100000D03*
%TO.P,C1,2*%
%TO.N,GND*%
X187980000Y-56100000D03*
%TD*%
D18*
%TO.P,R2,1*%
%TO.N,GND*%
X189000000Y-63810000D03*
%TO.P,R2,2*%
%TO.N,/MCU/VERSION_SET*%
X189000000Y-62790000D03*
%TD*%
D12*
%TO.P,C11,1*%
%TO.N,+3V3*%
X182000000Y-55500000D03*
%TO.P,C11,2*%
%TO.N,GND*%
X182960000Y-55500000D03*
%TD*%
%TO.P,C33,1*%
%TO.N,+5V*%
X194970000Y-76712500D03*
%TO.P,C33,2*%
%TO.N,GND*%
X195930000Y-76712500D03*
%TD*%
D11*
%TO.P,R6,1*%
%TO.N,AUDIO_OUT*%
X191100000Y-64190000D03*
%TO.P,R6,2*%
%TO.N,Net-(C14-Pad1)*%
X191100000Y-65210000D03*
%TD*%
D15*
%TO.P,C15,1*%
%TO.N,Net-(C15-Pad1)*%
X198200000Y-72380000D03*
%TO.P,C15,2*%
%TO.N,GND*%
X198200000Y-71420000D03*
%TD*%
D18*
%TO.P,R7,1*%
%TO.N,AUDIO_IN*%
X199300000Y-74410000D03*
%TO.P,R7,2*%
%TO.N,Net-(C15-Pad1)*%
X199300000Y-73390000D03*
%TD*%
D12*
%TO.P,C25,1*%
%TO.N,+3V3*%
X184845000Y-79037500D03*
%TO.P,C25,2*%
%TO.N,GND*%
X185805000Y-79037500D03*
%TD*%
D36*
%TO.N,BASEBAND_BYPASS*%
X192906587Y-64093413D03*
D37*
%TO.N,+3V3*%
X187900000Y-53200000D03*
D38*
%TO.N,GND*%
X185000000Y-51000000D03*
X185000000Y-53000000D03*
X181000000Y-61000000D03*
X185200000Y-61000000D03*
X199000000Y-51000000D03*
X181000000Y-51000000D03*
D36*
X192000000Y-57500000D03*
X197300000Y-72000000D03*
D38*
X181000000Y-63000000D03*
X189700000Y-79500000D03*
D36*
X194000000Y-61500000D03*
D38*
X181000000Y-55000000D03*
D36*
X186500000Y-79400000D03*
D38*
X180750000Y-70000000D03*
D36*
X192000000Y-59500000D03*
D38*
X199100000Y-79100000D03*
D36*
X191000000Y-71900000D03*
D38*
X185000000Y-55000000D03*
D36*
X194000000Y-57300000D03*
D38*
X188750000Y-69500000D03*
X181000000Y-75000000D03*
X181000000Y-59000000D03*
D36*
X197800000Y-78400000D03*
D38*
X198750000Y-63250000D03*
X181000000Y-68500000D03*
D36*
X189100000Y-64500000D03*
X186100000Y-68400000D03*
X182960000Y-60300000D03*
X196000000Y-59500000D03*
X196000000Y-61500000D03*
D38*
X199000000Y-53000000D03*
D36*
X190300000Y-55300000D03*
X194400000Y-54800000D03*
X191507567Y-68206053D03*
D38*
X198250000Y-65750000D03*
D36*
X192000000Y-61500000D03*
X183960000Y-61000000D03*
X198800000Y-54600000D03*
X196000000Y-57500000D03*
D38*
X182000000Y-75250000D03*
D36*
X196400000Y-74700000D03*
D38*
X183000000Y-73000000D03*
X181000000Y-53000000D03*
X182300000Y-70300000D03*
X183000000Y-53000000D03*
X181000000Y-57000000D03*
X197000000Y-73000000D03*
D36*
X194800000Y-65900000D03*
D38*
X183000000Y-51000000D03*
X181000000Y-65000000D03*
X187000000Y-55000000D03*
D36*
%TO.N,+3V3*%
X191200000Y-55400000D03*
X198300000Y-57250000D03*
D38*
X182000000Y-56200000D03*
D36*
X187200000Y-63800000D03*
D38*
X197350000Y-64290000D03*
D36*
X183650000Y-68800000D03*
X183800000Y-74800000D03*
%TO.N,+5V*%
X197400000Y-66100000D03*
X189200000Y-67900000D03*
X191475000Y-69397760D03*
D38*
X182000000Y-60300000D03*
D36*
X195000000Y-76000000D03*
%TO.N,Net-(U4B-+)*%
X191000000Y-67800000D03*
X188301409Y-66976409D03*
%TO.N,/MCU/~{RST}*%
X190400000Y-53500000D03*
X189700000Y-59800000D03*
%TO.N,Net-(C16-Pad2)*%
X190200000Y-66000000D03*
X187600000Y-68400000D03*
%TO.N,Net-(U5A-P0A)*%
X180900000Y-76200000D03*
X192100000Y-70300000D03*
X193501316Y-66750000D03*
%TO.N,Net-(U5B-P1A)*%
X180900000Y-72800000D03*
X198100000Y-67900000D03*
%TO.N,Net-(U5C-P2W)*%
X198467935Y-74499604D03*
X185900000Y-76000000D03*
%TO.N,I2C_SDA*%
X192023768Y-54823768D03*
D38*
X183200000Y-70400000D03*
D36*
%TO.N,PTT_OUT*%
X191900000Y-64000000D03*
X194250000Y-72700000D03*
%TO.N,AUDIO_OUT_MUTE*%
X193900000Y-64200000D03*
%TO.N,BASEBAND_IN_FILT*%
X189000000Y-61400000D03*
X191100000Y-67000000D03*
%TO.N,BASEBAND_OUT*%
X190500000Y-63200000D03*
X186800000Y-76000000D03*
%TO.N,I2C_SCL*%
X195200000Y-55100000D03*
D38*
X184400000Y-70400000D03*
D36*
%TO.N,AUDIO_OUT_FILT*%
X187750000Y-75775000D03*
X181000000Y-78597151D03*
%TO.N,BASEBAND_IN*%
X187250000Y-79150000D03*
%TO.N,BASEBAND_OUT_FILT*%
X191525000Y-79225000D03*
%TO.N,AUDIO_IN*%
X193300000Y-79200000D03*
%TO.N,PTT_IN*%
X189300000Y-54200000D03*
X196100000Y-78600000D03*
%TO.N,MCU_TX*%
X190000000Y-75950000D03*
D38*
X198900000Y-60100000D03*
D36*
X193600000Y-72600000D03*
D38*
%TO.N,MCU_RX*%
X198800000Y-59000000D03*
%TO.N,+5VD*%
X184000000Y-65037501D03*
%TD*%
D39*
%TO.N,BASEBAND_BYPASS*%
X192350000Y-63536826D02*
X192906587Y-64093413D01*
X192350000Y-62937500D02*
X192350000Y-63536826D01*
D40*
%TO.N,Net-(U4A-+)*%
X190225000Y-72500000D02*
X190187500Y-72462500D01*
D41*
%TO.N,Net-(C28-Pad1)*%
X192090000Y-71200000D02*
X193550000Y-71200000D01*
D40*
%TO.N,Net-(U4A-+)*%
X191810000Y-72500000D02*
X190225000Y-72500000D01*
D41*
%TO.N,Net-(C28-Pad1)*%
X191900000Y-71390000D02*
X192090000Y-71200000D01*
D40*
%TO.N,Net-(U4A-+)*%
X191900000Y-72410000D02*
X191810000Y-72500000D01*
D41*
%TO.N,+3V3*%
X182000000Y-55500000D02*
X182000000Y-55460000D01*
%TO.N,GND*%
X182950000Y-60290000D02*
X182950000Y-59337500D01*
X182960000Y-60300000D02*
X182950000Y-60290000D01*
%TO.N,+5V*%
X182000000Y-63812501D02*
X182225000Y-64037501D01*
D42*
X183900000Y-59337500D02*
X183900000Y-58675001D01*
D41*
%TO.N,+3V3*%
X182000000Y-55540000D02*
X182000000Y-57062500D01*
D42*
%TO.N,+5V*%
X182000000Y-58675001D02*
X182000000Y-59337500D01*
X182337501Y-58337500D02*
X182000000Y-58675001D01*
D41*
X182000000Y-59337500D02*
X182000000Y-63812501D01*
D42*
X183562499Y-58337500D02*
X182337501Y-58337500D01*
X183900000Y-58675001D02*
X183562499Y-58337500D01*
D39*
%TO.N,GND*%
X182960000Y-60300000D02*
X182960000Y-60720000D01*
X182960000Y-60720000D02*
X183240000Y-61000000D01*
D41*
%TO.N,+5VD*%
X183575000Y-64612501D02*
X184000000Y-65037501D01*
X183575000Y-64300000D02*
X183575000Y-64612501D01*
D42*
%TO.N,Net-(U5B-P1W)*%
X182900000Y-66400000D02*
X183400000Y-65900000D01*
X184180000Y-65900000D02*
X186300000Y-63780000D01*
X181550000Y-69050000D02*
X182900000Y-67700000D01*
X182900000Y-67700000D02*
X182900000Y-66400000D01*
X181550000Y-71575000D02*
X181550000Y-69050000D01*
X183400000Y-65900000D02*
X184180000Y-65900000D01*
%TO.N,/MCU/X1*%
X187000000Y-58750000D02*
X186850000Y-58600000D01*
X190662500Y-58750000D02*
X187000000Y-58750000D01*
X186850000Y-58600000D02*
X186850000Y-57650000D01*
X186850000Y-56270000D02*
X187020000Y-56100000D01*
X186850000Y-57650000D02*
X186850000Y-56270000D01*
%TO.N,GND*%
X196400000Y-74700000D02*
X196400000Y-73020000D01*
D39*
X185450000Y-78682500D02*
X185805000Y-79037500D01*
X198200000Y-71420000D02*
X197500000Y-71420000D01*
X194400000Y-68350000D02*
X195100000Y-68350000D01*
D41*
X190320000Y-55280000D02*
X190300000Y-55300000D01*
D39*
X197880000Y-77812500D02*
X197880000Y-78320000D01*
X195850000Y-69130000D02*
X196220000Y-69500000D01*
X189690000Y-63810000D02*
X190100000Y-64220000D01*
D42*
X188550000Y-57650000D02*
X188550000Y-56670000D01*
D39*
X197300000Y-72000000D02*
X197300000Y-71620000D01*
D42*
X197850000Y-74000000D02*
X197150000Y-74000000D01*
D39*
X195850000Y-67600000D02*
X195850000Y-69130000D01*
D42*
X197150000Y-74000000D02*
X196400000Y-74750000D01*
X196400000Y-73020000D02*
X196280000Y-72900000D01*
X195930000Y-76712500D02*
X195930000Y-75220000D01*
X190687500Y-71487500D02*
X190687500Y-70787500D01*
D39*
X189000000Y-63810000D02*
X189690000Y-63810000D01*
X197880000Y-78320000D02*
X197800000Y-78400000D01*
D41*
X190320000Y-54800000D02*
X190320000Y-55280000D01*
D39*
X185450000Y-77300000D02*
X185450000Y-78682500D01*
X197500000Y-71420000D02*
X196470000Y-71420000D01*
X195100000Y-68350000D02*
X195850000Y-67600000D01*
D42*
X190687500Y-70787500D02*
X189937500Y-70037500D01*
D39*
X195850000Y-67600000D02*
X195850000Y-66470000D01*
X197300000Y-71620000D02*
X197500000Y-71420000D01*
X196470000Y-71420000D02*
X196250000Y-71200000D01*
D42*
X188550000Y-56670000D02*
X187980000Y-56100000D01*
X195930000Y-75220000D02*
X196400000Y-74750000D01*
%TO.N,/MCU/X2*%
X188550000Y-61030000D02*
X188180000Y-61400000D01*
X189150000Y-59250000D02*
X188550000Y-59850000D01*
X188550000Y-59850000D02*
X188550000Y-61030000D01*
X190662500Y-59250000D02*
X189150000Y-59250000D01*
%TO.N,+3V3*%
X184800000Y-78992500D02*
X184845000Y-79037500D01*
X191200000Y-55400000D02*
X191350000Y-55550000D01*
X191350000Y-55550000D02*
X191350000Y-56062500D01*
X198770000Y-64290000D02*
X198800000Y-64320000D01*
X183935000Y-79037500D02*
X184845000Y-79037500D01*
D39*
X187200000Y-63800000D02*
X187890000Y-63800000D01*
D42*
X191380000Y-54800000D02*
X191350000Y-54830000D01*
X191350000Y-54830000D02*
X191350000Y-55250000D01*
X183572500Y-68827500D02*
X183600000Y-68800000D01*
X197350000Y-64290000D02*
X198770000Y-64290000D01*
X198250000Y-57250000D02*
X198300000Y-57200000D01*
D39*
X187890000Y-63800000D02*
X187900000Y-63810000D01*
X183800000Y-74800000D02*
X184800000Y-75800000D01*
D42*
X183627500Y-68827500D02*
X184125000Y-68827500D01*
X196800000Y-64290000D02*
X197350000Y-64290000D01*
D39*
X184800000Y-75800000D02*
X184800000Y-77300000D01*
D42*
X198770000Y-57250000D02*
X198820000Y-57300000D01*
X196350000Y-62937500D02*
X196350000Y-63840000D01*
X183125000Y-68827500D02*
X183572500Y-68827500D01*
X183600000Y-68800000D02*
X183627500Y-68827500D01*
X198300000Y-57200000D02*
X198350000Y-57250000D01*
X196350000Y-63840000D02*
X196800000Y-64290000D01*
X198350000Y-57250000D02*
X198770000Y-57250000D01*
X198820000Y-56300000D02*
X198820000Y-57300000D01*
X184800000Y-77300000D02*
X184800000Y-78992500D01*
X197537500Y-57250000D02*
X198250000Y-57250000D01*
X191350000Y-55250000D02*
X191200000Y-55400000D01*
%TO.N,/MCU/VDDA*%
X195800000Y-64300000D02*
X195811490Y-64300000D01*
X194810000Y-64300000D02*
X195400000Y-64300000D01*
X195400000Y-64300000D02*
X195800000Y-64300000D01*
X196800000Y-65288510D02*
X196800000Y-65310000D01*
X195350000Y-64250000D02*
X195400000Y-64300000D01*
X195811490Y-64300000D02*
X196800000Y-65288510D01*
X195350000Y-62937500D02*
X195350000Y-64250000D01*
D39*
%TO.N,+5V*%
X191987760Y-69397760D02*
X192090000Y-69500000D01*
X194970000Y-76712500D02*
X194970000Y-76030000D01*
X194970000Y-75970000D02*
X194970000Y-75530000D01*
D40*
X197407500Y-66692500D02*
X197400000Y-66685000D01*
D39*
X195000000Y-76000000D02*
X194970000Y-75970000D01*
X194970000Y-76030000D02*
X195000000Y-76000000D01*
D40*
X197407500Y-66742500D02*
X197300000Y-66850000D01*
X197400000Y-66685000D02*
X197400000Y-66100000D01*
X189187500Y-67887500D02*
X189187500Y-67442500D01*
X189200000Y-67900000D02*
X189187500Y-67887500D01*
D39*
X191475000Y-69397760D02*
X191987760Y-69397760D01*
D40*
X197400000Y-66100000D02*
X197407500Y-66107500D01*
X197407500Y-66107500D02*
X197407500Y-66742500D01*
X189187500Y-67912500D02*
X189187500Y-68587500D01*
X189200000Y-67900000D02*
X189187500Y-67912500D01*
D42*
X197300000Y-66850000D02*
X198370000Y-66850000D01*
D40*
X189187500Y-67442500D02*
X189100000Y-67355000D01*
D42*
X198370000Y-66850000D02*
X198800000Y-67280000D01*
D39*
%TO.N,Net-(U6A-+)*%
X193080000Y-68500000D02*
X193097500Y-68482500D01*
X193097500Y-68482500D02*
X193097500Y-67500000D01*
X194400000Y-67850000D02*
X193447500Y-67850000D01*
X193447500Y-67850000D02*
X193097500Y-67500000D01*
D42*
%TO.N,Net-(U6B-+)*%
X198190000Y-69500000D02*
X197180000Y-69500000D01*
X198200000Y-69490000D02*
X198190000Y-69500000D01*
X197300000Y-69380000D02*
X197180000Y-69500000D01*
X197300000Y-68350000D02*
X197300000Y-69380000D01*
%TO.N,Net-(C20-Pad1)*%
X199200000Y-70480000D02*
X199170000Y-70510000D01*
X199170000Y-70510000D02*
X198200000Y-70510000D01*
X199200000Y-71390000D02*
X199200000Y-70480000D01*
%TO.N,Net-(C24-Pad1)*%
X187560000Y-69845000D02*
X187600000Y-69885000D01*
D40*
X188000000Y-70285000D02*
X188000000Y-70865000D01*
D42*
X186600000Y-69845000D02*
X187560000Y-69845000D01*
D40*
X187600000Y-69885000D02*
X188000000Y-70285000D01*
D42*
%TO.N,Net-(U7B-+)*%
X193566250Y-74000000D02*
X193370000Y-74196250D01*
D40*
X195320000Y-73630000D02*
X194950000Y-74000000D01*
X195320000Y-72900000D02*
X195320000Y-73630000D01*
D42*
X194950000Y-74000000D02*
X193566250Y-74000000D01*
D39*
%TO.N,Net-(U4B-+)*%
X190687500Y-68587500D02*
X190687500Y-68112500D01*
X187711409Y-66976409D02*
X187600000Y-66865000D01*
X187600000Y-66865000D02*
X186620000Y-66865000D01*
X186620000Y-66865000D02*
X186600000Y-66885000D01*
X188301409Y-66976409D02*
X187711409Y-66976409D01*
X190687500Y-68112500D02*
X191000000Y-67800000D01*
%TO.N,Net-(U4A-+)*%
X190187500Y-71487500D02*
X190187500Y-72462500D01*
X190187500Y-72462500D02*
X188600000Y-74050000D01*
D42*
%TO.N,/MCU/~{RST}*%
X190400000Y-52117500D02*
X190445000Y-52072500D01*
X190400000Y-53500000D02*
X190400000Y-52117500D01*
X189750000Y-59750000D02*
X189700000Y-59800000D01*
X190662500Y-59750000D02*
X189750000Y-59750000D01*
%TO.N,/MCU/SWCLK*%
X196100000Y-54100000D02*
X195012500Y-54100000D01*
X195012500Y-54100000D02*
X192985000Y-52072500D01*
X196850000Y-54850000D02*
X196100000Y-54100000D01*
X196850000Y-56062500D02*
X196850000Y-54850000D01*
%TO.N,/MCU/SWDIO*%
X197537500Y-56750000D02*
X197537500Y-54085000D01*
X197537500Y-54085000D02*
X195525000Y-52072500D01*
X195525000Y-52475000D02*
X195525000Y-52072500D01*
%TO.N,/MCU/VERSION_SET*%
X190140000Y-61750000D02*
X189100000Y-62790000D01*
X188000000Y-62790000D02*
X189100000Y-62790000D01*
X190662500Y-61750000D02*
X190140000Y-61750000D01*
%TO.N,/MCU/BOOT0*%
X192350000Y-55550000D02*
X192600000Y-55300000D01*
X192350000Y-56062500D02*
X192350000Y-55550000D01*
X192600000Y-54990000D02*
X192790000Y-54800000D01*
X192600000Y-55300000D02*
X192600000Y-54990000D01*
D39*
%TO.N,Net-(C28-Pad1)*%
X193550000Y-71200000D02*
X193550000Y-69550000D01*
X193550000Y-69550000D02*
X193600000Y-69500000D01*
X193600000Y-69500000D02*
X194190000Y-69500000D01*
X193110000Y-69500000D02*
X194190000Y-69500000D01*
D40*
%TO.N,Net-(U7A--)*%
X197850000Y-75000000D02*
X197850000Y-76652500D01*
X197850000Y-76652500D02*
X197910000Y-76712500D01*
D39*
%TO.N,Net-(U4A--)*%
X186450000Y-72662500D02*
X186100000Y-72312499D01*
X189687500Y-71487500D02*
X189687500Y-72212500D01*
X189687500Y-72212500D02*
X189237500Y-72662500D01*
X186100000Y-72312499D02*
X186100000Y-71575000D01*
X189237500Y-72662500D02*
X186450000Y-72662500D01*
D42*
%TO.N,Net-(U7B--)*%
X191300373Y-74999627D02*
X191200000Y-74899254D01*
X191428750Y-74278750D02*
X191200000Y-74050000D01*
X191300746Y-75000000D02*
X191300373Y-74999627D01*
X191200000Y-74899254D02*
X191200000Y-74050000D01*
X194950000Y-75000000D02*
X191300746Y-75000000D01*
X192790000Y-77421250D02*
X192790000Y-76489254D01*
D39*
X191200000Y-74050000D02*
X191501250Y-73748750D01*
X194950000Y-75000000D02*
X194950000Y-74500000D01*
D42*
X192790000Y-76489254D02*
X191300373Y-74999627D01*
%TO.N,Net-(C14-Pad1)*%
X191100000Y-65210000D02*
X191900000Y-65210000D01*
X192050000Y-65360000D02*
X192090000Y-65360000D01*
X191070000Y-65180000D02*
X191100000Y-65210000D01*
X190100000Y-65180000D02*
X191070000Y-65180000D01*
X191900000Y-65210000D02*
X192050000Y-65360000D01*
X192090000Y-65360000D02*
X192200000Y-65250000D01*
%TO.N,Net-(C15-Pad1)*%
X199200000Y-72410000D02*
X199200000Y-73290000D01*
X198230000Y-72410000D02*
X199200000Y-72410000D01*
X198200000Y-72380000D02*
X198230000Y-72410000D01*
X199200000Y-73290000D02*
X199300000Y-73390000D01*
D40*
%TO.N,Net-(C16-Pad2)*%
X187600000Y-68865000D02*
X187600000Y-68400000D01*
D39*
X190200000Y-66395000D02*
X190200000Y-66000000D01*
D40*
X187600000Y-68400000D02*
X187600000Y-67885000D01*
D42*
%TO.N,Net-(C19-Pad1)*%
X192107500Y-66500000D02*
X192107500Y-66402500D01*
X192107500Y-66402500D02*
X193110000Y-65400000D01*
D39*
X192077500Y-66530000D02*
X192107500Y-66500000D01*
X192077500Y-67500000D02*
X192077500Y-66530000D01*
%TO.N,Net-(U5A-P0A)*%
X193067500Y-66500000D02*
X193251316Y-66500000D01*
X194300000Y-66750000D02*
X194400000Y-66850000D01*
X193501316Y-66750000D02*
X194300000Y-66750000D01*
X193251316Y-66500000D02*
X193501316Y-66750000D01*
X180900000Y-76200000D02*
X180900000Y-77300000D01*
X194400000Y-67350000D02*
X194400000Y-66850000D01*
D40*
%TO.N,Net-(U5B-P1A)*%
X197300000Y-67850000D02*
X197300000Y-67350000D01*
D42*
X198025000Y-67900000D02*
X197975000Y-67850000D01*
D39*
X180900000Y-72800000D02*
X180900000Y-71575000D01*
D42*
X198100000Y-67900000D02*
X198025000Y-67900000D01*
X198100000Y-67975000D02*
X198100000Y-67900000D01*
X197975000Y-67850000D02*
X197300000Y-67850000D01*
X199200000Y-69075000D02*
X198100000Y-67975000D01*
X199200000Y-69520000D02*
X199200000Y-69075000D01*
%TO.N,Net-(U5A-P0W)*%
X181550000Y-77300000D02*
X181550000Y-78882500D01*
X181550000Y-78882500D02*
X181705000Y-79037500D01*
%TO.N,Net-(C26-Pad1)*%
X185200000Y-68827500D02*
X185200000Y-67395000D01*
X185200000Y-67395000D02*
X184927500Y-67122500D01*
D39*
%TO.N,Net-(C29-Pad1)*%
X196010000Y-77800000D02*
X196022500Y-77812500D01*
D40*
X196920000Y-77782500D02*
X196890000Y-77812500D01*
D39*
X196022500Y-77812500D02*
X196920000Y-77812500D01*
D40*
X196920000Y-76712500D02*
X196920000Y-77782500D01*
D39*
%TO.N,Net-(C31-Pad1)*%
X194611250Y-77421250D02*
X194990000Y-77800000D01*
D42*
X193750000Y-76226250D02*
X193750000Y-77421250D01*
X193370000Y-75846250D02*
X193750000Y-76226250D01*
D39*
X193750000Y-77421250D02*
X194611250Y-77421250D01*
D42*
%TO.N,Net-(U1-PC13)*%
X189500000Y-57000000D02*
X189750000Y-57250000D01*
X189500000Y-55910000D02*
X189500000Y-57000000D01*
X189750000Y-57250000D02*
X190662500Y-57250000D01*
X189300000Y-55710000D02*
X189500000Y-55910000D01*
D39*
%TO.N,Net-(U5D-P3A)*%
X188790000Y-71885000D02*
X189187500Y-71487500D01*
X188000000Y-71885000D02*
X188790000Y-71885000D01*
X188000000Y-71885000D02*
X187060000Y-71885000D01*
X187060000Y-71885000D02*
X186750000Y-71575000D01*
D42*
%TO.N,Net-(U5D-P3B)*%
X185450000Y-71575000D02*
X185450000Y-70097500D01*
X185450000Y-70097500D02*
X185200000Y-69847500D01*
%TO.N,Net-(U5E-~{RESET})*%
X183500000Y-78452500D02*
X182915000Y-79037500D01*
X183500000Y-77300000D02*
X183500000Y-78452500D01*
D39*
%TO.N,Net-(U5C-P2W)*%
X197850000Y-74500000D02*
X198467539Y-74500000D01*
X198467539Y-74500000D02*
X198467935Y-74499604D01*
X185900000Y-76000000D02*
X186100000Y-76200000D01*
X186100000Y-76200000D02*
X186100000Y-77300000D01*
D42*
%TO.N,I2C_SDA*%
X191885000Y-56027500D02*
X191885000Y-54962536D01*
X183125000Y-70425000D02*
X183100000Y-70400000D01*
X183125000Y-69847500D02*
X183125000Y-70425000D01*
X191885000Y-54962536D02*
X192023768Y-54823768D01*
X191850000Y-56062500D02*
X191885000Y-56027500D01*
X183500000Y-70800000D02*
X183500000Y-71575000D01*
X183200000Y-70400000D02*
X183200000Y-70500000D01*
X183100000Y-70400000D02*
X183200000Y-70400000D01*
X183200000Y-70500000D02*
X183500000Y-70800000D01*
%TO.N,AUDIO_OUT*%
X191350000Y-63940000D02*
X191100000Y-64190000D01*
X191350000Y-62937500D02*
X191350000Y-63940000D01*
%TO.N,PTT_OUT*%
X191850000Y-63950000D02*
X191900000Y-64000000D01*
X191850000Y-62937500D02*
X191850000Y-63950000D01*
%TO.N,AUDIO_OUT_MUTE*%
X193850000Y-62937500D02*
X193850000Y-64150000D01*
X193850000Y-64150000D02*
X193900000Y-64200000D01*
D40*
%TO.N,BASEBAND_IN_FILT*%
X190187500Y-68587500D02*
X190187500Y-67367500D01*
D39*
X191100000Y-67000000D02*
X190200000Y-67355000D01*
X189650000Y-60750000D02*
X189000000Y-61400000D01*
D40*
X189687500Y-68587500D02*
X190187500Y-68587500D01*
D39*
X190662500Y-60750000D02*
X189650000Y-60750000D01*
D40*
X190187500Y-67367500D02*
X190200000Y-67355000D01*
D42*
%TO.N,AUDIO_IN_FILT*%
X187020000Y-62100000D02*
X189153604Y-62100000D01*
X190003604Y-61250000D02*
X190662500Y-61250000D01*
X186300000Y-62820000D02*
X187020000Y-62100000D01*
X189153604Y-62100000D02*
X190003604Y-61250000D01*
D39*
%TO.N,BASEBAND_OUT*%
X186750000Y-77300000D02*
X186750000Y-76050000D01*
X186750000Y-76050000D02*
X186800000Y-76000000D01*
D42*
X190500000Y-62412500D02*
X190662500Y-62250000D01*
D39*
X190500000Y-63200000D02*
X190500000Y-62412500D01*
D42*
%TO.N,I2C_SCL*%
X184400000Y-70400000D02*
X184150000Y-70150000D01*
X184400000Y-70400000D02*
X184150000Y-70650000D01*
X184150000Y-70650000D02*
X184150000Y-71575000D01*
D39*
X195910096Y-55100000D02*
X195200000Y-55100000D01*
D42*
X184150000Y-69872500D02*
X184125000Y-69847500D01*
D39*
X196350000Y-55539904D02*
X195910096Y-55100000D01*
X196350000Y-56062500D02*
X196350000Y-55539904D01*
D42*
X184150000Y-70150000D02*
X184150000Y-69872500D01*
%TO.N,AUDIO_OUT_FILT*%
X180745000Y-78852151D02*
X180745000Y-79037500D01*
X181000000Y-78597151D02*
X180745000Y-78852151D01*
%TO.N,BASEBAND_IN*%
X187250000Y-79150000D02*
X187700000Y-78800000D01*
X187700000Y-78800000D02*
X188600000Y-78800000D01*
X188600000Y-76750000D02*
X188600000Y-78800000D01*
%TO.N,BASEBAND_OUT_FILT*%
X191525000Y-79225000D02*
X190800000Y-78800000D01*
X190900000Y-78700000D02*
X190800000Y-78800000D01*
X190900000Y-76750000D02*
X190900000Y-78700000D01*
%TO.N,AUDIO_IN*%
X199200000Y-74510000D02*
X199300000Y-74410000D01*
X197942463Y-79200000D02*
X199200000Y-77942463D01*
X193300000Y-79200000D02*
X197942463Y-79200000D01*
X199200000Y-77942463D02*
X199200000Y-74510000D01*
%TO.N,PTT_IN*%
X189300000Y-54200000D02*
X189300000Y-54690000D01*
%TO.N,MCU_TX*%
X198236827Y-59250000D02*
X197537500Y-59250000D01*
X198900000Y-59913173D02*
X198236827Y-59250000D01*
X198900000Y-60100000D02*
X198900000Y-59913173D01*
%TO.N,MCU_RX*%
X198800000Y-59000000D02*
X198550000Y-58750000D01*
X198550000Y-58750000D02*
X197537500Y-58750000D01*
%TD*%
%TA.AperFunction,Conductor*%
%TO.N,GND*%
G36*
X199925455Y-74808422D02*
G01*
X199979658Y-74848424D01*
X200000000Y-74911833D01*
X200000000Y-77996110D01*
X199999722Y-78003886D01*
X199980199Y-78276851D01*
X199977986Y-78292245D01*
X199920643Y-78555844D01*
X199916262Y-78570766D01*
X199821986Y-78823530D01*
X199815525Y-78837676D01*
X199686242Y-79074440D01*
X199677834Y-79087523D01*
X199516173Y-79303476D01*
X199505989Y-79315230D01*
X199315230Y-79505989D01*
X199303476Y-79516173D01*
X199087523Y-79677834D01*
X199074440Y-79686242D01*
X198837676Y-79815525D01*
X198823530Y-79821986D01*
X198570766Y-79916262D01*
X198555844Y-79920643D01*
X198292245Y-79977986D01*
X198276851Y-79980199D01*
X198003887Y-79999722D01*
X197996111Y-80000000D01*
X182003889Y-80000000D01*
X181996113Y-79999722D01*
X181723148Y-79980199D01*
X181707754Y-79977986D01*
X181444155Y-79920643D01*
X181429233Y-79916262D01*
X181176469Y-79821986D01*
X181162325Y-79815526D01*
X181137657Y-79802056D01*
X181105756Y-79784637D01*
X181059501Y-79735661D01*
X181050868Y-79668850D01*
X181083153Y-79609725D01*
X181093269Y-79601269D01*
X181160274Y-79551816D01*
X181224185Y-79530521D01*
X181288407Y-79550858D01*
X181289629Y-79551745D01*
X181356843Y-79601352D01*
X181482181Y-79645210D01*
X181497057Y-79646605D01*
X181511933Y-79648000D01*
X181511934Y-79648000D01*
X181898067Y-79648000D01*
X181907983Y-79647070D01*
X181927819Y-79645210D01*
X182053157Y-79601352D01*
X182074817Y-79585366D01*
X182159994Y-79522503D01*
X182159995Y-79522501D01*
X182159999Y-79522499D01*
X182222372Y-79437986D01*
X182277165Y-79398800D01*
X182344529Y-79399303D01*
X182397773Y-79437988D01*
X182468572Y-79533918D01*
X182468581Y-79533927D01*
X182557825Y-79599791D01*
X182574206Y-79611881D01*
X182698121Y-79655241D01*
X182727543Y-79658000D01*
X183102456Y-79657999D01*
X183131879Y-79655241D01*
X183255794Y-79611881D01*
X183360274Y-79534770D01*
X183424184Y-79513475D01*
X183488407Y-79533812D01*
X183489662Y-79534724D01*
X183594206Y-79611881D01*
X183718121Y-79655241D01*
X183747543Y-79658000D01*
X184122456Y-79657999D01*
X184151879Y-79655241D01*
X184275794Y-79611881D01*
X184328725Y-79572815D01*
X184392635Y-79551520D01*
X184456857Y-79571857D01*
X184458177Y-79572816D01*
X184496838Y-79601349D01*
X184496843Y-79601352D01*
X184622181Y-79645210D01*
X184637057Y-79646605D01*
X184651933Y-79648000D01*
X184651934Y-79648000D01*
X185038067Y-79648000D01*
X185047983Y-79647070D01*
X185067819Y-79645210D01*
X185193157Y-79601352D01*
X185193157Y-79601351D01*
X185200867Y-79598654D01*
X185201779Y-79601263D01*
X185255540Y-79591908D01*
X185305990Y-79612961D01*
X185397853Y-79682622D01*
X185535941Y-79737077D01*
X185555000Y-79739366D01*
X186055000Y-79739366D01*
X186074058Y-79737077D01*
X186212146Y-79682622D01*
X186330426Y-79592928D01*
X186330428Y-79592926D01*
X186420122Y-79474646D01*
X186474577Y-79336559D01*
X186474579Y-79336550D01*
X186480471Y-79287500D01*
X186055001Y-79287500D01*
X186055000Y-79287501D01*
X186055000Y-79739366D01*
X185555000Y-79739366D01*
X185555000Y-78896500D01*
X185575817Y-78832431D01*
X185630317Y-78792835D01*
X185664000Y-78787500D01*
X186480468Y-78787500D01*
X186474577Y-78738441D01*
X186420122Y-78600353D01*
X186330428Y-78482073D01*
X186329499Y-78481144D01*
X186329038Y-78480240D01*
X186325923Y-78476132D01*
X186326660Y-78475572D01*
X186298916Y-78421120D01*
X186309454Y-78354584D01*
X186357085Y-78306952D01*
X186375518Y-78297560D01*
X186442050Y-78287023D01*
X186474484Y-78297561D01*
X186524696Y-78323146D01*
X186618481Y-78338000D01*
X186881518Y-78337999D01*
X186975304Y-78323146D01*
X187088342Y-78265550D01*
X187178050Y-78175842D01*
X187235646Y-78062804D01*
X187250500Y-77969019D01*
X187250499Y-76630982D01*
X187235646Y-76537196D01*
X187223246Y-76512859D01*
X187212380Y-76491533D01*
X187200500Y-76442049D01*
X187200500Y-76378287D01*
X187221317Y-76314218D01*
X187223025Y-76311931D01*
X187226278Y-76307692D01*
X187259024Y-76265018D01*
X187268901Y-76241171D01*
X187312648Y-76189946D01*
X187378152Y-76174218D01*
X187435959Y-76196407D01*
X187440644Y-76200002D01*
X187484982Y-76234024D01*
X187552526Y-76262001D01*
X187557212Y-76263942D01*
X187608437Y-76307692D01*
X187624500Y-76364645D01*
X187624500Y-77243094D01*
X187624501Y-77243118D01*
X187635122Y-77331558D01*
X187635124Y-77331568D01*
X187675654Y-77434343D01*
X187690639Y-77472342D01*
X187782078Y-77592922D01*
X187902658Y-77684361D01*
X188043436Y-77739877D01*
X188078498Y-77744087D01*
X188139625Y-77772393D01*
X188172441Y-77831225D01*
X188174500Y-77852309D01*
X188174500Y-78061708D01*
X188153683Y-78125777D01*
X188123494Y-78154000D01*
X188097739Y-78170183D01*
X187970181Y-78297741D01*
X187954002Y-78323491D01*
X187902289Y-78366665D01*
X187861709Y-78374500D01*
X187733278Y-78374500D01*
X187719758Y-78373658D01*
X187697193Y-78370837D01*
X187697188Y-78370837D01*
X187683772Y-78372693D01*
X187678140Y-78373472D01*
X187663207Y-78374500D01*
X187643982Y-78374500D01*
X187630479Y-78378118D01*
X187622014Y-78380386D01*
X187608744Y-78383070D01*
X187586218Y-78386186D01*
X187586208Y-78386189D01*
X187568494Y-78393662D01*
X187554347Y-78398516D01*
X187535762Y-78403496D01*
X187535758Y-78403498D01*
X187516055Y-78414873D01*
X187503936Y-78420899D01*
X187482986Y-78429738D01*
X187467801Y-78441548D01*
X187455390Y-78449899D01*
X187438737Y-78459513D01*
X187422654Y-78475596D01*
X187412502Y-78484558D01*
X187259401Y-78603636D01*
X187206711Y-78625663D01*
X187112821Y-78638024D01*
X187112814Y-78638026D01*
X186984981Y-78690976D01*
X186875214Y-78775204D01*
X186875204Y-78775214D01*
X186790976Y-78884981D01*
X186738026Y-79012814D01*
X186738024Y-79012821D01*
X186719965Y-79149997D01*
X186719965Y-79150002D01*
X186738024Y-79287178D01*
X186738026Y-79287185D01*
X186790974Y-79415014D01*
X186790976Y-79415018D01*
X186873373Y-79522399D01*
X186875209Y-79524791D01*
X186875213Y-79524794D01*
X186875214Y-79524795D01*
X186895663Y-79540486D01*
X186984982Y-79609024D01*
X187024849Y-79625537D01*
X187112814Y-79661973D01*
X187112821Y-79661975D01*
X187249997Y-79680035D01*
X187250000Y-79680035D01*
X187250003Y-79680035D01*
X187387178Y-79661975D01*
X187387180Y-79661974D01*
X187387183Y-79661974D01*
X187515018Y-79609024D01*
X187624791Y-79524791D01*
X187709024Y-79415018D01*
X187748704Y-79319217D01*
X187782483Y-79274894D01*
X187801909Y-79259786D01*
X187865260Y-79236885D01*
X187929976Y-79255596D01*
X187961118Y-79287835D01*
X187970180Y-79302257D01*
X187970182Y-79302259D01*
X187970184Y-79302262D01*
X188097738Y-79429816D01*
X188248885Y-79524788D01*
X188250480Y-79525790D01*
X188250483Y-79525791D01*
X188420737Y-79585366D01*
X188420742Y-79585367D01*
X188420745Y-79585368D01*
X188600000Y-79605565D01*
X188779255Y-79585368D01*
X188779259Y-79585366D01*
X188779262Y-79585366D01*
X188949516Y-79525791D01*
X188949519Y-79525790D01*
X188949518Y-79525790D01*
X188949522Y-79525789D01*
X189102262Y-79429816D01*
X189229816Y-79302262D01*
X189325789Y-79149522D01*
X189356127Y-79062821D01*
X189385366Y-78979262D01*
X189385367Y-78979257D01*
X189385368Y-78979255D01*
X189405565Y-78800000D01*
X189385368Y-78620745D01*
X189385366Y-78620738D01*
X189385366Y-78620737D01*
X189325791Y-78450483D01*
X189325790Y-78450480D01*
X189320178Y-78441548D01*
X189229816Y-78297738D01*
X189102262Y-78170184D01*
X189091408Y-78163364D01*
X189076506Y-78154000D01*
X189033335Y-78102286D01*
X189025500Y-78061708D01*
X189025500Y-77852309D01*
X189046317Y-77788240D01*
X189100817Y-77748644D01*
X189121494Y-77744088D01*
X189156564Y-77739877D01*
X189297342Y-77684361D01*
X189417922Y-77592922D01*
X189509361Y-77472342D01*
X189564877Y-77331564D01*
X189575500Y-77243102D01*
X189575500Y-76505740D01*
X189596317Y-76441671D01*
X189650817Y-76402075D01*
X189718183Y-76402075D01*
X189728266Y-76406565D01*
X189728381Y-76406290D01*
X189862814Y-76461973D01*
X189862821Y-76461975D01*
X189999997Y-76480035D01*
X190000000Y-76480035D01*
X190000003Y-76480035D01*
X190101272Y-76466702D01*
X190167510Y-76478978D01*
X190213882Y-76527843D01*
X190224500Y-76574769D01*
X190224500Y-77243094D01*
X190224501Y-77243118D01*
X190235122Y-77331558D01*
X190235124Y-77331568D01*
X190275654Y-77434343D01*
X190290639Y-77472342D01*
X190352936Y-77554492D01*
X190382077Y-77592921D01*
X190382081Y-77592925D01*
X190431361Y-77630295D01*
X190469833Y-77685595D01*
X190474500Y-77717147D01*
X190474500Y-77998875D01*
X190453683Y-78062944D01*
X190423491Y-78091168D01*
X190297741Y-78170181D01*
X190170183Y-78297739D01*
X190074209Y-78450480D01*
X190074208Y-78450483D01*
X190014633Y-78620737D01*
X190014632Y-78620742D01*
X189994435Y-78800000D01*
X190014632Y-78979257D01*
X190014633Y-78979262D01*
X190074208Y-79149516D01*
X190074209Y-79149519D01*
X190103898Y-79196769D01*
X190170184Y-79302262D01*
X190297738Y-79429816D01*
X190448885Y-79524788D01*
X190450480Y-79525790D01*
X190450483Y-79525791D01*
X190620737Y-79585366D01*
X190620742Y-79585367D01*
X190620745Y-79585368D01*
X190800000Y-79605565D01*
X190979255Y-79585368D01*
X191030844Y-79567315D01*
X191098191Y-79565804D01*
X191143101Y-79596795D01*
X191145158Y-79594739D01*
X191150204Y-79599785D01*
X191150209Y-79599791D01*
X191150213Y-79599794D01*
X191150214Y-79599795D01*
X191162243Y-79609025D01*
X191259982Y-79684024D01*
X191265337Y-79686242D01*
X191387814Y-79736973D01*
X191387821Y-79736975D01*
X191524997Y-79755035D01*
X191525000Y-79755035D01*
X191525003Y-79755035D01*
X191662178Y-79736975D01*
X191662180Y-79736974D01*
X191662183Y-79736974D01*
X191790018Y-79684024D01*
X191899791Y-79599791D01*
X191984024Y-79490018D01*
X192036974Y-79362183D01*
X192040266Y-79337183D01*
X192055035Y-79225002D01*
X192055035Y-79224997D01*
X192036975Y-79087821D01*
X192036973Y-79087814D01*
X192005907Y-79012814D01*
X191984024Y-78959983D01*
X191984023Y-78959982D01*
X191984023Y-78959981D01*
X191899795Y-78850214D01*
X191899794Y-78850213D01*
X191899791Y-78850209D01*
X191899786Y-78850205D01*
X191899785Y-78850204D01*
X191790018Y-78765976D01*
X191790014Y-78765974D01*
X191655583Y-78710292D01*
X191656499Y-78708079D01*
X191608977Y-78677212D01*
X191587744Y-78626479D01*
X191586729Y-78626711D01*
X191585395Y-78620865D01*
X191585376Y-78620821D01*
X191585368Y-78620745D01*
X191585365Y-78620737D01*
X191525791Y-78450483D01*
X191525790Y-78450480D01*
X191520178Y-78441548D01*
X191429816Y-78297738D01*
X191397627Y-78265549D01*
X191357425Y-78225346D01*
X191326842Y-78165323D01*
X191325500Y-78148272D01*
X191325500Y-77859500D01*
X191346317Y-77795431D01*
X191400817Y-77755835D01*
X191434500Y-77750500D01*
X191668094Y-77750500D01*
X191668102Y-77750500D01*
X191756564Y-77739877D01*
X191897342Y-77684361D01*
X192017922Y-77592922D01*
X192017925Y-77592917D01*
X192023194Y-77587650D01*
X192025251Y-77589707D01*
X192070190Y-77558438D01*
X192137542Y-77559812D01*
X192191223Y-77600512D01*
X192210276Y-77652593D01*
X192212289Y-77674067D01*
X192212290Y-77674069D01*
X192256147Y-77799406D01*
X192256150Y-77799411D01*
X192334996Y-77906244D01*
X192335005Y-77906253D01*
X192441838Y-77985099D01*
X192441843Y-77985102D01*
X192567181Y-78028960D01*
X192582057Y-78030355D01*
X192596933Y-78031750D01*
X192596934Y-78031750D01*
X192983067Y-78031750D01*
X192992983Y-78030820D01*
X193012819Y-78028960D01*
X193138157Y-77985102D01*
X193205275Y-77935566D01*
X193269184Y-77914271D01*
X193333406Y-77934608D01*
X193334633Y-77935499D01*
X193401843Y-77985102D01*
X193527181Y-78028960D01*
X193542057Y-78030355D01*
X193556933Y-78031750D01*
X193556934Y-78031750D01*
X193943067Y-78031750D01*
X193952983Y-78030820D01*
X193972819Y-78028960D01*
X194098157Y-77985102D01*
X194204999Y-77906249D01*
X194205004Y-77906241D01*
X194207572Y-77903675D01*
X194210523Y-77902171D01*
X194211571Y-77901398D01*
X194211699Y-77901572D01*
X194267596Y-77873092D01*
X194284647Y-77871750D01*
X194310501Y-77871750D01*
X194374570Y-77892567D01*
X194414166Y-77947067D01*
X194419501Y-77980750D01*
X194419501Y-78037460D01*
X194422258Y-78066874D01*
X194422258Y-78066876D01*
X194422259Y-78066879D01*
X194461279Y-78178392D01*
X194465619Y-78190793D01*
X194465621Y-78190797D01*
X194543572Y-78296418D01*
X194543581Y-78296427D01*
X194622382Y-78354584D01*
X194649206Y-78374381D01*
X194773121Y-78417741D01*
X194802543Y-78420500D01*
X195177456Y-78420499D01*
X195206879Y-78417741D01*
X195330794Y-78374381D01*
X195435275Y-78297269D01*
X195499183Y-78275975D01*
X195563405Y-78296312D01*
X195564709Y-78297259D01*
X195566463Y-78298553D01*
X195605661Y-78353340D01*
X195605170Y-78420704D01*
X195602456Y-78427977D01*
X195588027Y-78462811D01*
X195588024Y-78462821D01*
X195569965Y-78599997D01*
X195569965Y-78600002D01*
X195576715Y-78651272D01*
X195564439Y-78717510D01*
X195515574Y-78763882D01*
X195468648Y-78774500D01*
X193645708Y-78774500D01*
X193581639Y-78753683D01*
X193579353Y-78751975D01*
X193565019Y-78740976D01*
X193437185Y-78688026D01*
X193437178Y-78688024D01*
X193300003Y-78669965D01*
X193299997Y-78669965D01*
X193162821Y-78688024D01*
X193162814Y-78688026D01*
X193034981Y-78740976D01*
X192925214Y-78825204D01*
X192925204Y-78825214D01*
X192840976Y-78934981D01*
X192788026Y-79062814D01*
X192788024Y-79062821D01*
X192769965Y-79199997D01*
X192769965Y-79200002D01*
X192788024Y-79337178D01*
X192788026Y-79337185D01*
X192840974Y-79465014D01*
X192840976Y-79465018D01*
X192923693Y-79572816D01*
X192925209Y-79574791D01*
X193034982Y-79659024D01*
X193095341Y-79684025D01*
X193162814Y-79711973D01*
X193162821Y-79711975D01*
X193299997Y-79730035D01*
X193300000Y-79730035D01*
X193300003Y-79730035D01*
X193437178Y-79711975D01*
X193437180Y-79711974D01*
X193437183Y-79711974D01*
X193565018Y-79659024D01*
X193569951Y-79655239D01*
X193579353Y-79648025D01*
X193642854Y-79625537D01*
X193645708Y-79625500D01*
X197998481Y-79625500D01*
X198106700Y-79596503D01*
X198203726Y-79540485D01*
X199540485Y-78203726D01*
X199596503Y-78106700D01*
X199625500Y-77998481D01*
X199625500Y-77886445D01*
X199625500Y-75034568D01*
X199646317Y-74970499D01*
X199685569Y-74941980D01*
X199683571Y-74938199D01*
X199690794Y-74934381D01*
X199796418Y-74856427D01*
X199796419Y-74856425D01*
X199796423Y-74856423D01*
X199803297Y-74847108D01*
X199858091Y-74807920D01*
X199925455Y-74808422D01*
G37*
%TD.AperFunction*%
%TA.AperFunction,Conductor*%
G36*
X197380990Y-78387961D02*
G01*
X197472853Y-78457622D01*
X197610940Y-78512077D01*
X197610949Y-78512079D01*
X197697708Y-78522498D01*
X197697728Y-78522499D01*
X197755063Y-78522499D01*
X197819132Y-78543315D01*
X197858730Y-78597814D01*
X197858731Y-78665180D01*
X197832142Y-78708571D01*
X197798143Y-78742572D01*
X197738121Y-78773158D01*
X197721066Y-78774500D01*
X196731352Y-78774500D01*
X196667283Y-78753683D01*
X196627687Y-78699183D01*
X196623285Y-78651272D01*
X196630035Y-78600002D01*
X196630035Y-78599997D01*
X196622956Y-78546228D01*
X196635232Y-78479990D01*
X196684097Y-78433618D01*
X196731023Y-78423000D01*
X197113067Y-78423000D01*
X197122983Y-78422070D01*
X197142819Y-78420210D01*
X197268157Y-78376352D01*
X197268157Y-78376351D01*
X197275867Y-78373654D01*
X197276779Y-78376263D01*
X197330540Y-78366908D01*
X197380990Y-78387961D01*
G37*
%TD.AperFunction*%
%TA.AperFunction,Conductor*%
G36*
X198003886Y-50000277D02*
G01*
X198276859Y-50019801D01*
X198292237Y-50022011D01*
X198555845Y-50079356D01*
X198570764Y-50083736D01*
X198823532Y-50178014D01*
X198837676Y-50184474D01*
X199074440Y-50313757D01*
X199087523Y-50322165D01*
X199303476Y-50483826D01*
X199315230Y-50494010D01*
X199505989Y-50684769D01*
X199516173Y-50696523D01*
X199677834Y-50912476D01*
X199686242Y-50925559D01*
X199815525Y-51162323D01*
X199821986Y-51176469D01*
X199916262Y-51429233D01*
X199920643Y-51444155D01*
X199977986Y-51707754D01*
X199980199Y-51723148D01*
X199999722Y-51996113D01*
X200000000Y-52003889D01*
X200000000Y-69205186D01*
X199979183Y-69269255D01*
X199924683Y-69308851D01*
X199857317Y-69308851D01*
X199802817Y-69269255D01*
X199788117Y-69241187D01*
X199763852Y-69171843D01*
X199763849Y-69171838D01*
X199685002Y-69065004D01*
X199685000Y-69065002D01*
X199684999Y-69065001D01*
X199656888Y-69044254D01*
X199617703Y-68989461D01*
X199616338Y-68984791D01*
X199596503Y-68910763D01*
X199563002Y-68852738D01*
X199540485Y-68813736D01*
X199461263Y-68734514D01*
X199461263Y-68734515D01*
X198773323Y-68046575D01*
X198742740Y-67986551D01*
X198753278Y-67920015D01*
X198800913Y-67872380D01*
X198850398Y-67860500D01*
X199023067Y-67860500D01*
X199032983Y-67859570D01*
X199052819Y-67857710D01*
X199178157Y-67813852D01*
X199284999Y-67734999D01*
X199303195Y-67710345D01*
X199363849Y-67628161D01*
X199363848Y-67628161D01*
X199363852Y-67628157D01*
X199407710Y-67502819D01*
X199410500Y-67473066D01*
X199410500Y-67086934D01*
X199409668Y-67078066D01*
X199407710Y-67057182D01*
X199407710Y-67057181D01*
X199363852Y-66931843D01*
X199363851Y-66931842D01*
X199361154Y-66924133D01*
X199363761Y-66923220D01*
X199354410Y-66869445D01*
X199375461Y-66819009D01*
X199445122Y-66727146D01*
X199499577Y-66589058D01*
X199501866Y-66570000D01*
X198736898Y-66570000D01*
X198672829Y-66549183D01*
X198659825Y-66538076D01*
X198631264Y-66509516D01*
X198631263Y-66509515D01*
X198604498Y-66494062D01*
X198559423Y-66443999D01*
X198550000Y-66399666D01*
X198550000Y-66069999D01*
X199050000Y-66069999D01*
X199050001Y-66070000D01*
X199501866Y-66070000D01*
X199499577Y-66050941D01*
X199445122Y-65912853D01*
X199409488Y-65865862D01*
X199387363Y-65802233D01*
X199406863Y-65737752D01*
X199409488Y-65734138D01*
X199445122Y-65687146D01*
X199499577Y-65549058D01*
X199501866Y-65530000D01*
X199050001Y-65530000D01*
X199050000Y-65530001D01*
X199050000Y-66069999D01*
X198550000Y-66069999D01*
X198550000Y-65530001D01*
X198549999Y-65530000D01*
X197659000Y-65530000D01*
X197594931Y-65509183D01*
X197555335Y-65454683D01*
X197550000Y-65421000D01*
X197550000Y-65139000D01*
X197570817Y-65074931D01*
X197625317Y-65035335D01*
X197659000Y-65030000D01*
X199501866Y-65030000D01*
X199499577Y-65010941D01*
X199445122Y-64872853D01*
X199375461Y-64780990D01*
X199353336Y-64717361D01*
X199363026Y-64676522D01*
X199361154Y-64675867D01*
X199371998Y-64644877D01*
X199407710Y-64542819D01*
X199410500Y-64513066D01*
X199410500Y-64126934D01*
X199407710Y-64097181D01*
X199363852Y-63971843D01*
X199363849Y-63971838D01*
X199285003Y-63865005D01*
X199284994Y-63864996D01*
X199178161Y-63786150D01*
X199178156Y-63786147D01*
X199052819Y-63742290D01*
X199052817Y-63742289D01*
X199023067Y-63739500D01*
X199023066Y-63739500D01*
X198576934Y-63739500D01*
X198576933Y-63739500D01*
X198547182Y-63742289D01*
X198547180Y-63742290D01*
X198421843Y-63786147D01*
X198421842Y-63786148D01*
X198392682Y-63807670D01*
X198364726Y-63828302D01*
X198300816Y-63849598D01*
X198236593Y-63829261D01*
X198235307Y-63828327D01*
X198178157Y-63786148D01*
X198178156Y-63786147D01*
X198052819Y-63742290D01*
X198052817Y-63742289D01*
X198023067Y-63739500D01*
X198023066Y-63739500D01*
X197576934Y-63739500D01*
X197576933Y-63739500D01*
X197547183Y-63742289D01*
X197533423Y-63747104D01*
X197483199Y-63752286D01*
X197350003Y-63734750D01*
X197350001Y-63734750D01*
X197350000Y-63734750D01*
X197296571Y-63741784D01*
X197269447Y-63745355D01*
X197203209Y-63733078D01*
X197156838Y-63684212D01*
X197148045Y-63617423D01*
X197178143Y-63560215D01*
X197212012Y-63526347D01*
X197265220Y-63417509D01*
X197275500Y-63346949D01*
X197275499Y-62784498D01*
X197296316Y-62720431D01*
X197350816Y-62680834D01*
X197384499Y-62675499D01*
X197946944Y-62675499D01*
X197946948Y-62675499D01*
X198017509Y-62665220D01*
X198126347Y-62612012D01*
X198212012Y-62526347D01*
X198265220Y-62417509D01*
X198275500Y-62346949D01*
X198275499Y-62153052D01*
X198265220Y-62082491D01*
X198248296Y-62047872D01*
X198238858Y-61981171D01*
X198248293Y-61952131D01*
X198265220Y-61917509D01*
X198275500Y-61846949D01*
X198275499Y-61653052D01*
X198265220Y-61582491D01*
X198248296Y-61547872D01*
X198238858Y-61481171D01*
X198248293Y-61452131D01*
X198265220Y-61417509D01*
X198275500Y-61346949D01*
X198275499Y-61153052D01*
X198265220Y-61082491D01*
X198248296Y-61047872D01*
X198238858Y-60981171D01*
X198248293Y-60952131D01*
X198265220Y-60917509D01*
X198265586Y-60915001D01*
X198269272Y-60889690D01*
X198275500Y-60846949D01*
X198275499Y-60653052D01*
X198265220Y-60582491D01*
X198265218Y-60582486D01*
X198248296Y-60547872D01*
X198238858Y-60481171D01*
X198248297Y-60452125D01*
X198259750Y-60428698D01*
X198306591Y-60380283D01*
X198372945Y-60368648D01*
X198433465Y-60398236D01*
X198444148Y-60410218D01*
X198498593Y-60481171D01*
X198507379Y-60492621D01*
X198507383Y-60492624D01*
X198507384Y-60492625D01*
X198622373Y-60580860D01*
X198622374Y-60580860D01*
X198622375Y-60580861D01*
X198656182Y-60594864D01*
X198756288Y-60636329D01*
X198756295Y-60636331D01*
X198899997Y-60655250D01*
X198900000Y-60655250D01*
X198900003Y-60655250D01*
X199043704Y-60636331D01*
X199043706Y-60636330D01*
X199043709Y-60636330D01*
X199177625Y-60580861D01*
X199292621Y-60492621D01*
X199380861Y-60377625D01*
X199436330Y-60243709D01*
X199448266Y-60153052D01*
X199455250Y-60100000D01*
X199455250Y-60099997D01*
X199436331Y-59956295D01*
X199436329Y-59956288D01*
X199380860Y-59822373D01*
X199292625Y-59707384D01*
X199292624Y-59707383D01*
X199292621Y-59707379D01*
X199289975Y-59705349D01*
X199273712Y-59692869D01*
X199245672Y-59660895D01*
X199240485Y-59651910D01*
X199240483Y-59651908D01*
X199240482Y-59651906D01*
X199160878Y-59572303D01*
X199130294Y-59512280D01*
X199140832Y-59445744D01*
X199171596Y-59408753D01*
X199192621Y-59392621D01*
X199280861Y-59277625D01*
X199336330Y-59143709D01*
X199343338Y-59090485D01*
X199355250Y-59000002D01*
X199355250Y-58999997D01*
X199336331Y-58856295D01*
X199336330Y-58856291D01*
X199332458Y-58846943D01*
X199325668Y-58830552D01*
X199320384Y-58763396D01*
X199355582Y-58705957D01*
X199360511Y-58701989D01*
X199405429Y-58667926D01*
X199405430Y-58667926D01*
X199495120Y-58549650D01*
X199495122Y-58549647D01*
X199549577Y-58411558D01*
X199551866Y-58392500D01*
X198810999Y-58392500D01*
X198756499Y-58377897D01*
X198714237Y-58353497D01*
X198680787Y-58344534D01*
X198624290Y-58307843D01*
X198600149Y-58244951D01*
X198600000Y-58239248D01*
X198600000Y-58001500D01*
X198620817Y-57937431D01*
X198675317Y-57897835D01*
X198709000Y-57892500D01*
X199551866Y-57892500D01*
X199549577Y-57873441D01*
X199495122Y-57735353D01*
X199425461Y-57643490D01*
X199403336Y-57579861D01*
X199413026Y-57539022D01*
X199411154Y-57538367D01*
X199431168Y-57481171D01*
X199457710Y-57405319D01*
X199460500Y-57375566D01*
X199460500Y-56989434D01*
X199457710Y-56959681D01*
X199413852Y-56834343D01*
X199371697Y-56777225D01*
X199350402Y-56713316D01*
X199370739Y-56649093D01*
X199371698Y-56647773D01*
X199403584Y-56604569D01*
X199413852Y-56590657D01*
X199457710Y-56465319D01*
X199460500Y-56435566D01*
X199460500Y-56049434D01*
X199457710Y-56019681D01*
X199413852Y-55894343D01*
X199413851Y-55894342D01*
X199411154Y-55886633D01*
X199413761Y-55885720D01*
X199404410Y-55831945D01*
X199425461Y-55781509D01*
X199495122Y-55689646D01*
X199549577Y-55551558D01*
X199551866Y-55532500D01*
X198709000Y-55532500D01*
X198644931Y-55511683D01*
X198605335Y-55457183D01*
X198600000Y-55423500D01*
X198600000Y-54607029D01*
X199100000Y-54607029D01*
X199100000Y-55032499D01*
X199100001Y-55032500D01*
X199551866Y-55032500D01*
X199549577Y-55013441D01*
X199495122Y-54875353D01*
X199405428Y-54757073D01*
X199405426Y-54757071D01*
X199287146Y-54667377D01*
X199149059Y-54612922D01*
X199149050Y-54612920D01*
X199100000Y-54607029D01*
X198600000Y-54607029D01*
X198599999Y-54607029D01*
X198550949Y-54612920D01*
X198550940Y-54612922D01*
X198412853Y-54667377D01*
X198294573Y-54757071D01*
X198294571Y-54757073D01*
X198204878Y-54875352D01*
X198173400Y-54955174D01*
X198130530Y-55007138D01*
X198065304Y-55023980D01*
X198002635Y-54999266D01*
X197966461Y-54942437D01*
X197963000Y-54915186D01*
X197963000Y-54028982D01*
X197934003Y-53920763D01*
X197877986Y-53823739D01*
X197877985Y-53823737D01*
X197846924Y-53792676D01*
X197816342Y-53732652D01*
X197815543Y-53722498D01*
X198315000Y-53722498D01*
X198315001Y-53722499D01*
X198596478Y-53722499D01*
X198596483Y-53722498D01*
X198690146Y-53707665D01*
X198803045Y-53650140D01*
X198892640Y-53560545D01*
X198950165Y-53447646D01*
X198950165Y-53447645D01*
X198964999Y-53353982D01*
X198965000Y-53353980D01*
X198965000Y-52322501D01*
X198964999Y-52322500D01*
X198315001Y-52322500D01*
X198315000Y-52322501D01*
X198315000Y-53722498D01*
X197815543Y-53722498D01*
X197815000Y-53715602D01*
X197815000Y-52322501D01*
X197814999Y-52322500D01*
X197165002Y-52322500D01*
X197165000Y-52322501D01*
X197165000Y-52847602D01*
X197144183Y-52911671D01*
X197089683Y-52951267D01*
X197022317Y-52951267D01*
X196978925Y-52924677D01*
X196357424Y-52303176D01*
X196326841Y-52243152D01*
X196325499Y-52226101D01*
X196325499Y-51822499D01*
X197165000Y-51822499D01*
X197165001Y-51822500D01*
X197814999Y-51822500D01*
X197815000Y-51822499D01*
X198315000Y-51822499D01*
X198315001Y-51822500D01*
X198964998Y-51822500D01*
X198964999Y-51822499D01*
X198964999Y-50791022D01*
X198964998Y-50791016D01*
X198950165Y-50697353D01*
X198892640Y-50584454D01*
X198803045Y-50494859D01*
X198690145Y-50437334D01*
X198596482Y-50422500D01*
X198315001Y-50422500D01*
X198315000Y-50422501D01*
X198315000Y-51822499D01*
X197815000Y-51822499D01*
X197815000Y-50422501D01*
X197814999Y-50422500D01*
X197533522Y-50422500D01*
X197533516Y-50422501D01*
X197439853Y-50437334D01*
X197326954Y-50494859D01*
X197237359Y-50584454D01*
X197179834Y-50697353D01*
X197179834Y-50697354D01*
X197165000Y-50791017D01*
X197165000Y-51822499D01*
X196325499Y-51822499D01*
X196325499Y-50777641D01*
X196325498Y-50777635D01*
X196322585Y-50752509D01*
X196277206Y-50649735D01*
X196197765Y-50570294D01*
X196094991Y-50524915D01*
X196069865Y-50522000D01*
X196069864Y-50522000D01*
X194980141Y-50522000D01*
X194980120Y-50522002D01*
X194955011Y-50524914D01*
X194852234Y-50570294D01*
X194772794Y-50649734D01*
X194727415Y-50752509D01*
X194724500Y-50777634D01*
X194724500Y-52947102D01*
X194703683Y-53011171D01*
X194649183Y-53050767D01*
X194581817Y-53050767D01*
X194538425Y-53024177D01*
X193817424Y-52303176D01*
X193786841Y-52243152D01*
X193785499Y-52226101D01*
X193785499Y-50777641D01*
X193785498Y-50777635D01*
X193782585Y-50752509D01*
X193737206Y-50649735D01*
X193657765Y-50570294D01*
X193554991Y-50524915D01*
X193529865Y-50522000D01*
X193529864Y-50522000D01*
X192440141Y-50522000D01*
X192440120Y-50522002D01*
X192415011Y-50524914D01*
X192312234Y-50570294D01*
X192232794Y-50649734D01*
X192187415Y-50752509D01*
X192184500Y-50777634D01*
X192184500Y-53367358D01*
X192184502Y-53367379D01*
X192187414Y-53392488D01*
X192187414Y-53392490D01*
X192187415Y-53392491D01*
X192232794Y-53495265D01*
X192312235Y-53574706D01*
X192415009Y-53620085D01*
X192440135Y-53623000D01*
X193529864Y-53622999D01*
X193554991Y-53620085D01*
X193657765Y-53574706D01*
X193694537Y-53537933D01*
X193754558Y-53507351D01*
X193821095Y-53517889D01*
X193848686Y-53537934D01*
X194243881Y-53933129D01*
X194274463Y-53993151D01*
X194263925Y-54059687D01*
X194216290Y-54107322D01*
X194149754Y-54117860D01*
X194126819Y-54111603D01*
X194072862Y-54090325D01*
X194060000Y-54088780D01*
X194060000Y-54549999D01*
X194060001Y-54550000D01*
X194477224Y-54550000D01*
X194477224Y-54549999D01*
X194469675Y-54487144D01*
X194469674Y-54487137D01*
X194448396Y-54433181D01*
X194444257Y-54365942D01*
X194480431Y-54309113D01*
X194543100Y-54284399D01*
X194608326Y-54301241D01*
X194626865Y-54316113D01*
X194751237Y-54440485D01*
X194848263Y-54496503D01*
X194848269Y-54496504D01*
X194852430Y-54498228D01*
X194903657Y-54541977D01*
X194919385Y-54607481D01*
X194893608Y-54669720D01*
X194877078Y-54685407D01*
X194825212Y-54725206D01*
X194825204Y-54725214D01*
X194740976Y-54834981D01*
X194688026Y-54962814D01*
X194688024Y-54962821D01*
X194681953Y-55008940D01*
X194652951Y-55069743D01*
X194593749Y-55101887D01*
X194526960Y-55093094D01*
X194492346Y-55067046D01*
X194477224Y-55050000D01*
X193669000Y-55050000D01*
X193604931Y-55029183D01*
X193565335Y-54974683D01*
X193560000Y-54941000D01*
X193560000Y-54088780D01*
X193547135Y-54090326D01*
X193410327Y-54144276D01*
X193287201Y-54237646D01*
X193285934Y-54235976D01*
X193234804Y-54262011D01*
X193168271Y-54251454D01*
X193153057Y-54242049D01*
X193130798Y-54225621D01*
X193130795Y-54225619D01*
X193130794Y-54225619D01*
X193006879Y-54182259D01*
X193006877Y-54182258D01*
X192977458Y-54179500D01*
X192602543Y-54179500D01*
X192602538Y-54179501D01*
X192573125Y-54182258D01*
X192573121Y-54182258D01*
X192573121Y-54182259D01*
X192573118Y-54182259D01*
X192573118Y-54182260D01*
X192449206Y-54225619D01*
X192449202Y-54225621D01*
X192343579Y-54303574D01*
X192337805Y-54309349D01*
X192335645Y-54307189D01*
X192291977Y-54338396D01*
X192224613Y-54337868D01*
X192217397Y-54335173D01*
X192160956Y-54311795D01*
X192160946Y-54311792D01*
X192023771Y-54293733D01*
X192023765Y-54293733D01*
X191886590Y-54311792D01*
X191886583Y-54311794D01*
X191843598Y-54329599D01*
X191776440Y-54334883D01*
X191737162Y-54316596D01*
X191628161Y-54236150D01*
X191628156Y-54236147D01*
X191502819Y-54192290D01*
X191502817Y-54192289D01*
X191473067Y-54189500D01*
X191473066Y-54189500D01*
X191086934Y-54189500D01*
X191086933Y-54189500D01*
X191057182Y-54192289D01*
X191057180Y-54192290D01*
X191035147Y-54200000D01*
X190931843Y-54236148D01*
X190931841Y-54236148D01*
X190924134Y-54238846D01*
X190923224Y-54236245D01*
X190869406Y-54245583D01*
X190819010Y-54224538D01*
X190727150Y-54154879D01*
X190727151Y-54154879D01*
X190696655Y-54142853D01*
X190644691Y-54099982D01*
X190627850Y-54034756D01*
X190652564Y-53972087D01*
X190670277Y-53954988D01*
X190774791Y-53874791D01*
X190859024Y-53765018D01*
X190889978Y-53690286D01*
X190933728Y-53639062D01*
X190986778Y-53624099D01*
X190986725Y-53623180D01*
X190989845Y-53622999D01*
X190989864Y-53622999D01*
X191014991Y-53620085D01*
X191117765Y-53574706D01*
X191197206Y-53495265D01*
X191242585Y-53392491D01*
X191245500Y-53367365D01*
X191245499Y-50777636D01*
X191242585Y-50752509D01*
X191197206Y-50649735D01*
X191117765Y-50570294D01*
X191014991Y-50524915D01*
X190989865Y-50522000D01*
X190989864Y-50522000D01*
X189900141Y-50522000D01*
X189900120Y-50522002D01*
X189875011Y-50524914D01*
X189772234Y-50570294D01*
X189692794Y-50649734D01*
X189647415Y-50752509D01*
X189644500Y-50777634D01*
X189644500Y-53367358D01*
X189644502Y-53367379D01*
X189647414Y-53392488D01*
X189647414Y-53392490D01*
X189647415Y-53392491D01*
X189692794Y-53495265D01*
X189772235Y-53574706D01*
X189842312Y-53605647D01*
X189892513Y-53650569D01*
X189898987Y-53663647D01*
X189903483Y-53674500D01*
X189940974Y-53765014D01*
X189940976Y-53765018D01*
X189987166Y-53825214D01*
X190025209Y-53874791D01*
X190075398Y-53913302D01*
X190113552Y-53968818D01*
X190111789Y-54036161D01*
X190070779Y-54089606D01*
X190049028Y-54101176D01*
X189957577Y-54137240D01*
X189890339Y-54141379D01*
X189833509Y-54105205D01*
X189815007Y-54069293D01*
X189814708Y-54069417D01*
X189813218Y-54065820D01*
X189812302Y-54064042D01*
X189811973Y-54062814D01*
X189759023Y-53934981D01*
X189674795Y-53825214D01*
X189674794Y-53825213D01*
X189674791Y-53825209D01*
X189674786Y-53825205D01*
X189674785Y-53825204D01*
X189565018Y-53740976D01*
X189565014Y-53740974D01*
X189437185Y-53688026D01*
X189437178Y-53688024D01*
X189300003Y-53669965D01*
X189299997Y-53669965D01*
X189162821Y-53688024D01*
X189162814Y-53688026D01*
X189034981Y-53740976D01*
X188925214Y-53825204D01*
X188925204Y-53825214D01*
X188840976Y-53934981D01*
X188788026Y-54062814D01*
X188788024Y-54062821D01*
X188769965Y-54199996D01*
X188769965Y-54200000D01*
X188774183Y-54232047D01*
X188761904Y-54298284D01*
X188753818Y-54310995D01*
X188725621Y-54349202D01*
X188725619Y-54349205D01*
X188682259Y-54473120D01*
X188682258Y-54473122D01*
X188679500Y-54502541D01*
X188679500Y-54877456D01*
X188679501Y-54877461D01*
X188682258Y-54906874D01*
X188682258Y-54906876D01*
X188682259Y-54906879D01*
X188725055Y-55029183D01*
X188725619Y-55030793D01*
X188725618Y-55030793D01*
X188802728Y-55135274D01*
X188824023Y-55199185D01*
X188803685Y-55263408D01*
X188802728Y-55264726D01*
X188725618Y-55369206D01*
X188680379Y-55498492D01*
X188639569Y-55552090D01*
X188575050Y-55571464D01*
X188511464Y-55549214D01*
X188510907Y-55548727D01*
X188387147Y-55454878D01*
X188249054Y-55400420D01*
X188230000Y-55398131D01*
X188230000Y-56241000D01*
X188209183Y-56305069D01*
X188154683Y-56344665D01*
X188121000Y-56350000D01*
X187839000Y-56350000D01*
X187774931Y-56329183D01*
X187735335Y-56274683D01*
X187730000Y-56241000D01*
X187730000Y-55398131D01*
X187729999Y-55398131D01*
X187710945Y-55400420D01*
X187572850Y-55454878D01*
X187572849Y-55454879D01*
X187480990Y-55524538D01*
X187417362Y-55546663D01*
X187376519Y-55536979D01*
X187375867Y-55538846D01*
X187357731Y-55532500D01*
X187242819Y-55492290D01*
X187242817Y-55492289D01*
X187213067Y-55489500D01*
X187213066Y-55489500D01*
X186826934Y-55489500D01*
X186826933Y-55489500D01*
X186797182Y-55492289D01*
X186797180Y-55492290D01*
X186671843Y-55536147D01*
X186671838Y-55536150D01*
X186565005Y-55614996D01*
X186564996Y-55615005D01*
X186486150Y-55721838D01*
X186486147Y-55721843D01*
X186442290Y-55847180D01*
X186442289Y-55847182D01*
X186439500Y-55876932D01*
X186439500Y-56143650D01*
X186435786Y-56171860D01*
X186424500Y-56213981D01*
X186424500Y-56540500D01*
X186403683Y-56604569D01*
X186349183Y-56644165D01*
X186315501Y-56649500D01*
X186205142Y-56649500D01*
X186205120Y-56649502D01*
X186180011Y-56652414D01*
X186077234Y-56697794D01*
X185997794Y-56777234D01*
X185952415Y-56880009D01*
X185949500Y-56905134D01*
X185949500Y-58394858D01*
X185949502Y-58394879D01*
X185952414Y-58419988D01*
X185952414Y-58419990D01*
X185952415Y-58419991D01*
X185966606Y-58452130D01*
X185997794Y-58522765D01*
X186077235Y-58602206D01*
X186082269Y-58605654D01*
X186123364Y-58659033D01*
X186125235Y-58726373D01*
X186087167Y-58781952D01*
X186070160Y-58792701D01*
X186011955Y-58822358D01*
X185922359Y-58911954D01*
X185864834Y-59024853D01*
X185864834Y-59024854D01*
X185850000Y-59118517D01*
X185850000Y-59599999D01*
X185850001Y-59600000D01*
X186991000Y-59600000D01*
X187055069Y-59620817D01*
X187094665Y-59675317D01*
X187100000Y-59709000D01*
X187100000Y-59991000D01*
X187079183Y-60055069D01*
X187024683Y-60094665D01*
X186991000Y-60100000D01*
X185850002Y-60100000D01*
X185850001Y-60100001D01*
X185850001Y-60581483D01*
X185864834Y-60675146D01*
X185922359Y-60788045D01*
X186011954Y-60877640D01*
X186124854Y-60935165D01*
X186218518Y-60949999D01*
X186449793Y-60949999D01*
X186513861Y-60970816D01*
X186553458Y-61025316D01*
X186553458Y-61092681D01*
X186551194Y-61098984D01*
X186550422Y-61100940D01*
X186550420Y-61100949D01*
X186544529Y-61149999D01*
X186544530Y-61150000D01*
X187361000Y-61150000D01*
X187425069Y-61170817D01*
X187464665Y-61225317D01*
X187470000Y-61259000D01*
X187470000Y-61541000D01*
X187449183Y-61605069D01*
X187394683Y-61644665D01*
X187361000Y-61650000D01*
X186544531Y-61650000D01*
X186550422Y-61699056D01*
X186600208Y-61825307D01*
X186604345Y-61892545D01*
X186575882Y-61942367D01*
X186310677Y-62207574D01*
X186250654Y-62238158D01*
X186233602Y-62239500D01*
X186076933Y-62239500D01*
X186047182Y-62242289D01*
X186047180Y-62242290D01*
X185921843Y-62286147D01*
X185921838Y-62286150D01*
X185815005Y-62364996D01*
X185814996Y-62365005D01*
X185736150Y-62471838D01*
X185736147Y-62471843D01*
X185692290Y-62597180D01*
X185692289Y-62597182D01*
X185689500Y-62626932D01*
X185689500Y-63013067D01*
X185692289Y-63042817D01*
X185692290Y-63042819D01*
X185736147Y-63168156D01*
X185785682Y-63235274D01*
X185806977Y-63299186D01*
X185786639Y-63363408D01*
X185785682Y-63364726D01*
X185736147Y-63431843D01*
X185692290Y-63557180D01*
X185692289Y-63557182D01*
X185689500Y-63586932D01*
X185689500Y-63743601D01*
X185668683Y-63807670D01*
X185657575Y-63820676D01*
X184665777Y-64812473D01*
X184605753Y-64843056D01*
X184539217Y-64832518D01*
X184491582Y-64784883D01*
X184488004Y-64777122D01*
X184480861Y-64759876D01*
X184463054Y-64736670D01*
X184455136Y-64724819D01*
X184450830Y-64717361D01*
X184440510Y-64699486D01*
X184435049Y-64694025D01*
X184419819Y-64678794D01*
X184410426Y-64668084D01*
X184392621Y-64644880D01*
X184369419Y-64627076D01*
X184358701Y-64617677D01*
X184357425Y-64616401D01*
X184326842Y-64556377D01*
X184325500Y-64539326D01*
X184325500Y-64008862D01*
X184325500Y-64008856D01*
X184315359Y-63924410D01*
X184309109Y-63908562D01*
X184262365Y-63790027D01*
X184262364Y-63790026D01*
X184262364Y-63790025D01*
X184261042Y-63788282D01*
X184260487Y-63786687D01*
X184258709Y-63783524D01*
X184259276Y-63783204D01*
X184238914Y-63724657D01*
X184258410Y-63660174D01*
X184312085Y-63619466D01*
X184317481Y-63617745D01*
X184460197Y-63576282D01*
X184601557Y-63492681D01*
X184717681Y-63376557D01*
X184801282Y-63235197D01*
X184847099Y-63077492D01*
X184847099Y-63077491D01*
X184850000Y-63040642D01*
X184850000Y-62750001D01*
X184849999Y-62750000D01*
X183809000Y-62750000D01*
X183744931Y-62729183D01*
X183705335Y-62674683D01*
X183700000Y-62641000D01*
X183700000Y-62249999D01*
X184200000Y-62249999D01*
X184200001Y-62250000D01*
X184849999Y-62250000D01*
X184850000Y-62249999D01*
X184850000Y-61959357D01*
X184847099Y-61922508D01*
X184847099Y-61922507D01*
X184801282Y-61764802D01*
X184717681Y-61623442D01*
X184601557Y-61507318D01*
X184460197Y-61423717D01*
X184302492Y-61377900D01*
X184265643Y-61375000D01*
X184200001Y-61375000D01*
X184200000Y-61375001D01*
X184200000Y-62249999D01*
X183700000Y-62249999D01*
X183700000Y-61441000D01*
X183720817Y-61376931D01*
X183775317Y-61337335D01*
X183809000Y-61332000D01*
X183896586Y-61332000D01*
X183896586Y-61331999D01*
X183909578Y-61299056D01*
X183909579Y-61299050D01*
X183915471Y-61250000D01*
X183099000Y-61250000D01*
X183034931Y-61229183D01*
X182995335Y-61174683D01*
X182990000Y-61141000D01*
X182990000Y-60859000D01*
X183010817Y-60794931D01*
X183065317Y-60755335D01*
X183099000Y-60750000D01*
X183915468Y-60750000D01*
X183909577Y-60700941D01*
X183855122Y-60562853D01*
X183788776Y-60475362D01*
X183766651Y-60411733D01*
X183786151Y-60347251D01*
X183839828Y-60306547D01*
X183875628Y-60300500D01*
X184104267Y-60300500D01*
X184114929Y-60299500D01*
X184134699Y-60297646D01*
X184262882Y-60252793D01*
X184372150Y-60172150D01*
X184452793Y-60062882D01*
X184497646Y-59934699D01*
X184500500Y-59904266D01*
X184500500Y-58770734D01*
X184497646Y-58740301D01*
X184452793Y-58612118D01*
X184452789Y-58612112D01*
X184372153Y-58502853D01*
X184372149Y-58502849D01*
X184262879Y-58422205D01*
X184255662Y-58418391D01*
X184256174Y-58417421D01*
X184223866Y-58397119D01*
X184037805Y-58211058D01*
X184007222Y-58151034D01*
X184017760Y-58084498D01*
X184065395Y-58036863D01*
X184104704Y-58025459D01*
X184109731Y-58024987D01*
X184134699Y-58022646D01*
X184262882Y-57977793D01*
X184372150Y-57897150D01*
X184452793Y-57787882D01*
X184497646Y-57659699D01*
X184500500Y-57629266D01*
X184500500Y-56495734D01*
X184497646Y-56465301D01*
X184452793Y-56337118D01*
X184452789Y-56337112D01*
X184372153Y-56227853D01*
X184372146Y-56227846D01*
X184262887Y-56147210D01*
X184262882Y-56147207D01*
X184134700Y-56102354D01*
X184134696Y-56102353D01*
X184104267Y-56099500D01*
X184104266Y-56099500D01*
X183695734Y-56099500D01*
X183695729Y-56099500D01*
X183679207Y-56101049D01*
X183613475Y-56086303D01*
X183568964Y-56035737D01*
X183562676Y-55968666D01*
X183574025Y-55939098D01*
X183575123Y-55937144D01*
X183629577Y-55799059D01*
X183629579Y-55799050D01*
X183635471Y-55750000D01*
X183210001Y-55750000D01*
X183210000Y-55750001D01*
X183210000Y-56201866D01*
X183228986Y-56199587D01*
X183295080Y-56212616D01*
X183340892Y-56262006D01*
X183348924Y-56328892D01*
X183344865Y-56343809D01*
X183302355Y-56465296D01*
X183302353Y-56465303D01*
X183299500Y-56495732D01*
X183299500Y-57629267D01*
X183302353Y-57659696D01*
X183302354Y-57659700D01*
X183307883Y-57675500D01*
X183338500Y-57763000D01*
X183339900Y-57766999D01*
X183341412Y-57834348D01*
X183303048Y-57889723D01*
X183239463Y-57911973D01*
X183237017Y-57912000D01*
X182662983Y-57912000D01*
X182598914Y-57891183D01*
X182559318Y-57836683D01*
X182559318Y-57769317D01*
X182560100Y-57766999D01*
X182597646Y-57659699D01*
X182600500Y-57629266D01*
X182600500Y-56495734D01*
X182597646Y-56465301D01*
X182587241Y-56435564D01*
X182556617Y-56348044D01*
X182550500Y-56312044D01*
X182550500Y-56304058D01*
X182571317Y-56239989D01*
X182625817Y-56200393D01*
X182686215Y-56198382D01*
X182690948Y-56199578D01*
X182710000Y-56201866D01*
X182710000Y-54798131D01*
X183210000Y-54798131D01*
X183210000Y-55249999D01*
X183210001Y-55250000D01*
X183635468Y-55250000D01*
X183629577Y-55200941D01*
X183575122Y-55062853D01*
X183485428Y-54944573D01*
X183485426Y-54944571D01*
X183367147Y-54854878D01*
X183229054Y-54800420D01*
X183210000Y-54798131D01*
X182710000Y-54798131D01*
X182709999Y-54798131D01*
X182690945Y-54800420D01*
X182552850Y-54854878D01*
X182552849Y-54854879D01*
X182460990Y-54924538D01*
X182397362Y-54946663D01*
X182356519Y-54936979D01*
X182355867Y-54938846D01*
X182288251Y-54915186D01*
X182222819Y-54892290D01*
X182222817Y-54892289D01*
X182193067Y-54889500D01*
X182193066Y-54889500D01*
X181806934Y-54889500D01*
X181806933Y-54889500D01*
X181777182Y-54892289D01*
X181777180Y-54892290D01*
X181651843Y-54936147D01*
X181651838Y-54936150D01*
X181545005Y-55014996D01*
X181544996Y-55015005D01*
X181466150Y-55121838D01*
X181466147Y-55121843D01*
X181422290Y-55247180D01*
X181422289Y-55247182D01*
X181419500Y-55276932D01*
X181419500Y-55723067D01*
X181422289Y-55752817D01*
X181422290Y-55752819D01*
X181429978Y-55774791D01*
X181443383Y-55813098D01*
X181449500Y-55849099D01*
X181449500Y-56156779D01*
X181448567Y-56171007D01*
X181444750Y-56199997D01*
X181444750Y-56200001D01*
X181448567Y-56228991D01*
X181449500Y-56243220D01*
X181449500Y-56312044D01*
X181443383Y-56348044D01*
X181402355Y-56465296D01*
X181402353Y-56465303D01*
X181399500Y-56495732D01*
X181399500Y-57629267D01*
X181402353Y-57659696D01*
X181402354Y-57659700D01*
X181447207Y-57787882D01*
X181447210Y-57787887D01*
X181527846Y-57897146D01*
X181527853Y-57897153D01*
X181637112Y-57977789D01*
X181637115Y-57977790D01*
X181637118Y-57977793D01*
X181765301Y-58022646D01*
X181786684Y-58024651D01*
X181795296Y-58025459D01*
X181857141Y-58052167D01*
X181891476Y-58110126D01*
X181885187Y-58177197D01*
X181862194Y-58211057D01*
X181738737Y-58334515D01*
X181738737Y-58334516D01*
X181676135Y-58397118D01*
X181643827Y-58417420D01*
X181644340Y-58418390D01*
X181637119Y-58422206D01*
X181527850Y-58502849D01*
X181527846Y-58502853D01*
X181447210Y-58612112D01*
X181447207Y-58612117D01*
X181402354Y-58740299D01*
X181402353Y-58740303D01*
X181399500Y-58770732D01*
X181399500Y-59904267D01*
X181402353Y-59934696D01*
X181402354Y-59934700D01*
X181443383Y-60051953D01*
X181449500Y-60087954D01*
X181449500Y-60256779D01*
X181448567Y-60271007D01*
X181444750Y-60299997D01*
X181444750Y-60300001D01*
X181448567Y-60328991D01*
X181449500Y-60343220D01*
X181449500Y-61545769D01*
X181428683Y-61609838D01*
X181412199Y-61626663D01*
X181412346Y-61626810D01*
X181407078Y-61632076D01*
X181315638Y-61752659D01*
X181260124Y-61893431D01*
X181260122Y-61893441D01*
X181249501Y-61981881D01*
X181249500Y-61981905D01*
X181249500Y-63018094D01*
X181249501Y-63018118D01*
X181260122Y-63106558D01*
X181260124Y-63106568D01*
X181315638Y-63247341D01*
X181315640Y-63247345D01*
X181403783Y-63363577D01*
X181407078Y-63367922D01*
X181407082Y-63367925D01*
X181412351Y-63373194D01*
X181411204Y-63374340D01*
X181444832Y-63422672D01*
X181449500Y-63454230D01*
X181449500Y-63605856D01*
X181428683Y-63669925D01*
X181427351Y-63671718D01*
X181337637Y-63790021D01*
X181337635Y-63790025D01*
X181284642Y-63924405D01*
X181284640Y-63924414D01*
X181274501Y-64008841D01*
X181274500Y-64008862D01*
X181274500Y-64591137D01*
X181274501Y-64591158D01*
X181284640Y-64675585D01*
X181284642Y-64675594D01*
X181337635Y-64809973D01*
X181337636Y-64809975D01*
X181424922Y-64925078D01*
X181540025Y-65012364D01*
X181674410Y-65065359D01*
X181758856Y-65075500D01*
X181758862Y-65075500D01*
X182291138Y-65075500D01*
X182291144Y-65075500D01*
X182375590Y-65065359D01*
X182509975Y-65012364D01*
X182625078Y-64925078D01*
X182712364Y-64809975D01*
X182712364Y-64809972D01*
X182713148Y-64808940D01*
X182768448Y-64770469D01*
X182835799Y-64771849D01*
X182886852Y-64808940D01*
X182887635Y-64809972D01*
X182887636Y-64809975D01*
X182974922Y-64925078D01*
X183090025Y-65012364D01*
X183148275Y-65035335D01*
X183224409Y-65065359D01*
X183228635Y-65066427D01*
X183279003Y-65095029D01*
X183472399Y-65288425D01*
X183502982Y-65348449D01*
X183492444Y-65414985D01*
X183444809Y-65462620D01*
X183395324Y-65474500D01*
X183343982Y-65474500D01*
X183235763Y-65503496D01*
X183138739Y-65559513D01*
X182638736Y-66059516D01*
X182598319Y-66099932D01*
X182538295Y-66130514D01*
X182471759Y-66119975D01*
X182444170Y-66099931D01*
X182401557Y-66057318D01*
X182260197Y-65973717D01*
X182102492Y-65927900D01*
X182065643Y-65925000D01*
X181800001Y-65925000D01*
X181800000Y-65925001D01*
X181800000Y-68089871D01*
X181815134Y-68119574D01*
X181804596Y-68186110D01*
X181784551Y-68213700D01*
X181273405Y-68724846D01*
X181209514Y-68788736D01*
X181153496Y-68885763D01*
X181124500Y-68993982D01*
X181124500Y-70428000D01*
X181103683Y-70492069D01*
X181049183Y-70531665D01*
X181015500Y-70537000D01*
X180768483Y-70537000D01*
X180768478Y-70537001D01*
X180674697Y-70551853D01*
X180561657Y-70609450D01*
X180471950Y-70699157D01*
X180414353Y-70812196D01*
X180399500Y-70905979D01*
X180399500Y-72244015D01*
X180399501Y-72244020D01*
X180414353Y-72337801D01*
X180414354Y-72337804D01*
X180437620Y-72383465D01*
X180449500Y-72432948D01*
X180449500Y-72492723D01*
X180441203Y-72534435D01*
X180388026Y-72662814D01*
X180388024Y-72662821D01*
X180369965Y-72799997D01*
X180369965Y-72800002D01*
X180388024Y-72937178D01*
X180388026Y-72937185D01*
X180440974Y-73065014D01*
X180440976Y-73065018D01*
X180523927Y-73173121D01*
X180525209Y-73174791D01*
X180634982Y-73259024D01*
X180681172Y-73278156D01*
X180762814Y-73311973D01*
X180762821Y-73311975D01*
X180899997Y-73330035D01*
X180900000Y-73330035D01*
X180900003Y-73330035D01*
X181037178Y-73311975D01*
X181037180Y-73311974D01*
X181037183Y-73311974D01*
X181165018Y-73259024D01*
X181274791Y-73174791D01*
X181359024Y-73065018D01*
X181411974Y-72937183D01*
X181412344Y-72934378D01*
X181430035Y-72800002D01*
X181430035Y-72799997D01*
X181421639Y-72736227D01*
X181433915Y-72669989D01*
X181482780Y-72623618D01*
X181529703Y-72612999D01*
X181681518Y-72612999D01*
X181724179Y-72606242D01*
X181734363Y-72604630D01*
X181800899Y-72615169D01*
X181816734Y-72625029D01*
X181857906Y-72655850D01*
X181992626Y-72706098D01*
X181999999Y-72706890D01*
X182400000Y-72706890D01*
X182407373Y-72706098D01*
X182407379Y-72706097D01*
X182486907Y-72676434D01*
X182554211Y-72673548D01*
X182563093Y-72676434D01*
X182642620Y-72706097D01*
X182642626Y-72706098D01*
X182649999Y-72706890D01*
X182650000Y-72706889D01*
X182650000Y-71775001D01*
X182649999Y-71775000D01*
X182400001Y-71775000D01*
X182400000Y-71775001D01*
X182400000Y-72706890D01*
X181999999Y-72706890D01*
X182000000Y-72706889D01*
X182000000Y-72433930D01*
X182011880Y-72384446D01*
X182035646Y-72337804D01*
X182050500Y-72244019D01*
X182050499Y-70905982D01*
X182035646Y-70812196D01*
X182011880Y-70765552D01*
X182000000Y-70716068D01*
X182000000Y-70433439D01*
X181977909Y-70395280D01*
X181975500Y-70372493D01*
X181975500Y-69271397D01*
X181996317Y-69207328D01*
X182007425Y-69194322D01*
X182157491Y-69044256D01*
X182318427Y-68883319D01*
X182378448Y-68852738D01*
X182444985Y-68863276D01*
X182492620Y-68910911D01*
X182504500Y-68960394D01*
X182504500Y-69014955D01*
X182504501Y-69014961D01*
X182507258Y-69044374D01*
X182507258Y-69044376D01*
X182507259Y-69044379D01*
X182539062Y-69135267D01*
X182550619Y-69168293D01*
X182550618Y-69168293D01*
X182627728Y-69272774D01*
X182649023Y-69336685D01*
X182628685Y-69400908D01*
X182627728Y-69402226D01*
X182550618Y-69506706D01*
X182507259Y-69630620D01*
X182507258Y-69630622D01*
X182504500Y-69660041D01*
X182504500Y-70034956D01*
X182504501Y-70034961D01*
X182507258Y-70064374D01*
X182507258Y-70064376D01*
X182507259Y-70064379D01*
X182550619Y-70188294D01*
X182628048Y-70293207D01*
X182649344Y-70357116D01*
X182648415Y-70372155D01*
X182647338Y-70380338D01*
X182618339Y-70441143D01*
X182577363Y-70468242D01*
X182563092Y-70473565D01*
X182495788Y-70476451D01*
X182486908Y-70473566D01*
X182407374Y-70443901D01*
X182400000Y-70443109D01*
X182400000Y-71374999D01*
X182400001Y-71375000D01*
X182890500Y-71375000D01*
X182954569Y-71395817D01*
X182994165Y-71450317D01*
X182999500Y-71484000D01*
X182999500Y-72244015D01*
X182999501Y-72244020D01*
X183014353Y-72337801D01*
X183014355Y-72337807D01*
X183019123Y-72347164D01*
X183038119Y-72384446D01*
X183050000Y-72433930D01*
X183050000Y-72706890D01*
X183057373Y-72706098D01*
X183192088Y-72655852D01*
X183233261Y-72625030D01*
X183297026Y-72603299D01*
X183315634Y-72604629D01*
X183368481Y-72613000D01*
X183631518Y-72612999D01*
X183725304Y-72598146D01*
X183775516Y-72572561D01*
X183842049Y-72562023D01*
X183874484Y-72572561D01*
X183924696Y-72598146D01*
X184018481Y-72613000D01*
X184281518Y-72612999D01*
X184324179Y-72606242D01*
X184334363Y-72604630D01*
X184400899Y-72615169D01*
X184416734Y-72625029D01*
X184457906Y-72655850D01*
X184592626Y-72706098D01*
X184599999Y-72706890D01*
X184600000Y-72706889D01*
X184600000Y-72433930D01*
X184611880Y-72384446D01*
X184635646Y-72337804D01*
X184650500Y-72244019D01*
X184650499Y-71483998D01*
X184671316Y-71419932D01*
X184725816Y-71380335D01*
X184759499Y-71375000D01*
X184840500Y-71375000D01*
X184904569Y-71395817D01*
X184944165Y-71450317D01*
X184949500Y-71484000D01*
X184949500Y-72244015D01*
X184949501Y-72244020D01*
X184964353Y-72337801D01*
X184964355Y-72337807D01*
X184969123Y-72347164D01*
X184988119Y-72384446D01*
X185000000Y-72433930D01*
X185000000Y-72706890D01*
X185007373Y-72706098D01*
X185142088Y-72655852D01*
X185183261Y-72625030D01*
X185247026Y-72603299D01*
X185265634Y-72604629D01*
X185318481Y-72613000D01*
X185581518Y-72612999D01*
X185675304Y-72598146D01*
X185675307Y-72598144D01*
X185683675Y-72596819D01*
X185750211Y-72607357D01*
X185777800Y-72627402D01*
X186173385Y-73022989D01*
X186276112Y-73082298D01*
X186276114Y-73082299D01*
X186390691Y-73113000D01*
X187633965Y-73113000D01*
X187698034Y-73133817D01*
X187737630Y-73188317D01*
X187737630Y-73255683D01*
X187720817Y-73287861D01*
X187690640Y-73327655D01*
X187690638Y-73327658D01*
X187635124Y-73468431D01*
X187635122Y-73468441D01*
X187624501Y-73556881D01*
X187624500Y-73556905D01*
X187624500Y-74543094D01*
X187624501Y-74543118D01*
X187635122Y-74631558D01*
X187635124Y-74631568D01*
X187690638Y-74772340D01*
X187690639Y-74772342D01*
X187782078Y-74892922D01*
X187902658Y-74984361D01*
X188043436Y-75039877D01*
X188131898Y-75050500D01*
X188131906Y-75050500D01*
X189068094Y-75050500D01*
X189068102Y-75050500D01*
X189156564Y-75039877D01*
X189297342Y-74984361D01*
X189417922Y-74892922D01*
X189509361Y-74772342D01*
X189564877Y-74631564D01*
X189575500Y-74543102D01*
X189575500Y-73756753D01*
X189596317Y-73692684D01*
X189607425Y-73679678D01*
X189902104Y-73384999D01*
X190203056Y-73084046D01*
X190263078Y-73053465D01*
X190329614Y-73064003D01*
X190377249Y-73111638D01*
X190387787Y-73178174D01*
X190366981Y-73226984D01*
X190290640Y-73327655D01*
X190290638Y-73327658D01*
X190235124Y-73468431D01*
X190235122Y-73468441D01*
X190224501Y-73556881D01*
X190224500Y-73556905D01*
X190224500Y-74543094D01*
X190224501Y-74543118D01*
X190235122Y-74631558D01*
X190235124Y-74631568D01*
X190290638Y-74772340D01*
X190290639Y-74772342D01*
X190382078Y-74892922D01*
X190502658Y-74984361D01*
X190643436Y-75039877D01*
X190731898Y-75050500D01*
X190733065Y-75050500D01*
X190733326Y-75050584D01*
X190735149Y-75050694D01*
X190735120Y-75051167D01*
X190797134Y-75071317D01*
X190827462Y-75105000D01*
X190859514Y-75160516D01*
X190959887Y-75260890D01*
X190959888Y-75260890D01*
X191262423Y-75563425D01*
X191293006Y-75623449D01*
X191282468Y-75689985D01*
X191234833Y-75737620D01*
X191185348Y-75749500D01*
X190731898Y-75749500D01*
X190731894Y-75749500D01*
X190731881Y-75749501D01*
X190643439Y-75760122D01*
X190643436Y-75760122D01*
X190643436Y-75760123D01*
X190634779Y-75763536D01*
X190611351Y-75772775D01*
X190544112Y-75776910D01*
X190487284Y-75740734D01*
X190470664Y-75713084D01*
X190459024Y-75684982D01*
X190374795Y-75575214D01*
X190374794Y-75575213D01*
X190374791Y-75575209D01*
X190374786Y-75575205D01*
X190374785Y-75575204D01*
X190265018Y-75490976D01*
X190265014Y-75490974D01*
X190137185Y-75438026D01*
X190137178Y-75438024D01*
X190000003Y-75419965D01*
X189999997Y-75419965D01*
X189862821Y-75438024D01*
X189862814Y-75438026D01*
X189734981Y-75490976D01*
X189625214Y-75575204D01*
X189625204Y-75575214D01*
X189540977Y-75684980D01*
X189495599Y-75794533D01*
X189451848Y-75845758D01*
X189386344Y-75861484D01*
X189329034Y-75839672D01*
X189309968Y-75825214D01*
X189297342Y-75815639D01*
X189297340Y-75815638D01*
X189156568Y-75760124D01*
X189156565Y-75760123D01*
X189156564Y-75760123D01*
X189156561Y-75760122D01*
X189156558Y-75760122D01*
X189068118Y-75749501D01*
X189068106Y-75749500D01*
X189068102Y-75749500D01*
X189068094Y-75749500D01*
X188372268Y-75749500D01*
X188308199Y-75728683D01*
X188268603Y-75674183D01*
X188264201Y-75654728D01*
X188261975Y-75637821D01*
X188261973Y-75637814D01*
X188209023Y-75509981D01*
X188124795Y-75400214D01*
X188124794Y-75400213D01*
X188124791Y-75400209D01*
X188124786Y-75400205D01*
X188124785Y-75400204D01*
X188015018Y-75315976D01*
X188015014Y-75315974D01*
X187887185Y-75263026D01*
X187887178Y-75263024D01*
X187750003Y-75244965D01*
X187749997Y-75244965D01*
X187612821Y-75263024D01*
X187612814Y-75263026D01*
X187484981Y-75315976D01*
X187375214Y-75400204D01*
X187375204Y-75400214D01*
X187290975Y-75509982D01*
X187281097Y-75533831D01*
X187237346Y-75585055D01*
X187171842Y-75600781D01*
X187114041Y-75578593D01*
X187065018Y-75540976D01*
X187065014Y-75540974D01*
X186937185Y-75488026D01*
X186937178Y-75488024D01*
X186800003Y-75469965D01*
X186799997Y-75469965D01*
X186662821Y-75488024D01*
X186662814Y-75488026D01*
X186534981Y-75540976D01*
X186419541Y-75629558D01*
X186418230Y-75627850D01*
X186367051Y-75653927D01*
X186300515Y-75643389D01*
X186280823Y-75629082D01*
X186280459Y-75629558D01*
X186165018Y-75540976D01*
X186165014Y-75540974D01*
X186037185Y-75488026D01*
X186037178Y-75488024D01*
X185900003Y-75469965D01*
X185899997Y-75469965D01*
X185762821Y-75488024D01*
X185762814Y-75488026D01*
X185634981Y-75540976D01*
X185525214Y-75625204D01*
X185525204Y-75625214D01*
X185436626Y-75740651D01*
X185435361Y-75739681D01*
X185391332Y-75779315D01*
X185324335Y-75786348D01*
X185265999Y-75752658D01*
X185241725Y-75707944D01*
X185238898Y-75697395D01*
X185219799Y-75626114D01*
X185160490Y-75523387D01*
X184335827Y-74698724D01*
X184312199Y-74663361D01*
X184311972Y-74662814D01*
X184259024Y-74534983D01*
X184259023Y-74534982D01*
X184259023Y-74534981D01*
X184174795Y-74425214D01*
X184174794Y-74425213D01*
X184174791Y-74425209D01*
X184174786Y-74425205D01*
X184174785Y-74425204D01*
X184065018Y-74340976D01*
X184065014Y-74340974D01*
X183937185Y-74288026D01*
X183937178Y-74288024D01*
X183800003Y-74269965D01*
X183799997Y-74269965D01*
X183662821Y-74288024D01*
X183662814Y-74288026D01*
X183534981Y-74340976D01*
X183425214Y-74425204D01*
X183425204Y-74425214D01*
X183340976Y-74534981D01*
X183288026Y-74662814D01*
X183288024Y-74662821D01*
X183269965Y-74799997D01*
X183269965Y-74800002D01*
X183288024Y-74937178D01*
X183288026Y-74937185D01*
X183340974Y-75065014D01*
X183340976Y-75065018D01*
X183425209Y-75174791D01*
X183425213Y-75174794D01*
X183425214Y-75174795D01*
X183451373Y-75194868D01*
X183534982Y-75259024D01*
X183662817Y-75311974D01*
X183662818Y-75311974D01*
X183663361Y-75312199D01*
X183698724Y-75335827D01*
X184317575Y-75954678D01*
X184348158Y-76014702D01*
X184349500Y-76031753D01*
X184349500Y-76442049D01*
X184337620Y-76491533D01*
X184314355Y-76537194D01*
X184314353Y-76537198D01*
X184312193Y-76550839D01*
X184299500Y-76630981D01*
X184299500Y-77287278D01*
X184299501Y-77391000D01*
X184278684Y-77455068D01*
X184224184Y-77494665D01*
X184190501Y-77500000D01*
X184109500Y-77500000D01*
X184045431Y-77479183D01*
X184005835Y-77424683D01*
X184000500Y-77391000D01*
X184000499Y-76630984D01*
X184000499Y-76630982D01*
X183985646Y-76537196D01*
X183965034Y-76496743D01*
X183961880Y-76490552D01*
X183950000Y-76441068D01*
X183950000Y-76168109D01*
X183949999Y-76168109D01*
X183942625Y-76168901D01*
X183807908Y-76219148D01*
X183807907Y-76219149D01*
X183766732Y-76249971D01*
X183702967Y-76271700D01*
X183684363Y-76270369D01*
X183631520Y-76262000D01*
X183368483Y-76262000D01*
X183368478Y-76262001D01*
X183274694Y-76276854D01*
X183274689Y-76276856D01*
X183224482Y-76302437D01*
X183157946Y-76312975D01*
X183125515Y-76302437D01*
X183095166Y-76286974D01*
X183075304Y-76276854D01*
X183075302Y-76276853D01*
X183075301Y-76276853D01*
X182981519Y-76262000D01*
X182718483Y-76262000D01*
X182718477Y-76262001D01*
X182665636Y-76270370D01*
X182599100Y-76259831D01*
X182583265Y-76249971D01*
X182542090Y-76219147D01*
X182407374Y-76168901D01*
X182400000Y-76168109D01*
X182400000Y-76441067D01*
X182388120Y-76490551D01*
X182364354Y-76537194D01*
X182364354Y-76537195D01*
X182364354Y-76537196D01*
X182349500Y-76630981D01*
X182349500Y-77287278D01*
X182349501Y-77391000D01*
X182328684Y-77455068D01*
X182274184Y-77494665D01*
X182240501Y-77500000D01*
X182159500Y-77500000D01*
X182095431Y-77479183D01*
X182055835Y-77424683D01*
X182050500Y-77391000D01*
X182050499Y-76630984D01*
X182050499Y-76630982D01*
X182035646Y-76537196D01*
X182015034Y-76496743D01*
X182011880Y-76490552D01*
X182000000Y-76441068D01*
X182000000Y-76168109D01*
X181999999Y-76168109D01*
X181992625Y-76168901D01*
X181857908Y-76219148D01*
X181857907Y-76219149D01*
X181816732Y-76249971D01*
X181752967Y-76271700D01*
X181734363Y-76270369D01*
X181681522Y-76262000D01*
X181681519Y-76262000D01*
X181533788Y-76262000D01*
X181469719Y-76241183D01*
X181430123Y-76186683D01*
X181425721Y-76167228D01*
X181411975Y-76062821D01*
X181411973Y-76062814D01*
X181359023Y-75934981D01*
X181274795Y-75825214D01*
X181274794Y-75825213D01*
X181274791Y-75825209D01*
X181274786Y-75825205D01*
X181274785Y-75825204D01*
X181165018Y-75740976D01*
X181165014Y-75740974D01*
X181037185Y-75688026D01*
X181037178Y-75688024D01*
X180900003Y-75669965D01*
X180899997Y-75669965D01*
X180762821Y-75688024D01*
X180762814Y-75688026D01*
X180634981Y-75740976D01*
X180525214Y-75825204D01*
X180525204Y-75825214D01*
X180440976Y-75934981D01*
X180388026Y-76062814D01*
X180388024Y-76062821D01*
X180369965Y-76199997D01*
X180369965Y-76200002D01*
X180388024Y-76337178D01*
X180388026Y-76337185D01*
X180426299Y-76429585D01*
X180431584Y-76496743D01*
X180422718Y-76520778D01*
X180414354Y-76537194D01*
X180399500Y-76630979D01*
X180399500Y-77969015D01*
X180399501Y-77969020D01*
X180414353Y-78062802D01*
X180414353Y-78062803D01*
X180414354Y-78062804D01*
X180457902Y-78148272D01*
X180471950Y-78175842D01*
X180515036Y-78218928D01*
X180545619Y-78278952D01*
X180538663Y-78337717D01*
X180515518Y-78393591D01*
X180471767Y-78444816D01*
X180450819Y-78454759D01*
X180396846Y-78473646D01*
X180396838Y-78473650D01*
X180290005Y-78552496D01*
X180289998Y-78552503D01*
X180269762Y-78579922D01*
X180214967Y-78619109D01*
X180147603Y-78618604D01*
X180093401Y-78578600D01*
X180075554Y-78538366D01*
X180022011Y-78292237D01*
X180019801Y-78276859D01*
X180000278Y-78003886D01*
X180000000Y-77996110D01*
X180000000Y-67490642D01*
X180450000Y-67490642D01*
X180452900Y-67527491D01*
X180452900Y-67527492D01*
X180498717Y-67685197D01*
X180582318Y-67826557D01*
X180698442Y-67942681D01*
X180839802Y-68026282D01*
X180997507Y-68072099D01*
X181034357Y-68075000D01*
X181299999Y-68075000D01*
X181300000Y-68074999D01*
X181300000Y-67250001D01*
X181299999Y-67250000D01*
X180450001Y-67250000D01*
X180450000Y-67250001D01*
X180450000Y-67490642D01*
X180000000Y-67490642D01*
X180000000Y-66749999D01*
X180450000Y-66749999D01*
X180450001Y-66750000D01*
X181299999Y-66750000D01*
X181300000Y-66749999D01*
X181300000Y-65925001D01*
X181299999Y-65925000D01*
X181034357Y-65925000D01*
X180997508Y-65927900D01*
X180997507Y-65927900D01*
X180839802Y-65973717D01*
X180698442Y-66057318D01*
X180582318Y-66173442D01*
X180498717Y-66314802D01*
X180452900Y-66472507D01*
X180452900Y-66472508D01*
X180450000Y-66509357D01*
X180450000Y-66749999D01*
X180000000Y-66749999D01*
X180000000Y-53367358D01*
X187104500Y-53367358D01*
X187104502Y-53367379D01*
X187107414Y-53392488D01*
X187107414Y-53392490D01*
X187107415Y-53392491D01*
X187152794Y-53495265D01*
X187232235Y-53574706D01*
X187312271Y-53610045D01*
X187357948Y-53647837D01*
X187371817Y-53667929D01*
X187499148Y-53780734D01*
X187649775Y-53859790D01*
X187814944Y-53900500D01*
X187814945Y-53900500D01*
X187985055Y-53900500D01*
X187985056Y-53900500D01*
X188150225Y-53859790D01*
X188300852Y-53780734D01*
X188425885Y-53669965D01*
X188428179Y-53667933D01*
X188428179Y-53667932D01*
X188428183Y-53667929D01*
X188437666Y-53654190D01*
X188483341Y-53616397D01*
X188577765Y-53574706D01*
X188657206Y-53495265D01*
X188702585Y-53392491D01*
X188705500Y-53367365D01*
X188705499Y-50777636D01*
X188702585Y-50752509D01*
X188657206Y-50649735D01*
X188577765Y-50570294D01*
X188474991Y-50524915D01*
X188449865Y-50522000D01*
X188449864Y-50522000D01*
X187360141Y-50522000D01*
X187360120Y-50522002D01*
X187335011Y-50524914D01*
X187232234Y-50570294D01*
X187152794Y-50649734D01*
X187107415Y-50752509D01*
X187104500Y-50777634D01*
X187104500Y-53367358D01*
X180000000Y-53367358D01*
X180000000Y-52003889D01*
X180000278Y-51996113D01*
X180012695Y-51822499D01*
X180019801Y-51723138D01*
X180022011Y-51707764D01*
X180079357Y-51444150D01*
X180083735Y-51429239D01*
X180178016Y-51176461D01*
X180184470Y-51162331D01*
X180313760Y-50925553D01*
X180322160Y-50912482D01*
X180483831Y-50696516D01*
X180494003Y-50684776D01*
X180684776Y-50494003D01*
X180696516Y-50483831D01*
X180912482Y-50322160D01*
X180925553Y-50313760D01*
X181162331Y-50184470D01*
X181176461Y-50178016D01*
X181429239Y-50083735D01*
X181444150Y-50079357D01*
X181707764Y-50022011D01*
X181723138Y-50019801D01*
X181996113Y-50000277D01*
X182003889Y-50000000D01*
X197996111Y-50000000D01*
X198003886Y-50000277D01*
G37*
%TD.AperFunction*%
%TA.AperFunction,Conductor*%
G36*
X196425069Y-69270817D02*
G01*
X196464665Y-69325317D01*
X196470000Y-69359000D01*
X196470000Y-70083852D01*
X196498658Y-70140098D01*
X196500000Y-70157149D01*
X196500000Y-72148852D01*
X196528658Y-72205098D01*
X196530000Y-72222149D01*
X196530000Y-72649999D01*
X196530001Y-72650000D01*
X196955468Y-72650000D01*
X196949577Y-72600941D01*
X196895122Y-72462853D01*
X196855644Y-72410793D01*
X196833519Y-72347164D01*
X196853019Y-72282683D01*
X196906696Y-72241978D01*
X196912088Y-72240259D01*
X196960195Y-72226283D01*
X197101557Y-72142681D01*
X197217681Y-72026557D01*
X197301282Y-71885196D01*
X197329550Y-71787898D01*
X197367415Y-71732181D01*
X197430798Y-71709361D01*
X197495489Y-71728155D01*
X197535622Y-71778319D01*
X197554878Y-71827149D01*
X197554879Y-71827150D01*
X197624538Y-71919010D01*
X197646663Y-71982638D01*
X197636981Y-72023481D01*
X197638846Y-72024134D01*
X197636148Y-72031841D01*
X197636148Y-72031843D01*
X197614768Y-72092942D01*
X197592290Y-72157180D01*
X197592289Y-72157182D01*
X197589500Y-72186932D01*
X197589500Y-72573067D01*
X197592289Y-72602817D01*
X197592290Y-72602819D01*
X197636147Y-72728156D01*
X197636150Y-72728161D01*
X197714996Y-72834994D01*
X197715005Y-72835003D01*
X197821838Y-72913849D01*
X197821843Y-72913852D01*
X197947181Y-72957710D01*
X197962057Y-72959105D01*
X197976933Y-72960500D01*
X197976934Y-72960500D01*
X198423067Y-72960500D01*
X198432983Y-72959570D01*
X198452819Y-72957710D01*
X198578157Y-72913852D01*
X198578157Y-72913851D01*
X198585867Y-72911154D01*
X198587082Y-72914627D01*
X198637918Y-72905747D01*
X198698419Y-72935375D01*
X198729950Y-72994906D01*
X198725459Y-73049663D01*
X198682259Y-73173120D01*
X198682258Y-73173122D01*
X198679500Y-73202541D01*
X198679500Y-73475664D01*
X198658683Y-73539733D01*
X198604183Y-73579329D01*
X198536817Y-73579329D01*
X198493425Y-73552739D01*
X198463045Y-73522359D01*
X198350145Y-73464834D01*
X198256482Y-73450000D01*
X198000001Y-73450000D01*
X198000000Y-73450001D01*
X198000000Y-73940500D01*
X197979183Y-74004569D01*
X197924683Y-74044165D01*
X197891000Y-74049500D01*
X197809000Y-74049500D01*
X197744931Y-74028683D01*
X197705335Y-73974183D01*
X197700000Y-73940500D01*
X197700000Y-73450001D01*
X197699999Y-73450000D01*
X197443522Y-73450000D01*
X197443516Y-73450001D01*
X197349853Y-73464834D01*
X197236952Y-73522360D01*
X197166240Y-73593074D01*
X197106217Y-73623658D01*
X197089165Y-73625000D01*
X196896291Y-73625000D01*
X196832222Y-73604183D01*
X196792626Y-73549683D01*
X196792626Y-73482317D01*
X196809439Y-73450138D01*
X196895122Y-73337146D01*
X196949577Y-73199059D01*
X196949579Y-73199050D01*
X196955471Y-73150000D01*
X196530001Y-73150000D01*
X196530000Y-73150001D01*
X196530000Y-73581999D01*
X196530001Y-73582000D01*
X196541000Y-73582000D01*
X196605069Y-73602817D01*
X196644665Y-73657317D01*
X196650000Y-73691000D01*
X196650000Y-75874998D01*
X196650001Y-75874999D01*
X196686800Y-75874999D01*
X196750869Y-75895816D01*
X196790465Y-75950316D01*
X196790465Y-76017682D01*
X196750869Y-76072182D01*
X196696973Y-76092523D01*
X196673125Y-76094758D01*
X196673121Y-76094758D01*
X196673121Y-76094759D01*
X196549206Y-76138119D01*
X196549203Y-76138120D01*
X196541983Y-76141937D01*
X196540363Y-76138873D01*
X196490703Y-76155414D01*
X196426483Y-76135069D01*
X196424040Y-76133269D01*
X196337150Y-76067379D01*
X196337147Y-76067377D01*
X196219013Y-76020791D01*
X196167048Y-75977922D01*
X196150000Y-75919391D01*
X196150000Y-73653001D01*
X196149999Y-73653000D01*
X196139000Y-73653000D01*
X196074931Y-73632183D01*
X196035335Y-73577683D01*
X196030000Y-73544000D01*
X196030000Y-72316147D01*
X196001342Y-72259902D01*
X196000000Y-72242851D01*
X196000000Y-71450001D01*
X195999999Y-71450000D01*
X195150001Y-71450000D01*
X195150000Y-71450001D01*
X195150000Y-71690642D01*
X195152900Y-71727491D01*
X195152900Y-71727492D01*
X195198717Y-71885197D01*
X195282318Y-72026557D01*
X195359186Y-72103425D01*
X195389769Y-72163449D01*
X195379231Y-72229985D01*
X195331596Y-72277620D01*
X195282111Y-72289500D01*
X195126933Y-72289500D01*
X195097182Y-72292289D01*
X195097180Y-72292290D01*
X194971843Y-72336147D01*
X194971838Y-72336150D01*
X194865005Y-72414996D01*
X194859225Y-72420777D01*
X194857515Y-72419067D01*
X194812203Y-72451460D01*
X194744839Y-72450943D01*
X194692842Y-72413894D01*
X194624795Y-72325214D01*
X194624794Y-72325213D01*
X194624791Y-72325209D01*
X194624786Y-72325205D01*
X194624785Y-72325204D01*
X194515018Y-72240976D01*
X194515014Y-72240974D01*
X194421397Y-72202197D01*
X194370171Y-72158447D01*
X194354445Y-72092942D01*
X194380225Y-72030704D01*
X194387910Y-72023454D01*
X194387650Y-72023194D01*
X194392917Y-72017925D01*
X194392922Y-72017922D01*
X194484361Y-71897342D01*
X194539877Y-71756564D01*
X194550500Y-71668102D01*
X194550500Y-70949999D01*
X195150000Y-70949999D01*
X195150001Y-70950000D01*
X195999999Y-70950000D01*
X196000000Y-70949999D01*
X196000000Y-70251147D01*
X195971342Y-70194902D01*
X195970000Y-70177851D01*
X195970000Y-69750001D01*
X195969999Y-69750000D01*
X195460001Y-69750000D01*
X195460000Y-69750001D01*
X195460000Y-70162317D01*
X195439183Y-70226386D01*
X195392848Y-70262912D01*
X195282318Y-70373442D01*
X195198717Y-70514802D01*
X195152900Y-70672507D01*
X195152900Y-70672508D01*
X195150000Y-70709357D01*
X195150000Y-70949999D01*
X194550500Y-70949999D01*
X194550500Y-70731898D01*
X194539877Y-70643436D01*
X194484361Y-70502658D01*
X194392922Y-70382078D01*
X194390627Y-70380338D01*
X194331274Y-70335329D01*
X194306247Y-70316350D01*
X194267777Y-70261051D01*
X194269157Y-70193700D01*
X194309861Y-70140022D01*
X194372109Y-70120499D01*
X194377456Y-70120499D01*
X194406879Y-70117741D01*
X194530794Y-70074381D01*
X194553056Y-70057950D01*
X194616966Y-70036654D01*
X194681189Y-70056990D01*
X194690212Y-70064638D01*
X194810324Y-70155721D01*
X194947144Y-70209675D01*
X194959999Y-70211219D01*
X194960000Y-70211219D01*
X194960000Y-69359000D01*
X194980817Y-69294931D01*
X195035317Y-69255335D01*
X195069000Y-69250000D01*
X196361000Y-69250000D01*
X196425069Y-69270817D01*
G37*
%TD.AperFunction*%
%TA.AperFunction,Conductor*%
G36*
X188438701Y-67509365D02*
G01*
X188485072Y-67558230D01*
X188489687Y-67571701D01*
X188490099Y-67571558D01*
X188536147Y-67703156D01*
X188536150Y-67703161D01*
X188614996Y-67809994D01*
X188615002Y-67810000D01*
X188625689Y-67817887D01*
X188664878Y-67872681D01*
X188668026Y-67893049D01*
X188669032Y-67892917D01*
X188688024Y-68037178D01*
X188688026Y-68037185D01*
X188728703Y-68135387D01*
X188737000Y-68177099D01*
X188737000Y-69007358D01*
X188737002Y-69007379D01*
X188739914Y-69032488D01*
X188739914Y-69032490D01*
X188739915Y-69032491D01*
X188779368Y-69121843D01*
X188785295Y-69135267D01*
X188791003Y-69143600D01*
X188788203Y-69145517D01*
X188811158Y-69190570D01*
X188812500Y-69207621D01*
X188812500Y-69787499D01*
X188812501Y-69787500D01*
X191082690Y-69787500D01*
X191146759Y-69808317D01*
X191149045Y-69810025D01*
X191209982Y-69856784D01*
X191261582Y-69878157D01*
X191337814Y-69909733D01*
X191337821Y-69909735D01*
X191474997Y-69927795D01*
X191475000Y-69927795D01*
X191510330Y-69923143D01*
X191576566Y-69935417D01*
X191622938Y-69984282D01*
X191631733Y-70051071D01*
X191625261Y-70072922D01*
X191588026Y-70162814D01*
X191588024Y-70162821D01*
X191569965Y-70299997D01*
X191569965Y-70300002D01*
X191588024Y-70437178D01*
X191588026Y-70437185D01*
X191640974Y-70565014D01*
X191640976Y-70565018D01*
X191704527Y-70647838D01*
X191727015Y-70711339D01*
X191707882Y-70775931D01*
X191654438Y-70816941D01*
X191639470Y-70820243D01*
X191639602Y-70820844D01*
X191633123Y-70822258D01*
X191633121Y-70822259D01*
X191633118Y-70822259D01*
X191633118Y-70822260D01*
X191509206Y-70865619D01*
X191509202Y-70865621D01*
X191403581Y-70943572D01*
X191403576Y-70943577D01*
X191388098Y-70964549D01*
X191333302Y-71003735D01*
X191265938Y-71003229D01*
X191211737Y-70963225D01*
X191203278Y-70949304D01*
X191165141Y-70874455D01*
X191094424Y-70803738D01*
X191063841Y-70743714D01*
X191062499Y-70726663D01*
X191062499Y-70287501D01*
X191062498Y-70287500D01*
X188812502Y-70287500D01*
X188812500Y-70287501D01*
X188812500Y-70563184D01*
X188791683Y-70627253D01*
X188737183Y-70666849D01*
X188669817Y-70666849D01*
X188615317Y-70627252D01*
X188600617Y-70599184D01*
X188598193Y-70592256D01*
X188574381Y-70524206D01*
X188558478Y-70502658D01*
X188496425Y-70418579D01*
X188496423Y-70418578D01*
X188496423Y-70418577D01*
X188454912Y-70387940D01*
X188444772Y-70380456D01*
X188405585Y-70325661D01*
X188400500Y-70292756D01*
X188400500Y-70232273D01*
X188373207Y-70130413D01*
X188320480Y-70039086D01*
X188252424Y-69971030D01*
X188221841Y-69911007D01*
X188220499Y-69893956D01*
X188220499Y-69697544D01*
X188217741Y-69668121D01*
X188174381Y-69544206D01*
X188097270Y-69439725D01*
X188075975Y-69375816D01*
X188096312Y-69311593D01*
X188097224Y-69310337D01*
X188174381Y-69205794D01*
X188217741Y-69081879D01*
X188220500Y-69052457D01*
X188220499Y-68677544D01*
X188217741Y-68648121D01*
X188174381Y-68524206D01*
X188148974Y-68489780D01*
X188127679Y-68425872D01*
X188128608Y-68410837D01*
X188130035Y-68400000D01*
X188123022Y-68346739D01*
X188135297Y-68280504D01*
X188143376Y-68267802D01*
X188174381Y-68225794D01*
X188217741Y-68101879D01*
X188220500Y-68072457D01*
X188220499Y-67697544D01*
X188217741Y-67668121D01*
X188211630Y-67650659D01*
X188210117Y-67583314D01*
X188248479Y-67527938D01*
X188300285Y-67506592D01*
X188301409Y-67506444D01*
X188372463Y-67497089D01*
X188438701Y-67509365D01*
G37*
%TD.AperFunction*%
%TA.AperFunction,Conductor*%
G36*
X189205069Y-63580817D02*
G01*
X189244665Y-63635317D01*
X189250000Y-63669000D01*
X189250000Y-64477222D01*
X189305632Y-64470542D01*
X189371725Y-64483571D01*
X189417538Y-64532961D01*
X189420028Y-64538776D01*
X189454878Y-64627149D01*
X189454879Y-64627150D01*
X189524538Y-64719010D01*
X189546663Y-64782638D01*
X189536981Y-64823481D01*
X189538846Y-64824134D01*
X189536148Y-64831841D01*
X189536148Y-64831843D01*
X189531457Y-64845250D01*
X189492290Y-64957180D01*
X189492289Y-64957182D01*
X189489500Y-64986932D01*
X189489500Y-65373067D01*
X189492289Y-65402817D01*
X189492290Y-65402819D01*
X189536147Y-65528156D01*
X189536150Y-65528161D01*
X189572422Y-65577308D01*
X189593718Y-65641219D01*
X189573380Y-65705442D01*
X189519178Y-65745444D01*
X189451814Y-65745948D01*
X189444734Y-65743434D01*
X189399060Y-65725422D01*
X189399050Y-65725420D01*
X189350000Y-65719529D01*
X189350000Y-66536000D01*
X189329183Y-66600069D01*
X189274683Y-66639665D01*
X189241000Y-66645000D01*
X188763242Y-66645000D01*
X188699173Y-66624183D01*
X188676768Y-66602357D01*
X188676202Y-66601619D01*
X188676201Y-66601618D01*
X188566427Y-66517385D01*
X188566423Y-66517383D01*
X188438594Y-66464435D01*
X188438587Y-66464433D01*
X188301412Y-66446374D01*
X188301410Y-66446374D01*
X188301409Y-66446374D01*
X188232283Y-66455474D01*
X188197022Y-66460117D01*
X188130784Y-66447840D01*
X188102943Y-66423608D01*
X188102199Y-66424353D01*
X188096418Y-66418572D01*
X187990797Y-66340621D01*
X187990796Y-66340620D01*
X187990794Y-66340619D01*
X187866879Y-66297259D01*
X187866877Y-66297258D01*
X187837458Y-66294500D01*
X187362545Y-66294500D01*
X187362539Y-66294501D01*
X187333125Y-66297258D01*
X187333121Y-66297258D01*
X187333121Y-66297259D01*
X187333118Y-66297259D01*
X187333118Y-66297260D01*
X187209206Y-66340619D01*
X187209202Y-66340621D01*
X187151274Y-66383374D01*
X187087363Y-66404670D01*
X187023141Y-66384333D01*
X187021867Y-66383407D01*
X186978157Y-66351148D01*
X186978156Y-66351147D01*
X186852819Y-66307290D01*
X186852817Y-66307289D01*
X186823067Y-66304500D01*
X186823066Y-66304500D01*
X186376934Y-66304500D01*
X186376933Y-66304500D01*
X186347182Y-66307289D01*
X186347180Y-66307290D01*
X186221843Y-66351147D01*
X186221838Y-66351150D01*
X186115005Y-66429996D01*
X186114996Y-66430005D01*
X186036150Y-66536838D01*
X186036147Y-66536843D01*
X185992290Y-66662180D01*
X185992289Y-66662182D01*
X185989500Y-66691932D01*
X185989500Y-67078067D01*
X185992289Y-67107817D01*
X185992290Y-67107819D01*
X186033766Y-67226351D01*
X186038846Y-67240867D01*
X186036243Y-67241777D01*
X186045585Y-67295581D01*
X186024538Y-67345990D01*
X185954879Y-67437849D01*
X185954877Y-67437852D01*
X185900422Y-67575941D01*
X185898134Y-67595000D01*
X186741000Y-67595000D01*
X186805069Y-67615817D01*
X186844665Y-67670317D01*
X186850000Y-67704000D01*
X186850000Y-69026000D01*
X186829183Y-69090069D01*
X186774683Y-69129665D01*
X186741000Y-69135000D01*
X186459000Y-69135000D01*
X186394931Y-69114183D01*
X186355335Y-69059683D01*
X186350000Y-69026000D01*
X186350000Y-68095001D01*
X186349999Y-68095000D01*
X185898134Y-68095000D01*
X185900422Y-68114058D01*
X185954875Y-68252141D01*
X185954880Y-68252150D01*
X185990512Y-68299140D01*
X186012636Y-68362769D01*
X185993135Y-68427250D01*
X185990512Y-68430860D01*
X185950374Y-68483792D01*
X185948421Y-68482311D01*
X185907059Y-68520406D01*
X185840146Y-68528201D01*
X185781430Y-68495177D01*
X185773906Y-68486061D01*
X185696425Y-68381079D01*
X185696423Y-68381078D01*
X185696423Y-68381077D01*
X185682788Y-68371013D01*
X185669772Y-68361407D01*
X185630585Y-68306611D01*
X185625500Y-68273707D01*
X185625500Y-67338983D01*
X185625499Y-67338980D01*
X185619679Y-67317258D01*
X185619678Y-67317256D01*
X185596503Y-67230763D01*
X185540485Y-67133737D01*
X185416729Y-67009981D01*
X185282425Y-66875676D01*
X185251842Y-66815653D01*
X185250500Y-66798602D01*
X185250500Y-66531905D01*
X185250500Y-66531898D01*
X185239877Y-66443436D01*
X185184361Y-66302658D01*
X185092922Y-66182078D01*
X185044027Y-66145000D01*
X188398134Y-66145000D01*
X188849999Y-66145000D01*
X188850000Y-66144999D01*
X188850000Y-65719529D01*
X188849999Y-65719529D01*
X188800949Y-65725420D01*
X188800940Y-65725422D01*
X188662853Y-65779877D01*
X188544573Y-65869571D01*
X188544571Y-65869573D01*
X188454877Y-65987853D01*
X188400422Y-66125941D01*
X188398134Y-66145000D01*
X185044027Y-66145000D01*
X184972342Y-66090639D01*
X184931225Y-66074424D01*
X184853526Y-66043783D01*
X184801562Y-66000913D01*
X184784720Y-65935687D01*
X184809434Y-65873018D01*
X184816429Y-65865318D01*
X186289323Y-64392425D01*
X186349347Y-64361842D01*
X186366398Y-64360500D01*
X186523067Y-64360500D01*
X186532983Y-64359570D01*
X186552819Y-64357710D01*
X186678157Y-64313852D01*
X186779489Y-64239065D01*
X186843398Y-64217770D01*
X186907621Y-64238107D01*
X186910569Y-64240292D01*
X186934980Y-64259023D01*
X186934979Y-64259023D01*
X187062814Y-64311973D01*
X187062821Y-64311975D01*
X187199997Y-64330035D01*
X187200000Y-64330035D01*
X187200003Y-64330035D01*
X187337178Y-64311975D01*
X187337180Y-64311974D01*
X187337183Y-64311974D01*
X187371027Y-64297954D01*
X187438185Y-64292668D01*
X187477466Y-64310955D01*
X187509206Y-64334381D01*
X187633121Y-64377741D01*
X187662543Y-64380500D01*
X188137456Y-64380499D01*
X188166879Y-64377741D01*
X188290794Y-64334381D01*
X188302348Y-64325853D01*
X188366258Y-64304558D01*
X188430481Y-64324895D01*
X188432936Y-64326703D01*
X188550324Y-64415721D01*
X188687140Y-64469674D01*
X188750000Y-64477222D01*
X188750000Y-63669000D01*
X188770817Y-63604931D01*
X188825317Y-63565335D01*
X188859000Y-63560000D01*
X189141000Y-63560000D01*
X189205069Y-63580817D01*
G37*
%TD.AperFunction*%
%TA.AperFunction,Conductor*%
G36*
X191424147Y-68231851D02*
G01*
X191443951Y-68249348D01*
X191444529Y-68250000D01*
X192261000Y-68250000D01*
X192325069Y-68270817D01*
X192364665Y-68325317D01*
X192370000Y-68359000D01*
X192370000Y-68641000D01*
X192349183Y-68705069D01*
X192294683Y-68744665D01*
X192261000Y-68750000D01*
X191444531Y-68750000D01*
X191446073Y-68762846D01*
X191433042Y-68828940D01*
X191383650Y-68874751D01*
X191352082Y-68883907D01*
X191337820Y-68885785D01*
X191337817Y-68885785D01*
X191288710Y-68906126D01*
X191221552Y-68911410D01*
X191164113Y-68876210D01*
X191138335Y-68813972D01*
X191137999Y-68805421D01*
X191138000Y-68799846D01*
X191138000Y-68610621D01*
X191138000Y-68384466D01*
X191158817Y-68320397D01*
X191205286Y-68283764D01*
X191265018Y-68259024D01*
X191296056Y-68235207D01*
X191359555Y-68212719D01*
X191424147Y-68231851D01*
G37*
%TD.AperFunction*%
%TA.AperFunction,Conductor*%
G36*
X193411733Y-64444353D02*
G01*
X193448727Y-64475119D01*
X193525209Y-64574791D01*
X193525213Y-64574794D01*
X193525214Y-64574795D01*
X193557410Y-64599500D01*
X193634982Y-64659024D01*
X193677227Y-64676522D01*
X193762814Y-64711973D01*
X193762821Y-64711975D01*
X193899997Y-64730035D01*
X193900000Y-64730035D01*
X193900003Y-64730035D01*
X194044266Y-64711042D01*
X194044612Y-64713674D01*
X194100353Y-64716584D01*
X194152715Y-64758968D01*
X194170165Y-64824034D01*
X194162713Y-64858340D01*
X194110422Y-64990940D01*
X194108134Y-65010000D01*
X195874593Y-65010000D01*
X195938662Y-65030817D01*
X195951667Y-65041925D01*
X196018074Y-65108331D01*
X196048658Y-65168354D01*
X196050000Y-65185406D01*
X196050000Y-65935468D01*
X196099058Y-65929577D01*
X196237147Y-65875122D01*
X196237151Y-65875120D01*
X196284260Y-65839396D01*
X196347888Y-65817270D01*
X196400585Y-65833206D01*
X196401982Y-65830563D01*
X196409201Y-65834377D01*
X196409206Y-65834381D01*
X196533121Y-65877741D01*
X196562543Y-65880500D01*
X196774572Y-65880499D01*
X196838640Y-65901316D01*
X196878237Y-65955816D01*
X196882640Y-66003726D01*
X196871198Y-66090639D01*
X196869965Y-66100003D01*
X196888024Y-66237178D01*
X196888026Y-66237185D01*
X196900020Y-66266140D01*
X196905305Y-66333298D01*
X196870106Y-66390737D01*
X196843345Y-66407564D01*
X196752234Y-66447793D01*
X196743903Y-66453501D01*
X196741985Y-66450702D01*
X196696931Y-66473658D01*
X196679880Y-66475000D01*
X196100001Y-66475000D01*
X196100000Y-66475001D01*
X196100000Y-67741000D01*
X196079183Y-67805069D01*
X196024683Y-67844665D01*
X195991000Y-67850000D01*
X195709000Y-67850000D01*
X195644931Y-67829183D01*
X195605335Y-67774683D01*
X195600000Y-67741000D01*
X195600000Y-66475001D01*
X195599999Y-66475000D01*
X195020121Y-66475000D01*
X194956052Y-66454183D01*
X194951835Y-66450582D01*
X194947767Y-66447795D01*
X194947765Y-66447794D01*
X194844991Y-66402415D01*
X194819865Y-66399500D01*
X194623121Y-66399500D01*
X194568621Y-66384896D01*
X194473887Y-66330201D01*
X194449673Y-66323713D01*
X194359312Y-66299500D01*
X194359309Y-66299500D01*
X193808593Y-66299500D01*
X193766880Y-66291203D01*
X193766336Y-66290977D01*
X193766334Y-66290976D01*
X193687661Y-66258389D01*
X193636436Y-66214638D01*
X193626491Y-66193686D01*
X193619407Y-66173442D01*
X193601352Y-66121843D01*
X193585180Y-66099931D01*
X193542253Y-66041766D01*
X193520957Y-65977855D01*
X193541294Y-65913633D01*
X193552883Y-65899961D01*
X193556415Y-65896428D01*
X193556423Y-65896423D01*
X193634381Y-65790794D01*
X193677741Y-65666879D01*
X193680500Y-65637457D01*
X193680500Y-65510000D01*
X194108134Y-65510000D01*
X194110422Y-65529058D01*
X194164877Y-65667146D01*
X194254571Y-65785426D01*
X194254573Y-65785428D01*
X194372853Y-65875122D01*
X194510941Y-65929577D01*
X194560000Y-65935468D01*
X195060000Y-65935468D01*
X195109058Y-65929577D01*
X195247145Y-65875123D01*
X195251578Y-65872631D01*
X195317627Y-65859376D01*
X195358422Y-65872631D01*
X195362854Y-65875123D01*
X195500941Y-65929577D01*
X195550000Y-65935468D01*
X195550000Y-65510001D01*
X195549999Y-65510000D01*
X195060001Y-65510000D01*
X195060000Y-65510001D01*
X195060000Y-65935468D01*
X194560000Y-65935468D01*
X194560000Y-65510001D01*
X194559999Y-65510000D01*
X194108134Y-65510000D01*
X193680500Y-65510000D01*
X193680499Y-65162544D01*
X193677741Y-65133121D01*
X193634381Y-65009206D01*
X193620000Y-64989720D01*
X193556427Y-64903581D01*
X193556418Y-64903572D01*
X193450797Y-64825621D01*
X193450796Y-64825620D01*
X193450794Y-64825619D01*
X193326879Y-64782259D01*
X193326877Y-64782258D01*
X193297458Y-64779500D01*
X193171405Y-64779500D01*
X193107336Y-64758683D01*
X193067740Y-64704183D01*
X193067740Y-64636817D01*
X193107336Y-64582317D01*
X193129694Y-64569797D01*
X193142774Y-64564378D01*
X193171605Y-64552437D01*
X193281378Y-64468204D01*
X193281384Y-64468195D01*
X193285175Y-64464406D01*
X193345197Y-64433819D01*
X193411733Y-64444353D01*
G37*
%TD.AperFunction*%
%TA.AperFunction,Conductor*%
G36*
X196647872Y-56773295D02*
G01*
X196682491Y-56790220D01*
X196682492Y-56790220D01*
X196682495Y-56790221D01*
X196713164Y-56794689D01*
X196773562Y-56824525D01*
X196804888Y-56884164D01*
X196805311Y-56886836D01*
X196809779Y-56917505D01*
X196809781Y-56917511D01*
X196826704Y-56952130D01*
X196836139Y-57018831D01*
X196826704Y-57047870D01*
X196809779Y-57082491D01*
X196799500Y-57153046D01*
X196799500Y-57346943D01*
X196802348Y-57366496D01*
X196809780Y-57417509D01*
X196809781Y-57417511D01*
X196826704Y-57452130D01*
X196836139Y-57518831D01*
X196826704Y-57547870D01*
X196809779Y-57582491D01*
X196799500Y-57653046D01*
X196799500Y-57846943D01*
X196802348Y-57866496D01*
X196809780Y-57917509D01*
X196809781Y-57917511D01*
X196826704Y-57952130D01*
X196836139Y-58018831D01*
X196826704Y-58047870D01*
X196809779Y-58082491D01*
X196799500Y-58153046D01*
X196799500Y-58346943D01*
X196800455Y-58353497D01*
X196809780Y-58417509D01*
X196809781Y-58417511D01*
X196826704Y-58452130D01*
X196836139Y-58518831D01*
X196826704Y-58547870D01*
X196809779Y-58582491D01*
X196799500Y-58653046D01*
X196799500Y-58846943D01*
X196801586Y-58861263D01*
X196809780Y-58917509D01*
X196809781Y-58917511D01*
X196826704Y-58952130D01*
X196836139Y-59018831D01*
X196826704Y-59047870D01*
X196809779Y-59082491D01*
X196799500Y-59153046D01*
X196799500Y-59346943D01*
X196802348Y-59366496D01*
X196809780Y-59417509D01*
X196809781Y-59417511D01*
X196826704Y-59452130D01*
X196836139Y-59518831D01*
X196826704Y-59547870D01*
X196809779Y-59582491D01*
X196799500Y-59653046D01*
X196799500Y-59846943D01*
X196802348Y-59866496D01*
X196809780Y-59917509D01*
X196809781Y-59917511D01*
X196826704Y-59952130D01*
X196836139Y-60018831D01*
X196826704Y-60047870D01*
X196809779Y-60082491D01*
X196799500Y-60153046D01*
X196799500Y-60346943D01*
X196799545Y-60347251D01*
X196809780Y-60417509D01*
X196809781Y-60417511D01*
X196826704Y-60452130D01*
X196836139Y-60518831D01*
X196826704Y-60547870D01*
X196809779Y-60582491D01*
X196799500Y-60653046D01*
X196799500Y-60846943D01*
X196801257Y-60859000D01*
X196809780Y-60917509D01*
X196809781Y-60917511D01*
X196826704Y-60952130D01*
X196836139Y-61018831D01*
X196826704Y-61047870D01*
X196809779Y-61082491D01*
X196799500Y-61153046D01*
X196799500Y-61346943D01*
X196802348Y-61366496D01*
X196809780Y-61417509D01*
X196809781Y-61417511D01*
X196826704Y-61452130D01*
X196836139Y-61518831D01*
X196826704Y-61547870D01*
X196809779Y-61582491D01*
X196799500Y-61653046D01*
X196799500Y-61846943D01*
X196802348Y-61866496D01*
X196809780Y-61917509D01*
X196809781Y-61917511D01*
X196826704Y-61952130D01*
X196836139Y-62018831D01*
X196826704Y-62047870D01*
X196809779Y-62082491D01*
X196805310Y-62113166D01*
X196775472Y-62173564D01*
X196715833Y-62204889D01*
X196713164Y-62205311D01*
X196682493Y-62209779D01*
X196682488Y-62209781D01*
X196647870Y-62226704D01*
X196581169Y-62236139D01*
X196552130Y-62226704D01*
X196517508Y-62209779D01*
X196446951Y-62199500D01*
X196253056Y-62199500D01*
X196223015Y-62203876D01*
X196182491Y-62209780D01*
X196182489Y-62209780D01*
X196182488Y-62209781D01*
X196147870Y-62226704D01*
X196081169Y-62236139D01*
X196052130Y-62226704D01*
X196017508Y-62209779D01*
X195946951Y-62199500D01*
X195753056Y-62199500D01*
X195723015Y-62203876D01*
X195682491Y-62209780D01*
X195682489Y-62209780D01*
X195682488Y-62209781D01*
X195647870Y-62226704D01*
X195581169Y-62236139D01*
X195552130Y-62226704D01*
X195517508Y-62209779D01*
X195446951Y-62199500D01*
X195253056Y-62199500D01*
X195223015Y-62203876D01*
X195182491Y-62209780D01*
X195182489Y-62209780D01*
X195182488Y-62209781D01*
X195147870Y-62226704D01*
X195081169Y-62236139D01*
X195052130Y-62226704D01*
X195017508Y-62209779D01*
X194946951Y-62199500D01*
X194753056Y-62199500D01*
X194723015Y-62203876D01*
X194682491Y-62209780D01*
X194682489Y-62209780D01*
X194682488Y-62209781D01*
X194647870Y-62226704D01*
X194581169Y-62236139D01*
X194552130Y-62226704D01*
X194517508Y-62209779D01*
X194446951Y-62199500D01*
X194253056Y-62199500D01*
X194223015Y-62203876D01*
X194182491Y-62209780D01*
X194182489Y-62209780D01*
X194182488Y-62209781D01*
X194147870Y-62226704D01*
X194081169Y-62236139D01*
X194052130Y-62226704D01*
X194017508Y-62209779D01*
X193946951Y-62199500D01*
X193753056Y-62199500D01*
X193723015Y-62203876D01*
X193682491Y-62209780D01*
X193682489Y-62209780D01*
X193682488Y-62209781D01*
X193647870Y-62226704D01*
X193581169Y-62236139D01*
X193552130Y-62226704D01*
X193517508Y-62209779D01*
X193446951Y-62199500D01*
X193253056Y-62199500D01*
X193223015Y-62203876D01*
X193182491Y-62209780D01*
X193182489Y-62209780D01*
X193182488Y-62209781D01*
X193147870Y-62226704D01*
X193081169Y-62236139D01*
X193052130Y-62226704D01*
X193017508Y-62209779D01*
X192946951Y-62199500D01*
X192753056Y-62199500D01*
X192723015Y-62203876D01*
X192682491Y-62209780D01*
X192682489Y-62209780D01*
X192682488Y-62209781D01*
X192647870Y-62226704D01*
X192581169Y-62236139D01*
X192552130Y-62226704D01*
X192517508Y-62209779D01*
X192446951Y-62199500D01*
X192253056Y-62199500D01*
X192223015Y-62203876D01*
X192182491Y-62209780D01*
X192182489Y-62209780D01*
X192182488Y-62209781D01*
X192147870Y-62226704D01*
X192081169Y-62236139D01*
X192052130Y-62226704D01*
X192017508Y-62209779D01*
X191946951Y-62199500D01*
X191753056Y-62199500D01*
X191723015Y-62203876D01*
X191682491Y-62209780D01*
X191682489Y-62209780D01*
X191682488Y-62209781D01*
X191647870Y-62226704D01*
X191581169Y-62236139D01*
X191552130Y-62226704D01*
X191517509Y-62209779D01*
X191486833Y-62205310D01*
X191426435Y-62175473D01*
X191395111Y-62115833D01*
X191394697Y-62113227D01*
X191390220Y-62082491D01*
X191373296Y-62047872D01*
X191363858Y-61981171D01*
X191373293Y-61952131D01*
X191390220Y-61917509D01*
X191400500Y-61846949D01*
X191400499Y-61653052D01*
X191390220Y-61582491D01*
X191373296Y-61547872D01*
X191363858Y-61481171D01*
X191373293Y-61452131D01*
X191390220Y-61417509D01*
X191400500Y-61346949D01*
X191400499Y-61153052D01*
X191390220Y-61082491D01*
X191373296Y-61047872D01*
X191363858Y-60981171D01*
X191373293Y-60952131D01*
X191390220Y-60917509D01*
X191390586Y-60915001D01*
X191394272Y-60889690D01*
X191400500Y-60846949D01*
X191400499Y-60653052D01*
X191390220Y-60582491D01*
X191390218Y-60582486D01*
X191373296Y-60547872D01*
X191363858Y-60481171D01*
X191373293Y-60452131D01*
X191390220Y-60417509D01*
X191391464Y-60408974D01*
X191394272Y-60389690D01*
X191400500Y-60346949D01*
X191400499Y-60153052D01*
X191390220Y-60082491D01*
X191390218Y-60082486D01*
X191373296Y-60047872D01*
X191363858Y-59981171D01*
X191373293Y-59952131D01*
X191390220Y-59917509D01*
X191392150Y-59904266D01*
X191400499Y-59846953D01*
X191400500Y-59846949D01*
X191400499Y-59653052D01*
X191390220Y-59582491D01*
X191385427Y-59572686D01*
X191373296Y-59547872D01*
X191363858Y-59481171D01*
X191373293Y-59452131D01*
X191390220Y-59417509D01*
X191400500Y-59346949D01*
X191400499Y-59153052D01*
X191390220Y-59082491D01*
X191373296Y-59047872D01*
X191363858Y-58981171D01*
X191373293Y-58952131D01*
X191390220Y-58917509D01*
X191391030Y-58911954D01*
X191394272Y-58889690D01*
X191400500Y-58846949D01*
X191400499Y-58653052D01*
X191390220Y-58582491D01*
X191374165Y-58549650D01*
X191373296Y-58547872D01*
X191363858Y-58481171D01*
X191373293Y-58452131D01*
X191390220Y-58417509D01*
X191390770Y-58413738D01*
X191400499Y-58346953D01*
X191400500Y-58346949D01*
X191400499Y-58153052D01*
X191390220Y-58082491D01*
X191390218Y-58082486D01*
X191373296Y-58047872D01*
X191363858Y-57981171D01*
X191373293Y-57952131D01*
X191390220Y-57917509D01*
X191400500Y-57846949D01*
X191400499Y-57653052D01*
X191390220Y-57582491D01*
X191390218Y-57582486D01*
X191373296Y-57547872D01*
X191363858Y-57481171D01*
X191373293Y-57452131D01*
X191390220Y-57417509D01*
X191400500Y-57346949D01*
X191400499Y-57153052D01*
X191390220Y-57082491D01*
X191373296Y-57047872D01*
X191363858Y-56981171D01*
X191373293Y-56952131D01*
X191390220Y-56917509D01*
X191394689Y-56886836D01*
X191424524Y-56826437D01*
X191484163Y-56795111D01*
X191486771Y-56794697D01*
X191517509Y-56790220D01*
X191552127Y-56773295D01*
X191618827Y-56763858D01*
X191647872Y-56773295D01*
X191682491Y-56790220D01*
X191682492Y-56790220D01*
X191682495Y-56790221D01*
X191712527Y-56794596D01*
X191753051Y-56800500D01*
X191946948Y-56800499D01*
X192017509Y-56790220D01*
X192052127Y-56773295D01*
X192118827Y-56763858D01*
X192147872Y-56773295D01*
X192182491Y-56790220D01*
X192182492Y-56790220D01*
X192182495Y-56790221D01*
X192212527Y-56794596D01*
X192253051Y-56800500D01*
X192446948Y-56800499D01*
X192517509Y-56790220D01*
X192552127Y-56773295D01*
X192618827Y-56763858D01*
X192647872Y-56773295D01*
X192682491Y-56790220D01*
X192682492Y-56790220D01*
X192682495Y-56790221D01*
X192712527Y-56794596D01*
X192753051Y-56800500D01*
X192946948Y-56800499D01*
X193017509Y-56790220D01*
X193052127Y-56773295D01*
X193118827Y-56763858D01*
X193147872Y-56773295D01*
X193182491Y-56790220D01*
X193182492Y-56790220D01*
X193182495Y-56790221D01*
X193212527Y-56794596D01*
X193253051Y-56800500D01*
X193446948Y-56800499D01*
X193517509Y-56790220D01*
X193552127Y-56773295D01*
X193618827Y-56763858D01*
X193647872Y-56773295D01*
X193682491Y-56790220D01*
X193682492Y-56790220D01*
X193682495Y-56790221D01*
X193712527Y-56794596D01*
X193753051Y-56800500D01*
X193946948Y-56800499D01*
X194017509Y-56790220D01*
X194052127Y-56773295D01*
X194118827Y-56763858D01*
X194147872Y-56773295D01*
X194182491Y-56790220D01*
X194182492Y-56790220D01*
X194182495Y-56790221D01*
X194212527Y-56794596D01*
X194253051Y-56800500D01*
X194446948Y-56800499D01*
X194517509Y-56790220D01*
X194552127Y-56773295D01*
X194618827Y-56763858D01*
X194647872Y-56773295D01*
X194682491Y-56790220D01*
X194682492Y-56790220D01*
X194682495Y-56790221D01*
X194712527Y-56794596D01*
X194753051Y-56800500D01*
X194946948Y-56800499D01*
X195017509Y-56790220D01*
X195052127Y-56773295D01*
X195118827Y-56763858D01*
X195147872Y-56773295D01*
X195182491Y-56790220D01*
X195182492Y-56790220D01*
X195182495Y-56790221D01*
X195212527Y-56794596D01*
X195253051Y-56800500D01*
X195446948Y-56800499D01*
X195517509Y-56790220D01*
X195552127Y-56773295D01*
X195618827Y-56763858D01*
X195647872Y-56773295D01*
X195682491Y-56790220D01*
X195682492Y-56790220D01*
X195682495Y-56790221D01*
X195712527Y-56794596D01*
X195753051Y-56800500D01*
X195946948Y-56800499D01*
X196017509Y-56790220D01*
X196052127Y-56773295D01*
X196118827Y-56763858D01*
X196147872Y-56773295D01*
X196182491Y-56790220D01*
X196182492Y-56790220D01*
X196182495Y-56790221D01*
X196212527Y-56794596D01*
X196253051Y-56800500D01*
X196446948Y-56800499D01*
X196517509Y-56790220D01*
X196552127Y-56773295D01*
X196618827Y-56763858D01*
X196647872Y-56773295D01*
G37*
%TD.AperFunction*%
%TA.AperFunction,Conductor*%
G36*
X190525069Y-54570817D02*
G01*
X190564665Y-54625317D01*
X190570000Y-54659000D01*
X190570000Y-55501866D01*
X190586430Y-55499894D01*
X190652524Y-55512923D01*
X190698336Y-55562313D01*
X190700129Y-55566404D01*
X190740974Y-55665014D01*
X190740976Y-55665018D01*
X190808347Y-55752817D01*
X190825209Y-55774791D01*
X190881856Y-55818258D01*
X190920011Y-55873774D01*
X190924500Y-55904732D01*
X190924500Y-56215500D01*
X190903683Y-56279569D01*
X190849183Y-56319165D01*
X190815500Y-56324500D01*
X190253056Y-56324500D01*
X190223015Y-56328876D01*
X190182491Y-56334780D01*
X190182489Y-56334780D01*
X190182488Y-56334781D01*
X190082372Y-56383725D01*
X190015671Y-56393161D01*
X189956162Y-56361590D01*
X189926575Y-56301069D01*
X189925500Y-56285800D01*
X189925500Y-55853984D01*
X189925499Y-55853977D01*
X189924214Y-55849182D01*
X189920499Y-55820969D01*
X189920499Y-55606585D01*
X189941316Y-55542516D01*
X189995816Y-55502920D01*
X190043694Y-55501337D01*
X190044006Y-55498745D01*
X190070000Y-55501866D01*
X190070000Y-54659000D01*
X190090817Y-54594931D01*
X190145317Y-54555335D01*
X190179000Y-54550000D01*
X190461000Y-54550000D01*
X190525069Y-54570817D01*
G37*
%TD.AperFunction*%
%TD*%
M02*
