%TF.GenerationSoftware,KiCad,Pcbnew,8.0.0*%
%TF.CreationDate,2024-03-06T16:17:17+03:00*%
%TF.ProjectId,micro17,6d696372-6f31-4372-9e6b-696361645f70,rev?*%
%TF.SameCoordinates,Original*%
%TF.FileFunction,Copper,L3,Inr*%
%TF.FilePolarity,Positive*%
%FSLAX46Y46*%
G04 Gerber Fmt 4.6, Leading zero omitted, Abs format (unit mm)*
G04 Created by KiCad (PCBNEW 8.0.0) date 2024-03-06 16:17:17*
%MOMM*%
%LPD*%
G01*
G04 APERTURE LIST*
%TA.AperFunction,ViaPad*%
%ADD10C,0.800000*%
%TD*%
%TA.AperFunction,ViaPad*%
%ADD11C,0.500000*%
%TD*%
%TA.AperFunction,ViaPad*%
%ADD12C,0.450000*%
%TD*%
%TA.AperFunction,Conductor*%
%ADD13C,0.300000*%
%TD*%
%TA.AperFunction,Conductor*%
%ADD14C,0.250000*%
%TD*%
G04 APERTURE END LIST*
D10*
%TO.N,USART3_RX*%
X197331041Y-63068959D03*
%TO.N,Net-(R30-Pad2)*%
X199300000Y-62900000D03*
D11*
%TO.N,GND*%
X185000000Y-51000000D03*
X185000000Y-53000000D03*
D12*
X182400000Y-79720108D03*
D11*
X180600000Y-61000000D03*
D12*
X188500000Y-57700000D03*
D11*
X199400000Y-52072500D03*
X181000000Y-51000000D03*
D12*
X192000000Y-57500000D03*
X197300000Y-72000000D03*
D11*
X180600000Y-63000000D03*
D12*
X194000000Y-61500000D03*
D11*
X181000000Y-55000000D03*
D12*
X186500000Y-79300000D03*
D11*
X180750000Y-70000000D03*
D12*
X199700000Y-58800000D03*
X199750000Y-68000000D03*
X192000000Y-59500000D03*
D11*
X199100000Y-79100000D03*
D12*
X191000000Y-71900000D03*
D11*
X185500000Y-55000000D03*
D12*
X182800000Y-65200000D03*
X199500000Y-66300000D03*
X194000000Y-57300000D03*
D11*
X188600000Y-69400000D03*
X181000000Y-74400000D03*
X180600000Y-59000000D03*
D12*
X197800000Y-78400000D03*
D11*
X180700000Y-68500000D03*
D10*
X184900000Y-60700000D03*
D12*
X196200000Y-78800000D03*
X189750000Y-79750000D03*
X189100000Y-64500000D03*
X186100000Y-68400000D03*
X182960000Y-60300000D03*
X187250000Y-79750000D03*
X196000000Y-59500000D03*
X185600000Y-59500000D03*
X196000000Y-61500000D03*
D11*
X198280000Y-53600000D03*
D12*
X190300000Y-55300000D03*
X191507567Y-68206053D03*
D11*
X197800000Y-65900000D03*
D12*
X192000000Y-61500000D03*
D11*
X183960000Y-61000000D03*
D12*
X199500000Y-76250000D03*
X198800000Y-54600000D03*
D11*
X182400000Y-76000000D03*
X183000000Y-73000000D03*
D12*
X199500000Y-65300000D03*
D11*
X181000000Y-53000000D03*
X182400000Y-70400000D03*
X183000000Y-53000000D03*
D12*
X193250000Y-79500000D03*
D11*
X180600000Y-57000000D03*
X197100000Y-72900000D03*
D12*
X194800000Y-65900000D03*
D11*
X183000000Y-51000000D03*
X180600000Y-65000000D03*
X186500000Y-55000000D03*
D12*
X196250000Y-75750000D03*
%TO.N,+3V3*%
X191200000Y-55400000D03*
X198820000Y-56800000D03*
D11*
X182000000Y-56200000D03*
X197350000Y-64290000D03*
D12*
X183650000Y-68800000D03*
D10*
X188100000Y-53600000D03*
D12*
X183750000Y-74250000D03*
%TO.N,VDDA*%
X195200000Y-64200000D03*
X187400000Y-63800000D03*
X191475000Y-69397760D03*
%TO.N,+5V*%
X198100000Y-66850000D03*
X189067678Y-67967678D03*
X194300000Y-75550000D03*
D11*
X182000000Y-60300000D03*
D12*
%TO.N,Net-(U4B-+)*%
X191000000Y-67800000D03*
X188301409Y-66976409D03*
%TO.N,/MCU/~{RST}*%
X190660000Y-53600000D03*
X189700000Y-59800000D03*
%TO.N,Net-(C16-Pad2)*%
X190200000Y-66000000D03*
X187800000Y-68400000D03*
%TO.N,Net-(U5A-P0A)*%
X183740793Y-75177619D03*
X193501316Y-66750000D03*
%TO.N,Net-(U5B-P1A)*%
X180975000Y-72800000D03*
X198100000Y-67900000D03*
%TO.N,Net-(U5C-P2W)*%
X187500000Y-78725002D03*
X198750000Y-76000000D03*
%TO.N,I2C_SDA*%
X191974992Y-55147670D03*
D11*
X183200000Y-70400000D03*
D12*
%TO.N,PTT_OUT*%
X191900000Y-64000000D03*
%TO.N,AUDIO_OUT_MUTE*%
X189079841Y-75520159D03*
X193900000Y-64200000D03*
%TO.N,BASEBAND_IN_FILT*%
X189000000Y-61400000D03*
X191100000Y-67000000D03*
%TO.N,BASEBAND_OUT*%
X190500000Y-63200000D03*
X184600000Y-73800000D03*
%TO.N,I2C_SCL*%
X195200000Y-55100000D03*
D11*
X184400000Y-70400000D03*
D12*
%TO.N,AUDIO_OUT_FILT*%
X181000000Y-78597151D03*
X191800000Y-78800000D03*
%TO.N,BASEBAND_IN*%
X188700000Y-78800000D03*
%TO.N,BASEBAND_OUT_FILT*%
X191099724Y-75575719D03*
%TO.N,AUDIO_IN*%
X199200000Y-75100000D03*
X190101511Y-75575826D03*
%TO.N,PTT_IN*%
X186600000Y-56000000D03*
D11*
%TO.N,MCU_TX*%
X198500000Y-59900000D03*
%TO.N,MCU_RX*%
X199100000Y-59300000D03*
D12*
%TO.N,BASEBAND_BYPASS*%
X192906587Y-64093413D03*
D11*
%TO.N,+5VD*%
X184000000Y-65037501D03*
D12*
%TO.N,Net-(U1-VBAT)*%
X189150000Y-55350000D03*
%TO.N,USB_DP*%
X198600000Y-57800000D03*
%TO.N,USB_DN*%
X198700000Y-58500000D03*
%TD*%
D13*
%TO.N,+3V3*%
X183750000Y-74250000D02*
X183800000Y-74200000D01*
X183800000Y-68950000D02*
X183650000Y-68800000D01*
X183800000Y-74200000D02*
X183800000Y-68950000D01*
%TO.N,Net-(C16-Pad2)*%
X190200000Y-66022182D02*
X190200000Y-66000000D01*
X187822182Y-68400000D02*
X190200000Y-66022182D01*
X187800000Y-68400000D02*
X187822182Y-68400000D01*
%TO.N,Net-(U5A-P0A)*%
X192800000Y-67451316D02*
X193501316Y-66750000D01*
X191650000Y-70300000D02*
X192800000Y-69150000D01*
X190300000Y-70300000D02*
X191650000Y-70300000D01*
X183740793Y-75177619D02*
X185422381Y-75177619D01*
X192800000Y-69150000D02*
X192800000Y-67451316D01*
X185422381Y-75177619D02*
X190300000Y-70300000D01*
%TO.N,Net-(U5B-P1A)*%
X180975000Y-73225000D02*
X183950000Y-76200000D01*
X192250000Y-76200000D02*
X198100000Y-67900000D01*
X180975000Y-72800000D02*
X180975000Y-73225000D01*
X183950000Y-76200000D02*
X192250000Y-76200000D01*
%TO.N,Net-(U5C-P2W)*%
X196200000Y-77500000D02*
X188725002Y-77500000D01*
X198750000Y-76000000D02*
X196200000Y-77500000D01*
X188725002Y-77500000D02*
X187500000Y-78725002D01*
%TO.N,I2C_SDA*%
X186150000Y-64236827D02*
X186150000Y-61350000D01*
X186150000Y-61350000D02*
X191974992Y-55525008D01*
X183000000Y-70200000D02*
X183000000Y-67386827D01*
X183000000Y-67386827D02*
X186150000Y-64236827D01*
X183200000Y-70400000D02*
X183000000Y-70200000D01*
X191974992Y-55525008D02*
X191974992Y-55147670D01*
D14*
%TO.N,AUDIO_OUT_MUTE*%
X194051316Y-64351316D02*
X194051316Y-69500000D01*
X194051316Y-69500000D02*
X189079841Y-75520159D01*
X193900000Y-64200000D02*
X194051316Y-64351316D01*
D13*
%TO.N,BASEBAND_OUT*%
X189425000Y-65075000D02*
X190500000Y-64000000D01*
X186800000Y-69250000D02*
X186800000Y-67477818D01*
X189202818Y-65075000D02*
X189425000Y-65075000D01*
X184600000Y-73800000D02*
X186800000Y-69250000D01*
X190500000Y-64000000D02*
X190500000Y-63200000D01*
X186800000Y-67477818D02*
X189202818Y-65075000D01*
%TO.N,I2C_SCL*%
X184400000Y-70400000D02*
X184400000Y-68100000D01*
X195200000Y-57300000D02*
X195200000Y-55100000D01*
X184400000Y-68100000D02*
X195200000Y-57300000D01*
%TD*%
%TA.AperFunction,Conductor*%
%TO.N,GND*%
G36*
X193566301Y-67428633D02*
G01*
X193613936Y-67476268D01*
X193625816Y-67525753D01*
X193625816Y-69307830D01*
X193604999Y-69371899D01*
X193600862Y-69377236D01*
X188972305Y-74982142D01*
X188929972Y-75013439D01*
X188814821Y-75061136D01*
X188705055Y-75145363D01*
X188705045Y-75145373D01*
X188620817Y-75255140D01*
X188567867Y-75382973D01*
X188567865Y-75382980D01*
X188549806Y-75520156D01*
X188549806Y-75520161D01*
X188563776Y-75626272D01*
X188551500Y-75692510D01*
X188502635Y-75738882D01*
X188455709Y-75749500D01*
X185739646Y-75749500D01*
X185675577Y-75728683D01*
X185635981Y-75674183D01*
X185635981Y-75606817D01*
X185675577Y-75552317D01*
X185685139Y-75546107D01*
X185698995Y-75538108D01*
X190454678Y-70782425D01*
X190514702Y-70751842D01*
X190531753Y-70750500D01*
X191709308Y-70750500D01*
X191709309Y-70750500D01*
X191799673Y-70726286D01*
X191823887Y-70719799D01*
X191926614Y-70660489D01*
X193160490Y-69426614D01*
X193219799Y-69323886D01*
X193226508Y-69298847D01*
X193250500Y-69209309D01*
X193250500Y-67683069D01*
X193271317Y-67619000D01*
X193282425Y-67605994D01*
X193439741Y-67448678D01*
X193499765Y-67418095D01*
X193566301Y-67428633D01*
G37*
%TD.AperFunction*%
%TA.AperFunction,Conductor*%
G36*
X189944140Y-63299476D02*
G01*
X189991775Y-63347111D01*
X189995356Y-63354880D01*
X190012755Y-63396886D01*
X190041203Y-63465566D01*
X190049500Y-63507278D01*
X190049500Y-63768246D01*
X190028683Y-63832315D01*
X190017575Y-63845321D01*
X189270322Y-64592575D01*
X189210298Y-64623158D01*
X189193247Y-64624500D01*
X189143509Y-64624500D01*
X189053144Y-64648713D01*
X189028931Y-64655200D01*
X188926206Y-64714508D01*
X186439510Y-67201205D01*
X186380202Y-67303927D01*
X186374573Y-67324937D01*
X186349500Y-67418507D01*
X186349500Y-69121833D01*
X186338631Y-69169281D01*
X184457631Y-73059530D01*
X184411000Y-73108148D01*
X184344698Y-73120072D01*
X184284050Y-73090748D01*
X184252221Y-73031376D01*
X184250500Y-73012082D01*
X184250500Y-71059858D01*
X184271317Y-70995789D01*
X184325817Y-70956193D01*
X184373727Y-70951791D01*
X184391855Y-70954177D01*
X184399999Y-70955250D01*
X184400000Y-70955250D01*
X184400003Y-70955250D01*
X184543704Y-70936331D01*
X184543706Y-70936330D01*
X184543709Y-70936330D01*
X184677625Y-70880861D01*
X184792621Y-70792621D01*
X184880861Y-70677625D01*
X184936330Y-70543709D01*
X184938178Y-70529677D01*
X184955250Y-70400002D01*
X184955250Y-70399997D01*
X184936331Y-70256295D01*
X184936329Y-70256288D01*
X184920083Y-70217067D01*
X184880861Y-70122375D01*
X184873023Y-70112160D01*
X184850537Y-70048657D01*
X184850500Y-70045807D01*
X184850500Y-68331752D01*
X184871317Y-68267683D01*
X184882419Y-68254683D01*
X189817582Y-63319519D01*
X189877604Y-63288938D01*
X189944140Y-63299476D01*
G37*
%TD.AperFunction*%
%TA.AperFunction,Conductor*%
G36*
X198975829Y-50000002D02*
G01*
X198976531Y-50000006D01*
X198999418Y-50000146D01*
X199000525Y-50000159D01*
X199024479Y-50000599D01*
X199024500Y-50000600D01*
X199046812Y-50001147D01*
X199051434Y-50001359D01*
X199093355Y-50004191D01*
X199102646Y-50005222D01*
X199144141Y-50011636D01*
X199148714Y-50012444D01*
X199192022Y-50021059D01*
X199197191Y-50022219D01*
X199284397Y-50044063D01*
X199294633Y-50047168D01*
X199376725Y-50076542D01*
X199386585Y-50080626D01*
X199465425Y-50117914D01*
X199474850Y-50122953D01*
X199549641Y-50167781D01*
X199558535Y-50173723D01*
X199628569Y-50225663D01*
X199636825Y-50232439D01*
X199701453Y-50291014D01*
X199708985Y-50298546D01*
X199767558Y-50363171D01*
X199774336Y-50371430D01*
X199826276Y-50441463D01*
X199832217Y-50450355D01*
X199877050Y-50525154D01*
X199882086Y-50534575D01*
X199919370Y-50613407D01*
X199923463Y-50623289D01*
X199952830Y-50705365D01*
X199955936Y-50715602D01*
X199977777Y-50802798D01*
X199978949Y-50808017D01*
X199987549Y-50851252D01*
X199988363Y-50855863D01*
X199994776Y-50897343D01*
X199995808Y-50906648D01*
X199998639Y-50948543D01*
X199998854Y-50953226D01*
X199999388Y-50975054D01*
X199999403Y-50975715D01*
X199999838Y-50999361D01*
X199999854Y-51000697D01*
X199999998Y-51024166D01*
X200000000Y-51024835D01*
X200000000Y-62342099D01*
X199979183Y-62406168D01*
X199924683Y-62445764D01*
X199857317Y-62445764D01*
X199818720Y-62423687D01*
X199726625Y-62342099D01*
X199700852Y-62319266D01*
X199700850Y-62319265D01*
X199700849Y-62319264D01*
X199550226Y-62240210D01*
X199385057Y-62199500D01*
X199385056Y-62199500D01*
X199214944Y-62199500D01*
X199214942Y-62199500D01*
X199049773Y-62240210D01*
X198899150Y-62319264D01*
X198899143Y-62319270D01*
X198771816Y-62432071D01*
X198771815Y-62432072D01*
X198675184Y-62572065D01*
X198675180Y-62572072D01*
X198614859Y-62731128D01*
X198614858Y-62731131D01*
X198594355Y-62899997D01*
X198594355Y-62900002D01*
X198614858Y-63068868D01*
X198614859Y-63068871D01*
X198675180Y-63227927D01*
X198675184Y-63227934D01*
X198771815Y-63367927D01*
X198771816Y-63367928D01*
X198771817Y-63367929D01*
X198899148Y-63480734D01*
X199049775Y-63559790D01*
X199214944Y-63600500D01*
X199214945Y-63600500D01*
X199385055Y-63600500D01*
X199385056Y-63600500D01*
X199550225Y-63559790D01*
X199700852Y-63480734D01*
X199818721Y-63376311D01*
X199880480Y-63349409D01*
X199946259Y-63363945D01*
X199990930Y-63414369D01*
X200000000Y-63457900D01*
X200000000Y-78975164D01*
X199999998Y-78975833D01*
X199999854Y-78999302D01*
X199999838Y-79000638D01*
X199999403Y-79024284D01*
X199999388Y-79024945D01*
X199998854Y-79046773D01*
X199998639Y-79051456D01*
X199995808Y-79093351D01*
X199994776Y-79102656D01*
X199988363Y-79144136D01*
X199987549Y-79148747D01*
X199978949Y-79191982D01*
X199977777Y-79197201D01*
X199955936Y-79284397D01*
X199952830Y-79294634D01*
X199923463Y-79376710D01*
X199919370Y-79386593D01*
X199882089Y-79465417D01*
X199877046Y-79474850D01*
X199832218Y-79549641D01*
X199826276Y-79558535D01*
X199774336Y-79628569D01*
X199767550Y-79636838D01*
X199709001Y-79701437D01*
X199701442Y-79708995D01*
X199636838Y-79767550D01*
X199628569Y-79774336D01*
X199558535Y-79826276D01*
X199549641Y-79832218D01*
X199474850Y-79877046D01*
X199465417Y-79882089D01*
X199386593Y-79919370D01*
X199376710Y-79923463D01*
X199294634Y-79952830D01*
X199284397Y-79955936D01*
X199197201Y-79977777D01*
X199191982Y-79978949D01*
X199148747Y-79987549D01*
X199144136Y-79988363D01*
X199102656Y-79994776D01*
X199093351Y-79995808D01*
X199051456Y-79998639D01*
X199046773Y-79998854D01*
X199024945Y-79999388D01*
X199024284Y-79999403D01*
X199000638Y-79999838D01*
X198999302Y-79999854D01*
X198976596Y-79999993D01*
X198975831Y-79999998D01*
X198975165Y-80000000D01*
X181024835Y-80000000D01*
X181024168Y-79999998D01*
X181023385Y-79999993D01*
X181000697Y-79999854D01*
X180999361Y-79999838D01*
X180975715Y-79999403D01*
X180975054Y-79999388D01*
X180953226Y-79998854D01*
X180948543Y-79998639D01*
X180906648Y-79995808D01*
X180897343Y-79994776D01*
X180855863Y-79988363D01*
X180851252Y-79987549D01*
X180840735Y-79985457D01*
X180808007Y-79978946D01*
X180802798Y-79977777D01*
X180715602Y-79955936D01*
X180705365Y-79952830D01*
X180623289Y-79923463D01*
X180613411Y-79919372D01*
X180534582Y-79882089D01*
X180525149Y-79877047D01*
X180450361Y-79832221D01*
X180441468Y-79826278D01*
X180371431Y-79774336D01*
X180363171Y-79767558D01*
X180298546Y-79708985D01*
X180291014Y-79701453D01*
X180232439Y-79636825D01*
X180225663Y-79628569D01*
X180173723Y-79558535D01*
X180167781Y-79549641D01*
X180122953Y-79474850D01*
X180117914Y-79465425D01*
X180080626Y-79386585D01*
X180076541Y-79376721D01*
X180047168Y-79294630D01*
X180044062Y-79284393D01*
X180037707Y-79259023D01*
X180022219Y-79197191D01*
X180021059Y-79192022D01*
X180012444Y-79148714D01*
X180011636Y-79144136D01*
X180009016Y-79127186D01*
X180005222Y-79102646D01*
X180004191Y-79093355D01*
X180001359Y-79051434D01*
X180001147Y-79046812D01*
X180000600Y-79024487D01*
X180000159Y-79000525D01*
X180000146Y-78999418D01*
X180000002Y-78975828D01*
X180000000Y-78975164D01*
X180000000Y-78597153D01*
X180469965Y-78597153D01*
X180488024Y-78734329D01*
X180488026Y-78734336D01*
X180540974Y-78862165D01*
X180540976Y-78862169D01*
X180598538Y-78937185D01*
X180625209Y-78971942D01*
X180734982Y-79056175D01*
X180798899Y-79082650D01*
X180862814Y-79109124D01*
X180862821Y-79109126D01*
X180999997Y-79127186D01*
X181000000Y-79127186D01*
X181000003Y-79127186D01*
X181137178Y-79109126D01*
X181137180Y-79109125D01*
X181137183Y-79109125D01*
X181265018Y-79056175D01*
X181374791Y-78971942D01*
X181459024Y-78862169D01*
X181511974Y-78734334D01*
X181513203Y-78725004D01*
X186969965Y-78725004D01*
X186988024Y-78862180D01*
X186988026Y-78862187D01*
X187040974Y-78990016D01*
X187040976Y-78990020D01*
X187120265Y-79093351D01*
X187125209Y-79099793D01*
X187125213Y-79099796D01*
X187125214Y-79099797D01*
X187137372Y-79109126D01*
X187234982Y-79184026D01*
X187266766Y-79197191D01*
X187362814Y-79236975D01*
X187362821Y-79236977D01*
X187499997Y-79255037D01*
X187500000Y-79255037D01*
X187500003Y-79255037D01*
X187637178Y-79236977D01*
X187637180Y-79236976D01*
X187637183Y-79236976D01*
X187765018Y-79184026D01*
X187874791Y-79099793D01*
X187959024Y-78990020D01*
X187983791Y-78930225D01*
X188027539Y-78879001D01*
X188093043Y-78863274D01*
X188155281Y-78889052D01*
X188182295Y-78931824D01*
X188185292Y-78930583D01*
X188240974Y-79065014D01*
X188240976Y-79065018D01*
X188267655Y-79099787D01*
X188325209Y-79174791D01*
X188325213Y-79174794D01*
X188325214Y-79174795D01*
X188354401Y-79197191D01*
X188434982Y-79259024D01*
X188496229Y-79284393D01*
X188562814Y-79311973D01*
X188562821Y-79311975D01*
X188699997Y-79330035D01*
X188700000Y-79330035D01*
X188700003Y-79330035D01*
X188837178Y-79311975D01*
X188837180Y-79311974D01*
X188837183Y-79311974D01*
X188965018Y-79259024D01*
X189074791Y-79174791D01*
X189159024Y-79065018D01*
X189211974Y-78937183D01*
X189230035Y-78800002D01*
X191269965Y-78800002D01*
X191288024Y-78937178D01*
X191288026Y-78937185D01*
X191340974Y-79065014D01*
X191340976Y-79065018D01*
X191367655Y-79099787D01*
X191425209Y-79174791D01*
X191425213Y-79174794D01*
X191425214Y-79174795D01*
X191454401Y-79197191D01*
X191534982Y-79259024D01*
X191596229Y-79284393D01*
X191662814Y-79311973D01*
X191662821Y-79311975D01*
X191799997Y-79330035D01*
X191800000Y-79330035D01*
X191800003Y-79330035D01*
X191937178Y-79311975D01*
X191937180Y-79311974D01*
X191937183Y-79311974D01*
X192065018Y-79259024D01*
X192174791Y-79174791D01*
X192259024Y-79065018D01*
X192311974Y-78937183D01*
X192330035Y-78800000D01*
X192321389Y-78734329D01*
X192311975Y-78662821D01*
X192311973Y-78662814D01*
X192259023Y-78534981D01*
X192174795Y-78425214D01*
X192174794Y-78425213D01*
X192174791Y-78425209D01*
X192174786Y-78425205D01*
X192174785Y-78425204D01*
X192065018Y-78340976D01*
X192065014Y-78340974D01*
X191937185Y-78288026D01*
X191937178Y-78288024D01*
X191800003Y-78269965D01*
X191799997Y-78269965D01*
X191662821Y-78288024D01*
X191662814Y-78288026D01*
X191534981Y-78340976D01*
X191425214Y-78425204D01*
X191425204Y-78425214D01*
X191340976Y-78534981D01*
X191288026Y-78662814D01*
X191288024Y-78662821D01*
X191269965Y-78799997D01*
X191269965Y-78800002D01*
X189230035Y-78800002D01*
X189230035Y-78800000D01*
X189221389Y-78734329D01*
X189211975Y-78662821D01*
X189211973Y-78662814D01*
X189159023Y-78534981D01*
X189074795Y-78425214D01*
X189074794Y-78425213D01*
X189074791Y-78425209D01*
X189074786Y-78425205D01*
X189074785Y-78425204D01*
X188965018Y-78340976D01*
X188965014Y-78340974D01*
X188837185Y-78288026D01*
X188837177Y-78288024D01*
X188823827Y-78286267D01*
X188763023Y-78257266D01*
X188730879Y-78198064D01*
X188739672Y-78131274D01*
X188760980Y-78101125D01*
X188879681Y-77982425D01*
X188939704Y-77951842D01*
X188956755Y-77950500D01*
X196133878Y-77950500D01*
X196141799Y-77950986D01*
X196144350Y-77950965D01*
X196144353Y-77950966D01*
X196201258Y-77950503D01*
X196202143Y-77950500D01*
X196259412Y-77950500D01*
X196260748Y-77950313D01*
X196261633Y-77950193D01*
X196262874Y-77950029D01*
X196262968Y-77950003D01*
X196318073Y-77934755D01*
X196318541Y-77934627D01*
X196373886Y-77919799D01*
X196373892Y-77919795D01*
X196373987Y-77919770D01*
X196375144Y-77919281D01*
X196375948Y-77918944D01*
X196377199Y-77918425D01*
X196377286Y-77918373D01*
X196377292Y-77918372D01*
X196426722Y-77889294D01*
X196427101Y-77889074D01*
X196476613Y-77860489D01*
X196476612Y-77860489D01*
X196478827Y-77859211D01*
X196485408Y-77854773D01*
X198714768Y-76543385D01*
X198755798Y-76529271D01*
X198887183Y-76511974D01*
X199015018Y-76459024D01*
X199124791Y-76374791D01*
X199209024Y-76265018D01*
X199261974Y-76137183D01*
X199280035Y-76000000D01*
X199270134Y-75924795D01*
X199261975Y-75862821D01*
X199261974Y-75862817D01*
X199242175Y-75815018D01*
X199221693Y-75765570D01*
X199216409Y-75698416D01*
X199251607Y-75640977D01*
X199308167Y-75615794D01*
X199337183Y-75611974D01*
X199465018Y-75559024D01*
X199574791Y-75474791D01*
X199659024Y-75365018D01*
X199711974Y-75237183D01*
X199716733Y-75201040D01*
X199730035Y-75100002D01*
X199730035Y-75099997D01*
X199711975Y-74962821D01*
X199711973Y-74962814D01*
X199661933Y-74842007D01*
X199659024Y-74834983D01*
X199659023Y-74834982D01*
X199659023Y-74834981D01*
X199574795Y-74725214D01*
X199574794Y-74725213D01*
X199574791Y-74725209D01*
X199574786Y-74725205D01*
X199574785Y-74725204D01*
X199465018Y-74640976D01*
X199465014Y-74640974D01*
X199337185Y-74588026D01*
X199337178Y-74588024D01*
X199200003Y-74569965D01*
X199199997Y-74569965D01*
X199062821Y-74588024D01*
X199062814Y-74588026D01*
X198934981Y-74640976D01*
X198825214Y-74725204D01*
X198825204Y-74725214D01*
X198740976Y-74834981D01*
X198688026Y-74962814D01*
X198688024Y-74962821D01*
X198669965Y-75099997D01*
X198669965Y-75100002D01*
X198688024Y-75237178D01*
X198688026Y-75237185D01*
X198728304Y-75334426D01*
X198733589Y-75401585D01*
X198698390Y-75459023D01*
X198641831Y-75484205D01*
X198612821Y-75488025D01*
X198612814Y-75488026D01*
X198484981Y-75540976D01*
X198375214Y-75625204D01*
X198375204Y-75625214D01*
X198286627Y-75740650D01*
X198284590Y-75739086D01*
X198255397Y-75768280D01*
X196102907Y-77034451D01*
X196047642Y-77049500D01*
X188665689Y-77049500D01*
X188551119Y-77080199D01*
X188551116Y-77080201D01*
X188507698Y-77105268D01*
X188507696Y-77105268D01*
X188448389Y-77139510D01*
X187398723Y-78189174D01*
X187363361Y-78212802D01*
X187234980Y-78265979D01*
X187125214Y-78350206D01*
X187125204Y-78350216D01*
X187040976Y-78459983D01*
X186988026Y-78587816D01*
X186988024Y-78587823D01*
X186969965Y-78724999D01*
X186969965Y-78725004D01*
X181513203Y-78725004D01*
X181530035Y-78597153D01*
X181530035Y-78597148D01*
X181511975Y-78459972D01*
X181511973Y-78459965D01*
X181466512Y-78350211D01*
X181459024Y-78332134D01*
X181459023Y-78332133D01*
X181459023Y-78332132D01*
X181374795Y-78222365D01*
X181374794Y-78222364D01*
X181374791Y-78222360D01*
X181374786Y-78222356D01*
X181374785Y-78222355D01*
X181265018Y-78138127D01*
X181265014Y-78138125D01*
X181137185Y-78085177D01*
X181137178Y-78085175D01*
X181000003Y-78067116D01*
X180999997Y-78067116D01*
X180862821Y-78085175D01*
X180862814Y-78085177D01*
X180734981Y-78138127D01*
X180625214Y-78222355D01*
X180625204Y-78222365D01*
X180540976Y-78332132D01*
X180488026Y-78459965D01*
X180488024Y-78459972D01*
X180469965Y-78597148D01*
X180469965Y-78597153D01*
X180000000Y-78597153D01*
X180000000Y-72800002D01*
X180444965Y-72800002D01*
X180463024Y-72937178D01*
X180463026Y-72937185D01*
X180516203Y-73065566D01*
X180524500Y-73107278D01*
X180524500Y-73284310D01*
X180539684Y-73340975D01*
X180539684Y-73340976D01*
X180555201Y-73398887D01*
X180555200Y-73398887D01*
X180606563Y-73487848D01*
X180614511Y-73501614D01*
X183673386Y-76560489D01*
X183732696Y-76594731D01*
X183754405Y-76607265D01*
X183776113Y-76619799D01*
X183890687Y-76650499D01*
X183890691Y-76650500D01*
X192224719Y-76650500D01*
X192234555Y-76650945D01*
X192268417Y-76654013D01*
X192268417Y-76654012D01*
X192268418Y-76654013D01*
X192275539Y-76652779D01*
X192279479Y-76652098D01*
X192298075Y-76650500D01*
X192309308Y-76650500D01*
X192309309Y-76650500D01*
X192342190Y-76641688D01*
X192351771Y-76639580D01*
X192385298Y-76633776D01*
X192395490Y-76629061D01*
X192413030Y-76622707D01*
X192423886Y-76619799D01*
X192453366Y-76602776D01*
X192462062Y-76598267D01*
X192492958Y-76583978D01*
X192501583Y-76576784D01*
X192516888Y-76566102D01*
X192526613Y-76560489D01*
X192550671Y-76536430D01*
X192557917Y-76529810D01*
X192584060Y-76508012D01*
X192590529Y-76498832D01*
X192602549Y-76484552D01*
X192610489Y-76476613D01*
X192627509Y-76447131D01*
X192632787Y-76438876D01*
X193259282Y-75550002D01*
X193769965Y-75550002D01*
X193788024Y-75687178D01*
X193788026Y-75687185D01*
X193840974Y-75815014D01*
X193840976Y-75815018D01*
X193925209Y-75924791D01*
X194034982Y-76009024D01*
X194098899Y-76035499D01*
X194162814Y-76061973D01*
X194162821Y-76061975D01*
X194299997Y-76080035D01*
X194300000Y-76080035D01*
X194300003Y-76080035D01*
X194437178Y-76061975D01*
X194437180Y-76061974D01*
X194437183Y-76061974D01*
X194565018Y-76009024D01*
X194674791Y-75924791D01*
X194759024Y-75815018D01*
X194811974Y-75687183D01*
X194818058Y-75640977D01*
X194830035Y-75550002D01*
X194830035Y-75549997D01*
X194811975Y-75412821D01*
X194811973Y-75412814D01*
X194759023Y-75284981D01*
X194674795Y-75175214D01*
X194674794Y-75175213D01*
X194674791Y-75175209D01*
X194674786Y-75175205D01*
X194674785Y-75175204D01*
X194565018Y-75090976D01*
X194565014Y-75090974D01*
X194437185Y-75038026D01*
X194437178Y-75038024D01*
X194300003Y-75019965D01*
X194299997Y-75019965D01*
X194162821Y-75038024D01*
X194162814Y-75038026D01*
X194034981Y-75090976D01*
X193925214Y-75175204D01*
X193925204Y-75175214D01*
X193840976Y-75284981D01*
X193788026Y-75412814D01*
X193788024Y-75412821D01*
X193769965Y-75549997D01*
X193769965Y-75550002D01*
X193259282Y-75550002D01*
X198294007Y-68406717D01*
X198341391Y-68368810D01*
X198365016Y-68359025D01*
X198365016Y-68359024D01*
X198365018Y-68359024D01*
X198474791Y-68274791D01*
X198559024Y-68165018D01*
X198611974Y-68037183D01*
X198613551Y-68025209D01*
X198630035Y-67900002D01*
X198630035Y-67899997D01*
X198611975Y-67762821D01*
X198611973Y-67762814D01*
X198559023Y-67634981D01*
X198474795Y-67525214D01*
X198474794Y-67525213D01*
X198474791Y-67525209D01*
X198474786Y-67525205D01*
X198474785Y-67525204D01*
X198391732Y-67461475D01*
X198353576Y-67405957D01*
X198355339Y-67338615D01*
X198391732Y-67288525D01*
X198474791Y-67224791D01*
X198559024Y-67115018D01*
X198611974Y-66987183D01*
X198630035Y-66850000D01*
X198622330Y-66791474D01*
X198611975Y-66712821D01*
X198611973Y-66712814D01*
X198565914Y-66601618D01*
X198559024Y-66584983D01*
X198559023Y-66584982D01*
X198559023Y-66584981D01*
X198474795Y-66475214D01*
X198474794Y-66475213D01*
X198474791Y-66475209D01*
X198474786Y-66475205D01*
X198474785Y-66475204D01*
X198365018Y-66390976D01*
X198365014Y-66390974D01*
X198237185Y-66338026D01*
X198237178Y-66338024D01*
X198100003Y-66319965D01*
X198099997Y-66319965D01*
X197962821Y-66338024D01*
X197962814Y-66338026D01*
X197834981Y-66390976D01*
X197725214Y-66475204D01*
X197725204Y-66475214D01*
X197640976Y-66584981D01*
X197588026Y-66712814D01*
X197588024Y-66712821D01*
X197569965Y-66849997D01*
X197569965Y-66850002D01*
X197588024Y-66987178D01*
X197588026Y-66987185D01*
X197640974Y-67115014D01*
X197640976Y-67115018D01*
X197716116Y-67212942D01*
X197725209Y-67224791D01*
X197808267Y-67288525D01*
X197846423Y-67344041D01*
X197844660Y-67411384D01*
X197808268Y-67461474D01*
X197725211Y-67525207D01*
X197725204Y-67525214D01*
X197640976Y-67634981D01*
X197588026Y-67762814D01*
X197588024Y-67762821D01*
X197578319Y-67836534D01*
X197559346Y-67885100D01*
X192048934Y-75703295D01*
X191995009Y-75743671D01*
X191959840Y-75749500D01*
X191731171Y-75749500D01*
X191667102Y-75728683D01*
X191627506Y-75674183D01*
X191623103Y-75626273D01*
X191623103Y-75626272D01*
X191629759Y-75575719D01*
X191616471Y-75474791D01*
X191611699Y-75438540D01*
X191611697Y-75438533D01*
X191558747Y-75310700D01*
X191474519Y-75200933D01*
X191474518Y-75200932D01*
X191474515Y-75200928D01*
X191474510Y-75200924D01*
X191474509Y-75200923D01*
X191364742Y-75116695D01*
X191364738Y-75116693D01*
X191236909Y-75063745D01*
X191236902Y-75063743D01*
X191099727Y-75045684D01*
X191099721Y-75045684D01*
X190962545Y-75063743D01*
X190962538Y-75063745D01*
X190834705Y-75116695D01*
X190724938Y-75200923D01*
X190724931Y-75200930D01*
X190687051Y-75250296D01*
X190631532Y-75288452D01*
X190564190Y-75286687D01*
X190514101Y-75250295D01*
X190476306Y-75201040D01*
X190476305Y-75201039D01*
X190476302Y-75201035D01*
X190476297Y-75201031D01*
X190476296Y-75201030D01*
X190366529Y-75116802D01*
X190366525Y-75116800D01*
X190238696Y-75063852D01*
X190238691Y-75063851D01*
X190226220Y-75062209D01*
X190165418Y-75033205D01*
X190133276Y-74974001D01*
X190142072Y-74907212D01*
X190156401Y-74884742D01*
X194363217Y-69790540D01*
X194370159Y-69782903D01*
X194391801Y-69761263D01*
X194397482Y-69751420D01*
X194407839Y-69736507D01*
X194408994Y-69735107D01*
X194415076Y-69727744D01*
X194427783Y-69699925D01*
X194432530Y-69690717D01*
X194447819Y-69664237D01*
X194450762Y-69653250D01*
X194456898Y-69636184D01*
X194461626Y-69625836D01*
X194466703Y-69595650D01*
X194468899Y-69585560D01*
X194476816Y-69556018D01*
X194476816Y-69544648D01*
X194478327Y-69526561D01*
X194480213Y-69515351D01*
X194477309Y-69484916D01*
X194476816Y-69474562D01*
X194476816Y-64375257D01*
X194497633Y-64311188D01*
X194527097Y-64289781D01*
X194514448Y-64288116D01*
X194499775Y-64274192D01*
X194623078Y-64274192D01*
X194673999Y-64311188D01*
X194686519Y-64333545D01*
X194740974Y-64465014D01*
X194740976Y-64465018D01*
X194808056Y-64552438D01*
X194825209Y-64574791D01*
X194934982Y-64659024D01*
X194973031Y-64674784D01*
X195062814Y-64711973D01*
X195062821Y-64711975D01*
X195199997Y-64730035D01*
X195200000Y-64730035D01*
X195200003Y-64730035D01*
X195337178Y-64711975D01*
X195337180Y-64711974D01*
X195337183Y-64711974D01*
X195465018Y-64659024D01*
X195574791Y-64574791D01*
X195659024Y-64465018D01*
X195711974Y-64337183D01*
X195715397Y-64311188D01*
X195730035Y-64200002D01*
X195730035Y-64199997D01*
X195711975Y-64062821D01*
X195711973Y-64062814D01*
X195678155Y-63981170D01*
X195659024Y-63934983D01*
X195659023Y-63934982D01*
X195659023Y-63934981D01*
X195574795Y-63825214D01*
X195574794Y-63825213D01*
X195574791Y-63825209D01*
X195574786Y-63825205D01*
X195574785Y-63825204D01*
X195465018Y-63740976D01*
X195465014Y-63740974D01*
X195337185Y-63688026D01*
X195337178Y-63688024D01*
X195200003Y-63669965D01*
X195199997Y-63669965D01*
X195062821Y-63688024D01*
X195062814Y-63688026D01*
X194934981Y-63740976D01*
X194825214Y-63825204D01*
X194825204Y-63825214D01*
X194740976Y-63934981D01*
X194688026Y-64062814D01*
X194688024Y-64062822D01*
X194669442Y-64203963D01*
X194640440Y-64264766D01*
X194623078Y-64274192D01*
X194499775Y-64274192D01*
X194465583Y-64241744D01*
X194456091Y-64217952D01*
X194447819Y-64187079D01*
X194433417Y-64162134D01*
X194419748Y-64121868D01*
X194411974Y-64062817D01*
X194410521Y-64059310D01*
X194378155Y-63981170D01*
X194359024Y-63934983D01*
X194359023Y-63934982D01*
X194359023Y-63934981D01*
X194274795Y-63825214D01*
X194274794Y-63825213D01*
X194274791Y-63825209D01*
X194274786Y-63825205D01*
X194274785Y-63825204D01*
X194165018Y-63740976D01*
X194165014Y-63740974D01*
X194037185Y-63688026D01*
X194037178Y-63688024D01*
X193900003Y-63669965D01*
X193899997Y-63669965D01*
X193762821Y-63688024D01*
X193762814Y-63688026D01*
X193634981Y-63740976D01*
X193525207Y-63825209D01*
X193521402Y-63829015D01*
X193461377Y-63859595D01*
X193394842Y-63849053D01*
X193357857Y-63818291D01*
X193350834Y-63809139D01*
X193281378Y-63718622D01*
X193281373Y-63718618D01*
X193281372Y-63718617D01*
X193171605Y-63634389D01*
X193171601Y-63634387D01*
X193043772Y-63581439D01*
X193043765Y-63581437D01*
X192906590Y-63563378D01*
X192906584Y-63563378D01*
X192769408Y-63581437D01*
X192769401Y-63581439D01*
X192641568Y-63634389D01*
X192531801Y-63718617D01*
X192531791Y-63718627D01*
X192525606Y-63726688D01*
X192470087Y-63764843D01*
X192402744Y-63763077D01*
X192352658Y-63726686D01*
X192281835Y-63634389D01*
X192274791Y-63625209D01*
X192274786Y-63625205D01*
X192274785Y-63625204D01*
X192165018Y-63540976D01*
X192165014Y-63540974D01*
X192037185Y-63488026D01*
X192037178Y-63488024D01*
X191900003Y-63469965D01*
X191899997Y-63469965D01*
X191762821Y-63488024D01*
X191762814Y-63488026D01*
X191634981Y-63540976D01*
X191525214Y-63625204D01*
X191525204Y-63625214D01*
X191440976Y-63734981D01*
X191388026Y-63862814D01*
X191388024Y-63862821D01*
X191369965Y-63999997D01*
X191369965Y-64000002D01*
X191388024Y-64137178D01*
X191388026Y-64137185D01*
X191440974Y-64265014D01*
X191440976Y-64265018D01*
X191517110Y-64364237D01*
X191525209Y-64374791D01*
X191634982Y-64459024D01*
X191691058Y-64482251D01*
X191762814Y-64511973D01*
X191762821Y-64511975D01*
X191899997Y-64530035D01*
X191900000Y-64530035D01*
X191900003Y-64530035D01*
X192037178Y-64511975D01*
X192037180Y-64511974D01*
X192037183Y-64511974D01*
X192165018Y-64459024D01*
X192274791Y-64374791D01*
X192280979Y-64366727D01*
X192336497Y-64328571D01*
X192403839Y-64330334D01*
X192453929Y-64366727D01*
X192528881Y-64464406D01*
X192531796Y-64468204D01*
X192641569Y-64552437D01*
X192678237Y-64567625D01*
X192769401Y-64605386D01*
X192769408Y-64605388D01*
X192906584Y-64623448D01*
X192906587Y-64623448D01*
X192906590Y-64623448D01*
X193043765Y-64605388D01*
X193043767Y-64605387D01*
X193043770Y-64605387D01*
X193171605Y-64552437D01*
X193281378Y-64468204D01*
X193281384Y-64468195D01*
X193285175Y-64464406D01*
X193345197Y-64433819D01*
X193411733Y-64444353D01*
X193448727Y-64475119D01*
X193525209Y-64574791D01*
X193583172Y-64619268D01*
X193621327Y-64674784D01*
X193625816Y-64705742D01*
X193625816Y-66112065D01*
X193604999Y-66176134D01*
X193550499Y-66215730D01*
X193508460Y-66219593D01*
X193508460Y-66219965D01*
X193504418Y-66219965D01*
X193502591Y-66220132D01*
X193501316Y-66219965D01*
X193501314Y-66219965D01*
X193501313Y-66219965D01*
X193364137Y-66238024D01*
X193364130Y-66238026D01*
X193236297Y-66290976D01*
X193126530Y-66375204D01*
X193126520Y-66375214D01*
X193042292Y-66484981D01*
X192989117Y-66613359D01*
X192965489Y-66648721D01*
X192439513Y-67174699D01*
X192439511Y-67174702D01*
X192380201Y-67277426D01*
X192380202Y-67277426D01*
X192380201Y-67277427D01*
X192380201Y-67277429D01*
X192380201Y-67277430D01*
X192377228Y-67288525D01*
X192349500Y-67392005D01*
X192349500Y-68918246D01*
X192328683Y-68982315D01*
X192317574Y-68995321D01*
X192121463Y-69191431D01*
X192061440Y-69222014D01*
X191994904Y-69211476D01*
X191947269Y-69163841D01*
X191943686Y-69156069D01*
X191939847Y-69146802D01*
X191934024Y-69132743D01*
X191925652Y-69121833D01*
X191849795Y-69022974D01*
X191849794Y-69022973D01*
X191849791Y-69022969D01*
X191849786Y-69022965D01*
X191849785Y-69022964D01*
X191740018Y-68938736D01*
X191740014Y-68938734D01*
X191612185Y-68885786D01*
X191612178Y-68885784D01*
X191475003Y-68867725D01*
X191474997Y-68867725D01*
X191337821Y-68885784D01*
X191337814Y-68885786D01*
X191209981Y-68938736D01*
X191100214Y-69022964D01*
X191100204Y-69022974D01*
X191015976Y-69132741D01*
X190963026Y-69260574D01*
X190963024Y-69260581D01*
X190944965Y-69397757D01*
X190944965Y-69397762D01*
X190963024Y-69534938D01*
X190963026Y-69534945D01*
X191015974Y-69662774D01*
X191015974Y-69662775D01*
X191015975Y-69662777D01*
X191015976Y-69662778D01*
X191024699Y-69674145D01*
X191047187Y-69737644D01*
X191028055Y-69802236D01*
X190974611Y-69843247D01*
X190938224Y-69849500D01*
X190240691Y-69849500D01*
X190150326Y-69873713D01*
X190126114Y-69880200D01*
X190126112Y-69880201D01*
X190023387Y-69939510D01*
X185267703Y-74695194D01*
X185207679Y-74725777D01*
X185190628Y-74727119D01*
X184267302Y-74727119D01*
X184203233Y-74706302D01*
X184163637Y-74651802D01*
X184163637Y-74584436D01*
X184180824Y-74551767D01*
X184209024Y-74515018D01*
X184261974Y-74387183D01*
X184263207Y-74377812D01*
X184292206Y-74317009D01*
X184351407Y-74284863D01*
X184412987Y-74291334D01*
X184462814Y-74311973D01*
X184462821Y-74311975D01*
X184599997Y-74330035D01*
X184600000Y-74330035D01*
X184600003Y-74330035D01*
X184737178Y-74311975D01*
X184737180Y-74311974D01*
X184737183Y-74311974D01*
X184865018Y-74259024D01*
X184974791Y-74174791D01*
X185059024Y-74065018D01*
X185111974Y-73937183D01*
X185115723Y-73908713D01*
X185130035Y-73800002D01*
X185130035Y-73799998D01*
X185127948Y-73784148D01*
X185137884Y-73722471D01*
X185322343Y-73340976D01*
X187196676Y-69464514D01*
X187200379Y-69457519D01*
X187219799Y-69423886D01*
X187221452Y-69417715D01*
X187228607Y-69398474D01*
X187231396Y-69392709D01*
X187238676Y-69354556D01*
X187240451Y-69346807D01*
X187250500Y-69309309D01*
X187250500Y-69302912D01*
X187252432Y-69282479D01*
X187253632Y-69276192D01*
X187252486Y-69260577D01*
X187250792Y-69237480D01*
X187250500Y-69229504D01*
X187250500Y-68861761D01*
X187271317Y-68797692D01*
X187325817Y-68758096D01*
X187393183Y-68758096D01*
X187425849Y-68775282D01*
X187534982Y-68859024D01*
X187598899Y-68885499D01*
X187662814Y-68911973D01*
X187662821Y-68911975D01*
X187799997Y-68930035D01*
X187800000Y-68930035D01*
X187800003Y-68930035D01*
X187937178Y-68911975D01*
X187937180Y-68911974D01*
X187937183Y-68911974D01*
X188065018Y-68859024D01*
X188174791Y-68774791D01*
X188259024Y-68665018D01*
X188296516Y-68574500D01*
X188320138Y-68539145D01*
X188528556Y-68330727D01*
X188588578Y-68300146D01*
X188655114Y-68310684D01*
X188687569Y-68337677D01*
X188687832Y-68337415D01*
X188690696Y-68340278D01*
X188692106Y-68341452D01*
X188692887Y-68342469D01*
X188802660Y-68426702D01*
X188866577Y-68453177D01*
X188930492Y-68479651D01*
X188930499Y-68479653D01*
X189067675Y-68497713D01*
X189067678Y-68497713D01*
X189067681Y-68497713D01*
X189204856Y-68479653D01*
X189204858Y-68479652D01*
X189204861Y-68479652D01*
X189332696Y-68426702D01*
X189442469Y-68342469D01*
X189526702Y-68232696D01*
X189579652Y-68104861D01*
X189587244Y-68047201D01*
X189597713Y-67967680D01*
X189597713Y-67967675D01*
X189579653Y-67830499D01*
X189579651Y-67830492D01*
X189567022Y-67800002D01*
X190469965Y-67800002D01*
X190488024Y-67937178D01*
X190488026Y-67937185D01*
X190540974Y-68065014D01*
X190540976Y-68065018D01*
X190623020Y-68171939D01*
X190625209Y-68174791D01*
X190734982Y-68259024D01*
X190773033Y-68274785D01*
X190862814Y-68311973D01*
X190862821Y-68311975D01*
X190999997Y-68330035D01*
X191000000Y-68330035D01*
X191000003Y-68330035D01*
X191137178Y-68311975D01*
X191137180Y-68311974D01*
X191137183Y-68311974D01*
X191265018Y-68259024D01*
X191374791Y-68174791D01*
X191459024Y-68065018D01*
X191511974Y-67937183D01*
X191513432Y-67926113D01*
X191530035Y-67800002D01*
X191530035Y-67799997D01*
X191511975Y-67662821D01*
X191511973Y-67662814D01*
X191459023Y-67534981D01*
X191453856Y-67528247D01*
X191431367Y-67464746D01*
X191450499Y-67400154D01*
X191469758Y-67379861D01*
X191469739Y-67379842D01*
X191470481Y-67379099D01*
X191473980Y-67375413D01*
X191474791Y-67374791D01*
X191559024Y-67265018D01*
X191611974Y-67137183D01*
X191630035Y-67000000D01*
X191611974Y-66862817D01*
X191559024Y-66734983D01*
X191559023Y-66734982D01*
X191559023Y-66734981D01*
X191474795Y-66625214D01*
X191474794Y-66625213D01*
X191474791Y-66625209D01*
X191474786Y-66625205D01*
X191474785Y-66625204D01*
X191365018Y-66540976D01*
X191365014Y-66540974D01*
X191237185Y-66488026D01*
X191237178Y-66488024D01*
X191100003Y-66469965D01*
X191099997Y-66469965D01*
X190962821Y-66488024D01*
X190962814Y-66488026D01*
X190834981Y-66540976D01*
X190725214Y-66625204D01*
X190725204Y-66625214D01*
X190640976Y-66734981D01*
X190588026Y-66862814D01*
X190588024Y-66862821D01*
X190569965Y-66999997D01*
X190569965Y-67000002D01*
X190588024Y-67137178D01*
X190588026Y-67137185D01*
X190640976Y-67265019D01*
X190646144Y-67271754D01*
X190668631Y-67335256D01*
X190649497Y-67399847D01*
X190630242Y-67420139D01*
X190630261Y-67420158D01*
X190629557Y-67420861D01*
X190626033Y-67424576D01*
X190625215Y-67425203D01*
X190625204Y-67425214D01*
X190540976Y-67534981D01*
X190488026Y-67662814D01*
X190488024Y-67662821D01*
X190469965Y-67799997D01*
X190469965Y-67800002D01*
X189567022Y-67800002D01*
X189526701Y-67702659D01*
X189442471Y-67592889D01*
X189442469Y-67592888D01*
X189442469Y-67592887D01*
X189441452Y-67592107D01*
X189440931Y-67591348D01*
X189437415Y-67587832D01*
X189438066Y-67587180D01*
X189403295Y-67536593D01*
X189405054Y-67469250D01*
X189430727Y-67428556D01*
X190339145Y-66520138D01*
X190374500Y-66496516D01*
X190465018Y-66459024D01*
X190574791Y-66374791D01*
X190659024Y-66265018D01*
X190711974Y-66137183D01*
X190730035Y-66000000D01*
X190730035Y-65999997D01*
X190711975Y-65862821D01*
X190711973Y-65862814D01*
X190659023Y-65734981D01*
X190574795Y-65625214D01*
X190574794Y-65625213D01*
X190574791Y-65625209D01*
X190574786Y-65625205D01*
X190574785Y-65625204D01*
X190465018Y-65540976D01*
X190465014Y-65540974D01*
X190337185Y-65488026D01*
X190337178Y-65488024D01*
X190200003Y-65469965D01*
X190199997Y-65469965D01*
X190062821Y-65488024D01*
X190062814Y-65488026D01*
X189934981Y-65540976D01*
X189825214Y-65625204D01*
X189825204Y-65625214D01*
X189740976Y-65734981D01*
X189688026Y-65862814D01*
X189688025Y-65862819D01*
X189687664Y-65865564D01*
X189686810Y-65867352D01*
X189686177Y-65869718D01*
X189685738Y-65869600D01*
X189658658Y-65926366D01*
X189656672Y-65928405D01*
X188897491Y-66687586D01*
X188837467Y-66718169D01*
X188770931Y-66707631D01*
X188733941Y-66676867D01*
X188724469Y-66664523D01*
X188676200Y-66601618D01*
X188569469Y-66519719D01*
X188531313Y-66464201D01*
X188533077Y-66396858D01*
X188558751Y-66356169D01*
X189357498Y-65557425D01*
X189417521Y-65526842D01*
X189434572Y-65525500D01*
X189484308Y-65525500D01*
X189484309Y-65525500D01*
X189574673Y-65501286D01*
X189598887Y-65494799D01*
X189701614Y-65435489D01*
X190860490Y-64276614D01*
X190919799Y-64173886D01*
X190923044Y-64161774D01*
X190950500Y-64059309D01*
X190950500Y-63507278D01*
X190958797Y-63465566D01*
X190987245Y-63396886D01*
X191011974Y-63337183D01*
X191014300Y-63319521D01*
X191030035Y-63200002D01*
X191030035Y-63199997D01*
X191012783Y-63068961D01*
X196625396Y-63068961D01*
X196645899Y-63237827D01*
X196645900Y-63237830D01*
X196706221Y-63396886D01*
X196706225Y-63396893D01*
X196802856Y-63536886D01*
X196802857Y-63536887D01*
X196802858Y-63536888D01*
X196930189Y-63649693D01*
X196964561Y-63667733D01*
X196987080Y-63679552D01*
X197034135Y-63727759D01*
X197043868Y-63794418D01*
X197012561Y-63854067D01*
X197002780Y-63862541D01*
X196957381Y-63897377D01*
X196957374Y-63897384D01*
X196869139Y-64012373D01*
X196813670Y-64146288D01*
X196813668Y-64146295D01*
X196794750Y-64289997D01*
X196794750Y-64290002D01*
X196813668Y-64433704D01*
X196813670Y-64433711D01*
X196869139Y-64567626D01*
X196939272Y-64659024D01*
X196957379Y-64682621D01*
X196957383Y-64682624D01*
X196957384Y-64682625D01*
X197072373Y-64770860D01*
X197206288Y-64826329D01*
X197206295Y-64826331D01*
X197349997Y-64845250D01*
X197350000Y-64845250D01*
X197350003Y-64845250D01*
X197493704Y-64826331D01*
X197493706Y-64826330D01*
X197493709Y-64826330D01*
X197627625Y-64770861D01*
X197742621Y-64682621D01*
X197830861Y-64567625D01*
X197886330Y-64433709D01*
X197889358Y-64410714D01*
X197905250Y-64290002D01*
X197905250Y-64289997D01*
X197886331Y-64146295D01*
X197886329Y-64146288D01*
X197830860Y-64012373D01*
X197742625Y-63897384D01*
X197742624Y-63897383D01*
X197742621Y-63897379D01*
X197681817Y-63850722D01*
X197643662Y-63795205D01*
X197645426Y-63727862D01*
X197686436Y-63674418D01*
X197697505Y-63667741D01*
X197731893Y-63649693D01*
X197859224Y-63536888D01*
X197955859Y-63396889D01*
X198016181Y-63237831D01*
X198016181Y-63237829D01*
X198016182Y-63237827D01*
X198036686Y-63068961D01*
X198036686Y-63068956D01*
X198016182Y-62900090D01*
X198016181Y-62900087D01*
X197955860Y-62741031D01*
X197955856Y-62741024D01*
X197859225Y-62601031D01*
X197859224Y-62601030D01*
X197826529Y-62572065D01*
X197731893Y-62488225D01*
X197731891Y-62488224D01*
X197731890Y-62488223D01*
X197581267Y-62409169D01*
X197416098Y-62368459D01*
X197416097Y-62368459D01*
X197245985Y-62368459D01*
X197245983Y-62368459D01*
X197080814Y-62409169D01*
X196930191Y-62488223D01*
X196930184Y-62488229D01*
X196802857Y-62601030D01*
X196802856Y-62601031D01*
X196706225Y-62741024D01*
X196706221Y-62741031D01*
X196645900Y-62900087D01*
X196645899Y-62900090D01*
X196625396Y-63068956D01*
X196625396Y-63068961D01*
X191012783Y-63068961D01*
X191011975Y-63062821D01*
X191011973Y-63062814D01*
X190959023Y-62934981D01*
X190874795Y-62825214D01*
X190874794Y-62825213D01*
X190874791Y-62825209D01*
X190874786Y-62825205D01*
X190874785Y-62825204D01*
X190765018Y-62740976D01*
X190765014Y-62740974D01*
X190654884Y-62695358D01*
X190603659Y-62651608D01*
X190587932Y-62586104D01*
X190613711Y-62523866D01*
X190619508Y-62517593D01*
X193237100Y-59900002D01*
X197944750Y-59900002D01*
X197963668Y-60043704D01*
X197963670Y-60043711D01*
X198019139Y-60177626D01*
X198107374Y-60292615D01*
X198107379Y-60292621D01*
X198107383Y-60292624D01*
X198107384Y-60292625D01*
X198222373Y-60380860D01*
X198356288Y-60436329D01*
X198356295Y-60436331D01*
X198499997Y-60455250D01*
X198500000Y-60455250D01*
X198500003Y-60455250D01*
X198643704Y-60436331D01*
X198643706Y-60436330D01*
X198643709Y-60436330D01*
X198777625Y-60380861D01*
X198892621Y-60292621D01*
X198980861Y-60177625D01*
X199036330Y-60043709D01*
X199049539Y-59943376D01*
X199078540Y-59882576D01*
X199137742Y-59850431D01*
X199143343Y-59849543D01*
X199243709Y-59836330D01*
X199377625Y-59780861D01*
X199492621Y-59692621D01*
X199580861Y-59577625D01*
X199636330Y-59443709D01*
X199638767Y-59425204D01*
X199655250Y-59300002D01*
X199655250Y-59299997D01*
X199636331Y-59156295D01*
X199636329Y-59156288D01*
X199580860Y-59022373D01*
X199492625Y-58907384D01*
X199492624Y-58907383D01*
X199492621Y-58907379D01*
X199492616Y-58907375D01*
X199492615Y-58907374D01*
X199377627Y-58819140D01*
X199272604Y-58775638D01*
X199221379Y-58731887D01*
X199205653Y-58666383D01*
X199210955Y-58644305D01*
X199210125Y-58644083D01*
X199211975Y-58637178D01*
X199230035Y-58500002D01*
X199230035Y-58499997D01*
X199211975Y-58362821D01*
X199211973Y-58362814D01*
X199159024Y-58234983D01*
X199135796Y-58204712D01*
X199086669Y-58140689D01*
X199064182Y-58077189D01*
X199072442Y-58032623D01*
X199111973Y-57937185D01*
X199111975Y-57937178D01*
X199130035Y-57800002D01*
X199130035Y-57799997D01*
X199111975Y-57662821D01*
X199111973Y-57662814D01*
X199059023Y-57534981D01*
X198991088Y-57446447D01*
X198968600Y-57382946D01*
X198987733Y-57318354D01*
X199035852Y-57279389D01*
X199054118Y-57271823D01*
X199085018Y-57259024D01*
X199194791Y-57174791D01*
X199279024Y-57065018D01*
X199331974Y-56937183D01*
X199350035Y-56800000D01*
X199350035Y-56799997D01*
X199331975Y-56662821D01*
X199331973Y-56662814D01*
X199279023Y-56534981D01*
X199194795Y-56425214D01*
X199194794Y-56425213D01*
X199194791Y-56425209D01*
X199194786Y-56425205D01*
X199194785Y-56425204D01*
X199085018Y-56340976D01*
X199085014Y-56340974D01*
X198957185Y-56288026D01*
X198957178Y-56288024D01*
X198820003Y-56269965D01*
X198819997Y-56269965D01*
X198682821Y-56288024D01*
X198682814Y-56288026D01*
X198554981Y-56340976D01*
X198445214Y-56425204D01*
X198445204Y-56425214D01*
X198360976Y-56534981D01*
X198308026Y-56662814D01*
X198308024Y-56662821D01*
X198289965Y-56799997D01*
X198289965Y-56800002D01*
X198308024Y-56937178D01*
X198308026Y-56937185D01*
X198360974Y-57065014D01*
X198360976Y-57065018D01*
X198428911Y-57153552D01*
X198451399Y-57217054D01*
X198432266Y-57281645D01*
X198384150Y-57320609D01*
X198334982Y-57340975D01*
X198225214Y-57425204D01*
X198225204Y-57425214D01*
X198140976Y-57534981D01*
X198088026Y-57662814D01*
X198088024Y-57662821D01*
X198069965Y-57799997D01*
X198069965Y-57800002D01*
X198088024Y-57937178D01*
X198088026Y-57937185D01*
X198140974Y-58065014D01*
X198140976Y-58065018D01*
X198213330Y-58159311D01*
X198235818Y-58222811D01*
X198227558Y-58267377D01*
X198188026Y-58362814D01*
X198188024Y-58362821D01*
X198169965Y-58499997D01*
X198169965Y-58500002D01*
X198188024Y-58637178D01*
X198188026Y-58637185D01*
X198240974Y-58765014D01*
X198240976Y-58765018D01*
X198325209Y-58874791D01*
X198434982Y-58959024D01*
X198477939Y-58976817D01*
X198513865Y-58991698D01*
X198565090Y-59035448D01*
X198580817Y-59100952D01*
X198572856Y-59134113D01*
X198563670Y-59156288D01*
X198563668Y-59156296D01*
X198550460Y-59256621D01*
X198521458Y-59317424D01*
X198462256Y-59349568D01*
X198456621Y-59350460D01*
X198356296Y-59363668D01*
X198356288Y-59363670D01*
X198222373Y-59419139D01*
X198107384Y-59507374D01*
X198107374Y-59507384D01*
X198019139Y-59622373D01*
X197963670Y-59756288D01*
X197963668Y-59756295D01*
X197944750Y-59899997D01*
X197944750Y-59900002D01*
X193237100Y-59900002D01*
X195560489Y-57576614D01*
X195619798Y-57473887D01*
X195619799Y-57473886D01*
X195650500Y-57359309D01*
X195650500Y-55407278D01*
X195658797Y-55365566D01*
X195692231Y-55284848D01*
X195711974Y-55237183D01*
X195715182Y-55212821D01*
X195730035Y-55100002D01*
X195730035Y-55099997D01*
X195711975Y-54962821D01*
X195711973Y-54962814D01*
X195678769Y-54882653D01*
X195659024Y-54834983D01*
X195659023Y-54834982D01*
X195659023Y-54834981D01*
X195574795Y-54725214D01*
X195574794Y-54725213D01*
X195574791Y-54725209D01*
X195574786Y-54725205D01*
X195574785Y-54725204D01*
X195465018Y-54640976D01*
X195465014Y-54640974D01*
X195337185Y-54588026D01*
X195337178Y-54588024D01*
X195200003Y-54569965D01*
X195199997Y-54569965D01*
X195062821Y-54588024D01*
X195062814Y-54588026D01*
X194934981Y-54640976D01*
X194825214Y-54725204D01*
X194825204Y-54725214D01*
X194740976Y-54834981D01*
X194688026Y-54962814D01*
X194688024Y-54962821D01*
X194669965Y-55099997D01*
X194669965Y-55100002D01*
X194688024Y-55237178D01*
X194688026Y-55237185D01*
X194741203Y-55365566D01*
X194749500Y-55407278D01*
X194749500Y-57068246D01*
X194728683Y-57132315D01*
X194717575Y-57145321D01*
X188101783Y-63761112D01*
X188041759Y-63791695D01*
X187975223Y-63781157D01*
X187927588Y-63733522D01*
X187916641Y-63698268D01*
X187911974Y-63662817D01*
X187906538Y-63649694D01*
X187861506Y-63540976D01*
X187859024Y-63534983D01*
X187859023Y-63534982D01*
X187859023Y-63534981D01*
X187774795Y-63425214D01*
X187774794Y-63425213D01*
X187774791Y-63425209D01*
X187774786Y-63425205D01*
X187774785Y-63425204D01*
X187665018Y-63340976D01*
X187665014Y-63340974D01*
X187537185Y-63288026D01*
X187537178Y-63288024D01*
X187400003Y-63269965D01*
X187399997Y-63269965D01*
X187262821Y-63288024D01*
X187262814Y-63288026D01*
X187134981Y-63340976D01*
X187025214Y-63425204D01*
X187025204Y-63425214D01*
X186940976Y-63534981D01*
X186888026Y-63662814D01*
X186888024Y-63662821D01*
X186869965Y-63799997D01*
X186869965Y-63800002D01*
X186888024Y-63937178D01*
X186888026Y-63937185D01*
X186940974Y-64065014D01*
X186940976Y-64065018D01*
X187024514Y-64173886D01*
X187025209Y-64174791D01*
X187025213Y-64174794D01*
X187025214Y-64174795D01*
X187058064Y-64200002D01*
X187134982Y-64259024D01*
X187177449Y-64276614D01*
X187262814Y-64311973D01*
X187262817Y-64311974D01*
X187298266Y-64316641D01*
X187359067Y-64345642D01*
X187391212Y-64404844D01*
X187382419Y-64471633D01*
X187361112Y-64501783D01*
X184039510Y-67823387D01*
X183980202Y-67926110D01*
X183980201Y-67926113D01*
X183978322Y-67933126D01*
X183949500Y-68040687D01*
X183949500Y-68192129D01*
X183928683Y-68256198D01*
X183874183Y-68295794D01*
X183806817Y-68295794D01*
X183798791Y-68292833D01*
X183787188Y-68288027D01*
X183787178Y-68288024D01*
X183650003Y-68269965D01*
X183649996Y-68269965D01*
X183573727Y-68280006D01*
X183507490Y-68267730D01*
X183461118Y-68218865D01*
X183450500Y-68171939D01*
X183450500Y-67618580D01*
X183471317Y-67554511D01*
X183482425Y-67541505D01*
X184911865Y-66112065D01*
X186510490Y-64513441D01*
X186569799Y-64410714D01*
X186582252Y-64364237D01*
X186600500Y-64296136D01*
X186600500Y-61581753D01*
X186621317Y-61517684D01*
X186632425Y-61504678D01*
X186737101Y-61400002D01*
X188469965Y-61400002D01*
X188488024Y-61537178D01*
X188488026Y-61537185D01*
X188540974Y-61665014D01*
X188540976Y-61665018D01*
X188625209Y-61774791D01*
X188734982Y-61859024D01*
X188798899Y-61885499D01*
X188862814Y-61911973D01*
X188862821Y-61911975D01*
X188999997Y-61930035D01*
X189000000Y-61930035D01*
X189000003Y-61930035D01*
X189137178Y-61911975D01*
X189137180Y-61911974D01*
X189137183Y-61911974D01*
X189265018Y-61859024D01*
X189374791Y-61774791D01*
X189459024Y-61665018D01*
X189511974Y-61537183D01*
X189512051Y-61536603D01*
X189530035Y-61400002D01*
X189530035Y-61399997D01*
X189511975Y-61262821D01*
X189511973Y-61262814D01*
X189459023Y-61134981D01*
X189374795Y-61025214D01*
X189374794Y-61025213D01*
X189374791Y-61025209D01*
X189374786Y-61025205D01*
X189374785Y-61025204D01*
X189265018Y-60940976D01*
X189265014Y-60940974D01*
X189137185Y-60888026D01*
X189137178Y-60888024D01*
X189000003Y-60869965D01*
X188999997Y-60869965D01*
X188862821Y-60888024D01*
X188862814Y-60888026D01*
X188734981Y-60940976D01*
X188625214Y-61025204D01*
X188625204Y-61025214D01*
X188540976Y-61134981D01*
X188488026Y-61262814D01*
X188488024Y-61262821D01*
X188469965Y-61399997D01*
X188469965Y-61400002D01*
X186737101Y-61400002D01*
X188337101Y-59800002D01*
X189169965Y-59800002D01*
X189188024Y-59937178D01*
X189188026Y-59937185D01*
X189240974Y-60065014D01*
X189240976Y-60065018D01*
X189325209Y-60174791D01*
X189325213Y-60174794D01*
X189325214Y-60174795D01*
X189370484Y-60209532D01*
X189434982Y-60259024D01*
X189498899Y-60285499D01*
X189562814Y-60311973D01*
X189562821Y-60311975D01*
X189699997Y-60330035D01*
X189700000Y-60330035D01*
X189700003Y-60330035D01*
X189837178Y-60311975D01*
X189837180Y-60311974D01*
X189837183Y-60311974D01*
X189965018Y-60259024D01*
X190074791Y-60174791D01*
X190159024Y-60065018D01*
X190211974Y-59937183D01*
X190215898Y-59907384D01*
X190230035Y-59800002D01*
X190230035Y-59799997D01*
X190211975Y-59662821D01*
X190211973Y-59662814D01*
X190159023Y-59534981D01*
X190074795Y-59425214D01*
X190074794Y-59425213D01*
X190074791Y-59425209D01*
X190074786Y-59425205D01*
X190074785Y-59425204D01*
X189965018Y-59340976D01*
X189965014Y-59340974D01*
X189837185Y-59288026D01*
X189837178Y-59288024D01*
X189700003Y-59269965D01*
X189699997Y-59269965D01*
X189562821Y-59288024D01*
X189562814Y-59288026D01*
X189434981Y-59340976D01*
X189325214Y-59425204D01*
X189325204Y-59425214D01*
X189240976Y-59534981D01*
X189188026Y-59662814D01*
X189188024Y-59662821D01*
X189169965Y-59799997D01*
X189169965Y-59800002D01*
X188337101Y-59800002D01*
X189405216Y-58731887D01*
X192335482Y-55801622D01*
X192394791Y-55698895D01*
X192409299Y-55644750D01*
X192425492Y-55584317D01*
X192425492Y-55454948D01*
X192433789Y-55413236D01*
X192486965Y-55284855D01*
X192486967Y-55284848D01*
X192505027Y-55147672D01*
X192505027Y-55147667D01*
X192486967Y-55010491D01*
X192486965Y-55010484D01*
X192437463Y-54890976D01*
X192434016Y-54882653D01*
X192434015Y-54882652D01*
X192434015Y-54882651D01*
X192349787Y-54772884D01*
X192349786Y-54772883D01*
X192349783Y-54772879D01*
X192349778Y-54772875D01*
X192349777Y-54772874D01*
X192240010Y-54688646D01*
X192240006Y-54688644D01*
X192112177Y-54635696D01*
X192112170Y-54635694D01*
X191974995Y-54617635D01*
X191974989Y-54617635D01*
X191837813Y-54635694D01*
X191837806Y-54635696D01*
X191709973Y-54688646D01*
X191600206Y-54772874D01*
X191600199Y-54772881D01*
X191520635Y-54876570D01*
X191465117Y-54914726D01*
X191397774Y-54912962D01*
X191392448Y-54910917D01*
X191337185Y-54888026D01*
X191337178Y-54888024D01*
X191200003Y-54869965D01*
X191199997Y-54869965D01*
X191062821Y-54888024D01*
X191062814Y-54888026D01*
X190934981Y-54940976D01*
X190825214Y-55025204D01*
X190825204Y-55025214D01*
X190740976Y-55134981D01*
X190688026Y-55262814D01*
X190688024Y-55262821D01*
X190669965Y-55399997D01*
X190669965Y-55400002D01*
X190688024Y-55537178D01*
X190688026Y-55537185D01*
X190740974Y-55665014D01*
X190740976Y-55665018D01*
X190825209Y-55774791D01*
X190860175Y-55801622D01*
X190875355Y-55813270D01*
X190913511Y-55868789D01*
X190911746Y-55936131D01*
X190886074Y-55976820D01*
X185789510Y-61073387D01*
X185730201Y-61176110D01*
X185730202Y-61176110D01*
X185730201Y-61176115D01*
X185699500Y-61290689D01*
X185699500Y-64005072D01*
X185678683Y-64069141D01*
X185667575Y-64082147D01*
X184729803Y-65019918D01*
X184669779Y-65050501D01*
X184603243Y-65039963D01*
X184555608Y-64992328D01*
X184544661Y-64957074D01*
X184536330Y-64893792D01*
X184480861Y-64759876D01*
X184480860Y-64759875D01*
X184480860Y-64759874D01*
X184392625Y-64644885D01*
X184392624Y-64644884D01*
X184392621Y-64644880D01*
X184392616Y-64644876D01*
X184392615Y-64644875D01*
X184277626Y-64556640D01*
X184143711Y-64501171D01*
X184143704Y-64501169D01*
X184000003Y-64482251D01*
X183999997Y-64482251D01*
X183856295Y-64501169D01*
X183856288Y-64501171D01*
X183722373Y-64556640D01*
X183607384Y-64644875D01*
X183607374Y-64644885D01*
X183519139Y-64759874D01*
X183463670Y-64893789D01*
X183463668Y-64893796D01*
X183444750Y-65037498D01*
X183444750Y-65037503D01*
X183463668Y-65181205D01*
X183463670Y-65181212D01*
X183519139Y-65315127D01*
X183607374Y-65430116D01*
X183607379Y-65430122D01*
X183607383Y-65430125D01*
X183607384Y-65430126D01*
X183722373Y-65518361D01*
X183856288Y-65573830D01*
X183856291Y-65573831D01*
X183919572Y-65582162D01*
X183980373Y-65611163D01*
X184012518Y-65670365D01*
X184003725Y-65737154D01*
X183982418Y-65767304D01*
X182639510Y-67110214D01*
X182580201Y-67212937D01*
X182580202Y-67212937D01*
X182580201Y-67212938D01*
X182580201Y-67212940D01*
X182580201Y-67212941D01*
X182577026Y-67224791D01*
X182549500Y-67327516D01*
X182549500Y-67327518D01*
X182549500Y-70259309D01*
X182571306Y-70340691D01*
X182580201Y-70373887D01*
X182639511Y-70476614D01*
X182639514Y-70476617D01*
X182640232Y-70477553D01*
X182640684Y-70478646D01*
X182643083Y-70482800D01*
X182642536Y-70483115D01*
X182661822Y-70529677D01*
X182663668Y-70543704D01*
X182663670Y-70543711D01*
X182719139Y-70677626D01*
X182799555Y-70782425D01*
X182807379Y-70792621D01*
X182807383Y-70792624D01*
X182807384Y-70792625D01*
X182922373Y-70880860D01*
X183056288Y-70936329D01*
X183056295Y-70936331D01*
X183199997Y-70955250D01*
X183200000Y-70955250D01*
X183200001Y-70955250D01*
X183208144Y-70954177D01*
X183226271Y-70951791D01*
X183292509Y-70964066D01*
X183338881Y-71012931D01*
X183349500Y-71059858D01*
X183349500Y-73871711D01*
X183328683Y-73935780D01*
X183326976Y-73938065D01*
X183290976Y-73984981D01*
X183238026Y-74112814D01*
X183238024Y-74112821D01*
X183219965Y-74249997D01*
X183219965Y-74250002D01*
X183238024Y-74387178D01*
X183238026Y-74387185D01*
X183290974Y-74515014D01*
X183290976Y-74515018D01*
X183375209Y-74624791D01*
X183375213Y-74624794D01*
X183380261Y-74629842D01*
X183378964Y-74631138D01*
X183412078Y-74679329D01*
X183410309Y-74746671D01*
X183373922Y-74796750D01*
X183366007Y-74802823D01*
X183365991Y-74802839D01*
X183365209Y-74803859D01*
X183364451Y-74804379D01*
X183360951Y-74807880D01*
X183360301Y-74807230D01*
X183309685Y-74842007D01*
X183242343Y-74840233D01*
X183201669Y-74814566D01*
X181490823Y-73103720D01*
X181460240Y-73043696D01*
X181467194Y-72984934D01*
X181486974Y-72937183D01*
X181505035Y-72800000D01*
X181486974Y-72662817D01*
X181434024Y-72534983D01*
X181434023Y-72534982D01*
X181434023Y-72534981D01*
X181349795Y-72425214D01*
X181349794Y-72425213D01*
X181349791Y-72425209D01*
X181349786Y-72425205D01*
X181349785Y-72425204D01*
X181240018Y-72340976D01*
X181240014Y-72340974D01*
X181112185Y-72288026D01*
X181112178Y-72288024D01*
X180975003Y-72269965D01*
X180974997Y-72269965D01*
X180837821Y-72288024D01*
X180837814Y-72288026D01*
X180709981Y-72340976D01*
X180600214Y-72425204D01*
X180600204Y-72425214D01*
X180515976Y-72534981D01*
X180463026Y-72662814D01*
X180463024Y-72662821D01*
X180444965Y-72799997D01*
X180444965Y-72800002D01*
X180000000Y-72800002D01*
X180000000Y-60300002D01*
X181444750Y-60300002D01*
X181463668Y-60443704D01*
X181463670Y-60443711D01*
X181519139Y-60577626D01*
X181607374Y-60692615D01*
X181607379Y-60692621D01*
X181607383Y-60692624D01*
X181607384Y-60692625D01*
X181722373Y-60780860D01*
X181856288Y-60836329D01*
X181856295Y-60836331D01*
X181999997Y-60855250D01*
X182000000Y-60855250D01*
X182000003Y-60855250D01*
X182143704Y-60836331D01*
X182143706Y-60836330D01*
X182143709Y-60836330D01*
X182277625Y-60780861D01*
X182392621Y-60692621D01*
X182480861Y-60577625D01*
X182536330Y-60443709D01*
X182537302Y-60436331D01*
X182555250Y-60300002D01*
X182555250Y-60299997D01*
X182536331Y-60156295D01*
X182536329Y-60156288D01*
X182498522Y-60065014D01*
X182480861Y-60022375D01*
X182480860Y-60022374D01*
X182480860Y-60022373D01*
X182392625Y-59907384D01*
X182392624Y-59907383D01*
X182392621Y-59907379D01*
X182392616Y-59907375D01*
X182392615Y-59907374D01*
X182277626Y-59819139D01*
X182143711Y-59763670D01*
X182143704Y-59763668D01*
X182000003Y-59744750D01*
X181999997Y-59744750D01*
X181856295Y-59763668D01*
X181856288Y-59763670D01*
X181722373Y-59819139D01*
X181607384Y-59907374D01*
X181607374Y-59907384D01*
X181519139Y-60022373D01*
X181463670Y-60156288D01*
X181463668Y-60156295D01*
X181444750Y-60299997D01*
X181444750Y-60300002D01*
X180000000Y-60300002D01*
X180000000Y-56200002D01*
X181444750Y-56200002D01*
X181463668Y-56343704D01*
X181463670Y-56343710D01*
X181519139Y-56477626D01*
X181607374Y-56592615D01*
X181607379Y-56592621D01*
X181607383Y-56592624D01*
X181607384Y-56592625D01*
X181722373Y-56680860D01*
X181856288Y-56736329D01*
X181856295Y-56736331D01*
X181999997Y-56755250D01*
X182000000Y-56755250D01*
X182000003Y-56755250D01*
X182143704Y-56736331D01*
X182143706Y-56736330D01*
X182143709Y-56736330D01*
X182277625Y-56680861D01*
X182392621Y-56592621D01*
X182480861Y-56477625D01*
X182536330Y-56343709D01*
X182543662Y-56288024D01*
X182555250Y-56200002D01*
X182555250Y-56199997D01*
X182536331Y-56056295D01*
X182536329Y-56056288D01*
X182513015Y-56000002D01*
X186069965Y-56000002D01*
X186088024Y-56137178D01*
X186088026Y-56137185D01*
X186140974Y-56265014D01*
X186140976Y-56265018D01*
X186201358Y-56343709D01*
X186225209Y-56374791D01*
X186334982Y-56459024D01*
X186379890Y-56477625D01*
X186462814Y-56511973D01*
X186462821Y-56511975D01*
X186599997Y-56530035D01*
X186600000Y-56530035D01*
X186600003Y-56530035D01*
X186737178Y-56511975D01*
X186737180Y-56511974D01*
X186737183Y-56511974D01*
X186865018Y-56459024D01*
X186974791Y-56374791D01*
X187059024Y-56265018D01*
X187111974Y-56137183D01*
X187122624Y-56056295D01*
X187130035Y-56000002D01*
X187130035Y-55999997D01*
X187111975Y-55862821D01*
X187111973Y-55862814D01*
X187059023Y-55734981D01*
X186974795Y-55625214D01*
X186974794Y-55625213D01*
X186974791Y-55625209D01*
X186974786Y-55625205D01*
X186974785Y-55625204D01*
X186865018Y-55540976D01*
X186865014Y-55540974D01*
X186737185Y-55488026D01*
X186737178Y-55488024D01*
X186600003Y-55469965D01*
X186599997Y-55469965D01*
X186462821Y-55488024D01*
X186462814Y-55488026D01*
X186334981Y-55540976D01*
X186225214Y-55625204D01*
X186225204Y-55625214D01*
X186140976Y-55734981D01*
X186088026Y-55862814D01*
X186088024Y-55862821D01*
X186069965Y-55999997D01*
X186069965Y-56000002D01*
X182513015Y-56000002D01*
X182480860Y-55922373D01*
X182392625Y-55807384D01*
X182392624Y-55807383D01*
X182392621Y-55807379D01*
X182392616Y-55807375D01*
X182392615Y-55807374D01*
X182277626Y-55719139D01*
X182143711Y-55663670D01*
X182143704Y-55663668D01*
X182000003Y-55644750D01*
X181999997Y-55644750D01*
X181856295Y-55663668D01*
X181856288Y-55663670D01*
X181722373Y-55719139D01*
X181607384Y-55807374D01*
X181607374Y-55807384D01*
X181519139Y-55922373D01*
X181463670Y-56056288D01*
X181463668Y-56056295D01*
X181444750Y-56199997D01*
X181444750Y-56200002D01*
X180000000Y-56200002D01*
X180000000Y-55350002D01*
X188619965Y-55350002D01*
X188638024Y-55487178D01*
X188638026Y-55487185D01*
X188690974Y-55615014D01*
X188690976Y-55615018D01*
X188728308Y-55663670D01*
X188775209Y-55724791D01*
X188884982Y-55809024D01*
X188895233Y-55813270D01*
X189012814Y-55861973D01*
X189012821Y-55861975D01*
X189149997Y-55880035D01*
X189150000Y-55880035D01*
X189150003Y-55880035D01*
X189287178Y-55861975D01*
X189287180Y-55861974D01*
X189287183Y-55861974D01*
X189415018Y-55809024D01*
X189524791Y-55724791D01*
X189609024Y-55615018D01*
X189661974Y-55487183D01*
X189670320Y-55423796D01*
X189680035Y-55350002D01*
X189680035Y-55349997D01*
X189661975Y-55212821D01*
X189661973Y-55212814D01*
X189609023Y-55084981D01*
X189524795Y-54975214D01*
X189524794Y-54975213D01*
X189524791Y-54975209D01*
X189524786Y-54975205D01*
X189524785Y-54975204D01*
X189415018Y-54890976D01*
X189415014Y-54890974D01*
X189287185Y-54838026D01*
X189287178Y-54838024D01*
X189150003Y-54819965D01*
X189149997Y-54819965D01*
X189012821Y-54838024D01*
X189012814Y-54838026D01*
X188884981Y-54890976D01*
X188775214Y-54975204D01*
X188775204Y-54975214D01*
X188690976Y-55084981D01*
X188638026Y-55212814D01*
X188638024Y-55212821D01*
X188619965Y-55349997D01*
X188619965Y-55350002D01*
X180000000Y-55350002D01*
X180000000Y-53600002D01*
X187394355Y-53600002D01*
X187414858Y-53768868D01*
X187414859Y-53768871D01*
X187475180Y-53927927D01*
X187475184Y-53927934D01*
X187571815Y-54067927D01*
X187571816Y-54067928D01*
X187571817Y-54067929D01*
X187699148Y-54180734D01*
X187849775Y-54259790D01*
X188014944Y-54300500D01*
X188014945Y-54300500D01*
X188185055Y-54300500D01*
X188185056Y-54300500D01*
X188350225Y-54259790D01*
X188500852Y-54180734D01*
X188628183Y-54067929D01*
X188724818Y-53927930D01*
X188785140Y-53768872D01*
X188785140Y-53768870D01*
X188785141Y-53768868D01*
X188805645Y-53600002D01*
X190129965Y-53600002D01*
X190148024Y-53737178D01*
X190148026Y-53737185D01*
X190200974Y-53865014D01*
X190200976Y-53865018D01*
X190285209Y-53974791D01*
X190394982Y-54059024D01*
X190416479Y-54067928D01*
X190522814Y-54111973D01*
X190522821Y-54111975D01*
X190659997Y-54130035D01*
X190660000Y-54130035D01*
X190660003Y-54130035D01*
X190797178Y-54111975D01*
X190797180Y-54111974D01*
X190797183Y-54111974D01*
X190925018Y-54059024D01*
X191034791Y-53974791D01*
X191119024Y-53865018D01*
X191171974Y-53737183D01*
X191190035Y-53600000D01*
X191171974Y-53462817D01*
X191158849Y-53431131D01*
X191119023Y-53334981D01*
X191034795Y-53225214D01*
X191034794Y-53225213D01*
X191034791Y-53225209D01*
X191034786Y-53225205D01*
X191034785Y-53225204D01*
X190925018Y-53140976D01*
X190925014Y-53140974D01*
X190797185Y-53088026D01*
X190797178Y-53088024D01*
X190660003Y-53069965D01*
X190659997Y-53069965D01*
X190522821Y-53088024D01*
X190522814Y-53088026D01*
X190394981Y-53140976D01*
X190285214Y-53225204D01*
X190285204Y-53225214D01*
X190200976Y-53334981D01*
X190148026Y-53462814D01*
X190148024Y-53462821D01*
X190129965Y-53599997D01*
X190129965Y-53600002D01*
X188805645Y-53600002D01*
X188805645Y-53599997D01*
X188785141Y-53431131D01*
X188785140Y-53431128D01*
X188724819Y-53272072D01*
X188724815Y-53272065D01*
X188628184Y-53132072D01*
X188628183Y-53132071D01*
X188578464Y-53088024D01*
X188500852Y-53019266D01*
X188500850Y-53019265D01*
X188500849Y-53019264D01*
X188350226Y-52940210D01*
X188185057Y-52899500D01*
X188185056Y-52899500D01*
X188014944Y-52899500D01*
X188014942Y-52899500D01*
X187849773Y-52940210D01*
X187699150Y-53019264D01*
X187699143Y-53019270D01*
X187571816Y-53132071D01*
X187571815Y-53132072D01*
X187475184Y-53272065D01*
X187475180Y-53272072D01*
X187414859Y-53431128D01*
X187414858Y-53431131D01*
X187394355Y-53599997D01*
X187394355Y-53600002D01*
X180000000Y-53600002D01*
X180000000Y-51024835D01*
X180000002Y-51024171D01*
X180000006Y-51023474D01*
X180000146Y-51000579D01*
X180000159Y-50999476D01*
X180000600Y-50975513D01*
X180001147Y-50953185D01*
X180001361Y-50948543D01*
X180004191Y-50906642D01*
X180005221Y-50897356D01*
X180011638Y-50855850D01*
X180012442Y-50851293D01*
X180021060Y-50807968D01*
X180022222Y-50802798D01*
X180044065Y-50715592D01*
X180047165Y-50705375D01*
X180076541Y-50623276D01*
X180080619Y-50613428D01*
X180117918Y-50534566D01*
X180122947Y-50525157D01*
X180167782Y-50450354D01*
X180173721Y-50441468D01*
X180225663Y-50371431D01*
X180232430Y-50363183D01*
X180291023Y-50298536D01*
X180298536Y-50291023D01*
X180363183Y-50232430D01*
X180371418Y-50225672D01*
X180441486Y-50173707D01*
X180450336Y-50167793D01*
X180525161Y-50122944D01*
X180534561Y-50117920D01*
X180613421Y-50080623D01*
X180623267Y-50076545D01*
X180705372Y-50047167D01*
X180715596Y-50044064D01*
X180802817Y-50022217D01*
X180807968Y-50021060D01*
X180851293Y-50012442D01*
X180855850Y-50011638D01*
X180897356Y-50005221D01*
X180906642Y-50004191D01*
X180948568Y-50001359D01*
X180953185Y-50001147D01*
X180975513Y-50000600D01*
X180999476Y-50000159D01*
X181000579Y-50000146D01*
X181023474Y-50000006D01*
X181024171Y-50000002D01*
X181024835Y-50000000D01*
X198975165Y-50000000D01*
X198975829Y-50000002D01*
G37*
%TD.AperFunction*%
%TD*%
M02*
