%TF.GenerationSoftware,KiCad,Pcbnew,8.0.0*%
%TF.CreationDate,2024-02-29T13:44:40+03:00*%
%TF.ProjectId,micro17,6d696372-6f31-4372-9e6b-696361645f70,rev?*%
%TF.SameCoordinates,Original*%
%TF.FileFunction,Copper,L2,Inr*%
%TF.FilePolarity,Positive*%
%FSLAX46Y46*%
G04 Gerber Fmt 4.6, Leading zero omitted, Abs format (unit mm)*
G04 Created by KiCad (PCBNEW 8.0.0) date 2024-02-29 13:44:40*
%MOMM*%
%LPD*%
G01*
G04 APERTURE LIST*
%TA.AperFunction,ViaPad*%
%ADD10C,0.450000*%
%TD*%
%TA.AperFunction,ViaPad*%
%ADD11C,0.800000*%
%TD*%
%TA.AperFunction,ViaPad*%
%ADD12C,0.500000*%
%TD*%
%TA.AperFunction,Conductor*%
%ADD13C,0.300000*%
%TD*%
%TA.AperFunction,Conductor*%
%ADD14C,0.500000*%
%TD*%
%TA.AperFunction,Conductor*%
%ADD15C,0.250000*%
%TD*%
G04 APERTURE END LIST*
D10*
%TO.N,BASEBAND_BYPASS*%
X192906587Y-64093413D03*
D11*
%TO.N,+3V3*%
X187900000Y-53200000D03*
D12*
%TO.N,GND*%
X185000000Y-51000000D03*
X185000000Y-53000000D03*
X181000000Y-61000000D03*
X185200000Y-61000000D03*
X199000000Y-51000000D03*
X181000000Y-51000000D03*
D10*
X192000000Y-57500000D03*
X197300000Y-72000000D03*
D12*
X181000000Y-63000000D03*
X189700000Y-79500000D03*
D10*
X194000000Y-61500000D03*
D12*
X181000000Y-55000000D03*
D10*
X186500000Y-79400000D03*
D12*
X180750000Y-70000000D03*
D10*
X192000000Y-59500000D03*
D12*
X199100000Y-79100000D03*
D10*
X191000000Y-71900000D03*
D12*
X185000000Y-55000000D03*
D10*
X194000000Y-57300000D03*
D12*
X188750000Y-69500000D03*
X181000000Y-75000000D03*
X181000000Y-59000000D03*
D10*
X197800000Y-78400000D03*
D12*
X198750000Y-63250000D03*
X181000000Y-68500000D03*
D10*
X189100000Y-64500000D03*
X186100000Y-68400000D03*
X182960000Y-60300000D03*
X196000000Y-59500000D03*
X196000000Y-61500000D03*
D12*
X199000000Y-53000000D03*
D10*
X190300000Y-55300000D03*
X194400000Y-54800000D03*
X191507567Y-68206053D03*
D12*
X198250000Y-65750000D03*
D10*
X192000000Y-61500000D03*
X183960000Y-61000000D03*
X198800000Y-54600000D03*
X196000000Y-57500000D03*
D12*
X182000000Y-75250000D03*
D10*
X196400000Y-74700000D03*
D12*
X183000000Y-73000000D03*
X181000000Y-53000000D03*
X182300000Y-70300000D03*
X183000000Y-53000000D03*
X181000000Y-57000000D03*
X197000000Y-73000000D03*
D10*
X194800000Y-65900000D03*
D12*
X183000000Y-51000000D03*
X181000000Y-65000000D03*
X187000000Y-55000000D03*
D10*
%TO.N,+3V3*%
X191200000Y-55400000D03*
X198300000Y-57250000D03*
D12*
X182000000Y-56200000D03*
D10*
X187200000Y-63800000D03*
D12*
X197350000Y-64290000D03*
D10*
X183650000Y-68800000D03*
X183800000Y-74800000D03*
%TO.N,+5V*%
X197400000Y-66100000D03*
X189200000Y-67900000D03*
X191475000Y-69397760D03*
D12*
X182000000Y-60300000D03*
D10*
X195000000Y-76000000D03*
%TO.N,Net-(U4B-+)*%
X191000000Y-67800000D03*
X188301409Y-66976409D03*
%TO.N,/MCU/~{RST}*%
X190400000Y-53500000D03*
X189700000Y-59800000D03*
%TO.N,Net-(C16-Pad2)*%
X190200000Y-66000000D03*
X187600000Y-68400000D03*
%TO.N,Net-(U5A-P0A)*%
X180900000Y-76200000D03*
X192100000Y-70300000D03*
X193501316Y-66750000D03*
%TO.N,Net-(U5B-P1A)*%
X180900000Y-72800000D03*
X198100000Y-67900000D03*
%TO.N,Net-(U5C-P2W)*%
X198467935Y-74499604D03*
X185900000Y-76000000D03*
%TO.N,I2C_SDA*%
X192023768Y-54823768D03*
D12*
X183200000Y-70400000D03*
D10*
%TO.N,PTT_OUT*%
X191900000Y-64000000D03*
X194250000Y-72700000D03*
%TO.N,AUDIO_OUT_MUTE*%
X193900000Y-64200000D03*
%TO.N,BASEBAND_IN_FILT*%
X189000000Y-61400000D03*
X191100000Y-67000000D03*
%TO.N,BASEBAND_OUT*%
X190500000Y-63200000D03*
X186800000Y-76000000D03*
%TO.N,I2C_SCL*%
X195200000Y-55100000D03*
D12*
X184400000Y-70400000D03*
D10*
%TO.N,AUDIO_OUT_FILT*%
X187750000Y-75775000D03*
X181000000Y-78597151D03*
%TO.N,BASEBAND_IN*%
X187250000Y-79150000D03*
%TO.N,BASEBAND_OUT_FILT*%
X191525000Y-79225000D03*
%TO.N,AUDIO_IN*%
X193300000Y-79200000D03*
%TO.N,PTT_IN*%
X189300000Y-54200000D03*
X196100000Y-78600000D03*
%TO.N,MCU_TX*%
X190000000Y-75950000D03*
D12*
X198900000Y-60100000D03*
D10*
X193600000Y-72600000D03*
D12*
%TO.N,MCU_RX*%
X198800000Y-59000000D03*
%TO.N,+5VD*%
X184000000Y-65037501D03*
%TD*%
D13*
%TO.N,Net-(U5A-P0A)*%
X183377818Y-76200000D02*
X180900000Y-76200000D01*
X186788909Y-72788909D02*
X183377818Y-76200000D01*
X187700000Y-72788909D02*
X186788909Y-72788909D01*
X190188909Y-70300000D02*
X187700000Y-72788909D01*
X192100000Y-70300000D02*
X190188909Y-70300000D01*
D14*
%TO.N,+5V*%
X182000000Y-61629595D02*
X182000000Y-60300000D01*
%TO.N,+3V3*%
X184200000Y-56200000D02*
X185400000Y-57400000D01*
X182000000Y-56200000D02*
X184200000Y-56200000D01*
X185400000Y-57400000D02*
X187200000Y-57400000D01*
X187900000Y-57400000D02*
X189200000Y-57400000D01*
X187200000Y-57400000D02*
X187900000Y-57400000D01*
X187900000Y-53200000D02*
X187900000Y-57400000D01*
D13*
%TO.N,BASEBAND_IN_FILT*%
X191100000Y-65100000D02*
X191100000Y-67000000D01*
X189000000Y-63000000D02*
X191100000Y-65100000D01*
X189000000Y-61400000D02*
X189000000Y-63000000D01*
D14*
%TO.N,+3V3*%
X190100000Y-56500000D02*
X191200000Y-55400000D01*
X191795405Y-58250000D02*
X190100000Y-56554595D01*
D13*
X183800000Y-74800000D02*
X183800000Y-68950000D01*
D14*
X189200000Y-57400000D02*
X190100000Y-56500000D01*
X198300000Y-57250000D02*
X197300000Y-58250000D01*
X190100000Y-56554595D02*
X190100000Y-56500000D01*
D13*
X183800000Y-68950000D02*
X183650000Y-68800000D01*
D14*
X197350000Y-64290000D02*
X197350000Y-58200000D01*
X197300000Y-58250000D02*
X191795405Y-58250000D01*
X197350000Y-58200000D02*
X198300000Y-57250000D01*
X187200000Y-63800000D02*
X187200000Y-57400000D01*
%TO.N,+5V*%
X189200000Y-67900000D02*
X188270405Y-67900000D01*
X197400000Y-66100000D02*
X194100000Y-69400000D01*
X190700000Y-69400000D02*
X194100000Y-69400000D01*
X194100000Y-69400000D02*
X194428248Y-69400000D01*
X194428248Y-69400000D02*
X195000000Y-69971752D01*
X189200000Y-67900000D02*
X190700000Y-69400000D01*
X195000000Y-69971752D02*
X195000000Y-76000000D01*
X188270405Y-67900000D02*
X182000000Y-61629595D01*
D13*
%TO.N,Net-(U5C-P2W)*%
X186700000Y-75200000D02*
X188200000Y-75200000D01*
X195667539Y-77300000D02*
X198467935Y-74499604D01*
X185900000Y-76000000D02*
X186700000Y-75200000D01*
X188200000Y-75200000D02*
X190300000Y-77300000D01*
X190300000Y-77300000D02*
X195667539Y-77300000D01*
D15*
%TO.N,AUDIO_OUT_FILT*%
X181897151Y-77700000D02*
X181000000Y-78597151D01*
X187750000Y-76450000D02*
X186500000Y-77700000D01*
X187750000Y-75775000D02*
X187750000Y-76450000D01*
X186500000Y-77700000D02*
X181897151Y-77700000D01*
%TD*%
%TA.AperFunction,Conductor*%
%TO.N,GND*%
G36*
X198003886Y-50000277D02*
G01*
X198276859Y-50019801D01*
X198292237Y-50022011D01*
X198555845Y-50079356D01*
X198570764Y-50083736D01*
X198823532Y-50178014D01*
X198837676Y-50184474D01*
X199074440Y-50313757D01*
X199087523Y-50322165D01*
X199303476Y-50483826D01*
X199315230Y-50494010D01*
X199505989Y-50684769D01*
X199516173Y-50696523D01*
X199677834Y-50912476D01*
X199686242Y-50925559D01*
X199815525Y-51162323D01*
X199821986Y-51176469D01*
X199916262Y-51429233D01*
X199920643Y-51444155D01*
X199977986Y-51707754D01*
X199980199Y-51723148D01*
X199999722Y-51996113D01*
X200000000Y-52003889D01*
X200000000Y-77996110D01*
X199999722Y-78003886D01*
X199980199Y-78276851D01*
X199977986Y-78292245D01*
X199920643Y-78555844D01*
X199916262Y-78570766D01*
X199821986Y-78823530D01*
X199815525Y-78837676D01*
X199686242Y-79074440D01*
X199677834Y-79087523D01*
X199516173Y-79303476D01*
X199505989Y-79315230D01*
X199315230Y-79505989D01*
X199303476Y-79516173D01*
X199087523Y-79677834D01*
X199074440Y-79686242D01*
X198837676Y-79815525D01*
X198823530Y-79821986D01*
X198570766Y-79916262D01*
X198555844Y-79920643D01*
X198292245Y-79977986D01*
X198276851Y-79980199D01*
X198003887Y-79999722D01*
X197996111Y-80000000D01*
X182003889Y-80000000D01*
X181996113Y-79999722D01*
X181723148Y-79980199D01*
X181707754Y-79977986D01*
X181444155Y-79920643D01*
X181429233Y-79916262D01*
X181176469Y-79821986D01*
X181162323Y-79815525D01*
X180925559Y-79686242D01*
X180912476Y-79677834D01*
X180696523Y-79516173D01*
X180684769Y-79505989D01*
X180494010Y-79315230D01*
X180483826Y-79303476D01*
X180368936Y-79150002D01*
X186719965Y-79150002D01*
X186738024Y-79287178D01*
X186738026Y-79287185D01*
X186790974Y-79415014D01*
X186790976Y-79415018D01*
X186860781Y-79505989D01*
X186875209Y-79524791D01*
X186984982Y-79609024D01*
X187048899Y-79635499D01*
X187112814Y-79661973D01*
X187112821Y-79661975D01*
X187249997Y-79680035D01*
X187250000Y-79680035D01*
X187250003Y-79680035D01*
X187387178Y-79661975D01*
X187387180Y-79661974D01*
X187387183Y-79661974D01*
X187515018Y-79609024D01*
X187624791Y-79524791D01*
X187709024Y-79415018D01*
X187761974Y-79287183D01*
X187770161Y-79225002D01*
X190994965Y-79225002D01*
X191013024Y-79362178D01*
X191013026Y-79362185D01*
X191065974Y-79490014D01*
X191065976Y-79490018D01*
X191131028Y-79574795D01*
X191150209Y-79599791D01*
X191150213Y-79599794D01*
X191150214Y-79599795D01*
X191162243Y-79609025D01*
X191259982Y-79684024D01*
X191265337Y-79686242D01*
X191387814Y-79736973D01*
X191387821Y-79736975D01*
X191524997Y-79755035D01*
X191525000Y-79755035D01*
X191525003Y-79755035D01*
X191662178Y-79736975D01*
X191662180Y-79736974D01*
X191662183Y-79736974D01*
X191790018Y-79684024D01*
X191899791Y-79599791D01*
X191984024Y-79490018D01*
X192036974Y-79362183D01*
X192040266Y-79337183D01*
X192055035Y-79225002D01*
X192055035Y-79224997D01*
X192051744Y-79200002D01*
X192769965Y-79200002D01*
X192788024Y-79337178D01*
X192788026Y-79337185D01*
X192840974Y-79465014D01*
X192840976Y-79465018D01*
X192872414Y-79505989D01*
X192925209Y-79574791D01*
X193034982Y-79659024D01*
X193095341Y-79684025D01*
X193162814Y-79711973D01*
X193162821Y-79711975D01*
X193299997Y-79730035D01*
X193300000Y-79730035D01*
X193300003Y-79730035D01*
X193437178Y-79711975D01*
X193437180Y-79711974D01*
X193437183Y-79711974D01*
X193565018Y-79659024D01*
X193674791Y-79574791D01*
X193759024Y-79465018D01*
X193811974Y-79337183D01*
X193814865Y-79315230D01*
X193830035Y-79200002D01*
X193830035Y-79199997D01*
X193811975Y-79062821D01*
X193811973Y-79062814D01*
X193759023Y-78934981D01*
X193674795Y-78825214D01*
X193674794Y-78825213D01*
X193674791Y-78825209D01*
X193674786Y-78825205D01*
X193674785Y-78825204D01*
X193565018Y-78740976D01*
X193565014Y-78740974D01*
X193437185Y-78688026D01*
X193437178Y-78688024D01*
X193300003Y-78669965D01*
X193299997Y-78669965D01*
X193162821Y-78688024D01*
X193162814Y-78688026D01*
X193034981Y-78740976D01*
X192925214Y-78825204D01*
X192925204Y-78825214D01*
X192840976Y-78934981D01*
X192788026Y-79062814D01*
X192788024Y-79062821D01*
X192769965Y-79199997D01*
X192769965Y-79200002D01*
X192051744Y-79200002D01*
X192036975Y-79087821D01*
X192036973Y-79087814D01*
X191990159Y-78974795D01*
X191984024Y-78959983D01*
X191984023Y-78959982D01*
X191984023Y-78959981D01*
X191899795Y-78850214D01*
X191899794Y-78850213D01*
X191899791Y-78850209D01*
X191899786Y-78850205D01*
X191899785Y-78850204D01*
X191790018Y-78765976D01*
X191790014Y-78765974D01*
X191662185Y-78713026D01*
X191662178Y-78713024D01*
X191525003Y-78694965D01*
X191524997Y-78694965D01*
X191387821Y-78713024D01*
X191387814Y-78713026D01*
X191259981Y-78765976D01*
X191150214Y-78850204D01*
X191150204Y-78850214D01*
X191065976Y-78959981D01*
X191013026Y-79087814D01*
X191013024Y-79087821D01*
X190994965Y-79224997D01*
X190994965Y-79225002D01*
X187770161Y-79225002D01*
X187780035Y-79150000D01*
X187780035Y-79149997D01*
X187761975Y-79012821D01*
X187761973Y-79012814D01*
X187709023Y-78884981D01*
X187624795Y-78775214D01*
X187624794Y-78775213D01*
X187624791Y-78775209D01*
X187624786Y-78775205D01*
X187624785Y-78775204D01*
X187515018Y-78690976D01*
X187515014Y-78690974D01*
X187387185Y-78638026D01*
X187387178Y-78638024D01*
X187250003Y-78619965D01*
X187249997Y-78619965D01*
X187112821Y-78638024D01*
X187112814Y-78638026D01*
X186984981Y-78690976D01*
X186875214Y-78775204D01*
X186875204Y-78775214D01*
X186790976Y-78884981D01*
X186738026Y-79012814D01*
X186738024Y-79012821D01*
X186719965Y-79149997D01*
X186719965Y-79150002D01*
X180368936Y-79150002D01*
X180322165Y-79087523D01*
X180313757Y-79074440D01*
X180303783Y-79056174D01*
X180184473Y-78837673D01*
X180178013Y-78823530D01*
X180159988Y-78775204D01*
X180093579Y-78597153D01*
X180469965Y-78597153D01*
X180488024Y-78734329D01*
X180488026Y-78734336D01*
X180540974Y-78862165D01*
X180540976Y-78862169D01*
X180558480Y-78884981D01*
X180625209Y-78971942D01*
X180734982Y-79056175D01*
X180798899Y-79082650D01*
X180862814Y-79109124D01*
X180862821Y-79109126D01*
X180999997Y-79127186D01*
X181000000Y-79127186D01*
X181000003Y-79127186D01*
X181137178Y-79109126D01*
X181137180Y-79109125D01*
X181137183Y-79109125D01*
X181265018Y-79056175D01*
X181374791Y-78971942D01*
X181459024Y-78862169D01*
X181511974Y-78734334D01*
X181514332Y-78716421D01*
X181543331Y-78655620D01*
X181545325Y-78653573D01*
X181598896Y-78600002D01*
X195569965Y-78600002D01*
X195588024Y-78737178D01*
X195588026Y-78737185D01*
X195640974Y-78865014D01*
X195640976Y-78865018D01*
X195723022Y-78971942D01*
X195725209Y-78974791D01*
X195834982Y-79059024D01*
X195844149Y-79062821D01*
X195962814Y-79111973D01*
X195962821Y-79111975D01*
X196099997Y-79130035D01*
X196100000Y-79130035D01*
X196100003Y-79130035D01*
X196237178Y-79111975D01*
X196237180Y-79111974D01*
X196237183Y-79111974D01*
X196365018Y-79059024D01*
X196474791Y-78974791D01*
X196559024Y-78865018D01*
X196611974Y-78737183D01*
X196615155Y-78713026D01*
X196630035Y-78600002D01*
X196630035Y-78599997D01*
X196611975Y-78462821D01*
X196611973Y-78462814D01*
X196559023Y-78334981D01*
X196474795Y-78225214D01*
X196474794Y-78225213D01*
X196474791Y-78225209D01*
X196474786Y-78225205D01*
X196474785Y-78225204D01*
X196365018Y-78140976D01*
X196365014Y-78140974D01*
X196237185Y-78088026D01*
X196237178Y-78088024D01*
X196100003Y-78069965D01*
X196099997Y-78069965D01*
X195962821Y-78088024D01*
X195962814Y-78088026D01*
X195834981Y-78140976D01*
X195725214Y-78225204D01*
X195725204Y-78225214D01*
X195640976Y-78334981D01*
X195588026Y-78462814D01*
X195588024Y-78462821D01*
X195569965Y-78599997D01*
X195569965Y-78600002D01*
X181598896Y-78600002D01*
X182041475Y-78157425D01*
X182101498Y-78126842D01*
X182118549Y-78125500D01*
X186556018Y-78125500D01*
X186664237Y-78096503D01*
X186761263Y-78040485D01*
X188090485Y-76711263D01*
X188146503Y-76614237D01*
X188175500Y-76506018D01*
X188175500Y-76393982D01*
X188175500Y-76120707D01*
X188196317Y-76056638D01*
X188198026Y-76054350D01*
X188213374Y-76034349D01*
X188214454Y-76035178D01*
X188259016Y-75995045D01*
X188326011Y-75987995D01*
X188380438Y-76017541D01*
X190023386Y-77660489D01*
X190082696Y-77694731D01*
X190104405Y-77707265D01*
X190126113Y-77719799D01*
X190240687Y-77750499D01*
X190240691Y-77750500D01*
X190240693Y-77750500D01*
X195726847Y-77750500D01*
X195726848Y-77750500D01*
X195817212Y-77726286D01*
X195841426Y-77719799D01*
X195944153Y-77660489D01*
X198569212Y-75035428D01*
X198604573Y-75011803D01*
X198605115Y-75011578D01*
X198605118Y-75011578D01*
X198732953Y-74958628D01*
X198842726Y-74874395D01*
X198926959Y-74764622D01*
X198979909Y-74636787D01*
X198993347Y-74534722D01*
X198997970Y-74499606D01*
X198997970Y-74499601D01*
X198979910Y-74362425D01*
X198979908Y-74362418D01*
X198926958Y-74234585D01*
X198842730Y-74124818D01*
X198842729Y-74124817D01*
X198842726Y-74124813D01*
X198842721Y-74124809D01*
X198842720Y-74124808D01*
X198732953Y-74040580D01*
X198732949Y-74040578D01*
X198605120Y-73987630D01*
X198605113Y-73987628D01*
X198467938Y-73969569D01*
X198467932Y-73969569D01*
X198330756Y-73987628D01*
X198330749Y-73987630D01*
X198202916Y-74040580D01*
X198093149Y-74124808D01*
X198093139Y-74124818D01*
X198008912Y-74234584D01*
X197955735Y-74362965D01*
X197932107Y-74398327D01*
X195512861Y-76817575D01*
X195452837Y-76848158D01*
X195435786Y-76849500D01*
X190531753Y-76849500D01*
X190467684Y-76828683D01*
X190454678Y-76817575D01*
X190225589Y-76588486D01*
X190195006Y-76528462D01*
X190205544Y-76461926D01*
X190253179Y-76414291D01*
X190260955Y-76410707D01*
X190261404Y-76410520D01*
X190265018Y-76409024D01*
X190374791Y-76324791D01*
X190459024Y-76215018D01*
X190511974Y-76087183D01*
X190513911Y-76072476D01*
X190530035Y-75950002D01*
X190530035Y-75949997D01*
X190511975Y-75812821D01*
X190511973Y-75812814D01*
X190479734Y-75734981D01*
X190459024Y-75684983D01*
X190459023Y-75684982D01*
X190459023Y-75684981D01*
X190374795Y-75575214D01*
X190374794Y-75575213D01*
X190374791Y-75575209D01*
X190374786Y-75575205D01*
X190374785Y-75575204D01*
X190265018Y-75490976D01*
X190265014Y-75490974D01*
X190137185Y-75438026D01*
X190137178Y-75438024D01*
X190000003Y-75419965D01*
X189999997Y-75419965D01*
X189862821Y-75438024D01*
X189862814Y-75438026D01*
X189734981Y-75490976D01*
X189625214Y-75575204D01*
X189625204Y-75575214D01*
X189540976Y-75684981D01*
X189539288Y-75689057D01*
X189495533Y-75740278D01*
X189430027Y-75755999D01*
X189367792Y-75730215D01*
X189361526Y-75724423D01*
X188476614Y-74839511D01*
X188373887Y-74780201D01*
X188349673Y-74773713D01*
X188259312Y-74749500D01*
X188259309Y-74749500D01*
X186640691Y-74749500D01*
X186550326Y-74773713D01*
X186526113Y-74780200D01*
X186423388Y-74839508D01*
X185798723Y-75464172D01*
X185763361Y-75487800D01*
X185634980Y-75540977D01*
X185525214Y-75625204D01*
X185525204Y-75625214D01*
X185440976Y-75734981D01*
X185388026Y-75862814D01*
X185388024Y-75862821D01*
X185369965Y-75999997D01*
X185369965Y-76000002D01*
X185388024Y-76137178D01*
X185388026Y-76137185D01*
X185440974Y-76265014D01*
X185440976Y-76265018D01*
X185523181Y-76372149D01*
X185525209Y-76374791D01*
X185634982Y-76459024D01*
X185698899Y-76485499D01*
X185762814Y-76511973D01*
X185762821Y-76511975D01*
X185899997Y-76530035D01*
X185900000Y-76530035D01*
X185900003Y-76530035D01*
X186037178Y-76511975D01*
X186037180Y-76511974D01*
X186037183Y-76511974D01*
X186165018Y-76459024D01*
X186274791Y-76374791D01*
X186274790Y-76374791D01*
X186280459Y-76370442D01*
X186281769Y-76372149D01*
X186332949Y-76346073D01*
X186399485Y-76356611D01*
X186419176Y-76370917D01*
X186419541Y-76370442D01*
X186425209Y-76374791D01*
X186534982Y-76459024D01*
X186598899Y-76485499D01*
X186662814Y-76511973D01*
X186662821Y-76511975D01*
X186799997Y-76530035D01*
X186805067Y-76530035D01*
X186869136Y-76550852D01*
X186908732Y-76605352D01*
X186908732Y-76672718D01*
X186882142Y-76716110D01*
X186355677Y-77242575D01*
X186295653Y-77273158D01*
X186278602Y-77274500D01*
X181841133Y-77274500D01*
X181732914Y-77303496D01*
X181635888Y-77359514D01*
X180943575Y-78051825D01*
X180883552Y-78082408D01*
X180880734Y-78082817D01*
X180862817Y-78085176D01*
X180734981Y-78138127D01*
X180625214Y-78222355D01*
X180625204Y-78222365D01*
X180540976Y-78332132D01*
X180488026Y-78459965D01*
X180488024Y-78459972D01*
X180469965Y-78597148D01*
X180469965Y-78597153D01*
X180093579Y-78597153D01*
X180083736Y-78570764D01*
X180079356Y-78555844D01*
X180059120Y-78462821D01*
X180022011Y-78292237D01*
X180019801Y-78276859D01*
X180000278Y-78003886D01*
X180000000Y-77996110D01*
X180000000Y-76200002D01*
X180369965Y-76200002D01*
X180388024Y-76337178D01*
X180388026Y-76337185D01*
X180440974Y-76465014D01*
X180440976Y-76465018D01*
X180514234Y-76560489D01*
X180525209Y-76574791D01*
X180634982Y-76659024D01*
X180668043Y-76672718D01*
X180762814Y-76711973D01*
X180762821Y-76711975D01*
X180899997Y-76730035D01*
X180900000Y-76730035D01*
X180900003Y-76730035D01*
X181037178Y-76711975D01*
X181037180Y-76711974D01*
X181037183Y-76711974D01*
X181165018Y-76659024D01*
X181165018Y-76659023D01*
X181165566Y-76658797D01*
X181207278Y-76650500D01*
X183437126Y-76650500D01*
X183437127Y-76650500D01*
X183527491Y-76626286D01*
X183551705Y-76619799D01*
X183654432Y-76560489D01*
X186943587Y-73271334D01*
X187003611Y-73240751D01*
X187020662Y-73239409D01*
X187759308Y-73239409D01*
X187759309Y-73239409D01*
X187849673Y-73215195D01*
X187873887Y-73208708D01*
X187976614Y-73149398D01*
X190343587Y-70782425D01*
X190403611Y-70751842D01*
X190420662Y-70750500D01*
X191792722Y-70750500D01*
X191834434Y-70758797D01*
X191962814Y-70811973D01*
X191962821Y-70811975D01*
X192099997Y-70830035D01*
X192100000Y-70830035D01*
X192100003Y-70830035D01*
X192237178Y-70811975D01*
X192237180Y-70811974D01*
X192237183Y-70811974D01*
X192365018Y-70759024D01*
X192474791Y-70674791D01*
X192559024Y-70565018D01*
X192611974Y-70437183D01*
X192616870Y-70400000D01*
X192630035Y-70300002D01*
X192630035Y-70299997D01*
X192611975Y-70162821D01*
X192611973Y-70162814D01*
X192586457Y-70101212D01*
X192581172Y-70034054D01*
X192616371Y-69976615D01*
X192678609Y-69950836D01*
X192687160Y-69950500D01*
X194027525Y-69950500D01*
X194027526Y-69950500D01*
X194155073Y-69950500D01*
X194219142Y-69971317D01*
X194232148Y-69982425D01*
X194417575Y-70167852D01*
X194448158Y-70227876D01*
X194449500Y-70244927D01*
X194449500Y-72071939D01*
X194428683Y-72136008D01*
X194374183Y-72175604D01*
X194326273Y-72180006D01*
X194250004Y-72169965D01*
X194249997Y-72169965D01*
X194112822Y-72188024D01*
X194112815Y-72188026D01*
X194049846Y-72214108D01*
X193982688Y-72219392D01*
X193941781Y-72199879D01*
X193865018Y-72140976D01*
X193865014Y-72140974D01*
X193737185Y-72088026D01*
X193737178Y-72088024D01*
X193600003Y-72069965D01*
X193599997Y-72069965D01*
X193462821Y-72088024D01*
X193462814Y-72088026D01*
X193334981Y-72140976D01*
X193225214Y-72225204D01*
X193225204Y-72225214D01*
X193140976Y-72334981D01*
X193088026Y-72462814D01*
X193088024Y-72462821D01*
X193069965Y-72599997D01*
X193069965Y-72600002D01*
X193088024Y-72737178D01*
X193088026Y-72737185D01*
X193140974Y-72865014D01*
X193140976Y-72865018D01*
X193225209Y-72974791D01*
X193334982Y-73059024D01*
X193373048Y-73074791D01*
X193462814Y-73111973D01*
X193462821Y-73111975D01*
X193599997Y-73130035D01*
X193600000Y-73130035D01*
X193600003Y-73130035D01*
X193737178Y-73111975D01*
X193737180Y-73111974D01*
X193737183Y-73111974D01*
X193800151Y-73085891D01*
X193867307Y-73080607D01*
X193908215Y-73100118D01*
X193984982Y-73159024D01*
X194048899Y-73185499D01*
X194112814Y-73211973D01*
X194112821Y-73211975D01*
X194249997Y-73230035D01*
X194250000Y-73230035D01*
X194250001Y-73230035D01*
X194267390Y-73227745D01*
X194326272Y-73219993D01*
X194392509Y-73232268D01*
X194438881Y-73281133D01*
X194449500Y-73328060D01*
X194449500Y-76072476D01*
X194487016Y-76212485D01*
X194559010Y-76337183D01*
X194559491Y-76338015D01*
X194661985Y-76440509D01*
X194787515Y-76512984D01*
X194927525Y-76550500D01*
X194927527Y-76550500D01*
X195072473Y-76550500D01*
X195072475Y-76550500D01*
X195212485Y-76512984D01*
X195338015Y-76440509D01*
X195440509Y-76338015D01*
X195512984Y-76212485D01*
X195550500Y-76072475D01*
X195550500Y-69899277D01*
X195512984Y-69759267D01*
X195500714Y-69738014D01*
X195440510Y-69633737D01*
X195119721Y-69312948D01*
X195089140Y-69252927D01*
X195099678Y-69186391D01*
X195119720Y-69158804D01*
X196378522Y-67900002D01*
X197569965Y-67900002D01*
X197588024Y-68037178D01*
X197588026Y-68037185D01*
X197640974Y-68165014D01*
X197640976Y-68165018D01*
X197721505Y-68269965D01*
X197725209Y-68274791D01*
X197834982Y-68359024D01*
X197898899Y-68385499D01*
X197962814Y-68411973D01*
X197962821Y-68411975D01*
X198099997Y-68430035D01*
X198100000Y-68430035D01*
X198100003Y-68430035D01*
X198237178Y-68411975D01*
X198237180Y-68411974D01*
X198237183Y-68411974D01*
X198365018Y-68359024D01*
X198474791Y-68274791D01*
X198559024Y-68165018D01*
X198611974Y-68037183D01*
X198613551Y-68025209D01*
X198630035Y-67900002D01*
X198630035Y-67899997D01*
X198611975Y-67762821D01*
X198611973Y-67762814D01*
X198559023Y-67634981D01*
X198474795Y-67525214D01*
X198474794Y-67525213D01*
X198474791Y-67525209D01*
X198474786Y-67525205D01*
X198474785Y-67525204D01*
X198365018Y-67440976D01*
X198365014Y-67440974D01*
X198237185Y-67388026D01*
X198237178Y-67388024D01*
X198100003Y-67369965D01*
X198099997Y-67369965D01*
X197962821Y-67388024D01*
X197962814Y-67388026D01*
X197834981Y-67440976D01*
X197725214Y-67525204D01*
X197725204Y-67525214D01*
X197640976Y-67634981D01*
X197588026Y-67762814D01*
X197588024Y-67762821D01*
X197569965Y-67899997D01*
X197569965Y-67900002D01*
X196378522Y-67900002D01*
X197840510Y-66438015D01*
X197912984Y-66312485D01*
X197950500Y-66172474D01*
X197950500Y-66027526D01*
X197912984Y-65887515D01*
X197840510Y-65761985D01*
X197738015Y-65659490D01*
X197678647Y-65625214D01*
X197612484Y-65587015D01*
X197472477Y-65549500D01*
X197472474Y-65549500D01*
X197327526Y-65549500D01*
X197327522Y-65549500D01*
X197187515Y-65587015D01*
X197061987Y-65659488D01*
X193903900Y-68817575D01*
X193843876Y-68848158D01*
X193826825Y-68849500D01*
X190973175Y-68849500D01*
X190909106Y-68828683D01*
X190896100Y-68817575D01*
X190243539Y-68165014D01*
X189538015Y-67459490D01*
X189538012Y-67459488D01*
X189412484Y-67387015D01*
X189366861Y-67374791D01*
X189366860Y-67374790D01*
X189272478Y-67349500D01*
X189272475Y-67349500D01*
X188878798Y-67349500D01*
X188814729Y-67328683D01*
X188775133Y-67274183D01*
X188775133Y-67206817D01*
X188778095Y-67198789D01*
X188813381Y-67113597D01*
X188813384Y-67113587D01*
X188831444Y-66976411D01*
X188831444Y-66976406D01*
X188813384Y-66839230D01*
X188813382Y-66839223D01*
X188776425Y-66750000D01*
X188760433Y-66711392D01*
X188760432Y-66711391D01*
X188760432Y-66711390D01*
X188676204Y-66601623D01*
X188676203Y-66601622D01*
X188676200Y-66601618D01*
X188676195Y-66601614D01*
X188676194Y-66601613D01*
X188566427Y-66517385D01*
X188566423Y-66517383D01*
X188438594Y-66464435D01*
X188438587Y-66464433D01*
X188301412Y-66446374D01*
X188301406Y-66446374D01*
X188164230Y-66464433D01*
X188164223Y-66464435D01*
X188036390Y-66517385D01*
X187926616Y-66601618D01*
X187926609Y-66601626D01*
X187925825Y-66602648D01*
X187925065Y-66603169D01*
X187921563Y-66606672D01*
X187920913Y-66606022D01*
X187870301Y-66640796D01*
X187802959Y-66639022D01*
X187762285Y-66613355D01*
X182582425Y-61433495D01*
X182551842Y-61373471D01*
X182550500Y-61356420D01*
X182550500Y-60343220D01*
X182551433Y-60328991D01*
X182555250Y-60300001D01*
X182555250Y-60299997D01*
X182551433Y-60271007D01*
X182550500Y-60256779D01*
X182550500Y-60227526D01*
X182550499Y-60227520D01*
X182547948Y-60218001D01*
X182542927Y-60199265D01*
X182540148Y-60185297D01*
X182536330Y-60156291D01*
X182525135Y-60129266D01*
X182520555Y-60115772D01*
X182512984Y-60087515D01*
X182498359Y-60062184D01*
X182492056Y-60049403D01*
X182480861Y-60022375D01*
X182463044Y-59999155D01*
X182455137Y-59987321D01*
X182440509Y-59961985D01*
X182434812Y-59956288D01*
X182419826Y-59941301D01*
X182410428Y-59930584D01*
X182392626Y-59907385D01*
X182392624Y-59907383D01*
X182392621Y-59907379D01*
X182369413Y-59889571D01*
X182358701Y-59880176D01*
X182338016Y-59859492D01*
X182338013Y-59859489D01*
X182312681Y-59844863D01*
X182300831Y-59836945D01*
X182281842Y-59822375D01*
X182277625Y-59819139D01*
X182277623Y-59819138D01*
X182277621Y-59819137D01*
X182250598Y-59807943D01*
X182237813Y-59801639D01*
X182234969Y-59799997D01*
X182212485Y-59787016D01*
X182212484Y-59787015D01*
X182212481Y-59787014D01*
X182184227Y-59779443D01*
X182170729Y-59774861D01*
X182143714Y-59763671D01*
X182143704Y-59763668D01*
X182114715Y-59759852D01*
X182100735Y-59757072D01*
X182092334Y-59754821D01*
X182072475Y-59749500D01*
X182072473Y-59749500D01*
X182043221Y-59749500D01*
X182028993Y-59748567D01*
X182000002Y-59744750D01*
X181999998Y-59744750D01*
X181971007Y-59748567D01*
X181956779Y-59749500D01*
X181927525Y-59749500D01*
X181899846Y-59756916D01*
X181899265Y-59757072D01*
X181885285Y-59759852D01*
X181856293Y-59763669D01*
X181829266Y-59774863D01*
X181815772Y-59779443D01*
X181787522Y-59787013D01*
X181787513Y-59787017D01*
X181762181Y-59801641D01*
X181749400Y-59807944D01*
X181722376Y-59819138D01*
X181722375Y-59819138D01*
X181699167Y-59836946D01*
X181687321Y-59844862D01*
X181661984Y-59859491D01*
X181641302Y-59880173D01*
X181630588Y-59889568D01*
X181607383Y-59907374D01*
X181607374Y-59907383D01*
X181589568Y-59930588D01*
X181580173Y-59941302D01*
X181559491Y-59961984D01*
X181544862Y-59987321D01*
X181536946Y-59999167D01*
X181519138Y-60022375D01*
X181519138Y-60022376D01*
X181507944Y-60049400D01*
X181501641Y-60062181D01*
X181487017Y-60087513D01*
X181487013Y-60087522D01*
X181479443Y-60115772D01*
X181474863Y-60129266D01*
X181463669Y-60156293D01*
X181459852Y-60185285D01*
X181457071Y-60199265D01*
X181449502Y-60227520D01*
X181449500Y-60227526D01*
X181449500Y-60256779D01*
X181448567Y-60271007D01*
X181444750Y-60299997D01*
X181444750Y-60300001D01*
X181448567Y-60328991D01*
X181449500Y-60343220D01*
X181449500Y-61702072D01*
X181487015Y-61842079D01*
X181487016Y-61842080D01*
X181559490Y-61967610D01*
X182741553Y-63149673D01*
X183909520Y-64317640D01*
X183940103Y-64377664D01*
X183929565Y-64444200D01*
X183881930Y-64491835D01*
X183860659Y-64500000D01*
X183856292Y-64501170D01*
X183722373Y-64556640D01*
X183607384Y-64644875D01*
X183607374Y-64644885D01*
X183519139Y-64759874D01*
X183463670Y-64893789D01*
X183463668Y-64893796D01*
X183444750Y-65037498D01*
X183444750Y-65037503D01*
X183463668Y-65181205D01*
X183463670Y-65181212D01*
X183519139Y-65315127D01*
X183607374Y-65430116D01*
X183607379Y-65430122D01*
X183607383Y-65430125D01*
X183607384Y-65430126D01*
X183722373Y-65518361D01*
X183856288Y-65573830D01*
X183856295Y-65573832D01*
X183999997Y-65592751D01*
X184000000Y-65592751D01*
X184000003Y-65592751D01*
X184143704Y-65573832D01*
X184143706Y-65573831D01*
X184143709Y-65573831D01*
X184277625Y-65518362D01*
X184392621Y-65430122D01*
X184480861Y-65315126D01*
X184536330Y-65181210D01*
X184536331Y-65181201D01*
X184537497Y-65176852D01*
X184574182Y-65120352D01*
X184637072Y-65096205D01*
X184702143Y-65113635D01*
X184719860Y-65127980D01*
X187359983Y-67768103D01*
X187390566Y-67828127D01*
X187380028Y-67894663D01*
X187340453Y-67936368D01*
X187340651Y-67936626D01*
X187339027Y-67937872D01*
X187337415Y-67939571D01*
X187334982Y-67940975D01*
X187225214Y-68025204D01*
X187225204Y-68025214D01*
X187140976Y-68134981D01*
X187088026Y-68262814D01*
X187088024Y-68262821D01*
X187069965Y-68399997D01*
X187069965Y-68400002D01*
X187088024Y-68537178D01*
X187088026Y-68537185D01*
X187140063Y-68662814D01*
X187140976Y-68665018D01*
X187225209Y-68774791D01*
X187225213Y-68774794D01*
X187225214Y-68774795D01*
X187258064Y-68800002D01*
X187334982Y-68859024D01*
X187398899Y-68885499D01*
X187462814Y-68911973D01*
X187462821Y-68911975D01*
X187599997Y-68930035D01*
X187600000Y-68930035D01*
X187600003Y-68930035D01*
X187737178Y-68911975D01*
X187737180Y-68911974D01*
X187737183Y-68911974D01*
X187865018Y-68859024D01*
X187974791Y-68774791D01*
X188059024Y-68665018D01*
X188111974Y-68537183D01*
X188111975Y-68537174D01*
X188113552Y-68531292D01*
X188150241Y-68474793D01*
X188213131Y-68450650D01*
X188218839Y-68450500D01*
X188342879Y-68450500D01*
X188926825Y-68450500D01*
X188990894Y-68471317D01*
X189003900Y-68482425D01*
X190186602Y-69665127D01*
X190217185Y-69725151D01*
X190206647Y-69791687D01*
X190159012Y-69839322D01*
X190136170Y-69846415D01*
X190136501Y-69847651D01*
X190039235Y-69873713D01*
X190015023Y-69880200D01*
X190015021Y-69880201D01*
X189912296Y-69939510D01*
X187545322Y-72306484D01*
X187485298Y-72337067D01*
X187468247Y-72338409D01*
X186729600Y-72338409D01*
X186639235Y-72362622D01*
X186615023Y-72369109D01*
X186615021Y-72369110D01*
X186512296Y-72428419D01*
X184436575Y-74504139D01*
X184376551Y-74534722D01*
X184310015Y-74524184D01*
X184262380Y-74476549D01*
X184250500Y-74427064D01*
X184250500Y-71059858D01*
X184271317Y-70995789D01*
X184325817Y-70956193D01*
X184373727Y-70951791D01*
X184391855Y-70954177D01*
X184399999Y-70955250D01*
X184400000Y-70955250D01*
X184400003Y-70955250D01*
X184543704Y-70936331D01*
X184543706Y-70936330D01*
X184543709Y-70936330D01*
X184677625Y-70880861D01*
X184792621Y-70792621D01*
X184880861Y-70677625D01*
X184936330Y-70543709D01*
X184950355Y-70437185D01*
X184955250Y-70400002D01*
X184955250Y-70399997D01*
X184936331Y-70256295D01*
X184936329Y-70256288D01*
X184880860Y-70122373D01*
X184792625Y-70007384D01*
X184792624Y-70007383D01*
X184792621Y-70007379D01*
X184792616Y-70007375D01*
X184792615Y-70007374D01*
X184677626Y-69919139D01*
X184543711Y-69863670D01*
X184543704Y-69863668D01*
X184400003Y-69844750D01*
X184400002Y-69844750D01*
X184400000Y-69844750D01*
X184381059Y-69847243D01*
X184373726Y-69848209D01*
X184307489Y-69835931D01*
X184261118Y-69787066D01*
X184250500Y-69740141D01*
X184250500Y-68890693D01*
X184250499Y-68890689D01*
X184242014Y-68859024D01*
X184219799Y-68776114D01*
X184219799Y-68776113D01*
X184219798Y-68776111D01*
X184219798Y-68776110D01*
X184175055Y-68698614D01*
X184165128Y-68669367D01*
X184163823Y-68669717D01*
X184161974Y-68662817D01*
X184161973Y-68662814D01*
X184109024Y-68534983D01*
X184109023Y-68534982D01*
X184109023Y-68534981D01*
X184024795Y-68425214D01*
X184024794Y-68425213D01*
X184024791Y-68425209D01*
X184024786Y-68425205D01*
X184024785Y-68425204D01*
X183915018Y-68340976D01*
X183915014Y-68340974D01*
X183787185Y-68288026D01*
X183787178Y-68288024D01*
X183650003Y-68269965D01*
X183649997Y-68269965D01*
X183512821Y-68288024D01*
X183512814Y-68288026D01*
X183384981Y-68340976D01*
X183275214Y-68425204D01*
X183275204Y-68425214D01*
X183190976Y-68534981D01*
X183138026Y-68662814D01*
X183138024Y-68662821D01*
X183119965Y-68799997D01*
X183119965Y-68800002D01*
X183138024Y-68937178D01*
X183138026Y-68937185D01*
X183190974Y-69065014D01*
X183190976Y-69065018D01*
X183275209Y-69174791D01*
X183306856Y-69199075D01*
X183345011Y-69254591D01*
X183349500Y-69285549D01*
X183349500Y-69740141D01*
X183328683Y-69804210D01*
X183274183Y-69843806D01*
X183226274Y-69848209D01*
X183218940Y-69847243D01*
X183200000Y-69844750D01*
X183199999Y-69844750D01*
X183199998Y-69844750D01*
X183199997Y-69844750D01*
X183056295Y-69863668D01*
X183056288Y-69863670D01*
X182922373Y-69919139D01*
X182807384Y-70007374D01*
X182807374Y-70007384D01*
X182719139Y-70122373D01*
X182663670Y-70256288D01*
X182663668Y-70256295D01*
X182644750Y-70399997D01*
X182644750Y-70400002D01*
X182663668Y-70543704D01*
X182663670Y-70543711D01*
X182719139Y-70677626D01*
X182799555Y-70782425D01*
X182807379Y-70792621D01*
X182807383Y-70792624D01*
X182807384Y-70792625D01*
X182922373Y-70880860D01*
X183056288Y-70936329D01*
X183056295Y-70936331D01*
X183199997Y-70955250D01*
X183200000Y-70955250D01*
X183200001Y-70955250D01*
X183208144Y-70954177D01*
X183226271Y-70951791D01*
X183292509Y-70964066D01*
X183338881Y-71012931D01*
X183349500Y-71059858D01*
X183349500Y-74492723D01*
X183341203Y-74534435D01*
X183288026Y-74662814D01*
X183288024Y-74662821D01*
X183269965Y-74799997D01*
X183269965Y-74800002D01*
X183288024Y-74937178D01*
X183288026Y-74937185D01*
X183340974Y-75065014D01*
X183340976Y-75065018D01*
X183425209Y-75174791D01*
X183425213Y-75174794D01*
X183425214Y-75174795D01*
X183519387Y-75247057D01*
X183557543Y-75302575D01*
X183555780Y-75369917D01*
X183530107Y-75410607D01*
X183223140Y-75717575D01*
X183163117Y-75748158D01*
X183146065Y-75749500D01*
X181207278Y-75749500D01*
X181165566Y-75741203D01*
X181037185Y-75688026D01*
X181037178Y-75688024D01*
X180900003Y-75669965D01*
X180899997Y-75669965D01*
X180762821Y-75688024D01*
X180762814Y-75688026D01*
X180634981Y-75740976D01*
X180525214Y-75825204D01*
X180525204Y-75825214D01*
X180440976Y-75934981D01*
X180388026Y-76062814D01*
X180388024Y-76062821D01*
X180369965Y-76199997D01*
X180369965Y-76200002D01*
X180000000Y-76200002D01*
X180000000Y-72800002D01*
X180369965Y-72800002D01*
X180388024Y-72937178D01*
X180388026Y-72937185D01*
X180438741Y-73059623D01*
X180440976Y-73065018D01*
X180525209Y-73174791D01*
X180634982Y-73259024D01*
X180664702Y-73271334D01*
X180762814Y-73311973D01*
X180762821Y-73311975D01*
X180899997Y-73330035D01*
X180900000Y-73330035D01*
X180900003Y-73330035D01*
X181037178Y-73311975D01*
X181037180Y-73311974D01*
X181037183Y-73311974D01*
X181165018Y-73259024D01*
X181274791Y-73174791D01*
X181359024Y-73065018D01*
X181411974Y-72937183D01*
X181430035Y-72800000D01*
X181421765Y-72737183D01*
X181411975Y-72662821D01*
X181411973Y-72662814D01*
X181359023Y-72534981D01*
X181274795Y-72425214D01*
X181274794Y-72425213D01*
X181274791Y-72425209D01*
X181274786Y-72425205D01*
X181274785Y-72425204D01*
X181165018Y-72340976D01*
X181165014Y-72340974D01*
X181037185Y-72288026D01*
X181037178Y-72288024D01*
X180900003Y-72269965D01*
X180899997Y-72269965D01*
X180762821Y-72288024D01*
X180762814Y-72288026D01*
X180634981Y-72340976D01*
X180525214Y-72425204D01*
X180525204Y-72425214D01*
X180440976Y-72534981D01*
X180388026Y-72662814D01*
X180388024Y-72662821D01*
X180369965Y-72799997D01*
X180369965Y-72800002D01*
X180000000Y-72800002D01*
X180000000Y-56200001D01*
X181444750Y-56200001D01*
X181448567Y-56228991D01*
X181449500Y-56243220D01*
X181449500Y-56272475D01*
X181454821Y-56292334D01*
X181457072Y-56300735D01*
X181459852Y-56314715D01*
X181463668Y-56343704D01*
X181463671Y-56343714D01*
X181474861Y-56370729D01*
X181479443Y-56384227D01*
X181487014Y-56412481D01*
X181501639Y-56437813D01*
X181507943Y-56450598D01*
X181519137Y-56477621D01*
X181519139Y-56477625D01*
X181533363Y-56496163D01*
X181536945Y-56500831D01*
X181544863Y-56512681D01*
X181559489Y-56538013D01*
X181559492Y-56538016D01*
X181580176Y-56558701D01*
X181589571Y-56569413D01*
X181607379Y-56592621D01*
X181607383Y-56592624D01*
X181607385Y-56592626D01*
X181630584Y-56610428D01*
X181641301Y-56619826D01*
X181661983Y-56640507D01*
X181661985Y-56640509D01*
X181687321Y-56655137D01*
X181699155Y-56663044D01*
X181722375Y-56680861D01*
X181749403Y-56692056D01*
X181762184Y-56698359D01*
X181787515Y-56712984D01*
X181815776Y-56720556D01*
X181829266Y-56725135D01*
X181856291Y-56736330D01*
X181885297Y-56740148D01*
X181899268Y-56742928D01*
X181918001Y-56747948D01*
X181927520Y-56750499D01*
X181927523Y-56750499D01*
X181927525Y-56750500D01*
X181956779Y-56750500D01*
X181971007Y-56751433D01*
X181999998Y-56755250D01*
X182000000Y-56755250D01*
X182000002Y-56755250D01*
X182028993Y-56751433D01*
X182043221Y-56750500D01*
X183926825Y-56750500D01*
X183990894Y-56771317D01*
X184003900Y-56782425D01*
X185061985Y-57840510D01*
X185185779Y-57911981D01*
X185185784Y-57911987D01*
X185185785Y-57911985D01*
X185187515Y-57912984D01*
X185327525Y-57950500D01*
X186540500Y-57950500D01*
X186604569Y-57971317D01*
X186644165Y-58025817D01*
X186649500Y-58059500D01*
X186649500Y-63872476D01*
X186687016Y-64012485D01*
X186759010Y-64137183D01*
X186759491Y-64138015D01*
X186861985Y-64240509D01*
X186987515Y-64312984D01*
X187127525Y-64350500D01*
X187127527Y-64350500D01*
X187272473Y-64350500D01*
X187272475Y-64350500D01*
X187412485Y-64312984D01*
X187538015Y-64240509D01*
X187640509Y-64138015D01*
X187712984Y-64012485D01*
X187750500Y-63872475D01*
X187750500Y-61400002D01*
X188469965Y-61400002D01*
X188488024Y-61537178D01*
X188488026Y-61537185D01*
X188541203Y-61665566D01*
X188549500Y-61707278D01*
X188549500Y-63059312D01*
X188573713Y-63149673D01*
X188580201Y-63173887D01*
X188580200Y-63173887D01*
X188631563Y-63262848D01*
X188639511Y-63276614D01*
X190617576Y-65254679D01*
X190648158Y-65314701D01*
X190649500Y-65331752D01*
X190649500Y-65461504D01*
X190628683Y-65525573D01*
X190574183Y-65565169D01*
X190506817Y-65565169D01*
X190474147Y-65547981D01*
X190473813Y-65547725D01*
X190465018Y-65540976D01*
X190465015Y-65540974D01*
X190465014Y-65540974D01*
X190337185Y-65488026D01*
X190337178Y-65488024D01*
X190200003Y-65469965D01*
X190199997Y-65469965D01*
X190062821Y-65488024D01*
X190062814Y-65488026D01*
X189934981Y-65540976D01*
X189825214Y-65625204D01*
X189825204Y-65625214D01*
X189740976Y-65734981D01*
X189688026Y-65862814D01*
X189688024Y-65862821D01*
X189669965Y-65999997D01*
X189669965Y-66000002D01*
X189688024Y-66137178D01*
X189688026Y-66137185D01*
X189740974Y-66265014D01*
X189740976Y-66265018D01*
X189760894Y-66290976D01*
X189825209Y-66374791D01*
X189934982Y-66459024D01*
X189948041Y-66464433D01*
X190062814Y-66511973D01*
X190062821Y-66511975D01*
X190199997Y-66530035D01*
X190200000Y-66530035D01*
X190200003Y-66530035D01*
X190337178Y-66511975D01*
X190337180Y-66511974D01*
X190337183Y-66511974D01*
X190465018Y-66459024D01*
X190474144Y-66452020D01*
X190537645Y-66429532D01*
X190602237Y-66448664D01*
X190643247Y-66502108D01*
X190649500Y-66538495D01*
X190649500Y-66692723D01*
X190641203Y-66734435D01*
X190588026Y-66862814D01*
X190588024Y-66862821D01*
X190569965Y-66999997D01*
X190569965Y-67000002D01*
X190588024Y-67137178D01*
X190588026Y-67137185D01*
X190640976Y-67265019D01*
X190646144Y-67271754D01*
X190668631Y-67335256D01*
X190649497Y-67399847D01*
X190630242Y-67420139D01*
X190630261Y-67420158D01*
X190629557Y-67420861D01*
X190626033Y-67424576D01*
X190625215Y-67425203D01*
X190625204Y-67425214D01*
X190540976Y-67534981D01*
X190488026Y-67662814D01*
X190488024Y-67662821D01*
X190469965Y-67799997D01*
X190469965Y-67800002D01*
X190488024Y-67937178D01*
X190488026Y-67937185D01*
X190540974Y-68065014D01*
X190540976Y-68065018D01*
X190617709Y-68165018D01*
X190625209Y-68174791D01*
X190734982Y-68259024D01*
X190798899Y-68285499D01*
X190862814Y-68311973D01*
X190862821Y-68311975D01*
X190999997Y-68330035D01*
X191000000Y-68330035D01*
X191000003Y-68330035D01*
X191137178Y-68311975D01*
X191137180Y-68311974D01*
X191137183Y-68311974D01*
X191265018Y-68259024D01*
X191374791Y-68174791D01*
X191459024Y-68065018D01*
X191511974Y-67937183D01*
X191512048Y-67936626D01*
X191530035Y-67800002D01*
X191530035Y-67799997D01*
X191511975Y-67662821D01*
X191511973Y-67662814D01*
X191459023Y-67534981D01*
X191453856Y-67528247D01*
X191431367Y-67464746D01*
X191450499Y-67400154D01*
X191469758Y-67379861D01*
X191469739Y-67379842D01*
X191470481Y-67379099D01*
X191473980Y-67375413D01*
X191474791Y-67374791D01*
X191559024Y-67265018D01*
X191611974Y-67137183D01*
X191613606Y-67124791D01*
X191630035Y-67000002D01*
X191630035Y-66999997D01*
X191611975Y-66862821D01*
X191611973Y-66862814D01*
X191565245Y-66750002D01*
X192971281Y-66750002D01*
X192989340Y-66887178D01*
X192989342Y-66887185D01*
X193042290Y-67015014D01*
X193042292Y-67015018D01*
X193117931Y-67113592D01*
X193126525Y-67124791D01*
X193236298Y-67209024D01*
X193300215Y-67235499D01*
X193364130Y-67261973D01*
X193364137Y-67261975D01*
X193501313Y-67280035D01*
X193501316Y-67280035D01*
X193501319Y-67280035D01*
X193638494Y-67261975D01*
X193638496Y-67261974D01*
X193638499Y-67261974D01*
X193766334Y-67209024D01*
X193876107Y-67124791D01*
X193960340Y-67015018D01*
X194013290Y-66887183D01*
X194016498Y-66862821D01*
X194031351Y-66750002D01*
X194031351Y-66749997D01*
X194013291Y-66612821D01*
X194013289Y-66612814D01*
X193971520Y-66511974D01*
X193960340Y-66484983D01*
X193960339Y-66484982D01*
X193960339Y-66484981D01*
X193876111Y-66375214D01*
X193876110Y-66375213D01*
X193876107Y-66375209D01*
X193876102Y-66375205D01*
X193876101Y-66375204D01*
X193766334Y-66290976D01*
X193766330Y-66290974D01*
X193638501Y-66238026D01*
X193638494Y-66238024D01*
X193501319Y-66219965D01*
X193501313Y-66219965D01*
X193364137Y-66238024D01*
X193364130Y-66238026D01*
X193236297Y-66290976D01*
X193126530Y-66375204D01*
X193126520Y-66375214D01*
X193042292Y-66484981D01*
X192989342Y-66612814D01*
X192989340Y-66612821D01*
X192971281Y-66749997D01*
X192971281Y-66750002D01*
X191565245Y-66750002D01*
X191558797Y-66734435D01*
X191550500Y-66692723D01*
X191550500Y-65040693D01*
X191550499Y-65040687D01*
X191519799Y-64926114D01*
X191473112Y-64845250D01*
X191460489Y-64823386D01*
X190637105Y-64000002D01*
X191369965Y-64000002D01*
X191388024Y-64137178D01*
X191388026Y-64137185D01*
X191440974Y-64265014D01*
X191440976Y-64265018D01*
X191515761Y-64362479D01*
X191525209Y-64374791D01*
X191634982Y-64459024D01*
X191691058Y-64482251D01*
X191762814Y-64511973D01*
X191762821Y-64511975D01*
X191899997Y-64530035D01*
X191900000Y-64530035D01*
X191900003Y-64530035D01*
X192037178Y-64511975D01*
X192037180Y-64511974D01*
X192037183Y-64511974D01*
X192165018Y-64459024D01*
X192274791Y-64374791D01*
X192280979Y-64366727D01*
X192336497Y-64328571D01*
X192403839Y-64330334D01*
X192453929Y-64366727D01*
X192528881Y-64464406D01*
X192531796Y-64468204D01*
X192531799Y-64468206D01*
X192531801Y-64468208D01*
X192574759Y-64501171D01*
X192641569Y-64552437D01*
X192678227Y-64567621D01*
X192769401Y-64605386D01*
X192769408Y-64605388D01*
X192906584Y-64623448D01*
X192906587Y-64623448D01*
X192906590Y-64623448D01*
X193043765Y-64605388D01*
X193043767Y-64605387D01*
X193043770Y-64605387D01*
X193171605Y-64552437D01*
X193281378Y-64468204D01*
X193281384Y-64468195D01*
X193285175Y-64464406D01*
X193345197Y-64433819D01*
X193411733Y-64444353D01*
X193448727Y-64475119D01*
X193477007Y-64511974D01*
X193519708Y-64567623D01*
X193525209Y-64574791D01*
X193634982Y-64659024D01*
X193691942Y-64682617D01*
X193762814Y-64711973D01*
X193762821Y-64711975D01*
X193899997Y-64730035D01*
X193900000Y-64730035D01*
X193900003Y-64730035D01*
X194037178Y-64711975D01*
X194037180Y-64711974D01*
X194037183Y-64711974D01*
X194165018Y-64659024D01*
X194274791Y-64574791D01*
X194359024Y-64465018D01*
X194411974Y-64337183D01*
X194418187Y-64289997D01*
X194430035Y-64200002D01*
X194430035Y-64199997D01*
X194411975Y-64062821D01*
X194411973Y-64062814D01*
X194359023Y-63934981D01*
X194274795Y-63825214D01*
X194274794Y-63825213D01*
X194274791Y-63825209D01*
X194274786Y-63825205D01*
X194274785Y-63825204D01*
X194165018Y-63740976D01*
X194165014Y-63740974D01*
X194037185Y-63688026D01*
X194037178Y-63688024D01*
X193900003Y-63669965D01*
X193899997Y-63669965D01*
X193762821Y-63688024D01*
X193762814Y-63688026D01*
X193634981Y-63740976D01*
X193525207Y-63825209D01*
X193521402Y-63829015D01*
X193461377Y-63859595D01*
X193394842Y-63849053D01*
X193357857Y-63818291D01*
X193281382Y-63718627D01*
X193281381Y-63718626D01*
X193281378Y-63718622D01*
X193281373Y-63718618D01*
X193281372Y-63718617D01*
X193171605Y-63634389D01*
X193171601Y-63634387D01*
X193043772Y-63581439D01*
X193043765Y-63581437D01*
X192906590Y-63563378D01*
X192906584Y-63563378D01*
X192769408Y-63581437D01*
X192769401Y-63581439D01*
X192641568Y-63634389D01*
X192531801Y-63718617D01*
X192531791Y-63718627D01*
X192525606Y-63726688D01*
X192470087Y-63764843D01*
X192402744Y-63763077D01*
X192352658Y-63726686D01*
X192300738Y-63659024D01*
X192274791Y-63625209D01*
X192274786Y-63625205D01*
X192274785Y-63625204D01*
X192165018Y-63540976D01*
X192165014Y-63540974D01*
X192037185Y-63488026D01*
X192037178Y-63488024D01*
X191900003Y-63469965D01*
X191899997Y-63469965D01*
X191762821Y-63488024D01*
X191762814Y-63488026D01*
X191634981Y-63540976D01*
X191525214Y-63625204D01*
X191525204Y-63625214D01*
X191440976Y-63734981D01*
X191388026Y-63862814D01*
X191388024Y-63862821D01*
X191369965Y-63999997D01*
X191369965Y-64000002D01*
X190637105Y-64000002D01*
X190538886Y-63901783D01*
X190508303Y-63841759D01*
X190518841Y-63775223D01*
X190566476Y-63727588D01*
X190601729Y-63716641D01*
X190637183Y-63711974D01*
X190765018Y-63659024D01*
X190874791Y-63574791D01*
X190959024Y-63465018D01*
X191011974Y-63337183D01*
X191019949Y-63276614D01*
X191030035Y-63200002D01*
X191030035Y-63199997D01*
X191011975Y-63062821D01*
X191011973Y-63062814D01*
X190959023Y-62934981D01*
X190874795Y-62825214D01*
X190874794Y-62825213D01*
X190874791Y-62825209D01*
X190874786Y-62825205D01*
X190874785Y-62825204D01*
X190765018Y-62740976D01*
X190765014Y-62740974D01*
X190637185Y-62688026D01*
X190637178Y-62688024D01*
X190500003Y-62669965D01*
X190499997Y-62669965D01*
X190362821Y-62688024D01*
X190362814Y-62688026D01*
X190234981Y-62740976D01*
X190125214Y-62825204D01*
X190125204Y-62825214D01*
X190040976Y-62934981D01*
X189988026Y-63062814D01*
X189988024Y-63062821D01*
X189983358Y-63098267D01*
X189954356Y-63159070D01*
X189895153Y-63191213D01*
X189828364Y-63182419D01*
X189798216Y-63161113D01*
X189482425Y-62845322D01*
X189451842Y-62785298D01*
X189450500Y-62768247D01*
X189450500Y-61707278D01*
X189458797Y-61665566D01*
X189459024Y-61665018D01*
X189511974Y-61537183D01*
X189529829Y-61401570D01*
X189530035Y-61400002D01*
X189530035Y-61399997D01*
X189511975Y-61262821D01*
X189511973Y-61262814D01*
X189459023Y-61134981D01*
X189374795Y-61025214D01*
X189374794Y-61025213D01*
X189374791Y-61025209D01*
X189374786Y-61025205D01*
X189374785Y-61025204D01*
X189265018Y-60940976D01*
X189265014Y-60940974D01*
X189137185Y-60888026D01*
X189137178Y-60888024D01*
X189000003Y-60869965D01*
X188999997Y-60869965D01*
X188862821Y-60888024D01*
X188862814Y-60888026D01*
X188734981Y-60940976D01*
X188625214Y-61025204D01*
X188625204Y-61025214D01*
X188540976Y-61134981D01*
X188488026Y-61262814D01*
X188488024Y-61262821D01*
X188469965Y-61399997D01*
X188469965Y-61400002D01*
X187750500Y-61400002D01*
X187750500Y-59800002D01*
X189169965Y-59800002D01*
X189188024Y-59937178D01*
X189188026Y-59937185D01*
X189240974Y-60065014D01*
X189240976Y-60065018D01*
X189311014Y-60156293D01*
X189325209Y-60174791D01*
X189434982Y-60259024D01*
X189463912Y-60271007D01*
X189562814Y-60311973D01*
X189562821Y-60311975D01*
X189699997Y-60330035D01*
X189700000Y-60330035D01*
X189700003Y-60330035D01*
X189837178Y-60311975D01*
X189837180Y-60311974D01*
X189837183Y-60311974D01*
X189965018Y-60259024D01*
X190074791Y-60174791D01*
X190159024Y-60065018D01*
X190211974Y-59937183D01*
X190212843Y-59930588D01*
X190230035Y-59800002D01*
X190230035Y-59799997D01*
X190211975Y-59662821D01*
X190211973Y-59662814D01*
X190167419Y-59555250D01*
X190159024Y-59534983D01*
X190159023Y-59534982D01*
X190159023Y-59534981D01*
X190074795Y-59425214D01*
X190074794Y-59425213D01*
X190074791Y-59425209D01*
X190074786Y-59425205D01*
X190074785Y-59425204D01*
X189965018Y-59340976D01*
X189965014Y-59340974D01*
X189837185Y-59288026D01*
X189837178Y-59288024D01*
X189700003Y-59269965D01*
X189699997Y-59269965D01*
X189562821Y-59288024D01*
X189562814Y-59288026D01*
X189434981Y-59340976D01*
X189325214Y-59425204D01*
X189325204Y-59425214D01*
X189240976Y-59534981D01*
X189188026Y-59662814D01*
X189188024Y-59662821D01*
X189169965Y-59799997D01*
X189169965Y-59800002D01*
X187750500Y-59800002D01*
X187750500Y-58059500D01*
X187771317Y-57995431D01*
X187825817Y-57955835D01*
X187859500Y-57950500D01*
X189272473Y-57950500D01*
X189272474Y-57950500D01*
X189272475Y-57950500D01*
X189412485Y-57912984D01*
X189414214Y-57911985D01*
X189414215Y-57911987D01*
X189414219Y-57911982D01*
X189538015Y-57840510D01*
X189995629Y-57382894D01*
X190055651Y-57352313D01*
X190122187Y-57362851D01*
X190149773Y-57382893D01*
X191457390Y-58690510D01*
X191561297Y-58750500D01*
X191582920Y-58762984D01*
X191722930Y-58800500D01*
X191722931Y-58800500D01*
X191867879Y-58800500D01*
X196690500Y-58800500D01*
X196754569Y-58821317D01*
X196794165Y-58875817D01*
X196799500Y-58909500D01*
X196799500Y-64246779D01*
X196798567Y-64261007D01*
X196794750Y-64289997D01*
X196794750Y-64290001D01*
X196798567Y-64318991D01*
X196799500Y-64333220D01*
X196799500Y-64362475D01*
X196802800Y-64374791D01*
X196807072Y-64390735D01*
X196809852Y-64404715D01*
X196813668Y-64433704D01*
X196813671Y-64433714D01*
X196824861Y-64460729D01*
X196829443Y-64474227D01*
X196837014Y-64502481D01*
X196837015Y-64502484D01*
X196837016Y-64502485D01*
X196842495Y-64511975D01*
X196851639Y-64527813D01*
X196857943Y-64540598D01*
X196869137Y-64567621D01*
X196869139Y-64567625D01*
X196874633Y-64574785D01*
X196886945Y-64590831D01*
X196894863Y-64602681D01*
X196909489Y-64628013D01*
X196909492Y-64628016D01*
X196930176Y-64648701D01*
X196939571Y-64659413D01*
X196957379Y-64682621D01*
X196957382Y-64682623D01*
X196957385Y-64682626D01*
X196980584Y-64700428D01*
X196991301Y-64709826D01*
X197011511Y-64730035D01*
X197011985Y-64730509D01*
X197037321Y-64745137D01*
X197049155Y-64753044D01*
X197072375Y-64770861D01*
X197099403Y-64782056D01*
X197112184Y-64788359D01*
X197137515Y-64802984D01*
X197165776Y-64810556D01*
X197179266Y-64815135D01*
X197206291Y-64826330D01*
X197235297Y-64830148D01*
X197249268Y-64832928D01*
X197268001Y-64837948D01*
X197277520Y-64840499D01*
X197277523Y-64840499D01*
X197277525Y-64840500D01*
X197306779Y-64840500D01*
X197321007Y-64841433D01*
X197349998Y-64845250D01*
X197350000Y-64845250D01*
X197350002Y-64845250D01*
X197378993Y-64841433D01*
X197393221Y-64840500D01*
X197422475Y-64840500D01*
X197422479Y-64840499D01*
X197430377Y-64838382D01*
X197450725Y-64832929D01*
X197464707Y-64830147D01*
X197493709Y-64826330D01*
X197520734Y-64815135D01*
X197534221Y-64810556D01*
X197562485Y-64802984D01*
X197587821Y-64788355D01*
X197600594Y-64782056D01*
X197627625Y-64770861D01*
X197650835Y-64753050D01*
X197662690Y-64745130D01*
X197688008Y-64730513D01*
X197688007Y-64730513D01*
X197688015Y-64730509D01*
X197708694Y-64709828D01*
X197719416Y-64700426D01*
X197742621Y-64682621D01*
X197760427Y-64659414D01*
X197769830Y-64648693D01*
X197773648Y-64644875D01*
X197790509Y-64628015D01*
X197805131Y-64602687D01*
X197813054Y-64590831D01*
X197830861Y-64567625D01*
X197842056Y-64540594D01*
X197848360Y-64527813D01*
X197862984Y-64502485D01*
X197870556Y-64474221D01*
X197875137Y-64460729D01*
X197886330Y-64433709D01*
X197890147Y-64404707D01*
X197892930Y-64390723D01*
X197897199Y-64374795D01*
X197900500Y-64362475D01*
X197900500Y-64333220D01*
X197901433Y-64318991D01*
X197905250Y-64290001D01*
X197905250Y-64289997D01*
X197901433Y-64261007D01*
X197900500Y-64246779D01*
X197900500Y-59000002D01*
X198244750Y-59000002D01*
X198263668Y-59143704D01*
X198263670Y-59143711D01*
X198319139Y-59277626D01*
X198367750Y-59340976D01*
X198407379Y-59392621D01*
X198407382Y-59392623D01*
X198407384Y-59392625D01*
X198475009Y-59444516D01*
X198522375Y-59480861D01*
X198529925Y-59483988D01*
X198581152Y-59527738D01*
X198596879Y-59593242D01*
X198571101Y-59655480D01*
X198554571Y-59671167D01*
X198507381Y-59707377D01*
X198507374Y-59707384D01*
X198419139Y-59822373D01*
X198363670Y-59956288D01*
X198363668Y-59956295D01*
X198344750Y-60099997D01*
X198344750Y-60100002D01*
X198363668Y-60243704D01*
X198363670Y-60243711D01*
X198419139Y-60377626D01*
X198507374Y-60492615D01*
X198507379Y-60492621D01*
X198507383Y-60492624D01*
X198507384Y-60492625D01*
X198622373Y-60580860D01*
X198756288Y-60636329D01*
X198756295Y-60636331D01*
X198899997Y-60655250D01*
X198900000Y-60655250D01*
X198900003Y-60655250D01*
X199043704Y-60636331D01*
X199043706Y-60636330D01*
X199043709Y-60636330D01*
X199177625Y-60580861D01*
X199292621Y-60492621D01*
X199380861Y-60377625D01*
X199436330Y-60243709D01*
X199438462Y-60227520D01*
X199455250Y-60100002D01*
X199455250Y-60099997D01*
X199436331Y-59956295D01*
X199436329Y-59956288D01*
X199380860Y-59822373D01*
X199292625Y-59707384D01*
X199292624Y-59707383D01*
X199292621Y-59707379D01*
X199292616Y-59707375D01*
X199292615Y-59707374D01*
X199177625Y-59619138D01*
X199170070Y-59616009D01*
X199118845Y-59572258D01*
X199103120Y-59506754D01*
X199128901Y-59444516D01*
X199145423Y-59428836D01*
X199192621Y-59392621D01*
X199280861Y-59277625D01*
X199336330Y-59143709D01*
X199355250Y-59000000D01*
X199355250Y-58999997D01*
X199336331Y-58856295D01*
X199336329Y-58856288D01*
X199297681Y-58762983D01*
X199280861Y-58722375D01*
X199280860Y-58722374D01*
X199280860Y-58722373D01*
X199192625Y-58607384D01*
X199192624Y-58607383D01*
X199192621Y-58607379D01*
X199192616Y-58607375D01*
X199192615Y-58607374D01*
X199077626Y-58519139D01*
X198943711Y-58463670D01*
X198943704Y-58463668D01*
X198800003Y-58444750D01*
X198799997Y-58444750D01*
X198656295Y-58463668D01*
X198656288Y-58463670D01*
X198522373Y-58519139D01*
X198407384Y-58607374D01*
X198407374Y-58607384D01*
X198319139Y-58722373D01*
X198263670Y-58856288D01*
X198263668Y-58856295D01*
X198244750Y-58999997D01*
X198244750Y-59000002D01*
X197900500Y-59000002D01*
X197900500Y-58473173D01*
X197921317Y-58409104D01*
X197932426Y-58396098D01*
X198151000Y-58177525D01*
X198269025Y-58059500D01*
X198740510Y-57588015D01*
X198812984Y-57462485D01*
X198850500Y-57322474D01*
X198850500Y-57177526D01*
X198812984Y-57037515D01*
X198740510Y-56911985D01*
X198638015Y-56809490D01*
X198629491Y-56804569D01*
X198512487Y-56737017D01*
X198512486Y-56737016D01*
X198512485Y-56737016D01*
X198512482Y-56737015D01*
X198512479Y-56737014D01*
X198509926Y-56736329D01*
X198509926Y-56736330D01*
X198372478Y-56699500D01*
X198372475Y-56699500D01*
X198372474Y-56699500D01*
X198227526Y-56699500D01*
X198227522Y-56699500D01*
X198087515Y-56737015D01*
X197961987Y-56809488D01*
X197103900Y-57667575D01*
X197043876Y-57698158D01*
X197026825Y-57699500D01*
X192068580Y-57699500D01*
X192004511Y-57678683D01*
X191991505Y-57667575D01*
X190928302Y-56604372D01*
X190897719Y-56544348D01*
X190908257Y-56477812D01*
X190928302Y-56450222D01*
X191221745Y-56156779D01*
X191640510Y-55738015D01*
X191712984Y-55612485D01*
X191750500Y-55472474D01*
X191750500Y-55441329D01*
X191771317Y-55377260D01*
X191825817Y-55337664D01*
X191879310Y-55336266D01*
X191879502Y-55334810D01*
X192023765Y-55353803D01*
X192023768Y-55353803D01*
X192023771Y-55353803D01*
X192160946Y-55335743D01*
X192160948Y-55335742D01*
X192160951Y-55335742D01*
X192288786Y-55282792D01*
X192398559Y-55198559D01*
X192474186Y-55100002D01*
X194669965Y-55100002D01*
X194688024Y-55237178D01*
X194688026Y-55237185D01*
X194740974Y-55365014D01*
X194740976Y-55365018D01*
X194823428Y-55472471D01*
X194825209Y-55474791D01*
X194934982Y-55559024D01*
X194998899Y-55585499D01*
X195062814Y-55611973D01*
X195062821Y-55611975D01*
X195199997Y-55630035D01*
X195200000Y-55630035D01*
X195200003Y-55630035D01*
X195337178Y-55611975D01*
X195337180Y-55611974D01*
X195337183Y-55611974D01*
X195465018Y-55559024D01*
X195574791Y-55474791D01*
X195659024Y-55365018D01*
X195711974Y-55237183D01*
X195730035Y-55100000D01*
X195711974Y-54962817D01*
X195703759Y-54942985D01*
X195659023Y-54834981D01*
X195574795Y-54725214D01*
X195574794Y-54725213D01*
X195574791Y-54725209D01*
X195574786Y-54725205D01*
X195574785Y-54725204D01*
X195465018Y-54640976D01*
X195465014Y-54640974D01*
X195337185Y-54588026D01*
X195337178Y-54588024D01*
X195200003Y-54569965D01*
X195199997Y-54569965D01*
X195062821Y-54588024D01*
X195062814Y-54588026D01*
X194934981Y-54640976D01*
X194825214Y-54725204D01*
X194825204Y-54725214D01*
X194740976Y-54834981D01*
X194688026Y-54962814D01*
X194688024Y-54962821D01*
X194669965Y-55099997D01*
X194669965Y-55100002D01*
X192474186Y-55100002D01*
X192482792Y-55088786D01*
X192535742Y-54960951D01*
X192535935Y-54959490D01*
X192553803Y-54823770D01*
X192553803Y-54823765D01*
X192535743Y-54686589D01*
X192535741Y-54686582D01*
X192494917Y-54588024D01*
X192482792Y-54558751D01*
X192482791Y-54558750D01*
X192482791Y-54558749D01*
X192398563Y-54448982D01*
X192398562Y-54448981D01*
X192398559Y-54448977D01*
X192398554Y-54448973D01*
X192398553Y-54448972D01*
X192288786Y-54364744D01*
X192288782Y-54364742D01*
X192160953Y-54311794D01*
X192160946Y-54311792D01*
X192023771Y-54293733D01*
X192023765Y-54293733D01*
X191886589Y-54311792D01*
X191886582Y-54311794D01*
X191758749Y-54364744D01*
X191648982Y-54448972D01*
X191648972Y-54448982D01*
X191564744Y-54558749D01*
X191511794Y-54686582D01*
X191511792Y-54686589D01*
X191499144Y-54782662D01*
X191470142Y-54843465D01*
X191410940Y-54875609D01*
X191362866Y-54873720D01*
X191272477Y-54849500D01*
X191272474Y-54849500D01*
X191127526Y-54849500D01*
X191127522Y-54849500D01*
X190987515Y-54887015D01*
X190861987Y-54959488D01*
X189003900Y-56817575D01*
X188943876Y-56848158D01*
X188926825Y-56849500D01*
X188559500Y-56849500D01*
X188495431Y-56828683D01*
X188455835Y-56774183D01*
X188450500Y-56740500D01*
X188450500Y-54200002D01*
X188769965Y-54200002D01*
X188788024Y-54337178D01*
X188788026Y-54337185D01*
X188840974Y-54465014D01*
X188840976Y-54465018D01*
X188921505Y-54569965D01*
X188925209Y-54574791D01*
X189034982Y-54659024D01*
X189098899Y-54685499D01*
X189162814Y-54711973D01*
X189162821Y-54711975D01*
X189299997Y-54730035D01*
X189300000Y-54730035D01*
X189300003Y-54730035D01*
X189437178Y-54711975D01*
X189437180Y-54711974D01*
X189437183Y-54711974D01*
X189565018Y-54659024D01*
X189674791Y-54574791D01*
X189759024Y-54465018D01*
X189811974Y-54337183D01*
X189817695Y-54293733D01*
X189830035Y-54200002D01*
X189830035Y-54199997D01*
X189811975Y-54062821D01*
X189811973Y-54062814D01*
X189768982Y-53959024D01*
X189759024Y-53934983D01*
X189759023Y-53934982D01*
X189759023Y-53934981D01*
X189674795Y-53825214D01*
X189674794Y-53825213D01*
X189674791Y-53825209D01*
X189674786Y-53825205D01*
X189674785Y-53825204D01*
X189565018Y-53740976D01*
X189565014Y-53740974D01*
X189437185Y-53688026D01*
X189437178Y-53688024D01*
X189300003Y-53669965D01*
X189299997Y-53669965D01*
X189162821Y-53688024D01*
X189162814Y-53688026D01*
X189034981Y-53740976D01*
X188925214Y-53825204D01*
X188925204Y-53825214D01*
X188840976Y-53934981D01*
X188788026Y-54062814D01*
X188788024Y-54062821D01*
X188769965Y-54199997D01*
X188769965Y-54200002D01*
X188450500Y-54200002D01*
X188450500Y-53669563D01*
X188469795Y-53607643D01*
X188524818Y-53527930D01*
X188535410Y-53500002D01*
X189869965Y-53500002D01*
X189888024Y-53637178D01*
X189888026Y-53637185D01*
X189940974Y-53765014D01*
X189940976Y-53765018D01*
X189987166Y-53825214D01*
X190025209Y-53874791D01*
X190134982Y-53959024D01*
X190198899Y-53985499D01*
X190262814Y-54011973D01*
X190262821Y-54011975D01*
X190399997Y-54030035D01*
X190400000Y-54030035D01*
X190400003Y-54030035D01*
X190537178Y-54011975D01*
X190537180Y-54011974D01*
X190537183Y-54011974D01*
X190665018Y-53959024D01*
X190774791Y-53874791D01*
X190859024Y-53765018D01*
X190911974Y-53637183D01*
X190926359Y-53527927D01*
X190930035Y-53500002D01*
X190930035Y-53499997D01*
X190911975Y-53362821D01*
X190911973Y-53362814D01*
X190859023Y-53234981D01*
X190774795Y-53125214D01*
X190774794Y-53125213D01*
X190774791Y-53125209D01*
X190774786Y-53125205D01*
X190774785Y-53125204D01*
X190665018Y-53040976D01*
X190665014Y-53040974D01*
X190537185Y-52988026D01*
X190537178Y-52988024D01*
X190400003Y-52969965D01*
X190399997Y-52969965D01*
X190262821Y-52988024D01*
X190262814Y-52988026D01*
X190134981Y-53040976D01*
X190025214Y-53125204D01*
X190025204Y-53125214D01*
X189940976Y-53234981D01*
X189888026Y-53362814D01*
X189888024Y-53362821D01*
X189869965Y-53499997D01*
X189869965Y-53500002D01*
X188535410Y-53500002D01*
X188585140Y-53368872D01*
X188585140Y-53368870D01*
X188585141Y-53368868D01*
X188605645Y-53200002D01*
X188605645Y-53199997D01*
X188585141Y-53031131D01*
X188585140Y-53031128D01*
X188524819Y-52872072D01*
X188524815Y-52872065D01*
X188428184Y-52732072D01*
X188428183Y-52732071D01*
X188300852Y-52619266D01*
X188300850Y-52619265D01*
X188300849Y-52619264D01*
X188150226Y-52540210D01*
X187985057Y-52499500D01*
X187985056Y-52499500D01*
X187814944Y-52499500D01*
X187814942Y-52499500D01*
X187649773Y-52540210D01*
X187499150Y-52619264D01*
X187499143Y-52619270D01*
X187371816Y-52732071D01*
X187371815Y-52732072D01*
X187275184Y-52872065D01*
X187275180Y-52872072D01*
X187214859Y-53031128D01*
X187214858Y-53031131D01*
X187194355Y-53199997D01*
X187194355Y-53200002D01*
X187214858Y-53368868D01*
X187214859Y-53368871D01*
X187275180Y-53527927D01*
X187275181Y-53527929D01*
X187330205Y-53607643D01*
X187349500Y-53669563D01*
X187349500Y-56740500D01*
X187328683Y-56804569D01*
X187274183Y-56844165D01*
X187240500Y-56849500D01*
X185673175Y-56849500D01*
X185609106Y-56828683D01*
X185596100Y-56817575D01*
X185079260Y-56300735D01*
X184538015Y-55759490D01*
X184538012Y-55759488D01*
X184412484Y-55687015D01*
X184330388Y-55665018D01*
X184330387Y-55665017D01*
X184272478Y-55649500D01*
X184272475Y-55649500D01*
X182043221Y-55649500D01*
X182028993Y-55648567D01*
X182000002Y-55644750D01*
X181999998Y-55644750D01*
X181971007Y-55648567D01*
X181956779Y-55649500D01*
X181927525Y-55649500D01*
X181899846Y-55656916D01*
X181899265Y-55657072D01*
X181885285Y-55659852D01*
X181856293Y-55663669D01*
X181829266Y-55674863D01*
X181815772Y-55679443D01*
X181787522Y-55687013D01*
X181787513Y-55687017D01*
X181762181Y-55701641D01*
X181749400Y-55707944D01*
X181722376Y-55719138D01*
X181722375Y-55719138D01*
X181699167Y-55736946D01*
X181687321Y-55744862D01*
X181661984Y-55759491D01*
X181641302Y-55780173D01*
X181630588Y-55789568D01*
X181607383Y-55807374D01*
X181607374Y-55807383D01*
X181589568Y-55830588D01*
X181580173Y-55841302D01*
X181559491Y-55861984D01*
X181544862Y-55887321D01*
X181536946Y-55899167D01*
X181519138Y-55922375D01*
X181519138Y-55922376D01*
X181507944Y-55949400D01*
X181501641Y-55962181D01*
X181487017Y-55987513D01*
X181487013Y-55987522D01*
X181479443Y-56015772D01*
X181474863Y-56029266D01*
X181463669Y-56056293D01*
X181459852Y-56085285D01*
X181457072Y-56099265D01*
X181449500Y-56127526D01*
X181449500Y-56156779D01*
X181448567Y-56171007D01*
X181444750Y-56199997D01*
X181444750Y-56200001D01*
X180000000Y-56200001D01*
X180000000Y-52003889D01*
X180000278Y-51996113D01*
X180019801Y-51723138D01*
X180022011Y-51707764D01*
X180079357Y-51444150D01*
X180083735Y-51429239D01*
X180178016Y-51176461D01*
X180184470Y-51162331D01*
X180313760Y-50925553D01*
X180322160Y-50912482D01*
X180483831Y-50696516D01*
X180494003Y-50684776D01*
X180684776Y-50494003D01*
X180696516Y-50483831D01*
X180912482Y-50322160D01*
X180925553Y-50313760D01*
X181162331Y-50184470D01*
X181176461Y-50178016D01*
X181429239Y-50083735D01*
X181444150Y-50079357D01*
X181707764Y-50022011D01*
X181723138Y-50019801D01*
X181996113Y-50000277D01*
X182003889Y-50000000D01*
X197996111Y-50000000D01*
X198003886Y-50000277D01*
G37*
%TD.AperFunction*%
%TD*%
M02*
