M48
; DRILL file {KiCad 8.0.0} date 2024-02-29T09:48:40+0300
; FORMAT={-:-/ absolute / metric / decimal}
; #@! TF.CreationDate,2024-02-29T09:48:40+03:00
; #@! TF.GenerationSoftware,Kicad,Pcbnew,8.0.0
; #@! TF.FileFunction,MixedPlating,1,4
FMAT,2
METRIC
; #@! TA.AperFunction,Plated,PTH,ViaDrill
T1C0.250
; #@! TA.AperFunction,Plated,PTH,ViaDrill
T2C0.300
%
G90
G05
T1
X180.9Y-72.8
X180.9Y-76.2
X181.0Y-78.597
X182.96Y-59.312
X183.65Y-68.8
X183.8Y-74.8
X183.96Y-60.012
X185.9Y-76.0
X186.1Y-68.4
X186.5Y-79.4
X186.8Y-76.0
X187.2Y-63.8
X187.25Y-79.15
X187.6Y-68.4
X187.75Y-75.775
X188.301Y-66.976
X189.0Y-61.4
X189.0Y-64.5
X189.2Y-67.9
X189.3Y-54.2
X189.7Y-59.8
X190.0Y-75.95
X190.2Y-66.0
X190.3Y-55.3
X190.4Y-53.5
X190.5Y-63.2
X191.0Y-67.8
X191.0Y-71.9
X191.1Y-67.0
X191.2Y-55.4
X191.4Y-68.5
X191.475Y-69.398
X191.525Y-79.225
X191.9Y-64.0
X192.0Y-57.5
X192.0Y-59.5
X192.0Y-61.5
X192.024Y-54.824
X192.1Y-70.3
X192.95Y-72.7
X193.3Y-79.2
X193.501Y-66.75
X193.9Y-64.2
X194.0Y-57.3
X194.0Y-61.5
X194.25Y-72.7
X194.4Y-54.8
X194.8Y-65.9
X195.0Y-76.0
X195.2Y-55.1
X196.0Y-57.5
X196.0Y-59.5
X196.0Y-61.5
X196.1Y-78.6
X196.4Y-74.7
X197.3Y-72.0
X197.4Y-66.1
X197.8Y-78.4
X198.1Y-67.9
X198.3Y-57.25
X198.468Y-74.5
X198.8Y-54.6
T2
X180.75Y-70.0
X181.0Y-51.0
X181.0Y-53.0
X181.0Y-55.0
X181.0Y-57.0
X181.0Y-59.0
X181.0Y-61.0
X181.0Y-63.0
X181.0Y-65.0
X181.0Y-68.5
X181.0Y-75.0
X182.0Y-55.212
X182.0Y-59.312
X182.0Y-75.25
X182.3Y-70.3
X183.0Y-51.0
X183.0Y-53.0
X183.0Y-73.0
X183.2Y-70.4
X184.0Y-64.75
X184.4Y-70.4
X185.0Y-51.0
X185.0Y-53.0
X185.0Y-55.0
X185.0Y-60.0
X187.0Y-51.0
X187.0Y-53.0
X187.0Y-55.0
X188.75Y-69.5
X189.7Y-79.5
X197.0Y-73.0
X197.35Y-64.29
X198.25Y-65.75
X198.75Y-63.25
X198.8Y-59.0
X198.9Y-60.1
X199.0Y-51.0
X199.0Y-53.0
X199.1Y-79.1
M30
