%TF.GenerationSoftware,KiCad,Pcbnew,8.0.0*%
%TF.CreationDate,2024-03-06T16:17:17+03:00*%
%TF.ProjectId,micro17,6d696372-6f31-4372-9e6b-696361645f70,rev?*%
%TF.SameCoordinates,Original*%
%TF.FileFunction,Legend,Bot*%
%TF.FilePolarity,Positive*%
%FSLAX46Y46*%
G04 Gerber Fmt 4.6, Leading zero omitted, Abs format (unit mm)*
G04 Created by KiCad (PCBNEW 8.0.0) date 2024-03-06 16:17:17*
%MOMM*%
%LPD*%
G01*
G04 APERTURE LIST*
%ADD10C,0.160000*%
%ADD11C,0.200000*%
%ADD12C,0.150000*%
%ADD13C,0.120000*%
G04 APERTURE END LIST*
D10*
X193500000Y-71500000D02*
X191400000Y-71500000D01*
X194000000Y-67750000D02*
X194000000Y-71000000D01*
X193500000Y-67250000D02*
X194000000Y-67750000D01*
X194000000Y-71000000D02*
X193500000Y-71500000D01*
X192000000Y-67250000D02*
X193500000Y-67250000D01*
X186619299Y-61143358D02*
X185619299Y-61143358D01*
X185619299Y-61143358D02*
X185619299Y-61524310D01*
X185619299Y-61524310D02*
X185666918Y-61619548D01*
X185666918Y-61619548D02*
X185714537Y-61667167D01*
X185714537Y-61667167D02*
X185809775Y-61714786D01*
X185809775Y-61714786D02*
X185952632Y-61714786D01*
X185952632Y-61714786D02*
X186047870Y-61667167D01*
X186047870Y-61667167D02*
X186095489Y-61619548D01*
X186095489Y-61619548D02*
X186143108Y-61524310D01*
X186143108Y-61524310D02*
X186143108Y-61143358D01*
X185952632Y-62000501D02*
X185952632Y-62381453D01*
X185619299Y-62143358D02*
X186476441Y-62143358D01*
X186476441Y-62143358D02*
X186571680Y-62190977D01*
X186571680Y-62190977D02*
X186619299Y-62286215D01*
X186619299Y-62286215D02*
X186619299Y-62381453D01*
X185952632Y-62571930D02*
X185952632Y-62952882D01*
X185619299Y-62714787D02*
X186476441Y-62714787D01*
X186476441Y-62714787D02*
X186571680Y-62762406D01*
X186571680Y-62762406D02*
X186619299Y-62857644D01*
X186619299Y-62857644D02*
X186619299Y-62952882D01*
X186619299Y-63286216D02*
X185619299Y-63286216D01*
X185952632Y-63762406D02*
X186619299Y-63762406D01*
X186047870Y-63762406D02*
X186000251Y-63810025D01*
X186000251Y-63810025D02*
X185952632Y-63905263D01*
X185952632Y-63905263D02*
X185952632Y-64048120D01*
X185952632Y-64048120D02*
X186000251Y-64143358D01*
X186000251Y-64143358D02*
X186095489Y-64190977D01*
X186095489Y-64190977D02*
X186619299Y-64190977D01*
X182874394Y-76026691D02*
X182874394Y-76455263D01*
X183131537Y-75940977D02*
X182231537Y-76240977D01*
X182231537Y-76240977D02*
X183131537Y-76540977D01*
X183131537Y-76969549D02*
X183088680Y-76883834D01*
X183088680Y-76883834D02*
X183045822Y-76840977D01*
X183045822Y-76840977D02*
X182960108Y-76798120D01*
X182960108Y-76798120D02*
X182702965Y-76798120D01*
X182702965Y-76798120D02*
X182617251Y-76840977D01*
X182617251Y-76840977D02*
X182574394Y-76883834D01*
X182574394Y-76883834D02*
X182531537Y-76969549D01*
X182531537Y-76969549D02*
X182531537Y-77098120D01*
X182531537Y-77098120D02*
X182574394Y-77183834D01*
X182574394Y-77183834D02*
X182617251Y-77226692D01*
X182617251Y-77226692D02*
X182702965Y-77269549D01*
X182702965Y-77269549D02*
X182960108Y-77269549D01*
X182960108Y-77269549D02*
X183045822Y-77226692D01*
X183045822Y-77226692D02*
X183088680Y-77183834D01*
X183088680Y-77183834D02*
X183131537Y-77098120D01*
X183131537Y-77098120D02*
X183131537Y-76969549D01*
X182531537Y-78040978D02*
X183131537Y-78040978D01*
X182531537Y-77655263D02*
X183002965Y-77655263D01*
X183002965Y-77655263D02*
X183088680Y-77698120D01*
X183088680Y-77698120D02*
X183131537Y-77783835D01*
X183131537Y-77783835D02*
X183131537Y-77912406D01*
X183131537Y-77912406D02*
X183088680Y-77998120D01*
X183088680Y-77998120D02*
X183045822Y-78040978D01*
X182531537Y-78340978D02*
X182531537Y-78683835D01*
X182231537Y-78469549D02*
X183002965Y-78469549D01*
X183002965Y-78469549D02*
X183088680Y-78512406D01*
X183088680Y-78512406D02*
X183131537Y-78598121D01*
X183131537Y-78598121D02*
X183131537Y-78683835D01*
D11*
X188795238Y-52118848D02*
X188638095Y-52171228D01*
X188638095Y-52171228D02*
X188376190Y-52171228D01*
X188376190Y-52171228D02*
X188271428Y-52118848D01*
X188271428Y-52118848D02*
X188219047Y-52066467D01*
X188219047Y-52066467D02*
X188166666Y-51961705D01*
X188166666Y-51961705D02*
X188166666Y-51856943D01*
X188166666Y-51856943D02*
X188219047Y-51752181D01*
X188219047Y-51752181D02*
X188271428Y-51699800D01*
X188271428Y-51699800D02*
X188376190Y-51647419D01*
X188376190Y-51647419D02*
X188585714Y-51595038D01*
X188585714Y-51595038D02*
X188690476Y-51542657D01*
X188690476Y-51542657D02*
X188742857Y-51490276D01*
X188742857Y-51490276D02*
X188795238Y-51385514D01*
X188795238Y-51385514D02*
X188795238Y-51280752D01*
X188795238Y-51280752D02*
X188742857Y-51175990D01*
X188742857Y-51175990D02*
X188690476Y-51123609D01*
X188690476Y-51123609D02*
X188585714Y-51071228D01*
X188585714Y-51071228D02*
X188323809Y-51071228D01*
X188323809Y-51071228D02*
X188166666Y-51123609D01*
X187695238Y-52171228D02*
X187695238Y-51071228D01*
X187695238Y-51071228D02*
X187276190Y-51071228D01*
X187276190Y-51071228D02*
X187171428Y-51123609D01*
X187171428Y-51123609D02*
X187119047Y-51175990D01*
X187119047Y-51175990D02*
X187066666Y-51280752D01*
X187066666Y-51280752D02*
X187066666Y-51437895D01*
X187066666Y-51437895D02*
X187119047Y-51542657D01*
X187119047Y-51542657D02*
X187171428Y-51595038D01*
X187171428Y-51595038D02*
X187276190Y-51647419D01*
X187276190Y-51647419D02*
X187695238Y-51647419D01*
X186071428Y-51071228D02*
X186595238Y-51071228D01*
X186595238Y-51071228D02*
X186647619Y-51595038D01*
X186647619Y-51595038D02*
X186595238Y-51542657D01*
X186595238Y-51542657D02*
X186490476Y-51490276D01*
X186490476Y-51490276D02*
X186228571Y-51490276D01*
X186228571Y-51490276D02*
X186123809Y-51542657D01*
X186123809Y-51542657D02*
X186071428Y-51595038D01*
X186071428Y-51595038D02*
X186019047Y-51699800D01*
X186019047Y-51699800D02*
X186019047Y-51961705D01*
X186019047Y-51961705D02*
X186071428Y-52066467D01*
X186071428Y-52066467D02*
X186123809Y-52118848D01*
X186123809Y-52118848D02*
X186228571Y-52171228D01*
X186228571Y-52171228D02*
X186490476Y-52171228D01*
X186490476Y-52171228D02*
X186595238Y-52118848D01*
X186595238Y-52118848D02*
X186647619Y-52066467D01*
X185652381Y-51071228D02*
X185390476Y-52171228D01*
X185390476Y-52171228D02*
X185180952Y-51385514D01*
X185180952Y-51385514D02*
X184971428Y-52171228D01*
X184971428Y-52171228D02*
X184709524Y-51071228D01*
X184395238Y-51071228D02*
X184133333Y-52171228D01*
X184133333Y-52171228D02*
X183923809Y-51385514D01*
X183923809Y-51385514D02*
X183714285Y-52171228D01*
X183714285Y-52171228D02*
X183452381Y-51071228D01*
X183033333Y-52171228D02*
X183033333Y-51071228D01*
X183033333Y-51071228D02*
X182614285Y-51071228D01*
X182614285Y-51071228D02*
X182509523Y-51123609D01*
X182509523Y-51123609D02*
X182457142Y-51175990D01*
X182457142Y-51175990D02*
X182404761Y-51280752D01*
X182404761Y-51280752D02*
X182404761Y-51437895D01*
X182404761Y-51437895D02*
X182457142Y-51542657D01*
X182457142Y-51542657D02*
X182509523Y-51595038D01*
X182509523Y-51595038D02*
X182614285Y-51647419D01*
X182614285Y-51647419D02*
X183033333Y-51647419D01*
X187826190Y-52842166D02*
X187616666Y-52842166D01*
X187616666Y-52842166D02*
X187511904Y-52894547D01*
X187511904Y-52894547D02*
X187407142Y-52999309D01*
X187407142Y-52999309D02*
X187354761Y-53208833D01*
X187354761Y-53208833D02*
X187354761Y-53575500D01*
X187354761Y-53575500D02*
X187407142Y-53785024D01*
X187407142Y-53785024D02*
X187511904Y-53889786D01*
X187511904Y-53889786D02*
X187616666Y-53942166D01*
X187616666Y-53942166D02*
X187826190Y-53942166D01*
X187826190Y-53942166D02*
X187930952Y-53889786D01*
X187930952Y-53889786D02*
X188035714Y-53785024D01*
X188035714Y-53785024D02*
X188088095Y-53575500D01*
X188088095Y-53575500D02*
X188088095Y-53208833D01*
X188088095Y-53208833D02*
X188035714Y-52999309D01*
X188035714Y-52999309D02*
X187930952Y-52894547D01*
X187930952Y-52894547D02*
X187826190Y-52842166D01*
X186883333Y-53942166D02*
X186883333Y-52842166D01*
X186883333Y-52842166D02*
X186254761Y-53942166D01*
X186254761Y-53942166D02*
X186254761Y-52842166D01*
X185259523Y-52842166D02*
X185469047Y-52842166D01*
X185469047Y-52842166D02*
X185573809Y-52894547D01*
X185573809Y-52894547D02*
X185626190Y-52946928D01*
X185626190Y-52946928D02*
X185730952Y-53104071D01*
X185730952Y-53104071D02*
X185783333Y-53313595D01*
X185783333Y-53313595D02*
X185783333Y-53732643D01*
X185783333Y-53732643D02*
X185730952Y-53837405D01*
X185730952Y-53837405D02*
X185678571Y-53889786D01*
X185678571Y-53889786D02*
X185573809Y-53942166D01*
X185573809Y-53942166D02*
X185364285Y-53942166D01*
X185364285Y-53942166D02*
X185259523Y-53889786D01*
X185259523Y-53889786D02*
X185207142Y-53837405D01*
X185207142Y-53837405D02*
X185154761Y-53732643D01*
X185154761Y-53732643D02*
X185154761Y-53470738D01*
X185154761Y-53470738D02*
X185207142Y-53365976D01*
X185207142Y-53365976D02*
X185259523Y-53313595D01*
X185259523Y-53313595D02*
X185364285Y-53261214D01*
X185364285Y-53261214D02*
X185573809Y-53261214D01*
X185573809Y-53261214D02*
X185678571Y-53313595D01*
X185678571Y-53313595D02*
X185730952Y-53365976D01*
X185730952Y-53365976D02*
X185783333Y-53470738D01*
X184054761Y-53942166D02*
X184421428Y-53418357D01*
X184683333Y-53942166D02*
X184683333Y-52842166D01*
X184683333Y-52842166D02*
X184264285Y-52842166D01*
X184264285Y-52842166D02*
X184159523Y-52894547D01*
X184159523Y-52894547D02*
X184107142Y-52946928D01*
X184107142Y-52946928D02*
X184054761Y-53051690D01*
X184054761Y-53051690D02*
X184054761Y-53208833D01*
X184054761Y-53208833D02*
X184107142Y-53313595D01*
X184107142Y-53313595D02*
X184159523Y-53365976D01*
X184159523Y-53365976D02*
X184264285Y-53418357D01*
X184264285Y-53418357D02*
X184683333Y-53418357D01*
X183216666Y-53365976D02*
X183583333Y-53365976D01*
X183583333Y-53942166D02*
X183583333Y-52842166D01*
X183583333Y-52842166D02*
X183059523Y-52842166D01*
X188088095Y-54613104D02*
X187459523Y-54613104D01*
X187773809Y-55713104D02*
X187773809Y-54613104D01*
X187145238Y-55398819D02*
X186621428Y-55398819D01*
X187250000Y-55713104D02*
X186883333Y-54613104D01*
X186883333Y-54613104D02*
X186516666Y-55713104D01*
X185573809Y-55713104D02*
X186202381Y-55713104D01*
X185888095Y-55713104D02*
X185888095Y-54613104D01*
X185888095Y-54613104D02*
X185992857Y-54770247D01*
X185992857Y-54770247D02*
X186097619Y-54875009D01*
X186097619Y-54875009D02*
X186202381Y-54927390D01*
X185102381Y-55713104D02*
X185102381Y-54613104D01*
X185102381Y-54613104D02*
X184735714Y-55398819D01*
X184735714Y-55398819D02*
X184369047Y-54613104D01*
X184369047Y-54613104D02*
X184369047Y-55713104D01*
X183845238Y-55713104D02*
X183845238Y-54613104D01*
X183845238Y-54613104D02*
X183583333Y-54613104D01*
X183583333Y-54613104D02*
X183426190Y-54665485D01*
X183426190Y-54665485D02*
X183321428Y-54770247D01*
X183321428Y-54770247D02*
X183269047Y-54875009D01*
X183269047Y-54875009D02*
X183216666Y-55084533D01*
X183216666Y-55084533D02*
X183216666Y-55241676D01*
X183216666Y-55241676D02*
X183269047Y-55451200D01*
X183269047Y-55451200D02*
X183321428Y-55555962D01*
X183321428Y-55555962D02*
X183426190Y-55660724D01*
X183426190Y-55660724D02*
X183583333Y-55713104D01*
X183583333Y-55713104D02*
X183845238Y-55713104D01*
X190838095Y-56384042D02*
X190838095Y-57274519D01*
X190838095Y-57274519D02*
X190785714Y-57379281D01*
X190785714Y-57379281D02*
X190733333Y-57431662D01*
X190733333Y-57431662D02*
X190628571Y-57484042D01*
X190628571Y-57484042D02*
X190419047Y-57484042D01*
X190419047Y-57484042D02*
X190314285Y-57431662D01*
X190314285Y-57431662D02*
X190261904Y-57379281D01*
X190261904Y-57379281D02*
X190209523Y-57274519D01*
X190209523Y-57274519D02*
X190209523Y-56384042D01*
X189842857Y-56384042D02*
X189214285Y-56384042D01*
X189528571Y-57484042D02*
X189528571Y-56384042D01*
X188847619Y-57064995D02*
X188009524Y-57064995D01*
X187485714Y-57484042D02*
X187485714Y-56384042D01*
X187485714Y-56384042D02*
X187119047Y-57169757D01*
X187119047Y-57169757D02*
X186752380Y-56384042D01*
X186752380Y-56384042D02*
X186752380Y-57484042D01*
X185652380Y-57484042D02*
X186280952Y-57484042D01*
X185966666Y-57484042D02*
X185966666Y-56384042D01*
X185966666Y-56384042D02*
X186071428Y-56541185D01*
X186071428Y-56541185D02*
X186176190Y-56645947D01*
X186176190Y-56645947D02*
X186280952Y-56698328D01*
X185285714Y-56384042D02*
X184552380Y-56384042D01*
X184552380Y-56384042D02*
X185023809Y-57484042D01*
X184395238Y-57588804D02*
X183557142Y-57588804D01*
X183400000Y-56750709D02*
X183138095Y-57484042D01*
X183138095Y-57484042D02*
X182876190Y-56750709D01*
X181880952Y-57484042D02*
X182509524Y-57484042D01*
X182195238Y-57484042D02*
X182195238Y-56384042D01*
X182195238Y-56384042D02*
X182300000Y-56541185D01*
X182300000Y-56541185D02*
X182404762Y-56645947D01*
X182404762Y-56645947D02*
X182509524Y-56698328D01*
X181409524Y-57379281D02*
X181357143Y-57431662D01*
X181357143Y-57431662D02*
X181409524Y-57484042D01*
X181409524Y-57484042D02*
X181461905Y-57431662D01*
X181461905Y-57431662D02*
X181409524Y-57379281D01*
X181409524Y-57379281D02*
X181409524Y-57484042D01*
X180676190Y-56384042D02*
X180571428Y-56384042D01*
X180571428Y-56384042D02*
X180466666Y-56436423D01*
X180466666Y-56436423D02*
X180414285Y-56488804D01*
X180414285Y-56488804D02*
X180361904Y-56593566D01*
X180361904Y-56593566D02*
X180309523Y-56803090D01*
X180309523Y-56803090D02*
X180309523Y-57064995D01*
X180309523Y-57064995D02*
X180361904Y-57274519D01*
X180361904Y-57274519D02*
X180414285Y-57379281D01*
X180414285Y-57379281D02*
X180466666Y-57431662D01*
X180466666Y-57431662D02*
X180571428Y-57484042D01*
X180571428Y-57484042D02*
X180676190Y-57484042D01*
X180676190Y-57484042D02*
X180780952Y-57431662D01*
X180780952Y-57431662D02*
X180833333Y-57379281D01*
X180833333Y-57379281D02*
X180885714Y-57274519D01*
X180885714Y-57274519D02*
X180938095Y-57064995D01*
X180938095Y-57064995D02*
X180938095Y-56803090D01*
X180938095Y-56803090D02*
X180885714Y-56593566D01*
X180885714Y-56593566D02*
X180833333Y-56488804D01*
X180833333Y-56488804D02*
X180780952Y-56436423D01*
X180780952Y-56436423D02*
X180676190Y-56384042D01*
X187485714Y-58259742D02*
X187433333Y-58207361D01*
X187433333Y-58207361D02*
X187328571Y-58154980D01*
X187328571Y-58154980D02*
X187066666Y-58154980D01*
X187066666Y-58154980D02*
X186961904Y-58207361D01*
X186961904Y-58207361D02*
X186909523Y-58259742D01*
X186909523Y-58259742D02*
X186857142Y-58364504D01*
X186857142Y-58364504D02*
X186857142Y-58469266D01*
X186857142Y-58469266D02*
X186909523Y-58626409D01*
X186909523Y-58626409D02*
X187538095Y-59254980D01*
X187538095Y-59254980D02*
X186857142Y-59254980D01*
X186176190Y-58154980D02*
X186071428Y-58154980D01*
X186071428Y-58154980D02*
X185966666Y-58207361D01*
X185966666Y-58207361D02*
X185914285Y-58259742D01*
X185914285Y-58259742D02*
X185861904Y-58364504D01*
X185861904Y-58364504D02*
X185809523Y-58574028D01*
X185809523Y-58574028D02*
X185809523Y-58835933D01*
X185809523Y-58835933D02*
X185861904Y-59045457D01*
X185861904Y-59045457D02*
X185914285Y-59150219D01*
X185914285Y-59150219D02*
X185966666Y-59202600D01*
X185966666Y-59202600D02*
X186071428Y-59254980D01*
X186071428Y-59254980D02*
X186176190Y-59254980D01*
X186176190Y-59254980D02*
X186280952Y-59202600D01*
X186280952Y-59202600D02*
X186333333Y-59150219D01*
X186333333Y-59150219D02*
X186385714Y-59045457D01*
X186385714Y-59045457D02*
X186438095Y-58835933D01*
X186438095Y-58835933D02*
X186438095Y-58574028D01*
X186438095Y-58574028D02*
X186385714Y-58364504D01*
X186385714Y-58364504D02*
X186333333Y-58259742D01*
X186333333Y-58259742D02*
X186280952Y-58207361D01*
X186280952Y-58207361D02*
X186176190Y-58154980D01*
X185390476Y-58259742D02*
X185338095Y-58207361D01*
X185338095Y-58207361D02*
X185233333Y-58154980D01*
X185233333Y-58154980D02*
X184971428Y-58154980D01*
X184971428Y-58154980D02*
X184866666Y-58207361D01*
X184866666Y-58207361D02*
X184814285Y-58259742D01*
X184814285Y-58259742D02*
X184761904Y-58364504D01*
X184761904Y-58364504D02*
X184761904Y-58469266D01*
X184761904Y-58469266D02*
X184814285Y-58626409D01*
X184814285Y-58626409D02*
X185442857Y-59254980D01*
X185442857Y-59254980D02*
X184761904Y-59254980D01*
X183819047Y-58521647D02*
X183819047Y-59254980D01*
X184080952Y-58102600D02*
X184342857Y-58888314D01*
X184342857Y-58888314D02*
X183661904Y-58888314D01*
D10*
X183619299Y-63569548D02*
X183619299Y-63093358D01*
X183619299Y-63093358D02*
X184095489Y-63045739D01*
X184095489Y-63045739D02*
X184047870Y-63093358D01*
X184047870Y-63093358D02*
X184000251Y-63188596D01*
X184000251Y-63188596D02*
X184000251Y-63426691D01*
X184000251Y-63426691D02*
X184047870Y-63521929D01*
X184047870Y-63521929D02*
X184095489Y-63569548D01*
X184095489Y-63569548D02*
X184190727Y-63617167D01*
X184190727Y-63617167D02*
X184428822Y-63617167D01*
X184428822Y-63617167D02*
X184524060Y-63569548D01*
X184524060Y-63569548D02*
X184571680Y-63521929D01*
X184571680Y-63521929D02*
X184619299Y-63426691D01*
X184619299Y-63426691D02*
X184619299Y-63188596D01*
X184619299Y-63188596D02*
X184571680Y-63093358D01*
X184571680Y-63093358D02*
X184524060Y-63045739D01*
X183619299Y-63902882D02*
X184619299Y-64236215D01*
X184619299Y-64236215D02*
X183619299Y-64569548D01*
X199124394Y-67776691D02*
X199124394Y-68205263D01*
X199381537Y-67690977D02*
X198481537Y-67990977D01*
X198481537Y-67990977D02*
X199381537Y-68290977D01*
X199381537Y-68590977D02*
X198781537Y-68590977D01*
X198481537Y-68590977D02*
X198524394Y-68548120D01*
X198524394Y-68548120D02*
X198567251Y-68590977D01*
X198567251Y-68590977D02*
X198524394Y-68633834D01*
X198524394Y-68633834D02*
X198481537Y-68590977D01*
X198481537Y-68590977D02*
X198567251Y-68590977D01*
X198781537Y-69019548D02*
X199381537Y-69019548D01*
X198867251Y-69019548D02*
X198824394Y-69062405D01*
X198824394Y-69062405D02*
X198781537Y-69148120D01*
X198781537Y-69148120D02*
X198781537Y-69276691D01*
X198781537Y-69276691D02*
X198824394Y-69362405D01*
X198824394Y-69362405D02*
X198910108Y-69405263D01*
X198910108Y-69405263D02*
X199381537Y-69405263D01*
X198221680Y-63695739D02*
X198269299Y-63838596D01*
X198269299Y-63838596D02*
X198269299Y-64076691D01*
X198269299Y-64076691D02*
X198221680Y-64171929D01*
X198221680Y-64171929D02*
X198174060Y-64219548D01*
X198174060Y-64219548D02*
X198078822Y-64267167D01*
X198078822Y-64267167D02*
X197983584Y-64267167D01*
X197983584Y-64267167D02*
X197888346Y-64219548D01*
X197888346Y-64219548D02*
X197840727Y-64171929D01*
X197840727Y-64171929D02*
X197793108Y-64076691D01*
X197793108Y-64076691D02*
X197745489Y-63886215D01*
X197745489Y-63886215D02*
X197697870Y-63790977D01*
X197697870Y-63790977D02*
X197650251Y-63743358D01*
X197650251Y-63743358D02*
X197555013Y-63695739D01*
X197555013Y-63695739D02*
X197459775Y-63695739D01*
X197459775Y-63695739D02*
X197364537Y-63743358D01*
X197364537Y-63743358D02*
X197316918Y-63790977D01*
X197316918Y-63790977D02*
X197269299Y-63886215D01*
X197269299Y-63886215D02*
X197269299Y-64124310D01*
X197269299Y-64124310D02*
X197316918Y-64267167D01*
X197745489Y-65029072D02*
X197793108Y-65171929D01*
X197793108Y-65171929D02*
X197840727Y-65219548D01*
X197840727Y-65219548D02*
X197935965Y-65267167D01*
X197935965Y-65267167D02*
X198078822Y-65267167D01*
X198078822Y-65267167D02*
X198174060Y-65219548D01*
X198174060Y-65219548D02*
X198221680Y-65171929D01*
X198221680Y-65171929D02*
X198269299Y-65076691D01*
X198269299Y-65076691D02*
X198269299Y-64695739D01*
X198269299Y-64695739D02*
X197269299Y-64695739D01*
X197269299Y-64695739D02*
X197269299Y-65029072D01*
X197269299Y-65029072D02*
X197316918Y-65124310D01*
X197316918Y-65124310D02*
X197364537Y-65171929D01*
X197364537Y-65171929D02*
X197459775Y-65219548D01*
X197459775Y-65219548D02*
X197555013Y-65219548D01*
X197555013Y-65219548D02*
X197650251Y-65171929D01*
X197650251Y-65171929D02*
X197697870Y-65124310D01*
X197697870Y-65124310D02*
X197745489Y-65029072D01*
X197745489Y-65029072D02*
X197745489Y-64695739D01*
X197269299Y-65695739D02*
X198078822Y-65695739D01*
X198078822Y-65695739D02*
X198174060Y-65743358D01*
X198174060Y-65743358D02*
X198221680Y-65790977D01*
X198221680Y-65790977D02*
X198269299Y-65886215D01*
X198269299Y-65886215D02*
X198269299Y-66076691D01*
X198269299Y-66076691D02*
X198221680Y-66171929D01*
X198221680Y-66171929D02*
X198174060Y-66219548D01*
X198174060Y-66219548D02*
X198078822Y-66267167D01*
X198078822Y-66267167D02*
X197269299Y-66267167D01*
X198221680Y-66695739D02*
X198269299Y-66838596D01*
X198269299Y-66838596D02*
X198269299Y-67076691D01*
X198269299Y-67076691D02*
X198221680Y-67171929D01*
X198221680Y-67171929D02*
X198174060Y-67219548D01*
X198174060Y-67219548D02*
X198078822Y-67267167D01*
X198078822Y-67267167D02*
X197983584Y-67267167D01*
X197983584Y-67267167D02*
X197888346Y-67219548D01*
X197888346Y-67219548D02*
X197840727Y-67171929D01*
X197840727Y-67171929D02*
X197793108Y-67076691D01*
X197793108Y-67076691D02*
X197745489Y-66886215D01*
X197745489Y-66886215D02*
X197697870Y-66790977D01*
X197697870Y-66790977D02*
X197650251Y-66743358D01*
X197650251Y-66743358D02*
X197555013Y-66695739D01*
X197555013Y-66695739D02*
X197459775Y-66695739D01*
X197459775Y-66695739D02*
X197364537Y-66743358D01*
X197364537Y-66743358D02*
X197316918Y-66790977D01*
X197316918Y-66790977D02*
X197269299Y-66886215D01*
X197269299Y-66886215D02*
X197269299Y-67124310D01*
X197269299Y-67124310D02*
X197316918Y-67267167D01*
X181416918Y-63367167D02*
X181369299Y-63271929D01*
X181369299Y-63271929D02*
X181369299Y-63129072D01*
X181369299Y-63129072D02*
X181416918Y-62986215D01*
X181416918Y-62986215D02*
X181512156Y-62890977D01*
X181512156Y-62890977D02*
X181607394Y-62843358D01*
X181607394Y-62843358D02*
X181797870Y-62795739D01*
X181797870Y-62795739D02*
X181940727Y-62795739D01*
X181940727Y-62795739D02*
X182131203Y-62843358D01*
X182131203Y-62843358D02*
X182226441Y-62890977D01*
X182226441Y-62890977D02*
X182321680Y-62986215D01*
X182321680Y-62986215D02*
X182369299Y-63129072D01*
X182369299Y-63129072D02*
X182369299Y-63224310D01*
X182369299Y-63224310D02*
X182321680Y-63367167D01*
X182321680Y-63367167D02*
X182274060Y-63414786D01*
X182274060Y-63414786D02*
X181940727Y-63414786D01*
X181940727Y-63414786D02*
X181940727Y-63224310D01*
X181702632Y-63843358D02*
X182369299Y-63843358D01*
X181797870Y-63843358D02*
X181750251Y-63890977D01*
X181750251Y-63890977D02*
X181702632Y-63986215D01*
X181702632Y-63986215D02*
X181702632Y-64129072D01*
X181702632Y-64129072D02*
X181750251Y-64224310D01*
X181750251Y-64224310D02*
X181845489Y-64271929D01*
X181845489Y-64271929D02*
X182369299Y-64271929D01*
X182369299Y-65176691D02*
X181369299Y-65176691D01*
X182321680Y-65176691D02*
X182369299Y-65081453D01*
X182369299Y-65081453D02*
X182369299Y-64890977D01*
X182369299Y-64890977D02*
X182321680Y-64795739D01*
X182321680Y-64795739D02*
X182274060Y-64748120D01*
X182274060Y-64748120D02*
X182178822Y-64700501D01*
X182178822Y-64700501D02*
X181893108Y-64700501D01*
X181893108Y-64700501D02*
X181797870Y-64748120D01*
X181797870Y-64748120D02*
X181750251Y-64795739D01*
X181750251Y-64795739D02*
X181702632Y-64890977D01*
X181702632Y-64890977D02*
X181702632Y-65081453D01*
X181702632Y-65081453D02*
X181750251Y-65176691D01*
X194572906Y-61759396D02*
X193572906Y-61759396D01*
X193572906Y-61759396D02*
X193572906Y-62140348D01*
X193572906Y-62140348D02*
X193620525Y-62235586D01*
X193620525Y-62235586D02*
X193668144Y-62283205D01*
X193668144Y-62283205D02*
X193763382Y-62330824D01*
X193763382Y-62330824D02*
X193906239Y-62330824D01*
X193906239Y-62330824D02*
X194001477Y-62283205D01*
X194001477Y-62283205D02*
X194049096Y-62235586D01*
X194049096Y-62235586D02*
X194096715Y-62140348D01*
X194096715Y-62140348D02*
X194096715Y-61759396D01*
X193906239Y-62616539D02*
X193906239Y-62997491D01*
X193572906Y-62759396D02*
X194430048Y-62759396D01*
X194430048Y-62759396D02*
X194525287Y-62807015D01*
X194525287Y-62807015D02*
X194572906Y-62902253D01*
X194572906Y-62902253D02*
X194572906Y-62997491D01*
X193906239Y-63187968D02*
X193906239Y-63568920D01*
X193572906Y-63330825D02*
X194430048Y-63330825D01*
X194430048Y-63330825D02*
X194525287Y-63378444D01*
X194525287Y-63378444D02*
X194572906Y-63473682D01*
X194572906Y-63473682D02*
X194572906Y-63568920D01*
X193572906Y-64092730D02*
X193572906Y-64283206D01*
X193572906Y-64283206D02*
X193620525Y-64378444D01*
X193620525Y-64378444D02*
X193715763Y-64473682D01*
X193715763Y-64473682D02*
X193906239Y-64521301D01*
X193906239Y-64521301D02*
X194239572Y-64521301D01*
X194239572Y-64521301D02*
X194430048Y-64473682D01*
X194430048Y-64473682D02*
X194525287Y-64378444D01*
X194525287Y-64378444D02*
X194572906Y-64283206D01*
X194572906Y-64283206D02*
X194572906Y-64092730D01*
X194572906Y-64092730D02*
X194525287Y-63997492D01*
X194525287Y-63997492D02*
X194430048Y-63902254D01*
X194430048Y-63902254D02*
X194239572Y-63854635D01*
X194239572Y-63854635D02*
X193906239Y-63854635D01*
X193906239Y-63854635D02*
X193715763Y-63902254D01*
X193715763Y-63902254D02*
X193620525Y-63997492D01*
X193620525Y-63997492D02*
X193572906Y-64092730D01*
X193906239Y-65378444D02*
X194572906Y-65378444D01*
X193906239Y-64949873D02*
X194430048Y-64949873D01*
X194430048Y-64949873D02*
X194525287Y-64997492D01*
X194525287Y-64997492D02*
X194572906Y-65092730D01*
X194572906Y-65092730D02*
X194572906Y-65235587D01*
X194572906Y-65235587D02*
X194525287Y-65330825D01*
X194525287Y-65330825D02*
X194477667Y-65378444D01*
X193906239Y-65711778D02*
X193906239Y-66092730D01*
X193572906Y-65854635D02*
X194430048Y-65854635D01*
X194430048Y-65854635D02*
X194525287Y-65902254D01*
X194525287Y-65902254D02*
X194572906Y-65997492D01*
X194572906Y-65997492D02*
X194572906Y-66092730D01*
D12*
X199854819Y-63657142D02*
X199378628Y-63323809D01*
X199854819Y-63085714D02*
X198854819Y-63085714D01*
X198854819Y-63085714D02*
X198854819Y-63466666D01*
X198854819Y-63466666D02*
X198902438Y-63561904D01*
X198902438Y-63561904D02*
X198950057Y-63609523D01*
X198950057Y-63609523D02*
X199045295Y-63657142D01*
X199045295Y-63657142D02*
X199188152Y-63657142D01*
X199188152Y-63657142D02*
X199283390Y-63609523D01*
X199283390Y-63609523D02*
X199331009Y-63561904D01*
X199331009Y-63561904D02*
X199378628Y-63466666D01*
X199378628Y-63466666D02*
X199378628Y-63085714D01*
X198854819Y-63990476D02*
X198854819Y-64609523D01*
X198854819Y-64609523D02*
X199235771Y-64276190D01*
X199235771Y-64276190D02*
X199235771Y-64419047D01*
X199235771Y-64419047D02*
X199283390Y-64514285D01*
X199283390Y-64514285D02*
X199331009Y-64561904D01*
X199331009Y-64561904D02*
X199426247Y-64609523D01*
X199426247Y-64609523D02*
X199664342Y-64609523D01*
X199664342Y-64609523D02*
X199759580Y-64561904D01*
X199759580Y-64561904D02*
X199807200Y-64514285D01*
X199807200Y-64514285D02*
X199854819Y-64419047D01*
X199854819Y-64419047D02*
X199854819Y-64133333D01*
X199854819Y-64133333D02*
X199807200Y-64038095D01*
X199807200Y-64038095D02*
X199759580Y-63990476D01*
X198854819Y-65228571D02*
X198854819Y-65323809D01*
X198854819Y-65323809D02*
X198902438Y-65419047D01*
X198902438Y-65419047D02*
X198950057Y-65466666D01*
X198950057Y-65466666D02*
X199045295Y-65514285D01*
X199045295Y-65514285D02*
X199235771Y-65561904D01*
X199235771Y-65561904D02*
X199473866Y-65561904D01*
X199473866Y-65561904D02*
X199664342Y-65514285D01*
X199664342Y-65514285D02*
X199759580Y-65466666D01*
X199759580Y-65466666D02*
X199807200Y-65419047D01*
X199807200Y-65419047D02*
X199854819Y-65323809D01*
X199854819Y-65323809D02*
X199854819Y-65228571D01*
X199854819Y-65228571D02*
X199807200Y-65133333D01*
X199807200Y-65133333D02*
X199759580Y-65085714D01*
X199759580Y-65085714D02*
X199664342Y-65038095D01*
X199664342Y-65038095D02*
X199473866Y-64990476D01*
X199473866Y-64990476D02*
X199235771Y-64990476D01*
X199235771Y-64990476D02*
X199045295Y-65038095D01*
X199045295Y-65038095D02*
X198950057Y-65085714D01*
X198950057Y-65085714D02*
X198902438Y-65133333D01*
X198902438Y-65133333D02*
X198854819Y-65228571D01*
D10*
X196534285Y-70058037D02*
X196534285Y-69158037D01*
X196534285Y-69158037D02*
X196319999Y-69158037D01*
X196319999Y-69158037D02*
X196191428Y-69200894D01*
X196191428Y-69200894D02*
X196105713Y-69286608D01*
X196105713Y-69286608D02*
X196062856Y-69372322D01*
X196062856Y-69372322D02*
X196019999Y-69543751D01*
X196019999Y-69543751D02*
X196019999Y-69672322D01*
X196019999Y-69672322D02*
X196062856Y-69843751D01*
X196062856Y-69843751D02*
X196105713Y-69929465D01*
X196105713Y-69929465D02*
X196191428Y-70015180D01*
X196191428Y-70015180D02*
X196319999Y-70058037D01*
X196319999Y-70058037D02*
X196534285Y-70058037D01*
X195162856Y-70058037D02*
X195677142Y-70058037D01*
X195419999Y-70058037D02*
X195419999Y-69158037D01*
X195419999Y-69158037D02*
X195505713Y-69286608D01*
X195505713Y-69286608D02*
X195591428Y-69372322D01*
X195591428Y-69372322D02*
X195677142Y-69415180D01*
X186208037Y-69014285D02*
X186936608Y-69014285D01*
X186936608Y-69014285D02*
X187022322Y-69057142D01*
X187022322Y-69057142D02*
X187065180Y-69100000D01*
X187065180Y-69100000D02*
X187108037Y-69185714D01*
X187108037Y-69185714D02*
X187108037Y-69357142D01*
X187108037Y-69357142D02*
X187065180Y-69442857D01*
X187065180Y-69442857D02*
X187022322Y-69485714D01*
X187022322Y-69485714D02*
X186936608Y-69528571D01*
X186936608Y-69528571D02*
X186208037Y-69528571D01*
X186208037Y-69871428D02*
X186208037Y-70428571D01*
X186208037Y-70428571D02*
X186550894Y-70128571D01*
X186550894Y-70128571D02*
X186550894Y-70257142D01*
X186550894Y-70257142D02*
X186593751Y-70342857D01*
X186593751Y-70342857D02*
X186636608Y-70385714D01*
X186636608Y-70385714D02*
X186722322Y-70428571D01*
X186722322Y-70428571D02*
X186936608Y-70428571D01*
X186936608Y-70428571D02*
X187022322Y-70385714D01*
X187022322Y-70385714D02*
X187065180Y-70342857D01*
X187065180Y-70342857D02*
X187108037Y-70257142D01*
X187108037Y-70257142D02*
X187108037Y-69999999D01*
X187108037Y-69999999D02*
X187065180Y-69914285D01*
X187065180Y-69914285D02*
X187022322Y-69871428D01*
X189478571Y-62638037D02*
X189778571Y-62209465D01*
X189992857Y-62638037D02*
X189992857Y-61738037D01*
X189992857Y-61738037D02*
X189650000Y-61738037D01*
X189650000Y-61738037D02*
X189564285Y-61780894D01*
X189564285Y-61780894D02*
X189521428Y-61823751D01*
X189521428Y-61823751D02*
X189478571Y-61909465D01*
X189478571Y-61909465D02*
X189478571Y-62038037D01*
X189478571Y-62038037D02*
X189521428Y-62123751D01*
X189521428Y-62123751D02*
X189564285Y-62166608D01*
X189564285Y-62166608D02*
X189650000Y-62209465D01*
X189650000Y-62209465D02*
X189992857Y-62209465D01*
X189135714Y-61823751D02*
X189092857Y-61780894D01*
X189092857Y-61780894D02*
X189007143Y-61738037D01*
X189007143Y-61738037D02*
X188792857Y-61738037D01*
X188792857Y-61738037D02*
X188707143Y-61780894D01*
X188707143Y-61780894D02*
X188664285Y-61823751D01*
X188664285Y-61823751D02*
X188621428Y-61909465D01*
X188621428Y-61909465D02*
X188621428Y-61995180D01*
X188621428Y-61995180D02*
X188664285Y-62123751D01*
X188664285Y-62123751D02*
X189178571Y-62638037D01*
X189178571Y-62638037D02*
X188621428Y-62638037D01*
X187807142Y-61738037D02*
X188235714Y-61738037D01*
X188235714Y-61738037D02*
X188278571Y-62166608D01*
X188278571Y-62166608D02*
X188235714Y-62123751D01*
X188235714Y-62123751D02*
X188150000Y-62080894D01*
X188150000Y-62080894D02*
X187935714Y-62080894D01*
X187935714Y-62080894D02*
X187850000Y-62123751D01*
X187850000Y-62123751D02*
X187807142Y-62166608D01*
X187807142Y-62166608D02*
X187764285Y-62252322D01*
X187764285Y-62252322D02*
X187764285Y-62466608D01*
X187764285Y-62466608D02*
X187807142Y-62552322D01*
X187807142Y-62552322D02*
X187850000Y-62595180D01*
X187850000Y-62595180D02*
X187935714Y-62638037D01*
X187935714Y-62638037D02*
X188150000Y-62638037D01*
X188150000Y-62638037D02*
X188235714Y-62595180D01*
X188235714Y-62595180D02*
X188278571Y-62552322D01*
D13*
%TO.C,R30*%
X198680000Y-62846359D02*
X198680000Y-63153641D01*
X197920000Y-62846359D02*
X197920000Y-63153641D01*
D10*
%TO.C,D1*%
X194260000Y-66950000D02*
X194260000Y-68650000D01*
X196920000Y-66950000D02*
X194260000Y-66950000D01*
X196920000Y-68650000D02*
X194260000Y-68650000D01*
%TO.C,TP10*%
X182450000Y-66250000D02*
G75*
G02*
X181050000Y-66250000I-700000J0D01*
G01*
X181050000Y-66250000D02*
G75*
G02*
X182450000Y-66250000I700000J0D01*
G01*
%TO.C,TP4*%
X193700000Y-70500000D02*
G75*
G02*
X192300000Y-70500000I-700000J0D01*
G01*
X192300000Y-70500000D02*
G75*
G02*
X193700000Y-70500000I700000J0D01*
G01*
D13*
%TO.C,TP13*%
X197000000Y-65600000D02*
G75*
G02*
X195600000Y-65600000I-700000J0D01*
G01*
X195600000Y-65600000D02*
G75*
G02*
X197000000Y-65600000I700000J0D01*
G01*
D10*
%TO.C,TP6*%
X193700000Y-65250000D02*
G75*
G02*
X192300000Y-65250000I-700000J0D01*
G01*
X192300000Y-65250000D02*
G75*
G02*
X193700000Y-65250000I700000J0D01*
G01*
%TO.C,U3*%
X187440000Y-65890000D02*
X187440000Y-67900000D01*
X187440000Y-69910000D02*
X187440000Y-67900000D01*
X187795000Y-65890000D02*
X187440000Y-65890000D01*
X187795000Y-69910000D02*
X187440000Y-69910000D01*
X191405000Y-65890000D02*
X191760000Y-65890000D01*
X191405000Y-69910000D02*
X191760000Y-69910000D01*
X191760000Y-65890000D02*
X191760000Y-67900000D01*
X191760000Y-69910000D02*
X191760000Y-67900000D01*
X187795000Y-65212500D02*
X187465000Y-65452500D01*
X187465000Y-64972500D01*
X187795000Y-65212500D01*
G36*
X187795000Y-65212500D02*
G01*
X187465000Y-65452500D01*
X187465000Y-64972500D01*
X187795000Y-65212500D01*
G37*
D13*
%TO.C,TP11*%
X189100000Y-56100000D02*
G75*
G02*
X187700000Y-56100000I-700000J0D01*
G01*
X187700000Y-56100000D02*
G75*
G02*
X189100000Y-56100000I700000J0D01*
G01*
%TO.C,J4*%
X190690000Y-50160000D02*
X190690000Y-49900000D01*
X190690000Y-54210000D02*
X190690000Y-52440000D01*
X191070000Y-54210000D02*
X190690000Y-54210000D01*
X197930000Y-54210000D02*
X198310000Y-54210000D01*
X198310000Y-49900000D02*
X198310000Y-50160000D01*
X198310000Y-52440000D02*
X198310000Y-54210000D01*
D10*
%TO.C,TP5*%
X184700000Y-66250000D02*
G75*
G02*
X183300000Y-66250000I-700000J0D01*
G01*
X183300000Y-66250000D02*
G75*
G02*
X184700000Y-66250000I700000J0D01*
G01*
%TO.C,SYM2*%
X194087128Y-59853945D02*
X194117954Y-59863568D01*
X194155916Y-59879563D01*
X194174296Y-59888159D01*
X194187561Y-59889713D01*
X194190495Y-59877798D01*
X194190498Y-59877461D01*
X194196709Y-59866087D01*
X194218131Y-59860256D01*
X194259653Y-59858614D01*
X194328812Y-59858614D01*
X194328812Y-60462179D01*
X194190495Y-60462179D01*
X194190495Y-60046027D01*
X194156110Y-60014161D01*
X194145368Y-60005104D01*
X194113370Y-59989630D01*
X194073965Y-59989010D01*
X194020312Y-60002664D01*
X194002225Y-60003529D01*
X193981008Y-59990283D01*
X193952768Y-59958800D01*
X193939069Y-59941385D01*
X193922868Y-59916797D01*
X193920371Y-59901145D01*
X193929442Y-59887941D01*
X193957289Y-59871245D01*
X194000540Y-59858030D01*
X194047464Y-59851478D01*
X194087128Y-59853945D01*
G36*
X194087128Y-59853945D02*
G01*
X194117954Y-59863568D01*
X194155916Y-59879563D01*
X194174296Y-59888159D01*
X194187561Y-59889713D01*
X194190495Y-59877798D01*
X194190498Y-59877461D01*
X194196709Y-59866087D01*
X194218131Y-59860256D01*
X194259653Y-59858614D01*
X194328812Y-59858614D01*
X194328812Y-60462179D01*
X194190495Y-60462179D01*
X194190495Y-60046027D01*
X194156110Y-60014161D01*
X194145368Y-60005104D01*
X194113370Y-59989630D01*
X194073965Y-59989010D01*
X194020312Y-60002664D01*
X194002225Y-60003529D01*
X193981008Y-59990283D01*
X193952768Y-59958800D01*
X193939069Y-59941385D01*
X193922868Y-59916797D01*
X193920371Y-59901145D01*
X193929442Y-59887941D01*
X193957289Y-59871245D01*
X194000540Y-59858030D01*
X194047464Y-59851478D01*
X194087128Y-59853945D01*
G37*
X194270265Y-60809965D02*
X194308255Y-60827745D01*
X194341386Y-60853806D01*
X194341386Y-60827745D01*
X194342211Y-60817849D01*
X194349893Y-60807358D01*
X194370667Y-60802725D01*
X194410544Y-60801683D01*
X194479703Y-60801683D01*
X194479703Y-61417822D01*
X194341386Y-61417822D01*
X194341386Y-61217226D01*
X194341369Y-61205710D01*
X194340189Y-61124758D01*
X194337294Y-61058817D01*
X194332888Y-61011258D01*
X194327181Y-60985452D01*
X194321940Y-60975710D01*
X194289676Y-60945156D01*
X194245730Y-60931631D01*
X194197743Y-60937941D01*
X194185973Y-60942217D01*
X194160898Y-60949776D01*
X194143762Y-60947428D01*
X194126518Y-60932064D01*
X194101124Y-60900571D01*
X194059936Y-60848568D01*
X194088886Y-60825125D01*
X194116405Y-60811015D01*
X194164745Y-60801486D01*
X194219230Y-60801174D01*
X194270265Y-60809965D01*
G36*
X194270265Y-60809965D02*
G01*
X194308255Y-60827745D01*
X194341386Y-60853806D01*
X194341386Y-60827745D01*
X194342211Y-60817849D01*
X194349893Y-60807358D01*
X194370667Y-60802725D01*
X194410544Y-60801683D01*
X194479703Y-60801683D01*
X194479703Y-61417822D01*
X194341386Y-61417822D01*
X194341386Y-61217226D01*
X194341369Y-61205710D01*
X194340189Y-61124758D01*
X194337294Y-61058817D01*
X194332888Y-61011258D01*
X194327181Y-60985452D01*
X194321940Y-60975710D01*
X194289676Y-60945156D01*
X194245730Y-60931631D01*
X194197743Y-60937941D01*
X194185973Y-60942217D01*
X194160898Y-60949776D01*
X194143762Y-60947428D01*
X194126518Y-60932064D01*
X194101124Y-60900571D01*
X194059936Y-60848568D01*
X194088886Y-60825125D01*
X194116405Y-60811015D01*
X194164745Y-60801486D01*
X194219230Y-60801174D01*
X194270265Y-60809965D01*
G37*
X196893960Y-61417822D02*
X196768218Y-61417822D01*
X196768218Y-61223740D01*
X196768078Y-61178594D01*
X196766649Y-61103823D01*
X196763029Y-61048467D01*
X196756434Y-61008702D01*
X196746079Y-60980700D01*
X196731178Y-60960635D01*
X196710946Y-60944681D01*
X196688859Y-60932792D01*
X196662705Y-60929421D01*
X196625508Y-60936917D01*
X196613555Y-60940038D01*
X196583718Y-60944735D01*
X196562383Y-60938005D01*
X196537655Y-60917177D01*
X196532963Y-60912647D01*
X196507020Y-60884626D01*
X196490291Y-60861843D01*
X196487996Y-60856355D01*
X196492543Y-60836088D01*
X196515602Y-60819884D01*
X196551995Y-60808513D01*
X196596544Y-60802740D01*
X196644072Y-60803334D01*
X196689400Y-60811063D01*
X196727351Y-60826694D01*
X196739381Y-60833993D01*
X196759632Y-60844676D01*
X196767129Y-60842230D01*
X196768218Y-60826647D01*
X196768473Y-60821053D01*
X196774539Y-60808660D01*
X196793356Y-60803020D01*
X196831089Y-60801683D01*
X196893960Y-60801683D01*
X196893960Y-61417822D01*
G36*
X196893960Y-61417822D02*
G01*
X196768218Y-61417822D01*
X196768218Y-61223740D01*
X196768078Y-61178594D01*
X196766649Y-61103823D01*
X196763029Y-61048467D01*
X196756434Y-61008702D01*
X196746079Y-60980700D01*
X196731178Y-60960635D01*
X196710946Y-60944681D01*
X196688859Y-60932792D01*
X196662705Y-60929421D01*
X196625508Y-60936917D01*
X196613555Y-60940038D01*
X196583718Y-60944735D01*
X196562383Y-60938005D01*
X196537655Y-60917177D01*
X196532963Y-60912647D01*
X196507020Y-60884626D01*
X196490291Y-60861843D01*
X196487996Y-60856355D01*
X196492543Y-60836088D01*
X196515602Y-60819884D01*
X196551995Y-60808513D01*
X196596544Y-60802740D01*
X196644072Y-60803334D01*
X196689400Y-60811063D01*
X196727351Y-60826694D01*
X196739381Y-60833993D01*
X196759632Y-60844676D01*
X196767129Y-60842230D01*
X196768218Y-60826647D01*
X196768473Y-60821053D01*
X196774539Y-60808660D01*
X196793356Y-60803020D01*
X196831089Y-60801683D01*
X196893960Y-60801683D01*
X196893960Y-61417822D01*
G37*
X194580297Y-60054342D02*
X194581357Y-60142394D01*
X194585509Y-60213510D01*
X194593921Y-60265199D01*
X194607757Y-60300360D01*
X194628182Y-60321889D01*
X194656364Y-60332682D01*
X194693465Y-60335636D01*
X194728890Y-60333000D01*
X194757500Y-60322679D01*
X194778296Y-60301772D01*
X194792442Y-60267381D01*
X194801103Y-60216610D01*
X194805445Y-60146563D01*
X194806633Y-60054342D01*
X194806633Y-59858614D01*
X194932376Y-59858614D01*
X194932376Y-60094578D01*
X194932160Y-60157561D01*
X194930484Y-60239007D01*
X194926277Y-60301121D01*
X194918521Y-60347458D01*
X194906196Y-60381573D01*
X194888285Y-60407022D01*
X194863767Y-60427362D01*
X194831623Y-60446147D01*
X194764125Y-60469928D01*
X194693681Y-60471480D01*
X194627264Y-60449580D01*
X194598286Y-60435383D01*
X194583909Y-60433261D01*
X194580297Y-60443293D01*
X194574299Y-60454556D01*
X194552830Y-60460489D01*
X194511138Y-60462179D01*
X194441980Y-60462179D01*
X194441980Y-59858614D01*
X194580297Y-59858614D01*
X194580297Y-60054342D01*
G36*
X194580297Y-60054342D02*
G01*
X194581357Y-60142394D01*
X194585509Y-60213510D01*
X194593921Y-60265199D01*
X194607757Y-60300360D01*
X194628182Y-60321889D01*
X194656364Y-60332682D01*
X194693465Y-60335636D01*
X194728890Y-60333000D01*
X194757500Y-60322679D01*
X194778296Y-60301772D01*
X194792442Y-60267381D01*
X194801103Y-60216610D01*
X194805445Y-60146563D01*
X194806633Y-60054342D01*
X194806633Y-59858614D01*
X194932376Y-59858614D01*
X194932376Y-60094578D01*
X194932160Y-60157561D01*
X194930484Y-60239007D01*
X194926277Y-60301121D01*
X194918521Y-60347458D01*
X194906196Y-60381573D01*
X194888285Y-60407022D01*
X194863767Y-60427362D01*
X194831623Y-60446147D01*
X194764125Y-60469928D01*
X194693681Y-60471480D01*
X194627264Y-60449580D01*
X194598286Y-60435383D01*
X194583909Y-60433261D01*
X194580297Y-60443293D01*
X194574299Y-60454556D01*
X194552830Y-60460489D01*
X194511138Y-60462179D01*
X194441980Y-60462179D01*
X194441980Y-59858614D01*
X194580297Y-59858614D01*
X194580297Y-60054342D01*
G37*
X196682605Y-59857424D02*
X196739926Y-59875434D01*
X196765199Y-59887674D01*
X196777910Y-59888938D01*
X196780792Y-59877798D01*
X196780795Y-59877461D01*
X196787006Y-59866087D01*
X196808428Y-59860256D01*
X196849950Y-59858614D01*
X196919109Y-59858614D01*
X196919109Y-60462179D01*
X196780792Y-60462179D01*
X196780792Y-60254132D01*
X196780697Y-60183879D01*
X196780051Y-60126170D01*
X196778320Y-60085787D01*
X196774974Y-60058615D01*
X196769481Y-60040540D01*
X196761310Y-60027447D01*
X196749928Y-60015221D01*
X196734424Y-60002217D01*
X196689843Y-59984745D01*
X196643047Y-59989873D01*
X196600180Y-60017507D01*
X196587927Y-60030368D01*
X196579132Y-60043384D01*
X196573233Y-60060706D01*
X196569651Y-60086501D01*
X196567809Y-60124939D01*
X196567128Y-60180189D01*
X196567030Y-60256418D01*
X196567030Y-60462179D01*
X196428713Y-60462179D01*
X196428989Y-60238985D01*
X196429008Y-60229044D01*
X196430207Y-60134106D01*
X196433891Y-60060358D01*
X196441006Y-60004214D01*
X196452500Y-59962087D01*
X196469318Y-59930391D01*
X196492409Y-59905541D01*
X196522717Y-59883950D01*
X196554012Y-59869002D01*
X196617037Y-59855421D01*
X196682605Y-59857424D01*
G36*
X196682605Y-59857424D02*
G01*
X196739926Y-59875434D01*
X196765199Y-59887674D01*
X196777910Y-59888938D01*
X196780792Y-59877798D01*
X196780795Y-59877461D01*
X196787006Y-59866087D01*
X196808428Y-59860256D01*
X196849950Y-59858614D01*
X196919109Y-59858614D01*
X196919109Y-60462179D01*
X196780792Y-60462179D01*
X196780792Y-60254132D01*
X196780697Y-60183879D01*
X196780051Y-60126170D01*
X196778320Y-60085787D01*
X196774974Y-60058615D01*
X196769481Y-60040540D01*
X196761310Y-60027447D01*
X196749928Y-60015221D01*
X196734424Y-60002217D01*
X196689843Y-59984745D01*
X196643047Y-59989873D01*
X196600180Y-60017507D01*
X196587927Y-60030368D01*
X196579132Y-60043384D01*
X196573233Y-60060706D01*
X196569651Y-60086501D01*
X196567809Y-60124939D01*
X196567128Y-60180189D01*
X196567030Y-60256418D01*
X196567030Y-60462179D01*
X196428713Y-60462179D01*
X196428989Y-60238985D01*
X196429008Y-60229044D01*
X196430207Y-60134106D01*
X196433891Y-60060358D01*
X196441006Y-60004214D01*
X196452500Y-59962087D01*
X196469318Y-59930391D01*
X196492409Y-59905541D01*
X196522717Y-59883950D01*
X196554012Y-59869002D01*
X196617037Y-59855421D01*
X196682605Y-59857424D01*
G37*
X193733409Y-59861493D02*
X193802021Y-59888224D01*
X193860048Y-59932351D01*
X193902907Y-59992958D01*
X193905801Y-59999137D01*
X193924176Y-60059409D01*
X193933357Y-60131407D01*
X193933285Y-60206369D01*
X193923901Y-60275536D01*
X193905149Y-60330149D01*
X193881995Y-60368212D01*
X193831030Y-60422135D01*
X193767306Y-60456411D01*
X193712785Y-60470272D01*
X193629767Y-60471785D01*
X193550326Y-60450882D01*
X193479879Y-60408464D01*
X193434284Y-60370880D01*
X193475351Y-60328510D01*
X193501296Y-60303409D01*
X193524764Y-60289434D01*
X193546524Y-60292511D01*
X193574356Y-60311287D01*
X193585454Y-60318638D01*
X193632337Y-60333683D01*
X193686224Y-60333673D01*
X193736675Y-60318168D01*
X193755672Y-60305716D01*
X193783537Y-60268946D01*
X193797506Y-60214939D01*
X193798405Y-60141331D01*
X193798403Y-60141289D01*
X193788009Y-60075433D01*
X193765114Y-60029772D01*
X193727439Y-60001528D01*
X193672708Y-59987920D01*
X193638241Y-59986090D01*
X193608126Y-59993584D01*
X193577240Y-60015295D01*
X193537272Y-60048926D01*
X193486656Y-60008250D01*
X193468163Y-59992667D01*
X193445065Y-59970340D01*
X193436039Y-59957183D01*
X193439236Y-59951253D01*
X193457646Y-59933048D01*
X193486973Y-59909895D01*
X193509920Y-59894830D01*
X193582774Y-59863880D01*
X193658799Y-59853073D01*
X193733409Y-59861493D01*
G36*
X193733409Y-59861493D02*
G01*
X193802021Y-59888224D01*
X193860048Y-59932351D01*
X193902907Y-59992958D01*
X193905801Y-59999137D01*
X193924176Y-60059409D01*
X193933357Y-60131407D01*
X193933285Y-60206369D01*
X193923901Y-60275536D01*
X193905149Y-60330149D01*
X193881995Y-60368212D01*
X193831030Y-60422135D01*
X193767306Y-60456411D01*
X193712785Y-60470272D01*
X193629767Y-60471785D01*
X193550326Y-60450882D01*
X193479879Y-60408464D01*
X193434284Y-60370880D01*
X193475351Y-60328510D01*
X193501296Y-60303409D01*
X193524764Y-60289434D01*
X193546524Y-60292511D01*
X193574356Y-60311287D01*
X193585454Y-60318638D01*
X193632337Y-60333683D01*
X193686224Y-60333673D01*
X193736675Y-60318168D01*
X193755672Y-60305716D01*
X193783537Y-60268946D01*
X193797506Y-60214939D01*
X193798405Y-60141331D01*
X193798403Y-60141289D01*
X193788009Y-60075433D01*
X193765114Y-60029772D01*
X193727439Y-60001528D01*
X193672708Y-59987920D01*
X193638241Y-59986090D01*
X193608126Y-59993584D01*
X193577240Y-60015295D01*
X193537272Y-60048926D01*
X193486656Y-60008250D01*
X193468163Y-59992667D01*
X193445065Y-59970340D01*
X193436039Y-59957183D01*
X193439236Y-59951253D01*
X193457646Y-59933048D01*
X193486973Y-59909895D01*
X193509920Y-59894830D01*
X193582774Y-59863880D01*
X193658799Y-59853073D01*
X193733409Y-59861493D01*
G37*
X195532857Y-60203771D02*
X195529349Y-60243565D01*
X195513844Y-60319538D01*
X195486110Y-60377511D01*
X195443898Y-60421300D01*
X195384960Y-60454722D01*
X195362076Y-60462676D01*
X195302812Y-60472601D01*
X195240447Y-60472331D01*
X195187823Y-60461430D01*
X195186789Y-60461034D01*
X195144381Y-60436087D01*
X195101537Y-60397468D01*
X195065986Y-60353306D01*
X195045459Y-60311727D01*
X195039374Y-60281334D01*
X195034164Y-60224429D01*
X195033291Y-60173705D01*
X195159976Y-60173705D01*
X195167549Y-60234545D01*
X195185341Y-60284538D01*
X195212296Y-60317204D01*
X195222513Y-60322812D01*
X195261473Y-60333007D01*
X195306536Y-60335104D01*
X195344448Y-60328020D01*
X195359244Y-60317861D01*
X195380014Y-60282334D01*
X195393083Y-60226732D01*
X195397624Y-60153766D01*
X195397551Y-60132762D01*
X195395974Y-60090203D01*
X195390728Y-60062439D01*
X195379723Y-60041925D01*
X195360868Y-60021112D01*
X195324989Y-59995887D01*
X195278280Y-59985573D01*
X195233151Y-59995396D01*
X195195680Y-60023805D01*
X195171943Y-60069253D01*
X195163675Y-60108497D01*
X195159976Y-60173705D01*
X195033291Y-60173705D01*
X195033049Y-60159621D01*
X195035844Y-60095116D01*
X195042366Y-60039121D01*
X195052432Y-59999842D01*
X195075877Y-59955372D01*
X195125637Y-59900692D01*
X195189238Y-59866055D01*
X195264790Y-59852345D01*
X195350399Y-59860448D01*
X195364644Y-59863899D01*
X195430982Y-59893664D01*
X195480971Y-59942530D01*
X195514612Y-60010501D01*
X195531906Y-60097580D01*
X195532410Y-60153766D01*
X195532857Y-60203771D01*
G36*
X195532857Y-60203771D02*
G01*
X195529349Y-60243565D01*
X195513844Y-60319538D01*
X195486110Y-60377511D01*
X195443898Y-60421300D01*
X195384960Y-60454722D01*
X195362076Y-60462676D01*
X195302812Y-60472601D01*
X195240447Y-60472331D01*
X195187823Y-60461430D01*
X195186789Y-60461034D01*
X195144381Y-60436087D01*
X195101537Y-60397468D01*
X195065986Y-60353306D01*
X195045459Y-60311727D01*
X195039374Y-60281334D01*
X195034164Y-60224429D01*
X195033291Y-60173705D01*
X195159976Y-60173705D01*
X195167549Y-60234545D01*
X195185341Y-60284538D01*
X195212296Y-60317204D01*
X195222513Y-60322812D01*
X195261473Y-60333007D01*
X195306536Y-60335104D01*
X195344448Y-60328020D01*
X195359244Y-60317861D01*
X195380014Y-60282334D01*
X195393083Y-60226732D01*
X195397624Y-60153766D01*
X195397551Y-60132762D01*
X195395974Y-60090203D01*
X195390728Y-60062439D01*
X195379723Y-60041925D01*
X195360868Y-60021112D01*
X195324989Y-59995887D01*
X195278280Y-59985573D01*
X195233151Y-59995396D01*
X195195680Y-60023805D01*
X195171943Y-60069253D01*
X195163675Y-60108497D01*
X195159976Y-60173705D01*
X195033291Y-60173705D01*
X195033049Y-60159621D01*
X195035844Y-60095116D01*
X195042366Y-60039121D01*
X195052432Y-59999842D01*
X195075877Y-59955372D01*
X195125637Y-59900692D01*
X195189238Y-59866055D01*
X195264790Y-59852345D01*
X195350399Y-59860448D01*
X195364644Y-59863899D01*
X195430982Y-59893664D01*
X195480971Y-59942530D01*
X195514612Y-60010501D01*
X195531906Y-60097580D01*
X195532410Y-60153766D01*
X195532857Y-60203771D01*
G37*
X195632997Y-60999130D02*
X195649997Y-61049850D01*
X195670107Y-61105997D01*
X195686899Y-61148532D01*
X195698986Y-61173990D01*
X195704980Y-61178903D01*
X195706426Y-61174630D01*
X195714254Y-61148422D01*
X195726723Y-61104649D01*
X195742447Y-61048211D01*
X195760043Y-60984010D01*
X195807914Y-60807971D01*
X195881007Y-60804152D01*
X195887177Y-60803846D01*
X195926592Y-60803441D01*
X195945533Y-60807487D01*
X195947945Y-60816726D01*
X195944898Y-60825749D01*
X195934874Y-60856632D01*
X195919180Y-60905544D01*
X195898934Y-60968987D01*
X195875256Y-61043462D01*
X195849263Y-61125471D01*
X195756736Y-61417822D01*
X195640993Y-61417822D01*
X195586457Y-61232352D01*
X195576386Y-61198294D01*
X195557775Y-61136378D01*
X195541872Y-61084787D01*
X195530109Y-61048130D01*
X195523918Y-61031018D01*
X195522154Y-61029741D01*
X195513571Y-61040779D01*
X195501316Y-61069969D01*
X195487426Y-61112750D01*
X195486692Y-61115263D01*
X195468096Y-61178400D01*
X195446818Y-61249889D01*
X195427321Y-61314734D01*
X195395705Y-61419122D01*
X195337402Y-61415328D01*
X195279098Y-61411535D01*
X195225098Y-61241782D01*
X195201390Y-61167193D01*
X195174833Y-61083539D01*
X195149404Y-61003342D01*
X195128354Y-60936857D01*
X195085609Y-60801683D01*
X195228612Y-60801683D01*
X195263274Y-60930570D01*
X195272488Y-60964625D01*
X195289915Y-61028115D01*
X195306054Y-61085874D01*
X195318322Y-61128614D01*
X195338709Y-61197773D01*
X195468745Y-60807971D01*
X195518476Y-60804237D01*
X195568206Y-60800504D01*
X195632997Y-60999130D01*
G36*
X195632997Y-60999130D02*
G01*
X195649997Y-61049850D01*
X195670107Y-61105997D01*
X195686899Y-61148532D01*
X195698986Y-61173990D01*
X195704980Y-61178903D01*
X195706426Y-61174630D01*
X195714254Y-61148422D01*
X195726723Y-61104649D01*
X195742447Y-61048211D01*
X195760043Y-60984010D01*
X195807914Y-60807971D01*
X195881007Y-60804152D01*
X195887177Y-60803846D01*
X195926592Y-60803441D01*
X195945533Y-60807487D01*
X195947945Y-60816726D01*
X195944898Y-60825749D01*
X195934874Y-60856632D01*
X195919180Y-60905544D01*
X195898934Y-60968987D01*
X195875256Y-61043462D01*
X195849263Y-61125471D01*
X195756736Y-61417822D01*
X195640993Y-61417822D01*
X195586457Y-61232352D01*
X195576386Y-61198294D01*
X195557775Y-61136378D01*
X195541872Y-61084787D01*
X195530109Y-61048130D01*
X195523918Y-61031018D01*
X195522154Y-61029741D01*
X195513571Y-61040779D01*
X195501316Y-61069969D01*
X195487426Y-61112750D01*
X195486692Y-61115263D01*
X195468096Y-61178400D01*
X195446818Y-61249889D01*
X195427321Y-61314734D01*
X195395705Y-61419122D01*
X195337402Y-61415328D01*
X195279098Y-61411535D01*
X195225098Y-61241782D01*
X195201390Y-61167193D01*
X195174833Y-61083539D01*
X195149404Y-61003342D01*
X195128354Y-60936857D01*
X195085609Y-60801683D01*
X195228612Y-60801683D01*
X195263274Y-60930570D01*
X195272488Y-60964625D01*
X195289915Y-61028115D01*
X195306054Y-61085874D01*
X195318322Y-61128614D01*
X195338709Y-61197773D01*
X195468745Y-60807971D01*
X195518476Y-60804237D01*
X195568206Y-60800504D01*
X195632997Y-60999130D01*
G37*
X196490761Y-61156813D02*
X196489167Y-61210571D01*
X196485962Y-61248018D01*
X196485413Y-61251450D01*
X196463838Y-61312835D01*
X196424438Y-61364877D01*
X196372752Y-61400135D01*
X196317248Y-61414729D01*
X196248977Y-61413597D01*
X196186173Y-61394029D01*
X196169815Y-61385771D01*
X196148779Y-61376923D01*
X196140774Y-61379676D01*
X196139505Y-61394029D01*
X196138922Y-61401186D01*
X196131394Y-61411772D01*
X196110488Y-61416645D01*
X196070346Y-61417822D01*
X196001188Y-61417822D01*
X196001188Y-61115930D01*
X196139505Y-61115930D01*
X196140496Y-61168230D01*
X196144519Y-61203050D01*
X196153108Y-61226905D01*
X196167797Y-61246895D01*
X196206584Y-61276618D01*
X196251974Y-61286582D01*
X196295989Y-61274260D01*
X196333060Y-61239888D01*
X196342859Y-61214735D01*
X196350097Y-61170194D01*
X196353279Y-61116155D01*
X196352277Y-61060728D01*
X196346961Y-61012022D01*
X196337204Y-60978148D01*
X196334087Y-60972593D01*
X196304038Y-60944674D01*
X196263315Y-60932306D01*
X196219579Y-60935183D01*
X196180491Y-60953000D01*
X196153710Y-60985452D01*
X196152603Y-60988181D01*
X196145963Y-61018634D01*
X196141278Y-61064139D01*
X196139505Y-61115930D01*
X196001188Y-61115930D01*
X196001188Y-60562773D01*
X196139505Y-60562773D01*
X196139505Y-60855878D01*
X196165124Y-60832693D01*
X196189792Y-60818282D01*
X196236480Y-60806236D01*
X196291056Y-60802354D01*
X196344354Y-60807120D01*
X196387207Y-60821014D01*
X196417878Y-60840779D01*
X196449471Y-60874449D01*
X196470733Y-60919730D01*
X196483514Y-60980981D01*
X196489664Y-61062563D01*
X196490568Y-61095540D01*
X196490633Y-61116155D01*
X196490761Y-61156813D01*
G36*
X196490761Y-61156813D02*
G01*
X196489167Y-61210571D01*
X196485962Y-61248018D01*
X196485413Y-61251450D01*
X196463838Y-61312835D01*
X196424438Y-61364877D01*
X196372752Y-61400135D01*
X196317248Y-61414729D01*
X196248977Y-61413597D01*
X196186173Y-61394029D01*
X196169815Y-61385771D01*
X196148779Y-61376923D01*
X196140774Y-61379676D01*
X196139505Y-61394029D01*
X196138922Y-61401186D01*
X196131394Y-61411772D01*
X196110488Y-61416645D01*
X196070346Y-61417822D01*
X196001188Y-61417822D01*
X196001188Y-61115930D01*
X196139505Y-61115930D01*
X196140496Y-61168230D01*
X196144519Y-61203050D01*
X196153108Y-61226905D01*
X196167797Y-61246895D01*
X196206584Y-61276618D01*
X196251974Y-61286582D01*
X196295989Y-61274260D01*
X196333060Y-61239888D01*
X196342859Y-61214735D01*
X196350097Y-61170194D01*
X196353279Y-61116155D01*
X196352277Y-61060728D01*
X196346961Y-61012022D01*
X196337204Y-60978148D01*
X196334087Y-60972593D01*
X196304038Y-60944674D01*
X196263315Y-60932306D01*
X196219579Y-60935183D01*
X196180491Y-60953000D01*
X196153710Y-60985452D01*
X196152603Y-60988181D01*
X196145963Y-61018634D01*
X196141278Y-61064139D01*
X196139505Y-61115930D01*
X196001188Y-61115930D01*
X196001188Y-60562773D01*
X196139505Y-60562773D01*
X196139505Y-60855878D01*
X196165124Y-60832693D01*
X196189792Y-60818282D01*
X196236480Y-60806236D01*
X196291056Y-60802354D01*
X196344354Y-60807120D01*
X196387207Y-60821014D01*
X196417878Y-60840779D01*
X196449471Y-60874449D01*
X196470733Y-60919730D01*
X196483514Y-60980981D01*
X196489664Y-61062563D01*
X196490568Y-61095540D01*
X196490633Y-61116155D01*
X196490761Y-61156813D01*
G37*
X198664997Y-60194931D02*
X198663373Y-60234310D01*
X198659688Y-60282332D01*
X198653410Y-60316368D01*
X198643044Y-60343338D01*
X198627092Y-60370158D01*
X198626412Y-60371175D01*
X198587132Y-60414629D01*
X198539072Y-60447772D01*
X198483185Y-60467439D01*
X198409666Y-60473824D01*
X198337609Y-60461268D01*
X198273201Y-60431011D01*
X198222627Y-60384294D01*
X198208108Y-60362221D01*
X198180993Y-60293602D01*
X198167546Y-60208939D01*
X198167776Y-60187523D01*
X198302920Y-60187523D01*
X198303174Y-60227574D01*
X198307421Y-60254313D01*
X198317096Y-60274859D01*
X198333638Y-60296331D01*
X198356593Y-60317639D01*
X198402505Y-60336653D01*
X198451802Y-60333122D01*
X198498917Y-60306694D01*
X198512207Y-60294072D01*
X198526397Y-60272465D01*
X198534266Y-60242094D01*
X198538726Y-60194770D01*
X198539955Y-60159219D01*
X198533224Y-60086620D01*
X198512567Y-60034642D01*
X198477894Y-60002999D01*
X198437249Y-59987847D01*
X198388777Y-59989123D01*
X198343845Y-60014703D01*
X198333103Y-60024442D01*
X198319548Y-60041480D01*
X198311505Y-60063772D01*
X198307043Y-60097947D01*
X198304228Y-60150638D01*
X198302920Y-60187523D01*
X198167776Y-60187523D01*
X198168583Y-60112351D01*
X198169907Y-60098651D01*
X198188374Y-60010908D01*
X198222540Y-59942793D01*
X198272479Y-59894231D01*
X198338261Y-59865148D01*
X198419961Y-59855471D01*
X198450828Y-59856379D01*
X198514128Y-59867493D01*
X198565889Y-59894021D01*
X198614147Y-59939436D01*
X198621865Y-59948551D01*
X198642681Y-59979248D01*
X198656362Y-60014007D01*
X198663948Y-60058056D01*
X198666479Y-60116621D01*
X198665672Y-60159219D01*
X198664997Y-60194931D01*
G36*
X198664997Y-60194931D02*
G01*
X198663373Y-60234310D01*
X198659688Y-60282332D01*
X198653410Y-60316368D01*
X198643044Y-60343338D01*
X198627092Y-60370158D01*
X198626412Y-60371175D01*
X198587132Y-60414629D01*
X198539072Y-60447772D01*
X198483185Y-60467439D01*
X198409666Y-60473824D01*
X198337609Y-60461268D01*
X198273201Y-60431011D01*
X198222627Y-60384294D01*
X198208108Y-60362221D01*
X198180993Y-60293602D01*
X198167546Y-60208939D01*
X198167776Y-60187523D01*
X198302920Y-60187523D01*
X198303174Y-60227574D01*
X198307421Y-60254313D01*
X198317096Y-60274859D01*
X198333638Y-60296331D01*
X198356593Y-60317639D01*
X198402505Y-60336653D01*
X198451802Y-60333122D01*
X198498917Y-60306694D01*
X198512207Y-60294072D01*
X198526397Y-60272465D01*
X198534266Y-60242094D01*
X198538726Y-60194770D01*
X198539955Y-60159219D01*
X198533224Y-60086620D01*
X198512567Y-60034642D01*
X198477894Y-60002999D01*
X198437249Y-59987847D01*
X198388777Y-59989123D01*
X198343845Y-60014703D01*
X198333103Y-60024442D01*
X198319548Y-60041480D01*
X198311505Y-60063772D01*
X198307043Y-60097947D01*
X198304228Y-60150638D01*
X198302920Y-60187523D01*
X198167776Y-60187523D01*
X198168583Y-60112351D01*
X198169907Y-60098651D01*
X198188374Y-60010908D01*
X198222540Y-59942793D01*
X198272479Y-59894231D01*
X198338261Y-59865148D01*
X198419961Y-59855471D01*
X198450828Y-59856379D01*
X198514128Y-59867493D01*
X198565889Y-59894021D01*
X198614147Y-59939436D01*
X198621865Y-59948551D01*
X198642681Y-59979248D01*
X198656362Y-60014007D01*
X198663948Y-60058056D01*
X198666479Y-60116621D01*
X198665672Y-60159219D01*
X198664997Y-60194931D01*
G37*
X193419444Y-60119878D02*
X193417825Y-60216121D01*
X193417615Y-60218014D01*
X193399535Y-60306325D01*
X193366870Y-60374986D01*
X193318601Y-60425506D01*
X193253713Y-60459393D01*
X193241801Y-60463268D01*
X193167971Y-60474688D01*
X193091614Y-60468320D01*
X193020626Y-60445563D01*
X192962904Y-60407819D01*
X192919667Y-60367872D01*
X192965625Y-60331532D01*
X193011583Y-60295193D01*
X193066969Y-60322101D01*
X193131056Y-60343905D01*
X193187632Y-60344558D01*
X193233920Y-60324525D01*
X193267230Y-60284315D01*
X193279171Y-60260222D01*
X193285837Y-60239630D01*
X193281980Y-60225720D01*
X193264675Y-60217181D01*
X193230997Y-60212704D01*
X193178021Y-60210978D01*
X193102822Y-60210693D01*
X192920495Y-60210693D01*
X192920495Y-60123492D01*
X192921857Y-60085210D01*
X193050234Y-60085210D01*
X193056399Y-60092251D01*
X193074654Y-60095916D01*
X193109352Y-60097306D01*
X193164846Y-60097525D01*
X193194603Y-60097176D01*
X193241562Y-60094867D01*
X193273416Y-60090822D01*
X193285148Y-60085542D01*
X193282146Y-60066062D01*
X193260988Y-60028786D01*
X193225731Y-59998164D01*
X193183699Y-59979668D01*
X193142220Y-59978773D01*
X193110997Y-59993604D01*
X193075618Y-60027355D01*
X193053122Y-60069233D01*
X193051805Y-60073690D01*
X193050234Y-60085210D01*
X192921857Y-60085210D01*
X192922136Y-60077371D01*
X192926955Y-60031740D01*
X192933840Y-60000893D01*
X192938859Y-59989117D01*
X192975390Y-59936667D01*
X193028175Y-59892921D01*
X193089904Y-59864279D01*
X193122102Y-59856457D01*
X193198820Y-59852896D01*
X193267179Y-59871009D01*
X193325299Y-59908779D01*
X193371302Y-59964191D01*
X193403310Y-60035229D01*
X193412900Y-60085542D01*
X193419444Y-60119878D01*
G36*
X193419444Y-60119878D02*
G01*
X193417825Y-60216121D01*
X193417615Y-60218014D01*
X193399535Y-60306325D01*
X193366870Y-60374986D01*
X193318601Y-60425506D01*
X193253713Y-60459393D01*
X193241801Y-60463268D01*
X193167971Y-60474688D01*
X193091614Y-60468320D01*
X193020626Y-60445563D01*
X192962904Y-60407819D01*
X192919667Y-60367872D01*
X192965625Y-60331532D01*
X193011583Y-60295193D01*
X193066969Y-60322101D01*
X193131056Y-60343905D01*
X193187632Y-60344558D01*
X193233920Y-60324525D01*
X193267230Y-60284315D01*
X193279171Y-60260222D01*
X193285837Y-60239630D01*
X193281980Y-60225720D01*
X193264675Y-60217181D01*
X193230997Y-60212704D01*
X193178021Y-60210978D01*
X193102822Y-60210693D01*
X192920495Y-60210693D01*
X192920495Y-60123492D01*
X192921857Y-60085210D01*
X193050234Y-60085210D01*
X193056399Y-60092251D01*
X193074654Y-60095916D01*
X193109352Y-60097306D01*
X193164846Y-60097525D01*
X193194603Y-60097176D01*
X193241562Y-60094867D01*
X193273416Y-60090822D01*
X193285148Y-60085542D01*
X193282146Y-60066062D01*
X193260988Y-60028786D01*
X193225731Y-59998164D01*
X193183699Y-59979668D01*
X193142220Y-59978773D01*
X193110997Y-59993604D01*
X193075618Y-60027355D01*
X193053122Y-60069233D01*
X193051805Y-60073690D01*
X193050234Y-60085210D01*
X192921857Y-60085210D01*
X192922136Y-60077371D01*
X192926955Y-60031740D01*
X192933840Y-60000893D01*
X192938859Y-59989117D01*
X192975390Y-59936667D01*
X193028175Y-59892921D01*
X193089904Y-59864279D01*
X193122102Y-59856457D01*
X193198820Y-59852896D01*
X193267179Y-59871009D01*
X193325299Y-59908779D01*
X193371302Y-59964191D01*
X193403310Y-60035229D01*
X193412900Y-60085542D01*
X193419444Y-60119878D01*
G37*
X195898874Y-59858207D02*
X195971495Y-59876408D01*
X196024546Y-59910144D01*
X196058329Y-59959642D01*
X196073147Y-60025126D01*
X196070147Y-60087820D01*
X196048493Y-60140699D01*
X196006967Y-60179796D01*
X195944736Y-60205873D01*
X195860969Y-60219695D01*
X195806540Y-60226940D01*
X195756860Y-60242615D01*
X195731211Y-60265314D01*
X195729662Y-60294998D01*
X195739984Y-60313507D01*
X195771951Y-60335443D01*
X195817395Y-60345818D01*
X195870649Y-60344399D01*
X195926048Y-60330952D01*
X195977928Y-60305243D01*
X196029653Y-60271013D01*
X196075148Y-60317049D01*
X196120643Y-60363084D01*
X196082921Y-60393876D01*
X196068253Y-60404574D01*
X196026983Y-60428880D01*
X195982327Y-60449825D01*
X195946984Y-60461845D01*
X195895234Y-60470552D01*
X195831435Y-60470667D01*
X195753200Y-60461081D01*
X195682722Y-60436783D01*
X195632836Y-60398188D01*
X195603423Y-60345198D01*
X195594365Y-60277718D01*
X195600921Y-60218354D01*
X195621970Y-60169752D01*
X195659864Y-60134946D01*
X195717004Y-60111798D01*
X195795785Y-60098170D01*
X195804834Y-60097183D01*
X195853885Y-60090892D01*
X195893675Y-60084309D01*
X195916312Y-60078708D01*
X195923866Y-60074197D01*
X195936637Y-60050941D01*
X195934563Y-60021171D01*
X195917495Y-59995327D01*
X195908533Y-59989691D01*
X195871188Y-59980660D01*
X195822950Y-59981267D01*
X195772650Y-59990878D01*
X195729115Y-60008858D01*
X195683372Y-60035847D01*
X195647890Y-59994384D01*
X195639280Y-59983850D01*
X195619883Y-59955632D01*
X195611897Y-59936508D01*
X195620283Y-59924781D01*
X195646226Y-59906476D01*
X195683688Y-59886777D01*
X195688966Y-59884370D01*
X195738366Y-59865482D01*
X195785983Y-59856452D01*
X195845072Y-59854639D01*
X195898874Y-59858207D01*
G36*
X195898874Y-59858207D02*
G01*
X195971495Y-59876408D01*
X196024546Y-59910144D01*
X196058329Y-59959642D01*
X196073147Y-60025126D01*
X196070147Y-60087820D01*
X196048493Y-60140699D01*
X196006967Y-60179796D01*
X195944736Y-60205873D01*
X195860969Y-60219695D01*
X195806540Y-60226940D01*
X195756860Y-60242615D01*
X195731211Y-60265314D01*
X195729662Y-60294998D01*
X195739984Y-60313507D01*
X195771951Y-60335443D01*
X195817395Y-60345818D01*
X195870649Y-60344399D01*
X195926048Y-60330952D01*
X195977928Y-60305243D01*
X196029653Y-60271013D01*
X196075148Y-60317049D01*
X196120643Y-60363084D01*
X196082921Y-60393876D01*
X196068253Y-60404574D01*
X196026983Y-60428880D01*
X195982327Y-60449825D01*
X195946984Y-60461845D01*
X195895234Y-60470552D01*
X195831435Y-60470667D01*
X195753200Y-60461081D01*
X195682722Y-60436783D01*
X195632836Y-60398188D01*
X195603423Y-60345198D01*
X195594365Y-60277718D01*
X195600921Y-60218354D01*
X195621970Y-60169752D01*
X195659864Y-60134946D01*
X195717004Y-60111798D01*
X195795785Y-60098170D01*
X195804834Y-60097183D01*
X195853885Y-60090892D01*
X195893675Y-60084309D01*
X195916312Y-60078708D01*
X195923866Y-60074197D01*
X195936637Y-60050941D01*
X195934563Y-60021171D01*
X195917495Y-59995327D01*
X195908533Y-59989691D01*
X195871188Y-59980660D01*
X195822950Y-59981267D01*
X195772650Y-59990878D01*
X195729115Y-60008858D01*
X195683372Y-60035847D01*
X195647890Y-59994384D01*
X195639280Y-59983850D01*
X195619883Y-59955632D01*
X195611897Y-59936508D01*
X195620283Y-59924781D01*
X195646226Y-59906476D01*
X195683688Y-59886777D01*
X195688966Y-59884370D01*
X195738366Y-59865482D01*
X195785983Y-59856452D01*
X195845072Y-59854639D01*
X195898874Y-59858207D01*
G37*
X194064353Y-61109753D02*
X194062718Y-61156692D01*
X194047827Y-61246459D01*
X194017185Y-61317045D01*
X193970524Y-61368952D01*
X193907574Y-61402686D01*
X193887235Y-61408647D01*
X193814612Y-61416971D01*
X193737928Y-61409946D01*
X193668663Y-61388265D01*
X193644262Y-61375959D01*
X193609275Y-61354879D01*
X193588072Y-61337534D01*
X193584942Y-61333571D01*
X193579085Y-61319077D01*
X193587524Y-61303321D01*
X193613221Y-61279460D01*
X193625622Y-61269072D01*
X193650052Y-61250063D01*
X193662861Y-61242293D01*
X193666530Y-61243094D01*
X193687561Y-61251745D01*
X193718960Y-61266931D01*
X193729197Y-61271926D01*
X193789590Y-61290475D01*
X193842057Y-61285694D01*
X193888065Y-61257500D01*
X193893419Y-61252291D01*
X193919013Y-61219659D01*
X193933637Y-61188342D01*
X193941736Y-61153763D01*
X193561782Y-61153763D01*
X193561852Y-61087748D01*
X193561892Y-61081182D01*
X193567022Y-61028218D01*
X193700099Y-61028218D01*
X193701670Y-61039203D01*
X193709738Y-61046773D01*
X193728967Y-61050975D01*
X193764019Y-61052783D01*
X193819554Y-61053169D01*
X193850429Y-61052768D01*
X193896002Y-61050429D01*
X193927348Y-61046465D01*
X193939010Y-61041413D01*
X193929064Y-60999827D01*
X193899947Y-60961013D01*
X193857952Y-60934086D01*
X193809440Y-60924772D01*
X193773723Y-60935272D01*
X193738020Y-60960940D01*
X193710879Y-60994381D01*
X193700099Y-61028218D01*
X193567022Y-61028218D01*
X193569758Y-60999965D01*
X193592655Y-60933895D01*
X193632607Y-60876940D01*
X193656979Y-60852848D01*
X193707315Y-60820597D01*
X193767419Y-60804970D01*
X193843338Y-60803871D01*
X193880010Y-60808179D01*
X193947703Y-60830549D01*
X193999530Y-60871263D01*
X194035945Y-60930949D01*
X194057401Y-61010236D01*
X194059579Y-61041413D01*
X194064353Y-61109753D01*
G36*
X194064353Y-61109753D02*
G01*
X194062718Y-61156692D01*
X194047827Y-61246459D01*
X194017185Y-61317045D01*
X193970524Y-61368952D01*
X193907574Y-61402686D01*
X193887235Y-61408647D01*
X193814612Y-61416971D01*
X193737928Y-61409946D01*
X193668663Y-61388265D01*
X193644262Y-61375959D01*
X193609275Y-61354879D01*
X193588072Y-61337534D01*
X193584942Y-61333571D01*
X193579085Y-61319077D01*
X193587524Y-61303321D01*
X193613221Y-61279460D01*
X193625622Y-61269072D01*
X193650052Y-61250063D01*
X193662861Y-61242293D01*
X193666530Y-61243094D01*
X193687561Y-61251745D01*
X193718960Y-61266931D01*
X193729197Y-61271926D01*
X193789590Y-61290475D01*
X193842057Y-61285694D01*
X193888065Y-61257500D01*
X193893419Y-61252291D01*
X193919013Y-61219659D01*
X193933637Y-61188342D01*
X193941736Y-61153763D01*
X193561782Y-61153763D01*
X193561852Y-61087748D01*
X193561892Y-61081182D01*
X193567022Y-61028218D01*
X193700099Y-61028218D01*
X193701670Y-61039203D01*
X193709738Y-61046773D01*
X193728967Y-61050975D01*
X193764019Y-61052783D01*
X193819554Y-61053169D01*
X193850429Y-61052768D01*
X193896002Y-61050429D01*
X193927348Y-61046465D01*
X193939010Y-61041413D01*
X193929064Y-60999827D01*
X193899947Y-60961013D01*
X193857952Y-60934086D01*
X193809440Y-60924772D01*
X193773723Y-60935272D01*
X193738020Y-60960940D01*
X193710879Y-60994381D01*
X193700099Y-61028218D01*
X193567022Y-61028218D01*
X193569758Y-60999965D01*
X193592655Y-60933895D01*
X193632607Y-60876940D01*
X193656979Y-60852848D01*
X193707315Y-60820597D01*
X193767419Y-60804970D01*
X193843338Y-60803871D01*
X193880010Y-60808179D01*
X193947703Y-60830549D01*
X193999530Y-60871263D01*
X194035945Y-60930949D01*
X194057401Y-61010236D01*
X194059579Y-61041413D01*
X194064353Y-61109753D01*
G37*
X197507022Y-60084861D02*
X197511421Y-60172936D01*
X197510322Y-60211371D01*
X197497926Y-60295367D01*
X197470608Y-60361595D01*
X197426941Y-60412784D01*
X197365495Y-60451663D01*
X197305888Y-60469812D01*
X197231110Y-60473284D01*
X197155664Y-60459930D01*
X197088366Y-60430425D01*
X197063428Y-60414012D01*
X197035951Y-60392973D01*
X197023414Y-60379129D01*
X197024124Y-60373417D01*
X197038158Y-60353955D01*
X197064533Y-60330376D01*
X197110240Y-60295513D01*
X197163799Y-60322262D01*
X197178282Y-60328882D01*
X197220916Y-60343273D01*
X197256649Y-60349010D01*
X197282998Y-60344282D01*
X197324347Y-60321514D01*
X197359104Y-60286170D01*
X197378983Y-60245273D01*
X197387083Y-60210693D01*
X197007129Y-60210693D01*
X197007199Y-60144679D01*
X197007774Y-60123757D01*
X197011972Y-60078862D01*
X197145445Y-60078862D01*
X197145690Y-60081434D01*
X197152604Y-60089443D01*
X197172141Y-60094364D01*
X197208467Y-60096843D01*
X197265748Y-60097525D01*
X197284575Y-60097517D01*
X197333470Y-60097065D01*
X197362863Y-60095113D01*
X197377115Y-60090558D01*
X197380582Y-60082299D01*
X197377625Y-60069233D01*
X197377173Y-60067752D01*
X197351699Y-60022285D01*
X197311539Y-59990981D01*
X197263651Y-59979327D01*
X197245949Y-59980259D01*
X197213094Y-59991408D01*
X197181575Y-60019763D01*
X197173085Y-60029789D01*
X197153336Y-60058423D01*
X197145445Y-60078862D01*
X197011972Y-60078862D01*
X197012512Y-60073091D01*
X197020459Y-60031166D01*
X197029168Y-60007696D01*
X197059790Y-59956646D01*
X197100799Y-59910283D01*
X197144168Y-59878514D01*
X197156699Y-59872614D01*
X197229661Y-59853046D01*
X197304168Y-59855109D01*
X197374217Y-59877931D01*
X197433807Y-59920639D01*
X197466038Y-59960025D01*
X197492392Y-60015510D01*
X197506482Y-60082299D01*
X197507022Y-60084861D01*
G36*
X197507022Y-60084861D02*
G01*
X197511421Y-60172936D01*
X197510322Y-60211371D01*
X197497926Y-60295367D01*
X197470608Y-60361595D01*
X197426941Y-60412784D01*
X197365495Y-60451663D01*
X197305888Y-60469812D01*
X197231110Y-60473284D01*
X197155664Y-60459930D01*
X197088366Y-60430425D01*
X197063428Y-60414012D01*
X197035951Y-60392973D01*
X197023414Y-60379129D01*
X197024124Y-60373417D01*
X197038158Y-60353955D01*
X197064533Y-60330376D01*
X197110240Y-60295513D01*
X197163799Y-60322262D01*
X197178282Y-60328882D01*
X197220916Y-60343273D01*
X197256649Y-60349010D01*
X197282998Y-60344282D01*
X197324347Y-60321514D01*
X197359104Y-60286170D01*
X197378983Y-60245273D01*
X197387083Y-60210693D01*
X197007129Y-60210693D01*
X197007199Y-60144679D01*
X197007774Y-60123757D01*
X197011972Y-60078862D01*
X197145445Y-60078862D01*
X197145690Y-60081434D01*
X197152604Y-60089443D01*
X197172141Y-60094364D01*
X197208467Y-60096843D01*
X197265748Y-60097525D01*
X197284575Y-60097517D01*
X197333470Y-60097065D01*
X197362863Y-60095113D01*
X197377115Y-60090558D01*
X197380582Y-60082299D01*
X197377625Y-60069233D01*
X197377173Y-60067752D01*
X197351699Y-60022285D01*
X197311539Y-59990981D01*
X197263651Y-59979327D01*
X197245949Y-59980259D01*
X197213094Y-59991408D01*
X197181575Y-60019763D01*
X197173085Y-60029789D01*
X197153336Y-60058423D01*
X197145445Y-60078862D01*
X197011972Y-60078862D01*
X197012512Y-60073091D01*
X197020459Y-60031166D01*
X197029168Y-60007696D01*
X197059790Y-59956646D01*
X197100799Y-59910283D01*
X197144168Y-59878514D01*
X197156699Y-59872614D01*
X197229661Y-59853046D01*
X197304168Y-59855109D01*
X197374217Y-59877931D01*
X197433807Y-59920639D01*
X197466038Y-59960025D01*
X197492392Y-60015510D01*
X197506482Y-60082299D01*
X197507022Y-60084861D01*
G37*
X195089413Y-61252333D02*
X195074244Y-61309419D01*
X195041277Y-61358255D01*
X194991270Y-61393386D01*
X194986362Y-61395521D01*
X194931646Y-61410903D01*
X194869993Y-61416899D01*
X194811376Y-61413233D01*
X194765767Y-61399629D01*
X194747549Y-61390754D01*
X194734179Y-61388637D01*
X194731188Y-61399706D01*
X194725524Y-61409942D01*
X194703607Y-61416038D01*
X194661068Y-61417822D01*
X194590948Y-61417822D01*
X194594680Y-61197773D01*
X194731188Y-61197773D01*
X194735924Y-61230666D01*
X194756336Y-61266931D01*
X194763871Y-61273597D01*
X194794753Y-61287620D01*
X194841213Y-61291228D01*
X194869090Y-61289819D01*
X194921255Y-61279204D01*
X194953587Y-61259425D01*
X194964492Y-61231824D01*
X194952374Y-61197743D01*
X194945304Y-61188824D01*
X194913724Y-61168818D01*
X194863744Y-61157395D01*
X194792487Y-61153763D01*
X194731188Y-61153763D01*
X194731188Y-61197773D01*
X194594680Y-61197773D01*
X194595053Y-61175768D01*
X194596169Y-61119794D01*
X194599106Y-61035996D01*
X194604058Y-60971920D01*
X194612002Y-60924073D01*
X194623917Y-60888962D01*
X194640780Y-60863093D01*
X194663572Y-60842974D01*
X194693269Y-60825110D01*
X194708589Y-60818290D01*
X194761589Y-60805417D01*
X194825513Y-60800095D01*
X194891602Y-60802227D01*
X194951099Y-60811714D01*
X194995247Y-60828461D01*
X195010604Y-60838185D01*
X195045960Y-60867005D01*
X195057926Y-60891137D01*
X195055020Y-60895800D01*
X195036909Y-60912088D01*
X195007672Y-60933817D01*
X194992725Y-60943987D01*
X194967270Y-60958397D01*
X194950728Y-60959773D01*
X194935370Y-60949827D01*
X194897094Y-60929684D01*
X194845590Y-60921400D01*
X194792957Y-60927742D01*
X194791961Y-60928030D01*
X194754838Y-60944158D01*
X194736463Y-60969405D01*
X194731380Y-61011158D01*
X194731188Y-61050879D01*
X194862423Y-61055168D01*
X194883331Y-61055873D01*
X194936043Y-61058326D01*
X194971381Y-61062180D01*
X194995267Y-61068878D01*
X195013624Y-61079864D01*
X195032376Y-61096580D01*
X195063337Y-61135244D01*
X195086029Y-61192456D01*
X195088254Y-61231824D01*
X195089413Y-61252333D01*
G36*
X195089413Y-61252333D02*
G01*
X195074244Y-61309419D01*
X195041277Y-61358255D01*
X194991270Y-61393386D01*
X194986362Y-61395521D01*
X194931646Y-61410903D01*
X194869993Y-61416899D01*
X194811376Y-61413233D01*
X194765767Y-61399629D01*
X194747549Y-61390754D01*
X194734179Y-61388637D01*
X194731188Y-61399706D01*
X194725524Y-61409942D01*
X194703607Y-61416038D01*
X194661068Y-61417822D01*
X194590948Y-61417822D01*
X194594680Y-61197773D01*
X194731188Y-61197773D01*
X194735924Y-61230666D01*
X194756336Y-61266931D01*
X194763871Y-61273597D01*
X194794753Y-61287620D01*
X194841213Y-61291228D01*
X194869090Y-61289819D01*
X194921255Y-61279204D01*
X194953587Y-61259425D01*
X194964492Y-61231824D01*
X194952374Y-61197743D01*
X194945304Y-61188824D01*
X194913724Y-61168818D01*
X194863744Y-61157395D01*
X194792487Y-61153763D01*
X194731188Y-61153763D01*
X194731188Y-61197773D01*
X194594680Y-61197773D01*
X194595053Y-61175768D01*
X194596169Y-61119794D01*
X194599106Y-61035996D01*
X194604058Y-60971920D01*
X194612002Y-60924073D01*
X194623917Y-60888962D01*
X194640780Y-60863093D01*
X194663572Y-60842974D01*
X194693269Y-60825110D01*
X194708589Y-60818290D01*
X194761589Y-60805417D01*
X194825513Y-60800095D01*
X194891602Y-60802227D01*
X194951099Y-60811714D01*
X194995247Y-60828461D01*
X195010604Y-60838185D01*
X195045960Y-60867005D01*
X195057926Y-60891137D01*
X195055020Y-60895800D01*
X195036909Y-60912088D01*
X195007672Y-60933817D01*
X194992725Y-60943987D01*
X194967270Y-60958397D01*
X194950728Y-60959773D01*
X194935370Y-60949827D01*
X194897094Y-60929684D01*
X194845590Y-60921400D01*
X194792957Y-60927742D01*
X194791961Y-60928030D01*
X194754838Y-60944158D01*
X194736463Y-60969405D01*
X194731380Y-61011158D01*
X194731188Y-61050879D01*
X194862423Y-61055168D01*
X194883331Y-61055873D01*
X194936043Y-61058326D01*
X194971381Y-61062180D01*
X194995267Y-61068878D01*
X195013624Y-61079864D01*
X195032376Y-61096580D01*
X195063337Y-61135244D01*
X195086029Y-61192456D01*
X195088254Y-61231824D01*
X195089413Y-61252333D01*
G37*
X197507299Y-61250223D02*
X197507157Y-61251882D01*
X197491835Y-61316479D01*
X197457753Y-61365063D01*
X197403218Y-61400072D01*
X197375036Y-61408589D01*
X197326764Y-61415228D01*
X197273978Y-61416813D01*
X197226353Y-61413160D01*
X197193566Y-61404083D01*
X197173652Y-61396813D01*
X197154155Y-61404083D01*
X197147023Y-61408295D01*
X197118557Y-61415126D01*
X197080059Y-61417822D01*
X197019703Y-61417822D01*
X197019703Y-61202111D01*
X197158020Y-61202111D01*
X197162668Y-61238904D01*
X197181015Y-61271269D01*
X197191514Y-61278274D01*
X197228988Y-61289191D01*
X197275773Y-61291917D01*
X197321652Y-61286379D01*
X197356410Y-61272505D01*
X197373726Y-61254161D01*
X197384356Y-61221566D01*
X197374929Y-61195729D01*
X197343764Y-61173263D01*
X197293667Y-61158850D01*
X197227582Y-61153763D01*
X197158020Y-61153763D01*
X197158020Y-61202111D01*
X197019703Y-61202111D01*
X197019703Y-61174484D01*
X197019707Y-61153440D01*
X197019937Y-61074122D01*
X197020797Y-61015154D01*
X197022679Y-60972616D01*
X197025974Y-60942592D01*
X197031073Y-60921163D01*
X197038366Y-60904411D01*
X197048246Y-60888419D01*
X197080023Y-60850948D01*
X197125055Y-60822339D01*
X197184210Y-60806555D01*
X197262161Y-60801703D01*
X197264695Y-60801708D01*
X197318880Y-60804155D01*
X197367380Y-60810256D01*
X197400478Y-60818809D01*
X197409552Y-60823096D01*
X197438433Y-60841248D01*
X197464568Y-60862822D01*
X197481764Y-60882236D01*
X197483825Y-60893909D01*
X197479803Y-60897063D01*
X197435976Y-60930739D01*
X197406671Y-60950600D01*
X197387294Y-60958613D01*
X197373253Y-60956746D01*
X197359957Y-60946965D01*
X197335418Y-60934756D01*
X197294064Y-60926615D01*
X197247326Y-60924503D01*
X197205034Y-60928800D01*
X197177017Y-60939887D01*
X197175543Y-60941236D01*
X197162953Y-60966581D01*
X197158020Y-61004411D01*
X197158020Y-61053169D01*
X197274331Y-61053216D01*
X197327760Y-61054061D01*
X197372735Y-61057740D01*
X197404907Y-61065309D01*
X197430899Y-61077808D01*
X197436948Y-61081647D01*
X197480710Y-61123845D01*
X197503987Y-61179647D01*
X197505955Y-61221566D01*
X197507299Y-61250223D01*
G36*
X197507299Y-61250223D02*
G01*
X197507157Y-61251882D01*
X197491835Y-61316479D01*
X197457753Y-61365063D01*
X197403218Y-61400072D01*
X197375036Y-61408589D01*
X197326764Y-61415228D01*
X197273978Y-61416813D01*
X197226353Y-61413160D01*
X197193566Y-61404083D01*
X197173652Y-61396813D01*
X197154155Y-61404083D01*
X197147023Y-61408295D01*
X197118557Y-61415126D01*
X197080059Y-61417822D01*
X197019703Y-61417822D01*
X197019703Y-61202111D01*
X197158020Y-61202111D01*
X197162668Y-61238904D01*
X197181015Y-61271269D01*
X197191514Y-61278274D01*
X197228988Y-61289191D01*
X197275773Y-61291917D01*
X197321652Y-61286379D01*
X197356410Y-61272505D01*
X197373726Y-61254161D01*
X197384356Y-61221566D01*
X197374929Y-61195729D01*
X197343764Y-61173263D01*
X197293667Y-61158850D01*
X197227582Y-61153763D01*
X197158020Y-61153763D01*
X197158020Y-61202111D01*
X197019703Y-61202111D01*
X197019703Y-61174484D01*
X197019707Y-61153440D01*
X197019937Y-61074122D01*
X197020797Y-61015154D01*
X197022679Y-60972616D01*
X197025974Y-60942592D01*
X197031073Y-60921163D01*
X197038366Y-60904411D01*
X197048246Y-60888419D01*
X197080023Y-60850948D01*
X197125055Y-60822339D01*
X197184210Y-60806555D01*
X197262161Y-60801703D01*
X197264695Y-60801708D01*
X197318880Y-60804155D01*
X197367380Y-60810256D01*
X197400478Y-60818809D01*
X197409552Y-60823096D01*
X197438433Y-60841248D01*
X197464568Y-60862822D01*
X197481764Y-60882236D01*
X197483825Y-60893909D01*
X197479803Y-60897063D01*
X197435976Y-60930739D01*
X197406671Y-60950600D01*
X197387294Y-60958613D01*
X197373253Y-60956746D01*
X197359957Y-60946965D01*
X197335418Y-60934756D01*
X197294064Y-60926615D01*
X197247326Y-60924503D01*
X197205034Y-60928800D01*
X197177017Y-60939887D01*
X197175543Y-60941236D01*
X197162953Y-60966581D01*
X197158020Y-61004411D01*
X197158020Y-61053169D01*
X197274331Y-61053216D01*
X197327760Y-61054061D01*
X197372735Y-61057740D01*
X197404907Y-61065309D01*
X197430899Y-61077808D01*
X197436948Y-61081647D01*
X197480710Y-61123845D01*
X197503987Y-61179647D01*
X197505955Y-61221566D01*
X197507299Y-61250223D01*
G37*
X198075940Y-61419136D02*
X198009926Y-61415336D01*
X197943911Y-61411535D01*
X197940772Y-61210347D01*
X197939844Y-61161425D01*
X197937208Y-61087926D01*
X197932683Y-61033991D01*
X197925438Y-60995995D01*
X197914642Y-60970313D01*
X197899462Y-60953320D01*
X197879066Y-60941389D01*
X197840797Y-60929205D01*
X197802738Y-60933940D01*
X197762549Y-60959979D01*
X197723861Y-60992533D01*
X197723861Y-61417822D01*
X197585544Y-61417822D01*
X197585544Y-61187176D01*
X197585677Y-61114882D01*
X197586413Y-61050641D01*
X197588181Y-61003618D01*
X197591411Y-60969548D01*
X197596530Y-60944170D01*
X197603967Y-60923221D01*
X197614150Y-60902436D01*
X197616564Y-60898024D01*
X197648675Y-60855047D01*
X197686256Y-60825013D01*
X197731564Y-60809243D01*
X197791561Y-60802222D01*
X197851643Y-60806025D01*
X197900525Y-60820868D01*
X197937624Y-60840052D01*
X197937624Y-60424859D01*
X197886792Y-60451354D01*
X197865558Y-60460980D01*
X197798536Y-60474592D01*
X197731930Y-60465184D01*
X197670187Y-60433905D01*
X197617757Y-60381902D01*
X197609543Y-60369680D01*
X197601649Y-60351763D01*
X197596500Y-60327404D01*
X197593527Y-60291927D01*
X197592161Y-60240656D01*
X197591915Y-60187236D01*
X197724749Y-60187236D01*
X197724861Y-60231849D01*
X197728272Y-60261601D01*
X197735937Y-60282835D01*
X197748814Y-60301896D01*
X197765171Y-60319617D01*
X197791329Y-60333028D01*
X197830742Y-60336436D01*
X197865559Y-60333471D01*
X197900020Y-60318631D01*
X197922215Y-60288569D01*
X197934097Y-60240254D01*
X197937624Y-60170650D01*
X197936712Y-60133624D01*
X197927609Y-60063728D01*
X197908828Y-60016464D01*
X197880476Y-59992168D01*
X197851840Y-59985332D01*
X197801970Y-59988537D01*
X197759833Y-60008380D01*
X197749749Y-60017480D01*
X197739063Y-60033223D01*
X197732456Y-60056658D01*
X197728532Y-60093604D01*
X197725897Y-60149880D01*
X197724749Y-60187236D01*
X197591915Y-60187236D01*
X197591831Y-60168917D01*
X197591944Y-60136184D01*
X197593872Y-60060044D01*
X197599240Y-60003166D01*
X197609406Y-59961249D01*
X197625725Y-59929996D01*
X197649553Y-59905106D01*
X197682247Y-59882282D01*
X197708759Y-59869184D01*
X197771615Y-59854739D01*
X197837869Y-59856707D01*
X197896757Y-59875433D01*
X197922030Y-59887673D01*
X197934742Y-59888938D01*
X197937624Y-59877798D01*
X197937626Y-59877461D01*
X197943838Y-59866087D01*
X197965260Y-59860256D01*
X198006782Y-59858614D01*
X198075940Y-59858614D01*
X198075940Y-60170650D01*
X198075940Y-61419136D01*
G36*
X198075940Y-61419136D02*
G01*
X198009926Y-61415336D01*
X197943911Y-61411535D01*
X197940772Y-61210347D01*
X197939844Y-61161425D01*
X197937208Y-61087926D01*
X197932683Y-61033991D01*
X197925438Y-60995995D01*
X197914642Y-60970313D01*
X197899462Y-60953320D01*
X197879066Y-60941389D01*
X197840797Y-60929205D01*
X197802738Y-60933940D01*
X197762549Y-60959979D01*
X197723861Y-60992533D01*
X197723861Y-61417822D01*
X197585544Y-61417822D01*
X197585544Y-61187176D01*
X197585677Y-61114882D01*
X197586413Y-61050641D01*
X197588181Y-61003618D01*
X197591411Y-60969548D01*
X197596530Y-60944170D01*
X197603967Y-60923221D01*
X197614150Y-60902436D01*
X197616564Y-60898024D01*
X197648675Y-60855047D01*
X197686256Y-60825013D01*
X197731564Y-60809243D01*
X197791561Y-60802222D01*
X197851643Y-60806025D01*
X197900525Y-60820868D01*
X197937624Y-60840052D01*
X197937624Y-60424859D01*
X197886792Y-60451354D01*
X197865558Y-60460980D01*
X197798536Y-60474592D01*
X197731930Y-60465184D01*
X197670187Y-60433905D01*
X197617757Y-60381902D01*
X197609543Y-60369680D01*
X197601649Y-60351763D01*
X197596500Y-60327404D01*
X197593527Y-60291927D01*
X197592161Y-60240656D01*
X197591915Y-60187236D01*
X197724749Y-60187236D01*
X197724861Y-60231849D01*
X197728272Y-60261601D01*
X197735937Y-60282835D01*
X197748814Y-60301896D01*
X197765171Y-60319617D01*
X197791329Y-60333028D01*
X197830742Y-60336436D01*
X197865559Y-60333471D01*
X197900020Y-60318631D01*
X197922215Y-60288569D01*
X197934097Y-60240254D01*
X197937624Y-60170650D01*
X197936712Y-60133624D01*
X197927609Y-60063728D01*
X197908828Y-60016464D01*
X197880476Y-59992168D01*
X197851840Y-59985332D01*
X197801970Y-59988537D01*
X197759833Y-60008380D01*
X197749749Y-60017480D01*
X197739063Y-60033223D01*
X197732456Y-60056658D01*
X197728532Y-60093604D01*
X197725897Y-60149880D01*
X197724749Y-60187236D01*
X197591915Y-60187236D01*
X197591831Y-60168917D01*
X197591944Y-60136184D01*
X197593872Y-60060044D01*
X197599240Y-60003166D01*
X197609406Y-59961249D01*
X197625725Y-59929996D01*
X197649553Y-59905106D01*
X197682247Y-59882282D01*
X197708759Y-59869184D01*
X197771615Y-59854739D01*
X197837869Y-59856707D01*
X197896757Y-59875433D01*
X197922030Y-59887673D01*
X197934742Y-59888938D01*
X197937624Y-59877798D01*
X197937626Y-59877461D01*
X197943838Y-59866087D01*
X197965260Y-59860256D01*
X198006782Y-59858614D01*
X198075940Y-59858614D01*
X198075940Y-60170650D01*
X198075940Y-61419136D01*
G37*
X196164389Y-55690018D02*
X196221237Y-55991570D01*
X196431001Y-56078041D01*
X196640764Y-56164512D01*
X196892410Y-55993395D01*
X196942216Y-55959661D01*
X197008244Y-55915381D01*
X197065410Y-55877561D01*
X197110744Y-55848142D01*
X197141280Y-55829067D01*
X197154046Y-55822278D01*
X197161887Y-55827106D01*
X197185325Y-55847339D01*
X197220794Y-55880543D01*
X197265289Y-55923670D01*
X197315805Y-55973670D01*
X197369336Y-56027495D01*
X197422877Y-56082095D01*
X197473423Y-56134423D01*
X197517968Y-56181428D01*
X197553507Y-56220063D01*
X197577034Y-56247278D01*
X197585544Y-56260024D01*
X197583565Y-56265500D01*
X197569857Y-56289927D01*
X197544825Y-56330129D01*
X197510499Y-56382952D01*
X197468907Y-56445247D01*
X197422079Y-56513862D01*
X197396380Y-56551283D01*
X197352173Y-56616432D01*
X197314272Y-56673289D01*
X197284698Y-56718770D01*
X197265472Y-56749793D01*
X197258614Y-56763274D01*
X197258726Y-56764021D01*
X197264776Y-56781110D01*
X197278654Y-56816006D01*
X197298427Y-56864151D01*
X197322160Y-56920986D01*
X197347918Y-56981953D01*
X197373766Y-57042492D01*
X197397771Y-57098047D01*
X197417998Y-57144057D01*
X197432511Y-57175965D01*
X197439377Y-57189212D01*
X197443439Y-57190387D01*
X197468121Y-57195687D01*
X197512111Y-57204467D01*
X197571887Y-57216040D01*
X197643929Y-57229721D01*
X197724716Y-57244823D01*
X197767294Y-57252830D01*
X197845445Y-57268107D01*
X197913775Y-57282215D01*
X197968551Y-57294345D01*
X198006037Y-57303686D01*
X198022500Y-57309427D01*
X198025457Y-57315119D01*
X198030362Y-57342930D01*
X198034216Y-57389250D01*
X198037021Y-57449720D01*
X198038781Y-57519983D01*
X198039499Y-57595680D01*
X198039177Y-57672453D01*
X198037819Y-57745944D01*
X198035428Y-57811794D01*
X198032006Y-57865645D01*
X198027556Y-57903138D01*
X198022082Y-57919916D01*
X198018760Y-57921809D01*
X197993987Y-57929926D01*
X197951011Y-57940666D01*
X197894802Y-57952853D01*
X197830325Y-57965310D01*
X197808570Y-57969277D01*
X197708093Y-57987729D01*
X197629126Y-58002559D01*
X197568934Y-58014380D01*
X197524778Y-58023809D01*
X197493920Y-58031460D01*
X197473625Y-58037948D01*
X197461154Y-58043888D01*
X197453771Y-58049894D01*
X197452913Y-58050902D01*
X197440838Y-58071919D01*
X197422971Y-58110376D01*
X197401042Y-58161761D01*
X197376784Y-58221563D01*
X197351927Y-58285270D01*
X197328205Y-58348371D01*
X197307347Y-58406355D01*
X197291087Y-58454709D01*
X197281156Y-58488922D01*
X197279285Y-58504483D01*
X197280536Y-58506502D01*
X197293486Y-58526028D01*
X197317840Y-58562042D01*
X197351340Y-58611228D01*
X197391727Y-58670267D01*
X197436745Y-58735842D01*
X197449100Y-58753884D01*
X197492545Y-58818599D01*
X197530091Y-58876476D01*
X197559594Y-58924082D01*
X197578914Y-58957985D01*
X197585905Y-58974752D01*
X197584398Y-58979161D01*
X197568695Y-59000882D01*
X197537714Y-59036354D01*
X197493673Y-59083188D01*
X197438790Y-59138996D01*
X197375286Y-59201392D01*
X197338988Y-59236317D01*
X197281595Y-59290711D01*
X197231361Y-59337302D01*
X197190984Y-59373636D01*
X197163161Y-59397261D01*
X197150590Y-59405724D01*
X197141952Y-59402587D01*
X197115360Y-59387747D01*
X197076741Y-59363477D01*
X197031134Y-59332852D01*
X196998707Y-59310503D01*
X196933970Y-59266122D01*
X196864886Y-59218987D01*
X196801787Y-59176155D01*
X196678178Y-59092547D01*
X196574417Y-59148650D01*
X196549984Y-59161599D01*
X196505552Y-59183749D01*
X196471191Y-59199041D01*
X196452828Y-59204743D01*
X196446818Y-59197421D01*
X196431895Y-59169541D01*
X196409852Y-59123575D01*
X196381917Y-59062441D01*
X196349317Y-58989055D01*
X196313276Y-58906335D01*
X196275023Y-58817197D01*
X196235783Y-58724559D01*
X196196783Y-58631337D01*
X196159249Y-58540450D01*
X196124409Y-58454814D01*
X196093488Y-58377345D01*
X196067714Y-58310962D01*
X196048311Y-58258582D01*
X196036508Y-58223121D01*
X196033531Y-58207496D01*
X196033732Y-58207039D01*
X196047601Y-58192595D01*
X196076611Y-58169974D01*
X196114772Y-58143864D01*
X196126817Y-58135892D01*
X196218469Y-58060256D01*
X196294323Y-57970169D01*
X196352581Y-57869381D01*
X196391448Y-57761640D01*
X196409128Y-57650697D01*
X196403826Y-57540303D01*
X196382347Y-57442115D01*
X196343782Y-57342966D01*
X196287562Y-57254512D01*
X196210410Y-57170487D01*
X196180095Y-57143645D01*
X196082094Y-57077510D01*
X195976227Y-57032970D01*
X195865561Y-57009625D01*
X195753164Y-57007078D01*
X195642105Y-57024929D01*
X195535451Y-57062780D01*
X195436270Y-57120232D01*
X195347631Y-57196887D01*
X195272600Y-57292345D01*
X195258175Y-57315985D01*
X195209143Y-57424034D01*
X195183103Y-57536548D01*
X195179372Y-57650614D01*
X195197268Y-57763318D01*
X195236109Y-57871745D01*
X195295214Y-57972982D01*
X195373900Y-58064114D01*
X195471485Y-58142228D01*
X195474654Y-58144333D01*
X195512411Y-58170940D01*
X195540709Y-58193561D01*
X195553634Y-58207496D01*
X195552003Y-58218421D01*
X195541864Y-58250231D01*
X195523884Y-58299534D01*
X195499292Y-58363413D01*
X195469311Y-58438948D01*
X195435170Y-58523223D01*
X195398092Y-58613320D01*
X195359306Y-58706321D01*
X195320036Y-58799308D01*
X195281509Y-58889364D01*
X195244950Y-58973571D01*
X195211586Y-59049010D01*
X195182643Y-59112765D01*
X195159346Y-59161917D01*
X195142923Y-59193549D01*
X195134598Y-59204743D01*
X195127674Y-59203227D01*
X195100477Y-59192331D01*
X195060280Y-59173228D01*
X195013009Y-59148650D01*
X194909248Y-59092547D01*
X194785639Y-59176155D01*
X194749120Y-59200913D01*
X194681194Y-59247171D01*
X194613475Y-59293503D01*
X194556291Y-59332852D01*
X194524732Y-59354297D01*
X194483714Y-59380939D01*
X194453301Y-59399178D01*
X194438446Y-59405941D01*
X194432065Y-59403070D01*
X194408996Y-59385485D01*
X194373433Y-59354523D01*
X194328471Y-59313231D01*
X194277206Y-59264653D01*
X194222733Y-59211835D01*
X194168148Y-59157823D01*
X194116547Y-59105661D01*
X194071024Y-59058396D01*
X194034675Y-59019072D01*
X194010595Y-58990736D01*
X194001881Y-58976432D01*
X194002383Y-58973711D01*
X194012755Y-58951560D01*
X194034912Y-58913235D01*
X194066712Y-58862200D01*
X194106016Y-58801914D01*
X194150681Y-58735842D01*
X194163207Y-58717617D01*
X194207193Y-58653485D01*
X194245937Y-58596789D01*
X194277182Y-58550844D01*
X194298669Y-58518970D01*
X194308140Y-58504483D01*
X194308373Y-58503862D01*
X194305578Y-58486139D01*
X194294903Y-58450235D01*
X194278081Y-58400662D01*
X194256843Y-58341932D01*
X194232921Y-58278556D01*
X194208046Y-58215046D01*
X194183950Y-58155913D01*
X194162365Y-58105669D01*
X194145023Y-58068826D01*
X194133655Y-58049894D01*
X194132516Y-58048719D01*
X194124376Y-58042773D01*
X194110629Y-58036776D01*
X194088537Y-58030114D01*
X194055363Y-58022173D01*
X194008370Y-58012337D01*
X193944820Y-57999991D01*
X193861976Y-57984520D01*
X193757100Y-57965310D01*
X193735348Y-57961267D01*
X193673036Y-57948769D01*
X193620619Y-57936927D01*
X193583066Y-57926917D01*
X193565343Y-57919916D01*
X193562378Y-57914075D01*
X193557435Y-57886016D01*
X193553518Y-57839500D01*
X193550629Y-57778886D01*
X193548773Y-57708532D01*
X193547952Y-57632796D01*
X193548168Y-57556037D01*
X193549426Y-57482612D01*
X193551728Y-57416880D01*
X193555076Y-57363200D01*
X193559474Y-57325930D01*
X193564926Y-57309427D01*
X193570491Y-57306989D01*
X193598178Y-57299305D01*
X193644979Y-57288436D01*
X193707157Y-57275192D01*
X193780979Y-57260384D01*
X193862710Y-57244823D01*
X193907336Y-57236509D01*
X193983824Y-57222092D01*
X194049660Y-57209467D01*
X194101323Y-57199321D01*
X194135293Y-57192341D01*
X194148048Y-57189212D01*
X194148528Y-57188568D01*
X194156651Y-57172181D01*
X194172137Y-57137852D01*
X194193050Y-57090136D01*
X194217455Y-57033586D01*
X194243416Y-56972758D01*
X194268997Y-56912206D01*
X194292262Y-56856485D01*
X194311277Y-56810150D01*
X194324105Y-56777755D01*
X194328812Y-56763855D01*
X194326736Y-56758965D01*
X194312920Y-56735692D01*
X194287860Y-56696519D01*
X194253568Y-56644520D01*
X194212059Y-56582768D01*
X194165346Y-56514336D01*
X194139718Y-56476860D01*
X194095490Y-56411156D01*
X194057570Y-56353492D01*
X194027980Y-56307014D01*
X194008743Y-56274865D01*
X194001881Y-56260190D01*
X194006649Y-56252230D01*
X194026593Y-56228446D01*
X194059313Y-56192451D01*
X194101805Y-56147295D01*
X194151065Y-56096028D01*
X194204091Y-56041701D01*
X194257877Y-55987364D01*
X194309421Y-55936067D01*
X194355720Y-55890859D01*
X194393769Y-55854792D01*
X194420565Y-55830914D01*
X194433105Y-55822278D01*
X194440066Y-55825636D01*
X194465627Y-55841210D01*
X194506874Y-55867715D01*
X194560837Y-55903210D01*
X194624542Y-55945750D01*
X194695016Y-55993395D01*
X194946662Y-56164512D01*
X195366188Y-55991570D01*
X195423036Y-55690018D01*
X195479885Y-55388466D01*
X196107540Y-55388466D01*
X196164389Y-55690018D01*
G36*
X196164389Y-55690018D02*
G01*
X196221237Y-55991570D01*
X196431001Y-56078041D01*
X196640764Y-56164512D01*
X196892410Y-55993395D01*
X196942216Y-55959661D01*
X197008244Y-55915381D01*
X197065410Y-55877561D01*
X197110744Y-55848142D01*
X197141280Y-55829067D01*
X197154046Y-55822278D01*
X197161887Y-55827106D01*
X197185325Y-55847339D01*
X197220794Y-55880543D01*
X197265289Y-55923670D01*
X197315805Y-55973670D01*
X197369336Y-56027495D01*
X197422877Y-56082095D01*
X197473423Y-56134423D01*
X197517968Y-56181428D01*
X197553507Y-56220063D01*
X197577034Y-56247278D01*
X197585544Y-56260024D01*
X197583565Y-56265500D01*
X197569857Y-56289927D01*
X197544825Y-56330129D01*
X197510499Y-56382952D01*
X197468907Y-56445247D01*
X197422079Y-56513862D01*
X197396380Y-56551283D01*
X197352173Y-56616432D01*
X197314272Y-56673289D01*
X197284698Y-56718770D01*
X197265472Y-56749793D01*
X197258614Y-56763274D01*
X197258726Y-56764021D01*
X197264776Y-56781110D01*
X197278654Y-56816006D01*
X197298427Y-56864151D01*
X197322160Y-56920986D01*
X197347918Y-56981953D01*
X197373766Y-57042492D01*
X197397771Y-57098047D01*
X197417998Y-57144057D01*
X197432511Y-57175965D01*
X197439377Y-57189212D01*
X197443439Y-57190387D01*
X197468121Y-57195687D01*
X197512111Y-57204467D01*
X197571887Y-57216040D01*
X197643929Y-57229721D01*
X197724716Y-57244823D01*
X197767294Y-57252830D01*
X197845445Y-57268107D01*
X197913775Y-57282215D01*
X197968551Y-57294345D01*
X198006037Y-57303686D01*
X198022500Y-57309427D01*
X198025457Y-57315119D01*
X198030362Y-57342930D01*
X198034216Y-57389250D01*
X198037021Y-57449720D01*
X198038781Y-57519983D01*
X198039499Y-57595680D01*
X198039177Y-57672453D01*
X198037819Y-57745944D01*
X198035428Y-57811794D01*
X198032006Y-57865645D01*
X198027556Y-57903138D01*
X198022082Y-57919916D01*
X198018760Y-57921809D01*
X197993987Y-57929926D01*
X197951011Y-57940666D01*
X197894802Y-57952853D01*
X197830325Y-57965310D01*
X197808570Y-57969277D01*
X197708093Y-57987729D01*
X197629126Y-58002559D01*
X197568934Y-58014380D01*
X197524778Y-58023809D01*
X197493920Y-58031460D01*
X197473625Y-58037948D01*
X197461154Y-58043888D01*
X197453771Y-58049894D01*
X197452913Y-58050902D01*
X197440838Y-58071919D01*
X197422971Y-58110376D01*
X197401042Y-58161761D01*
X197376784Y-58221563D01*
X197351927Y-58285270D01*
X197328205Y-58348371D01*
X197307347Y-58406355D01*
X197291087Y-58454709D01*
X197281156Y-58488922D01*
X197279285Y-58504483D01*
X197280536Y-58506502D01*
X197293486Y-58526028D01*
X197317840Y-58562042D01*
X197351340Y-58611228D01*
X197391727Y-58670267D01*
X197436745Y-58735842D01*
X197449100Y-58753884D01*
X197492545Y-58818599D01*
X197530091Y-58876476D01*
X197559594Y-58924082D01*
X197578914Y-58957985D01*
X197585905Y-58974752D01*
X197584398Y-58979161D01*
X197568695Y-59000882D01*
X197537714Y-59036354D01*
X197493673Y-59083188D01*
X197438790Y-59138996D01*
X197375286Y-59201392D01*
X197338988Y-59236317D01*
X197281595Y-59290711D01*
X197231361Y-59337302D01*
X197190984Y-59373636D01*
X197163161Y-59397261D01*
X197150590Y-59405724D01*
X197141952Y-59402587D01*
X197115360Y-59387747D01*
X197076741Y-59363477D01*
X197031134Y-59332852D01*
X196998707Y-59310503D01*
X196933970Y-59266122D01*
X196864886Y-59218987D01*
X196801787Y-59176155D01*
X196678178Y-59092547D01*
X196574417Y-59148650D01*
X196549984Y-59161599D01*
X196505552Y-59183749D01*
X196471191Y-59199041D01*
X196452828Y-59204743D01*
X196446818Y-59197421D01*
X196431895Y-59169541D01*
X196409852Y-59123575D01*
X196381917Y-59062441D01*
X196349317Y-58989055D01*
X196313276Y-58906335D01*
X196275023Y-58817197D01*
X196235783Y-58724559D01*
X196196783Y-58631337D01*
X196159249Y-58540450D01*
X196124409Y-58454814D01*
X196093488Y-58377345D01*
X196067714Y-58310962D01*
X196048311Y-58258582D01*
X196036508Y-58223121D01*
X196033531Y-58207496D01*
X196033732Y-58207039D01*
X196047601Y-58192595D01*
X196076611Y-58169974D01*
X196114772Y-58143864D01*
X196126817Y-58135892D01*
X196218469Y-58060256D01*
X196294323Y-57970169D01*
X196352581Y-57869381D01*
X196391448Y-57761640D01*
X196409128Y-57650697D01*
X196403826Y-57540303D01*
X196382347Y-57442115D01*
X196343782Y-57342966D01*
X196287562Y-57254512D01*
X196210410Y-57170487D01*
X196180095Y-57143645D01*
X196082094Y-57077510D01*
X195976227Y-57032970D01*
X195865561Y-57009625D01*
X195753164Y-57007078D01*
X195642105Y-57024929D01*
X195535451Y-57062780D01*
X195436270Y-57120232D01*
X195347631Y-57196887D01*
X195272600Y-57292345D01*
X195258175Y-57315985D01*
X195209143Y-57424034D01*
X195183103Y-57536548D01*
X195179372Y-57650614D01*
X195197268Y-57763318D01*
X195236109Y-57871745D01*
X195295214Y-57972982D01*
X195373900Y-58064114D01*
X195471485Y-58142228D01*
X195474654Y-58144333D01*
X195512411Y-58170940D01*
X195540709Y-58193561D01*
X195553634Y-58207496D01*
X195552003Y-58218421D01*
X195541864Y-58250231D01*
X195523884Y-58299534D01*
X195499292Y-58363413D01*
X195469311Y-58438948D01*
X195435170Y-58523223D01*
X195398092Y-58613320D01*
X195359306Y-58706321D01*
X195320036Y-58799308D01*
X195281509Y-58889364D01*
X195244950Y-58973571D01*
X195211586Y-59049010D01*
X195182643Y-59112765D01*
X195159346Y-59161917D01*
X195142923Y-59193549D01*
X195134598Y-59204743D01*
X195127674Y-59203227D01*
X195100477Y-59192331D01*
X195060280Y-59173228D01*
X195013009Y-59148650D01*
X194909248Y-59092547D01*
X194785639Y-59176155D01*
X194749120Y-59200913D01*
X194681194Y-59247171D01*
X194613475Y-59293503D01*
X194556291Y-59332852D01*
X194524732Y-59354297D01*
X194483714Y-59380939D01*
X194453301Y-59399178D01*
X194438446Y-59405941D01*
X194432065Y-59403070D01*
X194408996Y-59385485D01*
X194373433Y-59354523D01*
X194328471Y-59313231D01*
X194277206Y-59264653D01*
X194222733Y-59211835D01*
X194168148Y-59157823D01*
X194116547Y-59105661D01*
X194071024Y-59058396D01*
X194034675Y-59019072D01*
X194010595Y-58990736D01*
X194001881Y-58976432D01*
X194002383Y-58973711D01*
X194012755Y-58951560D01*
X194034912Y-58913235D01*
X194066712Y-58862200D01*
X194106016Y-58801914D01*
X194150681Y-58735842D01*
X194163207Y-58717617D01*
X194207193Y-58653485D01*
X194245937Y-58596789D01*
X194277182Y-58550844D01*
X194298669Y-58518970D01*
X194308140Y-58504483D01*
X194308373Y-58503862D01*
X194305578Y-58486139D01*
X194294903Y-58450235D01*
X194278081Y-58400662D01*
X194256843Y-58341932D01*
X194232921Y-58278556D01*
X194208046Y-58215046D01*
X194183950Y-58155913D01*
X194162365Y-58105669D01*
X194145023Y-58068826D01*
X194133655Y-58049894D01*
X194132516Y-58048719D01*
X194124376Y-58042773D01*
X194110629Y-58036776D01*
X194088537Y-58030114D01*
X194055363Y-58022173D01*
X194008370Y-58012337D01*
X193944820Y-57999991D01*
X193861976Y-57984520D01*
X193757100Y-57965310D01*
X193735348Y-57961267D01*
X193673036Y-57948769D01*
X193620619Y-57936927D01*
X193583066Y-57926917D01*
X193565343Y-57919916D01*
X193562378Y-57914075D01*
X193557435Y-57886016D01*
X193553518Y-57839500D01*
X193550629Y-57778886D01*
X193548773Y-57708532D01*
X193547952Y-57632796D01*
X193548168Y-57556037D01*
X193549426Y-57482612D01*
X193551728Y-57416880D01*
X193555076Y-57363200D01*
X193559474Y-57325930D01*
X193564926Y-57309427D01*
X193570491Y-57306989D01*
X193598178Y-57299305D01*
X193644979Y-57288436D01*
X193707157Y-57275192D01*
X193780979Y-57260384D01*
X193862710Y-57244823D01*
X193907336Y-57236509D01*
X193983824Y-57222092D01*
X194049660Y-57209467D01*
X194101323Y-57199321D01*
X194135293Y-57192341D01*
X194148048Y-57189212D01*
X194148528Y-57188568D01*
X194156651Y-57172181D01*
X194172137Y-57137852D01*
X194193050Y-57090136D01*
X194217455Y-57033586D01*
X194243416Y-56972758D01*
X194268997Y-56912206D01*
X194292262Y-56856485D01*
X194311277Y-56810150D01*
X194324105Y-56777755D01*
X194328812Y-56763855D01*
X194326736Y-56758965D01*
X194312920Y-56735692D01*
X194287860Y-56696519D01*
X194253568Y-56644520D01*
X194212059Y-56582768D01*
X194165346Y-56514336D01*
X194139718Y-56476860D01*
X194095490Y-56411156D01*
X194057570Y-56353492D01*
X194027980Y-56307014D01*
X194008743Y-56274865D01*
X194001881Y-56260190D01*
X194006649Y-56252230D01*
X194026593Y-56228446D01*
X194059313Y-56192451D01*
X194101805Y-56147295D01*
X194151065Y-56096028D01*
X194204091Y-56041701D01*
X194257877Y-55987364D01*
X194309421Y-55936067D01*
X194355720Y-55890859D01*
X194393769Y-55854792D01*
X194420565Y-55830914D01*
X194433105Y-55822278D01*
X194440066Y-55825636D01*
X194465627Y-55841210D01*
X194506874Y-55867715D01*
X194560837Y-55903210D01*
X194624542Y-55945750D01*
X194695016Y-55993395D01*
X194946662Y-56164512D01*
X195366188Y-55991570D01*
X195423036Y-55690018D01*
X195479885Y-55388466D01*
X196107540Y-55388466D01*
X196164389Y-55690018D01*
G37*
%TO.C,TP8*%
X199600000Y-70500000D02*
G75*
G02*
X198200000Y-70500000I-700000J0D01*
G01*
X198200000Y-70500000D02*
G75*
G02*
X199600000Y-70500000I700000J0D01*
G01*
%TO.C,TP9*%
X181950000Y-77250000D02*
G75*
G02*
X180550000Y-77250000I-700000J0D01*
G01*
X180550000Y-77250000D02*
G75*
G02*
X181950000Y-77250000I700000J0D01*
G01*
%TO.C,TP7*%
X186950000Y-65250000D02*
G75*
G02*
X185550000Y-65250000I-700000J0D01*
G01*
X185550000Y-65250000D02*
G75*
G02*
X186950000Y-65250000I700000J0D01*
G01*
%TO.C,TP3*%
X193700000Y-68450000D02*
G75*
G02*
X192300000Y-68450000I-700000J0D01*
G01*
X192300000Y-68450000D02*
G75*
G02*
X193700000Y-68450000I700000J0D01*
G01*
%TO.C,J2*%
X184600000Y-73600000D02*
X184600000Y-77400000D01*
X184600000Y-77400000D02*
X185400000Y-77400000D01*
X185400000Y-73600000D02*
X184600000Y-73600000D01*
X186200000Y-72000000D02*
X186200000Y-72000000D01*
X186200000Y-72000000D02*
X186200000Y-72000000D01*
X186200000Y-72100000D02*
X186200000Y-72100000D01*
X197000000Y-73600000D02*
X197800000Y-73600000D01*
X197800000Y-73600000D02*
X197800000Y-77400000D01*
X197800000Y-77400000D02*
X197000000Y-77400000D01*
X186200000Y-72000000D02*
G75*
G02*
X186200000Y-72100000I0J-50000D01*
G01*
X186200000Y-72000000D02*
G75*
G02*
X186200000Y-72100000I0J-50000D01*
G01*
X186200000Y-72100000D02*
G75*
G02*
X186200000Y-72000000I0J50000D01*
G01*
%TO.C,R25*%
X188746359Y-63020000D02*
X189053641Y-63020000D01*
X188746359Y-63780000D02*
X189053641Y-63780000D01*
%TD*%
M02*
