%TF.GenerationSoftware,KiCad,Pcbnew,8.0.0*%
%TF.CreationDate,2024-02-29T09:48:21+03:00*%
%TF.ProjectId,micro17,6d696372-6f31-4372-9e6b-696361645f70,rev?*%
%TF.SameCoordinates,Original*%
%TF.FileFunction,Copper,L4,Bot*%
%TF.FilePolarity,Positive*%
%FSLAX46Y46*%
G04 Gerber Fmt 4.6, Leading zero omitted, Abs format (unit mm)*
G04 Created by KiCad (PCBNEW 8.0.0) date 2024-02-29 09:48:21*
%MOMM*%
%LPD*%
G01*
G04 APERTURE LIST*
%TA.AperFunction,SMDPad,CuDef*%
%ADD10R,0.750000X2.300000*%
%TD*%
%TA.AperFunction,SMDPad,CuDef*%
%ADD11R,0.250000X2.300000*%
%TD*%
%TA.AperFunction,ViaPad*%
%ADD12C,0.450000*%
%TD*%
%TA.AperFunction,ViaPad*%
%ADD13C,0.500000*%
%TD*%
%TA.AperFunction,Conductor*%
%ADD14C,0.250000*%
%TD*%
%TA.AperFunction,Conductor*%
%ADD15C,0.300000*%
%TD*%
G04 APERTURE END LIST*
D10*
%TO.P,J5,1,Pin_1*%
%TO.N,unconnected-(J5-Pin_1-Pad1)*%
X195000000Y-77650000D03*
%TO.P,J5,2,Pin_2*%
%TO.N,GND*%
X195000000Y-74350000D03*
D11*
%TO.P,J5,3,Pin_3*%
%TO.N,PTT_IN*%
X194250000Y-77650000D03*
%TO.P,J5,4,Pin_4*%
%TO.N,PTT_OUT*%
X194250000Y-74350000D03*
%TO.P,J5,5,Pin_5*%
%TO.N,unconnected-(J5-Pin_5-Pad5)*%
X193750000Y-77650000D03*
%TO.P,J5,6,Pin_6*%
%TO.N,unconnected-(J5-Pin_6-Pad6)*%
X193750000Y-74350000D03*
%TO.P,J5,7,Pin_7*%
%TO.N,AUDIO_IN*%
X193250000Y-77650000D03*
%TO.P,J5,8,Pin_8*%
%TO.N,unconnected-(J5-Pin_8-Pad8)*%
X193250000Y-74350000D03*
%TO.P,J5,9,Pin_9*%
%TO.N,unconnected-(J5-Pin_9-Pad9)*%
X192750000Y-77650000D03*
%TO.P,J5,10,Pin_10*%
%TO.N,unconnected-(J5-Pin_10-Pad10)*%
X192750000Y-74350000D03*
%TO.P,J5,11,Pin_11*%
%TO.N,unconnected-(J5-Pin_11-Pad11)*%
X192250000Y-77650000D03*
%TO.P,J5,12,Pin_12*%
%TO.N,unconnected-(J5-Pin_12-Pad12)*%
X192250000Y-74350000D03*
%TO.P,J5,13,Pin_13*%
%TO.N,BASEBAND_OUT_FILT*%
X191750000Y-77650000D03*
%TO.P,J5,14,Pin_14*%
%TO.N,MCU_RX*%
X191750000Y-74350000D03*
%TO.P,J5,15,Pin_15*%
%TO.N,MCU_TX*%
X191250000Y-77650000D03*
%TO.P,J5,16,Pin_16*%
%TO.N,unconnected-(J5-Pin_16-Pad16)*%
X191250000Y-74350000D03*
%TO.P,J5,17,Pin_17*%
%TO.N,GND*%
X190750000Y-77650000D03*
%TO.P,J5,18,Pin_18*%
%TO.N,unconnected-(J5-Pin_18-Pad18)*%
X190750000Y-74350000D03*
%TO.P,J5,19,Pin_19*%
%TO.N,unconnected-(J5-Pin_19-Pad19)*%
X190250000Y-77650000D03*
%TO.P,J5,20,Pin_20*%
%TO.N,unconnected-(J5-Pin_20-Pad20)*%
X190250000Y-74350000D03*
%TO.P,J5,21,Pin_21*%
%TO.N,unconnected-(J5-Pin_21-Pad21)*%
X189750000Y-77650000D03*
%TO.P,J5,22,Pin_22*%
%TO.N,unconnected-(J5-Pin_22-Pad22)*%
X189750000Y-74350000D03*
%TO.P,J5,23,Pin_23*%
%TO.N,unconnected-(J5-Pin_23-Pad23)*%
X189250000Y-77650000D03*
%TO.P,J5,24,Pin_24*%
%TO.N,unconnected-(J5-Pin_24-Pad24)*%
X189250000Y-74350000D03*
%TO.P,J5,25,Pin_25*%
%TO.N,unconnected-(J5-Pin_25-Pad25)*%
X188750000Y-77650000D03*
%TO.P,J5,26,Pin_26*%
%TO.N,unconnected-(J5-Pin_26-Pad26)*%
X188750000Y-74350000D03*
%TO.P,J5,27,Pin_27*%
%TO.N,unconnected-(J5-Pin_27-Pad27)*%
X188250000Y-77650000D03*
%TO.P,J5,28,Pin_28*%
%TO.N,unconnected-(J5-Pin_28-Pad28)*%
X188250000Y-74350000D03*
%TO.P,J5,29,Pin_29*%
%TO.N,unconnected-(J5-Pin_29-Pad29)*%
X187750000Y-77650000D03*
%TO.P,J5,30,Pin_30*%
%TO.N,AUDIO_OUT_FILT*%
X187750000Y-74350000D03*
%TO.P,J5,31,Pin_31*%
%TO.N,BASEBAND_IN*%
X187250000Y-77650000D03*
%TO.P,J5,32,Pin_32*%
%TO.N,unconnected-(J5-Pin_32-Pad32)*%
X187250000Y-74350000D03*
%TO.P,J5,33,Pin_33*%
%TO.N,unconnected-(J5-Pin_33-Pad33)*%
X186750000Y-77650000D03*
%TO.P,J5,34,Pin_34*%
%TO.N,AUDIO_OUT_MUTE*%
X186750000Y-74350000D03*
%TO.P,J5,35,Pin_35*%
%TO.N,unconnected-(J5-Pin_35-Pad35)*%
X186250000Y-77650000D03*
%TO.P,J5,36,Pin_36*%
%TO.N,unconnected-(J5-Pin_36-Pad36)*%
X186250000Y-74350000D03*
%TO.P,J5,37,Pin_37*%
%TO.N,unconnected-(J5-Pin_37-Pad37)*%
X185750000Y-77650000D03*
%TO.P,J5,38,Pin_38*%
%TO.N,Net-(J5-Pin_38)*%
X185750000Y-74350000D03*
D10*
%TO.P,J5,39,Pin_39*%
%TO.N,GND*%
X185000000Y-77650000D03*
%TO.P,J5,40,Pin_40*%
%TO.N,unconnected-(J5-Pin_40-Pad40)*%
X185000000Y-74350000D03*
%TD*%
D12*
%TO.N,GND*%
X191000000Y-71900000D03*
D13*
X183000000Y-53000000D03*
X197000000Y-73000000D03*
X182000000Y-75250000D03*
X180750000Y-70000000D03*
X181000000Y-68500000D03*
X188750000Y-69500000D03*
X198250000Y-65750000D03*
X198750000Y-63250000D03*
X183000000Y-73000000D03*
X181000000Y-75000000D03*
X199100000Y-79100000D03*
X199000000Y-53000000D03*
X199000000Y-51000000D03*
X185000000Y-55000000D03*
X187000000Y-55000000D03*
X181000000Y-65000000D03*
X181000000Y-63000000D03*
X181000000Y-61000000D03*
X181000000Y-59000000D03*
X181000000Y-57000000D03*
X181000000Y-55000000D03*
X181000000Y-53000000D03*
X185000000Y-53000000D03*
X187000000Y-53000000D03*
X187000000Y-51000000D03*
X185000000Y-51000000D03*
X183000000Y-51000000D03*
X181000000Y-51000000D03*
X185000000Y-60000000D03*
D12*
X186500000Y-79400000D03*
X182960000Y-59312499D03*
X183960000Y-60012499D03*
%TO.N,PTT_IN*%
X196100000Y-78600000D03*
%TO.N,GND*%
X192000000Y-57500000D03*
X197300000Y-72000000D03*
D13*
X189700000Y-79500000D03*
D12*
X194000000Y-61500000D03*
X192000000Y-59500000D03*
X194000000Y-57300000D03*
X197800000Y-78400000D03*
X189000000Y-64500000D03*
X186100000Y-68400000D03*
X196000000Y-59500000D03*
X196000000Y-61500000D03*
X190300000Y-55300000D03*
X194400000Y-54800000D03*
X191400000Y-68500000D03*
X192000000Y-61500000D03*
X198800000Y-54600000D03*
X196000000Y-57500000D03*
X196400000Y-74700000D03*
D13*
X182300000Y-70300000D03*
D12*
X194800000Y-65900000D03*
%TO.N,+3V3*%
X191200000Y-55400000D03*
X198300000Y-57250000D03*
D13*
X182000000Y-55212499D03*
D12*
X187200000Y-63800000D03*
D13*
X197350000Y-64290000D03*
D12*
X183650000Y-68800000D03*
X183800000Y-74800000D03*
%TO.N,+5V*%
X197400000Y-66100000D03*
X189200000Y-67900000D03*
X191475000Y-69397760D03*
D13*
X182000000Y-59312499D03*
D12*
X195000000Y-76000000D03*
%TO.N,Net-(U4B-+)*%
X191000000Y-67800000D03*
X188301409Y-66976409D03*
%TO.N,/MCU/~{RST}*%
X190400000Y-53500000D03*
X189700000Y-59800000D03*
%TO.N,Net-(C16-Pad2)*%
X190200000Y-66000000D03*
X187600000Y-68400000D03*
%TO.N,Net-(U5A-P0A)*%
X180900000Y-76200000D03*
X192100000Y-70300000D03*
X193501316Y-66750000D03*
%TO.N,Net-(U5B-P1A)*%
X180900000Y-72800000D03*
X198100000Y-67900000D03*
%TO.N,Net-(U5C-P2W)*%
X198467935Y-74499604D03*
X185900000Y-76000000D03*
%TO.N,I2C_SDA*%
X192023768Y-54823768D03*
D13*
X183200000Y-70400000D03*
D12*
%TO.N,PTT_OUT*%
X191900000Y-64000000D03*
X194250000Y-72700000D03*
%TO.N,AUDIO_OUT_MUTE*%
X193900000Y-64200000D03*
%TO.N,BASEBAND_IN_FILT*%
X189000000Y-61400000D03*
X191100000Y-67000000D03*
%TO.N,BASEBAND_OUT*%
X190500000Y-63200000D03*
X186800000Y-76000000D03*
%TO.N,I2C_SCL*%
X195200000Y-55100000D03*
D13*
X184400000Y-70400000D03*
D12*
%TO.N,AUDIO_OUT_FILT*%
X187750000Y-75775000D03*
X181000000Y-78597151D03*
%TO.N,BASEBAND_IN*%
X187250000Y-79150000D03*
%TO.N,BASEBAND_OUT_FILT*%
X191525000Y-79225000D03*
%TO.N,AUDIO_IN*%
X193300000Y-79200000D03*
%TO.N,PTT_IN*%
X189300000Y-54200000D03*
%TO.N,MCU_TX*%
X190000000Y-75950000D03*
D13*
X198900000Y-60100000D03*
D12*
X192950000Y-72700000D03*
D13*
%TO.N,MCU_RX*%
X198800000Y-59000000D03*
%TO.N,Net-(J5-Pin_38)*%
X184000000Y-64750000D03*
%TD*%
D14*
%TO.N,MCU_TX*%
X192950000Y-72350000D02*
X192950000Y-72700000D01*
X196250000Y-69050000D02*
X192950000Y-72350000D01*
X196250000Y-64172867D02*
X196250000Y-69050000D01*
X198900000Y-61522867D02*
X196250000Y-64172867D01*
X198900000Y-60100000D02*
X198900000Y-61522867D01*
%TO.N,MCU_RX*%
X198200000Y-59600000D02*
X198800000Y-59000000D01*
X195500000Y-69000000D02*
X195500000Y-63750000D01*
X191750000Y-72750000D02*
X195500000Y-69000000D01*
X195500000Y-63750000D02*
X198200000Y-61050000D01*
X198200000Y-61050000D02*
X198200000Y-59600000D01*
X191750000Y-74350000D02*
X191750000Y-72750000D01*
%TO.N,/MCU/~{RST}*%
X189700000Y-54800000D02*
X190400000Y-53500000D01*
X189700000Y-59800000D02*
X189700000Y-54800000D01*
%TO.N,Net-(J5-Pin_38)*%
X184000000Y-64750000D02*
X185300000Y-68250000D01*
X185300000Y-68250000D02*
X185750000Y-70250000D01*
X185750000Y-70250000D02*
X185750000Y-74350000D01*
D15*
%TO.N,Net-(U4B-+)*%
X189250000Y-66976409D02*
X191000000Y-67800000D01*
X188301409Y-66976409D02*
X189250000Y-66976409D01*
D14*
%TO.N,AUDIO_OUT_MUTE*%
X186750000Y-67150000D02*
X186750000Y-74350000D01*
X188700000Y-65200000D02*
X186750000Y-67150000D01*
X193900000Y-64200000D02*
X192900000Y-65200000D01*
X192900000Y-65200000D02*
X188700000Y-65200000D01*
%TO.N,MCU_TX*%
X190875000Y-75950000D02*
X191250000Y-76325000D01*
X190000000Y-75950000D02*
X190875000Y-75950000D01*
X191250000Y-76325000D02*
X191250000Y-77650000D01*
%TO.N,GND*%
X190750000Y-79075000D02*
X190325000Y-79500000D01*
X190325000Y-79500000D02*
X189700000Y-79500000D01*
X190750000Y-77650000D02*
X190750000Y-79075000D01*
%TO.N,PTT_OUT*%
X194250000Y-72700000D02*
X194250000Y-74350000D01*
%TO.N,AUDIO_OUT_FILT*%
X187750000Y-75775000D02*
X187750000Y-74350000D01*
%TO.N,BASEBAND_IN*%
X187250000Y-79150000D02*
X187250000Y-77650000D01*
%TO.N,BASEBAND_OUT_FILT*%
X191750000Y-79050000D02*
X191750000Y-77650000D01*
X191525000Y-79225000D02*
X191750000Y-79050000D01*
%TO.N,AUDIO_IN*%
X193250000Y-79150000D02*
X193300000Y-79200000D01*
X193250000Y-77650000D02*
X193250000Y-79150000D01*
%TO.N,PTT_IN*%
X194375000Y-79200000D02*
X195500000Y-79200000D01*
X194250000Y-79075000D02*
X194375000Y-79200000D01*
X194250000Y-77650000D02*
X194250000Y-79075000D01*
X195500000Y-79200000D02*
X196100000Y-78600000D01*
%TD*%
%TA.AperFunction,Conductor*%
%TO.N,GND*%
G36*
X198003886Y-50000277D02*
G01*
X198276859Y-50019801D01*
X198292237Y-50022011D01*
X198555845Y-50079356D01*
X198570764Y-50083736D01*
X198823532Y-50178014D01*
X198837676Y-50184474D01*
X199074440Y-50313757D01*
X199087523Y-50322165D01*
X199303476Y-50483826D01*
X199315230Y-50494010D01*
X199505989Y-50684769D01*
X199516173Y-50696523D01*
X199677834Y-50912476D01*
X199686242Y-50925559D01*
X199815525Y-51162323D01*
X199821986Y-51176469D01*
X199916262Y-51429233D01*
X199920643Y-51444155D01*
X199977986Y-51707754D01*
X199980199Y-51723148D01*
X199999722Y-51996113D01*
X200000000Y-52003889D01*
X200000000Y-77996110D01*
X199999722Y-78003886D01*
X199980199Y-78276851D01*
X199977986Y-78292245D01*
X199920643Y-78555844D01*
X199916262Y-78570766D01*
X199821986Y-78823530D01*
X199815525Y-78837676D01*
X199686242Y-79074440D01*
X199677834Y-79087523D01*
X199516173Y-79303476D01*
X199505989Y-79315230D01*
X199315230Y-79505989D01*
X199303476Y-79516173D01*
X199087523Y-79677834D01*
X199074440Y-79686242D01*
X198837676Y-79815525D01*
X198823530Y-79821986D01*
X198570766Y-79916262D01*
X198555844Y-79920643D01*
X198292245Y-79977986D01*
X198276851Y-79980199D01*
X198003887Y-79999722D01*
X197996111Y-80000000D01*
X182003889Y-80000000D01*
X181996113Y-79999722D01*
X181723148Y-79980199D01*
X181707754Y-79977986D01*
X181444155Y-79920643D01*
X181429233Y-79916262D01*
X181176469Y-79821986D01*
X181162323Y-79815525D01*
X180925559Y-79686242D01*
X180912476Y-79677834D01*
X180696523Y-79516173D01*
X180684769Y-79505989D01*
X180494010Y-79315230D01*
X180483826Y-79303476D01*
X180477309Y-79294771D01*
X180322165Y-79087523D01*
X180313757Y-79074440D01*
X180184474Y-78837676D01*
X180178013Y-78823530D01*
X180145805Y-78737178D01*
X180093579Y-78597153D01*
X180469965Y-78597153D01*
X180488024Y-78734329D01*
X180488026Y-78734336D01*
X180540974Y-78862165D01*
X180540976Y-78862169D01*
X180589300Y-78925146D01*
X180625209Y-78971942D01*
X180625213Y-78971945D01*
X180625214Y-78971946D01*
X180628914Y-78974785D01*
X180734982Y-79056175D01*
X180793475Y-79080403D01*
X180862814Y-79109124D01*
X180862821Y-79109126D01*
X180999997Y-79127186D01*
X181000000Y-79127186D01*
X181000003Y-79127186D01*
X181137178Y-79109126D01*
X181137180Y-79109125D01*
X181137183Y-79109125D01*
X181265018Y-79056175D01*
X181374791Y-78971942D01*
X181459024Y-78862169D01*
X181471734Y-78831483D01*
X184225001Y-78831483D01*
X184239834Y-78925146D01*
X184297359Y-79038045D01*
X184386954Y-79127640D01*
X184499854Y-79185165D01*
X184593518Y-79199999D01*
X184750000Y-79199999D01*
X184750000Y-77900001D01*
X184749999Y-77900000D01*
X184225002Y-77900000D01*
X184225001Y-77900001D01*
X184225001Y-78831483D01*
X181471734Y-78831483D01*
X181511974Y-78734334D01*
X181529661Y-78599997D01*
X181530035Y-78597153D01*
X181530035Y-78597148D01*
X181511975Y-78459972D01*
X181511973Y-78459965D01*
X181459023Y-78332132D01*
X181374795Y-78222365D01*
X181374794Y-78222364D01*
X181374791Y-78222360D01*
X181374786Y-78222356D01*
X181374785Y-78222355D01*
X181265018Y-78138127D01*
X181265014Y-78138125D01*
X181137185Y-78085177D01*
X181137178Y-78085175D01*
X181000003Y-78067116D01*
X180999997Y-78067116D01*
X180862821Y-78085175D01*
X180862814Y-78085177D01*
X180734981Y-78138127D01*
X180625214Y-78222355D01*
X180625204Y-78222365D01*
X180540976Y-78332132D01*
X180488026Y-78459965D01*
X180488024Y-78459972D01*
X180469965Y-78597148D01*
X180469965Y-78597153D01*
X180093579Y-78597153D01*
X180083736Y-78570764D01*
X180079356Y-78555844D01*
X180059120Y-78462821D01*
X180022011Y-78292237D01*
X180019801Y-78276859D01*
X180000278Y-78003886D01*
X180000000Y-77996110D01*
X180000000Y-77399999D01*
X184225000Y-77399999D01*
X184225001Y-77400000D01*
X184749999Y-77400000D01*
X184750000Y-77399999D01*
X184750000Y-76100001D01*
X184749999Y-76100000D01*
X184593522Y-76100000D01*
X184593516Y-76100001D01*
X184499853Y-76114834D01*
X184386954Y-76172359D01*
X184297359Y-76261954D01*
X184239834Y-76374853D01*
X184239834Y-76374854D01*
X184225000Y-76468517D01*
X184225000Y-77399999D01*
X180000000Y-77399999D01*
X180000000Y-76200002D01*
X180369965Y-76200002D01*
X180388024Y-76337178D01*
X180388026Y-76337185D01*
X180436885Y-76455141D01*
X180440976Y-76465018D01*
X180525209Y-76574791D01*
X180634982Y-76659024D01*
X180698899Y-76685499D01*
X180762814Y-76711973D01*
X180762821Y-76711975D01*
X180899997Y-76730035D01*
X180900000Y-76730035D01*
X180900003Y-76730035D01*
X181037178Y-76711975D01*
X181037180Y-76711974D01*
X181037183Y-76711974D01*
X181165018Y-76659024D01*
X181274791Y-76574791D01*
X181359024Y-76465018D01*
X181411974Y-76337183D01*
X181421879Y-76261954D01*
X181430035Y-76200002D01*
X181430035Y-76199997D01*
X181411975Y-76062821D01*
X181411973Y-76062814D01*
X181379541Y-75984515D01*
X181359024Y-75934983D01*
X181359023Y-75934982D01*
X181359023Y-75934981D01*
X181274795Y-75825214D01*
X181274794Y-75825213D01*
X181274791Y-75825209D01*
X181274786Y-75825205D01*
X181274785Y-75825204D01*
X181165018Y-75740976D01*
X181165014Y-75740974D01*
X181037185Y-75688026D01*
X181037178Y-75688024D01*
X180900003Y-75669965D01*
X180899997Y-75669965D01*
X180762821Y-75688024D01*
X180762814Y-75688026D01*
X180634981Y-75740976D01*
X180525214Y-75825204D01*
X180525204Y-75825214D01*
X180440976Y-75934981D01*
X180388026Y-76062814D01*
X180388024Y-76062821D01*
X180369965Y-76199997D01*
X180369965Y-76200002D01*
X180000000Y-76200002D01*
X180000000Y-74800002D01*
X183269965Y-74800002D01*
X183288024Y-74937178D01*
X183288026Y-74937185D01*
X183340974Y-75065014D01*
X183340976Y-75065018D01*
X183423052Y-75171981D01*
X183425209Y-75174791D01*
X183534982Y-75259024D01*
X183587903Y-75280944D01*
X183662814Y-75311973D01*
X183662821Y-75311975D01*
X183799997Y-75330035D01*
X183800000Y-75330035D01*
X183800003Y-75330035D01*
X183937178Y-75311975D01*
X183937180Y-75311974D01*
X183937183Y-75311974D01*
X184065018Y-75259024D01*
X184149148Y-75194467D01*
X184212645Y-75171981D01*
X184277237Y-75191113D01*
X184318247Y-75244558D01*
X184324500Y-75280944D01*
X184324500Y-75544858D01*
X184324502Y-75544879D01*
X184327414Y-75569988D01*
X184327414Y-75569990D01*
X184327415Y-75569991D01*
X184372794Y-75672765D01*
X184452235Y-75752206D01*
X184555009Y-75797585D01*
X184580135Y-75800500D01*
X185271939Y-75800499D01*
X185336007Y-75821316D01*
X185375604Y-75875816D01*
X185380006Y-75923727D01*
X185369276Y-76005228D01*
X185340275Y-76066031D01*
X185281072Y-76098175D01*
X185261209Y-76100000D01*
X185250001Y-76100000D01*
X185250000Y-76100001D01*
X185250000Y-79199998D01*
X185250001Y-79199999D01*
X185406478Y-79199999D01*
X185406483Y-79199998D01*
X185500146Y-79185165D01*
X185613048Y-79127638D01*
X185619987Y-79122598D01*
X185622029Y-79125409D01*
X185668286Y-79101841D01*
X185685328Y-79100499D01*
X185919864Y-79100499D01*
X185928088Y-79099545D01*
X185944987Y-79097586D01*
X185944988Y-79097585D01*
X185944991Y-79097585D01*
X185955971Y-79092736D01*
X186022986Y-79085899D01*
X186044024Y-79092735D01*
X186055009Y-79097585D01*
X186080135Y-79100500D01*
X186419864Y-79100499D01*
X186428088Y-79099545D01*
X186444987Y-79097586D01*
X186444988Y-79097585D01*
X186444991Y-79097585D01*
X186455971Y-79092736D01*
X186522986Y-79085899D01*
X186544024Y-79092735D01*
X186555009Y-79097585D01*
X186580135Y-79100500D01*
X186617856Y-79100499D01*
X186681923Y-79121315D01*
X186721521Y-79175814D01*
X186725924Y-79195271D01*
X186738024Y-79287177D01*
X186738026Y-79287185D01*
X186790974Y-79415014D01*
X186790976Y-79415018D01*
X186860781Y-79505989D01*
X186875209Y-79524791D01*
X186875213Y-79524794D01*
X186875214Y-79524795D01*
X186895663Y-79540486D01*
X186984982Y-79609024D01*
X187048899Y-79635499D01*
X187112814Y-79661973D01*
X187112821Y-79661975D01*
X187249997Y-79680035D01*
X187250000Y-79680035D01*
X187250003Y-79680035D01*
X187387178Y-79661975D01*
X187387180Y-79661974D01*
X187387183Y-79661974D01*
X187515018Y-79609024D01*
X187624791Y-79524791D01*
X187709024Y-79415018D01*
X187761974Y-79287183D01*
X187761975Y-79287177D01*
X187774075Y-79195272D01*
X187803076Y-79134468D01*
X187862278Y-79102324D01*
X187882142Y-79100499D01*
X187919858Y-79100499D01*
X187919864Y-79100499D01*
X187928088Y-79099545D01*
X187944987Y-79097586D01*
X187944988Y-79097585D01*
X187944991Y-79097585D01*
X187955971Y-79092736D01*
X188022986Y-79085899D01*
X188044024Y-79092735D01*
X188055009Y-79097585D01*
X188080135Y-79100500D01*
X188419864Y-79100499D01*
X188428088Y-79099545D01*
X188444987Y-79097586D01*
X188444988Y-79097585D01*
X188444991Y-79097585D01*
X188455971Y-79092736D01*
X188522986Y-79085899D01*
X188544024Y-79092735D01*
X188555009Y-79097585D01*
X188580135Y-79100500D01*
X188919864Y-79100499D01*
X188928088Y-79099545D01*
X188944987Y-79097586D01*
X188944988Y-79097585D01*
X188944991Y-79097585D01*
X188955971Y-79092736D01*
X189022986Y-79085899D01*
X189044024Y-79092735D01*
X189055009Y-79097585D01*
X189080135Y-79100500D01*
X189419864Y-79100499D01*
X189428088Y-79099545D01*
X189444987Y-79097586D01*
X189444988Y-79097585D01*
X189444991Y-79097585D01*
X189455971Y-79092736D01*
X189522986Y-79085899D01*
X189544024Y-79092735D01*
X189555009Y-79097585D01*
X189580135Y-79100500D01*
X189919864Y-79100499D01*
X189928088Y-79099545D01*
X189944987Y-79097586D01*
X189944988Y-79097585D01*
X189944991Y-79097585D01*
X189955971Y-79092736D01*
X190022986Y-79085899D01*
X190044024Y-79092735D01*
X190055009Y-79097585D01*
X190080135Y-79100500D01*
X190314663Y-79100499D01*
X190378731Y-79121316D01*
X190381481Y-79123664D01*
X190386951Y-79127639D01*
X190499854Y-79185165D01*
X190593519Y-79199999D01*
X190625000Y-79199999D01*
X190625000Y-79000754D01*
X190634285Y-78956731D01*
X190650288Y-78920488D01*
X190695206Y-78870290D01*
X190761056Y-78856079D01*
X190822682Y-78883288D01*
X190849711Y-78920488D01*
X190865712Y-78956725D01*
X190875000Y-79000754D01*
X190875000Y-79199998D01*
X190875001Y-79199999D01*
X190896083Y-79199999D01*
X190960152Y-79220816D01*
X190999748Y-79275316D01*
X191004150Y-79294771D01*
X191013024Y-79362178D01*
X191013026Y-79362185D01*
X191065974Y-79490014D01*
X191065976Y-79490018D01*
X191131028Y-79574795D01*
X191150209Y-79599791D01*
X191150213Y-79599794D01*
X191150214Y-79599795D01*
X191162243Y-79609025D01*
X191259982Y-79684024D01*
X191265337Y-79686242D01*
X191387814Y-79736973D01*
X191387821Y-79736975D01*
X191524997Y-79755035D01*
X191525000Y-79755035D01*
X191525003Y-79755035D01*
X191662178Y-79736975D01*
X191662180Y-79736974D01*
X191662183Y-79736974D01*
X191790018Y-79684024D01*
X191899791Y-79599791D01*
X191984024Y-79490018D01*
X192023703Y-79394219D01*
X192051558Y-79357679D01*
X192050429Y-79356565D01*
X192055445Y-79351481D01*
X192055450Y-79351478D01*
X192067053Y-79336147D01*
X192076880Y-79324866D01*
X192090485Y-79311263D01*
X192101859Y-79291560D01*
X192109344Y-79280281D01*
X192123068Y-79262152D01*
X192123071Y-79262146D01*
X192130312Y-79244334D01*
X192136883Y-79230896D01*
X192146503Y-79214237D01*
X192152392Y-79192256D01*
X192156698Y-79179435D01*
X192161169Y-79168438D01*
X192204587Y-79116932D01*
X192262140Y-79100499D01*
X192419858Y-79100499D01*
X192419864Y-79100499D01*
X192428088Y-79099545D01*
X192444987Y-79097586D01*
X192444988Y-79097585D01*
X192444991Y-79097585D01*
X192455971Y-79092736D01*
X192522986Y-79085899D01*
X192544024Y-79092735D01*
X192555009Y-79097585D01*
X192580135Y-79100500D01*
X192661274Y-79100499D01*
X192725342Y-79121315D01*
X192764939Y-79175815D01*
X192769341Y-79195271D01*
X192788024Y-79337177D01*
X192788026Y-79337185D01*
X192840974Y-79465014D01*
X192840976Y-79465018D01*
X192898884Y-79540485D01*
X192925209Y-79574791D01*
X193034982Y-79659024D01*
X193095341Y-79684025D01*
X193162814Y-79711973D01*
X193162821Y-79711975D01*
X193299997Y-79730035D01*
X193300000Y-79730035D01*
X193300003Y-79730035D01*
X193437178Y-79711975D01*
X193437180Y-79711974D01*
X193437183Y-79711974D01*
X193565018Y-79659024D01*
X193674791Y-79574791D01*
X193759024Y-79465018D01*
X193778386Y-79418272D01*
X193822133Y-79367049D01*
X193887637Y-79351321D01*
X193949876Y-79377099D01*
X193956149Y-79382897D01*
X194113737Y-79540485D01*
X194210763Y-79596503D01*
X194318982Y-79625500D01*
X195556018Y-79625500D01*
X195664237Y-79596503D01*
X195761263Y-79540485D01*
X196156424Y-79145322D01*
X196216446Y-79114741D01*
X196219205Y-79114340D01*
X196237183Y-79111974D01*
X196365018Y-79059024D01*
X196474791Y-78974791D01*
X196559024Y-78865018D01*
X196611974Y-78737183D01*
X196630035Y-78600000D01*
X196630035Y-78599997D01*
X196611975Y-78462821D01*
X196611973Y-78462814D01*
X196559023Y-78334981D01*
X196474795Y-78225214D01*
X196474794Y-78225213D01*
X196474791Y-78225209D01*
X196474786Y-78225205D01*
X196474785Y-78225204D01*
X196365018Y-78140976D01*
X196365014Y-78140974D01*
X196237185Y-78088026D01*
X196237178Y-78088024D01*
X196100003Y-78069965D01*
X196099997Y-78069965D01*
X195962821Y-78088024D01*
X195962814Y-78088026D01*
X195828382Y-78143710D01*
X195827318Y-78141142D01*
X195773089Y-78152661D01*
X195711552Y-78125252D01*
X195677878Y-78066907D01*
X195675499Y-78044260D01*
X195675499Y-76455141D01*
X195675498Y-76455135D01*
X195672585Y-76430009D01*
X195627206Y-76327235D01*
X195547765Y-76247794D01*
X195540661Y-76240690D01*
X195510078Y-76180666D01*
X195511981Y-76144389D01*
X195511042Y-76144266D01*
X195530035Y-76000002D01*
X195530035Y-75999997D01*
X195524043Y-75954489D01*
X195536318Y-75888251D01*
X195582625Y-75843140D01*
X195613046Y-75827639D01*
X195702640Y-75738045D01*
X195760165Y-75625146D01*
X195760165Y-75625145D01*
X195774999Y-75531482D01*
X195775000Y-75531480D01*
X195775000Y-74600001D01*
X195774999Y-74600000D01*
X194859000Y-74600000D01*
X194794931Y-74579183D01*
X194755335Y-74524683D01*
X194751363Y-74499606D01*
X197937900Y-74499606D01*
X197955959Y-74636782D01*
X197955961Y-74636789D01*
X198008909Y-74764618D01*
X198008911Y-74764622D01*
X198036055Y-74799997D01*
X198093144Y-74874395D01*
X198202917Y-74958628D01*
X198266834Y-74985103D01*
X198330749Y-75011577D01*
X198330756Y-75011579D01*
X198467932Y-75029639D01*
X198467935Y-75029639D01*
X198467938Y-75029639D01*
X198605113Y-75011579D01*
X198605115Y-75011578D01*
X198605118Y-75011578D01*
X198732953Y-74958628D01*
X198842726Y-74874395D01*
X198926959Y-74764622D01*
X198979909Y-74636787D01*
X198984753Y-74600000D01*
X198997970Y-74499606D01*
X198997970Y-74499601D01*
X198979910Y-74362425D01*
X198979908Y-74362418D01*
X198926958Y-74234585D01*
X198842730Y-74124818D01*
X198842729Y-74124817D01*
X198842726Y-74124813D01*
X198842721Y-74124809D01*
X198842720Y-74124808D01*
X198732953Y-74040580D01*
X198732949Y-74040578D01*
X198605120Y-73987630D01*
X198605113Y-73987628D01*
X198467938Y-73969569D01*
X198467932Y-73969569D01*
X198330756Y-73987628D01*
X198330749Y-73987630D01*
X198202916Y-74040580D01*
X198093149Y-74124808D01*
X198093139Y-74124818D01*
X198008911Y-74234585D01*
X197955961Y-74362418D01*
X197955959Y-74362425D01*
X197937900Y-74499601D01*
X197937900Y-74499606D01*
X194751363Y-74499606D01*
X194750000Y-74491000D01*
X194750000Y-74099999D01*
X195250000Y-74099999D01*
X195250001Y-74100000D01*
X195774998Y-74100000D01*
X195774999Y-74099999D01*
X195774999Y-73168522D01*
X195774998Y-73168516D01*
X195760165Y-73074853D01*
X195702640Y-72961954D01*
X195613045Y-72872359D01*
X195500145Y-72814834D01*
X195406482Y-72800000D01*
X195250001Y-72800000D01*
X195250000Y-72800001D01*
X195250000Y-74099999D01*
X194750000Y-74099999D01*
X194750000Y-72887772D01*
X194758298Y-72846058D01*
X194761973Y-72837185D01*
X194761975Y-72837178D01*
X194780035Y-72700002D01*
X194780035Y-72699997D01*
X194761975Y-72562821D01*
X194761973Y-72562814D01*
X194709023Y-72434981D01*
X194624795Y-72325214D01*
X194624794Y-72325213D01*
X194624791Y-72325209D01*
X194624786Y-72325205D01*
X194624785Y-72325204D01*
X194515018Y-72240976D01*
X194515014Y-72240974D01*
X194387185Y-72188026D01*
X194387178Y-72188024D01*
X194250003Y-72169965D01*
X194249997Y-72169965D01*
X194112821Y-72188024D01*
X194112814Y-72188026D01*
X193984984Y-72240975D01*
X193910922Y-72297805D01*
X193868461Y-72312840D01*
X193847805Y-72360922D01*
X193790975Y-72434984D01*
X193738026Y-72562814D01*
X193738024Y-72562821D01*
X193719965Y-72699997D01*
X193719965Y-72700003D01*
X193730006Y-72776273D01*
X193717730Y-72842510D01*
X193668865Y-72888882D01*
X193621939Y-72899500D01*
X193578060Y-72899500D01*
X193513991Y-72878683D01*
X193474395Y-72824183D01*
X193469993Y-72776271D01*
X193480035Y-72700001D01*
X193480035Y-72699997D01*
X193461975Y-72562821D01*
X193461974Y-72562817D01*
X193461973Y-72562814D01*
X193453806Y-72543099D01*
X193448520Y-72475944D01*
X193477432Y-72424314D01*
X193684256Y-72217490D01*
X193740280Y-72188945D01*
X193740056Y-72180371D01*
X193767490Y-72134256D01*
X196590485Y-69311263D01*
X196646503Y-69214237D01*
X196675500Y-69106018D01*
X196675500Y-68993981D01*
X196675500Y-67900002D01*
X197569965Y-67900002D01*
X197588024Y-68037178D01*
X197588026Y-68037185D01*
X197640974Y-68165014D01*
X197640976Y-68165018D01*
X197721505Y-68269965D01*
X197725209Y-68274791D01*
X197834982Y-68359024D01*
X197864673Y-68371322D01*
X197962814Y-68411973D01*
X197962821Y-68411975D01*
X198099997Y-68430035D01*
X198100000Y-68430035D01*
X198100003Y-68430035D01*
X198237178Y-68411975D01*
X198237180Y-68411974D01*
X198237183Y-68411974D01*
X198365018Y-68359024D01*
X198474791Y-68274791D01*
X198559024Y-68165018D01*
X198611974Y-68037183D01*
X198613551Y-68025209D01*
X198630035Y-67900002D01*
X198630035Y-67899997D01*
X198611975Y-67762821D01*
X198611973Y-67762814D01*
X198559023Y-67634981D01*
X198474795Y-67525214D01*
X198474794Y-67525213D01*
X198474791Y-67525209D01*
X198474786Y-67525205D01*
X198474785Y-67525204D01*
X198365018Y-67440976D01*
X198365014Y-67440974D01*
X198237185Y-67388026D01*
X198237178Y-67388024D01*
X198100003Y-67369965D01*
X198099997Y-67369965D01*
X197962821Y-67388024D01*
X197962814Y-67388026D01*
X197834981Y-67440976D01*
X197725214Y-67525204D01*
X197725204Y-67525214D01*
X197640976Y-67634981D01*
X197588026Y-67762814D01*
X197588024Y-67762821D01*
X197569965Y-67899997D01*
X197569965Y-67900002D01*
X196675500Y-67900002D01*
X196675500Y-66271962D01*
X196696317Y-66207893D01*
X196750817Y-66168297D01*
X196818183Y-66168297D01*
X196872683Y-66207893D01*
X196883792Y-66231204D01*
X196885292Y-66230583D01*
X196940974Y-66365014D01*
X196940976Y-66365018D01*
X197021505Y-66469965D01*
X197025209Y-66474791D01*
X197134982Y-66559024D01*
X197172456Y-66574546D01*
X197262814Y-66611973D01*
X197262821Y-66611975D01*
X197399997Y-66630035D01*
X197400000Y-66630035D01*
X197400003Y-66630035D01*
X197537178Y-66611975D01*
X197537180Y-66611974D01*
X197537183Y-66611974D01*
X197665018Y-66559024D01*
X197774791Y-66474791D01*
X197859024Y-66365018D01*
X197911974Y-66237183D01*
X197912762Y-66231204D01*
X197930035Y-66100002D01*
X197930035Y-66099997D01*
X197911975Y-65962821D01*
X197911973Y-65962814D01*
X197859023Y-65834981D01*
X197774795Y-65725214D01*
X197774794Y-65725213D01*
X197774791Y-65725209D01*
X197774786Y-65725205D01*
X197774785Y-65725204D01*
X197665018Y-65640976D01*
X197665014Y-65640974D01*
X197537185Y-65588026D01*
X197537178Y-65588024D01*
X197400003Y-65569965D01*
X197399997Y-65569965D01*
X197262821Y-65588024D01*
X197262814Y-65588026D01*
X197134981Y-65640976D01*
X197025214Y-65725204D01*
X197025204Y-65725214D01*
X196940976Y-65834981D01*
X196885292Y-65969417D01*
X196882096Y-65968093D01*
X196853086Y-66012754D01*
X196790192Y-66036888D01*
X196725124Y-66019445D01*
X196682735Y-65967087D01*
X196675500Y-65928037D01*
X196675500Y-64636373D01*
X196696317Y-64572304D01*
X196750817Y-64532708D01*
X196818183Y-64532708D01*
X196870975Y-64570018D01*
X196939271Y-64659023D01*
X196957379Y-64682621D01*
X196957383Y-64682624D01*
X196957384Y-64682625D01*
X197072373Y-64770860D01*
X197072374Y-64770860D01*
X197072375Y-64770861D01*
X197127847Y-64793838D01*
X197206288Y-64826329D01*
X197206295Y-64826331D01*
X197349997Y-64845250D01*
X197350000Y-64845250D01*
X197350003Y-64845250D01*
X197493704Y-64826331D01*
X197493706Y-64826330D01*
X197493709Y-64826330D01*
X197627625Y-64770861D01*
X197742621Y-64682621D01*
X197830861Y-64567625D01*
X197886330Y-64433709D01*
X197894087Y-64374795D01*
X197905250Y-64290002D01*
X197905250Y-64289997D01*
X197886331Y-64146295D01*
X197886329Y-64146288D01*
X197830860Y-64012373D01*
X197742625Y-63897384D01*
X197742624Y-63897383D01*
X197742621Y-63897379D01*
X197742616Y-63897375D01*
X197742615Y-63897374D01*
X197627626Y-63809139D01*
X197487109Y-63750936D01*
X197488426Y-63747754D01*
X197443705Y-63718546D01*
X197419727Y-63655592D01*
X197437332Y-63590567D01*
X197451512Y-63573101D01*
X199240485Y-61784130D01*
X199296503Y-61687104D01*
X199325500Y-61578885D01*
X199325500Y-61466849D01*
X199325500Y-60486772D01*
X199346317Y-60422703D01*
X199348025Y-60420417D01*
X199380861Y-60377625D01*
X199436330Y-60243709D01*
X199445404Y-60174791D01*
X199455250Y-60100002D01*
X199455250Y-60099997D01*
X199436331Y-59956295D01*
X199436329Y-59956288D01*
X199380860Y-59822373D01*
X199292625Y-59707384D01*
X199292624Y-59707383D01*
X199292621Y-59707379D01*
X199292616Y-59707375D01*
X199292615Y-59707374D01*
X199177625Y-59619138D01*
X199170070Y-59616009D01*
X199118845Y-59572258D01*
X199103120Y-59506754D01*
X199128901Y-59444516D01*
X199145423Y-59428836D01*
X199192621Y-59392621D01*
X199280861Y-59277625D01*
X199336330Y-59143709D01*
X199355250Y-59000000D01*
X199355250Y-58999997D01*
X199336331Y-58856295D01*
X199336329Y-58856288D01*
X199280860Y-58722373D01*
X199192625Y-58607384D01*
X199192624Y-58607383D01*
X199192621Y-58607379D01*
X199192616Y-58607375D01*
X199192615Y-58607374D01*
X199077626Y-58519139D01*
X198943711Y-58463670D01*
X198943704Y-58463668D01*
X198800003Y-58444750D01*
X198799997Y-58444750D01*
X198656295Y-58463668D01*
X198656288Y-58463670D01*
X198522373Y-58519139D01*
X198407384Y-58607374D01*
X198407374Y-58607384D01*
X198319139Y-58722373D01*
X198263670Y-58856288D01*
X198263669Y-58856294D01*
X198256628Y-58909769D01*
X198227625Y-58970571D01*
X198225636Y-58972613D01*
X197938737Y-59259514D01*
X197859514Y-59338736D01*
X197803496Y-59435763D01*
X197774500Y-59543982D01*
X197774500Y-60828602D01*
X197753683Y-60892671D01*
X197742575Y-60905677D01*
X195238737Y-63409515D01*
X195238736Y-63409514D01*
X195159514Y-63488736D01*
X195103496Y-63585763D01*
X195074500Y-63693982D01*
X195074500Y-68778602D01*
X195053683Y-68842671D01*
X195042575Y-68855677D01*
X191488737Y-72409515D01*
X191488736Y-72409514D01*
X191409514Y-72488736D01*
X191353496Y-72585763D01*
X191324500Y-72693982D01*
X191324500Y-72790500D01*
X191303683Y-72854569D01*
X191249183Y-72894165D01*
X191215501Y-72899500D01*
X191080142Y-72899500D01*
X191080120Y-72899502D01*
X191055014Y-72902413D01*
X191055003Y-72902416D01*
X191044022Y-72907265D01*
X190977004Y-72914098D01*
X190955980Y-72907266D01*
X190944991Y-72902415D01*
X190919865Y-72899500D01*
X190919864Y-72899500D01*
X190580141Y-72899500D01*
X190580120Y-72899502D01*
X190555014Y-72902413D01*
X190555003Y-72902416D01*
X190544022Y-72907265D01*
X190477004Y-72914098D01*
X190455980Y-72907266D01*
X190444991Y-72902415D01*
X190419865Y-72899500D01*
X190419864Y-72899500D01*
X190080141Y-72899500D01*
X190080120Y-72899502D01*
X190055014Y-72902413D01*
X190055003Y-72902416D01*
X190044022Y-72907265D01*
X189977004Y-72914098D01*
X189955980Y-72907266D01*
X189944991Y-72902415D01*
X189919865Y-72899500D01*
X189919864Y-72899500D01*
X189580141Y-72899500D01*
X189580120Y-72899502D01*
X189555014Y-72902413D01*
X189555003Y-72902416D01*
X189544022Y-72907265D01*
X189477004Y-72914098D01*
X189455980Y-72907266D01*
X189444991Y-72902415D01*
X189419865Y-72899500D01*
X189419864Y-72899500D01*
X189080141Y-72899500D01*
X189080120Y-72899502D01*
X189055014Y-72902413D01*
X189055003Y-72902416D01*
X189044022Y-72907265D01*
X188977004Y-72914098D01*
X188955980Y-72907266D01*
X188944991Y-72902415D01*
X188919865Y-72899500D01*
X188919864Y-72899500D01*
X188580141Y-72899500D01*
X188580120Y-72899502D01*
X188555014Y-72902413D01*
X188555003Y-72902416D01*
X188544022Y-72907265D01*
X188477004Y-72914098D01*
X188455980Y-72907266D01*
X188444991Y-72902415D01*
X188419865Y-72899500D01*
X188419864Y-72899500D01*
X188080141Y-72899500D01*
X188080120Y-72899502D01*
X188055014Y-72902413D01*
X188055003Y-72902416D01*
X188044022Y-72907265D01*
X187977004Y-72914098D01*
X187955980Y-72907266D01*
X187944991Y-72902415D01*
X187919865Y-72899500D01*
X187919864Y-72899500D01*
X187580141Y-72899500D01*
X187580120Y-72899502D01*
X187555014Y-72902413D01*
X187555003Y-72902416D01*
X187544022Y-72907265D01*
X187477004Y-72914098D01*
X187455980Y-72907266D01*
X187444991Y-72902415D01*
X187419865Y-72899500D01*
X187284500Y-72899500D01*
X187220431Y-72878683D01*
X187180835Y-72824183D01*
X187175500Y-72790500D01*
X187175500Y-69397762D01*
X190944965Y-69397762D01*
X190963024Y-69534938D01*
X190963026Y-69534945D01*
X191015974Y-69662774D01*
X191015976Y-69662778D01*
X191098224Y-69769965D01*
X191100209Y-69772551D01*
X191100213Y-69772554D01*
X191100214Y-69772555D01*
X191120376Y-69788026D01*
X191209982Y-69856784D01*
X191226602Y-69863668D01*
X191337814Y-69909733D01*
X191337821Y-69909735D01*
X191474997Y-69927795D01*
X191475000Y-69927795D01*
X191475003Y-69927795D01*
X191510329Y-69923144D01*
X191576567Y-69935420D01*
X191622939Y-69984285D01*
X191631732Y-70051074D01*
X191625260Y-70072922D01*
X191588027Y-70162811D01*
X191588024Y-70162821D01*
X191569965Y-70299997D01*
X191569965Y-70300002D01*
X191588024Y-70437178D01*
X191588026Y-70437185D01*
X191640974Y-70565014D01*
X191640976Y-70565018D01*
X191661636Y-70591943D01*
X191725209Y-70674791D01*
X191725213Y-70674794D01*
X191725214Y-70674795D01*
X191770484Y-70709532D01*
X191834982Y-70759024D01*
X191898899Y-70785499D01*
X191962814Y-70811973D01*
X191962821Y-70811975D01*
X192099997Y-70830035D01*
X192100000Y-70830035D01*
X192100003Y-70830035D01*
X192237178Y-70811975D01*
X192237180Y-70811974D01*
X192237183Y-70811974D01*
X192365018Y-70759024D01*
X192474791Y-70674791D01*
X192559024Y-70565018D01*
X192611974Y-70437183D01*
X192616870Y-70400000D01*
X192630035Y-70300002D01*
X192630035Y-70299997D01*
X192611975Y-70162821D01*
X192611973Y-70162814D01*
X192559023Y-70034981D01*
X192474795Y-69925214D01*
X192474794Y-69925213D01*
X192474791Y-69925209D01*
X192474786Y-69925205D01*
X192474785Y-69925204D01*
X192365018Y-69840976D01*
X192365014Y-69840974D01*
X192237185Y-69788026D01*
X192237178Y-69788024D01*
X192100003Y-69769965D01*
X192100001Y-69769965D01*
X192100000Y-69769965D01*
X192095063Y-69770614D01*
X192064667Y-69774616D01*
X191998430Y-69762338D01*
X191952059Y-69713472D01*
X191943268Y-69646682D01*
X191949735Y-69624845D01*
X191986974Y-69534943D01*
X192005035Y-69397760D01*
X191993741Y-69311973D01*
X191986975Y-69260581D01*
X191986973Y-69260574D01*
X191934023Y-69132741D01*
X191849795Y-69022974D01*
X191849794Y-69022973D01*
X191849791Y-69022969D01*
X191849786Y-69022965D01*
X191849785Y-69022964D01*
X191740018Y-68938736D01*
X191740014Y-68938734D01*
X191612185Y-68885786D01*
X191612178Y-68885784D01*
X191475003Y-68867725D01*
X191474997Y-68867725D01*
X191337821Y-68885784D01*
X191337814Y-68885786D01*
X191209981Y-68938736D01*
X191100214Y-69022964D01*
X191100204Y-69022974D01*
X191015976Y-69132741D01*
X190963026Y-69260574D01*
X190963024Y-69260581D01*
X190944965Y-69397757D01*
X190944965Y-69397762D01*
X187175500Y-69397762D01*
X187175500Y-68955740D01*
X187196317Y-68891671D01*
X187250817Y-68852075D01*
X187318183Y-68852075D01*
X187328266Y-68856565D01*
X187328381Y-68856290D01*
X187462814Y-68911973D01*
X187462821Y-68911975D01*
X187599997Y-68930035D01*
X187600000Y-68930035D01*
X187600003Y-68930035D01*
X187737178Y-68911975D01*
X187737180Y-68911974D01*
X187737183Y-68911974D01*
X187865018Y-68859024D01*
X187974791Y-68774791D01*
X188059024Y-68665018D01*
X188111974Y-68537183D01*
X188126716Y-68425214D01*
X188130035Y-68400002D01*
X188130035Y-68399997D01*
X188111975Y-68262821D01*
X188111973Y-68262814D01*
X188059023Y-68134981D01*
X187974795Y-68025214D01*
X187974794Y-68025213D01*
X187974791Y-68025209D01*
X187974786Y-68025205D01*
X187974785Y-68025204D01*
X187865018Y-67940976D01*
X187865014Y-67940974D01*
X187737185Y-67888026D01*
X187737178Y-67888024D01*
X187600003Y-67869965D01*
X187599997Y-67869965D01*
X187462821Y-67888024D01*
X187462814Y-67888026D01*
X187328382Y-67943710D01*
X187327319Y-67941145D01*
X187273075Y-67952659D01*
X187211541Y-67925240D01*
X187177875Y-67866890D01*
X187175500Y-67844259D01*
X187175500Y-67371398D01*
X187196317Y-67307329D01*
X187207425Y-67294323D01*
X187395442Y-67106306D01*
X187586461Y-66915286D01*
X187646483Y-66884705D01*
X187713019Y-66895243D01*
X187760654Y-66942878D01*
X187771601Y-66978135D01*
X187789433Y-67113587D01*
X187789435Y-67113594D01*
X187842383Y-67241423D01*
X187842385Y-67241427D01*
X187926618Y-67351200D01*
X188036391Y-67435433D01*
X188100308Y-67461908D01*
X188164223Y-67488382D01*
X188164230Y-67488384D01*
X188301406Y-67506444D01*
X188301409Y-67506444D01*
X188301412Y-67506444D01*
X188438587Y-67488384D01*
X188438589Y-67488383D01*
X188438592Y-67488383D01*
X188566427Y-67435433D01*
X188566427Y-67435432D01*
X188566975Y-67435206D01*
X188608687Y-67426909D01*
X188679607Y-67426909D01*
X188743676Y-67447726D01*
X188783272Y-67502226D01*
X188783272Y-67569592D01*
X188766082Y-67602265D01*
X188740975Y-67634983D01*
X188688026Y-67762814D01*
X188688024Y-67762821D01*
X188669965Y-67899997D01*
X188669965Y-67900002D01*
X188688024Y-68037178D01*
X188688026Y-68037185D01*
X188740974Y-68165014D01*
X188740976Y-68165018D01*
X188821505Y-68269965D01*
X188825209Y-68274791D01*
X188934982Y-68359024D01*
X188964673Y-68371322D01*
X189062814Y-68411973D01*
X189062821Y-68411975D01*
X189199997Y-68430035D01*
X189200000Y-68430035D01*
X189200003Y-68430035D01*
X189337178Y-68411975D01*
X189337180Y-68411974D01*
X189337183Y-68411974D01*
X189465018Y-68359024D01*
X189574791Y-68274791D01*
X189659024Y-68165018D01*
X189711974Y-68037183D01*
X189713551Y-68025209D01*
X189730035Y-67900002D01*
X189730035Y-67900000D01*
X189728038Y-67884835D01*
X189740312Y-67818600D01*
X189789176Y-67772227D01*
X189855965Y-67763431D01*
X189882517Y-67771982D01*
X190537267Y-68080123D01*
X190577325Y-68112389D01*
X190625209Y-68174791D01*
X190625213Y-68174794D01*
X190625214Y-68174795D01*
X190644882Y-68189887D01*
X190734982Y-68259024D01*
X190798899Y-68285499D01*
X190862814Y-68311973D01*
X190862821Y-68311975D01*
X190999997Y-68330035D01*
X191000000Y-68330035D01*
X191000003Y-68330035D01*
X191137178Y-68311975D01*
X191137180Y-68311974D01*
X191137183Y-68311974D01*
X191265018Y-68259024D01*
X191374791Y-68174791D01*
X191459024Y-68065018D01*
X191511974Y-67937183D01*
X191513547Y-67925240D01*
X191530035Y-67800002D01*
X191530035Y-67799997D01*
X191511975Y-67662821D01*
X191511973Y-67662814D01*
X191459023Y-67534981D01*
X191453856Y-67528247D01*
X191431367Y-67464746D01*
X191450499Y-67400154D01*
X191469758Y-67379861D01*
X191469739Y-67379842D01*
X191470481Y-67379099D01*
X191473980Y-67375413D01*
X191474791Y-67374791D01*
X191559024Y-67265018D01*
X191611974Y-67137183D01*
X191613606Y-67124791D01*
X191630035Y-67000002D01*
X191630035Y-66999997D01*
X191611975Y-66862821D01*
X191611973Y-66862814D01*
X191565245Y-66750002D01*
X192971281Y-66750002D01*
X192989340Y-66887178D01*
X192989342Y-66887185D01*
X193042290Y-67015014D01*
X193042292Y-67015018D01*
X193117931Y-67113592D01*
X193126525Y-67124791D01*
X193236298Y-67209024D01*
X193300215Y-67235499D01*
X193364130Y-67261973D01*
X193364137Y-67261975D01*
X193501313Y-67280035D01*
X193501316Y-67280035D01*
X193501319Y-67280035D01*
X193638494Y-67261975D01*
X193638496Y-67261974D01*
X193638499Y-67261974D01*
X193766334Y-67209024D01*
X193876107Y-67124791D01*
X193960340Y-67015018D01*
X194013290Y-66887183D01*
X194013617Y-66884705D01*
X194031351Y-66750002D01*
X194031351Y-66749997D01*
X194013291Y-66612821D01*
X194013289Y-66612814D01*
X193971520Y-66511974D01*
X193960340Y-66484983D01*
X193960339Y-66484982D01*
X193960339Y-66484981D01*
X193876111Y-66375214D01*
X193876110Y-66375213D01*
X193876107Y-66375209D01*
X193876102Y-66375205D01*
X193876101Y-66375204D01*
X193766334Y-66290976D01*
X193766330Y-66290974D01*
X193638501Y-66238026D01*
X193638494Y-66238024D01*
X193501319Y-66219965D01*
X193501313Y-66219965D01*
X193364137Y-66238024D01*
X193364130Y-66238026D01*
X193236297Y-66290976D01*
X193126530Y-66375204D01*
X193126520Y-66375214D01*
X193042292Y-66484981D01*
X192989342Y-66612814D01*
X192989340Y-66612821D01*
X192971281Y-66749997D01*
X192971281Y-66750002D01*
X191565245Y-66750002D01*
X191559023Y-66734981D01*
X191474795Y-66625214D01*
X191474794Y-66625213D01*
X191474791Y-66625209D01*
X191474786Y-66625205D01*
X191474785Y-66625204D01*
X191365018Y-66540976D01*
X191365014Y-66540974D01*
X191237185Y-66488026D01*
X191237178Y-66488024D01*
X191100003Y-66469965D01*
X191099997Y-66469965D01*
X190962821Y-66488024D01*
X190962814Y-66488026D01*
X190834981Y-66540976D01*
X190725214Y-66625204D01*
X190725204Y-66625214D01*
X190640976Y-66734981D01*
X190588026Y-66862814D01*
X190588024Y-66862821D01*
X190577078Y-66945968D01*
X190548076Y-67006771D01*
X190488874Y-67038915D01*
X190422596Y-67030364D01*
X189463037Y-66578773D01*
X189454952Y-66574546D01*
X189423884Y-66556609D01*
X189414835Y-66554184D01*
X189396638Y-66547524D01*
X189388170Y-66543539D01*
X189388167Y-66543538D01*
X189352856Y-66537181D01*
X189343961Y-66535193D01*
X189322896Y-66529549D01*
X189309309Y-66525909D01*
X189309308Y-66525909D01*
X189299948Y-66525909D01*
X189280639Y-66524185D01*
X189271427Y-66522527D01*
X189271424Y-66522526D01*
X189239231Y-66525229D01*
X189235681Y-66525527D01*
X189226567Y-66525909D01*
X188608687Y-66525909D01*
X188566975Y-66517612D01*
X188438594Y-66464435D01*
X188438587Y-66464433D01*
X188303135Y-66446601D01*
X188242332Y-66417600D01*
X188210188Y-66358397D01*
X188218981Y-66291608D01*
X188240285Y-66261462D01*
X188844323Y-65657425D01*
X188904347Y-65626842D01*
X188921398Y-65625500D01*
X189623195Y-65625500D01*
X189687264Y-65646317D01*
X189726860Y-65700817D01*
X189726860Y-65768183D01*
X189723898Y-65776212D01*
X189688026Y-65862814D01*
X189688024Y-65862821D01*
X189669965Y-65999997D01*
X189669965Y-66000002D01*
X189688024Y-66137178D01*
X189688026Y-66137185D01*
X189740974Y-66265014D01*
X189740976Y-66265018D01*
X189817709Y-66365018D01*
X189825209Y-66374791D01*
X189934982Y-66459024D01*
X189997649Y-66484981D01*
X190062814Y-66511973D01*
X190062821Y-66511975D01*
X190199997Y-66530035D01*
X190200000Y-66530035D01*
X190200003Y-66530035D01*
X190337178Y-66511975D01*
X190337180Y-66511974D01*
X190337183Y-66511974D01*
X190465018Y-66459024D01*
X190574791Y-66374791D01*
X190659024Y-66265018D01*
X190711974Y-66137183D01*
X190716870Y-66100000D01*
X190730035Y-66000002D01*
X190730035Y-65999997D01*
X190711975Y-65862821D01*
X190711973Y-65862814D01*
X190676102Y-65776212D01*
X190670817Y-65709054D01*
X190706016Y-65651615D01*
X190768254Y-65625836D01*
X190776805Y-65625500D01*
X192956018Y-65625500D01*
X193064237Y-65596503D01*
X193161263Y-65540485D01*
X193956424Y-64745322D01*
X194016446Y-64714741D01*
X194019205Y-64714340D01*
X194037183Y-64711974D01*
X194165018Y-64659024D01*
X194274791Y-64574791D01*
X194359024Y-64465018D01*
X194411974Y-64337183D01*
X194418187Y-64289997D01*
X194430035Y-64200002D01*
X194430035Y-64199997D01*
X194411975Y-64062821D01*
X194411973Y-64062814D01*
X194359023Y-63934981D01*
X194274795Y-63825214D01*
X194274794Y-63825213D01*
X194274791Y-63825209D01*
X194274786Y-63825205D01*
X194274785Y-63825204D01*
X194165018Y-63740976D01*
X194165014Y-63740974D01*
X194037185Y-63688026D01*
X194037178Y-63688024D01*
X193900003Y-63669965D01*
X193899997Y-63669965D01*
X193762821Y-63688024D01*
X193762814Y-63688026D01*
X193634981Y-63740976D01*
X193525214Y-63825204D01*
X193525204Y-63825214D01*
X193440976Y-63934981D01*
X193388025Y-64062817D01*
X193385666Y-64080734D01*
X193356661Y-64141535D01*
X193354674Y-64143576D01*
X192755677Y-64742575D01*
X192695654Y-64773158D01*
X192678602Y-64774500D01*
X188643977Y-64774500D01*
X188535763Y-64803496D01*
X188438736Y-64859515D01*
X188438735Y-64859515D01*
X188438736Y-64859516D01*
X186488737Y-66809515D01*
X186488736Y-66809514D01*
X186409514Y-66888736D01*
X186353496Y-66985763D01*
X186324500Y-67093982D01*
X186324500Y-69883946D01*
X186303683Y-69948015D01*
X186249183Y-69987611D01*
X186181817Y-69987611D01*
X186127317Y-69948015D01*
X186109159Y-69907873D01*
X185963167Y-69259023D01*
X185722609Y-68189880D01*
X185720432Y-68176181D01*
X185718379Y-68154359D01*
X185711391Y-68135546D01*
X185707228Y-68121516D01*
X185702825Y-68101948D01*
X185702825Y-68101946D01*
X185692644Y-68082538D01*
X185686995Y-68069865D01*
X185685193Y-68065014D01*
X184779213Y-65625836D01*
X184535917Y-64970807D01*
X184533123Y-64903500D01*
X184535723Y-64895975D01*
X184536330Y-64893709D01*
X184555250Y-64750002D01*
X184555250Y-64749997D01*
X184536331Y-64606295D01*
X184536329Y-64606288D01*
X184480860Y-64472373D01*
X184392625Y-64357384D01*
X184392624Y-64357383D01*
X184392621Y-64357379D01*
X184392616Y-64357375D01*
X184392615Y-64357374D01*
X184277626Y-64269139D01*
X184143711Y-64213670D01*
X184143704Y-64213668D01*
X184000003Y-64194750D01*
X183999997Y-64194750D01*
X183856295Y-64213668D01*
X183856288Y-64213670D01*
X183722373Y-64269139D01*
X183607384Y-64357374D01*
X183607374Y-64357384D01*
X183519139Y-64472373D01*
X183463670Y-64606288D01*
X183463668Y-64606295D01*
X183444750Y-64749997D01*
X183444750Y-64750002D01*
X183463668Y-64893704D01*
X183463670Y-64893711D01*
X183519139Y-65027626D01*
X183607374Y-65142615D01*
X183607379Y-65142621D01*
X183607383Y-65142624D01*
X183607384Y-65142625D01*
X183700732Y-65214254D01*
X183736556Y-65262777D01*
X184888606Y-68364449D01*
X184892768Y-68378474D01*
X185206437Y-69772555D01*
X185295161Y-70166883D01*
X185321841Y-70285458D01*
X185324500Y-70309385D01*
X185324500Y-72790500D01*
X185303683Y-72854569D01*
X185249183Y-72894165D01*
X185215500Y-72899500D01*
X184580141Y-72899500D01*
X184580120Y-72899502D01*
X184555011Y-72902414D01*
X184452234Y-72947794D01*
X184372794Y-73027234D01*
X184327415Y-73130009D01*
X184324500Y-73155134D01*
X184324500Y-74319054D01*
X184303683Y-74383123D01*
X184249183Y-74422719D01*
X184181817Y-74422719D01*
X184149145Y-74405530D01*
X184119944Y-74383123D01*
X184065018Y-74340976D01*
X184065014Y-74340974D01*
X183937185Y-74288026D01*
X183937178Y-74288024D01*
X183800003Y-74269965D01*
X183799997Y-74269965D01*
X183662821Y-74288024D01*
X183662814Y-74288026D01*
X183534981Y-74340976D01*
X183425214Y-74425204D01*
X183425204Y-74425214D01*
X183340976Y-74534981D01*
X183288026Y-74662814D01*
X183288024Y-74662821D01*
X183269965Y-74799997D01*
X183269965Y-74800002D01*
X180000000Y-74800002D01*
X180000000Y-72800000D01*
X180369965Y-72800000D01*
X180388024Y-72937178D01*
X180388026Y-72937185D01*
X180440974Y-73065014D01*
X180440976Y-73065018D01*
X180520398Y-73168522D01*
X180525209Y-73174791D01*
X180634982Y-73259024D01*
X180698899Y-73285499D01*
X180762814Y-73311973D01*
X180762821Y-73311975D01*
X180899997Y-73330035D01*
X180900000Y-73330035D01*
X180900003Y-73330035D01*
X181037178Y-73311975D01*
X181037180Y-73311974D01*
X181037183Y-73311974D01*
X181165018Y-73259024D01*
X181274791Y-73174791D01*
X181359024Y-73065018D01*
X181411974Y-72937183D01*
X181415014Y-72914098D01*
X181430035Y-72800000D01*
X181430035Y-72799997D01*
X181411975Y-72662821D01*
X181411973Y-72662814D01*
X181359023Y-72534981D01*
X181274795Y-72425214D01*
X181274794Y-72425213D01*
X181274791Y-72425209D01*
X181274786Y-72425205D01*
X181274785Y-72425204D01*
X181165018Y-72340976D01*
X181165014Y-72340974D01*
X181037185Y-72288026D01*
X181037178Y-72288024D01*
X180900003Y-72269965D01*
X180899997Y-72269965D01*
X180762821Y-72288024D01*
X180762814Y-72288026D01*
X180634981Y-72340976D01*
X180525214Y-72425204D01*
X180525204Y-72425214D01*
X180440976Y-72534981D01*
X180388026Y-72662814D01*
X180388024Y-72662821D01*
X180369965Y-72799997D01*
X180369965Y-72800000D01*
X180000000Y-72800000D01*
X180000000Y-70400002D01*
X182644750Y-70400002D01*
X182663668Y-70543704D01*
X182663670Y-70543711D01*
X182719139Y-70677626D01*
X182807374Y-70792615D01*
X182807379Y-70792621D01*
X182807383Y-70792624D01*
X182807384Y-70792625D01*
X182922373Y-70880860D01*
X183056288Y-70936329D01*
X183056295Y-70936331D01*
X183199997Y-70955250D01*
X183200000Y-70955250D01*
X183200003Y-70955250D01*
X183343704Y-70936331D01*
X183343706Y-70936330D01*
X183343709Y-70936330D01*
X183477625Y-70880861D01*
X183592621Y-70792621D01*
X183680861Y-70677625D01*
X183699297Y-70633116D01*
X183743047Y-70581891D01*
X183808551Y-70566164D01*
X183870789Y-70591943D01*
X183900703Y-70633116D01*
X183919139Y-70677626D01*
X184007374Y-70792615D01*
X184007379Y-70792621D01*
X184007383Y-70792624D01*
X184007384Y-70792625D01*
X184122373Y-70880860D01*
X184256288Y-70936329D01*
X184256295Y-70936331D01*
X184399997Y-70955250D01*
X184400000Y-70955250D01*
X184400003Y-70955250D01*
X184543704Y-70936331D01*
X184543706Y-70936330D01*
X184543709Y-70936330D01*
X184677625Y-70880861D01*
X184792621Y-70792621D01*
X184880861Y-70677625D01*
X184936330Y-70543709D01*
X184950355Y-70437185D01*
X184955250Y-70400002D01*
X184955250Y-70399997D01*
X184936331Y-70256295D01*
X184936329Y-70256288D01*
X184880860Y-70122373D01*
X184792625Y-70007384D01*
X184792624Y-70007383D01*
X184792621Y-70007379D01*
X184792616Y-70007375D01*
X184792615Y-70007374D01*
X184677626Y-69919139D01*
X184543711Y-69863670D01*
X184543704Y-69863668D01*
X184400003Y-69844750D01*
X184399997Y-69844750D01*
X184256295Y-69863668D01*
X184256288Y-69863670D01*
X184122373Y-69919139D01*
X184007384Y-70007374D01*
X184007374Y-70007384D01*
X183919139Y-70122373D01*
X183900703Y-70166883D01*
X183856952Y-70218109D01*
X183791448Y-70233835D01*
X183729210Y-70208055D01*
X183699297Y-70166883D01*
X183680860Y-70122373D01*
X183592625Y-70007384D01*
X183592624Y-70007383D01*
X183592621Y-70007379D01*
X183592616Y-70007375D01*
X183592615Y-70007374D01*
X183477626Y-69919139D01*
X183343711Y-69863670D01*
X183343704Y-69863668D01*
X183200003Y-69844750D01*
X183199997Y-69844750D01*
X183056295Y-69863668D01*
X183056288Y-69863670D01*
X182922373Y-69919139D01*
X182807384Y-70007374D01*
X182807374Y-70007384D01*
X182719139Y-70122373D01*
X182663670Y-70256288D01*
X182663668Y-70256295D01*
X182644750Y-70399997D01*
X182644750Y-70400002D01*
X180000000Y-70400002D01*
X180000000Y-68800002D01*
X183119965Y-68800002D01*
X183138024Y-68937178D01*
X183138026Y-68937185D01*
X183173559Y-69022969D01*
X183190976Y-69065018D01*
X183275209Y-69174791D01*
X183384982Y-69259024D01*
X183448899Y-69285499D01*
X183512814Y-69311973D01*
X183512821Y-69311975D01*
X183649997Y-69330035D01*
X183650000Y-69330035D01*
X183650003Y-69330035D01*
X183787178Y-69311975D01*
X183787180Y-69311974D01*
X183787183Y-69311974D01*
X183915018Y-69259024D01*
X184024791Y-69174791D01*
X184109024Y-69065018D01*
X184161974Y-68937183D01*
X184172265Y-68859023D01*
X184180035Y-68800002D01*
X184180035Y-68799997D01*
X184161975Y-68662821D01*
X184161973Y-68662814D01*
X184109023Y-68534981D01*
X184024795Y-68425214D01*
X184024794Y-68425213D01*
X184024791Y-68425209D01*
X184024786Y-68425205D01*
X184024785Y-68425204D01*
X183915018Y-68340976D01*
X183915014Y-68340974D01*
X183787185Y-68288026D01*
X183787178Y-68288024D01*
X183650003Y-68269965D01*
X183649997Y-68269965D01*
X183512821Y-68288024D01*
X183512814Y-68288026D01*
X183384981Y-68340976D01*
X183275214Y-68425204D01*
X183275204Y-68425214D01*
X183190976Y-68534981D01*
X183138026Y-68662814D01*
X183138024Y-68662821D01*
X183119965Y-68799997D01*
X183119965Y-68800002D01*
X180000000Y-68800002D01*
X180000000Y-63800002D01*
X186669965Y-63800002D01*
X186688024Y-63937178D01*
X186688026Y-63937185D01*
X186740974Y-64065014D01*
X186740976Y-64065018D01*
X186803337Y-64146288D01*
X186825209Y-64174791D01*
X186825213Y-64174794D01*
X186825214Y-64174795D01*
X186858064Y-64200002D01*
X186934982Y-64259024D01*
X186998899Y-64285499D01*
X187062814Y-64311973D01*
X187062821Y-64311975D01*
X187199997Y-64330035D01*
X187200000Y-64330035D01*
X187200003Y-64330035D01*
X187337178Y-64311975D01*
X187337180Y-64311974D01*
X187337183Y-64311974D01*
X187465018Y-64259024D01*
X187574791Y-64174791D01*
X187659024Y-64065018D01*
X187685954Y-64000002D01*
X191369965Y-64000002D01*
X191388024Y-64137178D01*
X191388026Y-64137185D01*
X191440974Y-64265014D01*
X191440976Y-64265018D01*
X191525209Y-64374791D01*
X191634982Y-64459024D01*
X191667210Y-64472373D01*
X191762814Y-64511973D01*
X191762821Y-64511975D01*
X191899997Y-64530035D01*
X191900000Y-64530035D01*
X191900003Y-64530035D01*
X192037178Y-64511975D01*
X192037180Y-64511974D01*
X192037183Y-64511974D01*
X192165018Y-64459024D01*
X192274791Y-64374791D01*
X192359024Y-64265018D01*
X192411974Y-64137183D01*
X192421765Y-64062821D01*
X192430035Y-64000002D01*
X192430035Y-63999997D01*
X192411975Y-63862821D01*
X192411973Y-63862814D01*
X192361506Y-63740976D01*
X192359024Y-63734983D01*
X192359023Y-63734982D01*
X192359023Y-63734981D01*
X192274795Y-63625214D01*
X192274794Y-63625213D01*
X192274791Y-63625209D01*
X192274786Y-63625205D01*
X192274785Y-63625204D01*
X192165018Y-63540976D01*
X192165014Y-63540974D01*
X192037185Y-63488026D01*
X192037178Y-63488024D01*
X191900003Y-63469965D01*
X191899997Y-63469965D01*
X191762821Y-63488024D01*
X191762814Y-63488026D01*
X191634981Y-63540976D01*
X191525214Y-63625204D01*
X191525204Y-63625214D01*
X191440976Y-63734981D01*
X191388026Y-63862814D01*
X191388024Y-63862821D01*
X191369965Y-63999997D01*
X191369965Y-64000002D01*
X187685954Y-64000002D01*
X187711974Y-63937183D01*
X187717215Y-63897379D01*
X187730035Y-63800002D01*
X187730035Y-63799997D01*
X187711975Y-63662821D01*
X187711973Y-63662814D01*
X187661506Y-63540976D01*
X187659024Y-63534983D01*
X187659023Y-63534982D01*
X187659023Y-63534981D01*
X187574795Y-63425214D01*
X187574794Y-63425213D01*
X187574791Y-63425209D01*
X187574786Y-63425205D01*
X187574785Y-63425204D01*
X187465018Y-63340976D01*
X187465014Y-63340974D01*
X187337185Y-63288026D01*
X187337178Y-63288024D01*
X187200003Y-63269965D01*
X187199997Y-63269965D01*
X187062821Y-63288024D01*
X187062814Y-63288026D01*
X186934981Y-63340976D01*
X186825214Y-63425204D01*
X186825204Y-63425214D01*
X186740976Y-63534981D01*
X186688026Y-63662814D01*
X186688024Y-63662821D01*
X186669965Y-63799997D01*
X186669965Y-63800002D01*
X180000000Y-63800002D01*
X180000000Y-63200002D01*
X189969965Y-63200002D01*
X189988024Y-63337178D01*
X189988026Y-63337185D01*
X190040974Y-63465014D01*
X190040976Y-63465018D01*
X190125209Y-63574791D01*
X190234982Y-63659024D01*
X190298899Y-63685499D01*
X190362814Y-63711973D01*
X190362821Y-63711975D01*
X190499997Y-63730035D01*
X190500000Y-63730035D01*
X190500003Y-63730035D01*
X190637178Y-63711975D01*
X190637180Y-63711974D01*
X190637183Y-63711974D01*
X190765018Y-63659024D01*
X190874791Y-63574791D01*
X190959024Y-63465018D01*
X191011974Y-63337183D01*
X191030035Y-63200000D01*
X191011974Y-63062817D01*
X190959024Y-62934983D01*
X190959023Y-62934982D01*
X190959023Y-62934981D01*
X190874795Y-62825214D01*
X190874794Y-62825213D01*
X190874791Y-62825209D01*
X190874786Y-62825205D01*
X190874785Y-62825204D01*
X190765018Y-62740976D01*
X190765014Y-62740974D01*
X190637185Y-62688026D01*
X190637178Y-62688024D01*
X190500003Y-62669965D01*
X190499997Y-62669965D01*
X190362821Y-62688024D01*
X190362814Y-62688026D01*
X190234981Y-62740976D01*
X190125214Y-62825204D01*
X190125204Y-62825214D01*
X190040976Y-62934981D01*
X189988026Y-63062814D01*
X189988024Y-63062821D01*
X189969965Y-63199997D01*
X189969965Y-63200002D01*
X180000000Y-63200002D01*
X180000000Y-61400002D01*
X188469965Y-61400002D01*
X188488024Y-61537178D01*
X188488026Y-61537185D01*
X188505299Y-61578885D01*
X188540976Y-61665018D01*
X188625209Y-61774791D01*
X188625213Y-61774794D01*
X188625214Y-61774795D01*
X188670484Y-61809532D01*
X188734982Y-61859024D01*
X188798899Y-61885499D01*
X188862814Y-61911973D01*
X188862821Y-61911975D01*
X188999997Y-61930035D01*
X189000000Y-61930035D01*
X189000003Y-61930035D01*
X189137178Y-61911975D01*
X189137180Y-61911974D01*
X189137183Y-61911974D01*
X189265018Y-61859024D01*
X189374791Y-61774791D01*
X189459024Y-61665018D01*
X189511974Y-61537183D01*
X189530035Y-61400000D01*
X189511974Y-61262817D01*
X189459024Y-61134983D01*
X189459023Y-61134982D01*
X189459023Y-61134981D01*
X189374795Y-61025214D01*
X189374794Y-61025213D01*
X189374791Y-61025209D01*
X189374786Y-61025205D01*
X189374785Y-61025204D01*
X189265018Y-60940976D01*
X189265014Y-60940974D01*
X189137185Y-60888026D01*
X189137178Y-60888024D01*
X189000003Y-60869965D01*
X188999997Y-60869965D01*
X188862821Y-60888024D01*
X188862814Y-60888026D01*
X188734981Y-60940976D01*
X188625214Y-61025204D01*
X188625204Y-61025214D01*
X188540976Y-61134981D01*
X188488026Y-61262814D01*
X188488024Y-61262821D01*
X188469965Y-61399997D01*
X188469965Y-61400002D01*
X180000000Y-61400002D01*
X180000000Y-59312501D01*
X181444750Y-59312501D01*
X181463668Y-59456203D01*
X181463670Y-59456210D01*
X181519139Y-59590125D01*
X181607374Y-59705114D01*
X181607379Y-59705120D01*
X181607383Y-59705123D01*
X181607384Y-59705124D01*
X181722373Y-59793359D01*
X181722374Y-59793359D01*
X181722375Y-59793360D01*
X181777847Y-59816337D01*
X181856288Y-59848828D01*
X181856295Y-59848830D01*
X181999997Y-59867749D01*
X182000000Y-59867749D01*
X182000003Y-59867749D01*
X182143704Y-59848830D01*
X182143706Y-59848829D01*
X182143709Y-59848829D01*
X182277625Y-59793360D01*
X182392621Y-59705120D01*
X182480861Y-59590124D01*
X182536330Y-59456208D01*
X182537870Y-59444516D01*
X182555250Y-59312501D01*
X182555250Y-59312496D01*
X182536331Y-59168794D01*
X182536329Y-59168787D01*
X182480860Y-59034872D01*
X182392625Y-58919883D01*
X182392624Y-58919882D01*
X182392621Y-58919878D01*
X182392616Y-58919874D01*
X182392615Y-58919873D01*
X182277626Y-58831638D01*
X182143711Y-58776169D01*
X182143704Y-58776167D01*
X182000003Y-58757249D01*
X181999997Y-58757249D01*
X181856295Y-58776167D01*
X181856288Y-58776169D01*
X181722373Y-58831638D01*
X181607384Y-58919873D01*
X181607374Y-58919883D01*
X181519139Y-59034872D01*
X181463670Y-59168787D01*
X181463668Y-59168794D01*
X181444750Y-59312496D01*
X181444750Y-59312501D01*
X180000000Y-59312501D01*
X180000000Y-55212501D01*
X181444750Y-55212501D01*
X181463668Y-55356203D01*
X181463670Y-55356210D01*
X181519139Y-55490125D01*
X181607374Y-55605114D01*
X181607379Y-55605120D01*
X181607383Y-55605123D01*
X181607384Y-55605124D01*
X181722373Y-55693359D01*
X181856288Y-55748828D01*
X181856295Y-55748830D01*
X181999997Y-55767749D01*
X182000000Y-55767749D01*
X182000003Y-55767749D01*
X182143704Y-55748830D01*
X182143706Y-55748829D01*
X182143709Y-55748829D01*
X182277625Y-55693360D01*
X182392621Y-55605120D01*
X182480861Y-55490124D01*
X182536330Y-55356208D01*
X182539025Y-55335743D01*
X182555250Y-55212501D01*
X182555250Y-55212496D01*
X182536331Y-55068794D01*
X182536329Y-55068787D01*
X182480860Y-54934872D01*
X182392625Y-54819883D01*
X182392624Y-54819882D01*
X182392621Y-54819878D01*
X182392616Y-54819874D01*
X182392615Y-54819873D01*
X182277626Y-54731638D01*
X182143711Y-54676169D01*
X182143704Y-54676167D01*
X182000003Y-54657249D01*
X181999997Y-54657249D01*
X181856295Y-54676167D01*
X181856288Y-54676169D01*
X181722373Y-54731638D01*
X181607384Y-54819873D01*
X181607374Y-54819883D01*
X181519139Y-54934872D01*
X181463670Y-55068787D01*
X181463668Y-55068794D01*
X181444750Y-55212496D01*
X181444750Y-55212501D01*
X180000000Y-55212501D01*
X180000000Y-54200002D01*
X188769965Y-54200002D01*
X188788024Y-54337178D01*
X188788026Y-54337185D01*
X188840974Y-54465014D01*
X188840976Y-54465018D01*
X188921505Y-54569965D01*
X188925209Y-54574791D01*
X189034982Y-54659024D01*
X189098899Y-54685499D01*
X189162814Y-54711973D01*
X189162817Y-54711974D01*
X189179726Y-54714200D01*
X189240528Y-54743199D01*
X189272674Y-54802400D01*
X189274500Y-54822267D01*
X189274500Y-59454293D01*
X189253683Y-59518362D01*
X189251977Y-59520646D01*
X189240976Y-59534983D01*
X189188026Y-59662814D01*
X189188024Y-59662821D01*
X189169965Y-59799997D01*
X189169965Y-59800002D01*
X189188024Y-59937178D01*
X189188026Y-59937185D01*
X189240974Y-60065014D01*
X189240976Y-60065018D01*
X189267820Y-60100002D01*
X189325209Y-60174791D01*
X189434982Y-60259024D01*
X189498899Y-60285499D01*
X189562814Y-60311973D01*
X189562821Y-60311975D01*
X189699997Y-60330035D01*
X189700000Y-60330035D01*
X189700003Y-60330035D01*
X189837178Y-60311975D01*
X189837180Y-60311974D01*
X189837183Y-60311974D01*
X189965018Y-60259024D01*
X190074791Y-60174791D01*
X190159024Y-60065018D01*
X190211974Y-59937183D01*
X190221116Y-59867749D01*
X190230035Y-59800002D01*
X190230035Y-59799997D01*
X190211975Y-59662821D01*
X190211973Y-59662814D01*
X190193882Y-59619138D01*
X190159024Y-59534983D01*
X190148022Y-59520645D01*
X190125537Y-59457144D01*
X190125500Y-59454293D01*
X190125500Y-57250002D01*
X197769965Y-57250002D01*
X197788024Y-57387178D01*
X197788026Y-57387185D01*
X197840974Y-57515014D01*
X197840976Y-57515018D01*
X197925209Y-57624791D01*
X198034982Y-57709024D01*
X198098899Y-57735499D01*
X198162814Y-57761973D01*
X198162821Y-57761975D01*
X198299997Y-57780035D01*
X198300000Y-57780035D01*
X198300003Y-57780035D01*
X198437178Y-57761975D01*
X198437180Y-57761974D01*
X198437183Y-57761974D01*
X198565018Y-57709024D01*
X198674791Y-57624791D01*
X198759024Y-57515018D01*
X198811974Y-57387183D01*
X198830035Y-57250000D01*
X198811974Y-57112817D01*
X198759024Y-56984983D01*
X198759023Y-56984982D01*
X198759023Y-56984981D01*
X198674795Y-56875214D01*
X198674794Y-56875213D01*
X198674791Y-56875209D01*
X198674786Y-56875205D01*
X198674785Y-56875204D01*
X198565018Y-56790976D01*
X198565014Y-56790974D01*
X198437185Y-56738026D01*
X198437178Y-56738024D01*
X198300003Y-56719965D01*
X198299997Y-56719965D01*
X198162821Y-56738024D01*
X198162814Y-56738026D01*
X198034981Y-56790976D01*
X197925214Y-56875204D01*
X197925204Y-56875214D01*
X197840976Y-56984981D01*
X197788026Y-57112814D01*
X197788024Y-57112821D01*
X197769965Y-57249997D01*
X197769965Y-57250002D01*
X190125500Y-57250002D01*
X190125500Y-55400002D01*
X190669965Y-55400002D01*
X190688024Y-55537178D01*
X190688026Y-55537185D01*
X190740974Y-55665014D01*
X190740976Y-55665018D01*
X190805286Y-55748828D01*
X190825209Y-55774791D01*
X190934982Y-55859024D01*
X190998899Y-55885499D01*
X191062814Y-55911973D01*
X191062821Y-55911975D01*
X191199997Y-55930035D01*
X191200000Y-55930035D01*
X191200003Y-55930035D01*
X191337178Y-55911975D01*
X191337180Y-55911974D01*
X191337183Y-55911974D01*
X191465018Y-55859024D01*
X191574791Y-55774791D01*
X191659024Y-55665018D01*
X191711974Y-55537183D01*
X191727611Y-55418405D01*
X191756612Y-55357606D01*
X191815814Y-55325461D01*
X191877390Y-55331933D01*
X191886583Y-55335741D01*
X191886585Y-55335742D01*
X191886589Y-55335743D01*
X192023765Y-55353803D01*
X192023768Y-55353803D01*
X192023771Y-55353803D01*
X192160946Y-55335743D01*
X192160948Y-55335742D01*
X192160951Y-55335742D01*
X192288786Y-55282792D01*
X192398559Y-55198559D01*
X192474186Y-55100002D01*
X194669965Y-55100002D01*
X194688024Y-55237178D01*
X194688026Y-55237185D01*
X194740974Y-55365014D01*
X194740976Y-55365018D01*
X194767820Y-55400002D01*
X194825209Y-55474791D01*
X194934982Y-55559024D01*
X194998899Y-55585499D01*
X195062814Y-55611973D01*
X195062821Y-55611975D01*
X195199997Y-55630035D01*
X195200000Y-55630035D01*
X195200003Y-55630035D01*
X195337178Y-55611975D01*
X195337180Y-55611974D01*
X195337183Y-55611974D01*
X195465018Y-55559024D01*
X195574791Y-55474791D01*
X195659024Y-55365018D01*
X195711974Y-55237183D01*
X195715225Y-55212496D01*
X195730035Y-55100002D01*
X195730035Y-55099997D01*
X195711975Y-54962821D01*
X195711973Y-54962814D01*
X195659023Y-54834981D01*
X195574795Y-54725214D01*
X195574794Y-54725213D01*
X195574791Y-54725209D01*
X195574786Y-54725205D01*
X195574785Y-54725204D01*
X195465018Y-54640976D01*
X195465014Y-54640974D01*
X195337185Y-54588026D01*
X195337178Y-54588024D01*
X195200003Y-54569965D01*
X195199997Y-54569965D01*
X195062821Y-54588024D01*
X195062814Y-54588026D01*
X194934981Y-54640976D01*
X194825214Y-54725204D01*
X194825204Y-54725214D01*
X194740976Y-54834981D01*
X194688026Y-54962814D01*
X194688024Y-54962821D01*
X194669965Y-55099997D01*
X194669965Y-55100002D01*
X192474186Y-55100002D01*
X192482792Y-55088786D01*
X192535742Y-54960951D01*
X192539176Y-54934874D01*
X192553803Y-54823770D01*
X192553803Y-54823765D01*
X192535743Y-54686589D01*
X192535741Y-54686582D01*
X192494917Y-54588024D01*
X192482792Y-54558751D01*
X192482791Y-54558750D01*
X192482791Y-54558749D01*
X192398563Y-54448982D01*
X192398562Y-54448981D01*
X192398559Y-54448977D01*
X192398554Y-54448973D01*
X192398553Y-54448972D01*
X192288786Y-54364744D01*
X192288782Y-54364742D01*
X192160953Y-54311794D01*
X192160946Y-54311792D01*
X192023771Y-54293733D01*
X192023765Y-54293733D01*
X191886589Y-54311792D01*
X191886582Y-54311794D01*
X191758749Y-54364744D01*
X191648982Y-54448972D01*
X191648972Y-54448982D01*
X191564744Y-54558749D01*
X191511794Y-54686582D01*
X191511792Y-54686589D01*
X191496156Y-54805359D01*
X191467154Y-54866162D01*
X191407952Y-54898306D01*
X191346377Y-54891834D01*
X191337185Y-54888026D01*
X191337178Y-54888024D01*
X191200003Y-54869965D01*
X191199997Y-54869965D01*
X191062821Y-54888024D01*
X191062814Y-54888026D01*
X190934981Y-54940976D01*
X190825214Y-55025204D01*
X190825204Y-55025214D01*
X190740976Y-55134981D01*
X190688026Y-55262814D01*
X190688024Y-55262821D01*
X190669965Y-55399997D01*
X190669965Y-55400002D01*
X190125500Y-55400002D01*
X190125500Y-54934755D01*
X190138529Y-54883078D01*
X190164426Y-54834983D01*
X190609394Y-54008613D01*
X190658096Y-53962074D01*
X190663653Y-53959589D01*
X190665018Y-53959024D01*
X190774791Y-53874791D01*
X190859024Y-53765018D01*
X190911974Y-53637183D01*
X190930035Y-53500000D01*
X190911974Y-53362817D01*
X190859024Y-53234983D01*
X190859023Y-53234982D01*
X190859023Y-53234981D01*
X190774795Y-53125214D01*
X190774794Y-53125213D01*
X190774791Y-53125209D01*
X190774786Y-53125205D01*
X190774785Y-53125204D01*
X190665018Y-53040976D01*
X190665014Y-53040974D01*
X190537185Y-52988026D01*
X190537178Y-52988024D01*
X190400003Y-52969965D01*
X190399997Y-52969965D01*
X190262821Y-52988024D01*
X190262814Y-52988026D01*
X190134981Y-53040976D01*
X190025214Y-53125204D01*
X190025204Y-53125214D01*
X189940976Y-53234981D01*
X189888026Y-53362814D01*
X189888024Y-53362821D01*
X189869965Y-53499997D01*
X189869965Y-53500003D01*
X189874558Y-53534889D01*
X189862462Y-53600794D01*
X189782802Y-53748733D01*
X189734098Y-53795274D01*
X189667340Y-53804299D01*
X189620476Y-53783531D01*
X189565018Y-53740976D01*
X189565014Y-53740974D01*
X189437185Y-53688026D01*
X189437178Y-53688024D01*
X189300003Y-53669965D01*
X189299997Y-53669965D01*
X189162821Y-53688024D01*
X189162814Y-53688026D01*
X189034981Y-53740976D01*
X188925214Y-53825204D01*
X188925204Y-53825214D01*
X188840976Y-53934981D01*
X188788026Y-54062814D01*
X188788024Y-54062821D01*
X188769965Y-54199997D01*
X188769965Y-54200002D01*
X180000000Y-54200002D01*
X180000000Y-52003889D01*
X180000278Y-51996113D01*
X180019801Y-51723138D01*
X180022011Y-51707764D01*
X180079357Y-51444150D01*
X180083735Y-51429239D01*
X180178016Y-51176461D01*
X180184470Y-51162331D01*
X180313760Y-50925553D01*
X180322160Y-50912482D01*
X180483831Y-50696516D01*
X180494003Y-50684776D01*
X180684776Y-50494003D01*
X180696516Y-50483831D01*
X180912482Y-50322160D01*
X180925553Y-50313760D01*
X181162331Y-50184470D01*
X181176461Y-50178016D01*
X181429239Y-50083735D01*
X181444150Y-50079357D01*
X181707764Y-50022011D01*
X181723138Y-50019801D01*
X181996113Y-50000277D01*
X182003889Y-50000000D01*
X197996111Y-50000000D01*
X198003886Y-50000277D01*
G37*
%TD.AperFunction*%
%TD*%
M02*
