%TF.GenerationSoftware,KiCad,Pcbnew,8.0.0*%
%TF.CreationDate,2024-02-29T13:44:40+03:00*%
%TF.ProjectId,micro17,6d696372-6f31-4372-9e6b-696361645f70,rev?*%
%TF.SameCoordinates,Original*%
%TF.FileFunction,Copper,L4,Bot*%
%TF.FilePolarity,Positive*%
%FSLAX46Y46*%
G04 Gerber Fmt 4.6, Leading zero omitted, Abs format (unit mm)*
G04 Created by KiCad (PCBNEW 8.0.0) date 2024-02-29 13:44:40*
%MOMM*%
%LPD*%
G01*
G04 APERTURE LIST*
G04 Aperture macros list*
%AMRoundRect*
0 Rectangle with rounded corners*
0 $1 Rounding radius*
0 $2 $3 $4 $5 $6 $7 $8 $9 X,Y pos of 4 corners*
0 Add a 4 corners polygon primitive as box body*
4,1,4,$2,$3,$4,$5,$6,$7,$8,$9,$2,$3,0*
0 Add four circle primitives for the rounded corners*
1,1,$1+$1,$2,$3*
1,1,$1+$1,$4,$5*
1,1,$1+$1,$6,$7*
1,1,$1+$1,$8,$9*
0 Add four rect primitives between the rounded corners*
20,1,$1+$1,$2,$3,$4,$5,0*
20,1,$1+$1,$4,$5,$6,$7,0*
20,1,$1+$1,$6,$7,$8,$9,0*
20,1,$1+$1,$8,$9,$2,$3,0*%
G04 Aperture macros list end*
%TA.AperFunction,SMDPad,CuDef*%
%ADD10C,1.000000*%
%TD*%
%TA.AperFunction,SMDPad,CuDef*%
%ADD11RoundRect,0.150000X0.450000X0.150000X-0.450000X0.150000X-0.450000X-0.150000X0.450000X-0.150000X0*%
%TD*%
%TA.AperFunction,SMDPad,CuDef*%
%ADD12RoundRect,0.137500X-0.137500X0.587500X-0.137500X-0.587500X0.137500X-0.587500X0.137500X0.587500X0*%
%TD*%
%TA.AperFunction,SMDPad,CuDef*%
%ADD13RoundRect,0.135000X0.135000X0.185000X-0.135000X0.185000X-0.135000X-0.185000X0.135000X-0.185000X0*%
%TD*%
%TA.AperFunction,SMDPad,CuDef*%
%ADD14R,0.750000X2.300000*%
%TD*%
%TA.AperFunction,SMDPad,CuDef*%
%ADD15R,0.250000X2.300000*%
%TD*%
%TA.AperFunction,ViaPad*%
%ADD16C,0.450000*%
%TD*%
%TA.AperFunction,ViaPad*%
%ADD17C,0.800000*%
%TD*%
%TA.AperFunction,ViaPad*%
%ADD18C,0.500000*%
%TD*%
%TA.AperFunction,Conductor*%
%ADD19C,0.250000*%
%TD*%
%TA.AperFunction,Conductor*%
%ADD20C,0.300000*%
%TD*%
G04 APERTURE END LIST*
D10*
%TO.P,TP4,1,1*%
%TO.N,Net-(TP4-Pad1)*%
X193000000Y-70800000D03*
%TD*%
%TO.P,TP3,1,1*%
%TO.N,Net-(TP3-Pad1)*%
X193000000Y-68600000D03*
%TD*%
D11*
%TO.P,D1,1,K*%
%TO.N,MCU_TX*%
X196900000Y-67800000D03*
%TO.P,D1,2,A*%
%TO.N,MCU_RX*%
X194800000Y-67800000D03*
%TD*%
D12*
%TO.P,U3,1*%
%TO.N,Net-(R25-Pad2)*%
X188330000Y-65150000D03*
%TO.P,U3,2*%
%TO.N,GND*%
X190870000Y-65150000D03*
%TO.P,U3,3*%
%TO.N,Net-(TP4-Pad1)*%
X190870000Y-70650000D03*
%TO.P,U3,4*%
%TO.N,Net-(TP3-Pad1)*%
X188330000Y-70650000D03*
%TD*%
D13*
%TO.P,R25,1*%
%TO.N,BASEBAND_BYPASS*%
X189410000Y-63400000D03*
%TO.P,R25,2*%
%TO.N,Net-(R25-Pad2)*%
X188390000Y-63400000D03*
%TD*%
D14*
%TO.P,J5,1,Pin_1*%
%TO.N,unconnected-(J5-Pin_1-Pad1)*%
X195000000Y-77650000D03*
%TO.P,J5,2,Pin_2*%
%TO.N,GND*%
X195000000Y-74350000D03*
D15*
%TO.P,J5,3,Pin_3*%
%TO.N,PTT_IN*%
X194250000Y-77650000D03*
%TO.P,J5,4,Pin_4*%
%TO.N,PTT_OUT*%
X194250000Y-74350000D03*
%TO.P,J5,5,Pin_5*%
%TO.N,unconnected-(J5-Pin_5-Pad5)*%
X193750000Y-77650000D03*
%TO.P,J5,6,Pin_6*%
%TO.N,unconnected-(J5-Pin_6-Pad6)*%
X193750000Y-74350000D03*
%TO.P,J5,7,Pin_7*%
%TO.N,AUDIO_IN*%
X193250000Y-77650000D03*
%TO.P,J5,8,Pin_8*%
%TO.N,unconnected-(J5-Pin_8-Pad8)*%
X193250000Y-74350000D03*
%TO.P,J5,9,Pin_9*%
%TO.N,unconnected-(J5-Pin_9-Pad9)*%
X192750000Y-77650000D03*
%TO.P,J5,10,Pin_10*%
%TO.N,unconnected-(J5-Pin_10-Pad10)*%
X192750000Y-74350000D03*
%TO.P,J5,11,Pin_11*%
%TO.N,unconnected-(J5-Pin_11-Pad11)*%
X192250000Y-77650000D03*
%TO.P,J5,12,Pin_12*%
%TO.N,unconnected-(J5-Pin_12-Pad12)*%
X192250000Y-74350000D03*
%TO.P,J5,13,Pin_13*%
%TO.N,BASEBAND_OUT_FILT*%
X191750000Y-77650000D03*
%TO.P,J5,14,Pin_14*%
%TO.N,MCU_RX*%
X191750000Y-74350000D03*
%TO.P,J5,15,Pin_15*%
%TO.N,MCU_TX*%
X191250000Y-77650000D03*
%TO.P,J5,16,Pin_16*%
%TO.N,unconnected-(J5-Pin_16-Pad16)*%
X191250000Y-74350000D03*
%TO.P,J5,17,Pin_17*%
%TO.N,GND*%
X190750000Y-77650000D03*
%TO.P,J5,18,Pin_18*%
%TO.N,unconnected-(J5-Pin_18-Pad18)*%
X190750000Y-74350000D03*
%TO.P,J5,19,Pin_19*%
%TO.N,unconnected-(J5-Pin_19-Pad19)*%
X190250000Y-77650000D03*
%TO.P,J5,20,Pin_20*%
%TO.N,unconnected-(J5-Pin_20-Pad20)*%
X190250000Y-74350000D03*
%TO.P,J5,21,Pin_21*%
%TO.N,unconnected-(J5-Pin_21-Pad21)*%
X189750000Y-77650000D03*
%TO.P,J5,22,Pin_22*%
%TO.N,unconnected-(J5-Pin_22-Pad22)*%
X189750000Y-74350000D03*
%TO.P,J5,23,Pin_23*%
%TO.N,unconnected-(J5-Pin_23-Pad23)*%
X189250000Y-77650000D03*
%TO.P,J5,24,Pin_24*%
%TO.N,unconnected-(J5-Pin_24-Pad24)*%
X189250000Y-74350000D03*
%TO.P,J5,25,Pin_25*%
%TO.N,unconnected-(J5-Pin_25-Pad25)*%
X188750000Y-77650000D03*
%TO.P,J5,26,Pin_26*%
%TO.N,unconnected-(J5-Pin_26-Pad26)*%
X188750000Y-74350000D03*
%TO.P,J5,27,Pin_27*%
%TO.N,unconnected-(J5-Pin_27-Pad27)*%
X188250000Y-77650000D03*
%TO.P,J5,28,Pin_28*%
%TO.N,unconnected-(J5-Pin_28-Pad28)*%
X188250000Y-74350000D03*
%TO.P,J5,29,Pin_29*%
%TO.N,unconnected-(J5-Pin_29-Pad29)*%
X187750000Y-77650000D03*
%TO.P,J5,30,Pin_30*%
%TO.N,AUDIO_OUT_FILT*%
X187750000Y-74350000D03*
%TO.P,J5,31,Pin_31*%
%TO.N,BASEBAND_IN*%
X187250000Y-77650000D03*
%TO.P,J5,32,Pin_32*%
%TO.N,unconnected-(J5-Pin_32-Pad32)*%
X187250000Y-74350000D03*
%TO.P,J5,33,Pin_33*%
%TO.N,unconnected-(J5-Pin_33-Pad33)*%
X186750000Y-77650000D03*
%TO.P,J5,34,Pin_34*%
%TO.N,AUDIO_OUT_MUTE*%
X186750000Y-74350000D03*
%TO.P,J5,35,Pin_35*%
%TO.N,unconnected-(J5-Pin_35-Pad35)*%
X186250000Y-77650000D03*
%TO.P,J5,36,Pin_36*%
%TO.N,unconnected-(J5-Pin_36-Pad36)*%
X186250000Y-74350000D03*
%TO.P,J5,37,Pin_37*%
%TO.N,unconnected-(J5-Pin_37-Pad37)*%
X185750000Y-77650000D03*
%TO.P,J5,38,Pin_38*%
%TO.N,+5VD*%
X185750000Y-74350000D03*
D14*
%TO.P,J5,39,Pin_39*%
%TO.N,GND*%
X185000000Y-77650000D03*
%TO.P,J5,40,Pin_40*%
%TO.N,unconnected-(J5-Pin_40-Pad40)*%
X185000000Y-74350000D03*
%TD*%
D16*
%TO.N,BASEBAND_BYPASS*%
X192906587Y-64093413D03*
D17*
%TO.N,+3V3*%
X187900000Y-53200000D03*
D18*
%TO.N,GND*%
X185000000Y-51000000D03*
X185000000Y-53000000D03*
X181000000Y-61000000D03*
X185200000Y-61000000D03*
X199000000Y-51000000D03*
X181000000Y-51000000D03*
D16*
X192000000Y-57500000D03*
X197300000Y-72000000D03*
D18*
X181000000Y-63000000D03*
X189700000Y-79500000D03*
D16*
X194000000Y-61500000D03*
D18*
X181000000Y-55000000D03*
D16*
X186500000Y-79400000D03*
D18*
X180750000Y-70000000D03*
D16*
X192000000Y-59500000D03*
D18*
X199100000Y-79100000D03*
D16*
X191000000Y-71900000D03*
D18*
X185000000Y-55000000D03*
D16*
X194000000Y-57300000D03*
D18*
X188750000Y-69500000D03*
X181000000Y-75000000D03*
X181000000Y-59000000D03*
D16*
X197800000Y-78400000D03*
D18*
X198750000Y-63250000D03*
X181000000Y-68500000D03*
D16*
X189100000Y-64500000D03*
X186100000Y-68400000D03*
X182960000Y-60300000D03*
X196000000Y-59500000D03*
X196000000Y-61500000D03*
D18*
X199000000Y-53000000D03*
D16*
X190300000Y-55300000D03*
X194400000Y-54800000D03*
X191507567Y-68206053D03*
D18*
X198250000Y-65750000D03*
D16*
X192000000Y-61500000D03*
X183960000Y-61000000D03*
X198800000Y-54600000D03*
X196000000Y-57500000D03*
D18*
X182000000Y-75250000D03*
D16*
X196400000Y-74700000D03*
D18*
X183000000Y-73000000D03*
X181000000Y-53000000D03*
X182300000Y-70300000D03*
X183000000Y-53000000D03*
X181000000Y-57000000D03*
X197000000Y-73000000D03*
D16*
X194800000Y-65900000D03*
D18*
X183000000Y-51000000D03*
X181000000Y-65000000D03*
X187000000Y-55000000D03*
D16*
%TO.N,+3V3*%
X191200000Y-55400000D03*
X198300000Y-57250000D03*
D18*
X182000000Y-56200000D03*
D16*
X187200000Y-63800000D03*
D18*
X197350000Y-64290000D03*
D16*
X183650000Y-68800000D03*
X183800000Y-74800000D03*
%TO.N,+5V*%
X197400000Y-66100000D03*
X189200000Y-67900000D03*
X191475000Y-69397760D03*
D18*
X182000000Y-60300000D03*
D16*
X195000000Y-76000000D03*
%TO.N,Net-(U4B-+)*%
X191000000Y-67800000D03*
X188301409Y-66976409D03*
%TO.N,/MCU/~{RST}*%
X190400000Y-53500000D03*
X189700000Y-59800000D03*
%TO.N,Net-(C16-Pad2)*%
X190200000Y-66000000D03*
X187600000Y-68400000D03*
%TO.N,Net-(U5A-P0A)*%
X180900000Y-76200000D03*
X192100000Y-70300000D03*
X193501316Y-66750000D03*
%TO.N,Net-(U5B-P1A)*%
X180900000Y-72800000D03*
X198100000Y-67900000D03*
%TO.N,Net-(U5C-P2W)*%
X198467935Y-74499604D03*
X185900000Y-76000000D03*
%TO.N,I2C_SDA*%
X192023768Y-54823768D03*
D18*
X183200000Y-70400000D03*
D16*
%TO.N,PTT_OUT*%
X191900000Y-64000000D03*
X194250000Y-72700000D03*
%TO.N,AUDIO_OUT_MUTE*%
X193900000Y-64200000D03*
%TO.N,BASEBAND_IN_FILT*%
X189000000Y-61400000D03*
X191100000Y-67000000D03*
%TO.N,BASEBAND_OUT*%
X190500000Y-63200000D03*
X186800000Y-76000000D03*
%TO.N,I2C_SCL*%
X195200000Y-55100000D03*
D18*
X184400000Y-70400000D03*
D16*
%TO.N,AUDIO_OUT_FILT*%
X187750000Y-75775000D03*
X181000000Y-78597151D03*
%TO.N,BASEBAND_IN*%
X187250000Y-79150000D03*
%TO.N,BASEBAND_OUT_FILT*%
X191525000Y-79225000D03*
%TO.N,AUDIO_IN*%
X193300000Y-79200000D03*
%TO.N,PTT_IN*%
X189300000Y-54200000D03*
X196100000Y-78600000D03*
%TO.N,MCU_TX*%
X190000000Y-75950000D03*
D18*
X198900000Y-60100000D03*
D16*
X193600000Y-72600000D03*
D18*
%TO.N,MCU_RX*%
X198800000Y-59000000D03*
%TO.N,+5VD*%
X184000000Y-65037501D03*
%TD*%
D19*
%TO.N,Net-(TP3-Pad1)*%
X188850000Y-70650000D02*
X188330000Y-70650000D01*
X190743947Y-68756053D02*
X188850000Y-70650000D01*
X192843947Y-68756053D02*
X190743947Y-68756053D01*
X193000000Y-68600000D02*
X192843947Y-68756053D01*
%TO.N,MCU_RX*%
X198200000Y-59600000D02*
X198800000Y-59000000D01*
X198200000Y-61050000D02*
X198200000Y-59600000D01*
X195500000Y-70000000D02*
X195500000Y-63750000D01*
X192500000Y-72000000D02*
X193500000Y-72000000D01*
X195500000Y-63750000D02*
X198200000Y-61050000D01*
X191750000Y-74350000D02*
X191750000Y-72750000D01*
X191750000Y-72750000D02*
X192500000Y-72000000D01*
X193500000Y-72000000D02*
X195500000Y-70000000D01*
%TO.N,MCU_TX*%
X198900000Y-61522867D02*
X198900000Y-60100000D01*
X196250000Y-64172867D02*
X198900000Y-61522867D01*
X193600000Y-72600000D02*
X193600000Y-72572182D01*
X193600000Y-72572182D02*
X196250000Y-69922182D01*
X196250000Y-69922182D02*
X196250000Y-64172867D01*
D20*
%TO.N,Net-(TP4-Pad1)*%
X191145000Y-70925000D02*
X192875000Y-70925000D01*
X190870000Y-70650000D02*
X191145000Y-70925000D01*
X192875000Y-70925000D02*
X193000000Y-70800000D01*
%TO.N,Net-(R25-Pad2)*%
X188330000Y-63460000D02*
X188390000Y-63400000D01*
X188330000Y-65150000D02*
X188330000Y-63460000D01*
%TO.N,BASEBAND_BYPASS*%
X189785000Y-63775000D02*
X189410000Y-63400000D01*
X191088173Y-63425000D02*
X190738173Y-63775000D01*
X190738173Y-63775000D02*
X189785000Y-63775000D01*
X192906587Y-64093413D02*
X192238174Y-63425000D01*
X192238174Y-63425000D02*
X191088173Y-63425000D01*
D19*
%TO.N,+5VD*%
X185300000Y-68250000D02*
X185750000Y-70250000D01*
X185750000Y-70250000D02*
X185750000Y-74350000D01*
X185300000Y-66337501D02*
X185300000Y-68250000D01*
X184000000Y-65037501D02*
X185300000Y-66337501D01*
%TO.N,AUDIO_OUT_MUTE*%
X186750000Y-67150000D02*
X186750000Y-74350000D01*
X187500000Y-66400000D02*
X186750000Y-67150000D01*
X189522671Y-66577329D02*
X189345342Y-66400000D01*
X190744853Y-66577329D02*
X189522671Y-66577329D01*
X191022182Y-66300000D02*
X190744853Y-66577329D01*
X189345342Y-66400000D02*
X187500000Y-66400000D01*
X192800000Y-66300000D02*
X191022182Y-66300000D01*
X193900000Y-65200000D02*
X192800000Y-66300000D01*
X193900000Y-64200000D02*
X193900000Y-65200000D01*
%TO.N,GND*%
X190750000Y-79075000D02*
X190325000Y-79500000D01*
X190325000Y-79500000D02*
X189700000Y-79500000D01*
X190750000Y-77650000D02*
X190750000Y-79075000D01*
D20*
%TO.N,Net-(U4B-+)*%
X188301409Y-66976409D02*
X189250000Y-66976409D01*
X189250000Y-66976409D02*
X191000000Y-67800000D01*
D19*
%TO.N,/MCU/~{RST}*%
X189700000Y-59800000D02*
X189700000Y-54800000D01*
X189700000Y-54800000D02*
X190400000Y-53500000D01*
%TO.N,PTT_OUT*%
X194250000Y-72700000D02*
X194250000Y-74350000D01*
%TO.N,AUDIO_OUT_FILT*%
X187750000Y-75775000D02*
X187750000Y-74350000D01*
%TO.N,BASEBAND_IN*%
X187250000Y-79150000D02*
X187250000Y-77650000D01*
%TO.N,BASEBAND_OUT_FILT*%
X191750000Y-79050000D02*
X191750000Y-77650000D01*
X191525000Y-79225000D02*
X191750000Y-79050000D01*
%TO.N,AUDIO_IN*%
X193250000Y-79150000D02*
X193300000Y-79200000D01*
X193250000Y-77650000D02*
X193250000Y-79150000D01*
%TO.N,PTT_IN*%
X194375000Y-79200000D02*
X195500000Y-79200000D01*
X194250000Y-79075000D02*
X194375000Y-79200000D01*
X194250000Y-77650000D02*
X194250000Y-79075000D01*
X195500000Y-79200000D02*
X196100000Y-78600000D01*
%TO.N,MCU_TX*%
X191250000Y-76325000D02*
X191250000Y-77650000D01*
X190875000Y-75950000D02*
X191250000Y-76325000D01*
X190000000Y-75950000D02*
X190875000Y-75950000D01*
%TD*%
%TA.AperFunction,Conductor*%
%TO.N,GND*%
G36*
X187713019Y-66895243D02*
G01*
X187760654Y-66942878D01*
X187771601Y-66978135D01*
X187789433Y-67113587D01*
X187789435Y-67113594D01*
X187842383Y-67241423D01*
X187842385Y-67241427D01*
X187908703Y-67327854D01*
X187926618Y-67351200D01*
X188036391Y-67435433D01*
X188100308Y-67461908D01*
X188164223Y-67488382D01*
X188164230Y-67488384D01*
X188301406Y-67506444D01*
X188301409Y-67506444D01*
X188301412Y-67506444D01*
X188438587Y-67488384D01*
X188438589Y-67488383D01*
X188438592Y-67488383D01*
X188566427Y-67435433D01*
X188566427Y-67435432D01*
X188566975Y-67435206D01*
X188608687Y-67426909D01*
X188679607Y-67426909D01*
X188743676Y-67447726D01*
X188783272Y-67502226D01*
X188783272Y-67569592D01*
X188766082Y-67602265D01*
X188740975Y-67634983D01*
X188688026Y-67762814D01*
X188688024Y-67762821D01*
X188669965Y-67899997D01*
X188669965Y-67900002D01*
X188688024Y-68037178D01*
X188688026Y-68037185D01*
X188740974Y-68165014D01*
X188740976Y-68165018D01*
X188823184Y-68272153D01*
X188825209Y-68274791D01*
X188825213Y-68274794D01*
X188825214Y-68274795D01*
X188856674Y-68298935D01*
X188934982Y-68359024D01*
X188936252Y-68359550D01*
X189062814Y-68411973D01*
X189062821Y-68411975D01*
X189199997Y-68430035D01*
X189200000Y-68430035D01*
X189200003Y-68430035D01*
X189337178Y-68411975D01*
X189337180Y-68411974D01*
X189337183Y-68411974D01*
X189465018Y-68359024D01*
X189574791Y-68274791D01*
X189659024Y-68165018D01*
X189711974Y-68037183D01*
X189712302Y-68034696D01*
X189730035Y-67900002D01*
X189730035Y-67900000D01*
X189728038Y-67884835D01*
X189740312Y-67818600D01*
X189789176Y-67772227D01*
X189855965Y-67763431D01*
X189882517Y-67771982D01*
X190537267Y-68080123D01*
X190577325Y-68112389D01*
X190625209Y-68174791D01*
X190625213Y-68174794D01*
X190627812Y-68177393D01*
X190629009Y-68179743D01*
X190629558Y-68180458D01*
X190629425Y-68180559D01*
X190658395Y-68237417D01*
X190647857Y-68303953D01*
X190600222Y-68351588D01*
X190582607Y-68358349D01*
X190579711Y-68359549D01*
X190482686Y-68415566D01*
X189026646Y-69871604D01*
X188966622Y-69902187D01*
X188900086Y-69891649D01*
X188861870Y-69859255D01*
X188780715Y-69749293D01*
X188780710Y-69749288D01*
X188674474Y-69670883D01*
X188549849Y-69627275D01*
X188549847Y-69627274D01*
X188520257Y-69624500D01*
X188520256Y-69624500D01*
X188139744Y-69624500D01*
X188139743Y-69624500D01*
X188110152Y-69627274D01*
X188110150Y-69627275D01*
X187985525Y-69670883D01*
X187879289Y-69749288D01*
X187879288Y-69749289D01*
X187800883Y-69855525D01*
X187757275Y-69980150D01*
X187757274Y-69980152D01*
X187754500Y-70009742D01*
X187754500Y-71290257D01*
X187757274Y-71319847D01*
X187757275Y-71319849D01*
X187800883Y-71444474D01*
X187805565Y-71450817D01*
X187879289Y-71550711D01*
X187985525Y-71629116D01*
X188110151Y-71672725D01*
X188124947Y-71674112D01*
X188139743Y-71675500D01*
X188139744Y-71675500D01*
X188520257Y-71675500D01*
X188530120Y-71674575D01*
X188549849Y-71672725D01*
X188674475Y-71629116D01*
X188780711Y-71550711D01*
X188859116Y-71444475D01*
X188902725Y-71319849D01*
X188905500Y-71290256D01*
X188905500Y-71159277D01*
X188926317Y-71095208D01*
X188980817Y-71055612D01*
X188986291Y-71053991D01*
X189014234Y-71046504D01*
X189014234Y-71046503D01*
X189014237Y-71046503D01*
X189111263Y-70990485D01*
X190108427Y-69993320D01*
X190168449Y-69962739D01*
X190234985Y-69973277D01*
X190282620Y-70020912D01*
X190294500Y-70070397D01*
X190294500Y-71290257D01*
X190297274Y-71319847D01*
X190297275Y-71319849D01*
X190340883Y-71444474D01*
X190345565Y-71450817D01*
X190419289Y-71550711D01*
X190525525Y-71629116D01*
X190650151Y-71672725D01*
X190664947Y-71674112D01*
X190679743Y-71675500D01*
X190679744Y-71675500D01*
X191060257Y-71675500D01*
X191070120Y-71674575D01*
X191089849Y-71672725D01*
X191214475Y-71629116D01*
X191320711Y-71550711D01*
X191399116Y-71444475D01*
X191399117Y-71444472D01*
X191402931Y-71437256D01*
X191405310Y-71438513D01*
X191438522Y-71394899D01*
X191500591Y-71375500D01*
X192358722Y-71375500D01*
X192422791Y-71396317D01*
X192462387Y-71450817D01*
X192462387Y-71518183D01*
X192422791Y-71572683D01*
X192386933Y-71589786D01*
X192335763Y-71603496D01*
X192238739Y-71659513D01*
X191488737Y-72409515D01*
X191488736Y-72409514D01*
X191409514Y-72488736D01*
X191353496Y-72585763D01*
X191324500Y-72693982D01*
X191324500Y-72790500D01*
X191303683Y-72854569D01*
X191249183Y-72894165D01*
X191215501Y-72899500D01*
X191080142Y-72899500D01*
X191080120Y-72899502D01*
X191055014Y-72902413D01*
X191055003Y-72902416D01*
X191044022Y-72907265D01*
X190977004Y-72914098D01*
X190955980Y-72907266D01*
X190944991Y-72902415D01*
X190919865Y-72899500D01*
X190919864Y-72899500D01*
X190580141Y-72899500D01*
X190580120Y-72899502D01*
X190555014Y-72902413D01*
X190555003Y-72902416D01*
X190544022Y-72907265D01*
X190477004Y-72914098D01*
X190455980Y-72907266D01*
X190444991Y-72902415D01*
X190419865Y-72899500D01*
X190419864Y-72899500D01*
X190080141Y-72899500D01*
X190080120Y-72899502D01*
X190055014Y-72902413D01*
X190055003Y-72902416D01*
X190044022Y-72907265D01*
X189977004Y-72914098D01*
X189955980Y-72907266D01*
X189944991Y-72902415D01*
X189919865Y-72899500D01*
X189919864Y-72899500D01*
X189580141Y-72899500D01*
X189580120Y-72899502D01*
X189555014Y-72902413D01*
X189555003Y-72902416D01*
X189544022Y-72907265D01*
X189477004Y-72914098D01*
X189455980Y-72907266D01*
X189444991Y-72902415D01*
X189419865Y-72899500D01*
X189419864Y-72899500D01*
X189080141Y-72899500D01*
X189080120Y-72899502D01*
X189055014Y-72902413D01*
X189055003Y-72902416D01*
X189044022Y-72907265D01*
X188977004Y-72914098D01*
X188955980Y-72907266D01*
X188944991Y-72902415D01*
X188919865Y-72899500D01*
X188919864Y-72899500D01*
X188580141Y-72899500D01*
X188580120Y-72899502D01*
X188555014Y-72902413D01*
X188555003Y-72902416D01*
X188544022Y-72907265D01*
X188477004Y-72914098D01*
X188455980Y-72907266D01*
X188444991Y-72902415D01*
X188419865Y-72899500D01*
X188419864Y-72899500D01*
X188080141Y-72899500D01*
X188080120Y-72899502D01*
X188055014Y-72902413D01*
X188055003Y-72902416D01*
X188044022Y-72907265D01*
X187977004Y-72914098D01*
X187955980Y-72907266D01*
X187944991Y-72902415D01*
X187919865Y-72899500D01*
X187919864Y-72899500D01*
X187580141Y-72899500D01*
X187580120Y-72899502D01*
X187555014Y-72902413D01*
X187555003Y-72902416D01*
X187544022Y-72907265D01*
X187477004Y-72914098D01*
X187455980Y-72907266D01*
X187444991Y-72902415D01*
X187419865Y-72899500D01*
X187284500Y-72899500D01*
X187220431Y-72878683D01*
X187180835Y-72824183D01*
X187175500Y-72790500D01*
X187175500Y-68955740D01*
X187196317Y-68891671D01*
X187250817Y-68852075D01*
X187318183Y-68852075D01*
X187328266Y-68856565D01*
X187328381Y-68856290D01*
X187462814Y-68911973D01*
X187462821Y-68911975D01*
X187599997Y-68930035D01*
X187600000Y-68930035D01*
X187600003Y-68930035D01*
X187737178Y-68911975D01*
X187737180Y-68911974D01*
X187737183Y-68911974D01*
X187865018Y-68859024D01*
X187974791Y-68774791D01*
X188059024Y-68665018D01*
X188111974Y-68537183D01*
X188120054Y-68475817D01*
X188130035Y-68400002D01*
X188130035Y-68399997D01*
X188111975Y-68262821D01*
X188111973Y-68262814D01*
X188059023Y-68134981D01*
X187974795Y-68025214D01*
X187974794Y-68025213D01*
X187974791Y-68025209D01*
X187974786Y-68025205D01*
X187974785Y-68025204D01*
X187865018Y-67940976D01*
X187865014Y-67940974D01*
X187737185Y-67888026D01*
X187737178Y-67888024D01*
X187600003Y-67869965D01*
X187599997Y-67869965D01*
X187462821Y-67888024D01*
X187462814Y-67888026D01*
X187328382Y-67943710D01*
X187327319Y-67941145D01*
X187273075Y-67952659D01*
X187211541Y-67925240D01*
X187177875Y-67866890D01*
X187175500Y-67844259D01*
X187175500Y-67371398D01*
X187196317Y-67307329D01*
X187207425Y-67294323D01*
X187395442Y-67106306D01*
X187586461Y-66915286D01*
X187646483Y-66884705D01*
X187713019Y-66895243D01*
G37*
%TD.AperFunction*%
%TA.AperFunction,Conductor*%
G36*
X188963404Y-63896310D02*
G01*
X188964663Y-63897224D01*
X189069206Y-63974381D01*
X189193121Y-64017741D01*
X189222543Y-64020500D01*
X189348245Y-64020499D01*
X189412314Y-64041316D01*
X189425320Y-64052424D01*
X189508383Y-64135486D01*
X189508386Y-64135489D01*
X189611113Y-64194799D01*
X189630522Y-64199999D01*
X189630523Y-64200000D01*
X189630524Y-64200000D01*
X189707952Y-64220747D01*
X189725691Y-64225500D01*
X189725693Y-64225500D01*
X190127459Y-64225500D01*
X190191528Y-64246317D01*
X190231124Y-64300817D01*
X190231124Y-64368183D01*
X190228859Y-64374488D01*
X190205373Y-64434041D01*
X190205372Y-64434047D01*
X190195001Y-64520407D01*
X190195000Y-64520428D01*
X190195000Y-64899999D01*
X190195001Y-64900000D01*
X191544999Y-64900000D01*
X191545000Y-64899999D01*
X191545000Y-64584881D01*
X191565817Y-64520812D01*
X191620317Y-64481216D01*
X191687683Y-64481216D01*
X191695688Y-64484168D01*
X191757433Y-64509744D01*
X191762817Y-64511974D01*
X191762821Y-64511975D01*
X191899997Y-64530035D01*
X191900000Y-64530035D01*
X191900003Y-64530035D01*
X192037178Y-64511975D01*
X192037180Y-64511974D01*
X192037183Y-64511974D01*
X192165018Y-64459024D01*
X192274791Y-64374791D01*
X192280979Y-64366727D01*
X192336497Y-64328571D01*
X192403839Y-64330334D01*
X192453929Y-64366727D01*
X192524752Y-64459025D01*
X192531796Y-64468204D01*
X192531799Y-64468206D01*
X192531801Y-64468208D01*
X192547364Y-64480150D01*
X192641569Y-64552437D01*
X192678237Y-64567625D01*
X192769401Y-64605386D01*
X192769408Y-64605388D01*
X192906584Y-64623448D01*
X192906587Y-64623448D01*
X192906590Y-64623448D01*
X193043765Y-64605388D01*
X193043767Y-64605387D01*
X193043770Y-64605387D01*
X193171605Y-64552437D01*
X193281378Y-64468204D01*
X193281384Y-64468195D01*
X193285174Y-64464407D01*
X193345196Y-64433820D01*
X193411732Y-64444354D01*
X193448717Y-64475106D01*
X193451964Y-64479338D01*
X193474462Y-64542834D01*
X193474500Y-64545707D01*
X193474500Y-64978602D01*
X193453683Y-65042671D01*
X193442575Y-65055677D01*
X192655677Y-65842575D01*
X192595653Y-65873158D01*
X192578602Y-65874500D01*
X191654000Y-65874500D01*
X191589931Y-65853683D01*
X191550335Y-65799183D01*
X191545000Y-65765500D01*
X191545000Y-65400001D01*
X191544999Y-65400000D01*
X190195001Y-65400000D01*
X190182983Y-65412017D01*
X190174183Y-65439102D01*
X190119683Y-65478698D01*
X190100228Y-65483100D01*
X190062821Y-65488024D01*
X190062814Y-65488026D01*
X189934981Y-65540976D01*
X189825214Y-65625204D01*
X189825204Y-65625214D01*
X189740976Y-65734981D01*
X189688026Y-65862814D01*
X189688024Y-65862821D01*
X189679499Y-65927574D01*
X189650497Y-65988377D01*
X189591294Y-66020520D01*
X189524505Y-66011726D01*
X189516934Y-66007743D01*
X189509579Y-66003497D01*
X189401360Y-65974500D01*
X189002231Y-65974500D01*
X188938162Y-65953683D01*
X188898566Y-65899183D01*
X188898566Y-65831817D01*
X188899349Y-65829497D01*
X188899440Y-65829235D01*
X188902725Y-65819849D01*
X188905500Y-65790256D01*
X188905500Y-64509744D01*
X188902725Y-64480151D01*
X188859116Y-64355525D01*
X188826974Y-64311974D01*
X188801798Y-64277861D01*
X188780503Y-64213949D01*
X188780500Y-64213135D01*
X188780500Y-63992722D01*
X188801317Y-63928653D01*
X188824770Y-63905023D01*
X188835272Y-63897272D01*
X188899180Y-63875975D01*
X188963404Y-63896310D01*
G37*
%TD.AperFunction*%
%TA.AperFunction,Conductor*%
G36*
X198003886Y-50000277D02*
G01*
X198276859Y-50019801D01*
X198292237Y-50022011D01*
X198555845Y-50079356D01*
X198570764Y-50083736D01*
X198823532Y-50178014D01*
X198837676Y-50184474D01*
X199074440Y-50313757D01*
X199087523Y-50322165D01*
X199303476Y-50483826D01*
X199315230Y-50494010D01*
X199505989Y-50684769D01*
X199516173Y-50696523D01*
X199677834Y-50912476D01*
X199686242Y-50925559D01*
X199815525Y-51162323D01*
X199821986Y-51176469D01*
X199916262Y-51429233D01*
X199920643Y-51444155D01*
X199977986Y-51707754D01*
X199980199Y-51723148D01*
X199999722Y-51996113D01*
X200000000Y-52003889D01*
X200000000Y-77996110D01*
X199999722Y-78003886D01*
X199980199Y-78276851D01*
X199977986Y-78292245D01*
X199920643Y-78555844D01*
X199916262Y-78570766D01*
X199821986Y-78823530D01*
X199815525Y-78837676D01*
X199686242Y-79074440D01*
X199677834Y-79087523D01*
X199516173Y-79303476D01*
X199505989Y-79315230D01*
X199315230Y-79505989D01*
X199303476Y-79516173D01*
X199087523Y-79677834D01*
X199074440Y-79686242D01*
X198837676Y-79815525D01*
X198823530Y-79821986D01*
X198570766Y-79916262D01*
X198555844Y-79920643D01*
X198292245Y-79977986D01*
X198276851Y-79980199D01*
X198003887Y-79999722D01*
X197996111Y-80000000D01*
X182003889Y-80000000D01*
X181996113Y-79999722D01*
X181723148Y-79980199D01*
X181707754Y-79977986D01*
X181444155Y-79920643D01*
X181429233Y-79916262D01*
X181176469Y-79821986D01*
X181162323Y-79815525D01*
X180925559Y-79686242D01*
X180912476Y-79677834D01*
X180696523Y-79516173D01*
X180684769Y-79505989D01*
X180494010Y-79315230D01*
X180483826Y-79303476D01*
X180477309Y-79294771D01*
X180322165Y-79087523D01*
X180313757Y-79074440D01*
X180184474Y-78837676D01*
X180178013Y-78823530D01*
X180145805Y-78737178D01*
X180093579Y-78597153D01*
X180469965Y-78597153D01*
X180488024Y-78734329D01*
X180488026Y-78734336D01*
X180540974Y-78862165D01*
X180540976Y-78862169D01*
X180589300Y-78925146D01*
X180625209Y-78971942D01*
X180625213Y-78971945D01*
X180625214Y-78971946D01*
X180628914Y-78974785D01*
X180734982Y-79056175D01*
X180793475Y-79080403D01*
X180862814Y-79109124D01*
X180862821Y-79109126D01*
X180999997Y-79127186D01*
X181000000Y-79127186D01*
X181000003Y-79127186D01*
X181137178Y-79109126D01*
X181137180Y-79109125D01*
X181137183Y-79109125D01*
X181265018Y-79056175D01*
X181374791Y-78971942D01*
X181459024Y-78862169D01*
X181471734Y-78831483D01*
X184225001Y-78831483D01*
X184239834Y-78925146D01*
X184297359Y-79038045D01*
X184386954Y-79127640D01*
X184499854Y-79185165D01*
X184593518Y-79199999D01*
X184750000Y-79199999D01*
X184750000Y-77900001D01*
X184749999Y-77900000D01*
X184225002Y-77900000D01*
X184225001Y-77900001D01*
X184225001Y-78831483D01*
X181471734Y-78831483D01*
X181511974Y-78734334D01*
X181529661Y-78599997D01*
X181530035Y-78597153D01*
X181530035Y-78597148D01*
X181511975Y-78459972D01*
X181511973Y-78459965D01*
X181459023Y-78332132D01*
X181374795Y-78222365D01*
X181374794Y-78222364D01*
X181374791Y-78222360D01*
X181374786Y-78222356D01*
X181374785Y-78222355D01*
X181265018Y-78138127D01*
X181265014Y-78138125D01*
X181137185Y-78085177D01*
X181137178Y-78085175D01*
X181000003Y-78067116D01*
X180999997Y-78067116D01*
X180862821Y-78085175D01*
X180862814Y-78085177D01*
X180734981Y-78138127D01*
X180625214Y-78222355D01*
X180625204Y-78222365D01*
X180540976Y-78332132D01*
X180488026Y-78459965D01*
X180488024Y-78459972D01*
X180469965Y-78597148D01*
X180469965Y-78597153D01*
X180093579Y-78597153D01*
X180083736Y-78570764D01*
X180079356Y-78555844D01*
X180059120Y-78462821D01*
X180022011Y-78292237D01*
X180019801Y-78276859D01*
X180000278Y-78003886D01*
X180000000Y-77996110D01*
X180000000Y-77399999D01*
X184225000Y-77399999D01*
X184225001Y-77400000D01*
X184749999Y-77400000D01*
X184750000Y-77399999D01*
X184750000Y-76100001D01*
X184749999Y-76100000D01*
X184593522Y-76100000D01*
X184593516Y-76100001D01*
X184499853Y-76114834D01*
X184386954Y-76172359D01*
X184297359Y-76261954D01*
X184239834Y-76374853D01*
X184239834Y-76374854D01*
X184225000Y-76468517D01*
X184225000Y-77399999D01*
X180000000Y-77399999D01*
X180000000Y-76200002D01*
X180369965Y-76200002D01*
X180388024Y-76337178D01*
X180388026Y-76337185D01*
X180436885Y-76455141D01*
X180440976Y-76465018D01*
X180525209Y-76574791D01*
X180634982Y-76659024D01*
X180698899Y-76685499D01*
X180762814Y-76711973D01*
X180762821Y-76711975D01*
X180899997Y-76730035D01*
X180900000Y-76730035D01*
X180900003Y-76730035D01*
X181037178Y-76711975D01*
X181037180Y-76711974D01*
X181037183Y-76711974D01*
X181165018Y-76659024D01*
X181274791Y-76574791D01*
X181359024Y-76465018D01*
X181411974Y-76337183D01*
X181421879Y-76261954D01*
X181430035Y-76200002D01*
X181430035Y-76199997D01*
X181411975Y-76062821D01*
X181411973Y-76062814D01*
X181379541Y-75984515D01*
X181359024Y-75934983D01*
X181359023Y-75934982D01*
X181359023Y-75934981D01*
X181274795Y-75825214D01*
X181274794Y-75825213D01*
X181274791Y-75825209D01*
X181274786Y-75825205D01*
X181274785Y-75825204D01*
X181165018Y-75740976D01*
X181165014Y-75740974D01*
X181037185Y-75688026D01*
X181037178Y-75688024D01*
X180900003Y-75669965D01*
X180899997Y-75669965D01*
X180762821Y-75688024D01*
X180762814Y-75688026D01*
X180634981Y-75740976D01*
X180525214Y-75825204D01*
X180525204Y-75825214D01*
X180440976Y-75934981D01*
X180388026Y-76062814D01*
X180388024Y-76062821D01*
X180369965Y-76199997D01*
X180369965Y-76200002D01*
X180000000Y-76200002D01*
X180000000Y-74800002D01*
X183269965Y-74800002D01*
X183288024Y-74937178D01*
X183288026Y-74937185D01*
X183340974Y-75065014D01*
X183340976Y-75065018D01*
X183423052Y-75171981D01*
X183425209Y-75174791D01*
X183534982Y-75259024D01*
X183587903Y-75280944D01*
X183662814Y-75311973D01*
X183662821Y-75311975D01*
X183799997Y-75330035D01*
X183800000Y-75330035D01*
X183800003Y-75330035D01*
X183937178Y-75311975D01*
X183937180Y-75311974D01*
X183937183Y-75311974D01*
X184065018Y-75259024D01*
X184149148Y-75194467D01*
X184212645Y-75171981D01*
X184277237Y-75191113D01*
X184318247Y-75244558D01*
X184324500Y-75280944D01*
X184324500Y-75544858D01*
X184324502Y-75544879D01*
X184327414Y-75569988D01*
X184327414Y-75569990D01*
X184327415Y-75569991D01*
X184372794Y-75672765D01*
X184452235Y-75752206D01*
X184555009Y-75797585D01*
X184580135Y-75800500D01*
X185271939Y-75800499D01*
X185336007Y-75821316D01*
X185375604Y-75875816D01*
X185380006Y-75923727D01*
X185369276Y-76005228D01*
X185340275Y-76066031D01*
X185281072Y-76098175D01*
X185261209Y-76100000D01*
X185250001Y-76100000D01*
X185250000Y-76100001D01*
X185250000Y-79199998D01*
X185250001Y-79199999D01*
X185406478Y-79199999D01*
X185406483Y-79199998D01*
X185500146Y-79185165D01*
X185613048Y-79127638D01*
X185619987Y-79122598D01*
X185622029Y-79125409D01*
X185668286Y-79101841D01*
X185685328Y-79100499D01*
X185919864Y-79100499D01*
X185928088Y-79099545D01*
X185944987Y-79097586D01*
X185944988Y-79097585D01*
X185944991Y-79097585D01*
X185955971Y-79092736D01*
X186022986Y-79085899D01*
X186044024Y-79092735D01*
X186055009Y-79097585D01*
X186080135Y-79100500D01*
X186419864Y-79100499D01*
X186428088Y-79099545D01*
X186444987Y-79097586D01*
X186444988Y-79097585D01*
X186444991Y-79097585D01*
X186455971Y-79092736D01*
X186522986Y-79085899D01*
X186544024Y-79092735D01*
X186555009Y-79097585D01*
X186580135Y-79100500D01*
X186617856Y-79100499D01*
X186681923Y-79121315D01*
X186721521Y-79175814D01*
X186725924Y-79195271D01*
X186738024Y-79287177D01*
X186738026Y-79287185D01*
X186790974Y-79415014D01*
X186790976Y-79415018D01*
X186860781Y-79505989D01*
X186875209Y-79524791D01*
X186875213Y-79524794D01*
X186875214Y-79524795D01*
X186895663Y-79540486D01*
X186984982Y-79609024D01*
X187048899Y-79635499D01*
X187112814Y-79661973D01*
X187112821Y-79661975D01*
X187249997Y-79680035D01*
X187250000Y-79680035D01*
X187250003Y-79680035D01*
X187387178Y-79661975D01*
X187387180Y-79661974D01*
X187387183Y-79661974D01*
X187515018Y-79609024D01*
X187624791Y-79524791D01*
X187709024Y-79415018D01*
X187761974Y-79287183D01*
X187761975Y-79287177D01*
X187774075Y-79195272D01*
X187803076Y-79134468D01*
X187862278Y-79102324D01*
X187882142Y-79100499D01*
X187919858Y-79100499D01*
X187919864Y-79100499D01*
X187928088Y-79099545D01*
X187944987Y-79097586D01*
X187944988Y-79097585D01*
X187944991Y-79097585D01*
X187955971Y-79092736D01*
X188022986Y-79085899D01*
X188044024Y-79092735D01*
X188055009Y-79097585D01*
X188080135Y-79100500D01*
X188419864Y-79100499D01*
X188428088Y-79099545D01*
X188444987Y-79097586D01*
X188444988Y-79097585D01*
X188444991Y-79097585D01*
X188455971Y-79092736D01*
X188522986Y-79085899D01*
X188544024Y-79092735D01*
X188555009Y-79097585D01*
X188580135Y-79100500D01*
X188919864Y-79100499D01*
X188928088Y-79099545D01*
X188944987Y-79097586D01*
X188944988Y-79097585D01*
X188944991Y-79097585D01*
X188955971Y-79092736D01*
X189022986Y-79085899D01*
X189044024Y-79092735D01*
X189055009Y-79097585D01*
X189080135Y-79100500D01*
X189419864Y-79100499D01*
X189428088Y-79099545D01*
X189444987Y-79097586D01*
X189444988Y-79097585D01*
X189444991Y-79097585D01*
X189455971Y-79092736D01*
X189522986Y-79085899D01*
X189544024Y-79092735D01*
X189555009Y-79097585D01*
X189580135Y-79100500D01*
X189919864Y-79100499D01*
X189928088Y-79099545D01*
X189944987Y-79097586D01*
X189944988Y-79097585D01*
X189944991Y-79097585D01*
X189955971Y-79092736D01*
X190022986Y-79085899D01*
X190044024Y-79092735D01*
X190055009Y-79097585D01*
X190080135Y-79100500D01*
X190314663Y-79100499D01*
X190378731Y-79121316D01*
X190381481Y-79123664D01*
X190386951Y-79127639D01*
X190499854Y-79185165D01*
X190593519Y-79199999D01*
X190625000Y-79199999D01*
X190625000Y-79000754D01*
X190634285Y-78956731D01*
X190650288Y-78920488D01*
X190695206Y-78870290D01*
X190761056Y-78856079D01*
X190822682Y-78883288D01*
X190849711Y-78920488D01*
X190865712Y-78956725D01*
X190875000Y-79000754D01*
X190875000Y-79199998D01*
X190875001Y-79199999D01*
X190896083Y-79199999D01*
X190960152Y-79220816D01*
X190999748Y-79275316D01*
X191004150Y-79294771D01*
X191013024Y-79362178D01*
X191013026Y-79362185D01*
X191065974Y-79490014D01*
X191065976Y-79490018D01*
X191131028Y-79574795D01*
X191150209Y-79599791D01*
X191150213Y-79599794D01*
X191150214Y-79599795D01*
X191162243Y-79609025D01*
X191259982Y-79684024D01*
X191265337Y-79686242D01*
X191387814Y-79736973D01*
X191387821Y-79736975D01*
X191524997Y-79755035D01*
X191525000Y-79755035D01*
X191525003Y-79755035D01*
X191662178Y-79736975D01*
X191662180Y-79736974D01*
X191662183Y-79736974D01*
X191790018Y-79684024D01*
X191899791Y-79599791D01*
X191984024Y-79490018D01*
X192023703Y-79394219D01*
X192051558Y-79357679D01*
X192050429Y-79356565D01*
X192055445Y-79351481D01*
X192055450Y-79351478D01*
X192067053Y-79336147D01*
X192076880Y-79324866D01*
X192090485Y-79311263D01*
X192101859Y-79291560D01*
X192109344Y-79280281D01*
X192123068Y-79262152D01*
X192123071Y-79262146D01*
X192130312Y-79244334D01*
X192136883Y-79230896D01*
X192146503Y-79214237D01*
X192152392Y-79192256D01*
X192156698Y-79179435D01*
X192161169Y-79168438D01*
X192204587Y-79116932D01*
X192262140Y-79100499D01*
X192419858Y-79100499D01*
X192419864Y-79100499D01*
X192428088Y-79099545D01*
X192444987Y-79097586D01*
X192444988Y-79097585D01*
X192444991Y-79097585D01*
X192455971Y-79092736D01*
X192522986Y-79085899D01*
X192544024Y-79092735D01*
X192555009Y-79097585D01*
X192580135Y-79100500D01*
X192661274Y-79100499D01*
X192725342Y-79121315D01*
X192764939Y-79175815D01*
X192769341Y-79195271D01*
X192788024Y-79337177D01*
X192788026Y-79337185D01*
X192840974Y-79465014D01*
X192840976Y-79465018D01*
X192898884Y-79540485D01*
X192925209Y-79574791D01*
X193034982Y-79659024D01*
X193095341Y-79684025D01*
X193162814Y-79711973D01*
X193162821Y-79711975D01*
X193299997Y-79730035D01*
X193300000Y-79730035D01*
X193300003Y-79730035D01*
X193437178Y-79711975D01*
X193437180Y-79711974D01*
X193437183Y-79711974D01*
X193565018Y-79659024D01*
X193674791Y-79574791D01*
X193759024Y-79465018D01*
X193778386Y-79418272D01*
X193822133Y-79367049D01*
X193887637Y-79351321D01*
X193949876Y-79377099D01*
X193956149Y-79382897D01*
X194113737Y-79540485D01*
X194210763Y-79596503D01*
X194318982Y-79625500D01*
X195556018Y-79625500D01*
X195664237Y-79596503D01*
X195761263Y-79540485D01*
X196156424Y-79145322D01*
X196216446Y-79114741D01*
X196219205Y-79114340D01*
X196237183Y-79111974D01*
X196365018Y-79059024D01*
X196474791Y-78974791D01*
X196559024Y-78865018D01*
X196611974Y-78737183D01*
X196630035Y-78600000D01*
X196630035Y-78599997D01*
X196611975Y-78462821D01*
X196611973Y-78462814D01*
X196559023Y-78334981D01*
X196474795Y-78225214D01*
X196474794Y-78225213D01*
X196474791Y-78225209D01*
X196474786Y-78225205D01*
X196474785Y-78225204D01*
X196365018Y-78140976D01*
X196365014Y-78140974D01*
X196237185Y-78088026D01*
X196237178Y-78088024D01*
X196100003Y-78069965D01*
X196099997Y-78069965D01*
X195962821Y-78088024D01*
X195962814Y-78088026D01*
X195828382Y-78143710D01*
X195827318Y-78141142D01*
X195773089Y-78152661D01*
X195711552Y-78125252D01*
X195677878Y-78066907D01*
X195675499Y-78044260D01*
X195675499Y-76455141D01*
X195675498Y-76455135D01*
X195672585Y-76430009D01*
X195627206Y-76327235D01*
X195547765Y-76247794D01*
X195540661Y-76240690D01*
X195510078Y-76180666D01*
X195511981Y-76144389D01*
X195511042Y-76144266D01*
X195530035Y-76000002D01*
X195530035Y-75999997D01*
X195524043Y-75954489D01*
X195536318Y-75888251D01*
X195582625Y-75843140D01*
X195613046Y-75827639D01*
X195702640Y-75738045D01*
X195760165Y-75625146D01*
X195760165Y-75625145D01*
X195774999Y-75531482D01*
X195775000Y-75531480D01*
X195775000Y-74600001D01*
X195774999Y-74600000D01*
X194859000Y-74600000D01*
X194794931Y-74579183D01*
X194755335Y-74524683D01*
X194751363Y-74499606D01*
X197937900Y-74499606D01*
X197955959Y-74636782D01*
X197955961Y-74636789D01*
X198008909Y-74764618D01*
X198008911Y-74764622D01*
X198036055Y-74799997D01*
X198093144Y-74874395D01*
X198202917Y-74958628D01*
X198266834Y-74985103D01*
X198330749Y-75011577D01*
X198330756Y-75011579D01*
X198467932Y-75029639D01*
X198467935Y-75029639D01*
X198467938Y-75029639D01*
X198605113Y-75011579D01*
X198605115Y-75011578D01*
X198605118Y-75011578D01*
X198732953Y-74958628D01*
X198842726Y-74874395D01*
X198926959Y-74764622D01*
X198979909Y-74636787D01*
X198984753Y-74600000D01*
X198997970Y-74499606D01*
X198997970Y-74499601D01*
X198979910Y-74362425D01*
X198979908Y-74362418D01*
X198926958Y-74234585D01*
X198842730Y-74124818D01*
X198842729Y-74124817D01*
X198842726Y-74124813D01*
X198842721Y-74124809D01*
X198842720Y-74124808D01*
X198732953Y-74040580D01*
X198732949Y-74040578D01*
X198605120Y-73987630D01*
X198605113Y-73987628D01*
X198467938Y-73969569D01*
X198467932Y-73969569D01*
X198330756Y-73987628D01*
X198330749Y-73987630D01*
X198202916Y-74040580D01*
X198093149Y-74124808D01*
X198093139Y-74124818D01*
X198008911Y-74234585D01*
X197955961Y-74362418D01*
X197955959Y-74362425D01*
X197937900Y-74499601D01*
X197937900Y-74499606D01*
X194751363Y-74499606D01*
X194750000Y-74491000D01*
X194750000Y-74099999D01*
X195250000Y-74099999D01*
X195250001Y-74100000D01*
X195774998Y-74100000D01*
X195774999Y-74099999D01*
X195774999Y-73168522D01*
X195774998Y-73168516D01*
X195760165Y-73074853D01*
X195702640Y-72961954D01*
X195613045Y-72872359D01*
X195500145Y-72814834D01*
X195406482Y-72800000D01*
X195250001Y-72800000D01*
X195250000Y-72800001D01*
X195250000Y-74099999D01*
X194750000Y-74099999D01*
X194750000Y-72887772D01*
X194758298Y-72846058D01*
X194761973Y-72837185D01*
X194761975Y-72837178D01*
X194780035Y-72700002D01*
X194780035Y-72699997D01*
X194761975Y-72562821D01*
X194761973Y-72562814D01*
X194709023Y-72434981D01*
X194624795Y-72325214D01*
X194624794Y-72325213D01*
X194624791Y-72325209D01*
X194624786Y-72325205D01*
X194624784Y-72325203D01*
X194623765Y-72324421D01*
X194623244Y-72323663D01*
X194619739Y-72320158D01*
X194620388Y-72319508D01*
X194585613Y-72268900D01*
X194587382Y-72201557D01*
X194613050Y-72160878D01*
X196590485Y-70183445D01*
X196646503Y-70086419D01*
X196675500Y-69978200D01*
X196675500Y-69866164D01*
X196675500Y-68509500D01*
X196696317Y-68445431D01*
X196750817Y-68405835D01*
X196784500Y-68400500D01*
X197404267Y-68400500D01*
X197411874Y-68399786D01*
X197434699Y-68397646D01*
X197562882Y-68352793D01*
X197631439Y-68302195D01*
X197695348Y-68280899D01*
X197759571Y-68301236D01*
X197762486Y-68303395D01*
X197834982Y-68359024D01*
X197836252Y-68359550D01*
X197962814Y-68411973D01*
X197962821Y-68411975D01*
X198099997Y-68430035D01*
X198100000Y-68430035D01*
X198100003Y-68430035D01*
X198237178Y-68411975D01*
X198237180Y-68411974D01*
X198237183Y-68411974D01*
X198365018Y-68359024D01*
X198474791Y-68274791D01*
X198559024Y-68165018D01*
X198611974Y-68037183D01*
X198612302Y-68034696D01*
X198630035Y-67900002D01*
X198630035Y-67899997D01*
X198611975Y-67762821D01*
X198611973Y-67762814D01*
X198559023Y-67634981D01*
X198474795Y-67525214D01*
X198474794Y-67525213D01*
X198474791Y-67525209D01*
X198474786Y-67525205D01*
X198474785Y-67525204D01*
X198365018Y-67440976D01*
X198365014Y-67440974D01*
X198237185Y-67388026D01*
X198237178Y-67388024D01*
X198100003Y-67369965D01*
X198099997Y-67369965D01*
X197962821Y-67388024D01*
X197962811Y-67388027D01*
X197852994Y-67433514D01*
X197785836Y-67438799D01*
X197728398Y-67403600D01*
X197723582Y-67397537D01*
X197672154Y-67327854D01*
X197672146Y-67327846D01*
X197562887Y-67247210D01*
X197562882Y-67247207D01*
X197434700Y-67202354D01*
X197434696Y-67202353D01*
X197404267Y-67199500D01*
X197404266Y-67199500D01*
X196784500Y-67199500D01*
X196720431Y-67178683D01*
X196680835Y-67124183D01*
X196675500Y-67090500D01*
X196675500Y-66271962D01*
X196696317Y-66207893D01*
X196750817Y-66168297D01*
X196818183Y-66168297D01*
X196872683Y-66207893D01*
X196883792Y-66231204D01*
X196885292Y-66230583D01*
X196902431Y-66271962D01*
X196940976Y-66365018D01*
X197025209Y-66474791D01*
X197134982Y-66559024D01*
X197198899Y-66585499D01*
X197262814Y-66611973D01*
X197262821Y-66611975D01*
X197399997Y-66630035D01*
X197400000Y-66630035D01*
X197400003Y-66630035D01*
X197537178Y-66611975D01*
X197537180Y-66611974D01*
X197537183Y-66611974D01*
X197665018Y-66559024D01*
X197774791Y-66474791D01*
X197859024Y-66365018D01*
X197911974Y-66237183D01*
X197912762Y-66231204D01*
X197930035Y-66100002D01*
X197930035Y-66099997D01*
X197911975Y-65962821D01*
X197911973Y-65962814D01*
X197859023Y-65834981D01*
X197774795Y-65725214D01*
X197774794Y-65725213D01*
X197774791Y-65725209D01*
X197774786Y-65725205D01*
X197774785Y-65725204D01*
X197665018Y-65640976D01*
X197665014Y-65640974D01*
X197537185Y-65588026D01*
X197537178Y-65588024D01*
X197400003Y-65569965D01*
X197399997Y-65569965D01*
X197262821Y-65588024D01*
X197262814Y-65588026D01*
X197134981Y-65640976D01*
X197025214Y-65725204D01*
X197025204Y-65725214D01*
X196940976Y-65834981D01*
X196885292Y-65969417D01*
X196882096Y-65968093D01*
X196853086Y-66012754D01*
X196790192Y-66036888D01*
X196725124Y-66019445D01*
X196682735Y-65967087D01*
X196675500Y-65928037D01*
X196675500Y-64636373D01*
X196696317Y-64572304D01*
X196750817Y-64532708D01*
X196818183Y-64532708D01*
X196870975Y-64570018D01*
X196911973Y-64623448D01*
X196957379Y-64682621D01*
X196957383Y-64682624D01*
X196957384Y-64682625D01*
X197072373Y-64770860D01*
X197206288Y-64826329D01*
X197206295Y-64826331D01*
X197349997Y-64845250D01*
X197350000Y-64845250D01*
X197350003Y-64845250D01*
X197493704Y-64826331D01*
X197493706Y-64826330D01*
X197493709Y-64826330D01*
X197627625Y-64770861D01*
X197742621Y-64682621D01*
X197830861Y-64567625D01*
X197886330Y-64433709D01*
X197894087Y-64374795D01*
X197905250Y-64290002D01*
X197905250Y-64289997D01*
X197886331Y-64146295D01*
X197886329Y-64146288D01*
X197847450Y-64052424D01*
X197830861Y-64012375D01*
X197830860Y-64012374D01*
X197830860Y-64012373D01*
X197742625Y-63897384D01*
X197742624Y-63897383D01*
X197742621Y-63897379D01*
X197742616Y-63897375D01*
X197742615Y-63897374D01*
X197627626Y-63809139D01*
X197487109Y-63750936D01*
X197488426Y-63747754D01*
X197443705Y-63718546D01*
X197419727Y-63655592D01*
X197437332Y-63590567D01*
X197451512Y-63573101D01*
X199240485Y-61784130D01*
X199296503Y-61687104D01*
X199325500Y-61578885D01*
X199325500Y-61466849D01*
X199325500Y-60486772D01*
X199346317Y-60422703D01*
X199348025Y-60420417D01*
X199380861Y-60377625D01*
X199436330Y-60243709D01*
X199445404Y-60174791D01*
X199455250Y-60100002D01*
X199455250Y-60099997D01*
X199436331Y-59956295D01*
X199436329Y-59956288D01*
X199380860Y-59822373D01*
X199292625Y-59707384D01*
X199292624Y-59707383D01*
X199292621Y-59707379D01*
X199292616Y-59707375D01*
X199292615Y-59707374D01*
X199177625Y-59619138D01*
X199170070Y-59616009D01*
X199118845Y-59572258D01*
X199103120Y-59506754D01*
X199128901Y-59444516D01*
X199145423Y-59428836D01*
X199192621Y-59392621D01*
X199280861Y-59277625D01*
X199336330Y-59143709D01*
X199355250Y-59000000D01*
X199355250Y-58999997D01*
X199336331Y-58856295D01*
X199336329Y-58856288D01*
X199280860Y-58722373D01*
X199192625Y-58607384D01*
X199192624Y-58607383D01*
X199192621Y-58607379D01*
X199192616Y-58607375D01*
X199192615Y-58607374D01*
X199077626Y-58519139D01*
X198943711Y-58463670D01*
X198943704Y-58463668D01*
X198800003Y-58444750D01*
X198799997Y-58444750D01*
X198656295Y-58463668D01*
X198656288Y-58463670D01*
X198522373Y-58519139D01*
X198407384Y-58607374D01*
X198407374Y-58607384D01*
X198319139Y-58722373D01*
X198263670Y-58856288D01*
X198263669Y-58856294D01*
X198256628Y-58909769D01*
X198227625Y-58970571D01*
X198225636Y-58972613D01*
X197938737Y-59259514D01*
X197859514Y-59338736D01*
X197803496Y-59435763D01*
X197774500Y-59543982D01*
X197774500Y-60828602D01*
X197753683Y-60892671D01*
X197742575Y-60905677D01*
X195238737Y-63409515D01*
X195238736Y-63409514D01*
X195159514Y-63488736D01*
X195103496Y-63585763D01*
X195074500Y-63693982D01*
X195074500Y-67090500D01*
X195053683Y-67154569D01*
X194999183Y-67194165D01*
X194965500Y-67199500D01*
X194295733Y-67199500D01*
X194265303Y-67202353D01*
X194265299Y-67202354D01*
X194137117Y-67247207D01*
X194137112Y-67247210D01*
X194027853Y-67327846D01*
X194027846Y-67327853D01*
X193947210Y-67437112D01*
X193947207Y-67437117D01*
X193902354Y-67565299D01*
X193902353Y-67565303D01*
X193899500Y-67595732D01*
X193899500Y-68004267D01*
X193902353Y-68034696D01*
X193902354Y-68034700D01*
X193947207Y-68162882D01*
X193947210Y-68162887D01*
X194027846Y-68272146D01*
X194027853Y-68272153D01*
X194137112Y-68352789D01*
X194137115Y-68352790D01*
X194137118Y-68352793D01*
X194265301Y-68397646D01*
X194285589Y-68399548D01*
X194295733Y-68400500D01*
X194295734Y-68400500D01*
X194965500Y-68400500D01*
X195029569Y-68421317D01*
X195069165Y-68475817D01*
X195074500Y-68509500D01*
X195074500Y-69778601D01*
X195053683Y-69842670D01*
X195042575Y-69855676D01*
X193988666Y-70909584D01*
X193928642Y-70940167D01*
X193862106Y-70929629D01*
X193814471Y-70881994D01*
X193803277Y-70820303D01*
X193805565Y-70800000D01*
X193785368Y-70620745D01*
X193785367Y-70620742D01*
X193785366Y-70620737D01*
X193725791Y-70450483D01*
X193725790Y-70450480D01*
X193717435Y-70437183D01*
X193629816Y-70297738D01*
X193502262Y-70170184D01*
X193349522Y-70074211D01*
X193349519Y-70074209D01*
X193349516Y-70074208D01*
X193179262Y-70014633D01*
X193179257Y-70014632D01*
X193000000Y-69994435D01*
X192820742Y-70014632D01*
X192820737Y-70014633D01*
X192676566Y-70065081D01*
X192609217Y-70066593D01*
X192554091Y-70028554D01*
X192516949Y-69980150D01*
X192474791Y-69925209D01*
X192474786Y-69925205D01*
X192474785Y-69925204D01*
X192365018Y-69840976D01*
X192365014Y-69840974D01*
X192237185Y-69788026D01*
X192237178Y-69788024D01*
X192100003Y-69769965D01*
X192100001Y-69769965D01*
X192100000Y-69769965D01*
X192095063Y-69770614D01*
X192064667Y-69774616D01*
X191998430Y-69762338D01*
X191952059Y-69713472D01*
X191943268Y-69646682D01*
X191949735Y-69624845D01*
X191986974Y-69534943D01*
X192004008Y-69405565D01*
X192005035Y-69397762D01*
X192005035Y-69397757D01*
X191992794Y-69304781D01*
X192005070Y-69238543D01*
X192053935Y-69192171D01*
X192100861Y-69181553D01*
X192404326Y-69181553D01*
X192468395Y-69202370D01*
X192481394Y-69213472D01*
X192497738Y-69229816D01*
X192650478Y-69325789D01*
X192650480Y-69325790D01*
X192650483Y-69325791D01*
X192820737Y-69385366D01*
X192820742Y-69385367D01*
X192820745Y-69385368D01*
X193000000Y-69405565D01*
X193179255Y-69385368D01*
X193179259Y-69385366D01*
X193179262Y-69385366D01*
X193318656Y-69336589D01*
X193349522Y-69325789D01*
X193502262Y-69229816D01*
X193629816Y-69102262D01*
X193725789Y-68949522D01*
X193759887Y-68852075D01*
X193785366Y-68779262D01*
X193785367Y-68779257D01*
X193785368Y-68779255D01*
X193805565Y-68600000D01*
X193785368Y-68420745D01*
X193785367Y-68420742D01*
X193785366Y-68420737D01*
X193725791Y-68250483D01*
X193725790Y-68250480D01*
X193717582Y-68237417D01*
X193629816Y-68097738D01*
X193502262Y-67970184D01*
X193390560Y-67899997D01*
X193349519Y-67874209D01*
X193349516Y-67874208D01*
X193179262Y-67814633D01*
X193179257Y-67814632D01*
X193000000Y-67794435D01*
X192820742Y-67814632D01*
X192820737Y-67814633D01*
X192650483Y-67874208D01*
X192650480Y-67874209D01*
X192497739Y-67970183D01*
X192370183Y-68097739D01*
X192274209Y-68250480D01*
X192274208Y-68250482D01*
X192271736Y-68257550D01*
X192230929Y-68311149D01*
X192168852Y-68330553D01*
X191476301Y-68330553D01*
X191412232Y-68309736D01*
X191372636Y-68255236D01*
X191372636Y-68187870D01*
X191389826Y-68155198D01*
X191414251Y-68123366D01*
X191459024Y-68065018D01*
X191511974Y-67937183D01*
X191513547Y-67925240D01*
X191530035Y-67800002D01*
X191530035Y-67799997D01*
X191511975Y-67662821D01*
X191511973Y-67662814D01*
X191459023Y-67534981D01*
X191453856Y-67528247D01*
X191431367Y-67464746D01*
X191450499Y-67400154D01*
X191469758Y-67379861D01*
X191469739Y-67379842D01*
X191470481Y-67379099D01*
X191473980Y-67375413D01*
X191474791Y-67374791D01*
X191559024Y-67265018D01*
X191611974Y-67137183D01*
X191613606Y-67124791D01*
X191630035Y-67000002D01*
X191630035Y-66999997D01*
X191616243Y-66895243D01*
X191611974Y-66862817D01*
X191611972Y-66862813D01*
X191611945Y-66862708D01*
X191611949Y-66862625D01*
X191611042Y-66855734D01*
X191612319Y-66855565D01*
X191615473Y-66795434D01*
X191657869Y-66743083D01*
X191717232Y-66725500D01*
X192856019Y-66725500D01*
X192858077Y-66725229D01*
X192859539Y-66725500D01*
X192863162Y-66725500D01*
X192863162Y-66726171D01*
X192924315Y-66737504D01*
X192970687Y-66786368D01*
X192980373Y-66819067D01*
X192989340Y-66887178D01*
X192989342Y-66887185D01*
X193042290Y-67015014D01*
X193042292Y-67015018D01*
X193117931Y-67113592D01*
X193126525Y-67124791D01*
X193236298Y-67209024D01*
X193300215Y-67235499D01*
X193364130Y-67261973D01*
X193364137Y-67261975D01*
X193501313Y-67280035D01*
X193501316Y-67280035D01*
X193501319Y-67280035D01*
X193638494Y-67261975D01*
X193638496Y-67261974D01*
X193638499Y-67261974D01*
X193766334Y-67209024D01*
X193876107Y-67124791D01*
X193960340Y-67015018D01*
X194013290Y-66887183D01*
X194013617Y-66884705D01*
X194031351Y-66750002D01*
X194031351Y-66749997D01*
X194013291Y-66612821D01*
X194013289Y-66612814D01*
X193960339Y-66484981D01*
X193876111Y-66375214D01*
X193876110Y-66375213D01*
X193876107Y-66375209D01*
X193876102Y-66375205D01*
X193876101Y-66375204D01*
X193766334Y-66290976D01*
X193766332Y-66290975D01*
X193665625Y-66249261D01*
X193614400Y-66205510D01*
X193598674Y-66140006D01*
X193624454Y-66077768D01*
X193630248Y-66071498D01*
X194240485Y-65461263D01*
X194296503Y-65364237D01*
X194325500Y-65256018D01*
X194325500Y-65143982D01*
X194325500Y-64545707D01*
X194346317Y-64481638D01*
X194348026Y-64479350D01*
X194356578Y-64468206D01*
X194359024Y-64465018D01*
X194411974Y-64337183D01*
X194418187Y-64289997D01*
X194430035Y-64200000D01*
X194430035Y-64199997D01*
X194411975Y-64062821D01*
X194411973Y-64062814D01*
X194359023Y-63934981D01*
X194274795Y-63825214D01*
X194274794Y-63825213D01*
X194274791Y-63825209D01*
X194274786Y-63825205D01*
X194274785Y-63825204D01*
X194165018Y-63740976D01*
X194165014Y-63740974D01*
X194037185Y-63688026D01*
X194037178Y-63688024D01*
X193900003Y-63669965D01*
X193899997Y-63669965D01*
X193762821Y-63688024D01*
X193762814Y-63688026D01*
X193634981Y-63740976D01*
X193525207Y-63825209D01*
X193521402Y-63829015D01*
X193461377Y-63859595D01*
X193394842Y-63849053D01*
X193357857Y-63818291D01*
X193350834Y-63809139D01*
X193281378Y-63718622D01*
X193281373Y-63718618D01*
X193281372Y-63718617D01*
X193171605Y-63634389D01*
X193171601Y-63634387D01*
X193043225Y-63581213D01*
X193007864Y-63557586D01*
X192514788Y-63064511D01*
X192412061Y-63005201D01*
X192387847Y-62998713D01*
X192297486Y-62974500D01*
X192297483Y-62974500D01*
X191043100Y-62974500D01*
X190979031Y-62953683D01*
X190956625Y-62931856D01*
X190875107Y-62825621D01*
X190874791Y-62825209D01*
X190874786Y-62825205D01*
X190874785Y-62825204D01*
X190765018Y-62740976D01*
X190765014Y-62740974D01*
X190637185Y-62688026D01*
X190637178Y-62688024D01*
X190500003Y-62669965D01*
X190499997Y-62669965D01*
X190362821Y-62688024D01*
X190362814Y-62688026D01*
X190234981Y-62740976D01*
X190125214Y-62825204D01*
X190125207Y-62825211D01*
X190046888Y-62927277D01*
X189991369Y-62965433D01*
X189924027Y-62963668D01*
X189872711Y-62925646D01*
X189856425Y-62903579D01*
X189856418Y-62903572D01*
X189750797Y-62825621D01*
X189750796Y-62825620D01*
X189750794Y-62825619D01*
X189626879Y-62782259D01*
X189626877Y-62782258D01*
X189597458Y-62779500D01*
X189222543Y-62779500D01*
X189222538Y-62779501D01*
X189193125Y-62782258D01*
X189193121Y-62782258D01*
X189193121Y-62782259D01*
X189193118Y-62782259D01*
X189193118Y-62782260D01*
X189069206Y-62825619D01*
X188964726Y-62902728D01*
X188900815Y-62924023D01*
X188836592Y-62903685D01*
X188835274Y-62902728D01*
X188730793Y-62825618D01*
X188606879Y-62782259D01*
X188606877Y-62782258D01*
X188577458Y-62779500D01*
X188202543Y-62779500D01*
X188202538Y-62779501D01*
X188173125Y-62782258D01*
X188173121Y-62782258D01*
X188173121Y-62782259D01*
X188173118Y-62782259D01*
X188173118Y-62782260D01*
X188049206Y-62825619D01*
X188049202Y-62825621D01*
X187943581Y-62903572D01*
X187943572Y-62903581D01*
X187865621Y-63009202D01*
X187865619Y-63009206D01*
X187822259Y-63133120D01*
X187822258Y-63133122D01*
X187819500Y-63162541D01*
X187819500Y-63423016D01*
X187798683Y-63487085D01*
X187744183Y-63526681D01*
X187676817Y-63526681D01*
X187624025Y-63489371D01*
X187574795Y-63425214D01*
X187574794Y-63425213D01*
X187574791Y-63425209D01*
X187574786Y-63425205D01*
X187574785Y-63425204D01*
X187465018Y-63340976D01*
X187465014Y-63340974D01*
X187337185Y-63288026D01*
X187337178Y-63288024D01*
X187200003Y-63269965D01*
X187199997Y-63269965D01*
X187062821Y-63288024D01*
X187062814Y-63288026D01*
X186934981Y-63340976D01*
X186825214Y-63425204D01*
X186825204Y-63425214D01*
X186740976Y-63534981D01*
X186688026Y-63662814D01*
X186688024Y-63662821D01*
X186669965Y-63799997D01*
X186669965Y-63800002D01*
X186688024Y-63937178D01*
X186688026Y-63937185D01*
X186740974Y-64065014D01*
X186740976Y-64065018D01*
X186803337Y-64146288D01*
X186825209Y-64174791D01*
X186825213Y-64174794D01*
X186825214Y-64174795D01*
X186867170Y-64206989D01*
X186934982Y-64259024D01*
X186998899Y-64285499D01*
X187062814Y-64311973D01*
X187062821Y-64311975D01*
X187199997Y-64330035D01*
X187200000Y-64330035D01*
X187200003Y-64330035D01*
X187337178Y-64311975D01*
X187337180Y-64311974D01*
X187337183Y-64311974D01*
X187465018Y-64259024D01*
X187574791Y-64174791D01*
X187659024Y-64065018D01*
X187669797Y-64039010D01*
X187713546Y-63987784D01*
X187779051Y-63972057D01*
X187841289Y-63997836D01*
X187876488Y-64055274D01*
X187879500Y-64080721D01*
X187879500Y-64213135D01*
X187858683Y-64277204D01*
X187858202Y-64277861D01*
X187800883Y-64355525D01*
X187757275Y-64480150D01*
X187757274Y-64480152D01*
X187754500Y-64509742D01*
X187754500Y-65790257D01*
X187757274Y-65819847D01*
X187757275Y-65819850D01*
X187760651Y-65829497D01*
X187762165Y-65896845D01*
X187723803Y-65952221D01*
X187660218Y-65974472D01*
X187657769Y-65974500D01*
X187443977Y-65974500D01*
X187335763Y-66003496D01*
X187238739Y-66059513D01*
X186488737Y-66809515D01*
X186488736Y-66809514D01*
X186409514Y-66888736D01*
X186353496Y-66985763D01*
X186324500Y-67093982D01*
X186324500Y-69883946D01*
X186303683Y-69948015D01*
X186249183Y-69987611D01*
X186181817Y-69987611D01*
X186127317Y-69948015D01*
X186109159Y-69907873D01*
X185728159Y-68214540D01*
X185725500Y-68190613D01*
X185725500Y-66281483D01*
X185696503Y-66173264D01*
X185640485Y-66076237D01*
X185561263Y-65997015D01*
X185561263Y-65997016D01*
X184574362Y-65010115D01*
X184543779Y-64950091D01*
X184543380Y-64947342D01*
X184536330Y-64893792D01*
X184480861Y-64759876D01*
X184480860Y-64759875D01*
X184480860Y-64759874D01*
X184392625Y-64644885D01*
X184392624Y-64644884D01*
X184392621Y-64644880D01*
X184392616Y-64644876D01*
X184392615Y-64644875D01*
X184277626Y-64556640D01*
X184143711Y-64501171D01*
X184143704Y-64501169D01*
X184000003Y-64482251D01*
X183999997Y-64482251D01*
X183856295Y-64501169D01*
X183856288Y-64501171D01*
X183722373Y-64556640D01*
X183607384Y-64644875D01*
X183607374Y-64644885D01*
X183519139Y-64759874D01*
X183463670Y-64893789D01*
X183463668Y-64893796D01*
X183444750Y-65037498D01*
X183444750Y-65037503D01*
X183463668Y-65181205D01*
X183463670Y-65181212D01*
X183519139Y-65315127D01*
X183556823Y-65364237D01*
X183607379Y-65430122D01*
X183607383Y-65430125D01*
X183607384Y-65430126D01*
X183722373Y-65518361D01*
X183856288Y-65573830D01*
X183856291Y-65573831D01*
X183909767Y-65580871D01*
X183970569Y-65609871D01*
X183972614Y-65611863D01*
X184842575Y-66481824D01*
X184873158Y-66541848D01*
X184874500Y-66558899D01*
X184874500Y-68239166D01*
X184874411Y-68243577D01*
X184872611Y-68288024D01*
X184872581Y-68288753D01*
X184873226Y-68295863D01*
X184872999Y-68295883D01*
X184873341Y-68298964D01*
X184873567Y-68298935D01*
X184874498Y-68306013D01*
X184886196Y-68349669D01*
X184887251Y-68353953D01*
X185022654Y-68955740D01*
X185295161Y-70166883D01*
X185321841Y-70285458D01*
X185324500Y-70309385D01*
X185324500Y-72790500D01*
X185303683Y-72854569D01*
X185249183Y-72894165D01*
X185215500Y-72899500D01*
X184580141Y-72899500D01*
X184580120Y-72899502D01*
X184555011Y-72902414D01*
X184452234Y-72947794D01*
X184372794Y-73027234D01*
X184327415Y-73130009D01*
X184324500Y-73155134D01*
X184324500Y-74319054D01*
X184303683Y-74383123D01*
X184249183Y-74422719D01*
X184181817Y-74422719D01*
X184149145Y-74405530D01*
X184119944Y-74383123D01*
X184065018Y-74340976D01*
X184065014Y-74340974D01*
X183937185Y-74288026D01*
X183937178Y-74288024D01*
X183800003Y-74269965D01*
X183799997Y-74269965D01*
X183662821Y-74288024D01*
X183662814Y-74288026D01*
X183534981Y-74340976D01*
X183425214Y-74425204D01*
X183425204Y-74425214D01*
X183340976Y-74534981D01*
X183288026Y-74662814D01*
X183288024Y-74662821D01*
X183269965Y-74799997D01*
X183269965Y-74800002D01*
X180000000Y-74800002D01*
X180000000Y-72800000D01*
X180369965Y-72800000D01*
X180388024Y-72937178D01*
X180388026Y-72937185D01*
X180440974Y-73065014D01*
X180440976Y-73065018D01*
X180520398Y-73168522D01*
X180525209Y-73174791D01*
X180634982Y-73259024D01*
X180698899Y-73285499D01*
X180762814Y-73311973D01*
X180762821Y-73311975D01*
X180899997Y-73330035D01*
X180900000Y-73330035D01*
X180900003Y-73330035D01*
X181037178Y-73311975D01*
X181037180Y-73311974D01*
X181037183Y-73311974D01*
X181165018Y-73259024D01*
X181274791Y-73174791D01*
X181359024Y-73065018D01*
X181411974Y-72937183D01*
X181415014Y-72914098D01*
X181430035Y-72800000D01*
X181430035Y-72799997D01*
X181411975Y-72662821D01*
X181411973Y-72662814D01*
X181359023Y-72534981D01*
X181274795Y-72425214D01*
X181274794Y-72425213D01*
X181274791Y-72425209D01*
X181274786Y-72425205D01*
X181274785Y-72425204D01*
X181165018Y-72340976D01*
X181165014Y-72340974D01*
X181037185Y-72288026D01*
X181037178Y-72288024D01*
X180900003Y-72269965D01*
X180899997Y-72269965D01*
X180762821Y-72288024D01*
X180762814Y-72288026D01*
X180634981Y-72340976D01*
X180525214Y-72425204D01*
X180525204Y-72425214D01*
X180440976Y-72534981D01*
X180388026Y-72662814D01*
X180388024Y-72662821D01*
X180369965Y-72799997D01*
X180369965Y-72800000D01*
X180000000Y-72800000D01*
X180000000Y-70400002D01*
X182644750Y-70400002D01*
X182663668Y-70543704D01*
X182663670Y-70543711D01*
X182719139Y-70677626D01*
X182807374Y-70792615D01*
X182807379Y-70792621D01*
X182807383Y-70792624D01*
X182807384Y-70792625D01*
X182922373Y-70880860D01*
X182922374Y-70880860D01*
X182922375Y-70880861D01*
X182977847Y-70903838D01*
X183056288Y-70936329D01*
X183056295Y-70936331D01*
X183199997Y-70955250D01*
X183200000Y-70955250D01*
X183200003Y-70955250D01*
X183343704Y-70936331D01*
X183343706Y-70936330D01*
X183343709Y-70936330D01*
X183477625Y-70880861D01*
X183592621Y-70792621D01*
X183680861Y-70677625D01*
X183699297Y-70633116D01*
X183743047Y-70581891D01*
X183808551Y-70566164D01*
X183870789Y-70591943D01*
X183900703Y-70633116D01*
X183919139Y-70677626D01*
X184007374Y-70792615D01*
X184007379Y-70792621D01*
X184007383Y-70792624D01*
X184007384Y-70792625D01*
X184122373Y-70880860D01*
X184122374Y-70880860D01*
X184122375Y-70880861D01*
X184177847Y-70903838D01*
X184256288Y-70936329D01*
X184256295Y-70936331D01*
X184399997Y-70955250D01*
X184400000Y-70955250D01*
X184400003Y-70955250D01*
X184543704Y-70936331D01*
X184543706Y-70936330D01*
X184543709Y-70936330D01*
X184677625Y-70880861D01*
X184792621Y-70792621D01*
X184880861Y-70677625D01*
X184936330Y-70543709D01*
X184948605Y-70450478D01*
X184955250Y-70400002D01*
X184955250Y-70399997D01*
X184936331Y-70256295D01*
X184936329Y-70256288D01*
X184880860Y-70122373D01*
X184792625Y-70007384D01*
X184792624Y-70007383D01*
X184792621Y-70007379D01*
X184792616Y-70007375D01*
X184792615Y-70007374D01*
X184677626Y-69919139D01*
X184543711Y-69863670D01*
X184543704Y-69863668D01*
X184400003Y-69844750D01*
X184399997Y-69844750D01*
X184256295Y-69863668D01*
X184256288Y-69863670D01*
X184122373Y-69919139D01*
X184007384Y-70007374D01*
X184007374Y-70007384D01*
X183919139Y-70122373D01*
X183900703Y-70166883D01*
X183856952Y-70218109D01*
X183791448Y-70233835D01*
X183729210Y-70208055D01*
X183699297Y-70166883D01*
X183680860Y-70122373D01*
X183592625Y-70007384D01*
X183592624Y-70007383D01*
X183592621Y-70007379D01*
X183592616Y-70007375D01*
X183592615Y-70007374D01*
X183477626Y-69919139D01*
X183343711Y-69863670D01*
X183343704Y-69863668D01*
X183200003Y-69844750D01*
X183199997Y-69844750D01*
X183056295Y-69863668D01*
X183056288Y-69863670D01*
X182922373Y-69919139D01*
X182807384Y-70007374D01*
X182807374Y-70007384D01*
X182719139Y-70122373D01*
X182663670Y-70256288D01*
X182663668Y-70256295D01*
X182644750Y-70399997D01*
X182644750Y-70400002D01*
X180000000Y-70400002D01*
X180000000Y-68800002D01*
X183119965Y-68800002D01*
X183138024Y-68937178D01*
X183138026Y-68937185D01*
X183145712Y-68955740D01*
X183190976Y-69065018D01*
X183275209Y-69174791D01*
X183384982Y-69259024D01*
X183448899Y-69285499D01*
X183512814Y-69311973D01*
X183512821Y-69311975D01*
X183649997Y-69330035D01*
X183650000Y-69330035D01*
X183650003Y-69330035D01*
X183787178Y-69311975D01*
X183787180Y-69311974D01*
X183787183Y-69311974D01*
X183915018Y-69259024D01*
X184024791Y-69174791D01*
X184109024Y-69065018D01*
X184161974Y-68937183D01*
X184172265Y-68859023D01*
X184180035Y-68800002D01*
X184180035Y-68799997D01*
X184161975Y-68662821D01*
X184161973Y-68662814D01*
X184109023Y-68534981D01*
X184024795Y-68425214D01*
X184024794Y-68425213D01*
X184024791Y-68425209D01*
X184024786Y-68425205D01*
X184024785Y-68425204D01*
X183915018Y-68340976D01*
X183915014Y-68340974D01*
X183787185Y-68288026D01*
X183787178Y-68288024D01*
X183650003Y-68269965D01*
X183649997Y-68269965D01*
X183512821Y-68288024D01*
X183512814Y-68288026D01*
X183384981Y-68340976D01*
X183275214Y-68425204D01*
X183275204Y-68425214D01*
X183190976Y-68534981D01*
X183138026Y-68662814D01*
X183138024Y-68662821D01*
X183119965Y-68799997D01*
X183119965Y-68800002D01*
X180000000Y-68800002D01*
X180000000Y-61400002D01*
X188469965Y-61400002D01*
X188488024Y-61537178D01*
X188488026Y-61537185D01*
X188505299Y-61578885D01*
X188540976Y-61665018D01*
X188625209Y-61774791D01*
X188625213Y-61774794D01*
X188625214Y-61774795D01*
X188670484Y-61809532D01*
X188734982Y-61859024D01*
X188798899Y-61885499D01*
X188862814Y-61911973D01*
X188862821Y-61911975D01*
X188999997Y-61930035D01*
X189000000Y-61930035D01*
X189000003Y-61930035D01*
X189137178Y-61911975D01*
X189137180Y-61911974D01*
X189137183Y-61911974D01*
X189265018Y-61859024D01*
X189374791Y-61774791D01*
X189459024Y-61665018D01*
X189511974Y-61537183D01*
X189530035Y-61400000D01*
X189511974Y-61262817D01*
X189459024Y-61134983D01*
X189459023Y-61134982D01*
X189459023Y-61134981D01*
X189374795Y-61025214D01*
X189374794Y-61025213D01*
X189374791Y-61025209D01*
X189374786Y-61025205D01*
X189374785Y-61025204D01*
X189265018Y-60940976D01*
X189265014Y-60940974D01*
X189137185Y-60888026D01*
X189137178Y-60888024D01*
X189000003Y-60869965D01*
X188999997Y-60869965D01*
X188862821Y-60888024D01*
X188862814Y-60888026D01*
X188734981Y-60940976D01*
X188625214Y-61025204D01*
X188625204Y-61025214D01*
X188540976Y-61134981D01*
X188488026Y-61262814D01*
X188488024Y-61262821D01*
X188469965Y-61399997D01*
X188469965Y-61400002D01*
X180000000Y-61400002D01*
X180000000Y-60300002D01*
X181444750Y-60300002D01*
X181463668Y-60443704D01*
X181463670Y-60443711D01*
X181519139Y-60577626D01*
X181607374Y-60692615D01*
X181607379Y-60692621D01*
X181607383Y-60692624D01*
X181607384Y-60692625D01*
X181722373Y-60780860D01*
X181856288Y-60836329D01*
X181856295Y-60836331D01*
X181999997Y-60855250D01*
X182000000Y-60855250D01*
X182000003Y-60855250D01*
X182143704Y-60836331D01*
X182143706Y-60836330D01*
X182143709Y-60836330D01*
X182277625Y-60780861D01*
X182392621Y-60692621D01*
X182480861Y-60577625D01*
X182536330Y-60443709D01*
X182545031Y-60377625D01*
X182555250Y-60300002D01*
X182555250Y-60299997D01*
X182536331Y-60156295D01*
X182536329Y-60156288D01*
X182480860Y-60022373D01*
X182392625Y-59907384D01*
X182392624Y-59907383D01*
X182392621Y-59907379D01*
X182392616Y-59907375D01*
X182392615Y-59907374D01*
X182277626Y-59819139D01*
X182143711Y-59763670D01*
X182143704Y-59763668D01*
X182000003Y-59744750D01*
X181999997Y-59744750D01*
X181856295Y-59763668D01*
X181856288Y-59763670D01*
X181722373Y-59819139D01*
X181607384Y-59907374D01*
X181607374Y-59907384D01*
X181519139Y-60022373D01*
X181463670Y-60156288D01*
X181463668Y-60156295D01*
X181444750Y-60299997D01*
X181444750Y-60300002D01*
X180000000Y-60300002D01*
X180000000Y-56200002D01*
X181444750Y-56200002D01*
X181463668Y-56343704D01*
X181463670Y-56343711D01*
X181519139Y-56477626D01*
X181607374Y-56592615D01*
X181607379Y-56592621D01*
X181607383Y-56592624D01*
X181607384Y-56592625D01*
X181722373Y-56680860D01*
X181856288Y-56736329D01*
X181856295Y-56736331D01*
X181999997Y-56755250D01*
X182000000Y-56755250D01*
X182000003Y-56755250D01*
X182143704Y-56736331D01*
X182143706Y-56736330D01*
X182143709Y-56736330D01*
X182277625Y-56680861D01*
X182392621Y-56592621D01*
X182480861Y-56477625D01*
X182536330Y-56343709D01*
X182555250Y-56200000D01*
X182536330Y-56056291D01*
X182480861Y-55922375D01*
X182480860Y-55922374D01*
X182480860Y-55922373D01*
X182392625Y-55807384D01*
X182392624Y-55807383D01*
X182392621Y-55807379D01*
X182392616Y-55807375D01*
X182392615Y-55807374D01*
X182277626Y-55719139D01*
X182143711Y-55663670D01*
X182143704Y-55663668D01*
X182000003Y-55644750D01*
X181999997Y-55644750D01*
X181856295Y-55663668D01*
X181856288Y-55663670D01*
X181722373Y-55719139D01*
X181607384Y-55807374D01*
X181607374Y-55807384D01*
X181519139Y-55922373D01*
X181463670Y-56056288D01*
X181463668Y-56056295D01*
X181444750Y-56199997D01*
X181444750Y-56200002D01*
X180000000Y-56200002D01*
X180000000Y-54200002D01*
X188769965Y-54200002D01*
X188788024Y-54337178D01*
X188788026Y-54337185D01*
X188840974Y-54465014D01*
X188840976Y-54465018D01*
X188921505Y-54569965D01*
X188925209Y-54574791D01*
X189034982Y-54659024D01*
X189098899Y-54685499D01*
X189162814Y-54711973D01*
X189162817Y-54711974D01*
X189179726Y-54714200D01*
X189240528Y-54743199D01*
X189272674Y-54802400D01*
X189274500Y-54822267D01*
X189274500Y-59454293D01*
X189253683Y-59518362D01*
X189251977Y-59520646D01*
X189240976Y-59534983D01*
X189188026Y-59662814D01*
X189188024Y-59662821D01*
X189169965Y-59799997D01*
X189169965Y-59800002D01*
X189188024Y-59937178D01*
X189188026Y-59937185D01*
X189240974Y-60065014D01*
X189240976Y-60065018D01*
X189267820Y-60100002D01*
X189325209Y-60174791D01*
X189434982Y-60259024D01*
X189498899Y-60285499D01*
X189562814Y-60311973D01*
X189562821Y-60311975D01*
X189699997Y-60330035D01*
X189700000Y-60330035D01*
X189700003Y-60330035D01*
X189837178Y-60311975D01*
X189837180Y-60311974D01*
X189837183Y-60311974D01*
X189965018Y-60259024D01*
X190074791Y-60174791D01*
X190159024Y-60065018D01*
X190211974Y-59937183D01*
X190215898Y-59907384D01*
X190230035Y-59800002D01*
X190230035Y-59799997D01*
X190211975Y-59662821D01*
X190211973Y-59662814D01*
X190193882Y-59619138D01*
X190159024Y-59534983D01*
X190148022Y-59520645D01*
X190125537Y-59457144D01*
X190125500Y-59454293D01*
X190125500Y-57250002D01*
X197769965Y-57250002D01*
X197788024Y-57387178D01*
X197788026Y-57387185D01*
X197840974Y-57515014D01*
X197840976Y-57515018D01*
X197925209Y-57624791D01*
X198034982Y-57709024D01*
X198098899Y-57735499D01*
X198162814Y-57761973D01*
X198162821Y-57761975D01*
X198299997Y-57780035D01*
X198300000Y-57780035D01*
X198300003Y-57780035D01*
X198437178Y-57761975D01*
X198437180Y-57761974D01*
X198437183Y-57761974D01*
X198565018Y-57709024D01*
X198674791Y-57624791D01*
X198759024Y-57515018D01*
X198811974Y-57387183D01*
X198830035Y-57250000D01*
X198811974Y-57112817D01*
X198759024Y-56984983D01*
X198759023Y-56984982D01*
X198759023Y-56984981D01*
X198674795Y-56875214D01*
X198674794Y-56875213D01*
X198674791Y-56875209D01*
X198674786Y-56875205D01*
X198674785Y-56875204D01*
X198565018Y-56790976D01*
X198565014Y-56790974D01*
X198437185Y-56738026D01*
X198437178Y-56738024D01*
X198300003Y-56719965D01*
X198299997Y-56719965D01*
X198162821Y-56738024D01*
X198162814Y-56738026D01*
X198034981Y-56790976D01*
X197925214Y-56875204D01*
X197925204Y-56875214D01*
X197840976Y-56984981D01*
X197788026Y-57112814D01*
X197788024Y-57112821D01*
X197769965Y-57249997D01*
X197769965Y-57250002D01*
X190125500Y-57250002D01*
X190125500Y-55400002D01*
X190669965Y-55400002D01*
X190688024Y-55537178D01*
X190688026Y-55537185D01*
X190740974Y-55665014D01*
X190740976Y-55665018D01*
X190825209Y-55774791D01*
X190934982Y-55859024D01*
X190998899Y-55885499D01*
X191062814Y-55911973D01*
X191062821Y-55911975D01*
X191199997Y-55930035D01*
X191200000Y-55930035D01*
X191200003Y-55930035D01*
X191337178Y-55911975D01*
X191337180Y-55911974D01*
X191337183Y-55911974D01*
X191465018Y-55859024D01*
X191574791Y-55774791D01*
X191659024Y-55665018D01*
X191711974Y-55537183D01*
X191727611Y-55418405D01*
X191756612Y-55357606D01*
X191815814Y-55325461D01*
X191877390Y-55331933D01*
X191886583Y-55335741D01*
X191886585Y-55335742D01*
X191886589Y-55335743D01*
X192023765Y-55353803D01*
X192023768Y-55353803D01*
X192023771Y-55353803D01*
X192160946Y-55335743D01*
X192160948Y-55335742D01*
X192160951Y-55335742D01*
X192288786Y-55282792D01*
X192398559Y-55198559D01*
X192474186Y-55100002D01*
X194669965Y-55100002D01*
X194688024Y-55237178D01*
X194688026Y-55237185D01*
X194740974Y-55365014D01*
X194740976Y-55365018D01*
X194767820Y-55400002D01*
X194825209Y-55474791D01*
X194934982Y-55559024D01*
X194998899Y-55585499D01*
X195062814Y-55611973D01*
X195062821Y-55611975D01*
X195199997Y-55630035D01*
X195200000Y-55630035D01*
X195200003Y-55630035D01*
X195337178Y-55611975D01*
X195337180Y-55611974D01*
X195337183Y-55611974D01*
X195465018Y-55559024D01*
X195574791Y-55474791D01*
X195659024Y-55365018D01*
X195711974Y-55237183D01*
X195725430Y-55134983D01*
X195730035Y-55100002D01*
X195730035Y-55099997D01*
X195711975Y-54962821D01*
X195711973Y-54962814D01*
X195659023Y-54834981D01*
X195574795Y-54725214D01*
X195574794Y-54725213D01*
X195574791Y-54725209D01*
X195574786Y-54725205D01*
X195574785Y-54725204D01*
X195465018Y-54640976D01*
X195465014Y-54640974D01*
X195337185Y-54588026D01*
X195337178Y-54588024D01*
X195200003Y-54569965D01*
X195199997Y-54569965D01*
X195062821Y-54588024D01*
X195062814Y-54588026D01*
X194934981Y-54640976D01*
X194825214Y-54725204D01*
X194825204Y-54725214D01*
X194740976Y-54834981D01*
X194688026Y-54962814D01*
X194688024Y-54962821D01*
X194669965Y-55099997D01*
X194669965Y-55100002D01*
X192474186Y-55100002D01*
X192482792Y-55088786D01*
X192535742Y-54960951D01*
X192545344Y-54888024D01*
X192553803Y-54823770D01*
X192553803Y-54823765D01*
X192535743Y-54686589D01*
X192535741Y-54686582D01*
X192494917Y-54588024D01*
X192482792Y-54558751D01*
X192482791Y-54558750D01*
X192482791Y-54558749D01*
X192398563Y-54448982D01*
X192398562Y-54448981D01*
X192398559Y-54448977D01*
X192398554Y-54448973D01*
X192398553Y-54448972D01*
X192288786Y-54364744D01*
X192288782Y-54364742D01*
X192160953Y-54311794D01*
X192160946Y-54311792D01*
X192023771Y-54293733D01*
X192023765Y-54293733D01*
X191886589Y-54311792D01*
X191886582Y-54311794D01*
X191758749Y-54364744D01*
X191648982Y-54448972D01*
X191648972Y-54448982D01*
X191564744Y-54558749D01*
X191511794Y-54686582D01*
X191511792Y-54686589D01*
X191496156Y-54805359D01*
X191467154Y-54866162D01*
X191407952Y-54898306D01*
X191346377Y-54891834D01*
X191337185Y-54888026D01*
X191337178Y-54888024D01*
X191200003Y-54869965D01*
X191199997Y-54869965D01*
X191062821Y-54888024D01*
X191062814Y-54888026D01*
X190934981Y-54940976D01*
X190825214Y-55025204D01*
X190825204Y-55025214D01*
X190740976Y-55134981D01*
X190688026Y-55262814D01*
X190688024Y-55262821D01*
X190669965Y-55399997D01*
X190669965Y-55400002D01*
X190125500Y-55400002D01*
X190125500Y-54934755D01*
X190138529Y-54883078D01*
X190164426Y-54834983D01*
X190609394Y-54008613D01*
X190658096Y-53962074D01*
X190663653Y-53959589D01*
X190665018Y-53959024D01*
X190774791Y-53874791D01*
X190859024Y-53765018D01*
X190911974Y-53637183D01*
X190926358Y-53527934D01*
X190930035Y-53500002D01*
X190930035Y-53499997D01*
X190911975Y-53362821D01*
X190911973Y-53362814D01*
X190859023Y-53234981D01*
X190774795Y-53125214D01*
X190774794Y-53125213D01*
X190774791Y-53125209D01*
X190774786Y-53125205D01*
X190774785Y-53125204D01*
X190665018Y-53040976D01*
X190665014Y-53040974D01*
X190537185Y-52988026D01*
X190537178Y-52988024D01*
X190400003Y-52969965D01*
X190399997Y-52969965D01*
X190262821Y-52988024D01*
X190262814Y-52988026D01*
X190134981Y-53040976D01*
X190025214Y-53125204D01*
X190025204Y-53125214D01*
X189940976Y-53234981D01*
X189888026Y-53362814D01*
X189888024Y-53362821D01*
X189869965Y-53499997D01*
X189869965Y-53500003D01*
X189874558Y-53534889D01*
X189862462Y-53600794D01*
X189782802Y-53748733D01*
X189734098Y-53795274D01*
X189667340Y-53804299D01*
X189620476Y-53783531D01*
X189565018Y-53740976D01*
X189565014Y-53740974D01*
X189437185Y-53688026D01*
X189437178Y-53688024D01*
X189300003Y-53669965D01*
X189299997Y-53669965D01*
X189162821Y-53688024D01*
X189162814Y-53688026D01*
X189034981Y-53740976D01*
X188925214Y-53825204D01*
X188925204Y-53825214D01*
X188840976Y-53934981D01*
X188788026Y-54062814D01*
X188788024Y-54062821D01*
X188769965Y-54199997D01*
X188769965Y-54200002D01*
X180000000Y-54200002D01*
X180000000Y-53200002D01*
X187194355Y-53200002D01*
X187214858Y-53368868D01*
X187214859Y-53368871D01*
X187275180Y-53527927D01*
X187275184Y-53527934D01*
X187371815Y-53667927D01*
X187371816Y-53667928D01*
X187371817Y-53667929D01*
X187499148Y-53780734D01*
X187649775Y-53859790D01*
X187814944Y-53900500D01*
X187814945Y-53900500D01*
X187985055Y-53900500D01*
X187985056Y-53900500D01*
X188150225Y-53859790D01*
X188300852Y-53780734D01*
X188428183Y-53667929D01*
X188524818Y-53527930D01*
X188585140Y-53368872D01*
X188585140Y-53368870D01*
X188585141Y-53368868D01*
X188605645Y-53200002D01*
X188605645Y-53199997D01*
X188585141Y-53031131D01*
X188585140Y-53031128D01*
X188524819Y-52872072D01*
X188524815Y-52872065D01*
X188428184Y-52732072D01*
X188428183Y-52732071D01*
X188300852Y-52619266D01*
X188300850Y-52619265D01*
X188300849Y-52619264D01*
X188150226Y-52540210D01*
X187985057Y-52499500D01*
X187985056Y-52499500D01*
X187814944Y-52499500D01*
X187814942Y-52499500D01*
X187649773Y-52540210D01*
X187499150Y-52619264D01*
X187499143Y-52619270D01*
X187371816Y-52732071D01*
X187371815Y-52732072D01*
X187275184Y-52872065D01*
X187275180Y-52872072D01*
X187214859Y-53031128D01*
X187214858Y-53031131D01*
X187194355Y-53199997D01*
X187194355Y-53200002D01*
X180000000Y-53200002D01*
X180000000Y-52003889D01*
X180000278Y-51996113D01*
X180019801Y-51723138D01*
X180022011Y-51707764D01*
X180079357Y-51444150D01*
X180083735Y-51429239D01*
X180178016Y-51176461D01*
X180184470Y-51162331D01*
X180313760Y-50925553D01*
X180322160Y-50912482D01*
X180483831Y-50696516D01*
X180494003Y-50684776D01*
X180684776Y-50494003D01*
X180696516Y-50483831D01*
X180912482Y-50322160D01*
X180925553Y-50313760D01*
X181162331Y-50184470D01*
X181176461Y-50178016D01*
X181429239Y-50083735D01*
X181444150Y-50079357D01*
X181707764Y-50022011D01*
X181723138Y-50019801D01*
X181996113Y-50000277D01*
X182003889Y-50000000D01*
X197996111Y-50000000D01*
X198003886Y-50000277D01*
G37*
%TD.AperFunction*%
%TD*%
M02*
