%TF.GenerationSoftware,KiCad,Pcbnew,8.0.0*%
%TF.CreationDate,2024-03-06T16:17:17+03:00*%
%TF.ProjectId,micro17,6d696372-6f31-4372-9e6b-696361645f70,rev?*%
%TF.SameCoordinates,Original*%
%TF.FileFunction,Copper,L4,Bot*%
%TF.FilePolarity,Positive*%
%FSLAX46Y46*%
G04 Gerber Fmt 4.6, Leading zero omitted, Abs format (unit mm)*
G04 Created by KiCad (PCBNEW 8.0.0) date 2024-03-06 16:17:17*
%MOMM*%
%LPD*%
G01*
G04 APERTURE LIST*
G04 Aperture macros list*
%AMRoundRect*
0 Rectangle with rounded corners*
0 $1 Rounding radius*
0 $2 $3 $4 $5 $6 $7 $8 $9 X,Y pos of 4 corners*
0 Add a 4 corners polygon primitive as box body*
4,1,4,$2,$3,$4,$5,$6,$7,$8,$9,$2,$3,0*
0 Add four circle primitives for the rounded corners*
1,1,$1+$1,$2,$3*
1,1,$1+$1,$4,$5*
1,1,$1+$1,$6,$7*
1,1,$1+$1,$8,$9*
0 Add four rect primitives between the rounded corners*
20,1,$1+$1,$2,$3,$4,$5,0*
20,1,$1+$1,$4,$5,$6,$7,0*
20,1,$1+$1,$6,$7,$8,$9,0*
20,1,$1+$1,$8,$9,$2,$3,0*%
G04 Aperture macros list end*
%TA.AperFunction,SMDPad,CuDef*%
%ADD10RoundRect,0.135000X0.185000X-0.135000X0.185000X0.135000X-0.185000X0.135000X-0.185000X-0.135000X0*%
%TD*%
%TA.AperFunction,SMDPad,CuDef*%
%ADD11RoundRect,0.150000X-0.350000X-0.150000X0.350000X-0.150000X0.350000X0.150000X-0.350000X0.150000X0*%
%TD*%
%TA.AperFunction,SMDPad,CuDef*%
%ADD12C,1.000000*%
%TD*%
%TA.AperFunction,SMDPad,CuDef*%
%ADD13RoundRect,0.137500X-0.137500X0.587500X-0.137500X-0.587500X0.137500X-0.587500X0.137500X0.587500X0*%
%TD*%
%TA.AperFunction,SMDPad,CuDef*%
%ADD14R,0.450000X1.380000*%
%TD*%
%TA.AperFunction,SMDPad,CuDef*%
%ADD15R,1.650000X1.300000*%
%TD*%
%TA.AperFunction,SMDPad,CuDef*%
%ADD16R,1.425000X1.550000*%
%TD*%
%TA.AperFunction,SMDPad,CuDef*%
%ADD17R,1.800000X1.900000*%
%TD*%
%TA.AperFunction,SMDPad,CuDef*%
%ADD18R,1.000000X1.900000*%
%TD*%
%TA.AperFunction,SMDPad,CuDef*%
%ADD19R,0.750000X2.300000*%
%TD*%
%TA.AperFunction,SMDPad,CuDef*%
%ADD20R,0.250000X2.300000*%
%TD*%
%TA.AperFunction,SMDPad,CuDef*%
%ADD21RoundRect,0.135000X0.135000X0.185000X-0.135000X0.185000X-0.135000X-0.185000X0.135000X-0.185000X0*%
%TD*%
%TA.AperFunction,ViaPad*%
%ADD22C,0.800000*%
%TD*%
%TA.AperFunction,ViaPad*%
%ADD23C,0.500000*%
%TD*%
%TA.AperFunction,ViaPad*%
%ADD24C,0.450000*%
%TD*%
%TA.AperFunction,Conductor*%
%ADD25C,0.300000*%
%TD*%
%TA.AperFunction,Conductor*%
%ADD26C,0.250000*%
%TD*%
%TA.AperFunction,Conductor*%
%ADD27C,0.200000*%
%TD*%
%TA.AperFunction,Conductor*%
%ADD28C,0.500000*%
%TD*%
%TA.AperFunction,Conductor*%
%ADD29C,0.400000*%
%TD*%
G04 APERTURE END LIST*
D10*
%TO.P,R30,1*%
%TO.N,USART3_RX*%
X198300000Y-63510000D03*
%TO.P,R30,2*%
%TO.N,Net-(R30-Pad2)*%
X198300000Y-62490000D03*
%TD*%
D11*
%TO.P,D1,1,K*%
%TO.N,MCU_TX*%
X194820000Y-67800000D03*
%TO.P,D1,2,A*%
%TO.N,MCU_RX*%
X196920000Y-67800000D03*
%TD*%
D12*
%TO.P,TP10,1,1*%
%TO.N,GND*%
X181750000Y-66250000D03*
%TD*%
%TO.P,TP4,1,1*%
%TO.N,Net-(TP4-Pad1)*%
X193000000Y-70500000D03*
%TD*%
%TO.P,TP13,1,1*%
%TO.N,MCU_RX*%
X196300000Y-65600000D03*
%TD*%
%TO.P,TP6,1,1*%
%TO.N,PTT_OUT*%
X193000000Y-65250000D03*
%TD*%
D13*
%TO.P,U3,1*%
%TO.N,Net-(R25-Pad2)*%
X188330000Y-65150000D03*
%TO.P,U3,2*%
%TO.N,GND*%
X190870000Y-65150000D03*
%TO.P,U3,3*%
%TO.N,Net-(TP4-Pad1)*%
X190870000Y-70650000D03*
%TO.P,U3,4*%
%TO.N,Net-(TP3-Pad1)*%
X188330000Y-70650000D03*
%TD*%
D12*
%TO.P,TP11,1,1*%
%TO.N,Net-(U1-VBAT)*%
X188400000Y-56100000D03*
%TD*%
D14*
%TO.P,J4,1,VBUS*%
%TO.N,+5V*%
X193200000Y-53960000D03*
%TO.P,J4,2,D-*%
%TO.N,USB_DN*%
X193850000Y-53960000D03*
%TO.P,J4,3,D+*%
%TO.N,USB_DP*%
X194500000Y-53960000D03*
%TO.P,J4,4,ID*%
%TO.N,unconnected-(J4-ID-Pad4)*%
X195150000Y-53960000D03*
%TO.P,J4,5,GND*%
%TO.N,GND*%
X195800000Y-53960000D03*
D15*
%TO.P,J4,6,Shield*%
X191125000Y-51300000D03*
D16*
X192012500Y-53875000D03*
D17*
X193350000Y-51300000D03*
D18*
X196050000Y-51300000D03*
D16*
X196987500Y-53875000D03*
D15*
X197875000Y-51300000D03*
%TD*%
D12*
%TO.P,TP5,1,1*%
%TO.N,+5VD*%
X184000000Y-66250000D03*
%TD*%
%TO.P,TP8,1,1*%
%TO.N,AUDIO_IN*%
X198900000Y-70500000D03*
%TD*%
%TO.P,TP9,1,1*%
%TO.N,AUDIO_OUT_FILT*%
X181250000Y-77250000D03*
%TD*%
%TO.P,TP7,1,1*%
%TO.N,PTT_IN*%
X186250000Y-65250000D03*
%TD*%
%TO.P,TP3,1,1*%
%TO.N,Net-(TP3-Pad1)*%
X193000000Y-68450000D03*
%TD*%
D19*
%TO.P,J2,1,Pin_1*%
%TO.N,unconnected-(J2-Pin_1-Pad1)*%
X186200000Y-73850000D03*
%TO.P,J2,2,Pin_2*%
%TO.N,unconnected-(J2-Pin_2-Pad2)*%
X186200000Y-77150000D03*
D20*
%TO.P,J2,3,Pin_3*%
%TO.N,GND*%
X186950000Y-73850000D03*
%TO.P,J2,4,Pin_4*%
X186950000Y-77150000D03*
%TO.P,J2,5,Pin_5*%
%TO.N,PTT_IN*%
X187450000Y-73850000D03*
%TO.P,J2,6,Pin_6*%
%TO.N,+5VD*%
X187450000Y-77150000D03*
%TO.P,J2,7,Pin_7*%
%TO.N,PTT_OUT*%
X187950000Y-73850000D03*
%TO.P,J2,8,Pin_8*%
%TO.N,unconnected-(J2-Pin_8-Pad8)*%
X187950000Y-77150000D03*
%TO.P,J2,9,Pin_9*%
%TO.N,unconnected-(J2-Pin_9-Pad9)*%
X188450000Y-73850000D03*
%TO.P,J2,10,Pin_10*%
%TO.N,unconnected-(J2-Pin_10-Pad10)*%
X188450000Y-77150000D03*
%TO.P,J2,11,Pin_11*%
%TO.N,unconnected-(J2-Pin_11-Pad11)*%
X188950000Y-73850000D03*
%TO.P,J2,12,Pin_12*%
%TO.N,unconnected-(J2-Pin_12-Pad12)*%
X188950000Y-77150000D03*
%TO.P,J2,13,Pin_13*%
%TO.N,AUDIO_IN*%
X189450000Y-73850000D03*
%TO.P,J2,14,Pin_14*%
%TO.N,AUDIO_OUT_MUTE*%
X189450000Y-77150000D03*
%TO.P,J2,15,Pin_15*%
%TO.N,unconnected-(J2-Pin_15-Pad15)*%
X189950000Y-73850000D03*
%TO.P,J2,16,Pin_16*%
%TO.N,unconnected-(J2-Pin_16-Pad16)*%
X189950000Y-77150000D03*
%TO.P,J2,17,Pin_17*%
%TO.N,unconnected-(J2-Pin_17-Pad17)*%
X190450000Y-73850000D03*
%TO.P,J2,18,Pin_18*%
%TO.N,unconnected-(J2-Pin_18-Pad18)*%
X190450000Y-77150000D03*
%TO.P,J2,19,Pin_19*%
%TO.N,unconnected-(J2-Pin_19-Pad19)*%
X190950000Y-73850000D03*
%TO.P,J2,20,Pin_20*%
%TO.N,BASEBAND_IN*%
X190950000Y-77150000D03*
%TO.P,J2,21,Pin_21*%
%TO.N,unconnected-(J2-Pin_21-Pad21)*%
X191450000Y-73850000D03*
%TO.P,J2,22,Pin_22*%
%TO.N,AUDIO_OUT_FILT*%
X191450000Y-77150000D03*
%TO.P,J2,23,Pin_23*%
%TO.N,unconnected-(J2-Pin_23-Pad23)*%
X191950000Y-73850000D03*
%TO.P,J2,24,Pin_24*%
%TO.N,unconnected-(J2-Pin_24-Pad24)*%
X191950000Y-77150000D03*
%TO.P,J2,25,Pin_25*%
%TO.N,BASEBAND_OUT_FILT*%
X192450000Y-73850000D03*
%TO.P,J2,26,Pin_26*%
%TO.N,unconnected-(J2-Pin_26-Pad26)*%
X192450000Y-77150000D03*
%TO.P,J2,27,Pin_27*%
%TO.N,MCU_TX*%
X192950000Y-73850000D03*
%TO.P,J2,28,Pin_28*%
%TO.N,unconnected-(J2-Pin_28-Pad28)*%
X192950000Y-77150000D03*
%TO.P,J2,29,Pin_29*%
%TO.N,MCU_RX*%
X193450000Y-73850000D03*
%TO.P,J2,30,Pin_30*%
%TO.N,unconnected-(J2-Pin_30-Pad30)*%
X193450000Y-77150000D03*
%TO.P,J2,31,Pin_31*%
%TO.N,unconnected-(J2-Pin_31-Pad31)*%
X193950000Y-73850000D03*
%TO.P,J2,32,Pin_32*%
%TO.N,unconnected-(J2-Pin_32-Pad32)*%
X193950000Y-77150000D03*
%TO.P,J2,33,Pin_33*%
%TO.N,GND*%
X194450000Y-73850000D03*
%TO.P,J2,34,Pin_34*%
%TO.N,unconnected-(J2-Pin_34-Pad34)*%
X194450000Y-77150000D03*
%TO.P,J2,35,Pin_35*%
%TO.N,unconnected-(J2-Pin_35-Pad35)*%
X194950000Y-73850000D03*
%TO.P,J2,36,Pin_36*%
%TO.N,unconnected-(J2-Pin_36-Pad36)*%
X194950000Y-77150000D03*
%TO.P,J2,37,Pin_37*%
%TO.N,unconnected-(J2-Pin_37-Pad37)*%
X195450000Y-73850000D03*
%TO.P,J2,38,Pin_38*%
%TO.N,unconnected-(J2-Pin_38-Pad38)*%
X195450000Y-77150000D03*
D19*
%TO.P,J2,39,Pin_39*%
%TO.N,unconnected-(J2-Pin_39-Pad39)*%
X196200000Y-73850000D03*
%TO.P,J2,40,Pin_40*%
%TO.N,GND*%
X196200000Y-77150000D03*
%TD*%
D21*
%TO.P,R25,1*%
%TO.N,BASEBAND_BYPASS*%
X189410000Y-63400000D03*
%TO.P,R25,2*%
%TO.N,Net-(R25-Pad2)*%
X188390000Y-63400000D03*
%TD*%
D22*
%TO.N,USART3_RX*%
X197331041Y-63068959D03*
%TO.N,Net-(R30-Pad2)*%
X199300000Y-62900000D03*
D23*
%TO.N,GND*%
X185000000Y-51000000D03*
X185000000Y-53000000D03*
D24*
X182400000Y-79720108D03*
D23*
X180600000Y-61000000D03*
D24*
X188500000Y-57700000D03*
D23*
X199400000Y-52072500D03*
X181000000Y-51000000D03*
D24*
X192000000Y-57500000D03*
X197300000Y-72000000D03*
D23*
X180600000Y-63000000D03*
D24*
X194000000Y-61500000D03*
D23*
X181000000Y-55000000D03*
D24*
X186500000Y-79300000D03*
D23*
X180750000Y-70000000D03*
D24*
X199700000Y-58800000D03*
X199750000Y-68000000D03*
X192000000Y-59500000D03*
D23*
X199100000Y-79100000D03*
D24*
X191000000Y-71900000D03*
D23*
X185500000Y-55000000D03*
D24*
X182800000Y-65200000D03*
X199500000Y-66300000D03*
X194000000Y-57300000D03*
D23*
X188600000Y-69400000D03*
X181000000Y-74400000D03*
X180600000Y-59000000D03*
D24*
X197800000Y-78400000D03*
D23*
X180700000Y-68500000D03*
D22*
X184900000Y-60700000D03*
D24*
X196200000Y-78800000D03*
X189750000Y-79750000D03*
X189100000Y-64500000D03*
X186100000Y-68400000D03*
X182960000Y-60300000D03*
X187250000Y-79750000D03*
X196000000Y-59500000D03*
X185600000Y-59500000D03*
X196000000Y-61500000D03*
D23*
X198280000Y-53600000D03*
D24*
X190300000Y-55300000D03*
X191507567Y-68206053D03*
D23*
X197800000Y-65900000D03*
D24*
X192000000Y-61500000D03*
D23*
X183960000Y-61000000D03*
D24*
X199500000Y-76250000D03*
X198800000Y-54600000D03*
D23*
X182400000Y-76000000D03*
X183000000Y-73000000D03*
D24*
X199500000Y-65300000D03*
D23*
X181000000Y-53000000D03*
X182400000Y-70400000D03*
X183000000Y-53000000D03*
D24*
X193250000Y-79500000D03*
D23*
X180600000Y-57000000D03*
X197100000Y-72900000D03*
D24*
X194800000Y-65900000D03*
D23*
X183000000Y-51000000D03*
X180600000Y-65000000D03*
X186500000Y-55000000D03*
D24*
X196250000Y-75750000D03*
%TO.N,+3V3*%
X191200000Y-55400000D03*
X198820000Y-56800000D03*
D23*
X182000000Y-56200000D03*
X197350000Y-64290000D03*
D24*
X183650000Y-68800000D03*
D22*
X188100000Y-53600000D03*
D24*
X183750000Y-74250000D03*
%TO.N,VDDA*%
X195200000Y-64200000D03*
X187400000Y-63800000D03*
X191475000Y-69397760D03*
%TO.N,+5V*%
X198100000Y-66850000D03*
X189067678Y-67967678D03*
X194300000Y-75550000D03*
D23*
X182000000Y-60300000D03*
D24*
%TO.N,Net-(U4B-+)*%
X191000000Y-67800000D03*
X188301409Y-66976409D03*
%TO.N,/MCU/~{RST}*%
X190660000Y-53600000D03*
X189700000Y-59800000D03*
%TO.N,Net-(C16-Pad2)*%
X190200000Y-66000000D03*
X187800000Y-68400000D03*
%TO.N,Net-(U5A-P0A)*%
X183740793Y-75177619D03*
X193501316Y-66750000D03*
%TO.N,Net-(U5B-P1A)*%
X180975000Y-72800000D03*
X198100000Y-67900000D03*
%TO.N,Net-(U5C-P2W)*%
X187500000Y-78725002D03*
X198750000Y-76000000D03*
%TO.N,I2C_SDA*%
X191974992Y-55147670D03*
D23*
X183200000Y-70400000D03*
D24*
%TO.N,PTT_OUT*%
X191900000Y-64000000D03*
%TO.N,AUDIO_OUT_MUTE*%
X189079841Y-75520159D03*
X193900000Y-64200000D03*
%TO.N,BASEBAND_IN_FILT*%
X189000000Y-61400000D03*
X191100000Y-67000000D03*
%TO.N,BASEBAND_OUT*%
X190500000Y-63200000D03*
X184600000Y-73800000D03*
%TO.N,I2C_SCL*%
X195200000Y-55100000D03*
D23*
X184400000Y-70400000D03*
D24*
%TO.N,AUDIO_OUT_FILT*%
X181000000Y-78597151D03*
X191800000Y-78800000D03*
%TO.N,BASEBAND_IN*%
X188700000Y-78800000D03*
%TO.N,BASEBAND_OUT_FILT*%
X191099724Y-75575719D03*
%TO.N,AUDIO_IN*%
X199200000Y-75100000D03*
X190101511Y-75575826D03*
%TO.N,PTT_IN*%
X186600000Y-56000000D03*
D23*
%TO.N,MCU_TX*%
X198500000Y-59900000D03*
%TO.N,MCU_RX*%
X199100000Y-59300000D03*
D24*
%TO.N,BASEBAND_BYPASS*%
X192906587Y-64093413D03*
D23*
%TO.N,+5VD*%
X184000000Y-65037501D03*
D24*
%TO.N,Net-(U1-VBAT)*%
X189150000Y-55350000D03*
%TO.N,USB_DP*%
X198600000Y-57800000D03*
%TO.N,USB_DN*%
X198700000Y-58500000D03*
%TD*%
D25*
%TO.N,Net-(U4B-+)*%
X188301409Y-66976409D02*
X191000000Y-67800000D01*
D26*
%TO.N,AUDIO_IN*%
X199000000Y-70600000D02*
X198900000Y-70500000D01*
X199000000Y-74900000D02*
X199000000Y-70600000D01*
X199200000Y-75100000D02*
X199000000Y-74900000D01*
D27*
%TO.N,USB_DN*%
X198525001Y-58325001D02*
X198700000Y-58500000D01*
X193950000Y-55650000D02*
X196625001Y-58325001D01*
X193850000Y-55095001D02*
X193950000Y-55195001D01*
X196625001Y-58325001D02*
X198525001Y-58325001D01*
X193850000Y-54060000D02*
X193850000Y-55095001D01*
X193950000Y-55195001D02*
X193950000Y-55650000D01*
%TO.N,USB_DP*%
X198525001Y-57874999D02*
X198600000Y-57800000D01*
X196874999Y-57874999D02*
X198525001Y-57874999D01*
X194500000Y-55095001D02*
X194400000Y-55195001D01*
X194400000Y-55195001D02*
X194400000Y-55400000D01*
X194400000Y-55400000D02*
X196874999Y-57874999D01*
X194500000Y-54060000D02*
X194500000Y-55095001D01*
D28*
%TO.N,Net-(R30-Pad2)*%
X198890000Y-62490000D02*
X199300000Y-62900000D01*
X198300000Y-62490000D02*
X198890000Y-62490000D01*
%TO.N,USART3_RX*%
X197772082Y-63510000D02*
X197331041Y-63068959D01*
X198300000Y-63510000D02*
X197772082Y-63510000D01*
D25*
%TO.N,MCU_RX*%
X196500000Y-62800000D02*
X196300000Y-63000000D01*
D26*
X199075000Y-60225000D02*
X199075000Y-59325000D01*
X196500000Y-62800000D02*
X199075000Y-60225000D01*
X199075000Y-59325000D02*
X199100000Y-59300000D01*
D25*
X196300000Y-63000000D02*
X196300000Y-65600000D01*
D26*
%TO.N,MCU_TX*%
X195400000Y-65200000D02*
X195400000Y-67800000D01*
X195800000Y-64800000D02*
X195400000Y-65200000D01*
X195800000Y-62600000D02*
X195800000Y-64800000D01*
X198500000Y-59900000D02*
X195800000Y-62600000D01*
D25*
%TO.N,GND*%
X192012500Y-53975000D02*
X191625000Y-53975000D01*
D26*
X194450000Y-72425000D02*
X194875000Y-72000000D01*
X186950000Y-73850000D02*
X186950000Y-72300000D01*
D25*
X191625000Y-53975000D02*
X190300000Y-55300000D01*
D26*
X194875000Y-72000000D02*
X197300000Y-72000000D01*
X186950000Y-78850000D02*
X186950000Y-77150000D01*
X194450000Y-73850000D02*
X194450000Y-72425000D01*
X186500000Y-79300000D02*
X186950000Y-78850000D01*
X186950000Y-72300000D02*
X186750000Y-72100000D01*
D25*
%TO.N,+5V*%
X182000000Y-57300000D02*
X182000000Y-60300000D01*
X192925000Y-52700000D02*
X186600000Y-52700000D01*
X186600000Y-52700000D02*
X182000000Y-57300000D01*
X193200000Y-52975000D02*
X192925000Y-52700000D01*
X193200000Y-54060000D02*
X193200000Y-52975000D01*
D26*
%TO.N,/MCU/~{RST}*%
X189700000Y-54577818D02*
X189700000Y-59800000D01*
X190660000Y-53617818D02*
X189700000Y-54577818D01*
X190660000Y-53600000D02*
X190660000Y-53617818D01*
%TO.N,PTT_OUT*%
X191900000Y-66200000D02*
X191900000Y-65250000D01*
X189371751Y-66426409D02*
X189495342Y-66550000D01*
X191900000Y-65250000D02*
X191900000Y-64000000D01*
X187950000Y-71877208D02*
X187100000Y-71027208D01*
X188073591Y-66426409D02*
X189371751Y-66426409D01*
X187950000Y-73850000D02*
X187950000Y-71877208D01*
X187100000Y-67400000D02*
X188073591Y-66426409D01*
X187100000Y-71027208D02*
X187100000Y-67400000D01*
X190427818Y-66550000D02*
X190577818Y-66400000D01*
X190577818Y-66400000D02*
X191700000Y-66400000D01*
X191700000Y-66400000D02*
X191900000Y-66200000D01*
X193000000Y-65250000D02*
X191900000Y-65250000D01*
X189495342Y-66550000D02*
X190427818Y-66550000D01*
%TO.N,AUDIO_OUT_MUTE*%
X189450000Y-75890318D02*
X189079841Y-75520159D01*
X189450000Y-77150000D02*
X189450000Y-75890318D01*
%TO.N,AUDIO_OUT_FILT*%
X181000000Y-77500000D02*
X181250000Y-77250000D01*
X181000000Y-78597151D02*
X181000000Y-77500000D01*
X191450000Y-78450000D02*
X191800000Y-78800000D01*
X191450000Y-77150000D02*
X191450000Y-78450000D01*
%TO.N,BASEBAND_IN*%
X190725000Y-78800000D02*
X188700000Y-78800000D01*
X190950000Y-77150000D02*
X190950000Y-78575000D01*
X190950000Y-78575000D02*
X190725000Y-78800000D01*
%TO.N,BASEBAND_OUT_FILT*%
X192450000Y-73850000D02*
X192450000Y-75275000D01*
X192450000Y-75275000D02*
X192149281Y-75575719D01*
X192149281Y-75575719D02*
X191099724Y-75575719D01*
%TO.N,AUDIO_IN*%
X189450000Y-75112500D02*
X189913326Y-75575826D01*
X189913326Y-75575826D02*
X190101511Y-75575826D01*
X189450000Y-73850000D02*
X189450000Y-75112500D01*
%TO.N,PTT_IN*%
X186650000Y-71213604D02*
X187450000Y-72013604D01*
X187450000Y-72013604D02*
X187450000Y-73850000D01*
X186600000Y-56000000D02*
X186650000Y-56050000D01*
X186650000Y-56050000D02*
X186650000Y-71213604D01*
%TO.N,MCU_TX*%
X195400000Y-70000000D02*
X192950000Y-72450000D01*
X195400000Y-67800000D02*
X194820000Y-67800000D01*
X192950000Y-72450000D02*
X192950000Y-73850000D01*
X195400000Y-67800000D02*
X195400000Y-70000000D01*
%TO.N,MCU_RX*%
X196300000Y-65600000D02*
X196200000Y-65700000D01*
X196200000Y-67800000D02*
X196920000Y-67800000D01*
X193450000Y-72586396D02*
X193450000Y-73850000D01*
X196200000Y-69836396D02*
X193450000Y-72586396D01*
X196200000Y-67800000D02*
X196200000Y-69836396D01*
X196200000Y-65700000D02*
X196200000Y-67800000D01*
D25*
%TO.N,Net-(R25-Pad2)*%
X188330000Y-65150000D02*
X188330000Y-63460000D01*
X188330000Y-63460000D02*
X188390000Y-63400000D01*
%TO.N,BASEBAND_BYPASS*%
X192906587Y-64093413D02*
X191438174Y-62625000D01*
X190185000Y-62625000D02*
X189410000Y-63400000D01*
X191438174Y-62625000D02*
X190185000Y-62625000D01*
D29*
%TO.N,+5VD*%
X187225000Y-75500000D02*
X185675000Y-75500000D01*
X184000000Y-67900000D02*
X184000000Y-65037501D01*
X185300000Y-75125000D02*
X185300000Y-69200000D01*
X185675000Y-75500000D02*
X185300000Y-75125000D01*
X187450000Y-75725000D02*
X187225000Y-75500000D01*
X185300000Y-69200000D02*
X184000000Y-67900000D01*
D26*
X187450000Y-77150000D02*
X187450000Y-75725000D01*
%TO.N,Net-(TP3-Pad1)*%
X193000000Y-68500000D02*
X192743947Y-68756053D01*
X192743947Y-68756053D02*
X190743947Y-68756053D01*
X190743947Y-68756053D02*
X188850000Y-70650000D01*
X188850000Y-70650000D02*
X188330000Y-70650000D01*
D25*
%TO.N,Net-(TP4-Pad1)*%
X191020000Y-70500000D02*
X192900000Y-70500000D01*
X190870000Y-70650000D02*
X191020000Y-70500000D01*
X192900000Y-70500000D02*
X193000000Y-70600000D01*
D26*
%TO.N,Net-(U1-VBAT)*%
X189150000Y-55350000D02*
X188400000Y-56100000D01*
%TD*%
%TA.AperFunction,Conductor*%
%TO.N,GND*%
G36*
X192065600Y-50020817D02*
G01*
X192105196Y-50075317D01*
X192105196Y-50142683D01*
X192098650Y-50158485D01*
X192082345Y-50190485D01*
X192034711Y-50238120D01*
X191985226Y-50250000D01*
X191375001Y-50250000D01*
X191375000Y-50250001D01*
X191375000Y-51049999D01*
X191375001Y-51050000D01*
X194649998Y-51050000D01*
X194649999Y-51049999D01*
X194649999Y-50318522D01*
X194649998Y-50318516D01*
X194635165Y-50224853D01*
X194635164Y-50224851D01*
X194601349Y-50158484D01*
X194590811Y-50091948D01*
X194621395Y-50031925D01*
X194681418Y-50001342D01*
X194698469Y-50000000D01*
X195101531Y-50000000D01*
X195165600Y-50020817D01*
X195205196Y-50075317D01*
X195205196Y-50142683D01*
X195198651Y-50158484D01*
X195164835Y-50224850D01*
X195164834Y-50224854D01*
X195150000Y-50318517D01*
X195150000Y-51049999D01*
X195150001Y-51050000D01*
X197624999Y-51050000D01*
X197625000Y-51049999D01*
X198125000Y-51049999D01*
X198125001Y-51050000D01*
X199099998Y-51050000D01*
X199099999Y-51049999D01*
X199099999Y-50618522D01*
X199099998Y-50618516D01*
X199085165Y-50524853D01*
X199027640Y-50411954D01*
X198938045Y-50322359D01*
X198825145Y-50264834D01*
X198731482Y-50250000D01*
X198125001Y-50250000D01*
X198125000Y-50250001D01*
X198125000Y-51049999D01*
X197625000Y-51049999D01*
X197625000Y-50250001D01*
X197624999Y-50250000D01*
X197014774Y-50250000D01*
X196950705Y-50229183D01*
X196917655Y-50190485D01*
X196901350Y-50158485D01*
X196890811Y-50091949D01*
X196921394Y-50031926D01*
X196981417Y-50001342D01*
X196998469Y-50000000D01*
X198975165Y-50000000D01*
X198975829Y-50000002D01*
X198976531Y-50000006D01*
X198999418Y-50000146D01*
X199000525Y-50000159D01*
X199024479Y-50000599D01*
X199024500Y-50000600D01*
X199046812Y-50001147D01*
X199051434Y-50001359D01*
X199093355Y-50004191D01*
X199102646Y-50005222D01*
X199144141Y-50011636D01*
X199148714Y-50012444D01*
X199192022Y-50021059D01*
X199197191Y-50022219D01*
X199284397Y-50044063D01*
X199294633Y-50047168D01*
X199376725Y-50076542D01*
X199386585Y-50080626D01*
X199465425Y-50117914D01*
X199474850Y-50122953D01*
X199549641Y-50167781D01*
X199558535Y-50173723D01*
X199628569Y-50225663D01*
X199636825Y-50232439D01*
X199701453Y-50291014D01*
X199708985Y-50298546D01*
X199767558Y-50363171D01*
X199774336Y-50371430D01*
X199826276Y-50441463D01*
X199832217Y-50450355D01*
X199877050Y-50525154D01*
X199882086Y-50534575D01*
X199919370Y-50613407D01*
X199923463Y-50623289D01*
X199952830Y-50705365D01*
X199955936Y-50715602D01*
X199977777Y-50802798D01*
X199978949Y-50808017D01*
X199987549Y-50851252D01*
X199988363Y-50855863D01*
X199994776Y-50897343D01*
X199995808Y-50906648D01*
X199998639Y-50948543D01*
X199998854Y-50953226D01*
X199999388Y-50975054D01*
X199999403Y-50975715D01*
X199999838Y-50999361D01*
X199999854Y-51000697D01*
X199999998Y-51024166D01*
X200000000Y-51024835D01*
X200000000Y-62342099D01*
X199979183Y-62406168D01*
X199924683Y-62445764D01*
X199857317Y-62445764D01*
X199818720Y-62423687D01*
X199722829Y-62338736D01*
X199700852Y-62319266D01*
X199700850Y-62319265D01*
X199700849Y-62319264D01*
X199550226Y-62240210D01*
X199405228Y-62204472D01*
X199354240Y-62175715D01*
X199228015Y-62049490D01*
X199228012Y-62049488D01*
X199102484Y-61977015D01*
X199059951Y-61965619D01*
X198962476Y-61939500D01*
X198962475Y-61939500D01*
X198634670Y-61939500D01*
X198598670Y-61933383D01*
X198566879Y-61922259D01*
X198566877Y-61922258D01*
X198537458Y-61919500D01*
X198245396Y-61919500D01*
X198181327Y-61898683D01*
X198141731Y-61844183D01*
X198141731Y-61776817D01*
X198168319Y-61733427D01*
X199415485Y-60486263D01*
X199471503Y-60389237D01*
X199500500Y-60281018D01*
X199500500Y-60168982D01*
X199500500Y-59719352D01*
X199521317Y-59655283D01*
X199522989Y-59653043D01*
X199580861Y-59577625D01*
X199636330Y-59443709D01*
X199648466Y-59351534D01*
X199655250Y-59300002D01*
X199655250Y-59299997D01*
X199636331Y-59156295D01*
X199636329Y-59156288D01*
X199580860Y-59022373D01*
X199492625Y-58907384D01*
X199492624Y-58907383D01*
X199492621Y-58907379D01*
X199492616Y-58907375D01*
X199492615Y-58907374D01*
X199377627Y-58819140D01*
X199272604Y-58775638D01*
X199221379Y-58731887D01*
X199205653Y-58666383D01*
X199210955Y-58644305D01*
X199210125Y-58644083D01*
X199211975Y-58637178D01*
X199230035Y-58500002D01*
X199230035Y-58499997D01*
X199211975Y-58362821D01*
X199211973Y-58362814D01*
X199159024Y-58234983D01*
X199086669Y-58140689D01*
X199064182Y-58077189D01*
X199072442Y-58032623D01*
X199111973Y-57937185D01*
X199111975Y-57937178D01*
X199130035Y-57800002D01*
X199130035Y-57799997D01*
X199111975Y-57662821D01*
X199111973Y-57662814D01*
X199059023Y-57534981D01*
X198991088Y-57446447D01*
X198968600Y-57382946D01*
X198987733Y-57318354D01*
X199035852Y-57279389D01*
X199054118Y-57271823D01*
X199085018Y-57259024D01*
X199194791Y-57174791D01*
X199279024Y-57065018D01*
X199331974Y-56937183D01*
X199346640Y-56825791D01*
X199350035Y-56800002D01*
X199350035Y-56799997D01*
X199331975Y-56662821D01*
X199331973Y-56662814D01*
X199279023Y-56534981D01*
X199194795Y-56425214D01*
X199194794Y-56425213D01*
X199194791Y-56425209D01*
X199194786Y-56425205D01*
X199194785Y-56425204D01*
X199085018Y-56340976D01*
X199085014Y-56340974D01*
X198957185Y-56288026D01*
X198957178Y-56288024D01*
X198820003Y-56269965D01*
X198819997Y-56269965D01*
X198682821Y-56288024D01*
X198682814Y-56288026D01*
X198554981Y-56340976D01*
X198445214Y-56425204D01*
X198445204Y-56425214D01*
X198360976Y-56534981D01*
X198308026Y-56662814D01*
X198308024Y-56662821D01*
X198289965Y-56799997D01*
X198289965Y-56800002D01*
X198308024Y-56937178D01*
X198308026Y-56937185D01*
X198360974Y-57065014D01*
X198360976Y-57065018D01*
X198428911Y-57153552D01*
X198451399Y-57217054D01*
X198432266Y-57281645D01*
X198384150Y-57320609D01*
X198334982Y-57340975D01*
X198225214Y-57425204D01*
X198225209Y-57425209D01*
X198220108Y-57431855D01*
X198164593Y-57470010D01*
X198133635Y-57474499D01*
X197086042Y-57474499D01*
X197021973Y-57453682D01*
X197008967Y-57442574D01*
X195340233Y-55773840D01*
X195309650Y-55713816D01*
X195320188Y-55647280D01*
X195367823Y-55599645D01*
X195375560Y-55596077D01*
X195465018Y-55559024D01*
X195574791Y-55474791D01*
X195659024Y-55365018D01*
X195711974Y-55237183D01*
X195714274Y-55219718D01*
X195730035Y-55100002D01*
X195730035Y-55099997D01*
X195723452Y-55049998D01*
X196025000Y-55049998D01*
X196025001Y-55049999D01*
X196056480Y-55049999D01*
X196056481Y-55049998D01*
X196132947Y-55037888D01*
X196167050Y-55037888D01*
X196243519Y-55049999D01*
X196737498Y-55049999D01*
X196737500Y-55049998D01*
X197237500Y-55049998D01*
X197237501Y-55049999D01*
X197731478Y-55049999D01*
X197731483Y-55049998D01*
X197825146Y-55035165D01*
X197938045Y-54977640D01*
X198027640Y-54888045D01*
X198085165Y-54775146D01*
X198085165Y-54775145D01*
X198099999Y-54681482D01*
X198100000Y-54681480D01*
X198100000Y-54125001D01*
X198099999Y-54125000D01*
X197237501Y-54125000D01*
X197237500Y-54125001D01*
X197237500Y-55049998D01*
X196737500Y-55049998D01*
X196737500Y-54125001D01*
X196737499Y-54125000D01*
X196468001Y-54125000D01*
X196439926Y-54153075D01*
X196379902Y-54183658D01*
X196362851Y-54185000D01*
X196025001Y-54185000D01*
X196025000Y-54185001D01*
X196025000Y-55049998D01*
X195723452Y-55049998D01*
X195711975Y-54962821D01*
X195711973Y-54962814D01*
X195660284Y-54838026D01*
X195659024Y-54834983D01*
X195659023Y-54834982D01*
X195658856Y-54834578D01*
X195653571Y-54767420D01*
X195659846Y-54748840D01*
X195672585Y-54719991D01*
X195675500Y-54694865D01*
X195675499Y-53225136D01*
X195672585Y-53200009D01*
X195627206Y-53097235D01*
X195606925Y-53076954D01*
X195576342Y-53016930D01*
X195575000Y-52999879D01*
X195575000Y-52870000D01*
X195543523Y-52870000D01*
X195543514Y-52870001D01*
X195449853Y-52884834D01*
X195336953Y-52942360D01*
X195330014Y-52947402D01*
X195327975Y-52944595D01*
X195281673Y-52968165D01*
X195264664Y-52969500D01*
X194880141Y-52969500D01*
X194880120Y-52969502D01*
X194855009Y-52972414D01*
X194853610Y-52972795D01*
X194851726Y-52972794D01*
X194846863Y-52973359D01*
X194846797Y-52972794D01*
X194803198Y-52972794D01*
X194803133Y-52973360D01*
X194798255Y-52972794D01*
X194796384Y-52972794D01*
X194794992Y-52972415D01*
X194782428Y-52970957D01*
X194769865Y-52969500D01*
X194769864Y-52969500D01*
X194230141Y-52969500D01*
X194230120Y-52969502D01*
X194205009Y-52972414D01*
X194203610Y-52972795D01*
X194201726Y-52972794D01*
X194196863Y-52973359D01*
X194196797Y-52972794D01*
X194153198Y-52972794D01*
X194153133Y-52973360D01*
X194148255Y-52972794D01*
X194146384Y-52972794D01*
X194144992Y-52972415D01*
X194119865Y-52969500D01*
X193748557Y-52969500D01*
X193684488Y-52948683D01*
X193644892Y-52894183D01*
X193643271Y-52888712D01*
X193623513Y-52814975D01*
X193623513Y-52814974D01*
X193616085Y-52787252D01*
X193621061Y-52785918D01*
X193612996Y-52747123D01*
X193640670Y-52685704D01*
X193699160Y-52652281D01*
X193721347Y-52649999D01*
X194281478Y-52649999D01*
X194281483Y-52649998D01*
X194375146Y-52635165D01*
X194488045Y-52577640D01*
X194577640Y-52488045D01*
X194635165Y-52375146D01*
X194635165Y-52375145D01*
X194649999Y-52281483D01*
X195150001Y-52281483D01*
X195164834Y-52375146D01*
X195222359Y-52488045D01*
X195311954Y-52577640D01*
X195424854Y-52635165D01*
X195518518Y-52649999D01*
X195896164Y-52649999D01*
X195960232Y-52670816D01*
X195999829Y-52725316D01*
X195999829Y-52792682D01*
X195980896Y-52823576D01*
X196005351Y-52882616D01*
X196019665Y-52902317D01*
X196025000Y-52936000D01*
X196025000Y-53624999D01*
X196025001Y-53625000D01*
X196737499Y-53625000D01*
X196737500Y-53624999D01*
X197237500Y-53624999D01*
X197237501Y-53625000D01*
X198099998Y-53625000D01*
X198099999Y-53624999D01*
X198099999Y-53068522D01*
X198099998Y-53068516D01*
X198085165Y-52974853D01*
X198027640Y-52861954D01*
X197938045Y-52772359D01*
X197825145Y-52714834D01*
X197731482Y-52700000D01*
X197237501Y-52700000D01*
X197237500Y-52700001D01*
X197237500Y-53624999D01*
X196737500Y-53624999D01*
X196737500Y-52669902D01*
X196758317Y-52605833D01*
X196782436Y-52581716D01*
X196788043Y-52577642D01*
X196877641Y-52488044D01*
X196917653Y-52409515D01*
X196965287Y-52361880D01*
X197014773Y-52349999D01*
X197624999Y-52349999D01*
X197625000Y-52349998D01*
X198125000Y-52349998D01*
X198125001Y-52349999D01*
X198731478Y-52349999D01*
X198731483Y-52349998D01*
X198825146Y-52335165D01*
X198938045Y-52277640D01*
X199027640Y-52188045D01*
X199085165Y-52075146D01*
X199085165Y-52075145D01*
X199099999Y-51981482D01*
X199100000Y-51981480D01*
X199100000Y-51550001D01*
X199099999Y-51550000D01*
X198125001Y-51550000D01*
X198125000Y-51550001D01*
X198125000Y-52349998D01*
X197625000Y-52349998D01*
X197625000Y-51550001D01*
X197624999Y-51550000D01*
X195150002Y-51550000D01*
X195150001Y-51550001D01*
X195150001Y-52281483D01*
X194649999Y-52281483D01*
X194649999Y-52281482D01*
X194650000Y-52281480D01*
X194650000Y-51550001D01*
X194649999Y-51550000D01*
X189900002Y-51550000D01*
X189900001Y-51550001D01*
X189900001Y-51981483D01*
X189914834Y-52075146D01*
X189914836Y-52075151D01*
X189922920Y-52091017D01*
X189933458Y-52157553D01*
X189902873Y-52217576D01*
X189842850Y-52248158D01*
X189825800Y-52249500D01*
X186540687Y-52249500D01*
X186426117Y-52280199D01*
X186423895Y-52281482D01*
X186382696Y-52305268D01*
X186382694Y-52305268D01*
X186323387Y-52339510D01*
X182672264Y-55990632D01*
X182612240Y-56021215D01*
X182545704Y-56010677D01*
X182498069Y-55963042D01*
X182494486Y-55955269D01*
X182480860Y-55922373D01*
X182392625Y-55807384D01*
X182392624Y-55807383D01*
X182392621Y-55807379D01*
X182392616Y-55807375D01*
X182392615Y-55807374D01*
X182277626Y-55719139D01*
X182143711Y-55663670D01*
X182143704Y-55663668D01*
X182000003Y-55644750D01*
X181999997Y-55644750D01*
X181856295Y-55663668D01*
X181856288Y-55663670D01*
X181722373Y-55719139D01*
X181607384Y-55807374D01*
X181607374Y-55807384D01*
X181519139Y-55922373D01*
X181463670Y-56056288D01*
X181463668Y-56056295D01*
X181444750Y-56199997D01*
X181444750Y-56200002D01*
X181463668Y-56343704D01*
X181463670Y-56343710D01*
X181519139Y-56477626D01*
X181600660Y-56583865D01*
X181607379Y-56592621D01*
X181607383Y-56592624D01*
X181607384Y-56592625D01*
X181722373Y-56680860D01*
X181755269Y-56694486D01*
X181806494Y-56738236D01*
X181822221Y-56803740D01*
X181796442Y-56865978D01*
X181790632Y-56872263D01*
X181639513Y-57023383D01*
X181639511Y-57023386D01*
X181580201Y-57126110D01*
X181580202Y-57126110D01*
X181580201Y-57126115D01*
X181549500Y-57240689D01*
X181549500Y-59945807D01*
X181528683Y-60009876D01*
X181526977Y-60012160D01*
X181519139Y-60022374D01*
X181463670Y-60156288D01*
X181463668Y-60156295D01*
X181444750Y-60299997D01*
X181444750Y-60300002D01*
X181463668Y-60443704D01*
X181463670Y-60443711D01*
X181519139Y-60577626D01*
X181607374Y-60692615D01*
X181607379Y-60692621D01*
X181607383Y-60692624D01*
X181607384Y-60692625D01*
X181722373Y-60780860D01*
X181856288Y-60836329D01*
X181856295Y-60836331D01*
X181999997Y-60855250D01*
X182000000Y-60855250D01*
X182000003Y-60855250D01*
X182143704Y-60836331D01*
X182143706Y-60836330D01*
X182143709Y-60836330D01*
X182277625Y-60780861D01*
X182392621Y-60692621D01*
X182480861Y-60577625D01*
X182536330Y-60443709D01*
X182553674Y-60311975D01*
X182555250Y-60300002D01*
X182555250Y-60299997D01*
X182536331Y-60156295D01*
X182536329Y-60156288D01*
X182498522Y-60065014D01*
X182480861Y-60022375D01*
X182473023Y-60012160D01*
X182450537Y-59948657D01*
X182450500Y-59945807D01*
X182450500Y-57531753D01*
X182471317Y-57467684D01*
X182482425Y-57454678D01*
X186754678Y-53182425D01*
X186814702Y-53151842D01*
X186831753Y-53150500D01*
X187363373Y-53150500D01*
X187427442Y-53171317D01*
X187467038Y-53225817D01*
X187467038Y-53293183D01*
X187465290Y-53298151D01*
X187414859Y-53431128D01*
X187414858Y-53431131D01*
X187394355Y-53599997D01*
X187394355Y-53600002D01*
X187414858Y-53768868D01*
X187414859Y-53768871D01*
X187475180Y-53927927D01*
X187475184Y-53927934D01*
X187571815Y-54067927D01*
X187571816Y-54067928D01*
X187571817Y-54067929D01*
X187699148Y-54180734D01*
X187849775Y-54259790D01*
X188014944Y-54300500D01*
X188014945Y-54300500D01*
X188185055Y-54300500D01*
X188185056Y-54300500D01*
X188350225Y-54259790D01*
X188500852Y-54180734D01*
X188628183Y-54067929D01*
X188724818Y-53927930D01*
X188785140Y-53768872D01*
X188785140Y-53768870D01*
X188785141Y-53768868D01*
X188805645Y-53600002D01*
X188805645Y-53599997D01*
X188785141Y-53431131D01*
X188785140Y-53431128D01*
X188734710Y-53298151D01*
X188731456Y-53230864D01*
X188768373Y-53174515D01*
X188831362Y-53150627D01*
X188836627Y-53150500D01*
X190121504Y-53150500D01*
X190185573Y-53171317D01*
X190225169Y-53225817D01*
X190225169Y-53293183D01*
X190207981Y-53325854D01*
X190200975Y-53334984D01*
X190148026Y-53462814D01*
X190148025Y-53462820D01*
X190142965Y-53501250D01*
X190113962Y-53562052D01*
X190111973Y-53564095D01*
X189438737Y-54237333D01*
X189438736Y-54237332D01*
X189359514Y-54316554D01*
X189303496Y-54413581D01*
X189274500Y-54521800D01*
X189274500Y-54712065D01*
X189253683Y-54776134D01*
X189199183Y-54815730D01*
X189157144Y-54819593D01*
X189157144Y-54819965D01*
X189153102Y-54819965D01*
X189151275Y-54820132D01*
X189150000Y-54819965D01*
X189149998Y-54819965D01*
X189149997Y-54819965D01*
X189012821Y-54838024D01*
X189012814Y-54838026D01*
X188884981Y-54890976D01*
X188775214Y-54975204D01*
X188775204Y-54975214D01*
X188690976Y-55084981D01*
X188638024Y-55212819D01*
X188637920Y-55213614D01*
X188637672Y-55214131D01*
X188636176Y-55219718D01*
X188635140Y-55219440D01*
X188608911Y-55274414D01*
X188549706Y-55306552D01*
X188517651Y-55307690D01*
X188400000Y-55294435D01*
X188220742Y-55314632D01*
X188220737Y-55314633D01*
X188050483Y-55374208D01*
X188050480Y-55374209D01*
X187897739Y-55470183D01*
X187770183Y-55597739D01*
X187674209Y-55750480D01*
X187674208Y-55750483D01*
X187614633Y-55920737D01*
X187614632Y-55920742D01*
X187594435Y-56100000D01*
X187614632Y-56279257D01*
X187614633Y-56279262D01*
X187674208Y-56449516D01*
X187674209Y-56449519D01*
X187674211Y-56449522D01*
X187770184Y-56602262D01*
X187897738Y-56729816D01*
X188050478Y-56825789D01*
X188050480Y-56825790D01*
X188050483Y-56825791D01*
X188220737Y-56885366D01*
X188220742Y-56885367D01*
X188220745Y-56885368D01*
X188400000Y-56905565D01*
X188579255Y-56885368D01*
X188579259Y-56885366D01*
X188579262Y-56885366D01*
X188749516Y-56825791D01*
X188749519Y-56825790D01*
X188749518Y-56825790D01*
X188749522Y-56825789D01*
X188902262Y-56729816D01*
X189029816Y-56602262D01*
X189072090Y-56534983D01*
X189073207Y-56533206D01*
X189124920Y-56490032D01*
X189192133Y-56485501D01*
X189249173Y-56521341D01*
X189274253Y-56583865D01*
X189274500Y-56591197D01*
X189274500Y-59454293D01*
X189253683Y-59518362D01*
X189251977Y-59520646D01*
X189240976Y-59534983D01*
X189188026Y-59662814D01*
X189188024Y-59662821D01*
X189169965Y-59799997D01*
X189169965Y-59800002D01*
X189188024Y-59937178D01*
X189188026Y-59937185D01*
X189240974Y-60065014D01*
X189240976Y-60065018D01*
X189320751Y-60168982D01*
X189325209Y-60174791D01*
X189434982Y-60259024D01*
X189488079Y-60281017D01*
X189562814Y-60311973D01*
X189562821Y-60311975D01*
X189699997Y-60330035D01*
X189700000Y-60330035D01*
X189700003Y-60330035D01*
X189837178Y-60311975D01*
X189837180Y-60311974D01*
X189837183Y-60311974D01*
X189965018Y-60259024D01*
X190074791Y-60174791D01*
X190159024Y-60065018D01*
X190211974Y-59937183D01*
X190223920Y-59846452D01*
X190230035Y-59800002D01*
X190230035Y-59799997D01*
X190211975Y-59662821D01*
X190211973Y-59662814D01*
X190201634Y-59637854D01*
X190159024Y-59534983D01*
X190148022Y-59520645D01*
X190125537Y-59457144D01*
X190125500Y-59454293D01*
X190125500Y-54799215D01*
X190146317Y-54735146D01*
X190157419Y-54722146D01*
X190713927Y-54165637D01*
X190773949Y-54135056D01*
X190840485Y-54145594D01*
X190888120Y-54193229D01*
X190900000Y-54242714D01*
X190900000Y-54681477D01*
X190900001Y-54681483D01*
X190914834Y-54775146D01*
X190914835Y-54775148D01*
X190940086Y-54824707D01*
X190950624Y-54891244D01*
X190920040Y-54951267D01*
X190909322Y-54960666D01*
X190825211Y-55025207D01*
X190825204Y-55025214D01*
X190740976Y-55134981D01*
X190688026Y-55262814D01*
X190688024Y-55262821D01*
X190669965Y-55399997D01*
X190669965Y-55400002D01*
X190688024Y-55537178D01*
X190688026Y-55537185D01*
X190740974Y-55665014D01*
X190740976Y-55665018D01*
X190806556Y-55750483D01*
X190825209Y-55774791D01*
X190934982Y-55859024D01*
X190959458Y-55869162D01*
X191062814Y-55911973D01*
X191062821Y-55911975D01*
X191199997Y-55930035D01*
X191200000Y-55930035D01*
X191200003Y-55930035D01*
X191337178Y-55911975D01*
X191337180Y-55911974D01*
X191337183Y-55911974D01*
X191465018Y-55859024D01*
X191574791Y-55774791D01*
X191654356Y-55671100D01*
X191709874Y-55632945D01*
X191777216Y-55634708D01*
X191782542Y-55636753D01*
X191837803Y-55659642D01*
X191837807Y-55659643D01*
X191837809Y-55659644D01*
X191837810Y-55659644D01*
X191837813Y-55659645D01*
X191974989Y-55677705D01*
X191974992Y-55677705D01*
X191974995Y-55677705D01*
X192112170Y-55659645D01*
X192112172Y-55659644D01*
X192112175Y-55659644D01*
X192240010Y-55606694D01*
X192349783Y-55522461D01*
X192434016Y-55412688D01*
X192486966Y-55284853D01*
X192488341Y-55274414D01*
X192505409Y-55144771D01*
X192534410Y-55083968D01*
X192593613Y-55051824D01*
X192613476Y-55049999D01*
X192756478Y-55049999D01*
X192756483Y-55049998D01*
X192850146Y-55035165D01*
X192963048Y-54977638D01*
X192969987Y-54972598D01*
X192972029Y-54975409D01*
X193018286Y-54951841D01*
X193035326Y-54950499D01*
X193340500Y-54950499D01*
X193404569Y-54971316D01*
X193444165Y-55025816D01*
X193449500Y-55059499D01*
X193449500Y-55147727D01*
X193476793Y-55249589D01*
X193476792Y-55249589D01*
X193533092Y-55347100D01*
X193530807Y-55348419D01*
X193549463Y-55401098D01*
X193549500Y-55403952D01*
X193549500Y-55597273D01*
X193549500Y-55702727D01*
X193568809Y-55774791D01*
X193576793Y-55804588D01*
X193576792Y-55804588D01*
X193614075Y-55869162D01*
X193629520Y-55895913D01*
X196304519Y-58570911D01*
X196304521Y-58570914D01*
X196379088Y-58645481D01*
X196470414Y-58698208D01*
X196470413Y-58698208D01*
X196507697Y-58708198D01*
X196572274Y-58725502D01*
X196572276Y-58725502D01*
X196684404Y-58725502D01*
X196684420Y-58725501D01*
X198156901Y-58725501D01*
X198220970Y-58746318D01*
X198243373Y-58768142D01*
X198325209Y-58874791D01*
X198434982Y-58959024D01*
X198477939Y-58976817D01*
X198513865Y-58991698D01*
X198565090Y-59035448D01*
X198580817Y-59100952D01*
X198572856Y-59134113D01*
X198563670Y-59156288D01*
X198563668Y-59156296D01*
X198550460Y-59256621D01*
X198521458Y-59317424D01*
X198462256Y-59349568D01*
X198456621Y-59350460D01*
X198356296Y-59363668D01*
X198356288Y-59363670D01*
X198222373Y-59419139D01*
X198107384Y-59507374D01*
X198107374Y-59507384D01*
X198019139Y-59622373D01*
X197963670Y-59756288D01*
X197963669Y-59756294D01*
X197956628Y-59809769D01*
X197927625Y-59870571D01*
X197925636Y-59872614D01*
X195538737Y-62259515D01*
X195538736Y-62259514D01*
X195459514Y-62338736D01*
X195403496Y-62435763D01*
X195374500Y-62543982D01*
X195374500Y-63568647D01*
X195353683Y-63632716D01*
X195299183Y-63672312D01*
X195251274Y-63676715D01*
X195216746Y-63672169D01*
X195200000Y-63669965D01*
X195199999Y-63669965D01*
X195199998Y-63669965D01*
X195199997Y-63669965D01*
X195062821Y-63688024D01*
X195062814Y-63688026D01*
X194934981Y-63740976D01*
X194825214Y-63825204D01*
X194825204Y-63825214D01*
X194740976Y-63934981D01*
X194688026Y-64062814D01*
X194688024Y-64062821D01*
X194669965Y-64199997D01*
X194669965Y-64200002D01*
X194688024Y-64337178D01*
X194688026Y-64337185D01*
X194740974Y-64465014D01*
X194740976Y-64465018D01*
X194786395Y-64524209D01*
X194825209Y-64574791D01*
X194934982Y-64659024D01*
X194956073Y-64667760D01*
X195069417Y-64714708D01*
X195068146Y-64717776D01*
X195113175Y-64747003D01*
X195137331Y-64809889D01*
X195119911Y-64874963D01*
X195105558Y-64892692D01*
X195059515Y-64938736D01*
X195003496Y-65035763D01*
X194974500Y-65143982D01*
X194974500Y-67090500D01*
X194953683Y-67154569D01*
X194899183Y-67194165D01*
X194865500Y-67199500D01*
X194415733Y-67199500D01*
X194385303Y-67202353D01*
X194385299Y-67202354D01*
X194257117Y-67247207D01*
X194257112Y-67247210D01*
X194147853Y-67327846D01*
X194147846Y-67327853D01*
X194067210Y-67437112D01*
X194067207Y-67437117D01*
X194022354Y-67565299D01*
X194022353Y-67565303D01*
X194019500Y-67595732D01*
X194019500Y-68004267D01*
X194022353Y-68034696D01*
X194022354Y-68034700D01*
X194067207Y-68162882D01*
X194067210Y-68162887D01*
X194147846Y-68272146D01*
X194147853Y-68272153D01*
X194257112Y-68352789D01*
X194257115Y-68352790D01*
X194257118Y-68352793D01*
X194385301Y-68397646D01*
X194405589Y-68399548D01*
X194415733Y-68400500D01*
X194415734Y-68400500D01*
X194865500Y-68400500D01*
X194929569Y-68421317D01*
X194969165Y-68475817D01*
X194974500Y-68509500D01*
X194974500Y-69778601D01*
X194953683Y-69842670D01*
X194942575Y-69855676D01*
X193943475Y-70854775D01*
X193883451Y-70885358D01*
X193816915Y-70874820D01*
X193769280Y-70827185D01*
X193758742Y-70760649D01*
X193763513Y-70741710D01*
X193785368Y-70679255D01*
X193805565Y-70500000D01*
X193785368Y-70320745D01*
X193785367Y-70320742D01*
X193785366Y-70320737D01*
X193725791Y-70150483D01*
X193725790Y-70150480D01*
X193725789Y-70150478D01*
X193629816Y-69997738D01*
X193502262Y-69870184D01*
X193349522Y-69774211D01*
X193349519Y-69774209D01*
X193349516Y-69774208D01*
X193179262Y-69714633D01*
X193179257Y-69714632D01*
X193000000Y-69694435D01*
X192820742Y-69714632D01*
X192820737Y-69714633D01*
X192650483Y-69774208D01*
X192650480Y-69774209D01*
X192497739Y-69870183D01*
X192370183Y-69997739D01*
X192369710Y-69998493D01*
X192369326Y-69998813D01*
X192366369Y-70002522D01*
X192365609Y-70001916D01*
X192317996Y-70041665D01*
X192277418Y-70049500D01*
X191809968Y-70049500D01*
X191745899Y-70028683D01*
X191706303Y-69974183D01*
X191706303Y-69906817D01*
X191743612Y-69854025D01*
X191849791Y-69772551D01*
X191934024Y-69662778D01*
X191986974Y-69534943D01*
X192005035Y-69397760D01*
X191992794Y-69304781D01*
X192005070Y-69238543D01*
X192053935Y-69192171D01*
X192100861Y-69181553D01*
X192648431Y-69181553D01*
X192684432Y-69187670D01*
X192820745Y-69235368D01*
X193000000Y-69255565D01*
X193179255Y-69235368D01*
X193179259Y-69235366D01*
X193179262Y-69235366D01*
X193349516Y-69175791D01*
X193349519Y-69175790D01*
X193349518Y-69175790D01*
X193349522Y-69175789D01*
X193502262Y-69079816D01*
X193629816Y-68952262D01*
X193725789Y-68799522D01*
X193772854Y-68665018D01*
X193785366Y-68629262D01*
X193785367Y-68629257D01*
X193785368Y-68629255D01*
X193805565Y-68450000D01*
X193785368Y-68270745D01*
X193785367Y-68270742D01*
X193785366Y-68270737D01*
X193725791Y-68100483D01*
X193725790Y-68100480D01*
X193686015Y-68037178D01*
X193629816Y-67947738D01*
X193502262Y-67820184D01*
X193349522Y-67724211D01*
X193349519Y-67724209D01*
X193349516Y-67724208D01*
X193179262Y-67664633D01*
X193179257Y-67664632D01*
X193000000Y-67644435D01*
X192820742Y-67664632D01*
X192820737Y-67664633D01*
X192650483Y-67724208D01*
X192650480Y-67724209D01*
X192497739Y-67820183D01*
X192370183Y-67947739D01*
X192274209Y-68100480D01*
X192274208Y-68100483D01*
X192219248Y-68257553D01*
X192178439Y-68311151D01*
X192116365Y-68330553D01*
X191476301Y-68330553D01*
X191412232Y-68309736D01*
X191372636Y-68255236D01*
X191372636Y-68187870D01*
X191389826Y-68155198D01*
X191428451Y-68104861D01*
X191459024Y-68065018D01*
X191511974Y-67937183D01*
X191516870Y-67900000D01*
X191530035Y-67800002D01*
X191530035Y-67799997D01*
X191511975Y-67662821D01*
X191511973Y-67662814D01*
X191471273Y-67564554D01*
X191459024Y-67534983D01*
X191459023Y-67534982D01*
X191459023Y-67534981D01*
X191453856Y-67528247D01*
X191431367Y-67464746D01*
X191450499Y-67400154D01*
X191469758Y-67379861D01*
X191469739Y-67379842D01*
X191470481Y-67379099D01*
X191473980Y-67375413D01*
X191474791Y-67374791D01*
X191559024Y-67265018D01*
X191611974Y-67137183D01*
X191613606Y-67124791D01*
X191630035Y-67000002D01*
X191630035Y-66999997D01*
X191623285Y-66948728D01*
X191635561Y-66882490D01*
X191684426Y-66836118D01*
X191731352Y-66825500D01*
X191756018Y-66825500D01*
X191864237Y-66796503D01*
X191944779Y-66750002D01*
X192971281Y-66750002D01*
X192989340Y-66887178D01*
X192989342Y-66887185D01*
X193042290Y-67015014D01*
X193042292Y-67015018D01*
X193119025Y-67115018D01*
X193126525Y-67124791D01*
X193126529Y-67124794D01*
X193126530Y-67124795D01*
X193165332Y-67154569D01*
X193236298Y-67209024D01*
X193300215Y-67235499D01*
X193364130Y-67261973D01*
X193364137Y-67261975D01*
X193501313Y-67280035D01*
X193501316Y-67280035D01*
X193501319Y-67280035D01*
X193638494Y-67261975D01*
X193638496Y-67261974D01*
X193638499Y-67261974D01*
X193766334Y-67209024D01*
X193876107Y-67124791D01*
X193960340Y-67015018D01*
X194013290Y-66887183D01*
X194014115Y-66880923D01*
X194031351Y-66750002D01*
X194031351Y-66749997D01*
X194013291Y-66612821D01*
X194013289Y-66612814D01*
X193960339Y-66484981D01*
X193876111Y-66375214D01*
X193876110Y-66375213D01*
X193876107Y-66375209D01*
X193876102Y-66375205D01*
X193876101Y-66375204D01*
X193766334Y-66290976D01*
X193766330Y-66290974D01*
X193638501Y-66238026D01*
X193638494Y-66238024D01*
X193501319Y-66219965D01*
X193501313Y-66219965D01*
X193364137Y-66238024D01*
X193364130Y-66238026D01*
X193236297Y-66290976D01*
X193126530Y-66375204D01*
X193126520Y-66375214D01*
X193042292Y-66484981D01*
X192989342Y-66612814D01*
X192989340Y-66612821D01*
X192971281Y-66749997D01*
X192971281Y-66750002D01*
X191944779Y-66750002D01*
X191961263Y-66740485D01*
X192240485Y-66461263D01*
X192296503Y-66364237D01*
X192325500Y-66256018D01*
X192325500Y-66143981D01*
X192325500Y-65968801D01*
X192346317Y-65904732D01*
X192400817Y-65865136D01*
X192468183Y-65865136D01*
X192491708Y-65877906D01*
X192492555Y-65876559D01*
X192497737Y-65879815D01*
X192497738Y-65879816D01*
X192620528Y-65956970D01*
X192650480Y-65975790D01*
X192650483Y-65975791D01*
X192820737Y-66035366D01*
X192820742Y-66035367D01*
X192820745Y-66035368D01*
X193000000Y-66055565D01*
X193179255Y-66035368D01*
X193179259Y-66035366D01*
X193179262Y-66035366D01*
X193349516Y-65975791D01*
X193349519Y-65975790D01*
X193349518Y-65975790D01*
X193349522Y-65975789D01*
X193502262Y-65879816D01*
X193629816Y-65752262D01*
X193725789Y-65599522D01*
X193774817Y-65459409D01*
X193785366Y-65429262D01*
X193785367Y-65429257D01*
X193785368Y-65429255D01*
X193805565Y-65250000D01*
X193785368Y-65070745D01*
X193785367Y-65070742D01*
X193785366Y-65070737D01*
X193725791Y-64900483D01*
X193725788Y-64900475D01*
X193716681Y-64885982D01*
X193700221Y-64820658D01*
X193725301Y-64758135D01*
X193782341Y-64722295D01*
X193823202Y-64719924D01*
X193899998Y-64730035D01*
X193900000Y-64730035D01*
X193900003Y-64730035D01*
X194037178Y-64711975D01*
X194037180Y-64711974D01*
X194037183Y-64711974D01*
X194165018Y-64659024D01*
X194274791Y-64574791D01*
X194359024Y-64465018D01*
X194411974Y-64337183D01*
X194415724Y-64308706D01*
X194430035Y-64200002D01*
X194430035Y-64199997D01*
X194411975Y-64062821D01*
X194411973Y-64062814D01*
X194367905Y-63956423D01*
X194359024Y-63934983D01*
X194359023Y-63934982D01*
X194359023Y-63934981D01*
X194274795Y-63825214D01*
X194274794Y-63825213D01*
X194274791Y-63825209D01*
X194274786Y-63825205D01*
X194274785Y-63825204D01*
X194165018Y-63740976D01*
X194165014Y-63740974D01*
X194037185Y-63688026D01*
X194037178Y-63688024D01*
X193900003Y-63669965D01*
X193899997Y-63669965D01*
X193762821Y-63688024D01*
X193762814Y-63688026D01*
X193634981Y-63740976D01*
X193525207Y-63825209D01*
X193521402Y-63829015D01*
X193461377Y-63859595D01*
X193394842Y-63849053D01*
X193357857Y-63818291D01*
X193350834Y-63809139D01*
X193281378Y-63718622D01*
X193281373Y-63718618D01*
X193281372Y-63718617D01*
X193171605Y-63634389D01*
X193171601Y-63634387D01*
X193043226Y-63581213D01*
X193007863Y-63557585D01*
X192692112Y-63241834D01*
X191714788Y-62264511D01*
X191612061Y-62205201D01*
X191587847Y-62198713D01*
X191497486Y-62174500D01*
X191497483Y-62174500D01*
X190125691Y-62174500D01*
X190125687Y-62174500D01*
X190011114Y-62205200D01*
X189908387Y-62264509D01*
X189425319Y-62747575D01*
X189365296Y-62778158D01*
X189348246Y-62779500D01*
X189222543Y-62779500D01*
X189222538Y-62779501D01*
X189193125Y-62782258D01*
X189193121Y-62782258D01*
X189193121Y-62782259D01*
X189193118Y-62782259D01*
X189193118Y-62782260D01*
X189069206Y-62825619D01*
X188964726Y-62902728D01*
X188900815Y-62924023D01*
X188836592Y-62903685D01*
X188835274Y-62902728D01*
X188730793Y-62825618D01*
X188606879Y-62782259D01*
X188606877Y-62782258D01*
X188577458Y-62779500D01*
X188202543Y-62779500D01*
X188202538Y-62779501D01*
X188173125Y-62782258D01*
X188173121Y-62782258D01*
X188173121Y-62782259D01*
X188173118Y-62782259D01*
X188173118Y-62782260D01*
X188049206Y-62825619D01*
X188049202Y-62825621D01*
X187943581Y-62903572D01*
X187943572Y-62903581D01*
X187865621Y-63009202D01*
X187865619Y-63009206D01*
X187822259Y-63133120D01*
X187822258Y-63133122D01*
X187819500Y-63162541D01*
X187819500Y-63241834D01*
X187798683Y-63305903D01*
X187744183Y-63345499D01*
X187676817Y-63345499D01*
X187668788Y-63342537D01*
X187537185Y-63288026D01*
X187537178Y-63288024D01*
X187400003Y-63269965D01*
X187399997Y-63269965D01*
X187262821Y-63288024D01*
X187262814Y-63288026D01*
X187226210Y-63303188D01*
X187159052Y-63308472D01*
X187101614Y-63273272D01*
X187075836Y-63211034D01*
X187075500Y-63202484D01*
X187075500Y-61400002D01*
X188469965Y-61400002D01*
X188488024Y-61537178D01*
X188488026Y-61537185D01*
X188540974Y-61665014D01*
X188540976Y-61665018D01*
X188625209Y-61774791D01*
X188734982Y-61859024D01*
X188798899Y-61885499D01*
X188862814Y-61911973D01*
X188862821Y-61911975D01*
X188999997Y-61930035D01*
X189000000Y-61930035D01*
X189000003Y-61930035D01*
X189137178Y-61911975D01*
X189137180Y-61911974D01*
X189137183Y-61911974D01*
X189265018Y-61859024D01*
X189374791Y-61774791D01*
X189459024Y-61665018D01*
X189511974Y-61537183D01*
X189530035Y-61400000D01*
X189511974Y-61262817D01*
X189459024Y-61134983D01*
X189459023Y-61134982D01*
X189459023Y-61134981D01*
X189374795Y-61025214D01*
X189374794Y-61025213D01*
X189374791Y-61025209D01*
X189374786Y-61025205D01*
X189374785Y-61025204D01*
X189265018Y-60940976D01*
X189265014Y-60940974D01*
X189137185Y-60888026D01*
X189137178Y-60888024D01*
X189000003Y-60869965D01*
X188999997Y-60869965D01*
X188862821Y-60888024D01*
X188862814Y-60888026D01*
X188734981Y-60940976D01*
X188625214Y-61025204D01*
X188625204Y-61025214D01*
X188540976Y-61134981D01*
X188488026Y-61262814D01*
X188488024Y-61262821D01*
X188469965Y-61399997D01*
X188469965Y-61400002D01*
X187075500Y-61400002D01*
X187075500Y-56246921D01*
X187083797Y-56205209D01*
X187111973Y-56137185D01*
X187111975Y-56137178D01*
X187130035Y-56000002D01*
X187130035Y-55999997D01*
X187111975Y-55862821D01*
X187111973Y-55862814D01*
X187059023Y-55734981D01*
X186974795Y-55625214D01*
X186974794Y-55625213D01*
X186974791Y-55625209D01*
X186974786Y-55625205D01*
X186974785Y-55625204D01*
X186865018Y-55540976D01*
X186865014Y-55540974D01*
X186737185Y-55488026D01*
X186737178Y-55488024D01*
X186600003Y-55469965D01*
X186599997Y-55469965D01*
X186462821Y-55488024D01*
X186462814Y-55488026D01*
X186334981Y-55540976D01*
X186225214Y-55625204D01*
X186225204Y-55625214D01*
X186140976Y-55734981D01*
X186088026Y-55862814D01*
X186088024Y-55862821D01*
X186069965Y-55999997D01*
X186069965Y-56000002D01*
X186088024Y-56137178D01*
X186088026Y-56137185D01*
X186133480Y-56246921D01*
X186140976Y-56265018D01*
X186201975Y-56344513D01*
X186224463Y-56408013D01*
X186224500Y-56410867D01*
X186224500Y-64349899D01*
X186203683Y-64413968D01*
X186149183Y-64453564D01*
X186127706Y-64458213D01*
X186070749Y-64464631D01*
X186070737Y-64464633D01*
X185900483Y-64524208D01*
X185900480Y-64524209D01*
X185747739Y-64620183D01*
X185620183Y-64747739D01*
X185524209Y-64900480D01*
X185524208Y-64900483D01*
X185464633Y-65070737D01*
X185464632Y-65070742D01*
X185444435Y-65250000D01*
X185464632Y-65429257D01*
X185464633Y-65429262D01*
X185524208Y-65599516D01*
X185524209Y-65599519D01*
X185524211Y-65599522D01*
X185620184Y-65752262D01*
X185747738Y-65879816D01*
X185870528Y-65956970D01*
X185900480Y-65975790D01*
X185900483Y-65975791D01*
X186070738Y-66035366D01*
X186070740Y-66035366D01*
X186070745Y-66035368D01*
X186127705Y-66041785D01*
X186189038Y-66069643D01*
X186222284Y-66128233D01*
X186224500Y-66150099D01*
X186224500Y-71269621D01*
X186253496Y-71377840D01*
X186291968Y-71444475D01*
X186309515Y-71474867D01*
X186992576Y-72157928D01*
X187023158Y-72217950D01*
X187024500Y-72235001D01*
X187024500Y-72236350D01*
X187003683Y-72300419D01*
X186949183Y-72340015D01*
X186881817Y-72340015D01*
X186838427Y-72313426D01*
X186825000Y-72300000D01*
X186793523Y-72300000D01*
X186793514Y-72300001D01*
X186699853Y-72314834D01*
X186586951Y-72372360D01*
X186580013Y-72377402D01*
X186577970Y-72374590D01*
X186531715Y-72398158D01*
X186514664Y-72399500D01*
X185909500Y-72399500D01*
X185845431Y-72378683D01*
X185805835Y-72324183D01*
X185800500Y-72290500D01*
X185800500Y-69134108D01*
X185766392Y-69006814D01*
X185700500Y-68892686D01*
X185607314Y-68799499D01*
X185607314Y-68799500D01*
X184532425Y-67724611D01*
X184501842Y-67664587D01*
X184500500Y-67647536D01*
X184500500Y-66926727D01*
X184521317Y-66862658D01*
X184532419Y-66849658D01*
X184629816Y-66752262D01*
X184725789Y-66599522D01*
X184765869Y-66484981D01*
X184785366Y-66429262D01*
X184785367Y-66429257D01*
X184785368Y-66429255D01*
X184805565Y-66250000D01*
X184785368Y-66070745D01*
X184785367Y-66070742D01*
X184785366Y-66070737D01*
X184725791Y-65900483D01*
X184725790Y-65900480D01*
X184725789Y-65900478D01*
X184629816Y-65747738D01*
X184532423Y-65650345D01*
X184501842Y-65590324D01*
X184500500Y-65573273D01*
X184500500Y-65289393D01*
X184508797Y-65247681D01*
X184536329Y-65181212D01*
X184536331Y-65181205D01*
X184555250Y-65037503D01*
X184555250Y-65037498D01*
X184536331Y-64893796D01*
X184536329Y-64893789D01*
X184480860Y-64759874D01*
X184392625Y-64644885D01*
X184392624Y-64644884D01*
X184392621Y-64644880D01*
X184392616Y-64644876D01*
X184392615Y-64644875D01*
X184277626Y-64556640D01*
X184143711Y-64501171D01*
X184143704Y-64501169D01*
X184000003Y-64482251D01*
X183999997Y-64482251D01*
X183856295Y-64501169D01*
X183856288Y-64501171D01*
X183722373Y-64556640D01*
X183607384Y-64644875D01*
X183607374Y-64644885D01*
X183519139Y-64759874D01*
X183463670Y-64893789D01*
X183463668Y-64893796D01*
X183444750Y-65037498D01*
X183444750Y-65037503D01*
X183463668Y-65181205D01*
X183463670Y-65181212D01*
X183491203Y-65247681D01*
X183499500Y-65289393D01*
X183499500Y-65573273D01*
X183478683Y-65637342D01*
X183467580Y-65650341D01*
X183382941Y-65734981D01*
X183370183Y-65747739D01*
X183274209Y-65900480D01*
X183274208Y-65900483D01*
X183214633Y-66070737D01*
X183214632Y-66070742D01*
X183194435Y-66250000D01*
X183214632Y-66429257D01*
X183214633Y-66429262D01*
X183274208Y-66599516D01*
X183274209Y-66599519D01*
X183297557Y-66636677D01*
X183370184Y-66752262D01*
X183467576Y-66849654D01*
X183498158Y-66909676D01*
X183499500Y-66926727D01*
X183499500Y-67965891D01*
X183533607Y-68093185D01*
X183553414Y-68127492D01*
X183557738Y-68134981D01*
X183558231Y-68135834D01*
X183572237Y-68201727D01*
X183544837Y-68263269D01*
X183505546Y-68291037D01*
X183384981Y-68340976D01*
X183275214Y-68425204D01*
X183275204Y-68425214D01*
X183190976Y-68534981D01*
X183138026Y-68662814D01*
X183138024Y-68662821D01*
X183119965Y-68799997D01*
X183119965Y-68800002D01*
X183138024Y-68937178D01*
X183138026Y-68937185D01*
X183190974Y-69065014D01*
X183190976Y-69065018D01*
X183275209Y-69174791D01*
X183275213Y-69174794D01*
X183275214Y-69174795D01*
X183276511Y-69175790D01*
X183384982Y-69259024D01*
X183448899Y-69285499D01*
X183512814Y-69311973D01*
X183512821Y-69311975D01*
X183649997Y-69330035D01*
X183650000Y-69330035D01*
X183650003Y-69330035D01*
X183787178Y-69311975D01*
X183787180Y-69311974D01*
X183787183Y-69311974D01*
X183915018Y-69259024D01*
X184024791Y-69174791D01*
X184109024Y-69065018D01*
X184148575Y-68969530D01*
X184192324Y-68918305D01*
X184257829Y-68902578D01*
X184320067Y-68928357D01*
X184326353Y-68934167D01*
X184767575Y-69375389D01*
X184798158Y-69435413D01*
X184799500Y-69452464D01*
X184799500Y-69806491D01*
X184778683Y-69870560D01*
X184724183Y-69910156D01*
X184656817Y-69910156D01*
X184648788Y-69907194D01*
X184543711Y-69863670D01*
X184543704Y-69863668D01*
X184400003Y-69844750D01*
X184399997Y-69844750D01*
X184256295Y-69863668D01*
X184256288Y-69863670D01*
X184122373Y-69919139D01*
X184007384Y-70007374D01*
X184007374Y-70007384D01*
X183919139Y-70122373D01*
X183900703Y-70166883D01*
X183856952Y-70218109D01*
X183791448Y-70233835D01*
X183729210Y-70208055D01*
X183699297Y-70166883D01*
X183680860Y-70122373D01*
X183592625Y-70007384D01*
X183592624Y-70007383D01*
X183592621Y-70007379D01*
X183592616Y-70007375D01*
X183592615Y-70007374D01*
X183477626Y-69919139D01*
X183343711Y-69863670D01*
X183343704Y-69863668D01*
X183200003Y-69844750D01*
X183199997Y-69844750D01*
X183056295Y-69863668D01*
X183056288Y-69863670D01*
X182922373Y-69919139D01*
X182807384Y-70007374D01*
X182807374Y-70007384D01*
X182719139Y-70122373D01*
X182663670Y-70256288D01*
X182663668Y-70256295D01*
X182644750Y-70399997D01*
X182644750Y-70400002D01*
X182663668Y-70543704D01*
X182663670Y-70543711D01*
X182719139Y-70677626D01*
X182807374Y-70792615D01*
X182807379Y-70792621D01*
X182807383Y-70792624D01*
X182807384Y-70792625D01*
X182922373Y-70880860D01*
X182922374Y-70880860D01*
X182922375Y-70880861D01*
X182951211Y-70892805D01*
X183056288Y-70936329D01*
X183056295Y-70936331D01*
X183199997Y-70955250D01*
X183200000Y-70955250D01*
X183200003Y-70955250D01*
X183343704Y-70936331D01*
X183343706Y-70936330D01*
X183343709Y-70936330D01*
X183477625Y-70880861D01*
X183592621Y-70792621D01*
X183680861Y-70677625D01*
X183699297Y-70633116D01*
X183743047Y-70581891D01*
X183808551Y-70566164D01*
X183870789Y-70591943D01*
X183900703Y-70633116D01*
X183919139Y-70677626D01*
X184007374Y-70792615D01*
X184007379Y-70792621D01*
X184007383Y-70792624D01*
X184007384Y-70792625D01*
X184122373Y-70880860D01*
X184122374Y-70880860D01*
X184122375Y-70880861D01*
X184151211Y-70892805D01*
X184256288Y-70936329D01*
X184256295Y-70936331D01*
X184399997Y-70955250D01*
X184400000Y-70955250D01*
X184400003Y-70955250D01*
X184543704Y-70936331D01*
X184543706Y-70936330D01*
X184543709Y-70936330D01*
X184648789Y-70892804D01*
X184715946Y-70887520D01*
X184773384Y-70922718D01*
X184799164Y-70984956D01*
X184799500Y-70993508D01*
X184799500Y-73171939D01*
X184778683Y-73236008D01*
X184724183Y-73275604D01*
X184676273Y-73280006D01*
X184600004Y-73269965D01*
X184599997Y-73269965D01*
X184462821Y-73288024D01*
X184462814Y-73288026D01*
X184334981Y-73340976D01*
X184225214Y-73425204D01*
X184225204Y-73425214D01*
X184140976Y-73534981D01*
X184088026Y-73662814D01*
X184088025Y-73662820D01*
X184086791Y-73672193D01*
X184057787Y-73732995D01*
X183998584Y-73765137D01*
X183937013Y-73758665D01*
X183887188Y-73738027D01*
X183887178Y-73738024D01*
X183750003Y-73719965D01*
X183749997Y-73719965D01*
X183612821Y-73738024D01*
X183612814Y-73738026D01*
X183484981Y-73790976D01*
X183375214Y-73875204D01*
X183375204Y-73875214D01*
X183290976Y-73984981D01*
X183238026Y-74112814D01*
X183238024Y-74112821D01*
X183219965Y-74249997D01*
X183219965Y-74250002D01*
X183238024Y-74387178D01*
X183238026Y-74387185D01*
X183290974Y-74515014D01*
X183290976Y-74515018D01*
X183375067Y-74624607D01*
X183375209Y-74624791D01*
X183375212Y-74624793D01*
X183380261Y-74629842D01*
X183378964Y-74631138D01*
X183412078Y-74679329D01*
X183410309Y-74746671D01*
X183373922Y-74796750D01*
X183366007Y-74802823D01*
X183365997Y-74802833D01*
X183281769Y-74912600D01*
X183228819Y-75040433D01*
X183228817Y-75040440D01*
X183210758Y-75177616D01*
X183210758Y-75177621D01*
X183228817Y-75314797D01*
X183228819Y-75314804D01*
X183281767Y-75442633D01*
X183281769Y-75442637D01*
X183364152Y-75550000D01*
X183366002Y-75552410D01*
X183475775Y-75636643D01*
X183501190Y-75647170D01*
X183603607Y-75689592D01*
X183603614Y-75689594D01*
X183740790Y-75707654D01*
X183740793Y-75707654D01*
X183740796Y-75707654D01*
X183877971Y-75689594D01*
X183877973Y-75689593D01*
X183877976Y-75689593D01*
X184005811Y-75636643D01*
X184115584Y-75552410D01*
X184199817Y-75442637D01*
X184252767Y-75314802D01*
X184254337Y-75302881D01*
X184270828Y-75177621D01*
X184270828Y-75177616D01*
X184252768Y-75040440D01*
X184252766Y-75040433D01*
X184220618Y-74962821D01*
X184199817Y-74912602D01*
X184199816Y-74912601D01*
X184199816Y-74912600D01*
X184115588Y-74802833D01*
X184115587Y-74802832D01*
X184115584Y-74802828D01*
X184115579Y-74802824D01*
X184110532Y-74797777D01*
X184111827Y-74796481D01*
X184078713Y-74748286D01*
X184080485Y-74680943D01*
X184116875Y-74630864D01*
X184124791Y-74624791D01*
X184209024Y-74515018D01*
X184261974Y-74387183D01*
X184263207Y-74377812D01*
X184292206Y-74317009D01*
X184351407Y-74284863D01*
X184412987Y-74291334D01*
X184462814Y-74311973D01*
X184462821Y-74311975D01*
X184599997Y-74330035D01*
X184600000Y-74330035D01*
X184600001Y-74330035D01*
X184617390Y-74327745D01*
X184676272Y-74319993D01*
X184742509Y-74332268D01*
X184788881Y-74381133D01*
X184799500Y-74428060D01*
X184799500Y-75190891D01*
X184833607Y-75318185D01*
X184894542Y-75423727D01*
X184899500Y-75432314D01*
X185367686Y-75900500D01*
X185367688Y-75900501D01*
X185470000Y-75959571D01*
X185515076Y-76009634D01*
X185524500Y-76053968D01*
X185524500Y-78344858D01*
X185524502Y-78344879D01*
X185527414Y-78369988D01*
X185527414Y-78369990D01*
X185527415Y-78369991D01*
X185572794Y-78472765D01*
X185652235Y-78552206D01*
X185755009Y-78597585D01*
X185780135Y-78600500D01*
X186514663Y-78600499D01*
X186578731Y-78621316D01*
X186581481Y-78623664D01*
X186586951Y-78627639D01*
X186699854Y-78685165D01*
X186793518Y-78699998D01*
X186870149Y-78699998D01*
X186870149Y-78703097D01*
X186920400Y-78711025D01*
X186968064Y-78758631D01*
X186979041Y-78793947D01*
X186988024Y-78862179D01*
X186988026Y-78862187D01*
X187040974Y-78990016D01*
X187040976Y-78990020D01*
X187120265Y-79093351D01*
X187125209Y-79099793D01*
X187125213Y-79099796D01*
X187125214Y-79099797D01*
X187137372Y-79109126D01*
X187234982Y-79184026D01*
X187265105Y-79196503D01*
X187362814Y-79236975D01*
X187362821Y-79236977D01*
X187499997Y-79255037D01*
X187500000Y-79255037D01*
X187500003Y-79255037D01*
X187637178Y-79236977D01*
X187637180Y-79236976D01*
X187637183Y-79236976D01*
X187765018Y-79184026D01*
X187874791Y-79099793D01*
X187959024Y-78990020D01*
X187983791Y-78930225D01*
X188027539Y-78879002D01*
X188093043Y-78863275D01*
X188155281Y-78889054D01*
X188182312Y-78931817D01*
X188185292Y-78930583D01*
X188240974Y-79065014D01*
X188240976Y-79065018D01*
X188298884Y-79140485D01*
X188325209Y-79174791D01*
X188325213Y-79174794D01*
X188325214Y-79174795D01*
X188353504Y-79196503D01*
X188434982Y-79259024D01*
X188496229Y-79284393D01*
X188562814Y-79311973D01*
X188562821Y-79311975D01*
X188699997Y-79330035D01*
X188700000Y-79330035D01*
X188700003Y-79330035D01*
X188837178Y-79311975D01*
X188837180Y-79311974D01*
X188837183Y-79311974D01*
X188965018Y-79259024D01*
X188970214Y-79255037D01*
X188979353Y-79248025D01*
X189042854Y-79225537D01*
X189045708Y-79225500D01*
X190781018Y-79225500D01*
X190889237Y-79196503D01*
X190986263Y-79140485D01*
X191143838Y-78982909D01*
X191203860Y-78952328D01*
X191270396Y-78962866D01*
X191318031Y-79010501D01*
X191321614Y-79018274D01*
X191340974Y-79065014D01*
X191340976Y-79065018D01*
X191398884Y-79140485D01*
X191425209Y-79174791D01*
X191425213Y-79174794D01*
X191425214Y-79174795D01*
X191453504Y-79196503D01*
X191534982Y-79259024D01*
X191596229Y-79284393D01*
X191662814Y-79311973D01*
X191662821Y-79311975D01*
X191799997Y-79330035D01*
X191800000Y-79330035D01*
X191800003Y-79330035D01*
X191937178Y-79311975D01*
X191937180Y-79311974D01*
X191937183Y-79311974D01*
X192065018Y-79259024D01*
X192174791Y-79174791D01*
X192259024Y-79065018D01*
X192311974Y-78937183D01*
X192312681Y-78931817D01*
X192321850Y-78862169D01*
X192330035Y-78800000D01*
X192319993Y-78723725D01*
X192332270Y-78657489D01*
X192381135Y-78611117D01*
X192428061Y-78600499D01*
X192619858Y-78600499D01*
X192619864Y-78600499D01*
X192628088Y-78599545D01*
X192644987Y-78597586D01*
X192644988Y-78597585D01*
X192644991Y-78597585D01*
X192655971Y-78592736D01*
X192722986Y-78585899D01*
X192744024Y-78592735D01*
X192755009Y-78597585D01*
X192780135Y-78600500D01*
X193119864Y-78600499D01*
X193128088Y-78599545D01*
X193144987Y-78597586D01*
X193144988Y-78597585D01*
X193144991Y-78597585D01*
X193155971Y-78592736D01*
X193222986Y-78585899D01*
X193244024Y-78592735D01*
X193255009Y-78597585D01*
X193280135Y-78600500D01*
X193619864Y-78600499D01*
X193628088Y-78599545D01*
X193644987Y-78597586D01*
X193644988Y-78597585D01*
X193644991Y-78597585D01*
X193655971Y-78592736D01*
X193722986Y-78585899D01*
X193744024Y-78592735D01*
X193755009Y-78597585D01*
X193780135Y-78600500D01*
X194119864Y-78600499D01*
X194128088Y-78599545D01*
X194144987Y-78597586D01*
X194144988Y-78597585D01*
X194144991Y-78597585D01*
X194155971Y-78592736D01*
X194222986Y-78585899D01*
X194244024Y-78592735D01*
X194255009Y-78597585D01*
X194280135Y-78600500D01*
X194619864Y-78600499D01*
X194628088Y-78599545D01*
X194644987Y-78597586D01*
X194644988Y-78597585D01*
X194644991Y-78597585D01*
X194655971Y-78592736D01*
X194722986Y-78585899D01*
X194744024Y-78592735D01*
X194755009Y-78597585D01*
X194780135Y-78600500D01*
X195119864Y-78600499D01*
X195128088Y-78599545D01*
X195144987Y-78597586D01*
X195144988Y-78597585D01*
X195144991Y-78597585D01*
X195155971Y-78592736D01*
X195222986Y-78585899D01*
X195244024Y-78592735D01*
X195255009Y-78597585D01*
X195280135Y-78600500D01*
X195514663Y-78600499D01*
X195578731Y-78621316D01*
X195581481Y-78623664D01*
X195586951Y-78627639D01*
X195699854Y-78685165D01*
X195793518Y-78699999D01*
X195950000Y-78699999D01*
X195950000Y-78699998D01*
X196450000Y-78699998D01*
X196450001Y-78699999D01*
X196606478Y-78699999D01*
X196606483Y-78699998D01*
X196700146Y-78685165D01*
X196813045Y-78627640D01*
X196902640Y-78538045D01*
X196960165Y-78425146D01*
X196960165Y-78425145D01*
X196974999Y-78331482D01*
X196975000Y-78331480D01*
X196975000Y-77400001D01*
X196974999Y-77400000D01*
X196450001Y-77400000D01*
X196450000Y-77400001D01*
X196450000Y-78699998D01*
X195950000Y-78699998D01*
X195950000Y-76899999D01*
X196450000Y-76899999D01*
X196450001Y-76900000D01*
X196974998Y-76900000D01*
X196974999Y-76899999D01*
X196974999Y-75968522D01*
X196974998Y-75968516D01*
X196960165Y-75874853D01*
X196902640Y-75761954D01*
X196813045Y-75672359D01*
X196700145Y-75614834D01*
X196606482Y-75600000D01*
X196450001Y-75600000D01*
X196450000Y-75600001D01*
X196450000Y-76899999D01*
X195950000Y-76899999D01*
X195950000Y-75600001D01*
X195949999Y-75600000D01*
X195793522Y-75600000D01*
X195793516Y-75600001D01*
X195699853Y-75614834D01*
X195586953Y-75672360D01*
X195580014Y-75677402D01*
X195577975Y-75674595D01*
X195531673Y-75698165D01*
X195514664Y-75699500D01*
X195280141Y-75699500D01*
X195280120Y-75699502D01*
X195255014Y-75702413D01*
X195255003Y-75702416D01*
X195244022Y-75707265D01*
X195177004Y-75714098D01*
X195155980Y-75707266D01*
X195144991Y-75702415D01*
X195119865Y-75699500D01*
X194934644Y-75699500D01*
X194870575Y-75678683D01*
X194830979Y-75624183D01*
X194826576Y-75576274D01*
X194829717Y-75552414D01*
X194830035Y-75550000D01*
X194828847Y-75540976D01*
X194813411Y-75423727D01*
X194825687Y-75357489D01*
X194874552Y-75311117D01*
X194921475Y-75300499D01*
X195119864Y-75300499D01*
X195130962Y-75299212D01*
X195144987Y-75297586D01*
X195144988Y-75297585D01*
X195144991Y-75297585D01*
X195155971Y-75292736D01*
X195222986Y-75285899D01*
X195244024Y-75292735D01*
X195255009Y-75297585D01*
X195280135Y-75300500D01*
X195619864Y-75300499D01*
X195630962Y-75299212D01*
X195644987Y-75297586D01*
X195644988Y-75297585D01*
X195644991Y-75297585D01*
X195655971Y-75292736D01*
X195722986Y-75285899D01*
X195744024Y-75292735D01*
X195755009Y-75297585D01*
X195780135Y-75300500D01*
X196619864Y-75300499D01*
X196644991Y-75297585D01*
X196747765Y-75252206D01*
X196827206Y-75172765D01*
X196872585Y-75069991D01*
X196875500Y-75044865D01*
X196875499Y-72655136D01*
X196872585Y-72630009D01*
X196827206Y-72527235D01*
X196747765Y-72447794D01*
X196644991Y-72402415D01*
X196619865Y-72399500D01*
X196619864Y-72399500D01*
X195780141Y-72399500D01*
X195780120Y-72399502D01*
X195755014Y-72402413D01*
X195755003Y-72402416D01*
X195744022Y-72407265D01*
X195677004Y-72414098D01*
X195655980Y-72407266D01*
X195644991Y-72402415D01*
X195619865Y-72399500D01*
X195619864Y-72399500D01*
X195280141Y-72399500D01*
X195280120Y-72399502D01*
X195255014Y-72402413D01*
X195255003Y-72402416D01*
X195244022Y-72407265D01*
X195177004Y-72414098D01*
X195155980Y-72407266D01*
X195144991Y-72402415D01*
X195119865Y-72399500D01*
X194885336Y-72399500D01*
X194821267Y-72378683D01*
X194818514Y-72376332D01*
X194813048Y-72372360D01*
X194700145Y-72314834D01*
X194606482Y-72300000D01*
X194601291Y-72300000D01*
X194537222Y-72279183D01*
X194497626Y-72224683D01*
X194497626Y-72157317D01*
X194524214Y-72113927D01*
X196138141Y-70500000D01*
X198094435Y-70500000D01*
X198114632Y-70679257D01*
X198114633Y-70679262D01*
X198174208Y-70849516D01*
X198174209Y-70849519D01*
X198177512Y-70854775D01*
X198270184Y-71002262D01*
X198397738Y-71129816D01*
X198397740Y-71129817D01*
X198397741Y-71129818D01*
X198523491Y-71208832D01*
X198566664Y-71260545D01*
X198574500Y-71301125D01*
X198574500Y-74956017D01*
X198603496Y-75064236D01*
X198659515Y-75161263D01*
X198663862Y-75166928D01*
X198661105Y-75169043D01*
X198685257Y-75216445D01*
X198685666Y-75219265D01*
X198688025Y-75237182D01*
X198728304Y-75334426D01*
X198733589Y-75401585D01*
X198698390Y-75459023D01*
X198641831Y-75484205D01*
X198612821Y-75488025D01*
X198612814Y-75488026D01*
X198484981Y-75540976D01*
X198375214Y-75625204D01*
X198375204Y-75625214D01*
X198290976Y-75734981D01*
X198238026Y-75862814D01*
X198238024Y-75862821D01*
X198219965Y-75999997D01*
X198219965Y-76000002D01*
X198238024Y-76137178D01*
X198238026Y-76137185D01*
X198290974Y-76265014D01*
X198290976Y-76265018D01*
X198375209Y-76374791D01*
X198484982Y-76459024D01*
X198498524Y-76464633D01*
X198612814Y-76511973D01*
X198612821Y-76511975D01*
X198749997Y-76530035D01*
X198750000Y-76530035D01*
X198750003Y-76530035D01*
X198887178Y-76511975D01*
X198887180Y-76511974D01*
X198887183Y-76511974D01*
X199015018Y-76459024D01*
X199124791Y-76374791D01*
X199209024Y-76265018D01*
X199261974Y-76137183D01*
X199280035Y-76000000D01*
X199275890Y-75968516D01*
X199261975Y-75862821D01*
X199261974Y-75862817D01*
X199261973Y-75862814D01*
X199221693Y-75765570D01*
X199216409Y-75698416D01*
X199251607Y-75640977D01*
X199308167Y-75615794D01*
X199337183Y-75611974D01*
X199465018Y-75559024D01*
X199574791Y-75474791D01*
X199659024Y-75365018D01*
X199711974Y-75237183D01*
X199714705Y-75216445D01*
X199730035Y-75100002D01*
X199730035Y-75099997D01*
X199711975Y-74962821D01*
X199711973Y-74962814D01*
X199659023Y-74834981D01*
X199574795Y-74725214D01*
X199574794Y-74725213D01*
X199574791Y-74725209D01*
X199542604Y-74700511D01*
X199468144Y-74643374D01*
X199429988Y-74587855D01*
X199425500Y-74556899D01*
X199425500Y-71151727D01*
X199446317Y-71087658D01*
X199457419Y-71074658D01*
X199529816Y-71002262D01*
X199625789Y-70849522D01*
X199637235Y-70816810D01*
X199685366Y-70679262D01*
X199685367Y-70679257D01*
X199685368Y-70679255D01*
X199705565Y-70500000D01*
X199685368Y-70320745D01*
X199685367Y-70320742D01*
X199685366Y-70320737D01*
X199625791Y-70150483D01*
X199625790Y-70150480D01*
X199625789Y-70150478D01*
X199529816Y-69997738D01*
X199402262Y-69870184D01*
X199249522Y-69774211D01*
X199249519Y-69774209D01*
X199249516Y-69774208D01*
X199079262Y-69714633D01*
X199079257Y-69714632D01*
X198900000Y-69694435D01*
X198720742Y-69714632D01*
X198720737Y-69714633D01*
X198550483Y-69774208D01*
X198550480Y-69774209D01*
X198397739Y-69870183D01*
X198270183Y-69997739D01*
X198174209Y-70150480D01*
X198174208Y-70150483D01*
X198114633Y-70320737D01*
X198114632Y-70320742D01*
X198094435Y-70500000D01*
X196138141Y-70500000D01*
X196452287Y-70185854D01*
X196452297Y-70185847D01*
X196487666Y-70150478D01*
X196540485Y-70097659D01*
X196596503Y-70000633D01*
X196610204Y-69949500D01*
X196625500Y-69892415D01*
X196625500Y-69780378D01*
X196625500Y-68509500D01*
X196646317Y-68445431D01*
X196700817Y-68405835D01*
X196734500Y-68400500D01*
X197324267Y-68400500D01*
X197331874Y-68399786D01*
X197354699Y-68397646D01*
X197482882Y-68352793D01*
X197539305Y-68311151D01*
X197592218Y-68272100D01*
X197656129Y-68250804D01*
X197720351Y-68271141D01*
X197723299Y-68273326D01*
X197773666Y-68311974D01*
X197834982Y-68359024D01*
X197836252Y-68359550D01*
X197962814Y-68411973D01*
X197962821Y-68411975D01*
X198099997Y-68430035D01*
X198100000Y-68430035D01*
X198100003Y-68430035D01*
X198237178Y-68411975D01*
X198237180Y-68411974D01*
X198237183Y-68411974D01*
X198365018Y-68359024D01*
X198474791Y-68274791D01*
X198559024Y-68165018D01*
X198611974Y-68037183D01*
X198612302Y-68034696D01*
X198630035Y-67900002D01*
X198630035Y-67899997D01*
X198611975Y-67762821D01*
X198611973Y-67762814D01*
X198570552Y-67662814D01*
X198559024Y-67634983D01*
X198559023Y-67634982D01*
X198559023Y-67634981D01*
X198474795Y-67525214D01*
X198474794Y-67525213D01*
X198474791Y-67525209D01*
X198474786Y-67525205D01*
X198474785Y-67525204D01*
X198391732Y-67461475D01*
X198353576Y-67405957D01*
X198355339Y-67338615D01*
X198391732Y-67288525D01*
X198474791Y-67224791D01*
X198559024Y-67115018D01*
X198611974Y-66987183D01*
X198619934Y-66926727D01*
X198630035Y-66850002D01*
X198630035Y-66849997D01*
X198611975Y-66712821D01*
X198611973Y-66712814D01*
X198580436Y-66636677D01*
X198559024Y-66584983D01*
X198559023Y-66584982D01*
X198559023Y-66584981D01*
X198474795Y-66475214D01*
X198474794Y-66475213D01*
X198474791Y-66475209D01*
X198474786Y-66475205D01*
X198474785Y-66475204D01*
X198365018Y-66390976D01*
X198365014Y-66390974D01*
X198237185Y-66338026D01*
X198237178Y-66338024D01*
X198100003Y-66319965D01*
X198099997Y-66319965D01*
X197962821Y-66338024D01*
X197962814Y-66338026D01*
X197834981Y-66390976D01*
X197725214Y-66475204D01*
X197725204Y-66475214D01*
X197640976Y-66584981D01*
X197588026Y-66712814D01*
X197588024Y-66712821D01*
X197569965Y-66849997D01*
X197569965Y-66850002D01*
X197588024Y-66987178D01*
X197588026Y-66987185D01*
X197639661Y-67111845D01*
X197644946Y-67179004D01*
X197609747Y-67236442D01*
X197547509Y-67262221D01*
X197488030Y-67249928D01*
X197482882Y-67247207D01*
X197354700Y-67202354D01*
X197354696Y-67202353D01*
X197324267Y-67199500D01*
X197324266Y-67199500D01*
X196734500Y-67199500D01*
X196670431Y-67178683D01*
X196630835Y-67124183D01*
X196625500Y-67090500D01*
X196625500Y-66401125D01*
X196646317Y-66337056D01*
X196676509Y-66308832D01*
X196692189Y-66298978D01*
X196802262Y-66229816D01*
X196929816Y-66102262D01*
X197025789Y-65949522D01*
X197041462Y-65904732D01*
X197085366Y-65779262D01*
X197085367Y-65779257D01*
X197085368Y-65779255D01*
X197105565Y-65600000D01*
X197085368Y-65420745D01*
X197085367Y-65420742D01*
X197085366Y-65420737D01*
X197025791Y-65250483D01*
X197025790Y-65250480D01*
X197025789Y-65250478D01*
X196929816Y-65097738D01*
X196802262Y-64970184D01*
X196802259Y-64970182D01*
X196802256Y-64970179D01*
X196801503Y-64969706D01*
X196801184Y-64969324D01*
X196797475Y-64966366D01*
X196798080Y-64965606D01*
X196758333Y-64917990D01*
X196750500Y-64877417D01*
X196750500Y-64734114D01*
X196771317Y-64670045D01*
X196825817Y-64630449D01*
X196893183Y-64630449D01*
X196945975Y-64667759D01*
X196957379Y-64682621D01*
X196957383Y-64682624D01*
X196957384Y-64682625D01*
X197072373Y-64770860D01*
X197206288Y-64826329D01*
X197206295Y-64826331D01*
X197349997Y-64845250D01*
X197350000Y-64845250D01*
X197350003Y-64845250D01*
X197493704Y-64826331D01*
X197493706Y-64826330D01*
X197493709Y-64826330D01*
X197627625Y-64770861D01*
X197742621Y-64682621D01*
X197830861Y-64567625D01*
X197886330Y-64433709D01*
X197896624Y-64355525D01*
X197905250Y-64290002D01*
X197905250Y-64289998D01*
X197897429Y-64230596D01*
X197892900Y-64196196D01*
X197905175Y-64129961D01*
X197954040Y-64083589D01*
X198020830Y-64074795D01*
X198026639Y-64076340D01*
X198026643Y-64076326D01*
X198033119Y-64077740D01*
X198033121Y-64077741D01*
X198062543Y-64080500D01*
X198537456Y-64080499D01*
X198566879Y-64077741D01*
X198690794Y-64034381D01*
X198796423Y-63956423D01*
X198796566Y-63956230D01*
X198834358Y-63905023D01*
X198874381Y-63850794D01*
X198917741Y-63726879D01*
X198920500Y-63697457D01*
X198920499Y-63667054D01*
X198941314Y-63602988D01*
X198995813Y-63563390D01*
X199055581Y-63561221D01*
X199214944Y-63600500D01*
X199214945Y-63600500D01*
X199385055Y-63600500D01*
X199385056Y-63600500D01*
X199550225Y-63559790D01*
X199700852Y-63480734D01*
X199818721Y-63376311D01*
X199880480Y-63349409D01*
X199946259Y-63363945D01*
X199990930Y-63414369D01*
X200000000Y-63457900D01*
X200000000Y-78975164D01*
X199999998Y-78975833D01*
X199999854Y-78999302D01*
X199999838Y-79000638D01*
X199999403Y-79024284D01*
X199999388Y-79024945D01*
X199998854Y-79046773D01*
X199998639Y-79051456D01*
X199995808Y-79093351D01*
X199994776Y-79102656D01*
X199988363Y-79144136D01*
X199987549Y-79148747D01*
X199978949Y-79191982D01*
X199977777Y-79197201D01*
X199955936Y-79284397D01*
X199952830Y-79294634D01*
X199923463Y-79376710D01*
X199919370Y-79386593D01*
X199882089Y-79465417D01*
X199877046Y-79474850D01*
X199832218Y-79549641D01*
X199826276Y-79558535D01*
X199774336Y-79628569D01*
X199767550Y-79636838D01*
X199709001Y-79701437D01*
X199701442Y-79708995D01*
X199636838Y-79767550D01*
X199628569Y-79774336D01*
X199558535Y-79826276D01*
X199549641Y-79832218D01*
X199474850Y-79877046D01*
X199465417Y-79882089D01*
X199386593Y-79919370D01*
X199376710Y-79923463D01*
X199294634Y-79952830D01*
X199284397Y-79955936D01*
X199197201Y-79977777D01*
X199191982Y-79978949D01*
X199148747Y-79987549D01*
X199144136Y-79988363D01*
X199102656Y-79994776D01*
X199093351Y-79995808D01*
X199051456Y-79998639D01*
X199046773Y-79998854D01*
X199024945Y-79999388D01*
X199024284Y-79999403D01*
X199000638Y-79999838D01*
X198999302Y-79999854D01*
X198976596Y-79999993D01*
X198975831Y-79999998D01*
X198975165Y-80000000D01*
X181024835Y-80000000D01*
X181024168Y-79999998D01*
X181023385Y-79999993D01*
X181000697Y-79999854D01*
X180999361Y-79999838D01*
X180975715Y-79999403D01*
X180975054Y-79999388D01*
X180953226Y-79998854D01*
X180948543Y-79998639D01*
X180906648Y-79995808D01*
X180897343Y-79994776D01*
X180855863Y-79988363D01*
X180851252Y-79987549D01*
X180840735Y-79985457D01*
X180808007Y-79978946D01*
X180802798Y-79977777D01*
X180715602Y-79955936D01*
X180705365Y-79952830D01*
X180623289Y-79923463D01*
X180613411Y-79919372D01*
X180534582Y-79882089D01*
X180525149Y-79877047D01*
X180450361Y-79832221D01*
X180441468Y-79826278D01*
X180371431Y-79774336D01*
X180363171Y-79767558D01*
X180298546Y-79708985D01*
X180291014Y-79701453D01*
X180232439Y-79636825D01*
X180225663Y-79628569D01*
X180173723Y-79558535D01*
X180167781Y-79549641D01*
X180122953Y-79474850D01*
X180117914Y-79465425D01*
X180080626Y-79386585D01*
X180076541Y-79376721D01*
X180047168Y-79294630D01*
X180044062Y-79284393D01*
X180037707Y-79259023D01*
X180022219Y-79197191D01*
X180021059Y-79192022D01*
X180012444Y-79148714D01*
X180011636Y-79144136D01*
X180009016Y-79127186D01*
X180005222Y-79102646D01*
X180004191Y-79093355D01*
X180001359Y-79051434D01*
X180001147Y-79046812D01*
X180000600Y-79024487D01*
X180000159Y-79000525D01*
X180000146Y-78999418D01*
X180000002Y-78975828D01*
X180000000Y-78975164D01*
X180000000Y-77250000D01*
X180444435Y-77250000D01*
X180464632Y-77429257D01*
X180464633Y-77429262D01*
X180524209Y-77599520D01*
X180557793Y-77652967D01*
X180574500Y-77710959D01*
X180574500Y-78251444D01*
X180553683Y-78315513D01*
X180551977Y-78317797D01*
X180540976Y-78332134D01*
X180488026Y-78459965D01*
X180488024Y-78459972D01*
X180469965Y-78597148D01*
X180469965Y-78597153D01*
X180488024Y-78734329D01*
X180488026Y-78734336D01*
X180540974Y-78862165D01*
X180540976Y-78862169D01*
X180618244Y-78962866D01*
X180625209Y-78971942D01*
X180734982Y-79056175D01*
X180798899Y-79082650D01*
X180862814Y-79109124D01*
X180862821Y-79109126D01*
X180999997Y-79127186D01*
X181000000Y-79127186D01*
X181000003Y-79127186D01*
X181137178Y-79109126D01*
X181137180Y-79109125D01*
X181137183Y-79109125D01*
X181265018Y-79056175D01*
X181374791Y-78971942D01*
X181459024Y-78862169D01*
X181511974Y-78734334D01*
X181516495Y-78699999D01*
X181530035Y-78597153D01*
X181530035Y-78597148D01*
X181511975Y-78459972D01*
X181511973Y-78459965D01*
X181497550Y-78425145D01*
X181459024Y-78332134D01*
X181448022Y-78317796D01*
X181425537Y-78254295D01*
X181425500Y-78251444D01*
X181425500Y-78114021D01*
X181446317Y-78049952D01*
X181498497Y-78011139D01*
X181599522Y-77975789D01*
X181752262Y-77879816D01*
X181879816Y-77752262D01*
X181975789Y-77599522D01*
X182035368Y-77429255D01*
X182055565Y-77250000D01*
X182035368Y-77070745D01*
X182035367Y-77070742D01*
X182035366Y-77070737D01*
X181975791Y-76900483D01*
X181975790Y-76900480D01*
X181975789Y-76900478D01*
X181879816Y-76747738D01*
X181752262Y-76620184D01*
X181599522Y-76524211D01*
X181599519Y-76524209D01*
X181599516Y-76524208D01*
X181429262Y-76464633D01*
X181429257Y-76464632D01*
X181250000Y-76444435D01*
X181070742Y-76464632D01*
X181070737Y-76464633D01*
X180900483Y-76524208D01*
X180900480Y-76524209D01*
X180747739Y-76620183D01*
X180620183Y-76747739D01*
X180524209Y-76900480D01*
X180524208Y-76900483D01*
X180464633Y-77070737D01*
X180464632Y-77070742D01*
X180444435Y-77250000D01*
X180000000Y-77250000D01*
X180000000Y-72800002D01*
X180444965Y-72800002D01*
X180463024Y-72937178D01*
X180463026Y-72937185D01*
X180515974Y-73065014D01*
X180515976Y-73065018D01*
X180598020Y-73171939D01*
X180600209Y-73174791D01*
X180709982Y-73259024D01*
X180760638Y-73280006D01*
X180837814Y-73311973D01*
X180837821Y-73311975D01*
X180974997Y-73330035D01*
X180975000Y-73330035D01*
X180975003Y-73330035D01*
X181112178Y-73311975D01*
X181112180Y-73311974D01*
X181112183Y-73311974D01*
X181240018Y-73259024D01*
X181349791Y-73174791D01*
X181434024Y-73065018D01*
X181486974Y-72937183D01*
X181505035Y-72800000D01*
X181486974Y-72662817D01*
X181483792Y-72655136D01*
X181434023Y-72534981D01*
X181349795Y-72425214D01*
X181349794Y-72425213D01*
X181349791Y-72425209D01*
X181349786Y-72425205D01*
X181349785Y-72425204D01*
X181240018Y-72340976D01*
X181240014Y-72340974D01*
X181112185Y-72288026D01*
X181112178Y-72288024D01*
X180975003Y-72269965D01*
X180974997Y-72269965D01*
X180837821Y-72288024D01*
X180837814Y-72288026D01*
X180709981Y-72340976D01*
X180600214Y-72425204D01*
X180600204Y-72425214D01*
X180515976Y-72534981D01*
X180463026Y-72662814D01*
X180463024Y-72662821D01*
X180444965Y-72799997D01*
X180444965Y-72800002D01*
X180000000Y-72800002D01*
X180000000Y-67040589D01*
X181312961Y-67040589D01*
X181312962Y-67040590D01*
X181470343Y-67110661D01*
X181470352Y-67110664D01*
X181655405Y-67150000D01*
X181844595Y-67150000D01*
X182029647Y-67110664D01*
X182029652Y-67110662D01*
X182187036Y-67040590D01*
X182187036Y-67040589D01*
X181749999Y-66603553D01*
X181312961Y-67040589D01*
X180000000Y-67040589D01*
X180000000Y-66250000D01*
X180845043Y-66250000D01*
X180864817Y-66438145D01*
X180864818Y-66438151D01*
X180923280Y-66618077D01*
X180961744Y-66684700D01*
X181396445Y-66249999D01*
X182103553Y-66249999D01*
X182538254Y-66684700D01*
X182538255Y-66684700D01*
X182576715Y-66618086D01*
X182576720Y-66618075D01*
X182635181Y-66438151D01*
X182635182Y-66438145D01*
X182654956Y-66250000D01*
X182635182Y-66061854D01*
X182635181Y-66061848D01*
X182576719Y-65881921D01*
X182576717Y-65881916D01*
X182538254Y-65815297D01*
X182538253Y-65815297D01*
X182103553Y-66249999D01*
X181396445Y-66249999D01*
X180961744Y-65815298D01*
X180923280Y-65881922D01*
X180864818Y-66061848D01*
X180864817Y-66061854D01*
X180845043Y-66250000D01*
X180000000Y-66250000D01*
X180000000Y-65459409D01*
X181312962Y-65459409D01*
X181749999Y-65896446D01*
X182187036Y-65459409D01*
X182187037Y-65459409D01*
X182029647Y-65389335D01*
X181844595Y-65350000D01*
X181655405Y-65350000D01*
X181470353Y-65389335D01*
X181312962Y-65459409D01*
X180000000Y-65459409D01*
X180000000Y-51049999D01*
X189900000Y-51049999D01*
X189900001Y-51050000D01*
X190874999Y-51050000D01*
X190875000Y-51049999D01*
X190875000Y-50250001D01*
X190874999Y-50250000D01*
X190268522Y-50250000D01*
X190268516Y-50250001D01*
X190174853Y-50264834D01*
X190061954Y-50322359D01*
X189972359Y-50411954D01*
X189914834Y-50524853D01*
X189914834Y-50524854D01*
X189900000Y-50618517D01*
X189900000Y-51049999D01*
X180000000Y-51049999D01*
X180000000Y-51024835D01*
X180000002Y-51024171D01*
X180000006Y-51023474D01*
X180000146Y-51000579D01*
X180000159Y-50999476D01*
X180000600Y-50975513D01*
X180001147Y-50953185D01*
X180001361Y-50948543D01*
X180004191Y-50906642D01*
X180005221Y-50897356D01*
X180011638Y-50855850D01*
X180012442Y-50851293D01*
X180021060Y-50807968D01*
X180022222Y-50802798D01*
X180044065Y-50715592D01*
X180047165Y-50705375D01*
X180076541Y-50623276D01*
X180080619Y-50613428D01*
X180117918Y-50534566D01*
X180122947Y-50525157D01*
X180167782Y-50450354D01*
X180173721Y-50441468D01*
X180225663Y-50371431D01*
X180232430Y-50363183D01*
X180291023Y-50298536D01*
X180298536Y-50291023D01*
X180363183Y-50232430D01*
X180371418Y-50225672D01*
X180441486Y-50173707D01*
X180450336Y-50167793D01*
X180525161Y-50122944D01*
X180534561Y-50117920D01*
X180613421Y-50080623D01*
X180623267Y-50076545D01*
X180705372Y-50047167D01*
X180715596Y-50044064D01*
X180802817Y-50022217D01*
X180807968Y-50021060D01*
X180851293Y-50012442D01*
X180855850Y-50011638D01*
X180897356Y-50005221D01*
X180906642Y-50004191D01*
X180948568Y-50001359D01*
X180953185Y-50001147D01*
X180975513Y-50000600D01*
X180999476Y-50000159D01*
X181000579Y-50000146D01*
X181023474Y-50000006D01*
X181024171Y-50000002D01*
X181024835Y-50000000D01*
X192001531Y-50000000D01*
X192065600Y-50020817D01*
G37*
%TD.AperFunction*%
%TA.AperFunction,Conductor*%
G36*
X190234985Y-69973277D02*
G01*
X190282620Y-70020912D01*
X190294500Y-70070397D01*
X190294500Y-71290257D01*
X190297274Y-71319847D01*
X190297275Y-71319849D01*
X190340883Y-71444474D01*
X190340884Y-71444475D01*
X190419289Y-71550711D01*
X190525525Y-71629116D01*
X190650151Y-71672725D01*
X190664947Y-71674112D01*
X190679743Y-71675500D01*
X190679744Y-71675500D01*
X191060257Y-71675500D01*
X191070120Y-71674575D01*
X191089849Y-71672725D01*
X191214475Y-71629116D01*
X191320711Y-71550711D01*
X191399116Y-71444475D01*
X191442725Y-71319849D01*
X191445500Y-71290256D01*
X191445500Y-71059500D01*
X191466317Y-70995431D01*
X191520817Y-70955835D01*
X191554500Y-70950500D01*
X192277418Y-70950500D01*
X192341487Y-70971317D01*
X192366125Y-70997672D01*
X192366369Y-70997478D01*
X192368838Y-71000574D01*
X192369708Y-71001505D01*
X192370184Y-71002262D01*
X192497738Y-71129816D01*
X192650478Y-71225789D01*
X192650480Y-71225790D01*
X192650483Y-71225791D01*
X192820737Y-71285366D01*
X192820742Y-71285367D01*
X192820745Y-71285368D01*
X193000000Y-71305565D01*
X193179255Y-71285368D01*
X193241699Y-71263518D01*
X193309048Y-71262006D01*
X193364423Y-71300370D01*
X193386673Y-71363955D01*
X193367298Y-71428475D01*
X193354775Y-71443476D01*
X192673405Y-72124846D01*
X192609514Y-72188736D01*
X192553497Y-72285762D01*
X192544668Y-72318712D01*
X192507977Y-72375210D01*
X192445085Y-72399351D01*
X192439383Y-72399500D01*
X192280141Y-72399500D01*
X192280120Y-72399502D01*
X192255014Y-72402413D01*
X192255003Y-72402416D01*
X192244022Y-72407265D01*
X192177004Y-72414098D01*
X192155980Y-72407266D01*
X192144991Y-72402415D01*
X192119865Y-72399500D01*
X192119864Y-72399500D01*
X191780141Y-72399500D01*
X191780120Y-72399502D01*
X191755014Y-72402413D01*
X191755003Y-72402416D01*
X191744022Y-72407265D01*
X191677004Y-72414098D01*
X191655980Y-72407266D01*
X191644991Y-72402415D01*
X191619865Y-72399500D01*
X191619864Y-72399500D01*
X191280141Y-72399500D01*
X191280120Y-72399502D01*
X191255014Y-72402413D01*
X191255003Y-72402416D01*
X191244022Y-72407265D01*
X191177004Y-72414098D01*
X191155980Y-72407266D01*
X191144991Y-72402415D01*
X191119865Y-72399500D01*
X191119864Y-72399500D01*
X190780141Y-72399500D01*
X190780120Y-72399502D01*
X190755014Y-72402413D01*
X190755003Y-72402416D01*
X190744022Y-72407265D01*
X190677004Y-72414098D01*
X190655980Y-72407266D01*
X190644991Y-72402415D01*
X190619865Y-72399500D01*
X190619864Y-72399500D01*
X190280141Y-72399500D01*
X190280120Y-72399502D01*
X190255014Y-72402413D01*
X190255003Y-72402416D01*
X190244022Y-72407265D01*
X190177004Y-72414098D01*
X190155980Y-72407266D01*
X190144991Y-72402415D01*
X190119865Y-72399500D01*
X190119864Y-72399500D01*
X189780141Y-72399500D01*
X189780120Y-72399502D01*
X189755014Y-72402413D01*
X189755003Y-72402416D01*
X189744022Y-72407265D01*
X189677004Y-72414098D01*
X189655980Y-72407266D01*
X189644991Y-72402415D01*
X189619865Y-72399500D01*
X189619864Y-72399500D01*
X189280141Y-72399500D01*
X189280120Y-72399502D01*
X189255014Y-72402413D01*
X189255003Y-72402416D01*
X189244022Y-72407265D01*
X189177004Y-72414098D01*
X189155980Y-72407266D01*
X189144991Y-72402415D01*
X189119865Y-72399500D01*
X189119864Y-72399500D01*
X188780141Y-72399500D01*
X188780120Y-72399502D01*
X188755014Y-72402413D01*
X188755003Y-72402416D01*
X188744022Y-72407265D01*
X188677004Y-72414098D01*
X188655980Y-72407266D01*
X188644991Y-72402415D01*
X188619865Y-72399500D01*
X188484500Y-72399500D01*
X188420431Y-72378683D01*
X188380835Y-72324183D01*
X188375500Y-72290500D01*
X188375500Y-71821190D01*
X188373228Y-71812711D01*
X188376754Y-71745438D01*
X188419149Y-71693085D01*
X188478514Y-71675500D01*
X188520257Y-71675500D01*
X188530120Y-71674575D01*
X188549849Y-71672725D01*
X188674475Y-71629116D01*
X188780711Y-71550711D01*
X188859116Y-71444475D01*
X188902725Y-71319849D01*
X188905500Y-71290256D01*
X188905500Y-71159277D01*
X188926317Y-71095208D01*
X188980817Y-71055612D01*
X188986291Y-71053991D01*
X189014234Y-71046504D01*
X189014234Y-71046503D01*
X189014237Y-71046503D01*
X189111263Y-70990485D01*
X190108427Y-69993320D01*
X190168449Y-69962739D01*
X190234985Y-69973277D01*
G37*
%TD.AperFunction*%
%TA.AperFunction,Conductor*%
G36*
X187888845Y-67319416D02*
G01*
X187921304Y-67346410D01*
X187921567Y-67346148D01*
X187924422Y-67349003D01*
X187925830Y-67350174D01*
X187926612Y-67351193D01*
X187926614Y-67351195D01*
X187926618Y-67351200D01*
X188036391Y-67435433D01*
X188051695Y-67441772D01*
X188164223Y-67488382D01*
X188164230Y-67488384D01*
X188301406Y-67506444D01*
X188301409Y-67506444D01*
X188301411Y-67506444D01*
X188325270Y-67503302D01*
X188413080Y-67491741D01*
X188459119Y-67495554D01*
X188558686Y-67525941D01*
X188613886Y-67564554D01*
X188635849Y-67628238D01*
X188616185Y-67692670D01*
X188613346Y-67696544D01*
X188608655Y-67702657D01*
X188608654Y-67702658D01*
X188555704Y-67830492D01*
X188555702Y-67830499D01*
X188537643Y-67967675D01*
X188537643Y-67967680D01*
X188555702Y-68104856D01*
X188555704Y-68104863D01*
X188608652Y-68232692D01*
X188608654Y-68232696D01*
X188668855Y-68311151D01*
X188692887Y-68342469D01*
X188692891Y-68342472D01*
X188692892Y-68342473D01*
X188714463Y-68359025D01*
X188802660Y-68426702D01*
X188810707Y-68430035D01*
X188930492Y-68479651D01*
X188930499Y-68479653D01*
X189067675Y-68497713D01*
X189067678Y-68497713D01*
X189067681Y-68497713D01*
X189204856Y-68479653D01*
X189204858Y-68479652D01*
X189204861Y-68479652D01*
X189332696Y-68426702D01*
X189442469Y-68342469D01*
X189526702Y-68232696D01*
X189579652Y-68104861D01*
X189579653Y-68104855D01*
X189596690Y-67975450D01*
X189625691Y-67914646D01*
X189684893Y-67882502D01*
X189736574Y-67885424D01*
X189745195Y-67888055D01*
X190573612Y-68140882D01*
X190618139Y-68171757D01*
X190620158Y-68169739D01*
X190625205Y-68174786D01*
X190625209Y-68174791D01*
X190625213Y-68174794D01*
X190627812Y-68177393D01*
X190629010Y-68179746D01*
X190629561Y-68180463D01*
X190629428Y-68180564D01*
X190658395Y-68237417D01*
X190647857Y-68303953D01*
X190600222Y-68351588D01*
X190582607Y-68358349D01*
X190579711Y-68359549D01*
X190482686Y-68415566D01*
X189026646Y-69871604D01*
X188966622Y-69902187D01*
X188900086Y-69891649D01*
X188861870Y-69859255D01*
X188780715Y-69749293D01*
X188780710Y-69749288D01*
X188674474Y-69670883D01*
X188549849Y-69627275D01*
X188549847Y-69627274D01*
X188520257Y-69624500D01*
X188520256Y-69624500D01*
X188139744Y-69624500D01*
X188139743Y-69624500D01*
X188110152Y-69627274D01*
X188110150Y-69627275D01*
X187985525Y-69670883D01*
X187879289Y-69749288D01*
X187879288Y-69749289D01*
X187800883Y-69855525D01*
X187757275Y-69980150D01*
X187757274Y-69980152D01*
X187754500Y-70009742D01*
X187754500Y-70816810D01*
X187733683Y-70880879D01*
X187679183Y-70920475D01*
X187611817Y-70920475D01*
X187568425Y-70893885D01*
X187557425Y-70882885D01*
X187526842Y-70822861D01*
X187525500Y-70805810D01*
X187525500Y-69017231D01*
X187546317Y-68953162D01*
X187600817Y-68913566D01*
X187655590Y-68912134D01*
X187655734Y-68911042D01*
X187662633Y-68911950D01*
X187662722Y-68911948D01*
X187662811Y-68911971D01*
X187662817Y-68911974D01*
X187662823Y-68911974D01*
X187662824Y-68911975D01*
X187799997Y-68930035D01*
X187800000Y-68930035D01*
X187800003Y-68930035D01*
X187937178Y-68911975D01*
X187937180Y-68911974D01*
X187937183Y-68911974D01*
X188065018Y-68859024D01*
X188174791Y-68774791D01*
X188259024Y-68665018D01*
X188311974Y-68537183D01*
X188317171Y-68497713D01*
X188330035Y-68400002D01*
X188330035Y-68399997D01*
X188311975Y-68262821D01*
X188311973Y-68262814D01*
X188259023Y-68134981D01*
X188174795Y-68025214D01*
X188174794Y-68025213D01*
X188174791Y-68025209D01*
X188174786Y-68025205D01*
X188174785Y-68025204D01*
X188065018Y-67940976D01*
X188065014Y-67940974D01*
X187937185Y-67888026D01*
X187937178Y-67888024D01*
X187800003Y-67869965D01*
X187799997Y-67869965D01*
X187662819Y-67888025D01*
X187662708Y-67888055D01*
X187662625Y-67888050D01*
X187655734Y-67888958D01*
X187655565Y-67887680D01*
X187595434Y-67884527D01*
X187543083Y-67842131D01*
X187525500Y-67782768D01*
X187525500Y-67621397D01*
X187546317Y-67557328D01*
X187557425Y-67544323D01*
X187640273Y-67461475D01*
X187762285Y-67339461D01*
X187822308Y-67308878D01*
X187888845Y-67319416D01*
G37*
%TD.AperFunction*%
%TA.AperFunction,Conductor*%
G36*
X191270490Y-63096317D02*
G01*
X191283495Y-63107424D01*
X191593530Y-63417460D01*
X191624113Y-63477483D01*
X191613575Y-63544019D01*
X191582811Y-63581009D01*
X191525211Y-63625207D01*
X191525204Y-63625214D01*
X191440976Y-63734981D01*
X191388026Y-63862814D01*
X191388024Y-63862821D01*
X191372205Y-63982980D01*
X191343203Y-64043783D01*
X191284001Y-64075927D01*
X191224150Y-64070152D01*
X191135959Y-64035373D01*
X191120000Y-64033456D01*
X191120000Y-65291000D01*
X191099183Y-65355069D01*
X191044683Y-65394665D01*
X191011000Y-65400000D01*
X190195001Y-65400000D01*
X190182983Y-65412017D01*
X190174183Y-65439102D01*
X190119683Y-65478698D01*
X190100228Y-65483100D01*
X190062821Y-65488024D01*
X190062814Y-65488026D01*
X189934981Y-65540976D01*
X189825214Y-65625204D01*
X189825204Y-65625214D01*
X189740976Y-65734981D01*
X189688026Y-65862814D01*
X189688025Y-65862821D01*
X189677819Y-65940337D01*
X189648817Y-66001140D01*
X189589615Y-66033283D01*
X189541541Y-66031394D01*
X189427769Y-66000909D01*
X188992990Y-66000909D01*
X188928921Y-65980092D01*
X188889325Y-65925592D01*
X188889325Y-65858226D01*
X188890090Y-65855955D01*
X188902725Y-65819849D01*
X188905500Y-65790256D01*
X188905500Y-64899999D01*
X190195000Y-64899999D01*
X190195001Y-64900000D01*
X190619999Y-64900000D01*
X190620000Y-64899999D01*
X190620000Y-64033456D01*
X190619999Y-64033456D01*
X190604040Y-64035373D01*
X190466589Y-64089578D01*
X190348857Y-64178856D01*
X190348856Y-64178857D01*
X190259577Y-64296590D01*
X190205374Y-64434038D01*
X190205372Y-64434047D01*
X190195001Y-64520407D01*
X190195000Y-64520428D01*
X190195000Y-64899999D01*
X188905500Y-64899999D01*
X188905500Y-64509744D01*
X188902725Y-64480151D01*
X188859116Y-64355525D01*
X188826974Y-64311974D01*
X188801798Y-64277861D01*
X188780503Y-64213949D01*
X188780500Y-64213135D01*
X188780500Y-63992722D01*
X188801317Y-63928653D01*
X188824770Y-63905023D01*
X188835272Y-63897272D01*
X188899180Y-63875975D01*
X188963404Y-63896310D01*
X188964663Y-63897224D01*
X189069206Y-63974381D01*
X189193121Y-64017741D01*
X189222543Y-64020500D01*
X189597456Y-64020499D01*
X189626879Y-64017741D01*
X189750794Y-63974381D01*
X189826552Y-63918468D01*
X189856418Y-63896427D01*
X189856419Y-63896425D01*
X189856423Y-63896423D01*
X189856507Y-63896310D01*
X189883603Y-63859595D01*
X189934381Y-63790794D01*
X189977741Y-63666879D01*
X189977741Y-63666870D01*
X189979157Y-63660397D01*
X189981938Y-63661004D01*
X190003967Y-63609951D01*
X190061916Y-63575597D01*
X190128989Y-63581866D01*
X190152156Y-63595468D01*
X190234982Y-63659024D01*
X190267063Y-63672312D01*
X190362814Y-63711973D01*
X190362821Y-63711975D01*
X190499997Y-63730035D01*
X190500000Y-63730035D01*
X190500003Y-63730035D01*
X190637178Y-63711975D01*
X190637180Y-63711974D01*
X190637183Y-63711974D01*
X190765018Y-63659024D01*
X190874791Y-63574791D01*
X190959024Y-63465018D01*
X191011974Y-63337183D01*
X191015754Y-63308472D01*
X191030035Y-63200003D01*
X191030035Y-63200002D01*
X191029867Y-63198726D01*
X191030035Y-63197819D01*
X191030035Y-63192856D01*
X191030955Y-63192856D01*
X191042144Y-63132489D01*
X191091010Y-63086118D01*
X191137935Y-63075500D01*
X191206421Y-63075500D01*
X191270490Y-63096317D01*
G37*
%TD.AperFunction*%
%TD*%
M02*
